<?xml version="1.0" standalone="no"?>
<!DOCTYPE svg PUBLIC "-//W3C//DTD SVG 1.1//EN" "http://www.w3.org/Graphics/SVG/1.1/DTD/svg11.dtd" >
<svg xmlns="http://www.w3.org/2000/svg" xmlns:xlink="http://www.w3.org/1999/xlink" version="1.1">
<metadata>
Created by FontForge 20201107 at Fri May  5 14:18:59 2017
 By www-data
Copyright (c) 2014 Indian Type Foundry (info@indiantypefoundry.com)
</metadata>
<defs>
<font id="Sarpanch-SemiBold" horiz-adv-x="370" >
  <font-face 
    font-family="Sarpanch SemiBold"
    font-weight="600"
    font-stretch="normal"
    units-per-em="1000"
    panose-1="0 0 7 0 0 0 0 0 0 0"
    ascent="800"
    descent="-200"
    x-height="485"
    cap-height="622"
    bbox="-577 -483 3241 996"
    underline-thickness="50"
    underline-position="-100"
    unicode-range="U+000D-FB02"
  />
<missing-glyph horiz-adv-x="488" 
 />
    <glyph glyph-name="fi" unicode="fi" horiz-adv-x="645" 
d="M565 485v-485h-129v426h-182v-426h-129v426h-72v59h72v105q0 79 79 79h181v-62h-100q-19 0 -25 -5.5t-6 -25.5v-91h311zM435 669h132v-86h-132v86z" />
    <glyph glyph-name="fl" unicode="fl" horiz-adv-x="646" 
d="M436 669h129v-669h-129v426h-182v-426h-129v426h-72v59h72v105q0 79 79 79h182v-62h-101q-19 0 -25 -5.5t-6 -25.5v-91h182v184z" />
    <glyph glyph-name=".notdef" horiz-adv-x="488" 
 />
    <glyph glyph-name=".null" horiz-adv-x="0" 
 />
    <glyph glyph-name="nonmarkingreturn" horiz-adv-x="333" 
 />
    <glyph glyph-name="NULL" horiz-adv-x="0" 
 />
    <glyph glyph-name="NULL" horiz-adv-x="0" 
 />
    <glyph glyph-name="CR" unicode="&#xd;" horiz-adv-x="0" 
 />
    <glyph glyph-name="space" unicode=" " horiz-adv-x="274" 
 />
    <glyph glyph-name="exclam" unicode="!" horiz-adv-x="311" 
d="M80 622h152l-23 -419h-106zM84 0v125h143v-125h-143z" />
    <glyph glyph-name="quotedbl" unicode="&#x22;" horiz-adv-x="410" 
d="M57 622h117v-232h-117v232zM236 622h117v-232h-117v232z" />
    <glyph glyph-name="numbersign" unicode="#" horiz-adv-x="949" 
d="M572 231l53 160h-235l-52 -160h234zM895 391h-157l-53 -160h159v-75h-184l-51 -156h-113l51 156h-234l-51 -156h-114l51 156h-145v75h170l53 160h-172v75h197l51 156h113l-51 -156h235l51 156h113l-51 -156h132v-75z" />
    <glyph glyph-name="dollar" unicode="$" horiz-adv-x="660" 
d="M231 343h280q79 0 79 -79v-185q0 -79 -79 -79h-120v-91h-129v91h-113q-79 0 -79 79v104h133v-93q0 -20 5.5 -25.5t25.5 -5.5h193q19 0 25 5.5t6 25.5v163q0 19 -6 25t-25 6h-280q-79 0 -79 79v180q0 79 79 79h115v92h129v-92h117q79 0 79 -79v-104h-133v93q0 20 -6 25.5
t-25 5.5h-192q-19 0 -25 -5.5t-6 -25.5v-158q0 -20 6 -25.5t25 -5.5z" />
    <glyph glyph-name="percent" unicode="%" horiz-adv-x="1128" 
d="M1076 280v-216q0 -63 -60 -63h-259q-61 0 -61 63v216q0 63 61 63h259q60 0 60 -63zM975 77v190q0 16 -4.5 20.5t-20.5 4.5h-127q-16 0 -20 -4.5t-4 -20.5v-190q0 -17 4 -21.5t20 -4.5h127q16 0 20.5 4.5t4.5 21.5zM742 622h109l-469 -622h-107zM432 558v-216
q0 -63 -61 -63h-259q-60 0 -60 63v216q0 63 60 63h259q61 0 61 -63zM330 355v190q0 17 -4.5 21.5t-20.5 4.5h-126q-16 0 -20.5 -4.5t-4.5 -21.5v-190q0 -16 4.5 -21t20.5 -5h126q16 0 20.5 5t4.5 21z" />
    <glyph glyph-name="ampersand" unicode="&#x26;" horiz-adv-x="852" 
d="M230 59h314l-221 184l-84 -31q-23 -9 -31.5 -21t-8.5 -35v-66q0 -20 5.5 -25.5t25.5 -5.5zM275 532v-79q0 -22 11.5 -41t22.5 -29t52 -44l84 31q35 12 49 27.5t14 42.5v92q0 20 -6 25.5t-25 5.5h-171q-20 0 -25.5 -5.5t-5.5 -25.5zM149 0q-79 0 -79 79v84q0 41 18.5 62.5
t67.5 38.5l98 36q-66 53 -86.5 79t-20.5 64v100q0 79 79 79h331q79 0 79 -79v-93q0 -52 -23.5 -80.5t-76.5 -48.5l-106 -39l258 -216q4 7 4 24v141h105v-145q0 -57 -40 -77l64 -54h-152l-54 45h-466z" />
    <glyph glyph-name="quotesingle" unicode="'" horiz-adv-x="235" 
d="M57 622h121v-232h-121v232z" />
    <glyph glyph-name="parenleft" unicode="(" horiz-adv-x="352" 
d="M86 137v224q0 183 74 270t209 87h36v-59h-25q-161 -7 -161 -280v-260q0 -272 161 -279h25v-59h-36q-283 0 -283 356z" />
    <glyph glyph-name="parenright" unicode=")" horiz-adv-x="352" 
d="M266 361v-224q0 -356 -282 -356h-37v59h25q161 7 161 279v260q0 273 -161 280h-25v59h37q134 0 208 -87t74 -270z" />
    <glyph glyph-name="asterisk" unicode="*" horiz-adv-x="501" 
d="M202 655h101v-64q0 -38 -12 -74q31 21 65 33l60 20l32 -97l-61 -20q-36 -11 -72 -11q30 -24 50 -52l37 -51l-82 -60l-38 52q-20 30 -33 66q-13 -35 -34 -64l-37 -51l-82 60l37 50q19 27 53 53q-36 0 -71 12l-61 19l32 97l60 -19q36 -13 66 -34q-10 33 -10 71v64z" />
    <glyph glyph-name="plus" unicode="+" horiz-adv-x="674" 
d="M617 355v-89h-217v-153h-126v153h-217v89h217v153h126v-153h217z" />
    <glyph glyph-name="comma" unicode="," horiz-adv-x="251" 
d="M59 -138v270h142v-72l-95 -198h-47z" />
    <glyph glyph-name="hyphen" unicode="-" horiz-adv-x="414" 
d="M59 242v59h296v-59h-296z" />
    <glyph glyph-name="period" unicode="." horiz-adv-x="260" 
d="M59 0v125h142v-125h-142z" />
    <glyph glyph-name="slash" unicode="/" horiz-adv-x="430" 
d="M393 699h120l-417 -835h-120z" />
    <glyph glyph-name="zero" unicode="0" horiz-adv-x="691" 
d="M611 543v-464q0 -79 -79 -79h-373q-79 0 -79 79v464q0 79 79 79h373q79 0 79 -79zM477 90v442q0 20 -5.5 25.5t-25.5 5.5h-200q-20 0 -25.5 -5.5t-5.5 -25.5v-442q0 -20 5.5 -25.5t25.5 -5.5h200q20 0 25.5 5.5t5.5 25.5z" />
    <glyph glyph-name="one" unicode="1" horiz-adv-x="368" 
d="M288 622v-622h-137v563h-127v59h264z" />
    <glyph glyph-name="two" unicode="2" horiz-adv-x="637" 
d="M190 532v-122h-135v133q0 79 79 79h369q79 0 79 -79v-64q0 -60 -12.5 -92t-50.5 -67l-286 -261h352v-59h-530v59l334 304q32 30 45.5 55t13.5 64v50q0 20 -6 25.5t-25 5.5h-196q-19 0 -25 -5.5t-6 -25.5z" />
    <glyph glyph-name="three" unicode="3" horiz-adv-x="670" 
d="M203 532v-106h-134v117q0 79 79 79h372q79 0 79 -79v-167q0 -56 -50 -59q50 -6 50 -58v-180q0 -79 -79 -79h-372q-79 0 -79 79v116h134v-105q0 -20 5.5 -25.5t25.5 -5.5h200q20 0 25.5 5.5t5.5 25.5v164q0 20 -5.5 25.5t-25.5 5.5h-159v60h159q20 0 25.5 5.5t5.5 25.5
v156q0 20 -5.5 25.5t-25.5 5.5h-200q-20 0 -25.5 -5.5t-5.5 -25.5z" />
    <glyph glyph-name="four" unicode="4" horiz-adv-x="673" 
d="M656 160v-59h-108v-101h-127v101h-387v70l286 451h139l-286 -462h248v168h127v-168h108z" />
    <glyph glyph-name="five" unicode="5" horiz-adv-x="651" 
d="M221 379h296q79 0 79 -79v-221q0 -79 -79 -79h-359q-79 0 -79 79v122h134v-111q0 -20 5.5 -25.5t25.5 -5.5h188q20 0 25.5 5.5t5.5 25.5v199q0 19 -5.5 25t-25.5 6h-349v302h503v-59h-365v-184z" />
    <glyph glyph-name="six" unicode="6" horiz-adv-x="667" 
d="M462 90v177q0 19 -6 25t-25 6h-216v-208q0 -20 5.5 -25.5t25.5 -5.5h185q19 0 25 5.5t6 25.5zM215 357h302q79 0 79 -79v-199q0 -79 -79 -79h-358q-79 0 -79 79v464q0 79 79 79h352q79 0 79 -79v-115h-133v104q0 20 -5.5 25.5t-25.5 5.5h-180q-20 0 -25.5 -5.5
t-5.5 -25.5v-175z" />
    <glyph glyph-name="seven" unicode="7" horiz-adv-x="538" 
d="M521 622v-62l-270 -560h-142l273 563h-349v59h488z" />
    <glyph glyph-name="eight" unicode="8" horiz-adv-x="674" 
d="M158 622h358q79 0 79 -79v-171q0 -56 -49 -59q49 -6 49 -58v-176q0 -79 -79 -79h-358q-79 0 -79 79v176q0 52 49 58q-49 3 -49 59v171q0 79 79 79zM213 252v-162q0 -20 5.5 -25.5t25.5 -5.5h187q19 0 25 5.5t6 25.5v162q0 20 -6 25.5t-25 5.5h-187q-20 0 -25.5 -5.5
t-5.5 -25.5zM462 374v158q0 20 -6 25.5t-25 5.5h-187q-20 0 -25.5 -5.5t-5.5 -25.5v-158q0 -20 5.5 -25.5t25.5 -5.5h187q19 0 25 5.5t6 25.5z" />
    <glyph glyph-name="nine" unicode="9" horiz-adv-x="671" 
d="M241 318h215v214q0 20 -6 25.5t-25 5.5h-184q-19 0 -25 -5.5t-6 -25.5v-183q0 -19 6 -25t25 -6zM154 622h358q79 0 79 -79v-464q0 -79 -79 -79h-351q-79 0 -79 79v107h134v-96q0 -20 6 -25.5t25 -5.5h178q19 0 25 5.5t6 25.5v169h-302q-79 0 -79 79v205q0 79 79 79z" />
    <glyph glyph-name="colon" unicode=":" horiz-adv-x="260" 
d="M59 366h142v-247h-142v247z" />
    <glyph glyph-name="semicolon" unicode=";" horiz-adv-x="251" 
d="M59 360v125h142v-125h-142zM59 -138v270h142v-72l-95 -198h-47z" />
    <glyph glyph-name="less" unicode="&#x3c;" horiz-adv-x="683" 
d="M632 400l-485 -88l485 -90v-96l-595 136v101l595 132v-95z" />
    <glyph glyph-name="equal" unicode="=" horiz-adv-x="703" 
d="M72 360v90h559v-90h-559zM72 170v90h559v-90h-559z" />
    <glyph glyph-name="greater" unicode="&#x3e;" horiz-adv-x="683" 
d="M536 312l-484 88v95l594 -132v-101l-594 -136v96z" />
    <glyph glyph-name="question" unicode="?" horiz-adv-x="595" 
d="M207 0v125h143v-125h-143zM106 622h361q79 0 79 -78v-195q0 -78 -79 -78h-127l-6 -68h-109l-10 130h171q18 0 23.5 6.5t5.5 25.5v166q0 20 -5.5 26.5t-23.5 6.5h-198q-19 0 -24.5 -6.5t-5.5 -26.5v-99h-131v112q0 78 79 78z" />
    <glyph glyph-name="at" unicode="@" horiz-adv-x="1126" 
d="M409 426h188q40 0 52 -29v29h112v-308h152q18 0 23 5t5 23v328q0 18 -5 23.5t-23 5.5h-691q-18 0 -23 -5.5t-5 -23.5v-457q0 -18 5 -23t23 -5h649v-60h-717q-72 0 -72 72v490q0 72 72 72h827q72 0 72 -72v-360q0 -72 -72 -72h-327v59q-6 -40 -57 -40h-188q-72 0 -72 72
v204q0 72 72 72zM449 339v-174q0 -18 5 -23t23 -5h140q31 0 32 30v170q-1 30 -32 30h-140q-18 0 -23 -5.5t-5 -22.5z" />
    <glyph glyph-name="A" unicode="A" horiz-adv-x="707" 
d="M223 182h259l-130 356zM549 0l-45 123h-302l-45 -123h-131l239 622h176l240 -622h-132z" />
    <glyph glyph-name="B" unicode="B" horiz-adv-x="705" 
d="M89 622h457q79 0 79 -79v-173q0 -56 -50 -59q50 -6 50 -58v-174q0 -79 -79 -79h-457v622zM495 87v164q0 19 -5.5 25t-25.5 6h-241v-223h239q19 0 26 5.5t7 22.5zM495 372v160q0 20 -5.5 25.5t-25.5 5.5h-241v-222h241q20 0 25.5 5.5t5.5 25.5z" />
    <glyph glyph-name="C" unicode="C" horiz-adv-x="664" 
d="M608 407h-135v125q0 20 -5.5 25.5t-25.5 5.5h-196q-20 0 -25.5 -5.5t-5.5 -25.5v-442q0 -20 5.5 -25.5t25.5 -5.5h196q20 0 25.5 5.5t5.5 25.5v125h135v-136q0 -79 -79 -79h-370q-79 0 -79 79v464q0 79 79 79h370q79 0 79 -79v-136z" />
    <glyph glyph-name="D" unicode="D" horiz-adv-x="707" 
d="M493 90v442q0 20 -5.5 25.5t-25.5 5.5h-239v-504h239q20 0 25.5 5.5t5.5 25.5zM89 622h459q79 0 79 -79v-464q0 -79 -79 -79h-459v622z" />
    <glyph glyph-name="E" unicode="E" horiz-adv-x="602" 
d="M227 59h332v-59h-470v622h456v-59h-318v-215h277v-59h-277v-230z" />
    <glyph glyph-name="F" unicode="F" horiz-adv-x="575" 
d="M546 563h-319v-239h280v-59h-280v-265h-138v622h457v-59z" />
    <glyph glyph-name="G" unicode="G" horiz-adv-x="680" 
d="M609 427h-135v105q0 20 -6 25.5t-25 5.5h-197q-20 0 -25.5 -5.5t-5.5 -25.5v-442q0 -20 5.5 -25.5t25.5 -5.5h198q20 0 25.5 5.5t5.5 25.5v171h-139v59h273v-241q0 -79 -79 -79h-371q-79 0 -79 79v464q0 79 79 79h371q79 0 79 -79v-116z" />
    <glyph glyph-name="H" unicode="H" horiz-adv-x="755" 
d="M532 622h134v-622h-134v282h-309v-282h-134v622h134v-281h309v281z" />
    <glyph glyph-name="I" unicode="I" horiz-adv-x="332" 
d="M97 622h138v-622h-138v622z" />
    <glyph glyph-name="J" unicode="J" horiz-adv-x="609" 
d="M34 227h135v-137q0 -20 5.5 -25.5t25.5 -5.5h164q20 0 25.5 5.5t5.5 25.5v532h134v-543q0 -79 -79 -79h-337q-79 0 -79 79v148z" />
    <glyph glyph-name="K" unicode="K" horiz-adv-x="693" 
d="M510 622h152l-273 -304l283 -318h-154l-278 318zM89 622h131v-622h-131v622z" />
    <glyph glyph-name="L" unicode="L" horiz-adv-x="556" 
d="M223 59h308v-59h-442v622h134v-563z" />
    <glyph glyph-name="M" unicode="M" horiz-adv-x="887" 
d="M208 0h-119v622h144l207 -397l215 397h143v-622h-119v483l-188 -348h-100l-183 348v-483z" />
    <glyph glyph-name="N" unicode="N" horiz-adv-x="730" 
d="M518 622h123v-622h-122l-307 485v-485h-123v622h126l303 -483v483z" />
    <glyph glyph-name="O" unicode="O" horiz-adv-x="684" 
d="M604 543v-464q0 -79 -79 -79h-366q-79 0 -79 79v464q0 79 79 79h366q79 0 79 -79zM471 90v442q0 20 -5.5 25.5t-25.5 5.5h-195q-19 0 -25 -5.5t-6 -25.5v-442q0 -20 6 -25.5t25 -5.5h195q20 0 25.5 5.5t5.5 25.5z" />
    <glyph glyph-name="P" unicode="P" horiz-adv-x="680" 
d="M495 293v239q0 20 -5.5 25.5t-25.5 5.5h-241v-301h241q20 0 25.5 6t5.5 25zM89 622h460q79 0 79 -79v-261q0 -79 -79 -79h-326v-203h-134v622z" />
    <glyph glyph-name="Q" unicode="Q" horiz-adv-x="656" 
d="M198 532v-442q0 -20 6 -25.5t25 -5.5h198q19 0 25 5.5t6 25.5v442q0 20 -6 25.5t-25 5.5h-198q-19 0 -25 -5.5t-6 -25.5zM145 0q-79 0 -79 79v464q0 79 79 79h365q79 0 79 -79v-464q0 -79 -79 -79h-35l119 -97h-157l-113 97h-179z" />
    <glyph glyph-name="R" unicode="R" horiz-adv-x="700" 
d="M223 563v-281h242q19 0 25 6t6 25v219q0 20 -6 25.5t-25 5.5h-242zM223 223v-223h-134v622h461q79 0 79 -79v-241q0 -79 -79 -79h-53l141 -223h-139l-136 223h-140z" />
    <glyph glyph-name="S" unicode="S" horiz-adv-x="661" 
d="M457 90v163q0 19 -5.5 25t-25.5 6h-278q-79 0 -79 79v180q0 79 79 79h361q79 0 79 -79v-107h-135v96q0 20 -5.5 25.5t-25.5 5.5h-187q-19 0 -25 -5.5t-6 -25.5v-158q0 -20 6 -25.5t25 -5.5h277q79 0 79 -79v-185q0 -79 -79 -79h-361q-79 0 -79 79v107h134v-96
q0 -20 6 -25.5t25 -5.5h189q20 0 25.5 5.5t5.5 25.5z" />
    <glyph glyph-name="T" unicode="T" horiz-adv-x="576" 
d="M568 622v-59h-213v-563h-134v563h-212v59h559z" />
    <glyph glyph-name="U" unicode="U" horiz-adv-x="697" 
d="M214 622v-532q0 -20 6 -25.5t25 -5.5h208q19 0 25 5.5t6 25.5v532h133v-543q0 -79 -79 -79h-379q-79 0 -79 79v543h134z" />
    <glyph glyph-name="V" unicode="V" horiz-adv-x="703" 
d="M539 622h135l-237 -622h-172l-237 622h136l186 -532z" />
    <glyph glyph-name="W" unicode="W" horiz-adv-x="1080" 
d="M920 622h131l-207 -622h-167l-138 479l-137 -479h-167l-206 622h136l154 -528l151 528h138l151 -528z" />
    <glyph glyph-name="X" unicode="X" horiz-adv-x="687" 
d="M417 321l244 -321h-145l-174 237l-176 -237h-141l242 314l-233 308h146l162 -223l160 223h141z" />
    <glyph glyph-name="Y" unicode="Y" horiz-adv-x="660" 
d="M403 0h-134v202l-262 420h134l194 -333l185 333h133l-250 -419v-203z" />
    <glyph glyph-name="Z" unicode="Z" horiz-adv-x="636" 
d="M585 622v-59l-381 -504h371v-59h-523v59l380 504h-368v59h521z" />
    <glyph glyph-name="bracketleft" unicode="[" horiz-adv-x="340" 
d="M378 661h-156v-822h156v-59h-291v940h291v-59z" />
    <glyph glyph-name="backslash" unicode="\" horiz-adv-x="423" 
d="M-82 699h119l417 -835h-120z" />
    <glyph glyph-name="bracketright" unicode="]" horiz-adv-x="340" 
d="M253 720v-940h-291v59h156v822h-156v59h291z" />
    <glyph glyph-name="asciicircum" unicode="^" horiz-adv-x="650" 
d="M248 668h154l205 -340h-126l-156 264l-156 -264h-126z" />
    <glyph glyph-name="underscore" unicode="_" horiz-adv-x="605" 
d="M3 -59v59h599v-59h-599z" />
    <glyph glyph-name="grave" unicode="`" horiz-adv-x="508" 
d="M309 652l139 -146h-115l-167 146h143z" />
    <glyph glyph-name="a" unicode="a" horiz-adv-x="642" 
d="M232 59h166q19 0 27 7.5t8 25.5v301q0 18 -8 25.5t-27 7.5h-166q-20 0 -25.5 -6t-5.5 -25v-305q0 -20 5.5 -25.5t25.5 -5.5zM433 485h129v-485h-129v31q-12 -31 -56 -31h-226q-79 0 -79 79v327q0 79 79 79h226q44 0 56 -31v31z" />
    <glyph glyph-name="b" unicode="b" horiz-adv-x="642" 
d="M442 90v305q0 19 -6 25t-25 6h-166q-35 0 -35 -33v-32h-1v-244h1v-25q0 -33 35 -33h166q19 0 25 5.5t6 25.5zM266 485h226q79 0 79 -79v-327q0 -79 -79 -79h-226q-45 0 -57 34v-34h-129v669h129v-218q12 34 57 34z" />
    <glyph glyph-name="c" unicode="c" horiz-adv-x="604" 
d="M551 320h-127v75q0 19 -6 25t-25 6h-161q-20 0 -25.5 -6t-5.5 -25v-305q0 -20 5.5 -25.5t25.5 -5.5h161q19 0 25 5.5t6 25.5v74h127v-85q0 -79 -79 -79h-321q-79 0 -79 79v327q0 79 79 79h321q79 0 79 -79v-86z" />
    <glyph glyph-name="d" unicode="d" horiz-adv-x="642" 
d="M232 59h166q19 0 27 7.5t8 25.5v301q0 18 -8 25.5t-27 7.5h-166q-20 0 -25.5 -6t-5.5 -25v-305q0 -20 5.5 -25.5t25.5 -5.5zM433 669h129v-669h-129v31q-12 -31 -56 -31h-226q-79 0 -79 79v327q0 79 79 79h226q44 0 56 -31v215z" />
    <glyph glyph-name="e" unicode="e" horiz-adv-x="635" 
d="M201 278h245v117q0 19 -6 25t-25 6h-183q-20 0 -25.5 -6t-5.5 -25v-117zM151 485h342q79 0 79 -79v-187h-371v-129q0 -20 5.5 -25.5t25.5 -5.5h181q19 0 25 5.5t6 25.5v55h126v-66q0 -79 -79 -79h-340q-79 0 -79 79v327q0 79 79 79z" />
    <glyph glyph-name="f" unicode="f" horiz-adv-x="390" 
d="M382 607h-104q-20 0 -25.5 -5.5t-5.5 -25.5v-91h135v-59h-135v-426h-129v426h-72v59h72v105q0 79 79 79h185v-62z" />
    <glyph glyph-name="g" unicode="g" horiz-adv-x="635" 
d="M232 59h166q19 0 27 7.5t8 25.5v301q0 18 -8 25.5t-27 7.5h-166q-20 0 -25.5 -6t-5.5 -25v-305q0 -20 5.5 -25.5t25.5 -5.5zM562 21h1v-83q0 -79 -79 -79h-391v59h310q19 0 25 6t6 25v62h-1v20q-12 -31 -56 -31h-226q-79 0 -79 79v327q0 79 79 79h226q44 0 56 -31v31h129
v-464z" />
    <glyph glyph-name="h" unicode="h" horiz-adv-x="643" 
d="M266 485h227q79 0 79 -79v-406h-130v395q0 19 -6 25t-25 6h-166q-35 0 -35 -33v-30h-1v-363h-129v669h129v-218q12 34 57 34z" />
    <glyph glyph-name="i" unicode="i" horiz-adv-x="304" 
d="M217 0h-130v485h130v-485zM85 573v97h135v-97h-135z" />
    <glyph glyph-name="j" unicode="j" horiz-adv-x="297" 
d="M87 -51v536h130v-547q0 -79 -79 -79h-174v59h92q20 0 25.5 6t5.5 25zM85 573v97h135v-97h-135z" />
    <glyph glyph-name="k" unicode="k" horiz-adv-x="625" 
d="M80 0v669h129v-669h-129zM606 485l-231 -240l231 -245h-149l-226 245l226 240h149z" />
    <glyph glyph-name="l" unicode="l" horiz-adv-x="307" 
d="M218 0h-129v669h129v-669z" />
    <glyph glyph-name="m" unicode="m" horiz-adv-x="979" 
d="M622 485h207q79 0 79 -79v-406h-129v395q0 19 -5.5 25t-25.5 6h-148q-36 0 -36 -37v-389h-130v395q0 19 -6 25t-25 6h-159q-35 0 -35 -33v-393h-129v485h129v-31q12 31 56 31h220q58 0 73 -42q12 42 64 42z" />
    <glyph glyph-name="n" unicode="n" horiz-adv-x="642" 
d="M266 485h226q79 0 79 -79v-406h-129v395q0 19 -6 25t-25 6h-166q-35 0 -35 -33v-31h-1v-362h-129v485h129v-34q12 34 57 34z" />
    <glyph glyph-name="o" unicode="o" horiz-adv-x="637" 
d="M437 90v305q0 19 -5.5 25t-25.5 6h-175q-19 0 -25 -6t-6 -25v-305q0 -20 6 -25.5t25 -5.5h175q20 0 25.5 5.5t5.5 25.5zM151 485h335q79 0 79 -79v-327q0 -79 -79 -79h-335q-79 0 -79 79v327q0 79 79 79z" />
    <glyph glyph-name="p" unicode="p" horiz-adv-x="650" 
d="M449 90v305q0 19 -5.5 25t-25.5 6h-174q-35 0 -35 -34v-300q0 -33 35 -33h174q20 0 25.5 5.5t5.5 25.5zM265 485h234q79 0 79 -79v-327q0 -79 -79 -79h-234q-44 0 -56 31v-172h-129v626h128v-35q12 35 57 35z" />
    <glyph glyph-name="q" unicode="q" horiz-adv-x="645" 
d="M257 59h173q19 0 27 7.5t8 25.5v300q0 19 -8 26.5t-27 7.5h-173q-19 0 -25 -6t-6 -25v-305q0 -20 6 -25.5t25 -5.5zM467 485h128v-626h-130v170q-14 -29 -55 -29h-234q-79 0 -79 79v327q0 79 79 79h234q45 0 57 -35v35z" />
    <glyph glyph-name="r" unicode="r" horiz-adv-x="396" 
d="M301 486h87v-65h-110q-69 0 -69 -75v-346h-129v485h129v-60q19 61 92 61z" />
    <glyph glyph-name="s" unicode="s" horiz-adv-x="592" 
d="M402 89v92q0 19 -6 25t-25 6h-225q-79 0 -79 79v115q0 79 79 79h301q79 0 79 -79v-61h-126v51q0 20 -6 25.5t-25 5.5h-142q-19 0 -25 -5.5t-6 -25.5v-94q0 -20 6 -25.5t25 -5.5h224q79 0 79 -79v-113q0 -79 -79 -79h-302q-79 0 -79 79v61h126v-51q0 -19 6 -25t25 -6h144
q19 0 25 6t6 25z" />
    <glyph glyph-name="t" unicode="t" horiz-adv-x="384" 
d="M350 426h-113v-332q0 -20 5.5 -25.5t25.5 -5.5h81v-63h-162q-79 0 -79 79v347h-78v59h78v96h129v-96h113v-59z" />
    <glyph glyph-name="u" unicode="u" horiz-adv-x="642" 
d="M433 485h129v-485h-129v31q-12 -31 -56 -31h-226q-79 0 -79 79v406h129v-395q0 -20 5.5 -25.5t25.5 -5.5h166q19 0 27 7.5t8 25.5v393z" />
    <glyph glyph-name="v" unicode="v" horiz-adv-x="610" 
d="M22 485h128l154 -402l156 402h128l-198 -485h-171z" />
    <glyph glyph-name="w" unicode="w" horiz-adv-x="902" 
d="M758 485h122l-163 -485h-159l-107 389l-105 -389h-159l-165 485h123l126 -402l115 402h132l113 -402z" />
    <glyph glyph-name="x" unicode="x" horiz-adv-x="612" 
d="M377 255l215 -255h-151l-148 175l-157 -175h-110l213 235l-209 250h151l141 -172l148 172h113z" />
    <glyph glyph-name="y" unicode="y" horiz-adv-x="600" 
d="M224 -141h-109v59h66q58 0 78 42l19 40h-48l-204 485h133l153 -399l152 399h130l-222 -523q-22 -54 -52 -78.5t-96 -24.5z" />
    <glyph glyph-name="z" unicode="z" horiz-adv-x="524" 
d="M475 59v-59h-426v59l284 367h-270v59h408v-59l-285 -367h289z" />
    <glyph glyph-name="braceleft" unicode="{" horiz-adv-x="415" 
d="M302 597v-226q0 -54 -21 -86.5t-63 -36.5q42 -4 63 -36.5t21 -86.5v-223q0 -33 9.5 -48.5t37.5 -15.5h98v-59h-131q-78 0 -112.5 30.5t-34.5 103.5v204q0 54 -21 78t-69 24h-16v59h16q48 0 69 25t21 79v203q0 73 34.5 104t112.5 31h131v-59h-98q-28 0 -37.5 -15.5
t-9.5 -48.5z" />
    <glyph glyph-name="bar" unicode="|" horiz-adv-x="302" 
d="M90 750h122v-879h-122v879z" />
    <glyph glyph-name="braceright" unicode="}" horiz-adv-x="420" 
d="M118 371v226q0 33 -9.5 48.5t-36.5 15.5h-99v59h131q78 0 112.5 -31t34.5 -104v-203q0 -54 21.5 -79t69.5 -25h15v-59h-15q-48 0 -69.5 -24t-21.5 -78v-204q0 -73 -34.5 -103.5t-112.5 -30.5h-131v59h99q27 0 36.5 15.5t9.5 48.5v223q0 54 21 86.5t63 36.5
q-42 4 -63 36.5t-21 86.5z" />
    <glyph glyph-name="asciitilde" unicode="~" horiz-adv-x="788" 
d="M339 242q-48 25 -85.5 25t-48 -8.5t-10.5 -31.5v-60h-126v89q0 77 77 77h122q40 0 77.5 -16t62.5 -35q68 -50 136 -50q28 0 38.5 9t10.5 32v60h127v-89q0 -77 -79 -77h-118q-43 0 -89.5 25t-94.5 50z" />
    <glyph glyph-name="exclamdown" unicode="&#xa1;" horiz-adv-x="304" 
d="M99 282h106l23 -419h-152zM81 485h142v-126h-142v126z" />
    <glyph glyph-name="cent" unicode="&#xa2;" horiz-adv-x="600" 
d="M549 320h-127v75q0 19 -6 25t-25 6h-162q-19 0 -25 -6t-6 -25v-305q0 -20 6 -25.5t25 -5.5h162q19 0 25 5.5t6 25.5v74h127v-85q0 -79 -79 -79h-98v-77h-129v77h-95q-79 0 -79 79v327q0 79 79 79h95v77h129v-77h98q79 0 79 -79v-86z" />
    <glyph glyph-name="sterling" unicode="&#xa3;" horiz-adv-x="699" 
d="M650 81v-81h-585v70q75 5 75 114v88h-82v59h82v212q0 79 79 79h340q79 0 79 -79v-112h-134v101q0 20 -6 25.5t-25 5.5h-167q-20 0 -25.5 -5.5t-5.5 -25.5v-201h269v-59h-269v-81q0 -49 -6.5 -74.5t-27.5 -35.5h409z" />
    <glyph glyph-name="currency" unicode="&#xa4;" horiz-adv-x="746" 
d="M281 169h189q39 0 52.5 10t13.5 47v137q0 38 -14.5 51.5t-51.5 13.5h-189q-38 0 -52 -13.5t-14 -51.5v-137q0 -37 13 -47t53 -10zM641 374v-152q0 -28 -8 -52l50 -49l-73 -73l-65 64q-22 -2 -35 -2h-270q-16 0 -38 2l-66 -64l-73 73l53 52q-7 20 -7 49v152q0 29 7 49
l-53 52l73 74l66 -64q22 2 38 2h270q13 0 35 -2l65 64l73 -74l-50 -49q8 -24 8 -52z" />
    <glyph glyph-name="yen" unicode="&#xa5;" horiz-adv-x="720" 
d="M433 200h202v-59h-202v-141h-134v141h-204v59h204v2l-42 67h-162v59h125l-183 294h134l194 -333l185 333h133l-175 -294h126v-59h-161l-40 -66v-3z" />
    <glyph glyph-name="brokenbar" unicode="&#xa6;" horiz-adv-x="288" 
d="M83 250h122v-379h-122v379zM205 371h-122v379h122v-379z" />
    <glyph glyph-name="section" unicode="&#xa7;" horiz-adv-x="724" 
d="M589 142v-109q0 -79 -79 -79h-301q-79 0 -79 79v57h132v-46q0 -20 6 -25.5t25 -5.5h134q19 0 25 5.5t6 25.5v91q0 19 -6 25t-25 6h-215q-79 0 -79 79v88q0 72 53 84q-27 20 -27 52v113q0 79 79 79h303q79 0 79 -79v-57h-132v46q0 19 -6 25t-25 6h-135q-20 0 -25.5 -6
t-5.5 -25v-91q0 -20 5.5 -25.5t25.5 -5.5h216q79 0 79 -79v-92q0 -71 -54 -81q26 -19 26 -55zM454 390h-158q-20 0 -25.5 -6t-5.5 -25v-103q0 -20 5.5 -25.5t25.5 -5.5h158q20 0 25.5 5.5t5.5 25.5v103q0 19 -5.5 25t-25.5 6z" />
    <glyph glyph-name="dieresis" unicode="&#xa8;" horiz-adv-x="629" 
d="M375 634h155v-99h-155v99zM98 634h156v-99h-156v99z" />
    <glyph glyph-name="copyright" unicode="&#xa9;" horiz-adv-x="1057" 
d="M980 341v-65q0 -141 -60 -208.5t-202 -67.5h-380q-141 0 -201 67.5t-60 208.5v65q0 141 60 211t201 70h380q141 0 201.5 -70t60.5 -211zM356 60h345q91 0 128.5 52.5t37.5 156.5v78q0 105 -38 161t-128 56h-345q-90 0 -128 -56t-38 -161v-78q0 -104 37.5 -156.5
t128.5 -52.5zM622 240v31h103v-42q0 -79 -79 -79h-234q-79 0 -79 79v173q0 79 79 79h234q79 0 79 -79v-42h-103v31q0 19 -6 25t-25 6h-124q-19 0 -25 -6t-6 -25v-151q0 -20 6 -25.5t25 -5.5h124q19 0 25 5.5t6 25.5z" />
    <glyph glyph-name="ordfeminine" unicode="&#xaa;" horiz-adv-x="440" 
d="M167 322h97q25 0 25 24v210q0 24 -25 24h-97q-14 0 -18.5 -4t-4.5 -18v-214q0 -14 4.5 -18t18.5 -4zM289 622h92v-342h-92v23q-9 -23 -40 -23h-140q-56 0 -56 56v230q0 56 56 56h140q31 0 40 -23v23z" />
    <glyph glyph-name="guillemotleft" unicode="&#xab;" horiz-adv-x="599" 
d="M465 407l-131 -153l131 -152h-191l-130 153l130 152h191z" />
    <glyph glyph-name="logicalnot" unicode="&#xac;" horiz-adv-x="760" 
d="M693 398v-249h-84v145h-546v104h630z" />
    <glyph glyph-name="uni00AD" unicode="&#xad;" horiz-adv-x="357" 
d="M55 256v58h246v-58h-246z" />
    <glyph glyph-name="registered" unicode="&#xae;" horiz-adv-x="629" 
d="M574 532v-37q0 -78 -34.5 -116.5t-115.5 -38.5h-219q-81 0 -115.5 38t-34.5 117v37q0 80 34.5 119t115.5 39h219q81 0 115.5 -39.5t34.5 -118.5zM216 381h198q48 0 68.5 28t20.5 83v44q0 116 -89 116h-198q-89 0 -89 -116v-44q0 -55 20.5 -83t68.5 -28zM219 613h154
q32 0 32 -31v-60q0 -31 -29 -31h-9l47 -71h-63l-43 70h-31v-70h-58v193zM347 534v37q0 11 -11 11h-59v-59h59q11 0 11 11z" />
    <glyph glyph-name="macron" unicode="&#xaf;" horiz-adv-x="629" 
d="M113 550v58h403v-58h-403z" />
    <glyph glyph-name="degree" unicode="&#xb0;" horiz-adv-x="585" 
d="M526 544v-141q0 -78 -78 -78h-311q-78 0 -78 78v141q0 78 78 78h311q78 0 78 -78zM404 413v122q0 19 -6 24.5t-25 5.5h-160q-19 0 -25 -5.5t-6 -24.5v-122q0 -19 6 -25t25 -6h160q19 0 25 6t6 25z" />
    <glyph glyph-name="plusminus" unicode="&#xb1;" horiz-adv-x="700" 
d="M67 123v74h560v-74h-560zM407 405h220v-82h-220v-86h-120v86h-220v82h220v103h120v-103z" />
    <glyph glyph-name="twosuperior" unicode="&#xb2;" horiz-adv-x="385" 
d="M138 563v-54h-83v70q0 43 43 43h201q43 0 43 -43v-42q0 -66 -41 -101l-137 -112h176v-44h-282v44l169 144q31 27 31 70v25q0 11 -3 14t-14 3h-86q-11 0 -14 -3t-3 -14z" />
    <glyph glyph-name="threesuperior" unicode="&#xb3;" horiz-adv-x="406" 
d="M143 563v-49h-84v65q0 43 44 43h206q44 0 44 -43v-92q0 -31 -27 -33q27 -2 27 -32v-99q0 -43 -44 -43h-206q-44 0 -44 43v64h84v-47q0 -11 3 -14.5t14 -3.5h92q11 0 14 3.5t3 14.5v75q0 11 -3.5 14t-13.5 3h-90v43h90q11 0 14 3t3 14v71q0 11 -3.5 14t-13.5 3h-92
q-10 0 -13.5 -3t-3.5 -14z" />
    <glyph glyph-name="acute" unicode="&#xb4;" horiz-adv-x="629" 
d="M169 506l139 146h143l-167 -146h-115z" />
    <glyph glyph-name="uni00B5" unicode="&#xb5;" horiz-adv-x="652" 
d="M442 485h129v-485h-129v31q-12 -31 -56 -31h-176v-141h-130v626h130v-395q0 -20 6 -25.5t25 -5.5h166q35 0 35 33v393z" />
    <glyph glyph-name="paragraph" unicode="&#xb6;" horiz-adv-x="753" 
d="M434 622v-763h-118v361h-169q-79 0 -79 79v244q0 79 79 79h287zM549 622h118v-763h-118v763z" />
    <glyph glyph-name="periodcentered" unicode="&#xb7;" horiz-adv-x="288" 
d="M75 251v126h142v-126h-142z" />
    <glyph glyph-name="cedilla" unicode="&#xb8;" horiz-adv-x="629" 
d="M321 -134v85h122v-92q0 -86 -86 -86h-179v58h109q19 0 26.5 7.5t7.5 27.5z" />
    <glyph glyph-name="onesuperior" unicode="&#xb9;" horiz-adv-x="259" 
d="M195 622v-342h-90v300h-81v42h171z" />
    <glyph glyph-name="ordmasculine" unicode="&#xba;" horiz-adv-x="440" 
d="M375 570v-238q0 -52 -51 -52h-212q-52 0 -52 52v238q0 52 52 52h212q51 0 51 -52zM287 343v217q0 13 -3.5 16.5t-16.5 3.5h-99q-13 0 -17 -3.5t-4 -16.5v-217q0 -13 4 -17t17 -4h99q13 0 16.5 4t3.5 17z" />
    <glyph glyph-name="guillemotright" unicode="&#xbb;" horiz-adv-x="591" 
d="M320 407l130 -152l-130 -153h-190l130 152l-130 153h190z" />
    <glyph glyph-name="questiondown" unicode="&#xbf;" horiz-adv-x="628" 
d="M416 484v-125h-143v125h143zM465 52h131v-112q0 -78 -79 -78h-361q-79 0 -79 78v195q0 78 79 78h127l6 68h109l10 -130h-171q-18 0 -23.5 -6.5t-5.5 -25.5v-166q0 -20 5.5 -26.5t23.5 -6.5h198q19 0 24.5 6.5t5.5 26.5v99z" />
    <glyph glyph-name="Agrave" unicode="&#xc0;" horiz-adv-x="706" 
d="M399 670h-115l-167 146h143zM223 182h259l-130 356zM548 0l-45 123h-301l-45 -123h-132l240 622h175l240 -622h-132z" />
    <glyph glyph-name="Aacute" unicode="&#xc1;" horiz-adv-x="706" 
d="M586 816l-167 -146h-115l139 146h143zM222 182h259l-130 356zM548 0l-45 123h-302l-45 -123h-131l239 622h176l240 -622h-132z" />
    <glyph glyph-name="Acircumflex" unicode="&#xc2;" horiz-adv-x="706" 
d="M352 765l-104 -96h-135l172 149h133l172 -149h-135zM222 182h259l-130 356zM548 0l-45 123h-302l-45 -123h-131l239 622h176l240 -622h-132z" />
    <glyph glyph-name="Atilde" unicode="&#xc3;" horiz-adv-x="706" 
d="M239 725v-56h-107v61q0 77 75 77h34q36 0 118 -38.5t101 -38.5t19 22v55h106v-61q0 -77 -73 -77h-38q-36 0 -117 39t-99.5 39t-18.5 -22zM222 182h259l-130 356zM548 0l-45 123h-302l-45 -123h-131l239 622h176l240 -622h-132z" />
    <glyph glyph-name="Adieresis" unicode="&#xc4;" horiz-adv-x="706" 
d="M570 768v-99h-156v99h156zM293 768v-99h-155v99h155zM223 182h259l-130 356zM548 0l-45 123h-301l-45 -123h-132l240 622h175l240 -622h-132z" />
    <glyph glyph-name="Aring" unicode="&#xc5;" horiz-adv-x="706" 
d="M270 766v-17q0 -18 5 -23.5t24 -5.5h107q19 0 24 5.5t5 23.5v17q0 18 -5 23.5t-24 5.5h-107q-19 0 -24 -5.5t-5 -23.5zM451 670h-198q-69 0 -69 69v37q0 70 69 70h198q70 0 70 -70v-37q0 -69 -70 -69zM222 182h259l-130 356zM548 0l-45 123h-302l-45 -123h-131l239 622
h176l240 -622h-132z" />
    <glyph glyph-name="AE" unicode="&#xc6;" horiz-adv-x="1039" 
d="M529 198v341l-230 -341h230zM663 59h325v-59h-459v139h-270l-94 -139h-142l428 622h524v-59h-312v-215h278v-59h-278v-230z" />
    <glyph glyph-name="Ccedilla" unicode="&#xc7;" horiz-adv-x="659" 
d="M274 -134v85h122v-92q0 -86 -86 -86h-179v58h109q19 0 26.5 7.5t7.5 27.5zM606 407h-135v125q0 20 -5.5 25.5t-25.5 5.5h-196q-20 0 -25.5 -5.5t-5.5 -25.5v-442q0 -20 5.5 -25.5t25.5 -5.5h196q20 0 25.5 5.5t5.5 25.5v125h135v-136q0 -79 -79 -79h-370q-79 0 -79 79
v464q0 79 79 79h370q79 0 79 -79v-136z" />
    <glyph glyph-name="Egrave" unicode="&#xc8;" horiz-adv-x="600" 
d="M381 669h-115l-167 146h143zM226 59h332v-59h-470v622h456v-59h-318v-215h277v-59h-277v-230z" />
    <glyph glyph-name="Eacute" unicode="&#xc9;" horiz-adv-x="600" 
d="M552 815l-167 -146h-115l139 146h143zM226 59h332v-59h-470v622h456v-59h-318v-215h277v-59h-277v-230z" />
    <glyph glyph-name="Ecircumflex" unicode="&#xca;" horiz-adv-x="600" 
d="M322 765l-104 -96h-135l172 149h133l172 -149h-135zM226 289v-230h332v-59h-470v622h456v-59h-318v-215h277v-59h-277z" />
    <glyph glyph-name="Edieresis" unicode="&#xcb;" horiz-adv-x="620" 
d="M533 768v-99h-156v99h156zM256 768v-99h-155v99h155zM226 59h332v-59h-470v622h456v-59h-318v-215h277v-59h-277v-230z" />
    <glyph glyph-name="Igrave" unicode="&#xcc;" horiz-adv-x="323" 
d="M94 622h138v-622h-138v622zM74 815l139 -146h-115l-167 146h143z" />
    <glyph glyph-name="Iacute" unicode="&#xcd;" horiz-adv-x="323" 
d="M94 622h138v-622h-138v622zM112 669l139 146h143l-167 -146h-115z" />
    <glyph glyph-name="Icircumflex" unicode="&#xce;" horiz-adv-x="323" 
d="M94 622h138v-622h-138v622zM-70 670l172 149h133l172 -149h-135l-103 96l-104 -96h-135z" />
    <glyph glyph-name="Idieresis" unicode="&#xcf;" horiz-adv-x="323" 
d="M95 622h137v-622h-137v622zM-52 768h155v-99h-155v99zM225 768h155v-99h-155v99z" />
    <glyph glyph-name="Eth" unicode="&#xd0;" horiz-adv-x="721" 
d="M508 90v442q0 20 -6 25.5t-25 5.5h-237v-219h169v-61h-169v-224h237q19 0 25 5.5t6 25.5zM106 622h458q79 0 79 -79v-464q0 -79 -79 -79h-458v283h-59v61h59v278z" />
    <glyph glyph-name="Ntilde" unicode="&#xd1;" horiz-adv-x="728" 
d="M517 622h123v-622h-122l-307 485v-485h-123v622h126l303 -483v483zM364 709q-81 39 -99.5 39t-18.5 -22v-56h-107v61q0 77 75 77h34q36 0 118 -38.5t101 -38.5t19 22v55h106v-61q0 -77 -73 -77h-38q-36 0 -117 39z" />
    <glyph glyph-name="Ograve" unicode="&#xd2;" horiz-adv-x="683" 
d="M603 543v-464q0 -79 -79 -79h-366q-79 0 -79 79v464q0 79 79 79h366q79 0 79 -79zM470 90v442q0 20 -6 25.5t-25 5.5h-195q-20 0 -25.5 -5.5t-5.5 -25.5v-442q0 -20 5.5 -25.5t25.5 -5.5h195q19 0 25 5.5t6 25.5zM264 815l139 -146h-115l-167 146h143z" />
    <glyph glyph-name="Oacute" unicode="&#xd3;" horiz-adv-x="683" 
d="M294 669l139 146h143l-167 -146h-115zM603 543v-464q0 -79 -79 -79h-366q-79 0 -79 79v464q0 79 79 79h366q79 0 79 -79zM470 90v442q0 20 -6 25.5t-25 5.5h-195q-20 0 -25.5 -5.5t-5.5 -25.5v-442q0 -20 5.5 -25.5t25.5 -5.5h195q19 0 25 5.5t6 25.5z" />
    <glyph glyph-name="Ocircumflex" unicode="&#xd4;" horiz-adv-x="683" 
d="M103 669l172 149h133l172 -149h-135l-103 96l-104 -96h-135zM603 543v-464q0 -79 -79 -79h-366q-79 0 -79 79v464q0 79 79 79h366q79 0 79 -79zM470 90v442q0 20 -6 25.5t-25 5.5h-195q-20 0 -25.5 -5.5t-5.5 -25.5v-442q0 -20 5.5 -25.5t25.5 -5.5h195q19 0 25 5.5
t6 25.5z" />
    <glyph glyph-name="Otilde" unicode="&#xd5;" horiz-adv-x="683" 
d="M603 543v-464q0 -79 -79 -79h-366q-79 0 -79 79v464q0 79 79 79h366q79 0 79 -79zM470 90v442q0 20 -6 25.5t-25 5.5h-195q-20 0 -25.5 -5.5t-5.5 -25.5v-442q0 -20 5.5 -25.5t25.5 -5.5h195q19 0 25 5.5t6 25.5zM337 709q-81 39 -99.5 39t-18.5 -22v-56h-107v61
q0 77 75 77h34q36 0 118 -38.5t101 -38.5t19 22v55h106v-61q0 -77 -73 -77h-38q-36 0 -117 39z" />
    <glyph glyph-name="Odieresis" unicode="&#xd6;" horiz-adv-x="676" 
d="M603 543v-464q0 -79 -79 -79h-366q-79 0 -79 79v464q0 79 79 79h366q79 0 79 -79zM470 90v442q0 20 -6 25.5t-25 5.5h-195q-20 0 -25.5 -5.5t-5.5 -25.5v-442q0 -20 5.5 -25.5t25.5 -5.5h195q19 0 25 5.5t6 25.5zM403 769h156v-100h-156v100zM127 769h155v-100h-155v100z
" />
    <glyph glyph-name="multiply" unicode="&#xd7;" horiz-adv-x="663" 
d="M593 438l-175 -123l172 -121l-61 -71l-191 135l-192 -135l-60 71l171 121l-175 123l61 71l195 -137l194 137z" />
    <glyph glyph-name="Oslash" unicode="&#xd8;" horiz-adv-x="709" 
d="M493 88v358l-275 -379q4 -10 28 -10h215q20 0 26 5.5t6 25.5zM215 534v-362l277 379q-4 14 -31 14h-215q-20 0 -25.5 -5.5t-5.5 -25.5zM622 543v-464q0 -79 -79 -79h-374l-20 -27h-79l35 48q-18 19 -18 58v464q0 79 79 79h377l20 27h78l-36 -49q17 -22 17 -57z" />
    <glyph glyph-name="Ugrave" unicode="&#xd9;" horiz-adv-x="698" 
d="M214 622v-532q0 -20 6 -25.5t25 -5.5h208q19 0 25 5.5t6 25.5v532h133v-543q0 -79 -79 -79h-379q-79 0 -79 79v543h134zM279 815l139 -146h-115l-167 146h143z" />
    <glyph glyph-name="Uacute" unicode="&#xda;" horiz-adv-x="698" 
d="M296 669l139 146h143l-167 -146h-115zM214 622v-532q0 -20 6 -25.5t25 -5.5h208q19 0 25 5.5t6 25.5v532h133v-543q0 -79 -79 -79h-379q-79 0 -79 79v543h134z" />
    <glyph glyph-name="Ucircumflex" unicode="&#xdb;" horiz-adv-x="698" 
d="M109 669l172 149h133l172 -149h-135l-103 96l-104 -96h-135zM214 622v-532q0 -20 6 -25.5t25 -5.5h208q19 0 25 5.5t6 25.5v532h133v-543q0 -79 -79 -79h-379q-79 0 -79 79v543h134z" />
    <glyph glyph-name="Udieresis" unicode="&#xdc;" horiz-adv-x="698" 
d="M484 622h133v-543q0 -79 -79 -79h-379q-79 0 -79 79v543h134v-532q0 -20 6 -25.5t25 -5.5h208q19 0 25 5.5t6 25.5v532zM129 768h156v-99h-156v99zM406 768h155v-99h-155v99z" />
    <glyph glyph-name="Yacute" unicode="&#xdd;" horiz-adv-x="659" 
d="M570 815l-167 -146h-115l139 146h143zM402 0h-134v202l-262 420h134l194 -333l185 333h133l-250 -419v-203z" />
    <glyph glyph-name="Thorn" unicode="&#xde;" horiz-adv-x="680" 
d="M486 192v238q0 20 -6 25.5t-25 5.5h-232v-300h232q19 0 25 5.5t6 25.5zM223 520h317q79 0 79 -79v-260q0 -79 -79 -79h-317v-102h-133v622h133v-102z" />
    <glyph glyph-name="germandbls" unicode="&#xdf;" horiz-adv-x="851" 
d="M331 154h128v-64q0 -20 5.5 -25.5t25.5 -5.5h154q20 0 25.5 5.5t5.5 25.5v111q0 19 -5.5 25t-25.5 6h-234q-79 0 -79 79v73q0 79 76 79h183q22 0 28.5 5.5t6.5 22.5v39q0 20 -6 26t-25 6h-342q-19 0 -25 -6t-6 -26v-530h-131v543q0 79 79 79h511q79 0 79 -79v-68
q0 -70 -72 -70h-200q-19 0 -25 -5.5t-6 -25.5v-53q0 -19 6 -25t25 -6h237q79 0 79 -79v-132q0 -79 -79 -79h-314q-79 0 -79 79v75z" />
    <glyph glyph-name="agrave" unicode="&#xe0;" horiz-adv-x="640" 
d="M393 532h-115l-167 146h143zM230 59h166q19 0 27 7.5t8 25.5v301q0 18 -8 25.5t-27 7.5h-166q-20 0 -25.5 -6t-5.5 -25v-305q0 -20 5.5 -25.5t25.5 -5.5zM431 485h129v-485h-129v31q-12 -31 -56 -31h-226q-79 0 -79 79v327q0 79 79 79h226q44 0 56 -31v31z" />
    <glyph glyph-name="aacute" unicode="&#xe1;" horiz-adv-x="640" 
d="M547 678l-167 -146h-115l139 146h143zM230 59h166q19 0 27 7.5t8 25.5v301q0 18 -8 25.5t-27 7.5h-166q-20 0 -25.5 -6t-5.5 -25v-305q0 -20 5.5 -25.5t25.5 -5.5zM431 485h129v-485h-129v31q-12 -31 -56 -31h-226q-79 0 -79 79v327q0 79 79 79h226q44 0 56 -31v31z" />
    <glyph glyph-name="acircumflex" unicode="&#xe2;" horiz-adv-x="640" 
d="M319 628l-104 -96h-135l172 149h133l172 -149h-135zM230 59h166q19 0 27 7.5t8 25.5v301q0 18 -8 25.5t-27 7.5h-166q-20 0 -25.5 -6t-5.5 -25v-305q0 -20 5.5 -25.5t25.5 -5.5zM431 485h129v-485h-129v31q-12 -31 -56 -31h-226q-79 0 -79 79v327q0 79 79 79h226
q44 0 56 -31v31z" />
    <glyph glyph-name="atilde" unicode="&#xe3;" horiz-adv-x="640" 
d="M198 589v-56h-107v61q0 77 75 77h34q36 0 118 -38.5t101 -38.5t19 22v55h106v-61q0 -77 -73 -77h-38q-36 0 -117 39t-99.5 39t-18.5 -22zM230 59h166q19 0 27 7.5t8 25.5v301q0 18 -8 25.5t-27 7.5h-166q-20 0 -25.5 -6t-5.5 -25v-305q0 -20 5.5 -25.5t25.5 -5.5z
M431 485h129v-485h-129v31q-12 -31 -56 -31h-226q-79 0 -79 79v327q0 79 79 79h226q44 0 56 -31v31z" />
    <glyph glyph-name="adieresis" unicode="&#xe4;" horiz-adv-x="640" 
d="M539 631v-99h-155v99h155zM263 631v-99h-156v99h156zM230 59h166q19 0 27 7.5t8 25.5v301q0 18 -8 25.5t-27 7.5h-166q-20 0 -25.5 -6t-5.5 -25v-305q0 -20 5.5 -25.5t25.5 -5.5zM431 485h129v-485h-129v31q-12 -31 -56 -31h-226q-79 0 -79 79v327q0 79 79 79h226
q44 0 56 -31v31z" />
    <glyph glyph-name="aring" unicode="&#xe5;" horiz-adv-x="640" 
d="M235 629v-17q0 -18 5 -23.5t24 -5.5h107q19 0 24 5.5t5 23.5v17q0 18 -5 23.5t-24 5.5h-107q-19 0 -24 -5.5t-5 -23.5zM416 533h-198q-69 0 -69 69v37q0 70 69 70h198q70 0 70 -70v-37q0 -69 -70 -69zM230 59h166q19 0 27 7.5t8 25.5v301q0 18 -8 25.5t-27 7.5h-166
q-20 0 -25.5 -6t-5.5 -25v-305q0 -20 5.5 -25.5t25.5 -5.5zM431 485h129v-485h-129v31q-12 -31 -56 -31h-226q-79 0 -79 79v327q0 79 79 79h226q44 0 56 -31v31z" />
    <glyph glyph-name="ae" unicode="&#xe6;" horiz-adv-x="985" 
d="M231 59h154q18 0 25.5 6.5t7.5 23.5v126l-218 -48v-77q0 -20 6 -25.5t25 -5.5zM751 426h-175q-20 0 -25.5 -6t-5.5 -25v-117h237v117q0 19 -6 25t-25 6zM901 219h-356v-129q0 -20 5.5 -25.5t25.5 -5.5h173q19 0 25 5.5t6 25.5v54h127v-65q0 -79 -79 -79h-271
q-65 0 -76 37q-12 -37 -84 -37h-247q-79 0 -79 79v122l347 78v117q0 18 -7.5 24.5t-25.5 6.5h-154q-19 0 -25 -5.5t-6 -25.5v-88h-129v98q0 79 79 79h247q72 0 84 -37q11 37 76 37h273q79 0 79 -79v-185h-8v-2z" />
    <glyph glyph-name="ccedilla" unicode="&#xe7;" horiz-adv-x="600" 
d="M248 -134v85h122v-92q0 -86 -86 -86h-179v58h109q19 0 26.5 7.5t7.5 27.5zM549 320h-127v75q0 19 -6 25t-25 6h-161q-20 0 -25.5 -6t-5.5 -25v-305q0 -20 5.5 -25.5t25.5 -5.5h161q19 0 25 5.5t6 25.5v74h127v-85q0 -79 -79 -79h-321q-79 0 -79 79v327q0 79 79 79h321
q79 0 79 -79v-86z" />
    <glyph glyph-name="egrave" unicode="&#xe8;" horiz-adv-x="630" 
d="M389 532h-115l-167 146h143zM199 278h245v117q0 19 -6 25t-25 6h-183q-20 0 -25.5 -6t-5.5 -25v-117zM149 485h342q79 0 79 -79v-187h-371v-129q0 -20 5.5 -25.5t25.5 -5.5h181q19 0 25 5.5t6 25.5v55h126v-66q0 -79 -79 -79h-340q-79 0 -79 79v327q0 79 79 79z" />
    <glyph glyph-name="eacute" unicode="&#xe9;" horiz-adv-x="630" 
d="M553 678l-167 -146h-115l139 146h143zM199 278h245v117q0 19 -6 25t-25 6h-183q-20 0 -25.5 -6t-5.5 -25v-117zM149 485h342q79 0 79 -79v-187h-371v-129q0 -20 5.5 -25.5t25.5 -5.5h181q19 0 25 5.5t6 25.5v55h126v-66q0 -79 -79 -79h-340q-79 0 -79 79v327q0 79 79 79z
" />
    <glyph glyph-name="ecircumflex" unicode="&#xea;" horiz-adv-x="630" 
d="M323 628l-104 -96h-135l172 149h133l172 -149h-135zM199 278h245v117q0 19 -6 25t-25 6h-183q-20 0 -25.5 -6t-5.5 -25v-117zM149 485h342q79 0 79 -79v-187h-371v-129q0 -20 5.5 -25.5t25.5 -5.5h181q19 0 25 5.5t6 25.5v55h126v-66q0 -79 -79 -79h-340q-79 0 -79 79
v327q0 79 79 79z" />
    <glyph glyph-name="edieresis" unicode="&#xeb;" horiz-adv-x="630" 
d="M260 631v-99h-156v99h156zM536 631v-99h-155v99h155zM148 485h343q79 0 79 -79v-187h-372v-129q0 -20 6 -25.5t25 -5.5h182q19 0 25 5.5t6 25.5v55h126v-66q0 -79 -79 -79h-341q-79 0 -79 79v327q0 79 79 79zM198 278h246v117q0 19 -6 25t-25 6h-184q-19 0 -25 -6t-6 -25
v-117z" />
    <glyph glyph-name="igrave" unicode="&#xec;" horiz-adv-x="304" 
d="M217 0h-129v485h129v-485zM64 678l139 -146h-115l-167 146h143z" />
    <glyph glyph-name="iacute" unicode="&#xed;" horiz-adv-x="304" 
d="M217 0h-129v485h129v-485zM101 532l139 146h143l-167 -146h-115z" />
    <glyph glyph-name="icircumflex" unicode="&#xee;" horiz-adv-x="304" 
d="M217 0h-129v485h129v-485zM-85 532l172 149h133l172 -149h-135l-103 96l-104 -96h-135z" />
    <glyph glyph-name="idieresis" unicode="&#xef;" horiz-adv-x="304" 
d="M217 0h-129v485h129v-485zM216 631h155v-99h-155v99zM-61 631h156v-99h-156v99z" />
    <glyph glyph-name="eth" unicode="&#xf0;" horiz-adv-x="470" 
d="M472 90v228h-227q-19 0 -25 -6t-6 -25v-197q0 -20 6 -25.5t25 -5.5h196q19 0 25 5.5t6 25.5zM601 312v-233q0 -79 -79 -79h-358q-79 0 -79 79v219q0 79 79 79h298q-15 50 -59 101l-166 -43v57l121 31q-49 43 -144 99h175q50 -33 88 -69l116 30v-57l-72 -18
q80 -96 80 -196z" />
    <glyph glyph-name="ntilde" unicode="&#xf1;" horiz-adv-x="642" 
d="M206 588v-56h-107v61q0 77 75 77h34q36 0 118 -38.5t101 -38.5t19 22v55h106v-61q0 -77 -73 -77h-38q-36 0 -117 39t-99.5 39t-18.5 -22zM266 485h226q79 0 79 -79v-406h-129v395q0 19 -6 25t-25 6h-166q-35 0 -35 -33v-31h-1v-362h-129v485h129v-34q12 34 57 34z" />
    <glyph glyph-name="ograve" unicode="&#xf2;" horiz-adv-x="636" 
d="M382 532h-115l-167 146h143zM437 90v305q0 19 -5.5 25t-25.5 6h-175q-19 0 -25 -6t-6 -25v-305q0 -20 6 -25.5t25 -5.5h175q20 0 25.5 5.5t5.5 25.5zM151 485h335q79 0 79 -79v-327q0 -79 -79 -79h-335q-79 0 -79 79v327q0 79 79 79z" />
    <glyph glyph-name="oacute" unicode="&#xf3;" horiz-adv-x="636" 
d="M555 678l-167 -146h-115l139 146h143zM437 90v305q0 19 -5.5 25t-25.5 6h-175q-19 0 -25 -6t-6 -25v-305q0 -20 6 -25.5t25 -5.5h175q20 0 25.5 5.5t5.5 25.5zM151 485h335q79 0 79 -79v-327q0 -79 -79 -79h-335q-79 0 -79 79v327q0 79 79 79z" />
    <glyph glyph-name="ocircumflex" unicode="&#xf4;" horiz-adv-x="636" 
d="M320 628l-104 -96h-135l172 149h133l172 -149h-135zM437 90v305q0 19 -5.5 25t-25.5 6h-175q-19 0 -25 -6t-6 -25v-305q0 -20 6 -25.5t25 -5.5h175q20 0 25.5 5.5t5.5 25.5zM151 485h335q79 0 79 -79v-327q0 -79 -79 -79h-335q-79 0 -79 79v327q0 79 79 79z" />
    <glyph glyph-name="otilde" unicode="&#xf5;" horiz-adv-x="636" 
d="M202 588v-56h-107v61q0 77 75 77h34q36 0 118 -38.5t101 -38.5t19 22v55h106v-61q0 -77 -73 -77h-38q-36 0 -117 39t-99.5 39t-18.5 -22zM437 90v305q0 19 -5.5 25t-25.5 6h-175q-19 0 -25 -6t-6 -25v-305q0 -20 6 -25.5t25 -5.5h175q20 0 25.5 5.5t5.5 25.5zM151 485
h335q79 0 79 -79v-327q0 -79 -79 -79h-335q-79 0 -79 79v327q0 79 79 79z" />
    <glyph glyph-name="odieresis" unicode="&#xf6;" horiz-adv-x="636" 
d="M150 485h336q79 0 79 -79v-327q0 -79 -79 -79h-336q-79 0 -79 79v327q0 79 79 79zM437 395q0 19 -5.5 25t-25.5 6h-175q-19 0 -25 -6t-6 -25v-305q0 -20 6 -25.5t25 -5.5h175q20 0 25.5 5.5t5.5 25.5v305zM105 631h156v-99h-156v99zM382 631h155v-99h-155v99z" />
    <glyph glyph-name="divide" unicode="&#xf7;" horiz-adv-x="671" 
d="M52 266v89h559v-89h-559zM265 508h133v-87h-133v87zM265 200h133v-87h-133v87z" />
    <glyph glyph-name="oslash" unicode="&#xf8;" horiz-adv-x="651" 
d="M449 87v251l-237 -279q5 -4 22 -4h183q20 0 26 6t6 26zM203 399v-261l242 284q-7 8 -28 8h-183q-20 0 -25.5 -6t-5.5 -25zM572 406v-327q0 -79 -79 -79h-331l-23 -27h-76l38 45q-22 19 -22 61v327q0 79 79 79h340l22 26h76l-41 -48q17 -20 17 -57z" />
    <glyph glyph-name="ugrave" unicode="&#xf9;" horiz-adv-x="642" 
d="M393 532h-115l-167 146h143zM433 485h129v-485h-129v31q-12 -31 -56 -31h-226q-79 0 -79 79v406h129v-395q0 -20 5.5 -25.5t25.5 -5.5h166q19 0 27 7.5t8 25.5v393z" />
    <glyph glyph-name="uacute" unicode="&#xfa;" horiz-adv-x="642" 
d="M544 678l-167 -146h-115l139 146h143zM433 485h129v-485h-129v31q-12 -31 -56 -31h-226q-79 0 -79 79v406h129v-395q0 -20 5.5 -25.5t25.5 -5.5h166q19 0 27 7.5t8 25.5v393z" />
    <glyph glyph-name="ucircumflex" unicode="&#xfb;" horiz-adv-x="642" 
d="M316 628l-104 -96h-135l172 149h133l172 -149h-135zM433 485h129v-485h-129v31q-12 -31 -56 -31h-226q-79 0 -79 79v406h129v-395q0 -20 5.5 -25.5t25.5 -5.5h166q19 0 27 7.5t8 25.5v393z" />
    <glyph glyph-name="udieresis" unicode="&#xfc;" horiz-adv-x="649" 
d="M533 631v-99h-156v99h156zM256 631v-99h-155v99h155zM433 485h129v-485h-129v31q-12 -31 -56 -31h-227q-79 0 -79 79v406h129v-395q0 -20 6 -25.5t25 -5.5h167q35 0 35 33v393z" />
    <glyph glyph-name="yacute" unicode="&#xfd;" horiz-adv-x="599" 
d="M223 -141h-109v59h66q58 0 78 42l19 40h-48l-204 485h133l153 -399l152 399h130l-222 -523q-22 -54 -52 -78.5t-96 -24.5zM265 532l139 146h143l-167 -146h-115z" />
    <glyph glyph-name="thorn" unicode="&#xfe;" horiz-adv-x="642" 
d="M441 100v304q0 20 -5.5 25.5t-25.5 5.5h-166q-35 0 -35 -33v-300q0 -33 35 -33h166q20 0 25.5 5.5t5.5 25.5zM265 494h226q79 0 79 -79v-326q0 -79 -79 -79h-226q-44 0 -56 31v-182h-129v810h128v-209q12 34 57 34z" />
    <glyph glyph-name="ydieresis" unicode="&#xff;" horiz-adv-x="613" 
d="M224 -141h-109v59h66q31 0 48.5 9.5t28.5 32.5l19 40h-47l-204 485h133l153 -399l151 399h131l-222 -523q-22 -54 -52.5 -78.5t-95.5 -24.5zM376 631h155v-99h-155v99zM99 631h156v-99h-156v99z" />
    <glyph glyph-name="Amacron" unicode="&#x100;" horiz-adv-x="706" 
d="M557 728v-58h-403v58h403zM222 182h259l-130 356zM548 0l-45 123h-302l-45 -123h-131l239 622h176l240 -622h-132z" />
    <glyph glyph-name="amacron" unicode="&#x101;" horiz-adv-x="640" 
d="M512 593v-58h-403v58h403zM230 59h166q19 0 27 7.5t8 25.5v301q0 18 -8 25.5t-27 7.5h-166q-20 0 -25.5 -6t-5.5 -25v-305q0 -20 5.5 -25.5t25.5 -5.5zM431 485h129v-485h-129v31q-12 -31 -56 -31h-226q-79 0 -79 79v327q0 79 79 79h226q44 0 56 -31v31z" />
    <glyph glyph-name="Abreve" unicode="&#x102;" horiz-adv-x="706" 
d="M493 669h-282q-79 0 -79 79v61h116v-52q0 -19 6 -25t25 -6h146q19 0 25 6t6 25v52h116v-61q0 -79 -79 -79zM222 182h259l-130 356zM548 0l-45 123h-302l-45 -123h-131l239 622h176l240 -622h-132z" />
    <glyph glyph-name="abreve" unicode="&#x103;" horiz-adv-x="640" 
d="M459 532h-282q-79 0 -79 79v61h116v-52q0 -20 6 -25.5t25 -5.5h146q19 0 25 5.5t6 25.5v52h116v-61q0 -79 -79 -79zM230 59h166q19 0 27 7.5t8 25.5v301q0 18 -8 25.5t-27 7.5h-166q-20 0 -25.5 -6t-5.5 -25v-305q0 -20 5.5 -25.5t25.5 -5.5zM431 485h129v-485h-129v31
q-12 -31 -56 -31h-226q-79 0 -79 79v327q0 79 79 79h226q44 0 56 -31v31z" />
    <glyph glyph-name="Aogonek" unicode="&#x104;" horiz-adv-x="706" 
d="M222 182h259l-130 356zM534 -183h163v-55h-214q-79 0 -79 79v45q0 79 79 79h65v35l-45 123h-302l-45 -123h-131l239 622h176l240 -622h-5v-89h-141q-20 0 -26 -6t-6 -25v-32q0 -19 6 -25t26 -6z" />
    <glyph glyph-name="aogonek" unicode="&#x105;" horiz-adv-x="640" 
d="M230 59h166q19 0 27 7.5t8 25.5v301q0 18 -8 25.5t-27 7.5h-166q-20 0 -25.5 -6t-5.5 -25v-305q0 -20 5.5 -25.5t25.5 -5.5zM417 -183h163v-55h-214q-79 0 -79 79v45q0 79 79 79h65v66q-12 -31 -56 -31h-226q-79 0 -79 79v327q0 79 79 79h226q44 0 56 -31v31h129v-485h-2
v-89h-141q-20 0 -26 -6t-6 -25v-32q0 -19 6 -25t26 -6z" />
    <glyph glyph-name="Cacute" unicode="&#x106;" horiz-adv-x="659" 
d="M564 816l-167 -146h-115l139 146h143zM606 407h-135v125q0 20 -5.5 25.5t-25.5 5.5h-196q-20 0 -25.5 -5.5t-5.5 -25.5v-442q0 -20 5.5 -25.5t25.5 -5.5h196q20 0 25.5 5.5t5.5 25.5v125h135v-136q0 -79 -79 -79h-370q-79 0 -79 79v464q0 79 79 79h370q79 0 79 -79v-136z
" />
    <glyph glyph-name="cacute" unicode="&#x107;" horiz-adv-x="600" 
d="M543 678l-167 -146h-115l139 146h143zM549 320h-127v75q0 19 -6 25t-25 6h-161q-20 0 -25.5 -6t-5.5 -25v-305q0 -20 5.5 -25.5t25.5 -5.5h161q19 0 25 5.5t6 25.5v74h127v-85q0 -79 -79 -79h-321q-79 0 -79 79v327q0 79 79 79h321q79 0 79 -79v-86z" />
    <glyph glyph-name="Ccaron" unicode="&#x10c;" horiz-adv-x="659" 
d="M410 669h-133l-172 149h135l104 -96l103 96h135zM606 407h-135v125q0 20 -5.5 25.5t-25.5 5.5h-196q-20 0 -25.5 -5.5t-5.5 -25.5v-442q0 -20 5.5 -25.5t25.5 -5.5h196q20 0 25.5 5.5t5.5 25.5v125h135v-136q0 -79 -79 -79h-370q-79 0 -79 79v464q0 79 79 79h370
q79 0 79 -79v-136z" />
    <glyph glyph-name="ccaron" unicode="&#x10d;" horiz-adv-x="600" 
d="M371 532h-133l-172 149h135l104 -96l103 96h135zM549 320h-127v75q0 19 -6 25t-25 6h-161q-20 0 -25.5 -6t-5.5 -25v-305q0 -20 5.5 -25.5t25.5 -5.5h161q19 0 25 5.5t6 25.5v74h127v-85q0 -79 -79 -79h-321q-79 0 -79 79v327q0 79 79 79h321q79 0 79 -79v-86z" />
    <glyph glyph-name="Dcaron" unicode="&#x10e;" horiz-adv-x="709" 
d="M414 669h-133l-172 149h135l104 -96l103 96h135zM496 90v442q0 20 -6 25.5t-25 5.5h-239v-504h239q19 0 25 5.5t6 25.5zM92 622h459q79 0 79 -79v-464q0 -79 -79 -79h-459v622z" />
    <glyph glyph-name="dcaron" unicode="&#x10f;" horiz-adv-x="657" 
d="M431 669h129v-669h-129v30q-13 -30 -56 -30h-227q-79 0 -79 79v327q0 79 79 79h227q43 0 56 -30v214zM644 669h115v-52l-76 -127h-39v179zM229 59h167q35 0 35 33v301q0 33 -35 33h-167q-19 0 -25 -6t-6 -25v-305q0 -20 6 -25.5t25 -5.5z" />
    <glyph glyph-name="Dcroat" unicode="&#x110;" horiz-adv-x="756" 
d="M539 90v442q0 20 -5.5 25.5t-25.5 5.5h-237v-219h168v-61h-168v-224h237q20 0 25.5 5.5t5.5 25.5zM136 622h458q79 0 79 -79v-464q0 -79 -79 -79h-458v283h-59v61h59v278z" />
    <glyph glyph-name="dcroat" unicode="&#x111;" horiz-adv-x="642" 
d="M231 59h167q35 0 35 33v301q0 33 -35 33h-167q-19 0 -25 -6t-6 -25v-305q0 -20 6 -25.5t25 -5.5zM631 599v-59h-69v-540h-129v31q-12 -31 -56 -31h-227q-79 0 -79 79v327q0 79 79 79h227q44 0 56 -31v86h-215v59h215v70h129v-70h69z" />
    <glyph glyph-name="Emacron" unicode="&#x112;" horiz-adv-x="600" 
d="M521 727v-58h-403v58h403zM226 59h332v-59h-470v622h456v-59h-318v-215h277v-59h-277v-230z" />
    <glyph glyph-name="emacron" unicode="&#x113;" horiz-adv-x="630" 
d="M519 593v-58h-403v58h403zM199 278h245v117q0 19 -6 25t-25 6h-183q-20 0 -25.5 -6t-5.5 -25v-117zM149 485h342q79 0 79 -79v-187h-371v-129q0 -20 5.5 -25.5t25.5 -5.5h181q19 0 25 5.5t6 25.5v55h126v-66q0 -79 -79 -79h-340q-79 0 -79 79v327q0 79 79 79z" />
    <glyph glyph-name="Edotaccent" unicode="&#x116;" horiz-adv-x="600" 
d="M406 775v-105h-144v105h144zM226 59h332v-59h-470v622h456v-59h-318v-215h277v-59h-277v-230z" />
    <glyph glyph-name="edotaccent" unicode="&#x117;" horiz-adv-x="630" 
d="M398 637v-105h-144v105h144zM199 278h245v117q0 19 -6 25t-25 6h-183q-20 0 -25.5 -6t-5.5 -25v-117zM149 485h342q79 0 79 -79v-187h-371v-129q0 -20 5.5 -25.5t25.5 -5.5h181q19 0 25 5.5t6 25.5v55h126v-66q0 -79 -79 -79h-340q-79 0 -79 79v327q0 79 79 79z" />
    <glyph glyph-name="Eogonek" unicode="&#x118;" horiz-adv-x="600" 
d="M417 -183h163v-55h-214q-79 0 -79 79v45q0 79 79 79h65v35h-343v622h456v-59h-318v-215h277v-59h-277v-230h332v-148h-141q-20 0 -26 -6t-6 -25v-32q0 -19 6 -25t26 -6z" />
    <glyph glyph-name="eogonek" unicode="&#x119;" horiz-adv-x="630" 
d="M199 278h245v117q0 19 -6 25t-25 6h-183q-20 0 -25.5 -6t-5.5 -25v-117zM149 485h342q79 0 79 -79v-187h-371v-129q0 -20 5.5 -25.5t25.5 -5.5h181q19 0 25 5.5t6 25.5v55h126v-66q0 -79 -79 -79h-101v-89h-141q-20 0 -26 -6t-6 -25v-32q0 -19 6 -25t26 -6h163v-55h-214
q-79 0 -79 79v45q0 79 79 79h65v35h-112q-79 0 -79 79v327q0 79 79 79z" />
    <glyph glyph-name="Ecaron" unicode="&#x11a;" horiz-adv-x="600" 
d="M398 669h-133l-172 149h135l104 -96l103 96h135zM226 289v-230h332v-59h-470v622h456v-59h-318v-215h277v-59h-277z" />
    <glyph glyph-name="ecaron" unicode="&#x11b;" horiz-adv-x="630" 
d="M384 532h-133l-172 149h135l104 -96l103 96h135zM199 278h245v117q0 19 -6 25t-25 6h-183q-20 0 -25.5 -6t-5.5 -25v-117zM149 485h342q79 0 79 -79v-187h-371v-129q0 -20 5.5 -25.5t25.5 -5.5h181q19 0 25 5.5t6 25.5v55h126v-66q0 -79 -79 -79h-340q-79 0 -79 79v327
q0 79 79 79z" />
    <glyph glyph-name="Gbreve" unicode="&#x11e;" horiz-adv-x="676" 
d="M479 669h-282q-79 0 -79 79v61h116v-52q0 -19 6 -25t25 -6h146q19 0 25 6t6 25v52h116v-61q0 -79 -79 -79zM607 427h-135v105q0 20 -6 25.5t-25 5.5h-197q-20 0 -25.5 -5.5t-5.5 -25.5v-442q0 -20 5.5 -25.5t25.5 -5.5h198q20 0 25.5 5.5t5.5 25.5v171h-139v59h273v-241
q0 -79 -79 -79h-371q-79 0 -79 79v464q0 79 79 79h371q79 0 79 -79v-116z" />
    <glyph glyph-name="gbreve" unicode="&#x11f;" horiz-adv-x="633" 
d="M465 532h-282q-79 0 -79 79v61h116v-52q0 -20 6 -25.5t25 -5.5h146q19 0 25 5.5t6 25.5v52h116v-61q0 -79 -79 -79zM230 59h166q19 0 27 7.5t8 25.5v301q0 18 -8 25.5t-27 7.5h-166q-20 0 -25.5 -6t-5.5 -25v-305q0 -20 5.5 -25.5t25.5 -5.5zM560 21h1v-83q0 -79 -79 -79
h-391v59h310q19 0 25 6t6 25v62h-1v20q-12 -31 -56 -31h-226q-79 0 -79 79v327q0 79 79 79h226q44 0 56 -31v31h129v-464z" />
    <glyph glyph-name="uni0122" unicode="&#x122;" horiz-adv-x="676" 
d="M271 -239v190h135v-55l-92 -135h-43zM607 427h-135v105q0 20 -6 25.5t-25 5.5h-197q-20 0 -25.5 -5.5t-5.5 -25.5v-442q0 -20 5.5 -25.5t25.5 -5.5h198q20 0 25.5 5.5t5.5 25.5v171h-139v59h273v-241q0 -79 -79 -79h-371q-79 0 -79 79v464q0 79 79 79h371q79 0 79 -79
v-116z" />
    <glyph glyph-name="uni0123" unicode="&#x123;" horiz-adv-x="633" 
d="M413 722v-191h-135v55l92 136h43zM232 59h166q19 0 27 7.5t8 25.5v301q0 18 -8 25.5t-27 7.5h-166q-20 0 -25.5 -6t-5.5 -25v-305q0 -20 5.5 -25.5t25.5 -5.5zM562 21h1v-83q0 -79 -79 -79h-391v59h310q19 0 25 6t6 25v62h-1v20q-12 -31 -56 -31h-226q-79 0 -79 79v327
q0 79 79 79h226q44 0 56 -31v31h129v-464z" />
    <glyph glyph-name="Imacron" unicode="&#x12a;" horiz-adv-x="323" 
d="M94 622h138v-622h-138v622zM-33 669v58h403v-58h-403z" />
    <glyph glyph-name="imacron" unicode="&#x12b;" horiz-adv-x="304" 
d="M217 0h-129v485h129v-485zM-45 535v58h403v-58h-403z" />
    <glyph glyph-name="Iogonek" unicode="&#x12e;" horiz-adv-x="323" 
d="M88 -183h163v-55h-214q-79 0 -79 79v45q0 79 79 79h65v35h-8v622h138v-622h-3v-89h-141q-20 0 -26 -6t-6 -25v-32q0 -19 6 -25t26 -6z" />
    <glyph glyph-name="iogonek" unicode="&#x12f;" horiz-adv-x="304" 
d="M220 670v-97h-135v97h135zM74 -183h163v-55h-214q-79 0 -79 79v45q0 79 79 79h65v35h-1v485h130v-485h-2v-89h-141q-20 0 -26 -6t-6 -25v-32q0 -19 6 -25t26 -6z" />
    <glyph glyph-name="Idotaccent" unicode="&#x130;" horiz-adv-x="307" 
d="M88 523h136v-523h-136v523zM83 675h144v-105h-144v105z" />
    <glyph glyph-name="dotlessi" unicode="&#x131;" horiz-adv-x="304" 
d="M87 485h130v-485h-130v485z" />
    <glyph glyph-name="uni0136" unicode="&#x136;" horiz-adv-x="689" 
d="M88 622h131v-622h-131v622zM509 622h152l-273 -304l283 -318h-154l-278 318zM289 -239v190h135v-55l-92 -135h-43z" />
    <glyph glyph-name="uni0137" unicode="&#x137;" horiz-adv-x="622" 
d="M80 0v669h129v-669h-129zM246 -239v190h135v-55l-92 -135h-43zM606 485l-231 -240l231 -245h-149l-226 245l226 240h149z" />
    <glyph glyph-name="Lacute" unicode="&#x139;" horiz-adv-x="552" 
d="M389 815l-167 -146h-115l139 146h143zM222 59h308v-59h-442v622h134v-563z" />
    <glyph glyph-name="lacute" unicode="&#x13a;" horiz-adv-x="304" 
d="M101 716l139 146h143l-167 -146h-115zM217 0h-129v669h129v-669z" />
    <glyph glyph-name="uni013B" unicode="&#x13b;" horiz-adv-x="552" 
d="M238 -239v190h135v-55l-92 -135h-43zM222 59h308v-59h-442v622h134v-563z" />
    <glyph glyph-name="uni013C" unicode="&#x13c;" horiz-adv-x="304" 
d="M217 0h-129v669h129v-669zM83 -239v190h135v-55l-92 -135h-43z" />
    <glyph glyph-name="Lcaron" unicode="&#x13d;" horiz-adv-x="552" 
d="M222 670h-133l-172 149h135l104 -96l103 96h135zM222 59h308v-59h-442v622h134v-563z" />
    <glyph glyph-name="lcaron" unicode="&#x13e;" horiz-adv-x="324" 
d="M88 669h129v-669h-129v669zM302 668h115v-52l-76 -127h-39v179z" />
    <glyph glyph-name="Lslash" unicode="&#x141;" horiz-adv-x="559" 
d="M226 59h308v-59h-442v244l-123 -41v63l123 41v315h134v-270l162 54v-63l-162 -54v-230z" />
    <glyph glyph-name="lslash" unicode="&#x142;" horiz-adv-x="309" 
d="M219 0h-129v290l-121 -41v64l121 40v316h129v-273l126 42v-63l-126 -42v-333z" />
    <glyph glyph-name="Nacute" unicode="&#x143;" horiz-adv-x="728" 
d="M316 668l139 146h143l-167 -146h-115zM517 622h123v-622h-122l-307 485v-485h-123v622h126l303 -483v483z" />
    <glyph glyph-name="nacute" unicode="&#x144;" horiz-adv-x="642" 
d="M583 678l-167 -146h-115l139 146h143zM266 485h226q79 0 79 -79v-406h-129v395q0 19 -6 25t-25 6h-166q-35 0 -35 -33v-31h-1v-362h-129v485h129v-34q12 34 57 34z" />
    <glyph glyph-name="uni0145" unicode="&#x145;" horiz-adv-x="728" 
d="M517 622h123v-622h-122l-307 485v-485h-123v622h126l303 -483v483zM299 -239v190h135v-55l-92 -135h-43z" />
    <glyph glyph-name="uni0146" unicode="&#x146;" horiz-adv-x="642" 
d="M259 -239v190h135v-55l-92 -135h-43zM266 485h226q79 0 79 -79v-406h-129v395q0 19 -6 25t-25 6h-166q-35 0 -35 -33v-31h-1v-362h-129v485h129v-34q12 34 57 34z" />
    <glyph glyph-name="Ncaron" unicode="&#x147;" horiz-adv-x="728" 
d="M304 669l-172 149h135l104 -96l103 96h135l-172 -149h-133zM517 622h123v-622h-122l-307 485v-485h-123v622h126l303 -483v483z" />
    <glyph glyph-name="ncaron" unicode="&#x148;" horiz-adv-x="642" 
d="M398 532h-133l-172 149h135l104 -96l103 96h135zM266 485h226q79 0 79 -79v-406h-129v395q0 19 -6 25t-25 6h-166q-35 0 -35 -33v-31h-1v-362h-129v485h129v-34q12 34 57 34z" />
    <glyph glyph-name="Omacron" unicode="&#x14c;" horiz-adv-x="683" 
d="M141 670v58h403v-58h-403zM603 543v-464q0 -79 -79 -79h-366q-79 0 -79 79v464q0 79 79 79h366q79 0 79 -79zM470 90v442q0 20 -6 25.5t-25 5.5h-195q-20 0 -25.5 -5.5t-5.5 -25.5v-442q0 -20 5.5 -25.5t25.5 -5.5h195q19 0 25 5.5t6 25.5z" />
    <glyph glyph-name="omacron" unicode="&#x14d;" horiz-adv-x="636" 
d="M517 593v-58h-403v58h403zM437 90v305q0 19 -5.5 25t-25.5 6h-175q-19 0 -25 -6t-6 -25v-305q0 -20 6 -25.5t25 -5.5h175q20 0 25.5 5.5t5.5 25.5zM151 485h335q79 0 79 -79v-327q0 -79 -79 -79h-335q-79 0 -79 79v327q0 79 79 79z" />
    <glyph glyph-name="Ohungarumlaut" unicode="&#x150;" horiz-adv-x="676" 
d="M158 622h366q79 0 79 -79v-464q0 -79 -79 -79h-366q-79 0 -79 79v464q0 79 79 79zM470 532q0 20 -6 25.5t-25 5.5h-195q-20 0 -25.5 -5.5t-5.5 -25.5v-442q0 -20 5.5 -25.5t25.5 -5.5h195q19 0 25 5.5t6 25.5v442zM337 830h131l-174 -161h-103zM563 830h131l-177 -161
h-102z" />
    <glyph glyph-name="ohungarumlaut" unicode="&#x151;" horiz-adv-x="636" 
d="M150 485h336q79 0 79 -79v-327q0 -79 -79 -79h-336q-79 0 -79 79v327q0 79 79 79zM437 395q0 19 -5.5 25t-25.5 6h-175q-19 0 -25 -6t-6 -25v-305q0 -20 6 -25.5t25 -5.5h175q20 0 25.5 5.5t5.5 25.5v305zM310 693h130l-173 -161h-103zM536 693h130l-176 -161h-103z" />
    <glyph glyph-name="OE" unicode="&#x152;" horiz-adv-x="970" 
d="M475 90v442q0 20 -5.5 25.5t-25.5 5.5h-199q-19 0 -25 -5.5t-6 -25.5v-442q0 -20 6 -25.5t25 -5.5h199q20 0 25.5 5.5t5.5 25.5zM612 59h307v-59h-410v14q-23 -14 -61 -14h-289q-79 0 -79 79v464q0 79 79 79h289q38 0 61 -14v14h398v-59h-295v-215h260v-59h-260v-230z
" />
    <glyph glyph-name="oe" unicode="&#x153;" horiz-adv-x="974" 
d="M556 278h230v117q0 19 -6 25t-25 6h-168q-19 0 -25 -6t-6 -25v-117zM427 89v307q0 17 -7.5 23.5t-25.5 6.5h-162q-20 0 -25.5 -6t-5.5 -25v-305q0 -20 5.5 -25.5t25.5 -5.5h162q18 0 25.5 6.5t7.5 23.5zM564 485h269q79 0 79 -79v-187h-356v-129q0 -20 6 -25.5t25 -5.5
h166q19 0 25 5.5t6 25.5v55h127v-66q0 -79 -79 -79h-269q-65 0 -76 37q-12 -37 -83 -37h-253q-79 0 -79 79v327q0 79 79 79h254q71 0 83 -37q11 37 76 37z" />
    <glyph glyph-name="Racute" unicode="&#x154;" horiz-adv-x="698" 
d="M570 814l-167 -146h-115l139 146h143zM222 563v-281h242q20 0 25.5 6t5.5 25v219q0 20 -5.5 25.5t-25.5 5.5h-242zM222 223v-223h-134v622h461q79 0 79 -79v-241q0 -79 -79 -79h-53l141 -223h-139l-136 223h-140z" />
    <glyph glyph-name="racute" unicode="&#x155;" horiz-adv-x="397" 
d="M483 679l-167 -146h-115l139 146h143zM209 485v-60q19 61 92 61h87v-65h-110q-69 0 -69 -75v-346h-129v485h129z" />
    <glyph glyph-name="uni0156" unicode="&#x156;" horiz-adv-x="698" 
d="M281 -239v190h135v-55l-92 -135h-43zM222 563v-281h242q20 0 25.5 6t5.5 25v219q0 20 -5.5 25.5t-25.5 5.5h-242zM222 223v-223h-134v622h461q79 0 79 -79v-241q0 -79 -79 -79h-53l141 -223h-139l-136 223h-140z" />
    <glyph glyph-name="uni0157" unicode="&#x157;" horiz-adv-x="397" 
d="M76 -239v190h135v-55l-92 -135h-43zM301 486h87v-65h-110q-69 0 -69 -75v-346h-129v485h129v-60q19 61 92 61z" />
    <glyph glyph-name="Rcaron" unicode="&#x158;" horiz-adv-x="698" 
d="M419 667h-133l-172 149h135l104 -96l103 96h135zM222 563v-281h242q20 0 25.5 6t5.5 25v219q0 20 -5.5 25.5t-25.5 5.5h-242zM222 223v-223h-134v622h461q79 0 79 -79v-241q0 -79 -79 -79h-53l141 -223h-139l-136 223h-140z" />
    <glyph glyph-name="rcaron" unicode="&#x159;" horiz-adv-x="397" 
d="M306 533h-133l-172 149h135l104 -96l103 96h135zM209 485v-60q19 61 92 61h87v-65h-110q-69 0 -69 -75v-346h-129v485h129z" />
    <glyph glyph-name="Sacute" unicode="&#x15a;" horiz-adv-x="660" 
d="M284 668l139 146h143l-167 -146h-115zM457 90v163q0 19 -5.5 25t-25.5 6h-278q-79 0 -79 79v180q0 79 79 79h361q79 0 79 -79v-107h-135v96q0 20 -5.5 25.5t-25.5 5.5h-187q-19 0 -25 -5.5t-6 -25.5v-158q0 -20 6 -25.5t25 -5.5h277q79 0 79 -79v-185q0 -79 -79 -79h-361
q-79 0 -79 79v107h134v-96q0 -20 6 -25.5t25 -5.5h189q20 0 25.5 5.5t5.5 25.5z" />
    <glyph glyph-name="sacute" unicode="&#x15b;" horiz-adv-x="590" 
d="M259 532l139 146h143l-167 -146h-115zM402 89v92q0 19 -6 25t-25 6h-225q-79 0 -79 79v115q0 79 79 79h301q79 0 79 -79v-61h-126v51q0 20 -6 25.5t-25 5.5h-142q-19 0 -25 -5.5t-6 -25.5v-94q0 -20 6 -25.5t25 -5.5h224q79 0 79 -79v-113q0 -79 -79 -79h-302
q-79 0 -79 79v61h126v-51q0 -19 6 -25t25 -6h144q19 0 25 6t6 25z" />
    <glyph glyph-name="uni015E" unicode="&#x15e;" horiz-adv-x="660" 
d="M457 90v163q0 19 -5.5 25t-25.5 6h-278q-79 0 -79 79v180q0 79 79 79h361q79 0 79 -79v-107h-135v96q0 20 -5.5 25.5t-25.5 5.5h-187q-19 0 -25 -5.5t-6 -25.5v-158q0 -20 6 -25.5t25 -5.5h277q79 0 79 -79v-185q0 -79 -79 -79h-361q-79 0 -79 79v107h134v-96
q0 -20 6 -25.5t25 -5.5h189q20 0 25.5 5.5t5.5 25.5zM259 -239v190h135v-55l-92 -135h-43z" />
    <glyph glyph-name="uni015F" unicode="&#x15f;" horiz-adv-x="590" 
d="M402 89v92q0 19 -6 25t-25 6h-225q-79 0 -79 79v115q0 79 79 79h301q79 0 79 -79v-61h-126v51q0 20 -6 25.5t-25 5.5h-142q-19 0 -25 -5.5t-6 -25.5v-94q0 -20 6 -25.5t25 -5.5h224q79 0 79 -79v-113q0 -79 -79 -79h-302q-79 0 -79 79v61h126v-51q0 -19 6 -25t25 -6h144
q19 0 25 6t6 25zM227 -239v190h135v-55l-92 -135h-43z" />
    <glyph glyph-name="Scaron" unicode="&#x160;" horiz-adv-x="660" 
d="M268 667l-172 149h135l104 -96l103 96h135l-172 -149h-133zM457 90v163q0 19 -5.5 25t-25.5 6h-278q-79 0 -79 79v180q0 79 79 79h361q79 0 79 -79v-107h-135v96q0 20 -5.5 25.5t-25.5 5.5h-187q-19 0 -25 -5.5t-6 -25.5v-158q0 -20 6 -25.5t25 -5.5h277q79 0 79 -79
v-185q0 -79 -79 -79h-361q-79 0 -79 79v107h134v-96q0 -20 6 -25.5t25 -5.5h189q20 0 25.5 5.5t5.5 25.5z" />
    <glyph glyph-name="scaron" unicode="&#x161;" horiz-adv-x="590" 
d="M237 532l-172 149h135l104 -96l103 96h135l-172 -149h-133zM402 89v92q0 19 -6 25t-25 6h-225q-79 0 -79 79v115q0 79 79 79h301q79 0 79 -79v-61h-126v51q0 20 -6 25.5t-25 5.5h-142q-19 0 -25 -5.5t-6 -25.5v-94q0 -20 6 -25.5t25 -5.5h224q79 0 79 -79v-113
q0 -79 -79 -79h-302q-79 0 -79 79v61h126v-51q0 -19 6 -25t25 -6h144q19 0 25 6t6 25z" />
    <glyph glyph-name="uni0162" unicode="&#x162;" horiz-adv-x="577" 
d="M218 -239v190h135v-55l-92 -135h-43zM569 622v-59h-213v-563h-134v563h-212v59h559z" />
    <glyph glyph-name="uni0163" unicode="&#x163;" horiz-adv-x="577" 
d="M219 -239v190h135v-55l-92 -135h-43zM569 622v-59h-213v-563h-134v563h-212v59h559z" />
    <glyph glyph-name="Tcaron" unicode="&#x164;" horiz-adv-x="577" 
d="M356 667h-133l-172 149h135l104 -96l103 96h135zM569 622v-59h-213v-563h-134v563h-212v59h559z" />
    <glyph glyph-name="tcaron" unicode="&#x165;" horiz-adv-x="383" 
d="M238 581v-96h112v-59h-112v-332q0 -20 6 -25.5t25 -5.5h80v-63h-161q-79 0 -79 79v347h-78v59h78v96h129zM296 727h115v-52l-76 -122h-39v174z" />
    <glyph glyph-name="Umacron" unicode="&#x16a;" horiz-adv-x="698" 
d="M214 622v-532q0 -20 6 -25.5t25 -5.5h208q19 0 25 5.5t6 25.5v532h133v-543q0 -79 -79 -79h-379q-79 0 -79 79v543h134zM146 669v58h403v-58h-403z" />
    <glyph glyph-name="umacron" unicode="&#x16b;" horiz-adv-x="642" 
d="M517 594v-58h-403v58h403zM433 485h129v-485h-129v31q-12 -31 -56 -31h-226q-79 0 -79 79v406h129v-395q0 -20 5.5 -25.5t25.5 -5.5h166q19 0 27 7.5t8 25.5v393z" />
    <glyph glyph-name="Uring" unicode="&#x16e;" horiz-adv-x="698" 
d="M522 776v-37q0 -69 -70 -69h-198q-69 0 -69 69v37q0 70 69 70h198q70 0 70 -70zM436 749v17q0 18 -5 23.5t-24 5.5h-107q-19 0 -24 -5.5t-5 -23.5v-17q0 -18 5 -23.5t24 -5.5h107q19 0 24 5.5t5 23.5zM214 622v-532q0 -20 6 -25.5t25 -5.5h208q19 0 25 5.5t6 25.5v532
h133v-543q0 -79 -79 -79h-379q-79 0 -79 79v543h134z" />
    <glyph glyph-name="uring" unicode="&#x16f;" horiz-adv-x="642" 
d="M234 628v-17q0 -18 5 -23.5t24 -5.5h107q19 0 24 5.5t5 23.5v17q0 18 -5 23.5t-24 5.5h-107q-19 0 -24 -5.5t-5 -23.5zM415 532h-198q-69 0 -69 69v37q0 70 69 70h198q70 0 70 -70v-37q0 -69 -70 -69zM433 485h129v-485h-129v31q-12 -31 -56 -31h-226q-79 0 -79 79v406
h129v-395q0 -20 5.5 -25.5t25.5 -5.5h166q19 0 27 7.5t8 25.5v393z" />
    <glyph glyph-name="Uhungarumlaut" unicode="&#x170;" horiz-adv-x="689" 
d="M214 622v-532q0 -20 6 -25.5t25 -5.5h208q19 0 25 5.5t6 25.5v532h133v-543q0 -79 -79 -79h-379q-79 0 -79 79v543h134zM561 828h130l-176 -161h-103zM335 828h130l-173 -161h-103z" />
    <glyph glyph-name="uhungarumlaut" unicode="&#x171;" horiz-adv-x="642" 
d="M481 533h-103l149 161h130zM431 694l-173 -161h-103l146 161h130zM433 485h129v-485h-129v31q-12 -31 -56 -31h-227q-79 0 -79 79v406h129v-395q0 -20 6 -25.5t25 -5.5h167q35 0 35 33v393z" />
    <glyph glyph-name="Uogonek" unicode="&#x172;" horiz-adv-x="698" 
d="M484 622h133v-543q0 -79 -79 -79h-128v-89h-141q-20 0 -26 -6t-6 -25v-32q0 -19 6 -25t26 -6h163v-55h-214q-79 0 -79 79v45q0 79 79 79h65v35h-124q-79 0 -79 79v543h134v-532q0 -20 6 -25.5t25 -5.5h208q19 0 25 5.5t6 25.5v532z" />
    <glyph glyph-name="uogonek" unicode="&#x173;" horiz-adv-x="642" 
d="M419 -183h163v-55h-214q-79 0 -79 79v45q0 79 79 79h65v66q-12 -31 -56 -31h-226q-79 0 -79 79v406h129v-395q0 -20 5.5 -25.5t25.5 -5.5h166q19 0 27 7.5t8 25.5v393h129v-485h-2v-89h-141q-20 0 -26 -6t-6 -25v-32q0 -19 6 -25t26 -6z" />
    <glyph glyph-name="Ydieresis" unicode="&#x178;" horiz-adv-x="660" 
d="M275 768v-99h-156v99h156zM551 768v-99h-155v99h155zM403 0h-134v203l-262 419h134l194 -333l185 333h133l-250 -418v-204z" />
    <glyph glyph-name="Zacute" unicode="&#x179;" horiz-adv-x="635" 
d="M559 815l-167 -146h-115l139 146h143zM584 622v-59l-381 -504h371v-59h-523v59l380 504h-368v59h521z" />
    <glyph glyph-name="zacute" unicode="&#x17a;" horiz-adv-x="521" 
d="M511 679l-167 -146h-115l139 146h143zM473 59v-59h-426v59l284 367h-270v59h408v-59l-285 -367h289z" />
    <glyph glyph-name="Zdotaccent" unicode="&#x17b;" horiz-adv-x="635" 
d="M407 774v-105h-144v105h144zM584 622v-59l-381 -504h371v-59h-523v59l380 504h-368v59h521z" />
    <glyph glyph-name="zdotaccent" unicode="&#x17c;" horiz-adv-x="521" 
d="M346 637v-105h-144v105h144zM473 59v-59h-426v59l284 367h-270v59h408v-59l-285 -367h289z" />
    <glyph glyph-name="Zcaron" unicode="&#x17d;" horiz-adv-x="635" 
d="M395 669h-133l-172 149h135l104 -96l103 96h135zM584 622v-59l-381 -504h371v-59h-523v59l380 504h-368v59h521z" />
    <glyph glyph-name="zcaron" unicode="&#x17e;" horiz-adv-x="521" 
d="M337 532h-133l-172 149h135l104 -96l103 96h135zM473 59v-59h-426v59l284 367h-270v59h408v-59l-285 -367h289z" />
    <glyph glyph-name="florin" unicode="&#x192;" horiz-adv-x="496" 
d="M466 599h-67q-21 0 -29 -7t-11 -29l-12 -78h111v-59h-120l-74 -474q-8 -48 -35 -70.5t-89 -22.5h-115v62h66q21 0 29 7.5t12 29.5l73 468h-96v59h105l13 83q7 48 34 71t89 23h116v-63z" />
    <glyph glyph-name="uni0218" unicode="&#x218;" horiz-adv-x="660" 
d="M457 90v163q0 19 -5.5 25t-25.5 6h-278q-79 0 -79 79v180q0 79 79 79h361q79 0 79 -79v-107h-135v96q0 20 -5.5 25.5t-25.5 5.5h-187q-19 0 -25 -5.5t-6 -25.5v-158q0 -20 6 -25.5t25 -5.5h277q79 0 79 -79v-185q0 -79 -79 -79h-361q-79 0 -79 79v107h134v-96
q0 -20 6 -25.5t25 -5.5h189q20 0 25.5 5.5t5.5 25.5zM259 -239v190h135v-55l-92 -135h-43z" />
    <glyph glyph-name="uni0219" unicode="&#x219;" horiz-adv-x="590" 
d="M402 89v92q0 19 -6 25t-25 6h-225q-79 0 -79 79v115q0 79 79 79h301q79 0 79 -79v-61h-126v51q0 20 -6 25.5t-25 5.5h-142q-19 0 -25 -5.5t-6 -25.5v-94q0 -20 6 -25.5t25 -5.5h224q79 0 79 -79v-113q0 -79 -79 -79h-302q-79 0 -79 79v61h126v-51q0 -19 6 -25t25 -6h144
q19 0 25 6t6 25zM225 -239v190h135v-55l-92 -135h-43z" />
    <glyph glyph-name="uni021A" unicode="&#x21a;" horiz-adv-x="577" 
d="M222 -239v190h135v-55l-92 -135h-43zM10 622h559v-59h-213v-563h-134v563h-212v59z" />
    <glyph glyph-name="uni021B" unicode="&#x21b;" horiz-adv-x="383" 
d="M118 -239v190h135v-55l-92 -135h-43zM351 426h-113v-332q0 -20 6 -25.5t25 -5.5h81v-63h-162q-79 0 -79 79v347h-78v59h78v96h129v-96h113v-59z" />
    <glyph glyph-name="circumflex" unicode="&#x2c6;" horiz-adv-x="629" 
d="M76 506l172 149h133l172 -149h-135l-103 96l-104 -96h-135z" />
    <glyph glyph-name="caron" unicode="&#x2c7;" horiz-adv-x="629" 
d="M248 503l-172 149h135l104 -96l103 96h135l-172 -149h-133z" />
    <glyph glyph-name="uni02C9" unicode="&#x2c9;" horiz-adv-x="508" 
d="M81 550v58h346v-58h-346z" />
    <glyph glyph-name="breve" unicode="&#x2d8;" horiz-adv-x="629" 
d="M418 649h116v-61q0 -79 -79 -79h-282q-79 0 -79 79v61h116v-52q0 -19 6 -25t25 -6h146q19 0 25 6t6 25v52z" />
    <glyph glyph-name="dotaccent" unicode="&#x2d9;" horiz-adv-x="629" 
d="M244 529v105h144v-105h-144z" />
    <glyph glyph-name="ring" unicode="&#x2da;" horiz-adv-x="629" 
d="M483 609v-37q0 -69 -70 -69h-198q-69 0 -69 69v37q0 70 69 70h198q70 0 70 -70zM397 582v17q0 18 -5 23.5t-24 5.5h-107q-19 0 -24 -5.5t-5 -23.5v-17q0 -18 5 -23.5t24 -5.5h107q19 0 24 5.5t5 23.5z" />
    <glyph glyph-name="ogonek" unicode="&#x2db;" horiz-adv-x="629" 
d="M298 -183h163v-55h-214q-79 0 -79 79v45q0 79 79 79h65v47h127v-101h-141q-20 0 -26 -6t-6 -25v-32q0 -19 6 -25t26 -6z" />
    <glyph glyph-name="tilde" unicode="&#x2dc;" horiz-adv-x="629" 
d="M313 558q-81 39 -99.5 39t-18.5 -22v-56h-107v61q0 77 75 77h34q36 0 118 -38.5t101 -38.5t19 22v55h106v-61q0 -77 -73 -77h-38q-36 0 -117 39z" />
    <glyph glyph-name="hungarumlaut" unicode="&#x2dd;" horiz-adv-x="629" 
d="M462 667h130l-177 -161h-102zM236 667h130l-174 -161h-103z" />
    <glyph glyph-name="pi" unicode="&#x3c0;" horiz-adv-x="841" 
d="M793 485v-59h-116v-426h-128v426h-250v-347q0 -79 -79 -79h-153v63h72q19 0 25 5.5t6 25.5v332h-107v59h730z" />
    <glyph glyph-name="uni0901" unicode="&#x901;" horiz-adv-x="0" 
d="M-310 685q-41 0 -59 19t-18 59v89h119v-76q0 -20 6 -26t26 -6h221q19 0 25 6t6 26v76h119v-89q0 -78 -75 -78h-370zM-175 806v95h98v-95h-98z" />
    <glyph glyph-name="uni0902" unicode="&#x902;" horiz-adv-x="0" 
d="M-254 687v109h137v-109h-137z" />
    <glyph glyph-name="uni0903" unicode="&#x903;" horiz-adv-x="402" 
d="M156 428v120h134v-120h-134zM156 95v120h134v-120h-134z" />
    <glyph glyph-name="uni0905" unicode="&#x905;" horiz-adv-x="1071" 
d="M1091 622v-59h-136v-563h-138v296h-189v-140q0 -78 -77 -78h-391q-78 0 -78 78v97h138v-84q0 -19 6 -25.5t26 -6.5h206q20 0 26 6.5t6 25.5v116q0 19 -7 26.5t-27 7.5h-148v59h148q20 0 27 7t7 27v119q0 19 -6 25.5t-26 6.5h-206q-20 0 -26 -6.5t-6 -25.5v-84h-138v97
q0 78 78 78h391q77 0 77 -78v-129q0 -55 -51 -56v-4h240v267h274z" />
    <glyph glyph-name="uni0906" unicode="&#x906;" horiz-adv-x="1427" 
d="M1446 622v-59h-136v-563h-138v563h-217v-563h-138v296h-189v-140q0 -78 -77 -78h-391q-78 0 -78 78v97h138v-84q0 -19 6 -25.5t26 -6.5h206q20 0 26 6.5t6 25.5v116q0 19 -7 26.5t-27 7.5h-148v59h148q20 0 27 7t7 27v119q0 19 -6 25.5t-26 6.5h-206q-20 0 -26 -6.5
t-6 -25.5v-84h-138v97q0 78 78 78h391q77 0 77 -78v-129q0 -55 -51 -56v-4h240v267h629z" />
    <glyph glyph-name="uni0907" unicode="&#x907;" horiz-adv-x="747" 
d="M650 426h-390q-20 0 -26 -6t-6 -26v-38q0 -20 6 -26t26 -6h323q78 0 78 -78v-90q0 -78 -78 -78h-346v-78h-142v190h142v-53h254q19 0 25.5 6.5t6.5 25.5v64q0 19 -6.5 25.5t-25.5 6.5h-323q-77 0 -77 78v64q0 78 77 78h344v78h-532v59h787v-59h-117v-137z" />
    <glyph glyph-name="uni0908" unicode="&#x908;" horiz-adv-x="748" 
d="M651 426h-390q-19 0 -25.5 -6t-6.5 -26v-38q0 -20 6.5 -26t25.5 -6h323q78 0 78 -78v-90q0 -78 -78 -78h-346v-78h-142v190h142v-53h254q20 0 26 6.5t6 25.5v64q0 19 -6 25.5t-26 6.5h-323q-77 0 -77 78v64q0 78 77 78h344v78h-532v59h494v128q0 77 78 77h192v-59h-100
q-19 0 -25.5 -6t-6.5 -25v-115h155v-59h-117v-137z" />
    <glyph glyph-name="uni0909" unicode="&#x909;" horiz-adv-x="720" 
d="M740 622v-59h-148q12 -7 12 -31v-133q0 -54 -51 -57v-3q51 -1 51 -56v-205q0 -78 -78 -78h-384q-77 0 -77 78v128h138v-115q0 -20 6 -26t25 -6h200q20 0 26 6.5t6 25.5v187q0 20 -6 26t-26 6h-133v59h133q19 0 25.5 6.5t6.5 26.5v129q0 19 -6 25.5t-26 6.5h-454v59h760z
" />
    <glyph glyph-name="uni090A" unicode="&#x90a;" horiz-adv-x="1059" 
d="M1079 622v-59h-483q12 -7 12 -31v-132q0 -54 -51 -57v-3q8 0 11 -1h353q77 0 77 -78v-183q0 -78 -77 -78h-267v59h175q19 0 25 6t6 26v157q0 20 -6 26t-25 6h-221v-202q0 -78 -78 -78h-384q-78 0 -78 78v128h138v-115q0 -19 6 -25.5t26 -6.5h200q20 0 26 6.5t6 25.5v187
q0 20 -6 26t-26 6h-133v59h133q19 0 25.5 6.5t6.5 26.5v129q0 19 -6 25.5t-26 6.5h-457v59h1098z" />
    <glyph glyph-name="uni090B" unicode="&#x90b;" horiz-adv-x="1349" 
d="M907 393v-101q0 -33 28 -33h171q15 0 21 7.5t6 25.5v101q0 19 -6 26t-25 7h-164q-19 0 -25 -7t-6 -26zM652 563v-304h136q-16 13 -16 58v91q0 77 78 77h336q78 0 78 -77v-94q0 -38 -9 -54.5t-30 -20.5v-4q20 -5 29.5 -17.5t9.5 -42.5v-98q0 -77 -78 -77h-340
q-71 0 -71 77v59h135v-47q0 -18 6.5 -24t24.5 -6h161q19 0 24.5 7t5.5 26v78q0 18 -6 23.5t-25 5.5h-449v-199h-137v199h-67l-222 -199h-167l263 235l-122 134q-31 33 -62.5 44t-73.5 11h-23v61h91q66 0 104.5 -13t78.5 -56l142 -157h58v304h-535v59h1389v-59h-717z" />
    <glyph glyph-name="uni090C" unicode="&#x90c;" horiz-adv-x="1130" 
d="M1015 34h-230q-19 0 -26.5 -7.5t-7.5 -25.5v-87q0 -18 7.5 -25.5t26.5 -7.5h259v-59h-352q-40 0 -57.5 17.5t-17.5 57.5v121q0 40 17.5 57.5t57.5 17.5h185v333h-220q-19 0 -25.5 -6t-6.5 -26v-205h-137v205q0 19 -6.5 25.5t-26.5 6.5h-186q-19 0 -25.5 -6t-6.5 -26v-303
q0 -19 6.5 -25.5t25.5 -6.5h203v-59h-295q-78 0 -78 78v329q0 78 78 78h316q31 0 45 -10.5t17 -34.5h4q6 45 54 45h264v78h-897v59h1170v-59h-135v-529z" />
    <glyph glyph-name="uni090D" unicode="&#x90d;" horiz-adv-x="784" 
d="M588 685h-371q-78 0 -78 77v90h131v-76q0 -20 6 -26t26 -6h200q20 0 26 6t6 26v76h131v-90q0 -77 -77 -77zM804 622v-59h-117v-201q0 -78 -78 -78h-212v59h120q20 0 26.5 6.5t6.5 25.5v188h-296v-472q0 -19 6 -25.5t26 -6.5h226q20 0 26 6.5t6 25.5v105h138v-118
q0 -78 -78 -78h-410q-78 0 -78 78v485h-136v59h824z" />
    <glyph glyph-name="uni090E" unicode="&#x90e;" horiz-adv-x="784" 
d="M804 622v-59h-117v-201q0 -78 -78 -78h-212v59h120q20 0 26.5 6.5t6.5 25.5v188h-296v-472q0 -19 6 -25.5t26 -6.5h226q20 0 26 6.5t6 25.5v105h138v-118q0 -78 -78 -78h-410q-78 0 -78 78v485h-136v59h570v30q0 19 -6.5 25.5t-25.5 6.5h-275q-77 0 -77 77v63h137v-49
q0 -19 6.5 -25.5t26.5 -6.5h274q78 0 78 -78v-43h116z" />
    <glyph glyph-name="uni090F" unicode="&#x90f;" horiz-adv-x="784" 
d="M804 622v-59h-117v-201q0 -78 -78 -78h-212v59h120q20 0 26.5 6.5t6.5 25.5v188h-296v-472q0 -19 6 -25.5t26 -6.5h226q20 0 26 6.5t6 25.5v105h138v-118q0 -78 -78 -78h-410q-78 0 -78 78v485h-136v59h824z" />
    <glyph glyph-name="uni0910" unicode="&#x910;" horiz-adv-x="784" 
d="M804 622v-59h-117v-201q0 -78 -78 -78h-212v59h120q20 0 26.5 6.5t6.5 25.5v188h-296v-472q0 -19 6 -25.5t26 -6.5h226q20 0 26 6.5t6 25.5v105h138v-118q0 -78 -78 -78h-410q-78 0 -78 78v485h-136v59h571q-51 39 -104 101l-88 104h152l173 -205h120z" />
    <glyph glyph-name="uni0911" unicode="&#x911;" horiz-adv-x="1420" 
d="M1248 685h-371q-78 0 -78 77v90h131v-76q0 -20 6 -26t26 -6h200q20 0 26 6t6 26v76h131v-90q0 -77 -77 -77zM1439 622v-59h-136v-563h-138v563h-210v-563h-138v296h-189v-140q0 -78 -77 -78h-391q-78 0 -78 78v97h138v-84q0 -19 6 -25.5t26 -6.5h206q20 0 26 6.5t6 25.5
v116q0 19 -7 26.5t-27 7.5h-148v59h148q20 0 27 7t7 27v119q0 19 -6 25.5t-26 6.5h-206q-20 0 -26 -6.5t-6 -25.5v-84h-138v97q0 78 78 78h391q77 0 77 -78v-129q0 -55 -51 -56v-4h240v267h622z" />
    <glyph glyph-name="uni0912" unicode="&#x912;" horiz-adv-x="1420" 
d="M1439 622v-59h-136v-563h-138v563h-210v-563h-138v296h-189v-140q0 -78 -77 -78h-391q-78 0 -78 78v97h138v-84q0 -19 6 -25.5t26 -6.5h206q20 0 26 6.5t6 25.5v116q0 19 -7 26.5t-27 7.5h-148v59h148q20 0 27 7t7 27v119q0 19 -6 25.5t-26 6.5h-206q-20 0 -26 -6.5
t-6 -25.5v-84h-138v97q0 78 78 78h391q77 0 77 -78v-129q0 -55 -51 -56v-4h240v267h348v30q0 19 -6.5 25.5t-25.5 6.5h-275q-77 0 -77 77v63h137v-49q0 -19 6.5 -25.5t26.5 -6.5h274q78 0 78 -78v-43h136z" />
    <glyph glyph-name="uni0913" unicode="&#x913;" horiz-adv-x="1420" 
d="M1440 622v-59h-136v-563h-138v563h-211v-563h-138v296h-189v-140q0 -78 -77 -78h-391q-78 0 -78 78v97h138v-84q0 -19 6 -25.5t26 -6.5h206q20 0 26 6.5t6 25.5v116q0 19 -7 26.5t-27 7.5h-148v59h148q20 0 27 7t7 27v119q0 19 -6 25.5t-26 6.5h-206q-20 0 -26 -6.5
t-6 -25.5v-84h-138v97q0 78 78 78h391q77 0 77 -78v-129q0 -55 -51 -56v-4h240v267h354q-51 39 -104 101l-88 104h152l173 -205h136z" />
    <glyph glyph-name="uni0914" unicode="&#x914;" horiz-adv-x="1463" 
d="M1482 622v-59h-136v-563h-138v563h-210v-563h-138v296h-189v-140q0 -78 -77 -78h-391q-78 0 -78 78v97h138v-84q0 -19 6.5 -25.5t25.5 -6.5h206q19 0 25.5 6.5t6.5 25.5v116q0 19 -7.5 26.5t-26.5 7.5h-148v59h148q19 0 26.5 7t7.5 27v119q0 19 -6.5 25.5t-25.5 6.5h-206
q-19 0 -25.5 -6.5t-6.5 -25.5v-84h-138v97q0 78 78 78h391q77 0 77 -78v-129q0 -55 -51 -56v-4h240v267h340q-46 36 -85 74l-138 131h139l43 -50q75 -86 114 -155h6q-15 29 -62 152l-20 53h106l43 -205h136z" />
    <glyph glyph-name="uni0915" unicode="&#x915;" horiz-adv-x="1085" 
d="M1105 563h-494v-87q11 9 32 9h279q78 0 78 -78v-251q0 -78 -78 -78h-261v59h169q20 0 26 6.5t6 25.5v225q0 20 -6 26t-26 6h-185q-19 0 -26.5 -7t-7.5 -27v-392h-137v87q-10 -9 -32 -9h-280q-77 0 -77 78v251q0 78 77 78h262v-59h-170q-19 0 -25 -6t-6 -26v-225
q0 -20 6 -26t25 -6h186q20 0 27 7.5t7 26.5v392h-494v59h1125v-59z" />
    <glyph glyph-name="uni0916" unicode="&#x916;" horiz-adv-x="1369" 
d="M1389 622v-59h-137v-563h-136v133q-9 -13 -35 -13h-298q-77 0 -77 78v180q0 77 77 77h288v-59h-208q-19 0 -25.5 -6t-6.5 -26v-154q0 -19 6.5 -25.5t25.5 -6.5h215q21 0 29.5 8.5t8.5 29.5v347h-539v-252q0 -77 -78 -77h-262v-143q0 -19 6.5 -25.5t26.5 -6.5h387v-59
h-481q-77 0 -77 78v385h138v-170h172q19 0 25.5 6.5t6.5 25.5v238h-461v59h1409z" />
    <glyph glyph-name="uni0917" unicode="&#x917;" horiz-adv-x="1100" 
d="M235 137h250q19 0 25.5 6.5t6.5 25.5v198h-282q-19 0 -25.5 -6.5t-6.5 -25.5v-166q0 -19 6.5 -25.5t25.5 -6.5zM1120 622v-59h-136v-563h-137v563h-193v-407q0 -78 -77 -78h-425q-77 0 -77 78v192q0 78 77 78h365v137h-537v59h1140z" />
    <glyph glyph-name="uni0918" unicode="&#x918;" horiz-adv-x="888" 
d="M634 171v392h-364q-20 0 -26 -6.5t-6 -25.5v-121q0 -20 6 -26t26 -6h180v-59h-180q-20 0 -26 -6.5t-6 -25.5v-118q0 -19 6 -25.5t26 -6.5h330q20 0 27 7.5t7 26.5zM908 622v-59h-136v-563h-138v87q-10 -9 -32 -9h-424q-78 0 -78 78v134q0 53 50 56v4q-50 2 -50 55v127
q0 23 11 31h-131v59h928z" />
    <glyph glyph-name="uni0919" unicode="&#x919;" horiz-adv-x="853" 
d="M693 305v91h101v-91h-101zM-20 622h893v-59h-261v-137h-351q-20 0 -26.5 -6.5t-6.5 -25.5v-59q0 -19 6.5 -25.5t26.5 -6.5h297q78 0 78 -78v-140q0 -78 -78 -78h-387q-77 0 -77 78v82h137v-69q0 -19 6.5 -25.5t26.5 -6.5h202q20 0 26 6t6 26v114q0 20 -6 26t-26 6h-298
q-77 0 -77 78v85q0 78 77 78h307v78h-495v59z" />
    <glyph glyph-name="uni091A" unicode="&#x91a;" horiz-adv-x="844" 
d="M864 622v-59h-136v-563h-137v87q-11 -9 -32 -9h-370q-78 0 -78 78v239q0 23 12 31h-96v59h393v-59h-141q-18 -1 -24 -7t-6 -25v-225q0 -19 6.5 -25.5t25.5 -6.5h276q19 0 26.5 7.5t7.5 26.5v392h-611v59h884z" />
    <glyph glyph-name="uni091B" unicode="&#x91b;" horiz-adv-x="1055" 
d="M638 485v78h-366q-19 0 -25 -6t-6 -26v-160q0 -20 6 -26t25 -6h138v-59h-138q-19 0 -25 -6t-6 -26v-157q0 -20 6 -26t25 -6h529q20 0 26.5 6.5t6.5 25.5v303q0 19 -6.5 25.5t-26.5 6.5h-187q-20 0 -26 -6t-6 -26v-130q0 -20 6 -26t26 -6h97v-59h-177q-78 0 -78 78v156
q0 78 78 78h104zM1075 563h-305v-78h108q78 0 78 -78v-329q0 -78 -78 -78h-698q-77 0 -77 78v172q0 53 50 56v4q-50 1 -50 56v166q0 23 11 31h-134v59h1095v-59z" />
    <glyph glyph-name="uni091C" unicode="&#x91c;" horiz-adv-x="1075" 
d="M1095 622v-59h-136v-563h-138v426h-190v-270q0 -78 -78 -78h-376q-78 0 -78 78v329h134v-316q0 -19 6.5 -25.5t25.5 -6.5h199q20 0 26 6.5t6 25.5v316h325v78h-841v59h1115z" />
    <glyph glyph-name="uni091D" unicode="&#x91d;" horiz-adv-x="1101" 
d="M848 331v232h-193v-137h-392q-19 0 -25.5 -6t-6.5 -26v-31q0 -19 6.5 -25.5t25.5 -6.5h585zM1121 622v-59h-136v-563h-137v272h-194q1 -6 1 -19v-97q0 -78 -77 -78h-349v-78h-141v190h141v-53h256q20 0 26.5 6.5t6.5 25.5v70q0 19 -7 26t-26 7h-314q-78 0 -78 77v58
q0 78 78 78h347v78h-538v59h1141z" />
    <glyph glyph-name="uni091E" unicode="&#x91e;" horiz-adv-x="1045" 
d="M1065 622v-59h-137v-563h-138v259h-187v-103q0 -78 -77 -78h-396q-78 0 -78 78v113h138v-100q0 -19 6 -25.5t26 -6.5h212q20 0 26 6.5t6 25.5v225q0 20 -6 26t-26 6h-207v59h299q77 0 77 -78v-89h187v245h-810v59h1085z" />
    <glyph glyph-name="uni091F" unicode="&#x91f;" horiz-adv-x="750" 
d="M624 426h-354q-20 0 -26 -6t-6 -26v-303q0 -19 6 -25.5t26 -6.5h214q20 0 26 6.5t6 25.5v153h138v-166q0 -78 -78 -78h-398q-78 0 -78 78v329q0 78 78 78h309v78h-507v59h790v-59h-146v-137z" />
    <glyph glyph-name="uni0920" unicode="&#x920;" horiz-adv-x="774" 
d="M540 91v303q0 20 -6 26t-26 6h-242q-20 0 -26 -6t-6 -26v-303q0 -19 6 -25.5t26 -6.5h242q20 0 26 6.5t6 25.5zM794 563h-339v-78h142q77 0 77 -78v-329q0 -78 -77 -78h-419q-78 0 -78 78v329q0 78 78 78h139v78h-337v59h814v-59z" />
    <glyph glyph-name="uni0921" unicode="&#x921;" horiz-adv-x="731" 
d="M616 426h-351q-19 0 -25.5 -6t-6.5 -26v-51q0 -19 6.5 -25.5t25.5 -6.5h297q78 0 78 -78v-155q0 -78 -78 -78h-387q-77 0 -77 78v94h138v-81q0 -19 6 -25.5t26 -6.5h202q20 0 26 6.5t6 25.5v128q0 20 -6.5 26.5t-25.5 6.5h-298q-77 0 -77 77v78q0 78 77 78h307v78h-499
v59h771v-59h-135v-137z" />
    <glyph glyph-name="uni0922" unicode="&#x922;" horiz-adv-x="774" 
d="M626 426h-356q-20 0 -26 -6t-6 -26v-303q0 -19 6 -25.5t26 -6.5h246q20 0 26 6.5t6 25.5v108q0 19 -6 25.5t-26 6.5h-138v59h222q77 0 77 -78v-134q0 -78 -77 -78h-422q-78 0 -78 78v329q0 78 78 78h310v78h-508v59h814v-59h-168v-137z" />
    <glyph glyph-name="uni0923" unicode="&#x923;" horiz-adv-x="1091" 
d="M498 169v394h-267v-394q0 -19 6.5 -25.5t25.5 -6.5h202q20 0 26.5 6.5t6.5 25.5zM1111 622v-59h-136v-563h-137v563h-210v-407q0 -78 -77 -78h-373q-78 0 -78 78v407h-120v59h1131z" />
    <glyph glyph-name="uni0924" unicode="&#x924;" horiz-adv-x="796" 
d="M816 622v-59h-136v-563h-137v426h-274q-19 0 -25.5 -6t-6.5 -26v-303q0 -19 6.5 -25.5t25.5 -6.5h116v-59h-208q-78 0 -78 78v329q0 78 78 78h366v78h-563v59h836z" />
    <glyph glyph-name="uni0925" unicode="&#x925;" horiz-adv-x="1051" 
d="M1071 622v-59h-136v-563h-137v87q-10 -9 -32 -9h-589q-78 0 -78 78v205h350q20 0 26.5 6t6.5 25v139q0 19 -6.5 25.5t-26.5 6.5h-179q-20 0 -26 -6.5t-6 -25.5v-91h-136v104q0 78 78 78h360q77 0 77 -78v-165q0 -77 -77 -77h-303v-133q0 -19 6.5 -25.5t25.5 -6.5h495
q20 0 27 7.5t7 26.5v451h273z" />
    <glyph glyph-name="uni0926" unicode="&#x926;" horiz-adv-x="749" 
d="M626 426h-372q-19 0 -25 -6t-6 -26v-225q0 -20 6 -26t25 -6h210q20 0 27 7.5t7 26.5v95h138v-266h-138v87q-10 -9 -32 -9h-304q-77 0 -77 78v251q0 78 77 78h326v78h-508v59h789v-59h-143v-137z" />
    <glyph glyph-name="uni0927" unicode="&#x927;" horiz-adv-x="1025" 
d="M1045 622v-59h-136v-563h-137v87q-10 -9 -32 -9h-565q-78 0 -78 78v113q0 53 50 55v5q-50 2 -50 56v159q0 78 78 78h353q77 0 77 -78v-118h-118v105q0 19 -6.5 25.5t-25.5 6.5h-188q-19 0 -25.5 -6.5t-6.5 -25.5v-140q0 -19 6.5 -25.5t25.5 -6.5h142v-59h-142
q-19 0 -25.5 -6t-6.5 -26v-99q0 -19 6.5 -25.5t25.5 -6.5h471q20 0 27 7.5t7 26.5v451h273z" />
    <glyph glyph-name="uni0928" unicode="&#x928;" horiz-adv-x="1056" 
d="M477 169v257h-236q-19 0 -25.5 -6t-6.5 -26v-225q0 -19 6.5 -25.5t25.5 -6.5h205q19 0 25 6t6 26zM1076 622v-59h-137v-563h-138v426h-190v-270q0 -78 -77 -78h-382q-77 0 -77 78v251q0 78 77 78h649v78h-821v59h1096z" />
    <glyph glyph-name="uni0928093C" unicode="&#x929;" horiz-adv-x="1056" 
d="M304 -95v108h137v-108h-137zM477 169v257h-236q-19 0 -25.5 -6t-6.5 -26v-225q0 -19 6.5 -25.5t25.5 -6.5h205q19 0 25 6t6 26zM1076 622v-59h-137v-563h-138v426h-190v-270q0 -78 -77 -78h-382q-77 0 -77 78v251q0 78 77 78h649v78h-821v59h1096z" />
    <glyph glyph-name="uni092A" unicode="&#x92a;" horiz-adv-x="763" 
d="M509 171v392h-275v-394q0 -19 6 -25.5t26 -6.5h209q19 0 26.5 7.5t7.5 26.5zM783 622v-59h-137v-563h-137v87q-11 -9 -32 -9h-299q-78 0 -78 78v407h-120v59h803z" />
    <glyph glyph-name="uni092B" unicode="&#x92b;" horiz-adv-x="1124" 
d="M509 171v392h-275v-394q0 -19 6 -25.5t26 -6.5h209q19 0 26.5 7.5t7.5 26.5zM1145 563h-499v-87q10 9 32 9h284q78 0 78 -78v-251q0 -78 -78 -78h-268v59h176q20 0 26 6.5t6 25.5v225q0 20 -6 26t-26 6h-190q-20 0 -27 -7t-7 -27v-392h-137v87q-11 -9 -32 -9h-299
q-78 0 -78 78v407h-120v59h1165v-59z" />
    <glyph glyph-name="uni092C" unicode="&#x92c;" horiz-adv-x="826" 
d="M252 137h286q11 0 15 1l-337 246q4 -58 4 -106v-109q0 -19 6.5 -25.5t25.5 -6.5zM846 622v-59h-136v-563h-138v87q-10 -9 -32 -9h-378q-77 0 -77 78v251q0 78 77 78h367v-59h-285l337 -246q-9 46 -9 135v248h-592v59h866z" />
    <glyph glyph-name="uni092D" unicode="&#x92d;" horiz-adv-x="1084" 
d="M498 168v143h-238q-19 0 -25 -6t-6 -25v-112q0 -19 6 -25.5t25 -6.5h206q19 0 25.5 6.5t6.5 25.5zM1104 622v-59h-136v-563h-137v311h-195v-155q0 -78 -78 -78h-382q-78 0 -78 78v137q0 77 78 77h322v161q0 19 -6 25.5t-26 6.5h-195q-19 0 -25.5 -6.5t-6.5 -25.5v-86
h-138v99q0 78 78 78h379q78 0 78 -78v-174h195v252h273z" />
    <glyph glyph-name="uni092E" unicode="&#x92e;" horiz-adv-x="1086" 
d="M832 485v78h-195v-78h195zM499 169v257h-237q-20 0 -26 -6t-6 -26v-225q0 -19 6 -25.5t26 -6.5h205q19 0 25.5 6.5t6.5 25.5zM1106 622v-59h-136v-563h-138v426h-195v-270q0 -78 -78 -78h-382q-78 0 -78 78v251q0 78 78 78h322v78h-519v59h1126z" />
    <glyph glyph-name="uni092F" unicode="&#x92f;" horiz-adv-x="965" 
d="M711 175v388h-201q12 -7 12 -31v-145q0 -78 -78 -78h-239v-140q0 -19 6.5 -25.5t25.5 -6.5h435q22 0 30.5 8t8.5 30zM985 622v-59h-137v-563h-137v91q-9 -13 -35 -13h-531q-78 0 -78 78v212h285q19 0 25.5 6.5t6.5 25.5v131q0 19 -6 25.5t-26 6.5h-372v59h1005z" />
    <glyph glyph-name="uni0930" unicode="&#x930;" horiz-adv-x="749" 
d="M769 622v-59h-144q12 -7 12 -31v-169q0 -78 -78 -78h-322v-194q0 -19 6.5 -25.5t25.5 -6.5h190q19 0 25.5 6.5t6.5 25.5v120h138v-133q0 -78 -78 -78h-374q-78 0 -78 78v354h138v-88h230q19 0 25.5 6t6.5 26v155q0 19 -6.5 25.5t-25.5 6.5h-487v59h789z" />
    <glyph glyph-name="uni0930093C" unicode="&#x931;" horiz-adv-x="749" 
d="M152 -173v108h137v-108h-137zM769 622v-59h-144q12 -7 12 -31v-169q0 -78 -78 -78h-322v-194q0 -19 6.5 -25.5t25.5 -6.5h190q19 0 25.5 6.5t6.5 25.5v120h138v-133q0 -78 -78 -78h-374q-78 0 -78 78v354h138v-88h230q19 0 25.5 6t6.5 26v155q0 19 -6.5 25.5t-25.5 6.5
h-487v59h789z" />
    <glyph glyph-name="uni0932" unicode="&#x932;" horiz-adv-x="1131" 
d="M1151 622v-59h-136v-563h-138v426h-220q-19 0 -25.5 -6t-6.5 -26v-205h-137v205q0 19 -6.5 25.5t-26.5 6.5h-186q-19 0 -25.5 -6t-6.5 -26v-303q0 -19 6.5 -25.5t25.5 -6.5h203v-59h-295q-78 0 -78 78v329q0 78 78 78h316q31 0 45 -10.5t17 -34.5h4q6 45 54 45h264v78
h-897v59h1171z" />
    <glyph glyph-name="uni0933" unicode="&#x933;" horiz-adv-x="1052" 
d="M830 169v225q0 19 -6.5 25.5t-26.5 6.5h-179q-20 0 -26 -6t-6 -26v-225q0 -19 6 -25.5t26 -6.5h179q20 0 26.5 6.5t6.5 25.5zM466 169v225q0 20 -6 26t-26 6h-179q-19 0 -25.5 -6t-6.5 -26v-225q0 -19 6.5 -25.5t25.5 -6.5h179q20 0 26 6.5t6 25.5zM1072 563h-270v-78h82
q78 0 78 -78v-251q0 -78 -78 -78h-302q-26 0 -38.5 10.5t-15.5 34.5h-4q-3 -24 -17 -34.5t-45 -10.5h-294q-78 0 -78 78v251q0 78 78 78h294q31 0 45 -10.5t17 -34.5h4q4 45 54 45h82v78h-684v59h1092v-59z" />
    <glyph glyph-name="uni0933093C" unicode="&#x934;" horiz-adv-x="1052" 
d="M288 -95v108h137v-108h-137zM830 169v225q0 19 -6.5 25.5t-26.5 6.5h-179q-20 0 -26 -6t-6 -26v-225q0 -19 6 -25.5t26 -6.5h179q20 0 26.5 6.5t6.5 25.5zM466 169v225q0 20 -6 26t-26 6h-179q-19 0 -25.5 -6t-6.5 -26v-225q0 -19 6.5 -25.5t25.5 -6.5h179q20 0 26 6.5
t6 25.5zM1072 563h-270v-78h82q78 0 78 -78v-251q0 -78 -78 -78h-302q-26 0 -38.5 10.5t-15.5 34.5h-4q-3 -24 -17 -34.5t-45 -10.5h-294q-78 0 -78 78v251q0 78 78 78h294q31 0 45 -10.5t17 -34.5h4q4 45 54 45h82v78h-684v59h1092v-59z" />
    <glyph glyph-name="uni0935" unicode="&#x935;" horiz-adv-x="765" 
d="M785 622v-59h-137v-563h-137v87q-11 -9 -32 -9h-309q-78 0 -78 78v251q0 78 78 78h291v-59h-199q-20 0 -26 -6t-6 -26v-225q0 -19 6 -25.5t26 -6.5h215q19 0 26.5 7.5t7.5 26.5v392h-531v59h805z" />
    <glyph glyph-name="uni0936" unicode="&#x936;" horiz-adv-x="1107" 
d="M194 622h381q77 0 77 -78v-201q0 -78 -77 -78h-323v-174q0 -19 6 -25.5t26 -6.5h196q20 0 26 6.5t6 25.5v106h138v-119q0 -78 -78 -78h-380q-78 0 -78 78v295h138v-49h230q20 0 26.5 6.5t6.5 25.5v175q0 19 -6.5 25.5t-26.5 6.5h-197q-19 0 -25.5 -6.5t-6.5 -25.5v-83
h-137v96q0 78 78 78zM1127 622v-59h-136v-563h-138v622h274z" />
    <glyph glyph-name="uni0937" unicode="&#x937;" horiz-adv-x="824" 
d="M574 357v206h-344l351 -359q-7 70 -7 153zM268 137h271q22 0 29 10l-340 347q8 -61 8 -132v-193q0 -19 6 -25.5t26 -6.5zM844 622v-59h-136v-563h-135v87q-11 -9 -32 -9h-363q-78 0 -78 78v407h-120v59h864z" />
    <glyph glyph-name="uni0938" unicode="&#x938;" horiz-adv-x="1096" 
d="M842 339v224h-214q12 -7 12 -31v-174q0 -13 -1 -19h203zM1117 622v-59h-137v-563h-138v280h-604v-189q0 -19 6 -25.5t26 -6.5h200q19 0 25 6t6 26v123h138v-136q0 -78 -77 -78h-384q-78 0 -78 78v398h138v-137h233q19 0 25 6t6 26v160q0 20 -6 26t-25 6h-491v59h1137z
" />
    <glyph glyph-name="uni0939" unicode="&#x939;" horiz-adv-x="760" 
d="M642 426h-367q-19 0 -25 -6t-6 -26v-38q0 -20 6 -26t25 -6h303q83 0 83 -81v-101h-132v91q0 19 -6 25.5t-25 6.5h-223q-19 0 -25 -6t-6 -26v-142q0 -20 6 -26t25 -6h384v-59h-476q-77 0 -77 78v154q0 54 50 56v5q-50 0 -50 55v59q0 78 77 78h322v78h-525v59h800v-59h-138
v-137z" />
    <glyph glyph-name="uni093C" unicode="&#x93c;" horiz-adv-x="0" 
d="M-302 -173v108h137v-108h-137z" />
    <glyph glyph-name="uni093D" unicode="&#x93d;" horiz-adv-x="708" 
d="M266 371h276q78 0 78 -78v-215q0 -78 -78 -78h-365q-78 0 -78 79v101h138v-89q0 -19 6.5 -25.5t25.5 -6.5h181q20 0 26 6.5t6 25.5v189q0 20 -6 26t-26 6h-276q-78 0 -78 77v155q0 78 78 78h442v-59h-350q-20 0 -26 -6.5t-6 -25.5v-128q0 -19 6 -25.5t26 -6.5z" />
    <glyph glyph-name="uni093E" unicode="&#x93e;" 
d="M390 622v-59h-136v-563h-138v563h-136v59h410z" />
    <glyph glyph-name="uni093F" unicode="&#x93f;" 
d="M194 827h703q77 0 77 -78v-81h-137v68q0 20 -6.5 26t-25.5 6h-519q-20 0 -26 -6t-6 -26v-114h136v-59h-136v-563h-138v563h-136v59h136v127q0 78 78 78z" />
    <glyph glyph-name="uni0940" unicode="&#x940;" 
d="M390 622v-59h-136v-563h-138v563h-136v59h136v114q0 20 -6 26t-26 6h-173q-19 0 -25.5 -6t-6.5 -26v-68h-138v81q0 78 78 78h357q78 0 78 -78v-127h136z" />
    <glyph glyph-name="uni0941" unicode="&#x941;" horiz-adv-x="0" 
d="M-276 0h209q40 0 57.5 -17.5t17.5 -57.5v-120q0 -40 -17.5 -57.5t-57.5 -17.5h-299q-54 0 -77 11t-49 53l-70 116h140l54 -93q10 -16 18 -22t24 -6h166q19 0 26.5 7.5t7.5 25.5v86q0 18 -7.5 25.5t-26.5 7.5h-116v59z" />
    <glyph glyph-name="uni0942" unicode="&#x942;" horiz-adv-x="0" 
d="M-167 -59h-139q-19 0 -26.5 -7.5t-7.5 -25.5v-86q0 -18 7.5 -25.5t26.5 -7.5h117v-59h-210q-40 0 -57.5 17.5t-17.5 57.5v120q0 40 17.5 57.5t57.5 17.5h272q55 0 78 -10.5t48 -53.5l122 -206h-140l-106 183q-10 16 -18 22t-24 6z" />
    <glyph glyph-name="uni0943" unicode="&#x943;" horiz-adv-x="0" 
d="M-262 -211h252v-59h-345q-40 0 -57.5 17.5t-17.5 57.5v120q0 40 17.5 57.5t57.5 17.5h300v-59h-207q-19 0 -26.5 -7.5t-7.5 -25.5v-86q0 -18 7.5 -25.5t26.5 -7.5z" />
    <glyph glyph-name="uni0944" unicode="&#x944;" horiz-adv-x="0" 
d="M-262 -424h251v-59h-344q-40 0 -57.5 17.5t-17.5 57.5v104q0 41 26 62q-26 23 -26 63v104q0 40 17.5 57.5t57.5 17.5h315v-59h-222q-19 0 -26.5 -7.5t-7.5 -25.5v-87q0 -18 7.5 -25.5t26.5 -7.5h243v-59h-243q-19 0 -26.5 -7.5t-7.5 -25.5v-87q0 -18 7.5 -25.5t26.5 -7.5
z" />
    <glyph glyph-name="uni0945" unicode="&#x945;" horiz-adv-x="0" 
d="M6 852h131v-90q0 -77 -77 -77h-371q-78 0 -78 77v90h131v-76q0 -20 6 -26t26 -6h200q20 0 26 6t6 26v76z" />
    <glyph glyph-name="uni0946" unicode="&#x946;" horiz-adv-x="0" 
d="M-407 743h274q78 0 78 -78v-78h-138v65q0 19 -6.5 25.5t-25.5 6.5h-275q-77 0 -77 77v63h137v-49q0 -19 6.5 -25.5t26.5 -6.5z" />
    <glyph glyph-name="uni0947" unicode="&#x947;" horiz-adv-x="0" 
d="M-108 611h-127q-55 38 -119 112l-88 104h152z" />
    <glyph glyph-name="uni0948" unicode="&#x948;" horiz-adv-x="0" 
d="M-189 622h6q-15 29 -62 152l-20 53h106l45 -216h-132q-31 19 -101 85l-138 131h139l43 -50q75 -86 114 -155z" />
    <glyph glyph-name="uni0949" unicode="&#x949;" 
d="M-20 563v59h410v-59h-136v-563h-138v563h-136zM315 852h131v-90q0 -77 -77 -77h-371q-78 0 -78 77v90h131v-76q0 -20 6.5 -26t25.5 -6h200q19 0 25.5 6t6.5 26v76z" />
    <glyph glyph-name="uni094A" unicode="&#x94a;" 
d="M390 622v-59h-136v-563h-138v563h-136v59h136v30q0 19 -6.5 25.5t-25.5 6.5h-275q-77 0 -77 77v63h137v-49q0 -19 6.5 -25.5t26.5 -6.5h274q78 0 78 -78v-43h136z" />
    <glyph glyph-name="uni094B" unicode="&#x94b;" 
d="M390 622v-59h-136v-563h-138v563h-136v59h141q-51 39 -104 101l-88 104h152l173 -205h136z" />
    <glyph glyph-name="uni094C" unicode="&#x94c;" 
d="M390 622v-59h-136v-563h-138v563h-136v59h129q-46 36 -85 74l-138 131h139l43 -50q75 -86 114 -155h6q-15 29 -62 152l-20 53h106l43 -205h135z" />
    <glyph glyph-name="uni094D" unicode="&#x94d;" horiz-adv-x="0" 
d="M-256 -61h140l117 -155h-142z" />
    <glyph glyph-name="uni0950" unicode="&#x950;" horiz-adv-x="1157" 
d="M977 745v-96h-99v96h99zM608 402h496q78 0 78 -78v-246q0 -78 -78 -78h-339q-78 0 -78 78v128h138v-115q0 -19 6.5 -25.5t25.5 -6.5h155q20 0 26 6.5t6 25.5v221q0 19 -6.5 25t-25.5 6h-455v-4q51 -1 51 -55v-206q0 -78 -78 -78h-384q-78 0 -78 78v128h138v-115
q0 -19 6 -25.5t26 -6.5h200q20 0 26 6.5t6 25.5v187q0 20 -6 26t-26 6h-133v59h133q19 0 25.5 6.5t6.5 26.5v129q0 19 -6 25.5t-26 6.5h-200q-20 0 -26 -6.5t-6 -25.5v-84h-138v97q0 78 78 78h384q78 0 78 -78v-142zM1070 696h119v-89q0 -78 -76 -78h-370q-76 0 -76 78v89
h118v-77q0 -19 6.5 -25t25.5 -6h221q19 0 25.5 6t6.5 25v77z" />
    <glyph glyph-name="uni0951" unicode="&#x951;" horiz-adv-x="0" 
d="M-247 711v260h135v-260h-135z" />
    <glyph glyph-name="uni0952" unicode="&#x952;" horiz-adv-x="0" 
d="M-55 -190h-447v59h447v-59z" />
    <glyph glyph-name="uni0953" unicode="&#x953;" horiz-adv-x="0" 
d="M-376 918l92 78l167 -200l-92 -78z" />
    <glyph glyph-name="uni0954" unicode="&#x954;" horiz-adv-x="0" 
d="M-61 996l92 -78l-167 -200l-92 78z" />
    <glyph glyph-name="uni0915093C" unicode="&#x958;" horiz-adv-x="1085" 
d="M145 -95v108h137v-108h-137zM1105 563h-494v-87q11 9 32 9h279q78 0 78 -78v-251q0 -78 -78 -78h-261v59h169q20 0 26 6.5t6 25.5v225q0 20 -6 26t-26 6h-185q-19 0 -26.5 -7t-7.5 -27v-392h-137v87q-10 -9 -32 -9h-280q-77 0 -77 78v251q0 78 77 78h262v-59h-170
q-19 0 -25 -6t-6 -26v-225q0 -20 6 -26t25 -6h186q20 0 27 7.5t7 26.5v392h-494v59h1125v-59z" />
    <glyph glyph-name="uni0916093C" unicode="&#x959;" horiz-adv-x="1369" 
d="M474 -173v108h137v-108h-137zM1389 622v-59h-137v-563h-136v133q-9 -13 -35 -13h-298q-77 0 -77 78v180q0 77 77 77h288v-59h-208q-19 0 -25.5 -6t-6.5 -26v-154q0 -19 6.5 -25.5t25.5 -6.5h215q21 0 29.5 8.5t8.5 29.5v347h-539v-252q0 -77 -78 -77h-262v-143
q0 -19 6.5 -25.5t26.5 -6.5h387v-59h-481q-77 0 -77 78v385h138v-170h172q19 0 25.5 6.5t6.5 25.5v238h-461v59h1409z" />
    <glyph glyph-name="uni0917093C" unicode="&#x95a;" horiz-adv-x="1100" 
d="M294 -95v108h137v-108h-137zM235 137h250q19 0 25.5 6.5t6.5 25.5v198h-282q-19 0 -25.5 -6.5t-6.5 -25.5v-166q0 -19 6.5 -25.5t25.5 -6.5zM1120 622v-59h-136v-563h-137v563h-193v-407q0 -78 -77 -78h-425q-77 0 -77 78v192q0 78 77 78h365v137h-537v59h1140z" />
    <glyph glyph-name="uni091C093C" unicode="&#x95b;" horiz-adv-x="1075" 
d="M289 -95v108h137v-108h-137zM1095 622v-59h-136v-563h-138v426h-190v-270q0 -78 -78 -78h-376q-78 0 -78 78v329h134v-316q0 -19 6.5 -25.5t25.5 -6.5h199q20 0 26 6.5t6 25.5v316h325v78h-841v59h1115z" />
    <glyph glyph-name="uni0921093C" unicode="&#x95c;" horiz-adv-x="731" 
d="M330 -173v108h137v-108h-137zM616 426h-351q-19 0 -25.5 -6t-6.5 -26v-51q0 -19 6.5 -25.5t25.5 -6.5h297q78 0 78 -78v-155q0 -78 -78 -78h-387q-77 0 -77 78v94h138v-81q0 -19 6 -25.5t26 -6.5h202q20 0 26 6.5t6 25.5v128q0 20 -6.5 26.5t-25.5 6.5h-298q-77 0 -77 77
v78q0 78 77 78h307v78h-499v59h771v-59h-135v-137z" />
    <glyph glyph-name="uni0922093C" unicode="&#x95d;" horiz-adv-x="774" 
d="M349 -173v108h137v-108h-137zM626 426h-356q-20 0 -26 -6t-6 -26v-303q0 -19 6 -25.5t26 -6.5h246q20 0 26 6.5t6 25.5v108q0 19 -6 25.5t-26 6.5h-138v59h222q77 0 77 -78v-134q0 -78 -77 -78h-422q-78 0 -78 78v329q0 78 78 78h310v78h-508v59h814v-59h-168v-137z" />
    <glyph glyph-name="uni092B093C" unicode="&#x95e;" horiz-adv-x="1124" 
d="M107 -95v108h137v-108h-137zM509 171v392h-275v-394q0 -19 6 -25.5t26 -6.5h209q19 0 26.5 7.5t7.5 26.5zM1145 563h-499v-87q10 9 32 9h284q78 0 78 -78v-251q0 -78 -78 -78h-268v59h176q20 0 26 6.5t6 25.5v225q0 20 -6 26t-26 6h-190q-20 0 -27 -7t-7 -27v-392h-137
v87q-11 -9 -32 -9h-299q-78 0 -78 78v407h-120v59h1165v-59z" />
    <glyph glyph-name="uni092F093C" unicode="&#x95f;" horiz-adv-x="965" 
d="M241 -95v108h137v-108h-137zM711 175v388h-201q12 -7 12 -31v-145q0 -78 -78 -78h-239v-140q0 -19 6.5 -25.5t25.5 -6.5h435q22 0 30.5 8t8.5 30zM985 622v-59h-137v-563h-137v91q-9 -13 -35 -13h-531q-78 0 -78 78v212h285q19 0 25.5 6.5t6.5 25.5v131q0 19 -6 25.5
t-26 6.5h-372v59h1005z" />
    <glyph glyph-name="uni0960" unicode="&#x960;" horiz-adv-x="1349" 
d="M907 393v-101q0 -33 28 -33h171q15 0 21 7.5t6 25.5v101q0 19 -6 26t-25 7h-164q-19 0 -25 -7t-6 -26zM652 563v-304h136q-16 13 -16 58v91q0 77 78 77h336q78 0 78 -77v-131q0 -78 -78 -78h-250q-18 0 -24 -5.5t-6 -23.5v-78q0 -19 5 -26t24 -7h161q18 0 24.5 6t6.5 24
v47h135v-59q0 -77 -71 -77h-340q-78 0 -78 77v73q0 36 15 49h-136v-199h-137v199h-67l-222 -199h-167l263 235l-122 134q-31 33 -62.5 44t-73.5 11h-23v61h91q66 0 104.5 -13t78.5 -56l142 -157h58v304h-535v59h1389v-59h-717z" />
    <glyph glyph-name="uni0961" unicode="&#x961;" horiz-adv-x="1130" 
d="M1015 99h-216q-19 0 -26.5 -7.5t-7.5 -25.5v-87q0 -18 7.5 -25.5t26.5 -7.5h236v-59h-236q-19 0 -26.5 -7.5t-7.5 -25.5v-87q0 -18 7.5 -25.5t26.5 -7.5h245v-59h-338q-40 0 -57.5 17.5t-17.5 57.5v103q0 39 26 63q-26 24 -26 63v104q0 40 17.5 57.5t57.5 17.5h171v268
h-220q-19 0 -25.5 -6t-6.5 -26v-177h-137v177q0 19 -6.5 25.5t-26.5 6.5h-186q-19 0 -25.5 -6t-6.5 -26v-303q0 -19 6.5 -25.5t25.5 -6.5h203v-59h-295q-78 0 -78 78v329q0 78 78 78h316q31 0 45 -10.5t17 -34.5h4q6 45 54 45h264v78h-897v59h1170v-59h-135v-464z" />
    <glyph glyph-name="uni0964" unicode="&#x964;" horiz-adv-x="425" 
d="M178 0v622h135v-622h-135z" />
    <glyph glyph-name="uni0965" unicode="&#x965;" horiz-adv-x="792" 
d="M178 0v622h135v-622h-135zM545 0v622h135v-622h-135z" />
    <glyph glyph-name="uni0966" unicode="&#x966;" horiz-adv-x="742" 
d="M506 91v440q0 19 -6 25.5t-25 6.5h-207q-19 0 -24.5 -6.5t-5.5 -25.5v-440q0 -19 5.5 -25.5t24.5 -6.5h207q19 0 25 6.5t6 25.5zM179 622h384q76 0 76 -78v-466q0 -78 -76 -78h-384q-76 0 -76 78v466q0 78 76 78z" />
    <glyph glyph-name="uni0967" unicode="&#x967;" horiz-adv-x="497" 
d="M378 622v-622h-137v563h-168v59h305z" />
    <glyph glyph-name="uni0968" unicode="&#x968;" horiz-adv-x="756" 
d="M650 59v-59h-543v58l310 276q46 40 69.5 75t23.5 78v44q0 19 -5.5 25.5t-23.5 6.5h-200q-19 0 -24.5 -6.5t-5.5 -25.5v-128h-138v141q0 78 76 78h383q76 0 76 -79v-55q0 -67 -21.5 -105.5t-70.5 -84.5l-264 -239h358z" />
    <glyph glyph-name="uni0969" unicode="&#x969;" horiz-adv-x="733" 
d="M467 62q19 0 25 6.5t6 25.5v152q0 35 -36 35h-121v60h123q19 0 26.5 8t7.5 27v151q0 19 -6 26t-25 7h-211q-19 0 -25 -7t-6 -26v-90h-137v107q0 78 76 78h395q76 0 76 -79v-156q0 -66 -62 -72v-4q31 -2 46.5 -18.5t15.5 -52.5v-160q0 -80 -76 -80h-395q-76 0 -76 78v109
h138v-93q0 -19 6 -25.5t24 -6.5h211z" />
    <glyph glyph-name="uni096A" unicode="&#x96a;" horiz-adv-x="725" 
d="M668 174v-59h-103v-115h-129v115h-373v69l220 438h137l-220 -448h236v152h129v-152h103z" />
    <glyph glyph-name="uni096B" unicode="&#x96b;" horiz-adv-x="732" 
d="M238 391h326q76 0 76 -78v-233q0 -80 -76 -80h-386q-76 0 -76 78v131h138v-118q0 -19 5.5 -25.5t23.5 -6.5h203q19 0 24.5 6.5t5.5 25.5v209q0 19 -5.5 25.5t-24.5 6.5h-371v290h528v-59h-391v-172z" />
    <glyph glyph-name="uni096C" unicode="&#x96c;" horiz-adv-x="752" 
d="M517 91v178q0 19 -6 26t-25 7h-246v-211q0 -19 6 -25.5t25 -6.5h215q19 0 25 6.5t6 25.5zM240 360h338q76 0 76 -77v-205q0 -78 -76 -78h-399q-76 0 -76 78v466q0 78 76 78h398q76 0 76 -78v-110h-138v97q0 19 -5.5 25.5t-24.5 6.5h-214q-19 0 -25 -6.5t-6 -25.5v-171z
" />
    <glyph glyph-name="uni096D" unicode="&#x96d;" horiz-adv-x="591" 
d="M528 622v-57l-230 -565h-136l229 563h-331v59h468z" />
    <glyph glyph-name="uni096E" unicode="&#x96e;" horiz-adv-x="709" 
d="M490 374v157q0 19 -6 25.5t-25 6.5h-211q-19 0 -25 -6.5t-6 -25.5v-157q0 -18 7.5 -25.5t26.5 -7.5h207q18 0 25 7.5t7 25.5zM490 91v158q0 18 -7 25.5t-25 7.5h-209q-18 0 -25 -7.5t-7 -25.5v-158q0 -19 6 -25.5t25 -6.5h211q19 0 25 6.5t6 25.5zM624 543v-154
q0 -76 -65 -77v-3q65 -1 65 -72v-157q0 -80 -76 -80h-388q-76 0 -76 80v157q0 71 65 72v3q-65 1 -65 77v154q0 79 76 79h388q76 0 76 -79z" />
    <glyph glyph-name="uni096F" unicode="&#x96f;" horiz-adv-x="752" 
d="M266 312h246v219q0 19 -6 25.5t-25 6.5h-215q-19 0 -25 -6.5t-6 -25.5v-186q0 -19 6 -26t25 -7zM174 622h399q76 0 76 -78v-466q0 -78 -76 -78h-398q-75 0 -75 78v102h137v-89q0 -19 5.5 -25.5t24.5 -6.5h214q19 0 25 6.5t6 25.5v163h-338q-76 0 -76 77v213q0 78 76 78z
" />
    <glyph glyph-name="uni0970" unicode="&#x970;" horiz-adv-x="662" 
d="M453 219v124q0 19 -6.5 25.5t-25.5 6.5h-182q-20 0 -26.5 -6.5t-6.5 -25.5v-124q0 -19 6.5 -25.5t26.5 -6.5h182q19 0 25.5 6.5t6.5 25.5zM165 432h330q77 0 77 -78v-146q0 -78 -77 -78h-330q-78 0 -78 78v146q0 78 78 78z" />
    <glyph glyph-name="uni0972" unicode="&#x972;" horiz-adv-x="1071" 
d="M1091 622v-59h-136v-563h-138v296h-189v-140q0 -78 -77 -78h-391q-78 0 -78 78v97h138v-84q0 -19 6 -25.5t26 -6.5h206q20 0 26 6.5t6 25.5v116q0 19 -7 26.5t-27 7.5h-148v59h148q20 0 27 7t7 27v119q0 19 -6 25.5t-26 6.5h-206q-20 0 -26 -6.5t-6 -25.5v-84h-138v97
q0 78 78 78h391q77 0 77 -78v-129q0 -55 -51 -56v-4h240v267h274zM1018 852h131v-90q0 -77 -77 -77h-371q-78 0 -78 77v90h131v-76q0 -20 6 -26t26 -6h200q20 0 26 6t6 26v76z" />
    <glyph glyph-name="uni097D" unicode="&#x97d;" horiz-adv-x="714" 
d="M206 682h314q78 0 78 -76v-270q0 -77 -78 -77h-112v-259h-134v318h164q18 0 23.5 6.5t5.5 26.5v239q0 20 -5.5 27t-23.5 7h-142q-19 0 -25 -7t-6 -27v-114h-137v130q0 76 78 76z" />
    <glyph glyph-name="uni200B" unicode="&#x200b;" horiz-adv-x="0" 
 />
    <glyph glyph-name="uni200C" unicode="&#x200c;" horiz-adv-x="0" 
d="M-24 794h51v-1140h-51v1140z" />
    <glyph glyph-name="uni200D" unicode="&#x200d;" horiz-adv-x="0" 
d="M18 -346h-51v950l-74 -73l-42 39l104 95l-104 96l41 38l101 -99l100 99l40 -38l-104 -96l104 -95l-41 -39l-74 74v-951z" />
    <glyph glyph-name="endash" unicode="&#x2013;" horiz-adv-x="655" 
d="M61 262v59h491v-59h-491z" />
    <glyph glyph-name="emdash" unicode="&#x2014;" horiz-adv-x="939" 
d="M61 262v59h814v-59h-814z" />
    <glyph glyph-name="quoteleft" unicode="&#x2018;" horiz-adv-x="251" 
d="M194 622v-263h-142v64l96 199h46z" />
    <glyph glyph-name="quoteright" unicode="&#x2019;" horiz-adv-x="251" 
d="M59 359v263h142v-65l-95 -198h-47z" />
    <glyph glyph-name="quotesinglbase" unicode="&#x201a;" horiz-adv-x="250" 
d="M59 -131v263h142v-64l-95 -199h-47z" />
    <glyph glyph-name="quotedblleft" unicode="&#x201c;" horiz-adv-x="441" 
d="M194 622v-263h-142v64l96 199h46zM388 622v-263h-143v64l96 199h47z" />
    <glyph glyph-name="quotedblright" unicode="&#x201d;" horiz-adv-x="441" 
d="M253 359v263h142v-65l-95 -198h-47zM59 359v263h142v-65l-95 -198h-47z" />
    <glyph glyph-name="quotedblbase" unicode="&#x201e;" horiz-adv-x="441" 
d="M253 -131v263h142v-64l-95 -199h-47zM59 -131v263h142v-64l-95 -199h-47z" />
    <glyph glyph-name="dagger" unicode="&#x2020;" horiz-adv-x="608" 
d="M540 464v-59h-168v-526h-134v526h-169v59h169v158h134v-158h168z" />
    <glyph glyph-name="daggerdbl" unicode="&#x2021;" horiz-adv-x="620" 
d="M545 391h-167v-308h167v-59h-167v-175h-134v175h-170v59h170v308h-170v59h170v172h134v-172h167v-59z" />
    <glyph glyph-name="bullet" unicode="&#x2022;" horiz-adv-x="466" 
d="M123 411q46 39 110.5 39t110 -39t45.5 -93.5t-46 -93.5t-110 -39t-110 39t-46 93.5t46 93.5z" />
    <glyph glyph-name="ellipsis" unicode="&#x2026;" horiz-adv-x="803" 
d="M59 0v122h149v-122h-149zM332 0v122h148v-122h-148zM601 0v122h149v-122h-149z" />
    <glyph glyph-name="perthousand" unicode="&#x2030;" horiz-adv-x="1601" 
d="M1077 280v-216q0 -63 -60 -63h-259q-61 0 -61 63v216q0 63 61 63h259q60 0 60 -63zM976 77v190q0 16 -4.5 20.5t-20.5 4.5h-126q-16 0 -20.5 -4.5t-4.5 -20.5v-190q0 -17 4.5 -21.5t20.5 -4.5h126q16 0 20.5 4.5t4.5 21.5zM743 622h109l-468 -622h-108zM433 558v-216
q0 -63 -61 -63h-259q-60 0 -60 63v216q0 63 60 63h259q61 0 61 -63zM331 355v190q0 17 -4.5 21.5t-20.5 4.5h-126q-16 0 -20.5 -4.5t-4.5 -21.5v-190q0 -16 4.5 -21t20.5 -5h126q16 0 20.5 5t4.5 21zM1546 280v-216q0 -63 -60 -63h-260q-60 0 -60 63v216q0 63 60 63h260
q60 0 60 -63zM1445 77v190q0 16 -4.5 20.5t-20.5 4.5h-127q-16 0 -20 -4.5t-4 -20.5v-190q0 -17 4 -21.5t20 -4.5h127q16 0 20.5 4.5t4.5 21.5z" />
    <glyph glyph-name="guilsinglleft" unicode="&#x2039;" horiz-adv-x="346" 
d="M178 102l-130 153l130 152h138l-131 -153l131 -152h-138z" />
    <glyph glyph-name="guilsinglright" unicode="&#x203a;" horiz-adv-x="344" 
d="M303 255l-130 -153h-138l131 152l-131 153h138z" />
    <glyph glyph-name="fraction" unicode="&#x2044;" horiz-adv-x="545" 
d="M435 622h113l-417 -622h-112z" />
    <glyph glyph-name="Euro" unicode="&#x20ac;" horiz-adv-x="704" 
d="M651 407h-135v125q0 20 -6 25.5t-25 5.5h-196q-19 0 -25 -5.5t-6 -25.5v-127h155v-59h-155v-69h155v-59h-155v-128q0 -20 6 -25.5t25 -5.5h196q19 0 25 5.5t6 25.5v125h135v-136q0 -79 -79 -79h-370q-79 0 -79 79v139h-90v59h90v69h-90v59h90v138q0 79 79 79h370
q79 0 79 -79v-136z" />
    <glyph glyph-name="trademark" unicode="&#x2122;" horiz-adv-x="963" 
d="M22 560v62h355v-62h-126v-272h-103v272h-126zM908 622v-334h-95v229l-101 -174h-78l-98 175v-230h-95v334h116l116 -207l119 207h116z" />
    <glyph glyph-name="uni2126" unicode="&#x2126;" horiz-adv-x="754" 
d="M706 59v-59h-279v59h55q20 0 25.5 5.5t5.5 25.5v442q0 20 -5.5 25.5t-25.5 5.5h-209q-19 0 -25 -5.5t-6 -25.5v-442q0 -20 6 -25.5t25 -5.5h55v-59h-281v59h87q-26 14 -26 57v427q0 79 79 79h380q79 0 79 -79v-427q0 -43 -26 -57h86z" />
    <glyph glyph-name="product" unicode="&#x220f;" horiz-adv-x="756" 
d="M668 622v-59h-1v-563h-128v563h-262v-484q0 -79 -79 -79h-168v63h87q19 0 25 5.5t6 25.5v528h520z" />
    <glyph glyph-name="minus" unicode="&#x2212;" horiz-adv-x="724" 
d="M52 266v89h559v-89h-559z" />
    <glyph glyph-name="uni2215" unicode="&#x2215;" horiz-adv-x="440" 
d="M393 699h120l-417 -835h-120z" />
    <glyph glyph-name="uni2219" unicode="&#x2219;" horiz-adv-x="217" 
d="M39 372h143v-125h-143v125z" />
    <glyph glyph-name="infinity" unicode="&#x221e;" horiz-adv-x="959" 
d="M330 194h-197q-77 0 -77 76v149q0 76 77 76h206q44 0 65.5 -12t49.5 -47l32 -40l21 30q32 43 53 56t69 13h196q79 0 79 -76v-149q0 -76 -79 -76h-184q-52 0 -76 11t-56 49l-22 27l-11 -14q-33 -46 -60 -59.5t-86 -13.5zM631 256h136q22 0 28 6.5t6 27.5v109q0 20 -6 27
t-28 7h-145q-25 0 -48 -31l-45 -62l51 -58q23 -26 51 -26zM336 432h-143q-23 0 -29 -7t-6 -26v-109q0 -21 6 -27.5t29 -6.5h151q37 0 61 34l36 48l-48 61q-15 18 -26.5 25.5t-30.5 7.5z" />
    <glyph glyph-name="integral" unicode="&#x222b;" horiz-adv-x="422" 
d="M276 618v-664q0 -79 -79 -79h-170v62h85q19 0 24 5.5t7 25.5v664q0 79 79 79h170v-62h-85q-19 0 -25 -5.5t-6 -25.5z" />
    <glyph glyph-name="approxequal" unicode="&#x2248;" horiz-adv-x="791" 
d="M269 327q71 0 140.5 -50.5t136.5 -50.5q45 0 49 32h-71q-43 0 -89 25t-94.5 50t-84.5 25t-47 -6.5t-13 -24.5h73zM721 424v-185q0 -78 -78 -78h-119q-60 0 -135.5 50.5t-143.5 50.5q-27 0 -38 -9t-11 -31v-60h-126v185q0 77 78 77h121q71 0 140.5 -50.5t136.5 -50.5
q27 0 38 9t11 32v60h126z" />
    <glyph glyph-name="notequal" unicode="&#x2260;" horiz-adv-x="699" 
d="M629 359h-200l-74 -92h274v-87h-345l-60 -74h-83l60 74h-131v87h201l75 92h-276v87h346l56 69h84l-56 -69h129v-87z" />
    <glyph glyph-name="lessequal" unicode="&#x2264;" horiz-adv-x="727" 
d="M664 182v-77h-611v77h611zM664 414l-509 -62l509 -63v-89l-610 102v102l610 99v-89z" />
    <glyph glyph-name="greaterequal" unicode="&#x2265;" horiz-adv-x="727" 
d="M63 105v77h611v-77h-611zM572 352l-509 62v89l611 -99v-102l-611 -102v89z" />
    <glyph glyph-name="lozenge" unicode="&#x25ca;" horiz-adv-x="748" 
d="M697 313l-267 -313h-123l-256 313l256 309h123zM557 313l-188 226l-177 -226l177 -229z" />
    <glyph glyph-name="uni25CC" unicode="&#x25cc;" horiz-adv-x="422" 
d="M137 151v-73q-29 0 -47.5 20t-18.5 53h66zM71 189v73h66v-73h-66zM71 301v73h66v-73h-66zM137 412h-66q0 34 18 53.5t48 19.5v-73zM279 78v73h66q0 -30 -18 -51.5t-48 -21.5zM279 189v73h66v-73h-66zM279 301v73h66v-73h-66zM279 412v73q66 0 66 -73h-66zM175 412v73h66
v-73h-66zM175 78v73h66v-73h-66z" />
    <glyph glyph-name="commaaccent" unicode="&#xf6c3;" horiz-adv-x="629" 
d="M247 -239v190h135v-55l-92 -135h-43z" />
    <glyph glyph-name="uni0915094D" horiz-adv-x="739" 
d="M643 485h259v-59h-257q-19 0 -26.5 -7t-7.5 -27v-392h-137v87q-10 -9 -32 -9h-280q-77 0 -77 78v251q0 78 77 78h262v-59h-170q-19 0 -25 -6t-6 -26v-225q0 -20 6 -26t25 -6h186q20 0 27 7.5t7 26.5v392h-494v59h851v-59h-220v-87q11 9 32 9z" />
    <glyph glyph-name="uni0916094D" horiz-adv-x="1023" 
d="M237 234v-143q0 -19 6.5 -25.5t26.5 -6.5h387v-59h-481q-77 0 -77 78v385h138v-170h172q19 0 25.5 6.5t6.5 25.5v238h-461v59h1102v-59h-505v-252q0 -77 -78 -77h-262zM863 178h311v-58h-391q-77 0 -77 78v180q0 77 77 77h288v-59h-208q-19 0 -25.5 -6t-6.5 -26v-154
q0 -19 6.5 -25.5t25.5 -6.5z" />
    <glyph glyph-name="uni0917094D" horiz-adv-x="732" 
d="M235 137h250q19 0 25.5 6.5t6.5 25.5v198h-282q-19 0 -25.5 -6.5t-6.5 -25.5v-166q0 -19 6.5 -25.5t25.5 -6.5zM752 622v-59h-98v-407q0 -78 -77 -78h-425q-77 0 -77 78v192q0 78 77 78h365v137h-537v59h772z" />
    <glyph glyph-name="uni0918094D" horiz-adv-x="505" 
d="M270 137h396v-59h-488q-78 0 -78 78v134q0 53 50 56v4q-50 2 -50 55v127q0 23 11 31h-131v59h618v-59h-328q-20 0 -26 -6.5t-6 -25.5v-121q0 -20 6 -26t26 -6h180v-59h-180q-20 0 -26 -6.5t-6 -25.5v-118q0 -19 6 -25.5t26 -6.5z" />
    <glyph glyph-name="uni0919094D" horiz-adv-x="853" 
d="M295 -61h140l117 -155h-142zM693 305v91h101v-91h-101zM-20 622h893v-59h-261v-137h-351q-20 0 -26.5 -6.5t-6.5 -25.5v-59q0 -19 6.5 -25.5t26.5 -6.5h297q78 0 78 -78v-140q0 -78 -78 -78h-387q-77 0 -77 78v82h137v-69q0 -19 6.5 -25.5t26.5 -6.5h202q20 0 26 6t6 26
v114q0 20 -6 26t-26 6h-298q-77 0 -77 78v85q0 78 77 78h307v78h-495v59z" />
    <glyph glyph-name="uni091A094D" horiz-adv-x="468" 
d="M560 622v-59h-580v59h580zM281 137h336v-59h-428q-78 0 -78 78v239q0 23 12 31h-96v59h393v-59h-141q-18 -1 -24 -7t-6 -25v-225q0 -19 6.5 -25.5t25.5 -6.5z" />
    <glyph glyph-name="uni091B094D" horiz-adv-x="1054" 
d="M1074 563h-802q-19 0 -25 -6t-6 -26v-160q0 -20 6 -26t25 -6h138v-59h-138q-19 0 -25 -6t-6 -26v-157q0 -20 6 -26t25 -6h529q20 0 26.5 6.5t6.5 25.5v303q0 19 -6.5 25.5t-26.5 6.5h-187q-20 0 -26 -6t-6 -26v-130q0 -20 6 -26t26 -6h97v-59h-177q-78 0 -78 78v156
q0 78 78 78h344q78 0 78 -78v-329q0 -78 -78 -78h-698q-77 0 -77 78v172q0 53 50 56v4q-50 1 -50 56v166q0 23 11 31h-134v59h1094v-59z" />
    <glyph glyph-name="uni091C094D" horiz-adv-x="714" 
d="M850 622v-59h-870v59h870zM882 485v-59h-251v-270q0 -78 -78 -78h-376q-78 0 -78 78v329h134v-316q0 -19 6.5 -25.5t25.5 -6.5h199q20 0 26 6.5t6 25.5v316h386z" />
    <glyph glyph-name="uni091D094D" horiz-adv-x="721" 
d="M886 331v-59h-229q1 -6 1 -19v-97q0 -78 -77 -78h-352v-78h-141v190h141v-53h259q20 0 26.5 6.5t6.5 25.5v70q0 19 -6.5 26t-26.5 7h-317q-78 0 -78 77v58q0 78 78 78h347v78h-538v59h864v-59h-189v-137h-392q-19 0 -25.5 -6t-6.5 -26v-31q0 -19 6.5 -25.5t25.5 -6.5h623
z" />
    <glyph glyph-name="uni091E094D" horiz-adv-x="676" 
d="M797 622v-59h-817v59h817zM829 318v-59h-226v-103q0 -78 -77 -78h-396q-78 0 -78 78v113h138v-100q0 -19 6 -25.5t26 -6.5h212q20 0 26 6.5t6 25.5v225q0 20 -6 26t-26 6h-207v59h299q77 0 77 -78v-89h226z" />
    <glyph glyph-name="uni091F094D" horiz-adv-x="750" 
d="M303 -61h140l117 -155h-142zM624 426h-354q-20 0 -26 -6t-6 -26v-303q0 -19 6 -25.5t26 -6.5h214q20 0 26 6.5t6 25.5v153h138v-166q0 -78 -78 -78h-398q-78 0 -78 78v329q0 78 78 78h309v78h-507v59h790v-59h-146v-137z" />
    <glyph glyph-name="uni0920094D" horiz-adv-x="774" 
d="M308 -61h140l117 -155h-142zM540 91v303q0 20 -6 26t-26 6h-242q-20 0 -26 -6t-6 -26v-303q0 -19 6 -25.5t26 -6.5h242q20 0 26 6.5t6 25.5zM794 563h-339v-78h142q77 0 77 -78v-329q0 -78 -77 -78h-419q-78 0 -78 78v329q0 78 78 78h139v78h-337v59h814v-59z" />
    <glyph glyph-name="uni0921094D" horiz-adv-x="729" 
d="M295 -61h140l117 -155h-142zM616 426h-351q-19 0 -25.5 -6t-6.5 -26v-51q0 -19 6.5 -25.5t25.5 -6.5h297q78 0 78 -78v-155q0 -78 -78 -78h-387q-77 0 -77 78v94h138v-81q0 -19 6 -25.5t26 -6.5h202q20 0 26 6.5t6 25.5v128q0 20 -6.5 26.5t-25.5 6.5h-298q-77 0 -77 77
v78q0 78 77 78h307v78h-499v59h771v-59h-135v-137z" />
    <glyph glyph-name="uni0922094D" horiz-adv-x="774" 
d="M311 -61h140l117 -155h-142zM626 426h-356q-20 0 -26 -6t-6 -26v-303q0 -19 6 -25.5t26 -6.5h246q20 0 26 6.5t6 25.5v108q0 19 -6 25.5t-26 6.5h-138v59h222q77 0 77 -78v-134q0 -78 -77 -78h-422q-78 0 -78 78v329q0 78 78 78h310v78h-508v59h814v-59h-168v-137z" />
    <glyph glyph-name="uni0923094D" horiz-adv-x="718" 
d="M498 169v394h-267v-394q0 -19 6.5 -25.5t25.5 -6.5h202q20 0 26.5 6.5t6.5 25.5zM738 622v-59h-110v-407q0 -78 -77 -78h-373q-78 0 -78 78v407h-120v59h758z" />
    <glyph glyph-name="uni0924094D" horiz-adv-x="428" 
d="M-20 563v59h540v-59h-540zM604 485v-59h-335q-19 0 -25.5 -6t-6.5 -26v-303q0 -19 6.5 -25.5t25.5 -6.5h116v-59h-208q-78 0 -78 78v329q0 78 78 78h427z" />
    <glyph glyph-name="uni0925094D" horiz-adv-x="681" 
d="M269 137h605v-59h-697q-78 0 -78 78v205h350q20 0 26.5 6t6.5 25v139q0 19 -6.5 25.5t-26.5 6.5h-179q-20 0 -26 -6.5t-6 -25.5v-91h-136v104q0 78 78 78h360q77 0 77 -78v-165q0 -77 -77 -77h-303v-133q0 -19 6.5 -25.5t25.5 -6.5z" />
    <glyph glyph-name="uni0926094D" horiz-adv-x="749" 
d="M471 -61h140l117 -155h-142zM-20 622h789v-59h-143v-137h-372q-19 0 -25 -6t-6 -26v-225q0 -20 6 -26t25 -6h210q20 0 27 7.5t7 26.5v95h138v-266h-138v87q-10 -9 -32 -9h-304q-77 0 -77 78v251q0 78 77 78h326v78h-508v59z" />
    <glyph glyph-name="uni0927094D" horiz-adv-x="665" 
d="M267 137h570v-59h-662q-78 0 -78 78v113q0 53 50 55v5q-50 2 -50 56v159q0 78 78 78h353q77 0 77 -78v-118h-118v105q0 19 -6.5 25.5t-25.5 6.5h-188q-19 0 -25.5 -6.5t-6.5 -25.5v-140q0 -19 6.5 -25.5t25.5 -6.5h142v-59h-142q-19 0 -25.5 -6t-6.5 -26v-99
q0 -19 6.5 -25.5t25.5 -6.5z" />
    <glyph glyph-name="uni0928094D" horiz-adv-x="686" 
d="M799 622v-59h-819v59h819zM477 169v257h-236q-19 0 -25.5 -6t-6.5 -26v-225q0 -19 6.5 -25.5t25.5 -6.5h205q19 0 25 6t6 26zM869 485v-59h-258v-270q0 -78 -77 -78h-382q-77 0 -77 78v251q0 78 77 78h717z" />
    <glyph glyph-name="uni092A094D" horiz-adv-x="386" 
d="M266 137h266v-59h-354q-78 0 -78 78v407h-120v59h498v-59h-244v-394q0 -19 6 -25.5t26 -6.5z" />
    <glyph glyph-name="uni092B094D" horiz-adv-x="774" 
d="M266 137h209q19 0 26.5 7.5t7.5 26.5v392h-275v-394q0 -19 6 -25.5t26 -6.5zM678 471h235v-59h-233q-20 0 -27 -7t-7 -27v-378h-137v87q-11 -9 -32 -9h-299q-78 0 -78 78v407h-120v59h903v-59h-237v-101q10 9 32 9z" />
    <glyph glyph-name="uni092C094D" horiz-adv-x="466" 
d="M534 622v-59h-554v59h554zM220 281v-112q0 -19 6.5 -25.5t25.5 -6.5h325l-361 249q4 -57 4 -105zM612 137v-59h-450q-77 0 -77 78v251q0 78 77 78h367v-59h-285l356 -249l-2 -40h14z" />
    <glyph glyph-name="uni092D094D" horiz-adv-x="722" 
d="M498 168v143h-238q-19 0 -25 -6t-6 -25v-112q0 -19 6 -25.5t25 -6.5h206q19 0 25.5 6.5t6.5 25.5zM879 370v-59h-243v-155q0 -78 -78 -78h-382q-78 0 -78 78v137q0 77 78 77h322v161q0 19 -6 25.5t-26 6.5h-195q-19 0 -25.5 -6.5t-6.5 -25.5v-86h-138v99q0 78 78 78h379
q78 0 78 -78v-174h243z" />
    <glyph glyph-name="uni092E094D" horiz-adv-x="718" 
d="M499 169v257h-237q-20 0 -26 -6t-6 -26v-225q0 -19 6 -25.5t26 -6.5h205q19 0 25.5 6.5t6.5 25.5zM887 485v-59h-250v-270q0 -78 -78 -78h-382q-78 0 -78 78v251q0 78 78 78h322v78h-519v59h882v-59h-225v-78h250z" />
    <glyph glyph-name="uni092F094D" horiz-adv-x="599" 
d="M237 137h521v-59h-613q-78 0 -78 78v212h292q19 0 25.5 6.5t6.5 25.5v131q0 19 -6.5 25.5t-25.5 6.5h-379v59h711v-59h-174q12 -7 12 -31v-145q0 -78 -78 -78h-246v-140q0 -19 6.5 -25.5t25.5 -6.5z" />
    <glyph glyph-name="uni0930094D" horiz-adv-x="749" 
d="M277 -61h140l117 -155h-142zM769 622v-59h-144q12 -7 12 -31v-169q0 -78 -78 -78h-322v-194q0 -19 6.5 -25.5t25.5 -6.5h190q19 0 25.5 6.5t6.5 25.5v120h138v-133q0 -78 -78 -78h-374q-78 0 -78 78v354h138v-88h230q19 0 25.5 6t6.5 26v155q0 19 -6.5 25.5t-25.5 6.5
h-487v59h789z" />
    <glyph glyph-name="uni0932094D" horiz-adv-x="771" 
d="M863 622v-59h-883v59h883zM613 485h306v-59h-262q-19 0 -25.5 -6t-6.5 -26v-205h-137v205q0 19 -6.5 25.5t-26.5 6.5h-186q-19 0 -25.5 -6t-6.5 -26v-303q0 -19 6.5 -25.5t25.5 -6.5h203v-59h-295q-78 0 -78 78v329q0 78 78 78h316q31 0 45 -10.5t17 -34.5h4q6 45 54 45z
" />
    <glyph glyph-name="uni0933094D" horiz-adv-x="1052" 
d="M830 169v225q0 19 -6.5 25.5t-26.5 6.5h-179q-20 0 -26 -6t-6 -26v-225q0 -19 6 -25.5t26 -6.5h179q20 0 26.5 6.5t6.5 25.5zM466 169v225q0 20 -6 26t-26 6h-179q-19 0 -25.5 -6t-6.5 -26v-225q0 -19 6.5 -25.5t25.5 -6.5h179q20 0 26 6.5t6 25.5zM582 485h302
q78 0 78 -78v-251q0 -78 -78 -78h-302q-26 0 -38.5 10.5t-15.5 34.5h-4q-3 -24 -17 -34.5t-45 -10.5h-294q-78 0 -78 78v251q0 78 78 78h294q31 0 45 -10.5t17 -34.5h4q4 45 54 45zM-20 622h1092v-59h-1092v59z" />
    <glyph glyph-name="uni0935094D" horiz-adv-x="400" 
d="M-20 563v59h491v-59h-491zM461 485v-59h-199q-20 0 -26 -6t-6 -26v-225q0 -19 6 -25.5t26 -6.5h293v-59h-385q-78 0 -78 78v251q0 78 78 78h291z" />
    <glyph glyph-name="uni0936094D" horiz-adv-x="743" 
d="M575 265h-323v-174q0 -19 6 -25.5t26 -6.5h196q20 0 26 6.5t6 25.5v106h138v-119q0 -78 -78 -78h-380q-78 0 -78 78v295h138v-49h230q20 0 26.5 6.5t6.5 25.5v175q0 19 -6.5 25.5t-26.5 6.5h-197q-19 0 -25.5 -6.5t-6.5 -25.5v-83h-137v96q0 78 78 78h381q77 0 77 -78
v-201q0 -78 -77 -78z" />
    <glyph glyph-name="uni0937094D" horiz-adv-x="457" 
d="M236 357v-188q0 -19 6 -25.5t26 -6.5h305l-343 350q6 -58 6 -130zM589 137v-59h-411q-78 0 -78 78v407h-120v59h569v-59h-319l347 -358l-1 -68h13z" />
    <glyph glyph-name="uni0938094D" horiz-adv-x="736" 
d="M238 280v-189q0 -19 6 -25.5t26 -6.5h200q19 0 25 6t6 26v123h138v-136q0 -78 -77 -78h-384q-78 0 -78 78v398h138v-137h233q19 0 25 6t6 26v160q0 20 -6 26t-25 6h-491v59h848v-59h-200q12 -7 12 -31v-174q0 -13 -1 -19h264v-59h-665z" />
    <glyph glyph-name="uni0939094D" horiz-adv-x="740" 
d="M871 265h-596q-19 0 -25 -6t-6 -26v-142q0 -20 6 -26t25 -6h379v-59h-471q-77 0 -77 78v154q0 54 50 56v5q-50 0 -50 55v59q0 78 77 78h316v78h-519v59h872v-59h-215v-137h-362q-19 0 -25 -6t-6 -26v-38q0 -20 6 -26t25 -6h596v-59z" />
    <glyph glyph-name="uni0915093C094D" horiz-adv-x="743" 
d="M108 -95v108h137v-108h-137zM643 485h267v-59h-265q-19 0 -26.5 -7t-7.5 -27v-392h-137v87q-10 -9 -32 -9h-280q-77 0 -77 78v251q0 78 77 78h262v-59h-170q-19 0 -25 -6t-6 -26v-225q0 -20 6 -26t25 -6h186q20 0 27 7.5t7 26.5v392h-494v59h855v-59h-224v-87q11 9 32 9z
" />
    <glyph glyph-name="uni0916093C094D" horiz-adv-x="1018" 
d="M439 -173v108h137v-108h-137zM237 234v-143q0 -19 6.5 -25.5t26.5 -6.5h387v-59h-481q-77 0 -77 78v385h138v-170h172q19 0 25.5 6.5t6.5 25.5v238h-461v59h1096v-59h-499v-252q0 -77 -78 -77h-262zM863 178h306v-58h-386q-77 0 -77 78v180q0 77 77 77h288v-59h-208
q-19 0 -25.5 -6t-6.5 -26v-154q0 -19 6.5 -25.5t25.5 -6.5z" />
    <glyph glyph-name="uni0917093C094D" horiz-adv-x="733" 
d="M292 -95v108h137v-108h-137zM235 137h250q19 0 25.5 6.5t6.5 25.5v198h-282q-19 0 -25.5 -6.5t-6.5 -25.5v-166q0 -19 6.5 -25.5t25.5 -6.5zM753 622v-59h-99v-407q0 -78 -77 -78h-425q-77 0 -77 78v192q0 78 77 78h365v137h-537v59h773z" />
    <glyph glyph-name="uni091C093C094D" horiz-adv-x="711" 
d="M846 622v-59h-866v59h866zM295 -95v108h137v-108h-137zM882 485v-59h-251v-270q0 -78 -78 -78h-376q-78 0 -78 78v329h134v-316q0 -19 6.5 -25.5t25.5 -6.5h199q20 0 26 6.5t6 25.5v316h386z" />
    <glyph glyph-name="uni0928093C094D" horiz-adv-x="714" 
d="M799 622v-59h-819v59h819zM279 -95v108h137v-108h-137zM477 169v257h-236q-19 0 -25.5 -6t-6.5 -26v-225q0 -19 6.5 -25.5t25.5 -6.5h205q19 0 25 6t6 26zM869 485v-59h-258v-270q0 -78 -77 -78h-382q-77 0 -77 78v251q0 78 77 78h717z" />
    <glyph glyph-name="uni092B093C094D" horiz-adv-x="773" 
d="M116 -95v108h137v-108h-137zM266 137h209q19 0 26.5 7.5t7.5 26.5v392h-275v-394q0 -19 6 -25.5t26 -6.5zM678 471h237v-59h-235q-20 0 -27 -7t-7 -27v-378h-137v87q-11 -9 -32 -9h-299q-78 0 -78 78v407h-120v59h902v-59h-236v-101q10 9 32 9z" />
    <glyph glyph-name="uni092F093C094D" horiz-adv-x="605" 
d="M135 -95v108h137v-108h-137zM237 137h541v-59h-633q-78 0 -78 78v212h292q19 0 25.5 6.5t6.5 25.5v131q0 19 -6.5 25.5t-25.5 6.5h-379v59h717v-59h-180q12 -7 12 -31v-145q0 -78 -78 -78h-246v-140q0 -19 6.5 -25.5t25.5 -6.5z" />
    <glyph glyph-name="uni09080902" horiz-adv-x="748" 
d="M652 426h-391q-19 0 -25.5 -6t-6.5 -26v-38q0 -20 6.5 -26t25.5 -6h323q78 0 78 -78v-90q0 -78 -78 -78h-346v-78h-142v190h142v-53h254q20 0 26 6.5t6 25.5v64q0 19 -6 25.5t-26 6.5h-323q-77 0 -77 78v64q0 78 77 78h345v78h-533v59h468v155q0 40 17.5 57.5t57.5 17.5
h236v-59h-138q-19 0 -26.5 -7.5t-7.5 -25.5v-138h180v-59h-116v-137zM752 660h-93v94h93v-94z" />
    <glyph glyph-name="uni09300941" horiz-adv-x="1062" 
d="M1082 622v-59h-457q12 -7 12 -31v-68h265q76 0 76 -78v-308h-136v295q0 19 -6 25.5t-25 6.5h-174v-39q0 -78 -77 -78h-322v-197q0 -19 6 -25.5t26 -6.5h190q20 0 26 6.5t6 25.5v120h137v-133q0 -78 -77 -78h-374q-78 0 -78 78v354h138v-85h230q19 0 25 6t6 25v153
q0 20 -6 26t-25 6h-488v59h1102z" />
    <glyph glyph-name="uni09300942" horiz-adv-x="1062" 
d="M1082 622v-59h-457q12 -7 12 -31v-68h265q76 0 76 -78v-230q0 -78 -78 -78h-159v59h69q20 0 26 6.5t6 25.5v204q0 19 -6 25.5t-25 6.5h-174v-39q0 -78 -77 -78h-322v-197q0 -19 6 -25.5t26 -6.5h190q20 0 26 6.5t6 25.5v120h137v-133q0 -78 -77 -78h-374q-78 0 -78 78
v354h138v-85h230q19 0 25 6t6 25v153q0 20 -6 26t-25 6h-488v59h1102z" />
    <glyph glyph-name="uni09390941" horiz-adv-x="760" 
d="M642 426h-367q-19 0 -25 -6t-6 -26v-38q0 -20 6 -26t25 -6h303q83 0 83 -81v-100h-132v90q0 19 -6 25.5t-25 6.5h-223q-19 0 -25 -6t-6 -26v-132q0 -20 6 -26t25 -6h322q40 0 57.5 -17.5t17.5 -57.5v-132q0 -40 -17.5 -57.5t-57.5 -17.5h-296q-54 0 -77 11t-49 53l-58 97
h139l43 -74q10 -16 18 -22t24 -6h163q19 0 26.5 7.5t7.5 25.5v98q0 18 -7.5 25.5t-26.5 7.5h-321q-77 0 -77 78v144q0 54 50 56v5q-50 0 -50 55v59q0 78 77 78h322v78h-525v59h800v-59h-138v-137z" />
    <glyph glyph-name="uni09390942" horiz-adv-x="760" 
d="M507 10h-142q-19 0 -26.5 -7.5t-7.5 -25.5v-86q0 -18 7.5 -25.5t26.5 -7.5h120v-59h-210q-40 0 -57.5 17.5t-17.5 57.5v120q0 11 1 16h-18q-77 0 -77 78v144q0 54 50 56v5q-50 0 -50 55v59q0 78 77 78h322v78h-525v59h800v-59h-138v-137h-367q-19 0 -25 -6t-6 -26v-38
q0 -20 6 -26t25 -6h303q83 0 83 -81v-101h-132v91q0 19 -6 25.5t-25 6.5h-223q-19 0 -25 -6t-6 -26v-132q0 -20 6 -26t25 -6h271q55 0 78 -10.5t48 -53.5l122 -206h-139l-106 183q-10 16 -18 22t-24 6z" />
    <glyph glyph-name="uni09260943" horiz-adv-x="750" 
d="M626 426h-372q-19 0 -25 -6t-6 -26v-225q0 -20 6 -26t25 -6h210q20 0 27 7.5t7 26.5v95h138v-325h-194q-19 0 -26.5 -7.5t-7.5 -25.5v-86q0 -18 7.5 -25.5t26.5 -7.5h226v-59h-319q-40 0 -57.5 17.5t-17.5 57.5v120q0 40 17.5 57.5t57.5 17.5h149v87q-10 -9 -32 -9h-304
q-77 0 -77 78v251q0 78 77 78h326v78h-508v59h790v-59h-144v-137z" />
    <glyph glyph-name="uni09390943" horiz-adv-x="760" 
d="M642 426h-367q-19 0 -25 -6t-6 -26v-35q0 -20 6 -26t25 -6h311q77 0 77 -60q0 -21 -22 -60t-22 -50t21 -11h33v-57h-114q-70 0 -70 54q0 21 21.5 58.5t21.5 47.5q0 19 -28 19h-229q-19 0 -25 -6t-6 -26v-175q0 -20 6 -27t25 -7h384v-59h-476q-77 0 -77 80v187q0 54 50 56
v5q-50 0 -50 55v56q0 78 77 78h322v78h-525v59h800v-59h-138v-137z" />
    <glyph glyph-name="uni094D0930" horiz-adv-x="0" 
d="M11 -171h-133l-64 136l-65 -136h-132l106 183h183z" />
    <glyph glyph-name="uni0930094D.1" horiz-adv-x="644" 
d="M606 400v43h138v-56q0 -78 -78 -78h-578q-78 0 -78 78v56h135v-43q0 -19 6.5 -25.5t25.5 -6.5h397q19 0 25.5 6.5t6.5 25.5zM-20 622h764v-59h-764v59z" />
    <glyph glyph-name="uni0930094D.2" horiz-adv-x="0" 
d="M16 827v-59h-100q-19 0 -25.5 -6t-6.5 -25v-139h-138v152q0 77 78 77h192z" />
    <glyph glyph-name="uni0930094D0902" horiz-adv-x="0" 
d="M16 827v-59h-100q-19 0 -25.5 -6t-6.5 -25v-139h-138v152q0 77 78 77h192zM-67 656v76h76v-76h-76z" />
    <glyph glyph-name="uni0930094D.aMatraI" horiz-adv-x="0" 
d="M0 760v-89h-31v124q0 27 14.5 42t41.5 15h84v-59h-75q-19 0 -26.5 -7.5t-7.5 -25.5z" />
    <glyph glyph-name="uni0902.aMatraI" horiz-adv-x="0" 
d="M79 683v108h137v-108h-137z" />
    <glyph glyph-name="uni0930094D0902.aMatraI" horiz-adv-x="0" 
d="M42 671v79h80v-79h-80zM0 760v-89h-31v124q0 27 14.5 42t41.5 15h97v-59h-88q-19 0 -26.5 -7.5t-7.5 -25.5z" />
    <glyph glyph-name="uni09400930094D" 
d="M390 622v-59h-136v-563h-138v563h-136v59h136v114q0 20 -6 26t-26 6h-173q-19 0 -25.5 -6t-6.5 -26v-68h-138v81q0 78 78 78h295q38 0 53.5 -15t15.5 -48h4q0 33 15.5 48t53.5 15h116v-59h-86q-19 0 -25.5 -6t-6.5 -25v-115h136z" />
    <glyph glyph-name="uni09400902" 
d="M246 749v-127h144v-59h-136v-563h-138v563h-136v59h136v114q0 20 -6 26t-26 6h-173q-19 0 -25.5 -6t-6.5 -26v-68h-138v81q0 78 78 78h349q78 0 78 -78zM305 786h111v-102h-111v102z" />
    <glyph glyph-name="uni09400930094D0902" 
d="M390 622v-59h-136v-563h-138v563h-136v59h136v114q0 20 -6 26t-26 6h-173q-19 0 -25.5 -6t-6.5 -26v-68h-138v81q0 78 78 78h295q38 0 53.5 -15t15.5 -48h4q0 33 15.5 48t53.5 15h128v-59h-98q-19 0 -25.5 -6t-6.5 -25v-115h136zM370 656h-75v76h75v-76z" />
    <glyph glyph-name="uni0940.aLong" 
d="M390 622v-59h-136v-563h-138v563h-136v59h136v114q0 20 -6 26t-26 6h-313q-19 0 -25.5 -6t-6.5 -26v-68h-138v81q0 78 78 78h497q78 0 78 -78v-127h136z" />
    <glyph glyph-name="uni09400930094D.aLong" 
d="M390 622v-59h-136v-563h-138v563h-136v59h136v114q0 20 -6 26t-26 6h-464q-20 0 -26 -6t-6 -26v-68h-138v81q0 78 78 78h586q38 0 53.5 -15t15.5 -48h4q0 33 15.5 48t53.5 15h116v-59h-86q-19 0 -25.5 -6t-6.5 -25v-115h136z" />
    <glyph glyph-name="uni09400902.aLong" 
d="M246 749v-127h144v-59h-136v-563h-138v563h-136v59h136v114q0 20 -6 26t-26 6h-464q-20 0 -26 -6t-6 -26v-68h-138v81q0 78 78 78h640q78 0 78 -78zM318 786h110v-102h-110v102z" />
    <glyph glyph-name="uni09400930094D0902.aLong" 
d="M390 622v-59h-136v-563h-138v563h-136v59h136v114q0 20 -6 26t-26 6h-464q-20 0 -26 -6t-6 -26v-68h-138v81q0 78 78 78h586q38 0 53.5 -15t15.5 -48h4q0 33 15.5 48t53.5 15h128v-59h-98q-19 0 -25.5 -6t-6.5 -25v-115h136zM370 656h-75v76h75v-76z" />
    <glyph glyph-name="uni09470930094D" horiz-adv-x="0" 
d="M-116 611h-123q-39 27 -107 112l-81 104h134l54 -73q32 -43 52 -90l-3 12q-7 30 -7 61v13q0 82 83 82h86v-62h-49q-21 0 -30 -8.5t-9 -36.5v-114z" />
    <glyph glyph-name="uni09470902" horiz-adv-x="0" 
d="M-113 687v103h112v-103h-112zM-112 611h-123q-55 38 -119 112l-88 104h150z" />
    <glyph glyph-name="uni09470901" horiz-adv-x="0" 
d="M-66 685q-76 0 -76 78v89h96v-76q0 -20 6 -26t26 -6h210q19 0 25 6t6 26v76h97v-89q0 -78 -76 -78h-314zM-119 611h-116q-55 38 -119 112l-88 104h141zM44 803v92h93v-92h-93z" />
    <glyph glyph-name="uni09470930094D0902" horiz-adv-x="0" 
d="M-28 770h-48q-22 0 -31 -8.5t-9 -36.5v-114h-123q-42 30 -106 112l-82 104h134l54 -73q31 -42 41.5 -65.5t11.5 -24.5q-11 38 -11 73v13q0 82 83 82h86v-62zM-76 655v83h83v-83h-83z" />
    <glyph glyph-name="uni09480930094D" horiz-adv-x="0" 
d="M-116 727v-116h-130q-51 19 -116 77l-154 139h145l52 -57q63 -70 116 -148h6q-41 66 -75 136l-32 69h96l17 -57l28 -107q-7 43 -7 81v12q0 34 20 52.5t57 18.5h67v-55h-51q-21 0 -30 -8.5t-9 -36.5z" />
    <glyph glyph-name="uni09480902" horiz-adv-x="0" 
d="M-189 622h6q-15 29 -62 152l-20 53h102l44 -216h-127q-31 19 -101 85l-138 131h139l43 -50q75 -86 114 -155zM-82 687v103h109v-103h-109z" />
    <glyph glyph-name="uni09480901" horiz-adv-x="0" 
d="M-29 685q-77 0 -77 78v89h91v-76q0 -20 6.5 -26t25.5 -6h204q19 0 25.5 6t6.5 26v76h91v-89q0 -78 -76 -78h-297zM-194 622h5q-47 91 -70 152l-20 53h101l52 -216h-120q-37 19 -106 85l-139 131h133l44 -50q89 -102 120 -155zM72 803v89h93v-89h-93z" />
    <glyph glyph-name="uni09480930094D0902" horiz-adv-x="0" 
d="M-116 727v-116h-130q-51 19 -116 77l-154 139h145l52 -57q63 -70 116 -148h6q-41 66 -75 136l-32 69h96l17 -57l28 -107q-7 43 -7 81v12q0 34 20 52.5t57 18.5h67v-55h-51q-21 0 -30 -8.5t-9 -36.5zM-80 659v72h74v-72h-74z" />
    <glyph glyph-name="uni094B0930094D" horiz-adv-x="374" 
d="M390 622v-59h-136v-563h-138v563h-136v59h137q-33 27 -93 101l-81 104h134l54 -73q32 -43 52 -90l-3 12q-7 30 -7 61v13q0 82 83 82h86v-62h-49q-21 0 -30 -8.5t-9 -36.5v-103h136z" />
    <glyph glyph-name="uni094B0902" horiz-adv-x="374" 
d="M369 790v-103h-112v103h112zM390 622v-59h-136v-563h-138v563h-136v59h140q-51 39 -104 101l-88 104h150l171 -205h141z" />
    <glyph glyph-name="uni094B0930094D0902" horiz-adv-x="374" 
d="M390 622v-59h-136v-563h-138v563h-136v59h140q-38 33 -92 101l-82 104h134l54 -73q31 -42 41.5 -65.5t11.5 -24.5q-11 38 -11 73v13q0 82 83 82h86v-62h-48q-22 0 -31 -8.5t-9 -36.5v-103h133zM297 655v83h83v-83h-83z" />
    <glyph glyph-name="uni094C0930094D" horiz-adv-x="374" 
d="M390 622v-59h-136v-563h-138v563h-136v59h121q-46 24 -93 66l-154 139h145l52 -57q63 -70 116 -148h6q-41 66 -75 136l-32 69h96l17 -57l28 -107q-7 43 -7 81v12q0 34 20 52.5t57 18.5h67v-55h-51q-21 0 -30 -8.5t-9 -36.5v-105h136z" />
    <glyph glyph-name="uni094C0902" horiz-adv-x="374" 
d="M390 622v-59h-136v-563h-138v563h-136v59h128q-46 36 -85 74l-138 131h139l43 -50q75 -86 114 -155h6q-15 29 -62 152l-20 53h102l42 -205h141zM288 790h109v-103h-109v103z" />
    <glyph glyph-name="uni094C0930094D0902" horiz-adv-x="374" 
d="M390 622v-59h-136v-563h-138v563h-136v59h121q-46 24 -93 66l-154 139h145l52 -57q63 -70 116 -148h6q-41 66 -75 136l-32 69h96l17 -57l28 -107q-7 43 -7 81v12q0 34 20 52.5t57 18.5h67v-55h-51q-21 0 -30 -8.5t-9 -36.5v-105h136zM290 659v72h74v-72h-74z" />
    <glyph glyph-name="uni0915094D0937" horiz-adv-x="1087" 
d="M502 393v137q0 20 -6 26t-26 6h-169q-20 0 -26.5 -6.5t-6.5 -25.5v-137q0 -19 6.5 -25t26.5 -6h169q20 0 26 6t6 25zM1107 622v-59h-137v-563h-137v303h-586q-19 0 -25 -6t-6 -26v-102q0 -20 6 -26t25 -6h213q21 0 29.5 8t8.5 30v49h138v-224h-138v91q-9 -13 -35 -13
h-308q-77 0 -77 78v126q0 77 69 80q-12 9 -12 35v147q0 77 78 77h345q77 0 77 -77v-147q0 -26 -12 -35h210v260h274z" />
    <glyph glyph-name="uni0915094D0937094D" horiz-adv-x="731" 
d="M268 530v-137q0 -19 6.5 -25t26.5 -6h169q20 0 26 6t6 25v137q0 20 -6 26t-26 6h-169q-20 0 -26.5 -6.5t-6.5 -25.5zM902 303h-655q-19 0 -25 -6t-6 -26v-102q0 -20 6 -26t25 -6h213q21 0 29.5 8t8.5 30v49h138v-224h-138v91q-9 -13 -35 -13h-308q-77 0 -77 78v126
q0 77 69 80q-12 9 -12 35v147q0 77 78 77h345q77 0 77 -77v-147q0 -26 -12 -35h279v-59z" />
    <glyph glyph-name="uni0915094D0937094D092E" horiz-adv-x="1810" 
d="M1557 485v78h-196v-78h196zM1223 169v257h-237q-20 0 -26 -6t-6 -26v-225q0 -19 6 -25.5t26 -6.5h205q19 0 25.5 6.5t6.5 25.5zM502 393v137q0 20 -6 26t-26 6h-169q-20 0 -26.5 -6.5t-6.5 -25.5v-137q0 -19 6.5 -25t26.5 -6h169q20 0 26 6t6 25zM1830 622v-59h-136v-563
h-137v426h-196v-270q0 -78 -78 -78h-382q-78 0 -78 78v147h-576q-19 0 -25 -6t-6 -26v-102q0 -20 6 -26t25 -6h213q21 0 29.5 8t8.5 30v49h138v-224h-138v91q-9 -13 -35 -13h-308q-77 0 -77 78v126q0 77 69 80q-12 9 -12 35v147q0 77 78 77h345q77 0 77 -77v-147
q0 -26 -12 -35h200v45q0 78 78 78h322v78h-459v59h1066z" />
    <glyph glyph-name="uni0915094D0937094D092E094D" horiz-adv-x="1444" 
d="M1226 169v257h-237q-19 0 -25.5 -6t-6.5 -26v-225q0 -19 6.5 -25.5t25.5 -6.5h205q20 0 26 6.5t6 25.5zM502 393v137q0 20 -6 26t-26 6h-169q-20 0 -26.5 -6.5t-6.5 -25.5v-137q0 -19 6.5 -25t26.5 -6h169q20 0 26 6t6 25zM1600 485v-59h-236v-270q0 -78 -78 -78h-382
q-78 0 -78 78v147h-579q-19 0 -25 -6t-6 -26v-102q0 -20 6 -26t25 -6h213q21 0 29.5 8t8.5 30v49h138v-224h-138v91q-9 -13 -35 -13h-308q-77 0 -77 78v126q0 77 69 80q-12 9 -12 35v147q0 77 78 77h345q77 0 77 -77v-147q0 -26 -12 -35h203v45q0 78 78 78h322v78h-478v59
h827v-59h-211v-78h236z" />
    <glyph glyph-name="uni0915094D0937094D092E094D092F" horiz-adv-x="2450" 
d="M2196 175v388h-201q12 -7 12 -31v-145q0 -78 -78 -78h-239v-140q0 -19 6 -25.5t26 -6.5h435q22 0 30.5 8t8.5 30zM1223 169v257h-237q-20 0 -26 -6t-6 -26v-225q0 -19 6 -25.5t26 -6.5h205q19 0 25.5 6.5t6.5 25.5zM502 393v137q0 20 -6 26t-26 6h-169q-20 0 -26.5 -6.5
t-6.5 -25.5v-137q0 -19 6.5 -25t26.5 -6h169q20 0 26 6t6 25zM2470 622v-59h-137v-563h-137v91q-9 -13 -35 -13h-531q-78 0 -78 78v212h285q19 0 25.5 6.5t6.5 25.5v131q0 19 -6.5 25.5t-25.5 6.5h-476v-78h193v-59h-193v-270q0 -78 -78 -78h-382q-78 0 -78 78v147h-576
q-19 0 -25 -6t-6 -26v-102q0 -20 6 -26t25 -6h213q21 0 29.5 8t8.5 30v49h138v-224h-138v91q-9 -13 -35 -13h-308q-77 0 -77 78v126q0 77 69 80q-12 9 -12 35v147q0 77 78 77h345q77 0 77 -77v-147q0 -26 -12 -35h200v45q0 78 78 78h322v78h-456v59h1703z" />
    <glyph glyph-name="uni0915094D0937094D092F" horiz-adv-x="1711" 
d="M1457 175v388h-201q12 -7 12 -31v-150q0 -77 -78 -77h-239v-136q0 -19 6.5 -25.5t25.5 -6.5h435q22 0 30.5 8t8.5 30zM502 395v135q0 20 -6 26t-26 6h-169q-20 0 -26.5 -6.5t-6.5 -25.5v-135q0 -19 6.5 -25t26.5 -6h169q20 0 26 6t6 25zM1731 622v-59h-136v-563h-138v91
q-9 -13 -35 -13h-531q-78 0 -78 78v149h-566q-19 0 -25 -6t-6 -26v-104q0 -20 6 -26t25 -6h213q21 0 29.5 8t8.5 30v49h138v-224h-138v91q-9 -13 -35 -13h-308q-77 0 -77 78v128q0 77 69 80q-12 9 -12 35v145q0 77 78 77h345q77 0 77 -77v-145q0 -26 -12 -35h475q20 0 26 6
t6 26v135q0 19 -6 25.5t-26 6.5h-345v59h978z" />
    <glyph glyph-name="uni0915094D0937094D0935" horiz-adv-x="1503" 
d="M502 393v137q0 20 -6 26t-26 6h-169q-20 0 -26.5 -6.5t-6.5 -25.5v-137q0 -19 6.5 -25t26.5 -6h169q20 0 26 6t6 25zM1523 622v-59h-136v-563h-137v87q-10 -9 -32 -9h-309q-78 0 -78 78v147h-584q-19 0 -25 -6t-6 -26v-102q0 -20 6 -26t25 -6h213q21 0 29.5 8t8.5 30v49
h138v-224h-138v91q-9 -13 -35 -13h-308q-77 0 -77 78v126q0 77 69 80q-12 9 -12 35v147q0 77 78 77h345q77 0 77 -77v-147q0 -26 -12 -35h208v45q0 78 78 78h291v-59h-199q-19 0 -25.5 -6t-6.5 -26v-225q0 -19 6.5 -25.5t25.5 -6.5h215q20 0 27 7.5t7 26.5v392h-493v59h766z
" />
    <glyph glyph-name="uni091C094D091E" horiz-adv-x="1074" 
d="M1094 622v-59h-136v-563h-138v426h-550q-20 0 -26 -6t-6 -26v-40q0 -20 6 -26t26 -6h284q78 0 78 -77v-89q0 -78 -78 -78h-325v-78h-142v195h142v-58h233q20 0 26 6.5t6 25.5v62q0 19 -6 25.5t-26 6.5h-284q-78 0 -78 78v66q0 78 78 78h642v78h-840v59h1114z" />
    <glyph glyph-name="uni091C094D091E094D" horiz-adv-x="713" 
d="M836 622v-59h-856v59h856zM883 426h-613q-20 0 -26 -6t-6 -26v-40q0 -20 6 -26t26 -6h284q78 0 78 -77v-89q0 -78 -78 -78h-325v-78h-142v195h142v-58h233q20 0 26 6.5t6 25.5v62q0 19 -6 25.5t-26 6.5h-284q-78 0 -78 78v66q0 78 78 78h705v-59z" />
    <glyph glyph-name="uni091C094D091E094D092F" horiz-adv-x="1697" 
d="M270 322h284q78 0 78 -77v-89q0 -78 -78 -78h-325v-78h-142v195h142v-58h233q20 0 26 6.5t6 25.5v62q0 19 -6 25.5t-26 6.5h-284q-78 0 -78 78v66q0 78 78 78h642v-59h-550q-20 0 -26 -6t-6 -26v-40q0 -20 6 -26t26 -6zM1461 175v388h-201q12 -7 12 -31v-145
q0 -78 -78 -78h-239v-140q0 -19 6.5 -25.5t25.5 -6.5h435q22 0 30.5 8t8.5 30zM1735 622v-59h-137v-563h-137v91q-9 -13 -35 -13h-531q-78 0 -78 78v212h285q19 0 25.5 6.5t6.5 25.5v131q0 19 -6 25.5t-26 6.5h-1122v59h1755z" />
    <glyph glyph-name="uni0915094D0928" horiz-adv-x="1791" 
d="M1537 485v78h-926v-87q11 9 32 9h894zM1213 169v257h-236q-19 0 -25.5 -6t-6.5 -26v-225q0 -19 6.5 -25.5t25.5 -6.5h205q19 0 25 6t6 26zM1812 622v-59h-137v-563h-138v426h-190v-270q0 -78 -77 -78h-382q-77 0 -77 78v251q0 13 1 19h-167q-19 0 -26.5 -7t-7.5 -27v-392
h-137v87q-10 -9 -32 -9h-280q-77 0 -77 78v251q0 78 77 78h262v-59h-170q-19 0 -25 -6t-6 -26v-225q0 -20 6 -26t25 -6h186q20 0 27 7.5t7 26.5v392h-494v59h1832z" />
    <glyph glyph-name="uni0916094D0928" horiz-adv-x="2113" 
d="M1535 169v257h-237q-20 0 -26 -6t-6 -26v-225q0 -19 6 -25.5t26 -6.5h205q19 0 25.5 6.5t6.5 25.5zM2133 622v-59h-136v-563h-138v426h-190v-270q0 -78 -78 -78h-381q-61 0 -74 47q-15 -5 -34 -5h-319q-77 0 -77 78v180q0 77 77 77h288v-59h-208q-19 0 -25.5 -6t-6.5 -26
v-154q0 -19 6.5 -25.5t25.5 -6.5h235q19 0 26.5 8t7.5 26v195q0 78 78 78h649v78h-1282v-252q0 -77 -78 -77h-262v-143q0 -19 6.5 -25.5t26.5 -6.5h387v-59h-481q-77 0 -77 78v385h138v-170h172q19 0 25.5 6.5t6.5 25.5v238h-461v59h2153z" />
    <glyph glyph-name="uni0917094D0928" horiz-adv-x="1790" 
d="M1212 169v257h-236q-20 0 -26 -6t-6 -26v-225q0 -19 6 -25.5t26 -6.5h205q19 0 25 6t6 26zM235 137h250q19 0 25.5 6.5t6.5 25.5v198h-282q-19 0 -25.5 -6.5t-6.5 -25.5v-166q0 -19 6.5 -25.5t25.5 -6.5zM1811 622v-59h-137v-563h-138v426h-190v-270q0 -78 -77 -78h-382
q-77 0 -77 78v251q0 78 77 78h649v78h-882v-407q0 -78 -77 -78h-425q-77 0 -77 78v192q0 78 77 78h365v137h-537v59h1831z" />
    <glyph glyph-name="uni0918094D0928" horiz-adv-x="1610" 
d="M1355 485v78h-1085q-20 0 -26 -6.5t-6 -25.5v-121q0 -20 6 -26t26 -6h180v-59h-180q-20 0 -26 -6.5t-6 -25.5v-118q0 -19 6 -25.5t26 -6.5h324q19 0 26.5 7.5t7.5 25.5h1v237q0 78 77 78h649zM1031 169v257h-236q-19 0 -25.5 -6t-6.5 -26v-225q0 -19 6.5 -25.5t25.5 -6.5
h205q19 0 25 6t6 26zM1630 622v-59h-137v-563h-138v426h-190v-270q0 -78 -77 -78h-382q-36 0 -55 16q-16 -16 -53 -16h-420q-78 0 -78 78v134q0 53 50 56v4q-50 2 -50 55v127q0 23 11 31h-131v59h1650z" />
    <glyph glyph-name="uni091A094D0928" horiz-adv-x="1570" 
d="M992 169v257h-237q-19 0 -25.5 -6t-6.5 -26v-225q0 -19 6.5 -25.5t25.5 -6.5h205q20 0 26 6.5t6 25.5zM1590 622v-59h-136v-563h-138v426h-191v-270q0 -78 -77 -78h-381q-36 0 -55 16q-16 -16 -53 -16h-370q-78 0 -78 78v239q0 23 12 31h-96v59h393v-59h-141
q-18 -1 -24 -7t-6 -25v-225q0 -19 6.5 -25.5t25.5 -6.5h274q19 0 26.5 7.5t7.5 25.5v237q0 78 78 78h649v78h-1336v59h1610z" />
    <glyph glyph-name="uni091B094D0928" horiz-adv-x="1056" 
d="M657 485v78h-385q-19 0 -25 -6t-6 -26v-154q0 -20 6 -26t25 -6h138v-59h-138q-19 0 -25 -6t-6 -26v-144q0 -19 6 -25.5t25 -6.5h529q19 0 26 6.5t7 25.5v284q0 19 -6.5 25.5t-26.5 6.5h-187q-20 0 -26 -6t-6 -26v-111q0 -19 6.5 -25.5t25.5 -6.5h97v-59h-177
q-78 0 -78 78v137q0 78 78 78h123zM1076 563h-291v-78h93q78 0 78 -78v-310q0 -78 -78 -78h-107v-268h-131v130h-245q-20 0 -26.5 -6t-6.5 -25v-48h-137v61q0 77 78 77h337v79h-460q-77 0 -77 78v159q0 54 50 55v5q-50 1 -50 56v160q0 23 11 31h-134v59h1096v-59z" />
    <glyph glyph-name="uni091C094D0928" horiz-adv-x="1779" 
d="M1201 169v257h-236q-19 0 -25.5 -6t-6.5 -26v-225q0 -19 6.5 -25.5t25.5 -6.5h205q19 0 25 6t6 26zM1800 622v-59h-137v-563h-138v426h-190v-270q0 -78 -77 -78h-382q-77 0 -77 78v251q0 13 1 19h-169v-270q0 -78 -78 -78h-376q-78 0 -78 78v329h134v-316
q0 -19 6.5 -25.5t25.5 -6.5h199q20 0 26 6.5t6 25.5v316h1029v78h-1545v59h1820z" />
    <glyph glyph-name="uni091D094D0928" horiz-adv-x="1817" 
d="M1563 485v78h-908v-137h-392q-19 0 -25.5 -6t-6.5 -26v-31q0 -19 6.5 -25.5t25.5 -6.5h574v76q0 78 77 78h649zM1239 169v257h-236q-19 0 -25.5 -6t-6.5 -26v-225q0 -19 6.5 -25.5t25.5 -6.5h205q19 0 25 6t6 26zM1838 622v-59h-137v-563h-138v426h-190v-270
q0 -78 -77 -78h-382q-77 0 -77 78v116h-180q1 -6 1 -19v-97q0 -78 -77 -78h-352v-78h-141v190h141v-53h259q20 0 26.5 6.5t6.5 25.5v70q0 19 -6.5 26t-26.5 7h-317q-78 0 -78 77v58q0 78 78 78h347v78h-538v59h1858z" />
    <glyph glyph-name="uni091F094D0928" horiz-adv-x="764" 
d="M638 426h-368q-20 0 -26 -6t-6 -26v-292q0 -19 6.5 -25t25.5 -6h228q19 0 25.5 6t6.5 25v152h138v-165q0 -77 -78 -77v-261h-125v121h-200q-20 0 -26.5 -6t-6.5 -25v-46h-131v59q0 77 77 77h287v81h-287q-78 0 -78 77v318q0 78 78 78h323v78h-521v59h804v-59h-146v-137z
" />
    <glyph glyph-name="uni0920094D0928" horiz-adv-x="785" 
d="M550 102v292q0 19 -6.5 25.5t-26.5 6.5h-249q-20 0 -26 -6t-6 -26v-292q0 -19 6.5 -25t25.5 -6h249q20 0 26.5 6t6.5 25zM805 563h-344v-78h147q77 0 77 -78v-318q0 -77 -77 -77h-18v-261h-125v121h-200q-20 0 -26.5 -6t-6.5 -25v-46h-131v59q0 77 78 77h286v81h-287
q-78 0 -78 77v318q0 78 78 78h145v78h-343v59h825v-59z" />
    <glyph glyph-name="uni0921094D0928" horiz-adv-x="745" 
d="M626 426h-360q-20 0 -26.5 -6.5t-6.5 -25.5v-51q0 -19 6.5 -25.5t26.5 -6.5h311q78 0 78 -78v-144q0 -72 -65 -76v-262h-126v121h-200q-19 0 -25.5 -6t-6.5 -25v-46h-132v59q0 77 78 77h286v81h-288q-77 0 -77 77v83h137v-70q0 -19 6.5 -25t26.5 -6h216q20 0 26 6t6 25
v117q0 20 -6.5 26.5t-25.5 6.5h-312q-77 0 -77 77v78q0 78 77 78h315v78h-508v59h786v-59h-140v-137z" />
    <glyph glyph-name="uni0924094D0928" horiz-adv-x="1498" 
d="M920 169v257h-236q-20 0 -26 -6t-6 -26v-225q0 -19 6 -25.5t26 -6.5h205q19 0 25 6t6 26zM1519 622v-59h-137v-563h-138v426h-190v-270q0 -78 -77 -78h-382q-77 0 -77 78v251q0 13 1 19h-250q-19 0 -25.5 -6t-6.5 -26v-303q0 -19 6.5 -25.5t25.5 -6.5h116v-59h-208
q-78 0 -78 78v329q0 78 78 78h1067v78h-1264v59h1539z" />
    <glyph glyph-name="uni0925094D0928" horiz-adv-x="1751" 
d="M1173 169v257h-237q-19 0 -25 -6t-6 -26v-225q0 -20 6 -26t25 -6h205q19 0 25.5 6.5t6.5 25.5zM1771 622v-59h-136v-563h-138v426h-190v-270q0 -78 -78 -78h-381q-37 0 -56 16q-15 -16 -53 -16h-562q-78 0 -78 78v205h350q20 0 26.5 6t6.5 25v139q0 19 -6.5 25.5
t-26.5 6.5h-179q-20 0 -26 -6.5t-6 -25.5v-91h-136v104q0 78 78 78h360q77 0 77 -78v-165q0 -77 -77 -77h-303v-133q0 -19 6.5 -25.5t25.5 -6.5h466q19 0 26.5 7.5t7.5 25.5h1v237q0 78 78 78h649v78h-796v59h1070z" />
    <glyph glyph-name="uni0926094D0928" horiz-adv-x="746" 
d="M766 622v-59h-133v-137h-379q-19 0 -25 -6t-6 -26v-205q0 -19 6 -25.5t25 -6.5h219q19 0 26.5 7.5t7.5 26.5v69h126v-401h-126v102h-198q-20 0 -26.5 -6.5t-6.5 -25.5v-48h-132v62q0 77 78 77h285v87q-11 -9 -32 -9h-313q-77 0 -77 78v231q0 78 77 78h334v78h-516v59h786
z" />
    <glyph glyph-name="uni0927094D0928" horiz-adv-x="1739" 
d="M1161 169v257h-236q-19 0 -25.5 -6t-6.5 -26v-225q0 -19 6.5 -25.5t25.5 -6.5h204q19 0 25.5 6.5t6.5 25.5zM1759 622v-59h-136v-563h-138v426h-190v-270q0 -78 -77 -78h-382q-36 0 -55 16q-16 -16 -53 -16h-553q-78 0 -78 78v113q0 53 50 55v5q-50 2 -50 56v159
q0 78 78 78h353q77 0 77 -78v-118h-118v105q0 19 -6.5 25.5t-25.5 6.5h-188q-19 0 -25.5 -6.5t-6.5 -25.5v-140q0 -19 6.5 -25.5t25.5 -6.5h142v-59h-142q-19 0 -25.5 -6t-6.5 -26v-99q0 -19 6.5 -25.5t25.5 -6.5h457q19 0 26.5 7.5t7.5 25.5v237q0 78 78 78h649v78h-791v59
h1065z" />
    <glyph glyph-name="uni0928094D0928" horiz-adv-x="1763" 
d="M1184 169v257h-236q-20 0 -26 -6t-6 -26v-225q0 -19 6 -25.5t26 -6.5h205q19 0 25 6t6 26zM477 169v257h-236q-19 0 -25.5 -6t-6.5 -26v-225q0 -19 6.5 -25.5t25.5 -6.5h205q19 0 25 6t6 26zM1783 622v-59h-137v-563h-138v426h-190v-270q0 -78 -77 -78h-382q-77 0 -77 78
v251q0 13 1 19h-172v-270q0 -78 -77 -78h-382q-77 0 -77 78v251q0 78 77 78h1356v78h-1528v59h1803z" />
    <glyph glyph-name="uni092A094D0928" horiz-adv-x="1489" 
d="M1234 485v78h-1000v-394q0 -19 6 -25.5t26 -6.5h208q19 0 26.5 7.5t7.5 25.5v237q0 78 77 78h649zM910 169v257h-236q-20 0 -26 -6t-6 -26v-225q0 -19 6 -25.5t26 -6.5h205q19 0 25 6t6 26zM1509 622v-59h-137v-563h-138v426h-190v-270q0 -78 -77 -78h-382q-36 0 -55 16
q-15 -16 -52 -16h-300q-78 0 -78 78v407h-120v59h1529z" />
    <glyph glyph-name="uni092B094D0928" horiz-adv-x="1812" 
d="M1558 485v78h-912v-87q10 9 32 9h880zM1234 169v257h-236q-20 0 -26 -6t-6 -26v-225q0 -19 6 -25.5t26 -6.5h205q19 0 25 6t6 26zM266 137h209q19 0 26.5 7.5t7.5 26.5v392h-275v-394q0 -19 6 -25.5t26 -6.5zM1833 622v-59h-137v-563h-138v426h-190v-270q0 -78 -77 -78
h-382q-77 0 -77 78v251q0 13 1 19h-153q-20 0 -27 -7t-7 -27v-392h-137v87q-11 -9 -32 -9h-299q-78 0 -78 78v407h-120v59h1853z" />
    <glyph glyph-name="uni092C094D0928" horiz-adv-x="1561" 
d="M983 169v257h-236q-19 0 -25.5 -6t-6.5 -26v-225q0 -19 6.5 -25.5t25.5 -6.5h205q19 0 25 6t6 26zM252 137h294q16 0 25 6l-355 242q4 -58 4 -106v-110q0 -19 6.5 -25.5t25.5 -6.5zM1582 622v-59h-137v-563h-138v426h-190v-270q0 -78 -77 -78h-382q-36 0 -55 16
q-16 -16 -53 -16h-388q-77 0 -77 78v251q0 78 77 78h367v-59h-285l337 -232v213q0 78 77 78h649v78h-1327v59h1602z" />
    <glyph glyph-name="uni092D094D0928" horiz-adv-x="1798" 
d="M1220 169v257h-236q-20 0 -26 -6t-6 -26v-225q0 -19 6 -25.5t26 -6.5h205q19 0 25 6t6 26zM498 168v143h-238q-19 0 -25 -6t-6 -25v-112q0 -19 6 -25.5t25 -6.5h206q19 0 25.5 6.5t6.5 25.5zM1819 622v-59h-137v-563h-138v426h-190v-270q0 -78 -77 -78h-382q-77 0 -77 78
v155h-182v-155q0 -78 -78 -78h-382q-78 0 -78 78v137q0 77 78 77h322v161q0 19 -6 25.5t-26 6.5h-195q-19 0 -25.5 -6.5t-6.5 -25.5v-86h-138v99q0 78 78 78h379q78 0 78 -78v-174h182v37q0 78 77 78h649v78h-821v59h1096z" />
    <glyph glyph-name="uni092E094D0928" horiz-adv-x="1796" 
d="M1541 485v78h-904v-78h904zM1217 169v257h-236q-19 0 -25.5 -6t-6.5 -26v-225q0 -19 6.5 -25.5t25.5 -6.5h205q19 0 25 6t6 26zM499 169v257h-237q-20 0 -26 -6t-6 -26v-225q0 -19 6 -25.5t26 -6.5h205q19 0 25.5 6.5t6.5 25.5zM1816 622v-59h-137v-563h-138v426h-190
v-270q0 -78 -77 -78h-382q-77 0 -77 78v251q0 13 1 19h-179v-270q0 -78 -78 -78h-382q-78 0 -78 78v251q0 78 78 78h322v78h-519v59h1836z" />
    <glyph glyph-name="uni092F094D0928" horiz-adv-x="1674" 
d="M1420 485v78h-903q12 -7 12 -31v-145q0 -78 -78 -78h-246v-140q0 -19 6.5 -25.5t25.5 -6.5h422q19 0 26.5 7.5t7.5 25.5v237q0 78 78 78h649zM1096 169v257h-237q-19 0 -25.5 -6t-6.5 -26v-225q0 -19 6.5 -25.5t25.5 -6.5h205q20 0 26 6.5t6 25.5zM1694 622v-59h-136
v-563h-138v426h-191v-270q0 -78 -77 -78h-381q-36 0 -55 16q-16 -16 -53 -16h-518q-78 0 -78 78v212h292q19 0 25.5 6.5t6.5 25.5v131q0 19 -6.5 25.5t-25.5 6.5h-379v59h1714z" />
    <glyph glyph-name="uni0935094D0928" horiz-adv-x="1492" 
d="M914 169v257h-236q-20 0 -26 -6t-6 -26v-225q0 -19 6 -25.5t26 -6.5h205q19 0 25 6t6 26zM1513 622v-59h-137v-563h-138v426h-190v-270q0 -78 -77 -78h-382q-36 0 -55 16q-16 -16 -53 -16h-311q-78 0 -78 78v251q0 78 78 78h291v-59h-199q-20 0 -26 -6t-6 -26v-225
q0 -19 6 -25.5t26 -6.5h215q19 0 26.5 7.5t7.5 25.5h1v237q0 78 77 78h649v78h-1258v59h1533z" />
    <glyph glyph-name="uni0936094D0928" horiz-adv-x="1807" 
d="M194 622h381q77 0 77 -78v-201q0 -78 -77 -78h-323v-174q0 -19 6 -25.5t26 -6.5h196q20 0 26 6.5t6 25.5v106h138v-119q0 -78 -78 -78h-380q-78 0 -78 78v295h138v-49h230q20 0 26.5 6.5t6.5 25.5v175q0 19 -6.5 25.5t-26.5 6.5h-197q-19 0 -25.5 -6.5t-6.5 -25.5v-83
h-137v96q0 78 78 78zM1229 169v257h-237q-19 0 -25 -6t-6 -26v-225q0 -20 6 -26t25 -6h205q19 0 25.5 6.5t6.5 25.5zM1827 622v-59h-136v-563h-138v426h-190v-270q0 -78 -77 -78h-382q-78 0 -78 78v251q0 78 78 78h649v78h-793v59h1067z" />
    <glyph glyph-name="uni0938094D0928" horiz-adv-x="1815" 
d="M1561 485v78h-933q12 -7 12 -31v-174q0 -13 -1 -19h196v68q0 78 77 78h649zM1237 169v257h-236q-19 0 -25.5 -6t-6.5 -26v-225q0 -19 6.5 -25.5t25.5 -6.5h205q19 0 25 6t6 26zM1836 622v-59h-137v-563h-138v426h-190v-270q0 -78 -77 -78h-382q-77 0 -77 78v124h-597
v-189q0 -19 6 -25.5t26 -6.5h200q19 0 25 6t6 26v123h138v-136q0 -78 -77 -78h-384q-78 0 -78 78v398h138v-137h233q19 0 25 6t6 26v160q0 20 -6 26t-25 6h-491v59h1856z" />
    <glyph glyph-name="uni0939094D0928" horiz-adv-x="789" 
d="M653 426h-378q-19 0 -25 -6t-6 -26v-28q0 -20 6 -26t25 -6h332q84 0 84 -81v-201h-112v91h-97q-19 0 -26 -6.5t-7 -25.5v-43h-112v56q0 78 78 78h164v41q0 19 -6.5 25.5t-25.5 6.5h-272q-19 0 -25 -6t-6 -26v-221q0 -20 6 -26t25 -6h391v-59h-483q-77 0 -77 78v233
q0 54 50 56v5q-50 0 -50 55v49q0 78 77 78h333v78h-536v59h829v-59h-156v-137z" />
    <glyph glyph-name="uni0915094D0930" horiz-adv-x="1086" 
d="M1106 563h-494v-87q10 9 32 9h279q78 0 78 -78v-246q0 -77 -78 -77h-261v59h169q19 0 25.5 6t6.5 25v220q0 20 -6.5 26t-25.5 6h-185q-20 0 -27 -7t-7 -27v-392h-137v93l-113 -165h-144l115 156h-170q-78 0 -78 77v246q0 78 78 78h262v-59h-170q-19 0 -25.5 -6t-6.5 -26
v-220q0 -19 6.5 -25t25.5 -6h186q19 0 26.5 7.5t7.5 26.5v386h-495v59h1126v-59z" />
    <glyph glyph-name="uni0916094D0930" horiz-adv-x="1369" 
d="M1389 622v-59h-137v-563h-136v139l-148 -199h-143l140 182h-190q-69 0 -69 78v180q0 78 77 78h284v-59h-204q-19 0 -25.5 -6.5t-6.5 -25.5v-154q0 -19 6.5 -25.5t25.5 -6.5h215q21 0 29.5 8.5t8.5 29.5v344h-539v-249q0 -77 -78 -77h-262v-146q0 -19 6.5 -25.5t26.5 -6.5
h359v-59h-453q-77 0 -77 78v385h138v-167h172q19 0 25.5 6t6.5 25v236h-461v59h1409z" />
    <glyph glyph-name="uni0917094D0930" horiz-adv-x="1093" 
d="M232 154h250q19 0 25 6t6 26v198h-281q-19 0 -25.5 -6.5t-6.5 -25.5v-166q0 -20 6 -26t26 -6zM1113 622v-59h-136v-605h-129v37l5 105l-175 -175h-163l329 299v339h-197v-390q0 -78 -77 -78h-418q-77 0 -77 78v192q0 78 77 78h361v120h-533v59h1133z" />
    <glyph glyph-name="uni0918094D0930" horiz-adv-x="890" 
d="M636 185v378h-364q-20 0 -26 -6.5t-6 -25.5v-121q0 -20 6 -26t26 -6h180v-59h-180q-20 0 -26 -6.5t-6 -25.5v-105q0 -19 6.5 -25t25.5 -6h330q20 0 27 7.5t7 26.5zM910 622v-59h-136v-563h-138v103l-165 -167h-154l159 156h-297q-77 0 -77 77v121q0 54 50 55v4
q-50 3 -50 56v127q0 24 11 31h-133v59h930z" />
    <glyph glyph-name="uni0919094D0930" horiz-adv-x="854" 
d="M694 305v91h101v-91h-101zM-20 622h894v-59h-261v-137h-351q-20 0 -26.5 -6.5t-6.5 -25.5v-56q0 -19 6.5 -25.5t26.5 -6.5h297q78 0 78 -78v-145q0 -77 -78 -77h-74l90 -164h-134l-68 143l-69 -143h-133l91 164h-90q-77 0 -77 77v81h137v-68q0 -19 6.5 -25t26.5 -6h202
q20 0 26 6t6 25v119q0 19 -6.5 25.5t-25.5 6.5h-298q-77 0 -77 78v82q0 78 77 78h307v78h-496v59z" />
    <glyph glyph-name="uni091A094D0930" horiz-adv-x="844" 
d="M864 622v-59h-136v-563h-137v103l-163 -167h-156l157 156h-240q-78 0 -78 77v226q0 23 12 31h-96v59h393v-59h-141q-18 -1 -24 -7t-6 -25v-212q0 -19 6.5 -25t25.5 -6h276q19 0 26.5 7.5t7.5 26.5v378h-611v59h884z" />
    <glyph glyph-name="uni091B094D0930" horiz-adv-x="1055" 
d="M643 485v78h-371q-19 0 -25 -6t-6 -26v-160q0 -20 6 -26t25 -6h138v-59h-138q-19 0 -25 -6t-6 -26v-152q0 -19 6 -25t25 -6h529q20 0 26.5 6t6.5 25v298q0 19 -6.5 25.5t-26.5 6.5h-187q-20 0 -26 -6t-6 -26v-128q0 -19 6.5 -25t25.5 -6h97v-59h-177q-78 0 -78 78v153
q0 78 78 78h109zM1075 563h-305v-78h108q78 0 78 -78v-324q0 -77 -78 -77h-223l93 -164h-134l-71 143l-74 -143h-134l97 164h-252q-77 0 -77 77v167q0 53 50 56v4q-50 1 -50 56v166q0 23 11 31h-134v59h1095v-59z" />
    <glyph glyph-name="uni091C094D0930" horiz-adv-x="1071" 
d="M1091 622v-59h-136v-605h-130v24l6 105l-173 -162h-166l330 280v221h-193v-253q0 -78 -78 -78h-374q-78 0 -78 78v312h134v-299q0 -20 6 -26t25 -6h199q19 0 25.5 6t6.5 26v299h327v78h-842v59h1111z" />
    <glyph glyph-name="uni091D094D0930" horiz-adv-x="1119" 
d="M870 331v232h-214v-137h-392q-20 0 -26 -6t-6 -26v-31q0 -19 6 -25.5t26 -6.5h606zM1139 622v-59h-136v-605h-129v24l5 82l-147 -139h-166l304 257v90h-216q1 -6 1 -19v-97q0 -78 -77 -78h-348v-78h-141v190h141v-53h256q20 0 26 6.5t6 25.5v70q0 20 -6.5 26.5t-25.5 6.5
h-314q-78 0 -78 77v58q0 78 78 78h346v78h-538v59h1159z" />
    <glyph glyph-name="uni091E094D0930" horiz-adv-x="1044" 
d="M1064 622v-59h-136v-605h-130v24l6 105l-173 -162h-166l330 280v64h-192v-96q0 -78 -77 -78h-396q-78 0 -78 78v113h138v-100q0 -20 6 -26t26 -6h212q20 0 26 6t6 26v208q0 20 -6 26t-26 6h-204v59h296q77 0 77 -78v-79h192v235h-815v59h1084z" />
    <glyph glyph-name="uni091F094D0930" horiz-adv-x="750" 
d="M624 426h-354q-20 0 -26 -6t-6 -26v-298q0 -19 6.5 -25t25.5 -6h214q19 0 25.5 6t6.5 25v154h138v-167q0 -77 -78 -77h-85l90 -164h-134l-68 143l-69 -143h-133l91 164h-90q-78 0 -78 77v324q0 78 78 78h309v78h-507v59h790v-59h-146v-137z" />
    <glyph glyph-name="uni0920094D0930" horiz-adv-x="774" 
d="M540 96v298q0 20 -6 26t-26 6h-242q-20 0 -26 -6t-6 -26v-298q0 -19 6.5 -25t25.5 -6h242q19 0 25.5 6t6.5 25zM794 563h-339v-78h142q77 0 77 -78v-324q0 -77 -77 -77h-98l90 -164h-134l-67 143l-69 -143h-133l90 164h-98q-78 0 -78 77v324q0 78 78 78h139v78h-337v59
h814v-59z" />
    <glyph glyph-name="uni0921094D0930" horiz-adv-x="732" 
d="M617 426h-351q-20 0 -26.5 -6.5t-6.5 -25.5v-51q0 -19 6.5 -25.5t26.5 -6.5h297q78 0 78 -78v-150q0 -77 -78 -77h-81l88 -164h-134l-65 143l-69 -143h-133l90 164h-83q-77 0 -77 77v91h137v-78q0 -19 6.5 -25t26.5 -6h202q20 0 26 6t6 25v123q0 20 -6.5 26.5t-25.5 6.5
h-298q-77 0 -77 77v78q0 78 77 78h307v78h-500v59h774v-59h-137v-137z" />
    <glyph glyph-name="uni0922094D0930" horiz-adv-x="776" 
d="M626 426h-356q-20 0 -26 -6t-6 -26v-298q0 -19 6.5 -25t25.5 -6h246q19 0 25.5 6t6.5 25v106q0 20 -6 26t-26 6h-138v59h222q77 0 77 -78v-132q0 -77 -77 -77h-93l90 -164h-134l-68 143l-69 -143h-133l91 164h-106q-78 0 -78 77v324q0 78 78 78h310v78h-508v59h816v-59
h-170v-137z" />
    <glyph glyph-name="uni0923094D0930" horiz-adv-x="1091" 
d="M498 186v377h-267v-377q0 -20 6.5 -26t25.5 -6h202q20 0 26.5 6.5t6.5 25.5zM1111 622v-59h-136v-605h-129v24l5 105l-172 -162h-166l330 280v358h-215v-390q0 -78 -77 -78h-373q-78 0 -78 78v390h-120v59h1131z" />
    <glyph glyph-name="uni0924094D0930" horiz-adv-x="770" 
d="M790 622v-59h-137v-563h-136v213h-62l-229 -213h-169l270 247l-131 128q-52 49 -133 49h-22v61h92q62 0 101 -12t79 -50l142 -141h62v281h-537v59h810z" />
    <glyph glyph-name="uni0925094D0930" horiz-adv-x="1058" 
d="M1078 622v-59h-136v-563h-137v103l-174 -167h-171l171 156h-454q-78 0 -78 77v196h357q20 0 26.5 6t6.5 25v135q0 19 -6.5 25.5t-26.5 6.5h-186q-20 0 -26 -6.5t-6 -25.5v-90h-136v103q0 78 78 78h367q78 0 78 -78v-161q0 -77 -78 -77h-310v-124q0 -19 6.5 -25t25.5 -6
h502q19 0 26.5 7.5t7.5 26.5v437h273z" />
    <glyph glyph-name="uni0926094D0930" horiz-adv-x="750" 
d="M626 426h-371q-19 0 -25.5 -6t-6.5 -26v-212q0 -19 6.5 -25t25.5 -6h209q20 0 27 7.5t7 26.5v81h138v-266h-138v103l-113 -167h-148l115 156h-189q-78 0 -78 77v238q0 78 78 78h326v78h-509v59h790v-59h-144v-137z" />
    <glyph glyph-name="uni0927094D0930" horiz-adv-x="1025" 
d="M1045 622v-59h-136v-563h-137v102l-177 -166h-174l174 156h-420q-78 0 -78 77v112q0 53 50 55v5q-50 2 -50 56v147q0 78 78 78h353q77 0 77 -78v-112h-118v99q0 19 -6.5 25.5t-25.5 6.5h-188q-19 0 -25.5 -6.5t-6.5 -25.5v-128q0 -20 6.5 -26.5t25.5 -6.5h142v-59h-142
q-19 0 -25.5 -6.5t-6.5 -25.5v-97q0 -19 6.5 -25t25.5 -6h471q20 0 27 7.5t7 26.5v437h273z" />
    <glyph glyph-name="uni0928094D0930" horiz-adv-x="1054" 
d="M477 186v240h-236q-19 0 -25.5 -6t-6.5 -26v-208q0 -20 6.5 -26t25.5 -6h205q19 0 25 6t6 26zM1074 622v-59h-137v-605h-129v24l5 105l-173 -162h-166l330 280v221h-193v-253q0 -78 -77 -78h-382q-77 0 -77 78v234q0 78 77 78h652v78h-824v59h1094z" />
    <glyph glyph-name="uni092A094D0930" horiz-adv-x="765" 
d="M511 208v355h-275v-357q0 -20 6 -26t26 -6h209q19 0 26.5 7t7.5 27zM785 622v-59h-137v-563h-137v126l-144 -190h-148l144 179h-183q-78 0 -78 78v370h-122v59h805z" />
    <glyph glyph-name="uni092B094D0930" horiz-adv-x="1126" 
d="M511 208v355h-275v-357q0 -20 6 -26t26 -6h209q19 0 26.5 7t7.5 27zM1147 563h-499v-87q10 9 32 9h284q78 0 78 -78v-251q0 -78 -78 -78h-268v59h176q20 0 26 6.5t6 25.5v225q0 20 -6 26t-26 6h-190q-20 0 -27 -7t-7 -27v-392h-137v126l-144 -190h-148l144 179h-183
q-78 0 -78 78v370h-122v59h1167v-59z" />
    <glyph glyph-name="uni092C094D0930" horiz-adv-x="826" 
d="M252 147h297l-333 243q4 -58 4 -106v-106q0 -18 6.5 -24.5t25.5 -6.5zM846 622v-59h-136v-563h-138v99l-134 -165h-142l137 154h-271q-77 0 -77 78v241q0 78 77 78h367v-59h-280l332 -241q-9 49 -9 143v235h-592v59h866z" />
    <glyph glyph-name="uni092D094D0930" horiz-adv-x="1079" 
d="M496 185v141h-237q-19 0 -25.5 -6t-6.5 -26v-109q0 -19 6.5 -25.5t25.5 -6.5h206q19 0 25 6.5t6 25.5zM1099 622v-59h-136v-605h-129v24l5 105l-174 -162h-165l329 280v121h-197v-153q0 -78 -78 -78h-379q-78 0 -78 78v135q0 77 78 77h321v146q0 20 -6 26t-25 6h-195
q-20 0 -26 -6.5t-6 -25.5v-74h-138v87q0 78 78 78h376q78 0 78 -78v-159h197v237h270z" />
    <glyph glyph-name="uni092E094D0930" horiz-adv-x="1085" 
d="M836 485v78h-201v-78h201zM497 186v240h-237q-19 0 -25 -6t-6 -26v-208q0 -20 6 -26t25 -6h205q19 0 25.5 6t6.5 26zM1105 622v-59h-136v-605h-129v24l5 105l-173 -162h-166l330 280v221h-201v-253q0 -78 -78 -78h-382q-77 0 -77 78v234q0 78 77 78h322v78h-517v59h1125z
" />
    <glyph glyph-name="uni092F094D0930" horiz-adv-x="986" 
d="M718 188v375h-201q12 -7 12 -31v-145q0 -78 -78 -78h-246v-127q0 -19 6.5 -25t25.5 -6h442q22 0 30.5 8t8.5 29zM1006 622v-59h-150v-563h-138v105l-170 -169h-166l167 156h-404q-78 0 -78 77v199h292q19 0 25.5 6.5t6.5 25.5v131q0 19 -6.5 25.5t-25.5 6.5h-379v59h1026
z" />
    <glyph glyph-name="uni0935094D0930" horiz-adv-x="765" 
d="M785 622v-59h-136v-563h-137v103l-128 -167h-146l125 156h-192q-78 0 -78 77v238q0 78 78 78h291v-59h-200q-19 0 -25 -6t-6 -26v-212q0 -19 6 -25t25 -6h216q20 0 27 7.5t7 26.5v378h-532v59h805z" />
    <glyph glyph-name="uni0936094D0930" horiz-adv-x="1074" 
d="M826 0v103q0 92 2 116l3 36q-4 -8 -109 -116l-130 -137h-158l291 291h-184l-223 -199h-160l223 199h-194q-78 0 -78 77v174q0 77 78 77h345q77 0 77 -77v-157q0 -28 -13 -35h230v211h-84v59h352v-59h-135v-563h-133zM478 530q0 20 -6 26t-26 6h-174q-20 0 -26 -6t-6 -26
v-147q0 -19 6.5 -25t26.5 -6h165l40 37v141z" />
    <glyph glyph-name="uni0938094D0930" horiz-adv-x="1121" 
d="M867 342v221h-237q12 -7 12 -31v-171q0 -13 -1 -19h226zM1142 622v-59h-137v-563h-138v114q0 78 7 138l2 17l-145 -153h-156l160 167h-497v-192q0 -19 6 -25.5t26 -6.5h291v-59h-383q-78 0 -78 78v398h138v-134h235q19 0 25 6t6 25v158q0 20 -6 26t-25 6h-493v59h1162z
" />
    <glyph glyph-name="uni0939094D0930" horiz-adv-x="793" 
d="M679 426h-404q-19 0 -25 -6t-6 -26v-35q0 -20 6 -26t25 -6h336q84 0 84 -81v-111h-132v101q0 19 -6 25l-98 -135h-94l106 142h-196q-19 0 -25 -6t-6 -26v-145q0 -20 6 -26t25 -6h409v-59h-501q-77 0 -77 78v157q0 54 50 56v4q-50 2 -50 56v56q0 78 77 78h358v78h-561v59
h833v-59h-134v-137z" />
    <glyph glyph-name="uni0915093C094D0930" horiz-adv-x="1086" 
d="M318 -243v108h137v-108h-137zM1106 563h-494v-87q10 9 32 9h279q78 0 78 -78v-246q0 -77 -78 -77h-261v59h169q19 0 25.5 6t6.5 25v220q0 20 -6.5 26t-25.5 6h-185q-20 0 -27 -7t-7 -27v-392h-137v93l-113 -165h-144l115 156h-170q-78 0 -78 77v246q0 78 78 78h262v-59
h-170q-19 0 -25.5 -6t-6.5 -26v-220q0 -19 6.5 -25t25.5 -6h186q19 0 26.5 7.5t7.5 26.5v386h-495v59h1126v-59z" />
    <glyph glyph-name="uni0916093C094D0930" horiz-adv-x="1339" 
d="M908 -243v108h137v-108h-137zM1389 622v-59h-137v-563h-136v139l-148 -199h-143l140 182h-190q-69 0 -69 78v180q0 78 77 78h284v-59h-204q-19 0 -25.5 -6.5t-6.5 -25.5v-154q0 -19 6.5 -25.5t25.5 -6.5h215q21 0 29.5 8.5t8.5 29.5v344h-539v-249q0 -77 -78 -77h-262
v-146q0 -19 6.5 -25.5t26.5 -6.5h359v-59h-453q-77 0 -77 78v385h138v-167h172q19 0 25.5 6t6.5 25v236h-461v59h1409z" />
    <glyph glyph-name="uni0917093C094D0930" horiz-adv-x="1047" 
d="M648 -260v108h137v-108h-137zM232 154h250q19 0 25 6t6 26v198h-281q-19 0 -25.5 -6.5t-6.5 -25.5v-166q0 -20 6 -26t26 -6zM1113 622v-59h-136v-605h-129v37l5 105l-175 -175h-163l329 299v339h-197v-390q0 -78 -77 -78h-418q-77 0 -77 78v192q0 78 77 78h361v120h-533
v59h1133z" />
    <glyph glyph-name="uni091C093C094D0930" horiz-adv-x="1062" 
d="M242 -120v108h137v-108h-137zM1091 622v-59h-136v-605h-130v24l6 105l-173 -162h-166l330 280v221h-193v-253q0 -78 -78 -78h-374q-78 0 -78 78v312h134v-299q0 -20 6 -26t25 -6h199q19 0 25.5 6t6.5 26v299h327v78h-842v59h1111z" />
    <glyph glyph-name="uni0921093C094D0930" horiz-adv-x="734" 
d="M301 -311v108h137v-108h-137zM617 426h-351q-20 0 -26.5 -6.5t-6.5 -25.5v-51q0 -19 6.5 -25.5t26.5 -6.5h297q78 0 78 -78v-150q0 -77 -78 -77h-89l92 -164h-134l-61 136l-66 -136h-132l95 164h-92q-77 0 -77 77v91h137v-78q0 -19 6.5 -25t26.5 -6h202q20 0 26 6t6 25
v123q0 20 -6.5 26.5t-25.5 6.5h-298q-77 0 -77 77v78q0 78 77 78h307v78h-500v59h774v-59h-137v-137z" />
    <glyph glyph-name="uni0922093C094D0930" horiz-adv-x="776" 
d="M324 -311v108h137v-108h-137zM626 426h-356q-20 0 -26 -6t-6 -26v-298q0 -19 6.5 -25t25.5 -6h246q19 0 25.5 6t6.5 25v106q0 20 -6 26t-26 6h-138v59h222q77 0 77 -78v-132q0 -77 -77 -77h-101l94 -164h-134l-64 136l-65 -136h-133l96 164h-115q-78 0 -78 77v324
q0 78 78 78h310v78h-508v59h816v-59h-170v-137z" />
    <glyph glyph-name="uni0928093C094D0930" horiz-adv-x="1054" 
d="M654 -253v108h137v-108h-137zM477 186v240h-236q-19 0 -25.5 -6t-6.5 -26v-208q0 -20 6.5 -26t25.5 -6h205q19 0 25 6t6 26zM1074 622v-59h-137v-605h-129v24l5 105l-173 -162h-166l330 280v221h-193v-253q0 -78 -77 -78h-382q-77 0 -77 78v234q0 78 77 78h652v78h-824
v59h1094z" />
    <glyph glyph-name="uni092B093C094D0930" horiz-adv-x="1126" 
d="M328 -243v108h137v-108h-137zM511 208v355h-275v-357q0 -20 6 -26t26 -6h209q19 0 26.5 7t7.5 27zM1147 563h-499v-87q10 9 32 9h284q78 0 78 -78v-251q0 -78 -78 -78h-268v59h176q20 0 26 6.5t6 25.5v225q0 20 -6 26t-26 6h-190q-20 0 -27 -7t-7 -27v-392h-137v126
l-144 -190h-148l144 179h-183q-78 0 -78 78v370h-122v59h1167v-59z" />
    <glyph glyph-name="uni092F093C094D0930" horiz-adv-x="986" 
d="M538 -243v108h137v-108h-137zM718 188v375h-201q12 -7 12 -31v-145q0 -78 -78 -78h-246v-127q0 -19 6.5 -25t25.5 -6h442q22 0 30.5 8t8.5 29zM1006 622v-59h-150v-563h-138v105l-170 -169h-166l167 156h-404q-78 0 -78 77v199h292q19 0 25.5 6.5t6.5 25.5v131
q0 19 -6.5 25.5t-25.5 6.5h-379v59h1026z" />
    <glyph glyph-name="uni0915094D0930094D" horiz-adv-x="741" 
d="M644 485h277v-59h-275q-20 0 -27 -7t-7 -27v-392h-137v93l-113 -165h-147l115 156h-167q-78 0 -78 77v246q0 78 78 78h262v-59h-170q-19 0 -25.5 -6t-6.5 -26v-220q0 -19 6.5 -25t25.5 -6h186q19 0 26.5 7.5t7.5 26.5v386h-495v59h781v-59h-149v-87q10 9 32 9z" />
    <glyph glyph-name="uni0916094D0930094D" horiz-adv-x="1004" 
d="M237 237v-146q0 -19 6.5 -25.5t26.5 -6.5h359v-59h-453q-77 0 -77 78v385h138v-167h172q19 0 25.5 6t6.5 25v236h-461v59h1044v-59h-447v-249q0 -77 -78 -77h-262zM863 181h282v-33h-29l-148 -208h-142l133 182h-185q-68 0 -68 78v180q0 78 77 78h284v-59h-204
q-19 0 -25.5 -6.5t-6.5 -25.5v-154q0 -19 6.5 -25.5t25.5 -6.5z" />
    <glyph glyph-name="uni0917094D0930094D" horiz-adv-x="731" 
d="M232 154h250q19 0 25 6t6 26v198h-281q-19 0 -25.5 -6.5t-6.5 -25.5v-166q0 -20 6 -26t26 -6zM647 563v-390q0 -78 -77 -78h-418q-77 0 -77 78v192q0 78 77 78h361v120h-533v59h770v-59h-103zM884 256l55 -77l-261 -254h-163z" />
    <glyph glyph-name="uni0918094D0930094D" horiz-adv-x="522" 
d="M102 405v127q0 24 11 31h-133v59h562v-59h-270q-20 0 -26 -6.5t-6 -25.5v-121q0 -20 6 -26t26 -6h180v-59h-180q-20 0 -26 -6.5t-6 -25.5v-105q0 -19 6.5 -25t25.5 -6h401v-45h-34l-168 -170h-157l159 156h-294q-77 0 -77 77v121q0 54 50 55v4q-50 3 -50 56z" />
    <glyph glyph-name="uni091A094D0930094D" horiz-adv-x="480" 
d="M-20 563v59h520v-59h-520zM27 426v59h393v-59h-141q-18 -1 -24 -7t-6 -25v-212q0 -19 6.5 -25t25.5 -6h356v-41h-39l-170 -174h-156l157 156h-240q-78 0 -78 77v226q0 23 12 31h-96z" />
    <glyph glyph-name="uni091C094D0930094D" horiz-adv-x="710" 
d="M729 622v-59h-749v59h749zM629 426v-253q0 -78 -78 -78h-374q-78 0 -78 78v312h134v-299q0 -20 6 -26t25 -6h199q19 0 25.5 6t6.5 26v299h428v-59h-294zM899 263l30 -92l-271 -246h-166z" />
    <glyph glyph-name="uni091D094D0930094D" horiz-adv-x="756" 
d="M655 253v-97q0 -78 -77 -78h-348v-78h-141v190h141v-53h256q20 0 26 6.5t6 25.5v70q0 20 -6.5 26.5t-25.5 6.5h-314q-78 0 -78 77v58q0 78 78 78h346v78h-538v59h796v-59h-120v-137h-392q-20 0 -26 -6t-6 -26v-31q0 -19 6 -25.5t26 -6.5h665v-59h-275q1 -6 1 -19z
M918 219l32 -92l-218 -202h-166z" />
    <glyph glyph-name="uni091F094D0930094D" horiz-adv-x="750" 
d="M308 -201h139l118 -155h-143zM624 426h-354q-20 0 -26 -6t-6 -26v-298q0 -19 6.5 -25t25.5 -6h214q19 0 25.5 6t6.5 25v154h138v-167q0 -77 -78 -77h-85l90 -164h-134l-68 143l-69 -143h-133l91 164h-90q-78 0 -78 77v324q0 78 78 78h309v78h-507v59h790v-59h-146v-137z
" />
    <glyph glyph-name="uni0920094D0930094D" horiz-adv-x="774" 
d="M318 -201h139l118 -155h-142zM540 96v298q0 20 -6 26t-26 6h-242q-20 0 -26 -6t-6 -26v-298q0 -19 6.5 -25t25.5 -6h242q19 0 25.5 6t6.5 25zM794 563h-339v-78h142q77 0 77 -78v-324q0 -77 -77 -77h-98l90 -164h-134l-67 143l-69 -143h-133l90 164h-98q-78 0 -78 77v324
q0 78 78 78h139v78h-337v59h814v-59z" />
    <glyph glyph-name="uni0921094D0930094D" horiz-adv-x="732" 
d="M296 -200h140l117 -155h-142zM617 426h-351q-20 0 -26.5 -6.5t-6.5 -25.5v-51q0 -19 6.5 -25.5t26.5 -6.5h297q78 0 78 -78v-150q0 -77 -78 -77h-89l92 -164h-134l-61 136l-66 -136h-132l95 164h-92q-77 0 -77 77v91h137v-78q0 -19 6.5 -25t26.5 -6h202q20 0 26 6t6 25
v123q0 20 -6.5 26.5t-25.5 6.5h-298q-77 0 -77 77v78q0 78 77 78h307v78h-500v59h774v-59h-137v-137z" />
    <glyph glyph-name="uni0922094D0930094D" horiz-adv-x="776" 
d="M321 -201h140l117 -155h-142zM626 426h-356q-20 0 -26 -6t-6 -26v-298q0 -19 6.5 -25t25.5 -6h246q19 0 25.5 6t6.5 25v106q0 20 -6 26t-26 6h-138v59h222q77 0 77 -78v-132q0 -77 -77 -77h-101l94 -164h-134l-64 136l-65 -136h-133l96 164h-115q-78 0 -78 77v324
q0 78 78 78h310v78h-508v59h816v-59h-170v-137z" />
    <glyph glyph-name="uni0923094D0930094D" horiz-adv-x="729" 
d="M263 154h202q20 0 26.5 6.5t6.5 25.5v377h-267v-377q0 -20 6.5 -26t25.5 -6zM628 563v-390q0 -78 -77 -78h-373q-78 0 -78 78v390h-120v59h769v-59h-121zM932 276l31 -93l-284 -258h-166z" />
    <glyph glyph-name="uni0924094D0930094D" horiz-adv-x="412" 
d="M540 622v-59h-560v59h560zM559 282v-69h-104l-229 -213h-169l270 247l-131 128q-52 49 -133 49h-22v61h92q62 0 101 -12t79 -50l142 -141h104z" />
    <glyph glyph-name="uni0925094D0930094D" horiz-adv-x="684" 
d="M269 151h570v-43h-36l-180 -172h-169l170 156h-447q-78 0 -78 77v196h350q20 0 26.5 6t6.5 25v135q0 19 -6.5 25.5t-26.5 6.5h-179q-20 0 -26 -6.5t-6 -25.5v-91h-136v104q0 78 78 78h360q77 0 77 -78v-161q0 -77 -77 -77h-303v-124q0 -19 6.5 -25t25.5 -6z" />
    <glyph glyph-name="uni0926094D0930094D" horiz-adv-x="750" 
d="M502 -123h140l117 -155h-142zM-20 622h790v-59h-144v-137h-371q-19 0 -25.5 -6t-6.5 -26v-212q0 -19 6.5 -25t25.5 -6h209q20 0 27 7.5t7 26.5v81h138v-266h-138v103l-113 -167h-148l115 156h-189q-78 0 -78 77v238q0 78 78 78h326v78h-509v59z" />
    <glyph glyph-name="uni0927094D0930094D" horiz-adv-x="666" 
d="M267 151h548v-45h-39l-181 -170h-170l174 156h-424q-78 0 -78 77v112q0 53 50 55v5q-50 2 -50 56v147q0 78 78 78h353q77 0 77 -78v-112h-118v99q0 19 -6.5 25.5t-25.5 6.5h-188q-19 0 -25.5 -6.5t-6.5 -25.5v-128q0 -20 6.5 -26.5t25.5 -6.5h142v-59h-142
q-19 0 -25.5 -6.5t-6.5 -25.5v-97q0 -19 6.5 -25t25.5 -6z" />
    <glyph glyph-name="uni0928094D0930094D" horiz-adv-x="692" 
d="M712 622v-59h-732v59h732zM241 154h205q19 0 25 6t6 26v240h-236q-19 0 -25.5 -6t-6.5 -26v-208q0 -20 6.5 -26t25.5 -6zM611 426v-253q0 -78 -77 -78h-382q-77 0 -77 78v234q0 78 77 78h741v-59h-282zM881 263l27 -94l-268 -244h-166z" />
    <glyph glyph-name="uni092A094D0930094D" horiz-adv-x="399" 
d="M268 174h289v-41h-41l-149 -197h-148l144 179h-183q-78 0 -78 78v370h-122v59h439v-59h-183v-357q0 -20 6 -26t26 -6z" />
    <glyph glyph-name="uni092B094D0930094D" horiz-adv-x="778" 
d="M268 174h209q19 0 26.5 7t7.5 27v355h-275v-357q0 -20 6 -26t26 -6zM680 471h247v-59h-245q-20 0 -27 -7t-7 -27v-378h-137v126l-144 -190h-148l144 179h-183q-78 0 -78 78v370h-122v59h818v-59h-150v-101q10 9 32 9z" />
    <glyph glyph-name="uni092C094D0930094D" horiz-adv-x="467" 
d="M487 622v-59h-507v59h507zM220 282v-104q0 -18 6.5 -24.5t25.5 -6.5h310l-346 241q4 -58 4 -106zM616 147v-38h-36l-142 -175h-151l138 154h-263q-77 0 -77 78v241q0 78 77 78h367v-59h-280l349 -242l-1 -37h19z" />
    <glyph glyph-name="uni092D094D0930094D" horiz-adv-x="718" 
d="M500 -75l402 331l10 -112l-247 -219h-165zM496 185v141h-237q-19 0 -25.5 -6t-6.5 -26v-109q0 -19 6.5 -25.5t25.5 -6.5h206q19 0 25 6.5t6 25.5zM632 385h285v-59h-285v-153q0 -78 -78 -78h-379q-78 0 -78 78v135q0 77 78 77h321v146q0 20 -6 26t-25 6h-195
q-20 0 -26 -6.5t-6 -25.5v-74h-138v87q0 78 78 78h376q78 0 78 -78v-159z" />
    <glyph glyph-name="uni092E094D0930094D" horiz-adv-x="721" 
d="M260 154h205q19 0 25.5 6t6.5 26v240h-237q-19 0 -25 -6t-6 -26v-208q0 -20 6 -26t25 -6zM635 426v-253q0 -78 -78 -78h-382q-77 0 -77 78v234q0 78 77 78h322v78h-517v59h761v-59h-106v-78h295v-59h-295zM924 271l8 -113l-260 -233h-166z" />
    <glyph glyph-name="uni092F094D0930094D" horiz-adv-x="605" 
d="M237 151h533v-40h-46l-176 -175h-166l167 156h-404q-78 0 -78 77v199h292q19 0 25.5 6.5t6.5 25.5v131q0 19 -6.5 25.5t-25.5 6.5h-379v59h645v-59h-108q12 -7 12 -31v-145q0 -78 -78 -78h-246v-127q0 -19 6.5 -25t25.5 -6z" />
    <glyph glyph-name="uni0935094D0930094D" horiz-adv-x="398" 
d="M-20 563v59h438v-59h-438zM462 485v-59h-200q-19 0 -25 -6t-6 -26v-212q0 -19 6 -25t25 -6h298v-40h-42l-134 -175h-146l125 156h-192q-78 0 -78 77v238q0 78 78 78h291z" />
    <glyph glyph-name="uni0938094D0930094D" horiz-adv-x="761" 
d="M958 342v-59h-70l-157 -167h-156l159 167h-496v-192q0 -19 6 -25.5t26 -6.5h291v-59h-383q-78 0 -78 78v398h138v-134h235q19 0 25 6t6 25v158q0 20 -6 26t-25 6h-493v59h801v-59h-151q12 -7 12 -31v-171q0 -13 -1 -19h317z" />
    <glyph glyph-name="uni0915093C094D0930094D" horiz-adv-x="741" 
d="M318 -243v108h137v-108h-137zM644 485h277v-59h-275q-20 0 -27 -7t-7 -27v-392h-137v93l-113 -165h-147l115 156h-167q-78 0 -78 77v246q0 78 78 78h262v-59h-170q-19 0 -25.5 -6t-6.5 -26v-220q0 -19 6.5 -25t25.5 -6h186q19 0 26.5 7.5t7.5 26.5v386h-495v59h781v-59
h-149v-87q10 9 32 9z" />
    <glyph glyph-name="uni0916093C094D0930094D" horiz-adv-x="1004" 
d="M237 237v-146q0 -19 6.5 -25.5t26.5 -6.5h359v-59h-453q-77 0 -77 78v385h138v-167h172q19 0 25.5 6t6.5 25v236h-461v59h1044v-59h-447v-249q0 -77 -78 -77h-262zM930 -243v108h137v-108h-137zM863 181h282v-33h-29l-148 -208h-142l133 182h-185q-68 0 -68 78v180
q0 78 77 78h284v-59h-204q-19 0 -25.5 -6.5t-6.5 -25.5v-154q0 -19 6.5 -25.5t25.5 -6.5z" />
    <glyph glyph-name="uni0917093C094D0930094D" horiz-adv-x="731" 
d="M232 154h250q19 0 25 6t6 26v198h-281q-19 0 -25.5 -6.5t-6.5 -25.5v-166q0 -20 6 -26t26 -6zM647 563v-390q0 -78 -77 -78h-418q-77 0 -77 78v192q0 78 77 78h361v120h-533v59h770v-59h-103zM939 179l-261 -254h-163l369 331zM641 -260v108h137v-108h-137z" />
    <glyph glyph-name="uni091C093C094D0930094D" horiz-adv-x="710" 
d="M729 622v-59h-749v59h749zM250 -89v108h137v-108h-137zM629 426v-253q0 -78 -78 -78h-374q-78 0 -78 78v312h134v-299q0 -20 6 -26t25 -6h199q19 0 25.5 6t6.5 26v299h428v-59h-294zM899 263l30 -92l-271 -246h-166z" />
    <glyph glyph-name="uni0928093C094D0930094D" horiz-adv-x="692" 
d="M712 622v-59h-732v59h732zM241 154h205q19 0 25 6t6 26v240h-236q-19 0 -25.5 -6t-6.5 -26v-208q0 -20 6.5 -26t25.5 -6zM611 426v-253q0 -78 -77 -78h-382q-77 0 -77 78v234q0 78 77 78h741v-59h-282zM908 169l-268 -244h-166l407 338zM594 -267v108h137v-108h-137z" />
    <glyph glyph-name="uni092B093C094D0930094D" horiz-adv-x="778" 
d="M328 -243v108h137v-108h-137zM268 174h209q19 0 26.5 7t7.5 27v355h-275v-357q0 -20 6 -26t26 -6zM680 471h247v-59h-245q-20 0 -27 -7t-7 -27v-378h-137v126l-144 -190h-148l144 179h-183q-78 0 -78 78v370h-122v59h818v-59h-150v-101q10 9 32 9z" />
    <glyph glyph-name="uni092F093C094D0930094D" horiz-adv-x="605" 
d="M508 -250v108h137v-108h-137zM237 151h533v-40h-46l-176 -175h-166l167 156h-404q-78 0 -78 77v199h292q19 0 25.5 6.5t6.5 25.5v131q0 19 -6.5 25.5t-25.5 6.5h-379v59h645v-59h-108q12 -7 12 -31v-145q0 -78 -78 -78h-246v-127q0 -19 6.5 -25t25.5 -6z" />
    <glyph glyph-name="uni0915094D0915" horiz-adv-x="1819" 
d="M1208 171v392h-597v-87q11 9 32 9h515v-59h-170q-19 0 -25 -6t-6 -26v-225q0 -20 6 -26t25 -6h186q20 0 27 7.5t7 26.5zM1839 563h-494v-87q11 9 32 9h279q78 0 78 -78v-251q0 -78 -78 -78h-261v59h169q20 0 26 6.5t6 25.5v225q0 20 -6 26t-26 6h-185q-19 0 -26.5 -7
t-7.5 -27v-392h-137v87q-10 -9 -32 -9h-280q-77 0 -77 78v251q0 13 1 19h-175q-19 0 -26.5 -7t-7.5 -27v-392h-137v87q-10 -9 -32 -9h-280q-77 0 -77 78v251q0 78 77 78h262v-59h-170q-19 0 -25 -6t-6 -26v-225q0 -20 6 -26t25 -6h186q20 0 27 7.5t7 26.5v392h-494v59h1859
v-59z" />
    <glyph glyph-name="uni0915094D0916" horiz-adv-x="2113" 
d="M1185 325v238h-574v-87q11 9 32 9h338v-192h172q19 0 25.5 6.5t6.5 25.5zM2133 622v-59h-136v-563h-136v133q-9 -13 -35 -13h-299q-77 0 -77 78v180q0 77 77 77h289v-59h-209q-19 0 -25 -6t-6 -26v-154q0 -19 6 -25.5t25 -6.5h215q21 0 30 8.5t9 29.5v347h-540v-252
q0 -77 -77 -77h-263v-143q0 -19 6.5 -25.5t26.5 -6.5h387v-59h-480q-78 0 -78 78v348h-198q-19 0 -26.5 -7t-7.5 -27v-392h-137v87q-10 -9 -32 -9h-280q-77 0 -77 78v251q0 78 77 78h262v-59h-170q-19 0 -25 -6t-6 -26v-225q0 -20 6 -26t25 -6h186q20 0 27 7.5t7 26.5v392
h-494v59h2153z" />
    <glyph glyph-name="uni0915094D091A" horiz-adv-x="1573" 
d="M1319 171v392h-708v-87q11 9 32 9h506v-59h-142q-18 -1 -23.5 -7t-5.5 -25v-225q0 -19 6 -25.5t26 -6.5h275q19 0 26.5 7.5t7.5 26.5zM1593 622v-59h-137v-563h-137v87q-11 -9 -32 -9h-369q-78 0 -78 78v239q0 23 12 31h-207q-19 0 -26.5 -7t-7.5 -27v-392h-137v87
q-10 -9 -32 -9h-280q-77 0 -77 78v251q0 78 77 78h262v-59h-170q-19 0 -25 -6t-6 -26v-225q0 -20 6 -26t25 -6h186q20 0 27 7.5t7 26.5v392h-494v59h1613z" />
    <glyph glyph-name="uni0915094D091C" horiz-adv-x="1816" 
d="M1562 485v78h-951v-87q11 9 32 9h331v-316q0 -19 6 -25.5t26 -6.5h199q19 0 25.5 6.5t6.5 25.5v316h325zM1836 622v-59h-136v-563h-138v426h-190v-270q0 -78 -78 -78h-376q-78 0 -78 78v270h-195q-19 0 -26.5 -7t-7.5 -27v-392h-137v87q-10 -9 -32 -9h-280q-77 0 -77 78
v251q0 78 77 78h262v-59h-170q-19 0 -25 -6t-6 -26v-225q0 -20 6 -26t25 -6h186q20 0 27 7.5t7 26.5v392h-494v59h1856z" />
    <glyph glyph-name="uni0915094D091F" horiz-adv-x="1469" 
d="M1206 485v78h-595v-87q11 9 32 9h563zM1343 426h-354q-19 0 -25.5 -6t-6.5 -26v-303q0 -19 6.5 -25.5t25.5 -6.5h214q19 0 25.5 6.5t6.5 25.5v153h138v-166q0 -78 -78 -78h-398q-78 0 -78 78v329q0 13 1 19h-175q-19 0 -26.5 -7t-7.5 -27v-392h-137v87q-10 -9 -32 -9
h-280q-77 0 -77 78v251q0 78 77 78h262v-59h-170q-19 0 -25 -6t-6 -26v-225q0 -20 6 -26t25 -6h186q20 0 27 7.5t7 26.5v392h-494v59h1509v-59h-146v-137z" />
    <glyph glyph-name="uni0915094D0923" horiz-adv-x="1813" 
d="M1219 169v394h-267v-394q0 -19 6 -25.5t26 -6.5h202q20 0 26.5 6.5t6.5 25.5zM643 485h178v78h-210v-87q11 9 32 9zM1832 622v-59h-136v-563h-137v563h-210v-407q0 -78 -77 -78h-373q-78 0 -78 78v270h-176q-19 0 -26.5 -7t-7.5 -27v-392h-137v87q-10 -9 -32 -9h-280
q-77 0 -77 78v251q0 78 77 78h262v-59h-170q-19 0 -25 -6t-6 -26v-225q0 -20 6 -26t25 -6h186q20 0 27 7.5t7 26.5v392h-494v59h1852z" />
    <glyph glyph-name="uni0915094D0924" horiz-adv-x="1115" 
d="M1135 563h-505v-87q10 9 32 9h289q78 0 78 -78v-329q0 -78 -78 -78h-258v59h166q19 0 25.5 6.5t6.5 25.5v303q0 20 -6.5 26t-25.5 6h-195q-20 0 -27 -7t-7 -27v-392h-136v426h-232q-18 -1 -24 -7t-6 -25v-303q0 -19 6 -25.5t26 -6.5h166v-59h-258q-78 0 -78 78v317
q0 23 12 31h-79v59h467v78h-514v59h1155v-59z" />
    <glyph glyph-name="uni0915094D0925" horiz-adv-x="1776" 
d="M1796 622v-59h-136v-563h-137v87q-11 -9 -32 -9h-589q-78 0 -78 78v205h350q20 0 26.5 6t6.5 25v139q0 19 -6.5 25.5t-26.5 6.5h-179q-19 0 -25.5 -6.5t-6.5 -25.5v-105h-318q-19 0 -26.5 -7t-7.5 -27v-392h-137v87q-10 -9 -32 -9h-280q-77 0 -77 78v251q0 78 77 78h262
v-59h-170q-19 0 -25 -6t-6 -26v-225q0 -20 6 -26t25 -6h186q20 0 27 7.5t7 26.5v392h-494v59h700v-59h-69v-87q11 9 32 9h184v59q0 78 78 78h360q77 0 77 -78v-165q0 -77 -77 -77h-303v-133q0 -19 6 -25.5t26 -6.5h495q19 0 26.5 7.5t7.5 26.5v451h273z" />
    <glyph glyph-name="uni0915094D0926" horiz-adv-x="1478" 
d="M1217 485v78h-606v-87q11 9 32 9h574zM1355 426h-372q-19 0 -25 -6t-6 -26v-225q0 -20 6 -26t25 -6h210q19 0 26.5 7.5t7.5 26.5v95h138v-266h-138v87q-11 -9 -32 -9h-304q-77 0 -77 78v251q0 13 1 19h-170q-19 0 -26.5 -7t-7.5 -27v-392h-137v87q-10 -9 -32 -9h-280
q-77 0 -77 78v251q0 78 77 78h262v-59h-170q-19 0 -25 -6t-6 -26v-225q0 -20 6 -26t25 -6h186q20 0 27 7.5t7 26.5v392h-494v59h1518v-59h-143v-137z" />
    <glyph glyph-name="uni0915094D092A" horiz-adv-x="1494" 
d="M1240 171v392h-275v-394q0 -19 6.5 -25.5t25.5 -6.5h209q20 0 27 7.5t7 26.5zM643 485h188v78h-220v-87q11 9 32 9zM1514 622v-59h-137v-563h-137v87q-10 -9 -32 -9h-299q-78 0 -78 78v270h-186q-19 0 -26.5 -7t-7.5 -27v-392h-137v87q-10 -9 -32 -9h-280q-77 0 -77 78
v251q0 78 77 78h262v-59h-170q-19 0 -25 -6t-6 -26v-225q0 -20 6 -26t25 -6h186q20 0 27 7.5t7 26.5v392h-494v59h1534z" />
    <glyph glyph-name="uni0915094D092B" horiz-adv-x="1857" 
d="M1241 171v392h-275v-394q0 -19 6 -25.5t26 -6.5h209q19 0 26.5 7.5t7.5 26.5zM643 485h189v78h-221v-87q11 9 32 9zM1877 563h-499v-87q10 9 32 9h284q78 0 78 -78v-251q0 -78 -78 -78h-268v59h176q20 0 26 6.5t6 25.5v225q0 20 -6 26t-26 6h-190q-20 0 -27 -7t-7 -27
v-392h-137v87q-11 -9 -32 -9h-299q-78 0 -78 78v270h-187q-19 0 -26.5 -7t-7.5 -27v-392h-137v87q-10 -9 -32 -9h-280q-77 0 -77 78v251q0 78 77 78h262v-59h-170q-19 0 -25 -6t-6 -26v-225q0 -20 6 -26t25 -6h186q20 0 27 7.5t7 26.5v392h-494v59h1897v-59z" />
    <glyph glyph-name="uni0915094D092E" horiz-adv-x="1804" 
d="M1551 485v78h-195v-78h195zM1218 169v257h-237q-19 0 -25.5 -6t-6.5 -26v-225q0 -19 6.5 -25.5t25.5 -6.5h205q20 0 26 6.5t6 25.5zM1218 485v78h-607v-87q11 9 32 9h575zM1825 622v-59h-136v-563h-138v426h-195v-270q0 -78 -78 -78h-382q-78 0 -78 78v251q0 13 1 19
h-174q-19 0 -26.5 -7t-7.5 -27v-392h-137v87q-10 -9 -32 -9h-280q-77 0 -77 78v251q0 78 77 78h262v-59h-170q-19 0 -25 -6t-6 -26v-225q0 -20 6 -26t25 -6h186q20 0 27 7.5t7 26.5v392h-494v59h1845z" />
    <glyph glyph-name="uni0915094D092F" horiz-adv-x="1715" 
d="M1461 175v388h-201q12 -7 12 -31v-145q0 -78 -78 -78h-239v-140q0 -19 6.5 -25.5t25.5 -6.5h435q22 0 30.5 8t8.5 30zM1735 622v-59h-137v-563h-137v91q-9 -13 -35 -13h-531q-78 0 -78 78v212h285q19 0 25.5 6.5t6.5 25.5v131q0 19 -6 25.5t-26 6.5h-491v-87q11 9 32 9
h175v-59h-173q-19 0 -26.5 -7t-7.5 -27v-392h-137v87q-10 -9 -32 -9h-280q-77 0 -77 78v251q0 78 77 78h262v-59h-170q-19 0 -25 -6t-6 -26v-225q0 -20 6 -26t25 -6h186q20 0 27 7.5t7 26.5v392h-494v59h1755z" />
    <glyph glyph-name="uni0915094D0932" horiz-adv-x="1848" 
d="M1594 485v78h-983v-87q11 9 32 9h567q31 0 45 -10.5t17 -34.5h4q6 45 54 45h264zM1868 622v-59h-136v-563h-138v426h-220q-20 0 -26 -6t-6 -26v-205h-137v205q0 19 -6.5 25.5t-26.5 6.5h-186q-20 0 -26 -6t-6 -26v-303q0 -19 6 -25.5t26 -6.5h203v-59h-295q-78 0 -78 78
v329q0 13 1 19h-172q-19 0 -26.5 -7t-7.5 -27v-392h-137v87q-10 -9 -32 -9h-280q-77 0 -77 78v251q0 78 77 78h262v-59h-170q-19 0 -25 -6t-6 -26v-225q0 -20 6 -26t25 -6h186q20 0 27 7.5t7 26.5v392h-494v59h1888z" />
    <glyph glyph-name="uni0915094D0935" horiz-adv-x="1486" 
d="M1232 171v392h-621v-87q11 9 32 9h539v-59h-199q-19 0 -25.5 -6t-6.5 -26v-225q0 -19 6.5 -25.5t25.5 -6.5h215q20 0 27 7.5t7 26.5zM1506 622v-59h-137v-563h-137v87q-10 -9 -32 -9h-309q-78 0 -78 78v251q0 13 1 19h-169q-19 0 -26.5 -7t-7.5 -27v-392h-137v87
q-10 -9 -32 -9h-280q-77 0 -77 78v251q0 78 77 78h262v-59h-170q-19 0 -25 -6t-6 -26v-225q0 -20 6 -26t25 -6h186q20 0 27 7.5t7 26.5v392h-494v59h1526z" />
    <glyph glyph-name="uni0915094D0936" horiz-adv-x="1832" 
d="M894 622h381q77 0 77 -78v-202q0 -78 -77 -78h-322v-173q0 -20 6 -26t25 -6h196q20 0 26 6.5t6 25.5v106h138v-119q0 -78 -78 -78h-379q-78 0 -78 78v292h138v-47h229q19 0 26 6.5t7 25.5v176q0 19 -6.5 25.5t-26.5 6.5h-196q-20 0 -26.5 -6.5t-6.5 -25.5v-105h-308
q-19 0 -26.5 -7t-7.5 -27v-392h-137v87q-10 -9 -32 -9h-280q-77 0 -77 78v251q0 78 77 78h262v-59h-170q-19 0 -25 -6t-6 -26v-225q0 -20 6 -26t25 -6h186q20 0 27 7.5t7 26.5v392h-494v59h693v-59h-62v-87q11 9 32 9h173v59q0 78 78 78zM1828 622v-59h-137v-563h-138v622
h275z" />
    <glyph glyph-name="uni0915094D0938" horiz-adv-x="1810" 
d="M1556 339v224h-213q12 -7 12 -31v-174q0 -13 -1 -19h202zM1217 371v160q0 19 -6.5 25.5t-25.5 6.5h-574v-87q11 9 32 9h309v-146h233q19 0 25.5 6.5t6.5 25.5zM1831 622v-59h-137v-563h-138v280h-604v-189q0 -19 6 -25.5t26 -6.5h200q20 0 26 6.5t6 25.5v123h138v-136
q0 -78 -78 -78h-384q-78 0 -78 78v348h-169q-19 0 -26.5 -7t-7.5 -27v-392h-137v87q-10 -9 -32 -9h-280q-77 0 -77 78v251q0 78 77 78h262v-59h-170q-19 0 -25 -6t-6 -26v-225q0 -20 6 -26t25 -6h186q20 0 27 7.5t7 26.5v392h-494v59h1851z" />
    <glyph glyph-name="uni0916094D0916" horiz-adv-x="2389" 
d="M2409 622v-59h-137v-563h-136v133q-9 -13 -35 -13h-298q-77 0 -77 78v180q0 77 77 77h288v-59h-208q-19 0 -25.5 -6t-6.5 -26v-154q0 -19 6.5 -25.5t25.5 -6.5h215q21 0 29.5 8.5t8.5 29.5v347h-539v-252q0 -77 -78 -77h-262v-143q0 -19 6.5 -25.5t26.5 -6.5h387v-59
h-481q-77 0 -77 78v45q-12 -3 -30 -3h-306q-77 0 -77 78v194q0 77 77 77h288v-59h-208q-19 0 -25.5 -6t-6.5 -26v-167q0 -19 6.5 -25.5t25.5 -6.5h222q19 0 26.5 7.5t7.5 25.5v251h138v-170h172q19 0 25.5 6.5t6.5 25.5v238h-884v-252q0 -77 -78 -77h-262v-143
q0 -19 6.5 -25.5t26.5 -6.5h387v-59h-481q-77 0 -77 78v385h138v-170h172q19 0 25.5 6.5t6.5 25.5v238h-461v59h2429z" />
    <glyph glyph-name="uni0916094D0924" horiz-adv-x="1799" 
d="M1819 622v-59h-137v-563h-137v426h-274q-19 0 -25.5 -6t-6.5 -26v-303q0 -19 6.5 -25.5t25.5 -6.5h116v-59h-208q-78 0 -78 78v45q-12 -3 -30 -3h-288q-77 0 -77 78v194q0 77 77 77h274v-59h-194q-19 0 -25.5 -6t-6.5 -26v-167q0 -19 6.5 -25.5t25.5 -6.5h204
q19 0 26.5 7.5t7.5 25.5v195q0 78 78 78h366v78h-968v-252q0 -77 -78 -77h-262v-143q0 -19 6.5 -25.5t26.5 -6.5h387v-59h-481q-77 0 -77 78v385h138v-170h172q19 0 25.5 6.5t6.5 25.5v238h-461v59h1839z" />
    <glyph glyph-name="uni0916094D092E" horiz-adv-x="2103" 
d="M1849 485v78h-196v-78h196zM1515 169v257h-236q-19 0 -25.5 -6t-6.5 -26v-225q0 -19 6.5 -25.5t25.5 -6.5h205q19 0 25 6t6 26zM2123 622v-59h-137v-563h-137v426h-196v-270q0 -78 -77 -78h-382q-61 0 -74 47q-15 -5 -34 -5h-303q-77 0 -77 78v194q0 77 77 77h288v-59
h-208q-19 0 -25.5 -6t-6.5 -26v-167q0 -19 6.5 -25.5t25.5 -6.5h219q19 0 26.5 7.5t7.5 25.5v195q0 78 78 78h321v78h-938v-252q0 -77 -78 -77h-262v-143q0 -19 6.5 -25.5t26.5 -6.5h387v-59h-481q-77 0 -77 78v385h138v-170h172q19 0 25.5 6.5t6.5 25.5v238h-461v59h2143z
" />
    <glyph glyph-name="uni0916094D092F" horiz-adv-x="2013" 
d="M1760 175v388h-201q12 -7 12 -31v-145q0 -78 -78 -78h-239v-140q0 -19 6 -25.5t26 -6.5h435q22 0 30.5 8t8.5 30zM2033 622v-59h-136v-563h-137v91q-10 -13 -36 -13h-530q-61 0 -74 47q-15 -5 -34 -5h-303q-77 0 -77 78v194q0 77 77 77h288v-59h-208q-19 0 -25.5 -6
t-6.5 -26v-167q0 -19 6.5 -25.5t25.5 -6.5h219q19 0 26.5 7.5t7.5 25.5v156h285q19 0 25.5 6.5t6.5 25.5v131q0 19 -6.5 25.5t-25.5 6.5h-824v-252q0 -77 -78 -77h-262v-143q0 -19 6.5 -25.5t26.5 -6.5h387v-59h-481q-77 0 -77 78v385h138v-170h172q19 0 25.5 6.5t6.5 25.5
v238h-461v59h2053z" />
    <glyph glyph-name="uni0916094D0935" horiz-adv-x="1788" 
d="M1808 622v-59h-136v-563h-138v87q-10 -9 -32 -9h-309q-61 0 -74 46q-12 -4 -33 -4h-303q-77 0 -77 78v194q0 77 77 77h288v-59h-208q-19 0 -25.5 -6t-6.5 -26v-167q0 -19 6.5 -25.5t25.5 -6.5h219q29 0 33 21v207q0 78 78 78h291v-59h-199q-19 0 -25.5 -6t-6.5 -26v-225
q0 -19 6.5 -25.5t25.5 -6.5h215q20 0 27 7.5t7 26.5v392h-957v-252q0 -77 -78 -77h-262v-143q0 -19 6.5 -25.5t26.5 -6.5h387v-59h-481q-77 0 -77 78v385h138v-170h172q19 0 25.5 6.5t6.5 25.5v238h-461v59h1828z" />
    <glyph glyph-name="uni0916094D0936" horiz-adv-x="2108" 
d="M237 234v-143q0 -19 6.5 -25.5t26.5 -6.5h387v-59h-481q-77 0 -77 78v385h138v-170h172q19 0 25.5 6.5t6.5 25.5v238h-461v59h944v-59h-347v-252q0 -77 -78 -77h-262zM1195 622h381q77 0 77 -78v-201q0 -78 -77 -78h-323v-174q0 -19 6.5 -25.5t25.5 -6.5h196
q19 0 25.5 6.5t6.5 25.5v106h138v-119q0 -78 -78 -78h-380q-78 0 -78 78v45q-12 -3 -29 -3h-303q-77 0 -77 78v194q0 77 77 77h288v-59h-208q-19 0 -25.5 -6t-6.5 -26v-167q0 -19 6.5 -25.5t25.5 -6.5h219q29 0 33 21v173h138v-49h230q20 0 26.5 6.5t6.5 25.5v175
q0 19 -6.5 25.5t-26.5 6.5h-196q-20 0 -26.5 -6.5t-6.5 -25.5v-83h-137v96q0 78 78 78zM2128 622v-59h-136v-563h-138v622h274z" />
    <glyph glyph-name="uni0917094D0917" horiz-adv-x="1837" 
d="M972 137h250q20 0 26 6.5t6 25.5v198h-282q-20 0 -26 -6.5t-6 -25.5v-166q0 -19 6 -25.5t26 -6.5zM235 137h250q19 0 25.5 6.5t6.5 25.5v198h-282q-19 0 -25.5 -6.5t-6.5 -25.5v-166q0 -19 6.5 -25.5t25.5 -6.5zM1857 622v-59h-136v-563h-137v563h-193v-407
q0 -78 -77 -78h-425q-77 0 -77 78v192q0 78 77 78h365v137h-600v-407q0 -78 -77 -78h-425q-77 0 -77 78v192q0 78 77 78h365v137h-537v59h1877z" />
    <glyph glyph-name="uni0917094D0918" horiz-adv-x="1622" 
d="M1368 171v392h-364q-20 0 -26 -6.5t-6 -25.5v-121q0 -20 6 -26t26 -6h180v-59h-180q-20 0 -26 -6.5t-6 -25.5v-118q0 -19 6 -25.5t26 -6.5h330q20 0 27 7.5t7 26.5zM235 137h250q19 0 25.5 6.5t6.5 25.5v198h-282q-19 0 -25.5 -6.5t-6.5 -25.5v-166q0 -19 6.5 -25.5
t25.5 -6.5zM1642 622v-59h-136v-563h-138v87q-10 -9 -32 -9h-424q-78 0 -78 78v134q0 53 50 56v4q-50 2 -50 55v127q0 23 11 31h-191v-407q0 -78 -77 -78h-425q-77 0 -77 78v192q0 78 77 78h365v137h-537v59h1662z" />
    <glyph glyph-name="uni0917094D091C" horiz-adv-x="1813" 
d="M235 137h250q19 0 25.5 6.5t6.5 25.5v198h-282q-19 0 -25.5 -6.5t-6.5 -25.5v-166q0 -19 6.5 -25.5t25.5 -6.5zM1833 622v-59h-136v-563h-138v426h-190v-270q0 -78 -78 -78h-376q-78 0 -78 78v329h134v-316q0 -19 6.5 -25.5t25.5 -6.5h199q20 0 26 6.5t6 25.5v316h325v78
h-905v-407q0 -78 -77 -78h-425q-77 0 -77 78v192q0 78 77 78h365v137h-537v59h1853z" />
    <glyph glyph-name="uni0917094D0923" horiz-adv-x="1828" 
d="M1235 169v394h-267v-394q0 -19 6 -25.5t26 -6.5h202q20 0 26.5 6.5t6.5 25.5zM235 137h250q19 0 25.5 6.5t6.5 25.5v198h-282q-19 0 -25.5 -6.5t-6.5 -25.5v-166q0 -19 6.5 -25.5t25.5 -6.5zM1848 622v-59h-136v-563h-137v563h-210v-407q0 -78 -77 -78h-373q-78 0 -78 78
v407h-183v-407q0 -78 -77 -78h-425q-77 0 -77 78v192q0 78 77 78h365v137h-537v59h1868z" />
    <glyph glyph-name="uni0917094D0926" horiz-adv-x="1484" 
d="M235 137h250q19 0 25.5 6.5t6.5 25.5v198h-282q-19 0 -25.5 -6.5t-6.5 -25.5v-166q0 -19 6.5 -25.5t25.5 -6.5zM1361 426h-372q-19 0 -25 -6t-6 -26v-225q0 -20 6 -26t25 -6h210q19 0 26.5 7.5t7.5 26.5v95h138v-266h-138v87q-11 -9 -32 -9h-304q-77 0 -77 78v251
q0 78 77 78h326v78h-569v-407q0 -78 -77 -78h-425q-77 0 -77 78v192q0 78 77 78h365v137h-537v59h1524v-59h-143v-137z" />
    <glyph glyph-name="uni0917094D0927" horiz-adv-x="1779" 
d="M235 137h250q19 0 25.5 6.5t6.5 25.5v198h-282q-19 0 -25.5 -6.5t-6.5 -25.5v-166q0 -19 6.5 -25.5t25.5 -6.5zM-20 563v59h772v-59h-98v-407q0 -78 -77 -78h-425q-77 0 -77 78v192q0 78 77 78h365v137h-537zM1799 622v-59h-136v-563h-137v87q-10 -9 -32 -9h-565
q-78 0 -78 78v113q0 53 50 55v5q-50 2 -50 56v159q0 78 78 78h353q77 0 77 -78v-118h-118v105q0 19 -6.5 25.5t-25.5 6.5h-188q-19 0 -25.5 -6.5t-6.5 -25.5v-140q0 -19 6.5 -25.5t25.5 -6.5h142v-59h-142q-19 0 -25.5 -6t-6.5 -26v-99q0 -19 6.5 -25.5t25.5 -6.5h471
q20 0 27 7.5t7 26.5v451h273z" />
    <glyph glyph-name="uni0917094D092C" horiz-adv-x="1561" 
d="M987 137h286q11 0 15 1l-337 246q4 -58 4 -106v-109q0 -19 6.5 -25.5t25.5 -6.5zM235 137h250q19 0 25.5 6.5t6.5 25.5v198h-282q-19 0 -25.5 -6.5t-6.5 -25.5v-166q0 -19 6.5 -25.5t25.5 -6.5zM1581 622v-59h-136v-563h-138v87q-11 -9 -32 -9h-378q-77 0 -77 78v251
q0 78 77 78h367v-59h-285l337 -246q-9 46 -9 135v248h-653v-407q0 -78 -77 -78h-425q-77 0 -77 78v192q0 78 77 78h365v137h-537v59h1601z" />
    <glyph glyph-name="uni0917094D092D" horiz-adv-x="1840" 
d="M235 137h250q19 0 25.5 6.5t6.5 25.5v198h-282q-19 0 -25.5 -6.5t-6.5 -25.5v-166q0 -19 6.5 -25.5t25.5 -6.5zM-20 563v59h772v-59h-98v-407q0 -78 -77 -78h-425q-77 0 -77 78v192q0 78 77 78h365v137h-537zM1254 168v143h-238q-19 0 -25 -6t-6 -25v-112q0 -19 6 -25.5
t25 -6.5h206q19 0 25.5 6.5t6.5 25.5zM1860 622v-59h-136v-563h-137v311h-195v-155q0 -78 -78 -78h-382q-78 0 -78 78v137q0 77 78 77h322v161q0 19 -6 25.5t-26 6.5h-195q-19 0 -25.5 -6.5t-6.5 -25.5v-86h-138v99q0 78 78 78h379q78 0 78 -78v-174h195v252h273z" />
    <glyph glyph-name="uni0917094D092E" horiz-adv-x="1820" 
d="M1567 485v78h-195v-78h195zM1234 169v257h-237q-19 0 -25.5 -6t-6.5 -26v-225q0 -19 6.5 -25.5t25.5 -6.5h205q20 0 26 6.5t6 25.5zM235 137h250q19 0 25.5 6.5t6.5 25.5v198h-282q-19 0 -25.5 -6.5t-6.5 -25.5v-166q0 -19 6.5 -25.5t25.5 -6.5zM1841 622v-59h-136v-563
h-138v426h-195v-270q0 -78 -78 -78h-382q-78 0 -78 78v251q0 78 78 78h322v78h-580v-407q0 -78 -77 -78h-425q-77 0 -77 78v192q0 78 77 78h365v137h-537v59h1861z" />
    <glyph glyph-name="uni0917094D092F" horiz-adv-x="1702" 
d="M1448 175v388h-201q12 -7 12 -31v-145q0 -78 -78 -78h-239v-140q0 -19 6 -25.5t26 -6.5h435q22 0 30.5 8t8.5 30zM235 137h250q19 0 25.5 6.5t6.5 25.5v198h-282q-19 0 -25.5 -6.5t-6.5 -25.5v-166q0 -19 6.5 -25.5t25.5 -6.5zM1722 622v-59h-137v-563h-137v91
q-9 -13 -35 -13h-531q-78 0 -78 78v212h285q19 0 25.5 6.5t6.5 25.5v131q0 19 -6.5 25.5t-25.5 6.5h-435v-407q0 -78 -77 -78h-425q-77 0 -77 78v192q0 78 77 78h365v137h-537v59h1742z" />
    <glyph glyph-name="uni0917094D0932" horiz-adv-x="1869" 
d="M235 137h250q19 0 25.5 6.5t6.5 25.5v198h-282q-19 0 -25.5 -6.5t-6.5 -25.5v-166q0 -19 6.5 -25.5t25.5 -6.5zM1889 622v-59h-136v-563h-138v426h-220q-19 0 -25.5 -6t-6.5 -26v-205h-137v205q0 19 -6.5 25.5t-26.5 6.5h-186q-19 0 -25.5 -6t-6.5 -26v-303
q0 -19 6.5 -25.5t25.5 -6.5h203v-59h-295q-78 0 -78 78v329q0 78 78 78h316q31 0 45 -10.5t17 -34.5h4q6 45 54 45h264v78h-961v-407q0 -78 -77 -78h-425q-77 0 -77 78v192q0 78 77 78h365v137h-537v59h1909z" />
    <glyph glyph-name="uni0917094D0935" horiz-adv-x="1499" 
d="M235 137h250q19 0 25.5 6.5t6.5 25.5v198h-282q-19 0 -25.5 -6.5t-6.5 -25.5v-166q0 -19 6.5 -25.5t25.5 -6.5zM1519 622v-59h-137v-563h-137v87q-11 -9 -32 -9h-309q-78 0 -78 78v251q0 78 78 78h291v-59h-199q-20 0 -26 -6t-6 -26v-225q0 -19 6 -25.5t26 -6.5h215
q19 0 26.5 7.5t7.5 26.5v392h-591v-407q0 -78 -77 -78h-425q-77 0 -77 78v192q0 78 77 78h365v137h-537v59h1539z" />
    <glyph glyph-name="uni0917094D0938" horiz-adv-x="1833" 
d="M1579 339v224h-214q12 -7 12 -31v-174q0 -13 -1 -19h203zM235 137h250q19 0 25.5 6.5t6.5 25.5v198h-282q-19 0 -25.5 -6.5t-6.5 -25.5v-166q0 -19 6.5 -25.5t25.5 -6.5zM1854 622v-59h-137v-563h-138v280h-604v-189q0 -19 6.5 -25.5t25.5 -6.5h200q19 0 25 6t6 26v123
h138v-136q0 -78 -77 -78h-384q-78 0 -78 78v398h138v-137h233q19 0 25 6t6 26v160q0 20 -6 26t-25 6h-554v-407q0 -78 -77 -78h-425q-77 0 -77 78v192q0 78 77 78h365v137h-537v59h1874z" />
    <glyph glyph-name="uni0918094D092E" horiz-adv-x="1615" 
d="M1362 485v78h-195v-78h195zM1029 169v257h-237q-20 0 -26 -6t-6 -26v-225q0 -19 6 -25.5t26 -6.5h205q19 0 25.5 6.5t6.5 25.5zM629 170v237q0 78 78 78h322v78h-759q-20 0 -26 -6.5t-6 -25.5v-121q0 -20 6 -26t26 -6h180v-59h-180q-20 0 -26 -6.5t-6 -25.5v-118
q0 -19 6 -25.5t26 -6.5h325q19 0 26.5 7.5t7.5 25.5zM1636 622v-59h-136v-563h-138v426h-195v-270q0 -78 -78 -78h-382q-36 0 -55 16q-16 -16 -53 -16h-421q-78 0 -78 78v134q0 53 50 56v4q-50 2 -50 55v127q0 23 11 31h-131v59h1656z" />
    <glyph glyph-name="uni0918094D092F" horiz-adv-x="1526" 
d="M1272 175v388h-201q12 -7 12 -31v-145q0 -78 -78 -78h-239v-140q0 -19 6 -25.5t26 -6.5h435q22 0 30.5 8t8.5 30zM270 137h325q29 0 33 21v210h285q19 0 25.5 6.5t6.5 25.5v131q0 19 -6.5 25.5t-25.5 6.5h-643q-20 0 -26 -6.5t-6 -25.5v-121q0 -20 6 -26t26 -6h180v-59
h-180q-20 0 -26 -6.5t-6 -25.5v-118q0 -19 6 -25.5t26 -6.5zM1546 622v-59h-137v-563h-137v91q-9 -13 -35 -13h-531q-36 0 -55 15q-15 -15 -52 -15h-421q-78 0 -78 78v134q0 53 50 56v4q-50 2 -50 55v127q0 23 11 31h-131v59h1566z" />
    <glyph glyph-name="uni091A094D091A" horiz-adv-x="1324" 
d="M1344 622v-59h-142v-563h-137v87q-11 -9 -32 -9h-370q-36 0 -55 16q-16 -16 -53 -16h-366q-78 0 -78 78v239q0 23 12 31h-96v59h390v-59h-138q-18 -1 -24 -7t-6 -25v-225q0 -19 6.5 -25.5t25.5 -6.5h270q19 0 26.5 7.5t7.5 25.5v225q0 23 12 31h-90v59h387v-59h-141
q-18 -1 -24 -7t-6 -25v-225q0 -19 6.5 -25.5t25.5 -6.5h276q19 0 26.5 7.5t7.5 26.5v392h-1085v59h1364z" />
    <glyph glyph-name="uni091A094D091B" horiz-adv-x="1547" 
d="M1130 485v78h-366q-19 0 -25 -6t-6 -26v-160q0 -20 6 -26t25 -6h138v-59h-138q-19 0 -25 -6t-6 -26v-157q0 -20 6 -26t25 -6h529q20 0 26.5 6.5t6.5 25.5v303q0 19 -6.5 25.5t-26.5 6.5h-187q-20 0 -26 -6t-6 -26v-130q0 -20 6 -26t26 -6h97v-59h-177q-78 0 -78 78v156
q0 78 78 78h104zM1567 563h-305v-78h108q78 0 78 -78v-329q0 -78 -78 -78h-698q-77 0 -77 78v4q-12 -4 -31 -4h-375q-78 0 -78 78v239q0 23 12 31h-96v59h393v-59h-141q-18 -1 -24 -7t-6 -25v-225q0 -19 6.5 -25.5t25.5 -6.5h279q19 0 26.5 7.5t7.5 25.5h1v80q0 53 50 56v4
q-50 1 -50 56v166q0 23 11 31h-626v59h1587v-59z" />
    <glyph glyph-name="uni091A094D092E" horiz-adv-x="1565" 
d="M1312 485v78h-195v-78h195zM979 169v257h-237q-20 0 -26 -6t-6 -26v-225q0 -19 6 -25.5t26 -6.5h205q19 0 25.5 6.5t6.5 25.5zM1586 622v-59h-136v-563h-138v426h-195v-270q0 -78 -78 -78h-382q-36 0 -55 16q-16 -16 -53 -16h-360q-78 0 -78 78v239q0 23 12 31h-96v59
h393v-59h-141q-18 -1 -24 -7t-6 -25v-225q0 -19 6.5 -25.5t25.5 -6.5h264q19 0 26.5 7.5t7.5 25.5v237q0 78 78 78h322v78h-999v59h1606z" />
    <glyph glyph-name="uni091A094D092F" horiz-adv-x="1474" 
d="M1220 175v388h-201q12 -7 12 -31v-145q0 -78 -78 -78h-239v-140q0 -19 6 -25.5t26 -6.5h435q22 0 30.5 8t8.5 30zM1494 622v-59h-137v-563h-137v91q-9 -13 -35 -13h-531q-36 0 -55 15q-15 -15 -52 -15h-358q-78 0 -78 78v239q0 23 12 31h-96v59h393v-59h-141
q-18 -1 -24 -7t-6 -25v-225q0 -19 6.5 -25.5t25.5 -6.5h262q29 0 33 21v210h285q19 0 25.5 6.5t6.5 25.5v131q0 19 -6.5 25.5t-25.5 6.5h-881v59h1514z" />
    <glyph glyph-name="uni091B094D092F" horiz-adv-x="2012" 
d="M1758 175v388h-1486q-19 0 -25 -6t-6 -26v-160q0 -20 6 -26t25 -6h138v-59h-138q-19 0 -25 -6t-6 -26v-157q0 -20 6 -26t25 -6h529q20 0 26.5 6.5t6.5 25.5v303q0 19 -6.5 25.5t-26.5 6.5h-187q-20 0 -26 -6t-6 -26v-130q0 -20 6 -26t26 -6h97v-59h-177q-78 0 -78 78v156
q0 78 78 78h957q78 0 78 -78v-77q0 -77 -78 -77h-234v-84q0 -19 6.5 -25.5t25.5 -6.5h431q21 0 29.5 8t8.5 30zM2032 622v-59h-136v-563h-138v90q-9 -12 -35 -12h-524q-78 0 -78 78v156h278q20 0 26.5 6.5t6.5 25.5v50q0 19 -6.5 25.5t-26.5 6.5h-444q1 -6 1 -19v-329
q0 -78 -78 -78h-698q-77 0 -77 78v172q0 53 50 56v4q-50 1 -50 56v166q0 23 11 31h-134v59h2052z" />
    <glyph glyph-name="uni091B094D0935" horiz-adv-x="1059" 
d="M666 485v78h-394q-19 0 -25 -6t-6 -26v-160q0 -20 6 -26t25 -6h138v-59h-138q-19 0 -25 -6t-6 -26v-131q0 -20 6 -26t25 -6h532q19 0 25.5 6.5t6.5 25.5v277q0 20 -6 26t-26 6h-187q-20 0 -26.5 -6.5t-6.5 -25.5v-110q0 -19 6.5 -25.5t26.5 -6.5h97v-59h-177
q-78 0 -78 78v136q0 78 78 78h129zM435 -134h200q19 0 26.5 7t7.5 27v126h-234q-20 0 -26 -6t-6 -25v-97q0 -20 6.5 -26t25.5 -6zM1079 563h-286v-78h88q78 0 78 -78v-303q0 -78 -78 -78h-91v-261h-121v51q-11 -9 -32 -9h-288q-77 0 -77 77v112q0 23 10 30h-102
q-77 0 -77 78v146q0 53 50 56v4q-50 1 -50 56v166q0 23 11 31h-134v59h1099v-59z" />
    <glyph glyph-name="uni091C094D0915" horiz-adv-x="1808" 
d="M1829 563h-494v-87q11 9 32 9h279q78 0 78 -78v-251q0 -78 -78 -78h-261v59h169q20 0 26 6.5t6 25.5v225q0 20 -6 26t-26 6h-185q-19 0 -26.5 -7t-7.5 -27v-392h-137v87q-10 -9 -32 -9h-280q-77 0 -77 78v251q0 13 1 19h-179v-270q0 -78 -78 -78h-376q-78 0 -78 78v329
h134v-316q0 -19 6.5 -25.5t25.5 -6.5h199q20 0 26 6.5t6 25.5v316h652v-59h-170q-19 0 -25 -6t-6 -26v-225q0 -20 6 -26t25 -6h186q20 0 27 7.5t7 26.5v392h-1218v59h1849v-59z" />
    <glyph glyph-name="uni091C094D091C" horiz-adv-x="1797" 
d="M1817 622v-59h-136v-563h-138v426h-190v-270q0 -78 -78 -78h-376q-78 0 -78 78v270h-190v-270q0 -78 -78 -78h-376q-78 0 -78 78v329h134v-316q0 -19 6.5 -25.5t25.5 -6.5h199q20 0 26 6.5t6 25.5v316h459v-316q0 -19 6.5 -25.5t25.5 -6.5h199q20 0 26 6.5t6 25.5v316
h325v78h-1563v59h1837z" />
    <glyph glyph-name="uni091C094D091D" horiz-adv-x="1819" 
d="M1566 331v232h-193v-137h-392q-19 0 -25.5 -6t-6.5 -26v-31q0 -19 6.5 -25.5t25.5 -6.5h585zM1839 622v-59h-136v-563h-137v272h-194q1 -6 1 -19v-97q0 -78 -77 -78h-349v-78h-141v190h141v-53h256q19 0 25.5 6.5t6.5 25.5v70q0 20 -6.5 26.5t-25.5 6.5h-314
q-78 0 -78 77v58q0 13 1 19h-181v-270q0 -78 -78 -78h-376q-78 0 -78 78v329h134v-316q0 -19 6.5 -25.5t25.5 -6.5h199q20 0 26 6.5t6 25.5v316h739v78h-1255v59h1859z" />
    <glyph glyph-name="uni091C094D091F" horiz-adv-x="1461" 
d="M1335 426h-354q-19 0 -25.5 -6t-6.5 -26v-303q0 -19 6.5 -25.5t25.5 -6.5h214q19 0 25.5 6.5t6.5 25.5v153h138v-166q0 -78 -78 -78h-398q-78 0 -78 78v329q0 13 1 19h-181v-270q0 -78 -78 -78h-376q-78 0 -78 78v329h134v-316q0 -19 6.5 -25.5t25.5 -6.5h199
q20 0 26 6.5t6 25.5v316h702v78h-1218v59h1501v-59h-146v-137z" />
    <glyph glyph-name="uni091C094D0921" horiz-adv-x="1441" 
d="M1328 426h-351q-19 0 -25.5 -6t-6.5 -26v-51q0 -19 6.5 -25.5t25.5 -6.5h297q78 0 78 -78v-155q0 -78 -78 -78h-387q-77 0 -77 78v94h138v-81q0 -19 6 -25.5t26 -6.5h202q20 0 26 6.5t6 25.5v128q0 20 -6.5 26.5t-25.5 6.5h-298q-77 0 -77 77v78q0 13 1 19h-177v-270
q0 -78 -78 -78h-376q-78 0 -78 78v329h134v-316q0 -19 6.5 -25.5t25.5 -6.5h199q20 0 26 6.5t6 25.5v316h695v78h-1211v59h1483v-59h-135v-137z" />
    <glyph glyph-name="uni091C094D0924" horiz-adv-x="1505" 
d="M1525 622v-59h-136v-563h-137v426h-274q-20 0 -26 -6t-6 -26v-303q0 -19 6 -25.5t26 -6.5h116v-59h-208q-78 0 -78 78v329q0 13 1 19h-178v-270q0 -78 -78 -78h-376q-78 0 -78 78v329h134v-316q0 -19 6.5 -25.5t25.5 -6.5h199q20 0 26 6.5t6 25.5v316h756v78h-1272v59
h1545z" />
    <glyph glyph-name="uni091C094D0926" horiz-adv-x="1469" 
d="M1346 426h-372q-19 0 -25 -6t-6 -26v-225q0 -20 6 -26t25 -6h210q20 0 27 7.5t7 26.5v95h138v-266h-138v87q-10 -9 -32 -9h-304q-77 0 -77 78v251q0 13 1 19h-175v-270q0 -78 -78 -78h-376q-78 0 -78 78v329h134v-316q0 -19 6.5 -25.5t25.5 -6.5h199q20 0 26 6.5t6 25.5
v316h712v78h-1228v59h1509v-59h-143v-137z" />
    <glyph glyph-name="uni091C094D092C" horiz-adv-x="1550" 
d="M976 137h286q11 0 15 1l-337 246q4 -58 4 -106v-109q0 -19 6.5 -25.5t25.5 -6.5zM1570 622v-59h-136v-563h-138v87q-10 -9 -32 -9h-378q-77 0 -77 78v251q0 13 1 19h-179v-270q0 -78 -78 -78h-376q-78 0 -78 78v329h134v-316q0 -19 6.5 -25.5t25.5 -6.5h199q20 0 26 6.5
t6 25.5v316h757v-59h-285l337 -246q-9 46 -9 135v248h-1316v59h1590z" />
    <glyph glyph-name="uni091C094D092E" horiz-adv-x="1794" 
d="M1540 485v78h-195v-78h195zM1207 169v257h-237q-20 0 -26 -6t-6 -26v-225q0 -19 6 -25.5t26 -6.5h205q19 0 25.5 6.5t6.5 25.5zM1814 622v-59h-136v-563h-138v426h-195v-270q0 -78 -78 -78h-382q-78 0 -78 78v251q0 13 1 19h-177v-270q0 -78 -78 -78h-376q-78 0 -78 78
v329h134v-316q0 -19 6.5 -25.5t25.5 -6.5h199q20 0 26 6.5t6 25.5v316h711v78h-1227v59h1834z" />
    <glyph glyph-name="uni091C094D092F" horiz-adv-x="1725" 
d="M828 426h-197v-270q0 -78 -78 -78h-376q-78 0 -78 78v329h134v-316q0 -19 6.5 -25.5t25.5 -6.5h199q20 0 26 6.5t6 25.5v316h332v-59zM1472 175v388h-202q12 -7 12 -31v-145q0 -78 -78 -78h-238v-140q0 -19 6 -25.5t26 -6.5h435q21 0 30 8.5t9 29.5zM1745 622v-59h-136
v-563h-137v91q-10 -13 -36 -13h-530q-78 0 -78 78v212h285q19 0 25 6.5t6 25.5v131q0 20 -6 26t-25 6h-1133v59h1765z" />
    <glyph glyph-name="uni091C094D0935" horiz-adv-x="1496" 
d="M1516 622v-59h-137v-563h-137v87q-10 -9 -32 -9h-309q-78 0 -78 78v251q0 13 1 19h-193v-270q0 -78 -78 -78h-376q-78 0 -78 78v329h134v-316q0 -19 6.5 -25.5t25.5 -6.5h199q20 0 26 6.5t6 25.5v316h696v-59h-199q-19 0 -25.5 -6t-6.5 -26v-225q0 -19 6.5 -25.5
t25.5 -6.5h215q20 0 27 7.5t7 26.5v392h-1262v59h1536z" />
    <glyph glyph-name="uni091D094D092E" horiz-adv-x="1840" 
d="M1586 485v78h-195v-78h195zM1253 169v257h-237q-20 0 -26 -6t-6 -26v-225q0 -19 6 -25.5t26 -6.5h205q19 0 25.5 6.5t6.5 25.5zM853 331v76q0 78 78 78h322v78h-598v-137h-392q-19 0 -25.5 -6t-6.5 -26v-31q0 -19 6.5 -25.5t25.5 -6.5h590zM1860 622v-59h-136v-563h-138
v426h-195v-270q0 -78 -78 -78h-382q-78 0 -78 78v116h-196q1 -6 1 -19v-97q0 -78 -77 -78h-352v-78h-141v190h141v-53h259q20 0 26.5 6.5t6.5 25.5v70q0 19 -6.5 26t-26.5 7h-317q-78 0 -78 77v58q0 78 78 78h347v78h-538v59h1880z" />
    <glyph glyph-name="uni091D094D092F" horiz-adv-x="1744" 
d="M1491 175v388h-201q12 -7 12 -31v-145q0 -78 -78 -78h-239v-140q0 -19 6.5 -25.5t25.5 -6.5h435q22 0 30.5 8t8.5 30zM847 331v37h285q19 0 25.5 6.5t6.5 25.5v131q0 19 -6 25.5t-26 6.5h-477v-137h-392q-19 0 -25.5 -6t-6.5 -26v-31q0 -19 6.5 -25.5t25.5 -6.5h584z
M1765 622v-59h-137v-563h-137v91q-9 -13 -35 -13h-531q-78 0 -78 78v116h-190q1 -6 1 -19v-97q0 -78 -77 -78h-352v-78h-141v190h141v-53h259q20 0 26.5 6.5t6.5 25.5v70q0 19 -6.5 26t-26.5 7h-317q-78 0 -78 77v58q0 78 78 78h347v78h-538v59h1785z" />
    <glyph glyph-name="uni091E094D091B" horiz-adv-x="1753" 
d="M1336 485v78h-366q-19 0 -25 -6t-6 -26v-160q0 -20 6 -26t25 -6h138v-59h-138q-19 0 -25 -6t-6 -26v-157q0 -20 6 -26t25 -6h529q20 0 26.5 6.5t6.5 25.5v303q0 19 -6.5 25.5t-26.5 6.5h-187q-20 0 -26 -6t-6 -26v-130q0 -20 6 -26t26 -6h97v-59h-177q-78 0 -78 78v156
q0 78 78 78h104zM1773 563h-305v-78h108q78 0 78 -78v-329q0 -78 -78 -78h-698q-77 0 -77 78v169h-198v-91q0 -78 -77 -78h-396q-78 0 -78 78v113h138v-100q0 -19 6 -25.5t26 -6.5h212q20 0 26 6.5t6 25.5v225q0 20 -6 26t-26 6h-207v59h299q77 0 77 -78v-101h248v4
q-50 1 -50 56v166q0 23 11 31h-832v59h1793v-59z" />
    <glyph glyph-name="uni091E094D091C" horiz-adv-x="1771" 
d="M1791 622v-59h-136v-563h-138v426h-190v-270q0 -78 -78 -78h-376q-78 0 -78 78v103h-192v-103q0 -78 -77 -78h-396q-78 0 -78 78v113h138v-100q0 -19 6 -25.5t26 -6.5h212q20 0 26 6.5t6 25.5v225q0 20 -6 26t-26 6h-207v59h299q77 0 77 -78v-89h192v167h134v-316
q0 -19 6.5 -25.5t25.5 -6.5h199q20 0 26 6.5t6 25.5v316h325v78h-1537v59h1811z" />
    <glyph glyph-name="uni091E094D0936" horiz-adv-x="1789" 
d="M603 622v-59h-623v59h623zM876 622h381q77 0 77 -78v-201q0 -78 -77 -78h-323v-174q0 -19 6 -25.5t26 -6.5h196q20 0 26 6.5t6 25.5v106h138v-119q0 -78 -78 -78h-380q-78 0 -78 78v187h-193v-109q0 -78 -77 -78h-396q-78 0 -78 78v113h138v-100q0 -19 6 -25.5t26 -6.5
h212q20 0 26 6.5t6 25.5v225q0 20 -6 26t-26 6h-207v59h299q77 0 77 -78v-83h193v49h138v-49h230q20 0 26.5 6.5t6.5 25.5v175q0 19 -6.5 25.5t-26.5 6.5h-197q-19 0 -25.5 -6.5t-6.5 -25.5v-83h-137v96q0 78 78 78zM1809 622v-59h-136v-563h-138v622h274z" />
    <glyph glyph-name="uni091F094D091F" horiz-adv-x="775" 
d="M649 426h-377q-20 0 -26 -6t-6 -26v-130q0 -19 6.5 -25t25.5 -6h227q19 0 25.5 6t6.5 25v63h138v-76q0 -63 -52 -75v-135h-345q-19 0 -25.5 -6t-6.5 -25v-130q0 -20 6 -26t26 -6h227q19 0 25.5 6t6.5 26v62h138v-76q0 -77 -78 -77h-411q-78 0 -78 77v156q0 78 78 78h302
v74h-302q-78 0 -78 77v156q0 78 78 78h332v78h-532v59h815v-59h-146v-137z" />
    <glyph glyph-name="uni091F094D0920" horiz-adv-x="782" 
d="M534 -107v115q0 19 -6.5 25t-25.5 6h-234q-19 0 -25.5 -6t-6.5 -25v-115q0 -19 6 -25.5t26 -6.5h234q20 0 26 6.5t6 25.5zM649 426h-377q-20 0 -26 -6t-6 -26v-130q0 -19 6.5 -25t25.5 -6h227q19 0 25.5 6t6.5 25v63h138v-76q0 -77 -78 -77h-139v-77h139q78 0 78 -77
v-140q0 -77 -78 -77h-411q-79 0 -79 77v140q0 77 79 77h138v77h-138q-78 0 -78 77v156q0 78 78 78h332v78h-532v59h822v-59h-153v-137z" />
    <glyph glyph-name="uni091F094D092F" horiz-adv-x="1695" 
d="M1441 175v388h-817v-78h550q78 0 78 -78v-77q0 -77 -78 -77h-234v-84q0 -19 6 -25.5t26 -6.5h431q21 0 29.5 8t8.5 30zM1715 622v-59h-136v-563h-138v90q-9 -12 -35 -12h-524q-78 0 -78 78v156h278q20 0 26 6t6 26v50q0 20 -6 26t-26 6h-812q-20 0 -26 -6t-6 -26v-303
q0 -19 6 -25.5t26 -6.5h214q20 0 26 6.5t6 25.5v153h136v-166q0 -78 -77 -78h-397q-78 0 -78 78v329q0 78 78 78h309v78h-507v59h1735z" />
    <glyph glyph-name="uni091F094D0935" horiz-adv-x="780" 
d="M515 172h-249q-19 0 -25.5 -6t-6.5 -25v-90q0 -19 6.5 -25.5t25.5 -6.5h215q19 0 26.5 7.5t7.5 26.5v119zM648 426h-378q-20 0 -26 -6t-6 -26v-131q0 -19 6 -25.5t26 -6.5h239q19 0 25 6t6 26v60h138v-73q0 -60 -43 -73v-258h-120v50q-11 -9 -32 -9h-303q-78 0 -78 78
v106q0 53 50 55v4q-50 3 -50 56v148q0 78 78 78h331v78h-531v59h820v-59h-152v-137z" />
    <glyph glyph-name="uni0920094D092F" horiz-adv-x="1720" 
d="M1466 175v388h-1011v-78h744q78 0 78 -78v-77q0 -77 -78 -77h-234v-84q0 -19 6.5 -25.5t25.5 -6.5h431q21 0 29.5 8t8.5 30zM540 91v303q0 20 -6 26t-26 6h-242q-20 0 -26 -6t-6 -26v-303q0 -19 6 -25.5t26 -6.5h242q20 0 26 6.5t6 25.5zM1740 622v-59h-136v-563h-138v90
q-9 -12 -35 -12h-524q-78 0 -78 78v156h278q19 0 25.5 6t6.5 26v50q0 20 -6.5 26t-25.5 6h-434q1 -6 1 -19v-329q0 -78 -77 -78h-419q-78 0 -78 78v329q0 78 78 78h139v78h-337v59h1760z" />
    <glyph glyph-name="uni0921094D0921" horiz-adv-x="740" 
d="M626 426h-361q-19 0 -25.5 -6t-6.5 -26v-10q0 -20 6.5 -26t25.5 -6h307q77 0 77 -77v-73q0 -77 -77 -77h-303q-19 0 -25.5 -6.5t-6.5 -25.5v-11q0 -19 6 -25t26 -6h306q78 0 78 -78v-74q0 -78 -78 -78h-394q-78 0 -78 78v42h137v-29q0 -19 7 -25.5t26 -6.5h210
q19 0 25.5 6t6.5 26v48q0 20 -6.5 26t-25.5 6h-306q-78 0 -78 77v20q0 55 51 56v5q-51 0 -51 55v46h138v-35q0 -20 6.5 -26t25.5 -6h210q20 0 26.5 6.5t6.5 25.5v45q0 19 -6.5 25.5t-26.5 6.5h-306q-78 0 -78 78v36q0 78 78 78h315v78h-508v59h780v-59h-134v-137z" />
    <glyph glyph-name="uni0921094D0922" horiz-adv-x="740" 
d="M626 426h-361q-19 0 -25.5 -6t-6.5 -26v-13q0 -19 6 -25t26 -6h307q78 0 78 -78v-77q0 -77 -78 -77h-303q-19 0 -25.5 -6.5t-6.5 -24.5v-174q0 -19 6.5 -25t25.5 -6h216q19 0 25.5 6t6.5 25v41q0 20 -6.5 26t-25.5 6h-48v61h131q77 0 77 -78v-69q0 -77 -77 -77h-391
q-78 0 -78 77v183q0 53 51 55v4q-51 2 -51 56v46h138v-35q0 -19 6.5 -25.5t25.5 -6.5h211q20 0 26 6.5t6 25.5v49q0 20 -6.5 26.5t-25.5 6.5h-307q-78 0 -78 77v39q0 78 78 78h315v78h-508v59h780v-59h-134v-137z" />
    </font>
</defs>
</svg>
