<?xml version="1.0" standalone="no"?>
<!DOCTYPE svg PUBLIC "-//W3C//DTD SVG 1.1//EN" "http://www.w3.org/Graphics/SVG/1.1/DTD/svg11.dtd" >
<svg xmlns="http://www.w3.org/2000/svg" xmlns:xlink="http://www.w3.org/1999/xlink" version="1.1">
<metadata>
Created by FontForge 20201107 at Fri May  5 14:18:59 2017
 By www-data
Copyright (c) 2014 Indian Type Foundry (info@indiantypefoundry.com)
</metadata>
<defs>
<font id="Sarpanch-Medium" horiz-adv-x="370" >
  <font-face 
    font-family="Sarpanch Medium"
    font-weight="500"
    font-stretch="normal"
    units-per-em="1000"
    panose-1="0 0 6 0 0 0 0 0 0 0"
    ascent="800"
    descent="-200"
    x-height="485"
    cap-height="622"
    bbox="-568 -483 3236 996"
    underline-thickness="50"
    underline-position="-100"
    unicode-range="U+000D-FB02"
  />
<missing-glyph horiz-adv-x="488" 
 />
    <glyph glyph-name="fi" unicode="fi" horiz-adv-x="627" 
d="M542 485v-485h-107v426h-194v-426h-107v426h-72v59h72v105q0 79 79 79h170v-62h-111q-20 0 -25.5 -5.5t-5.5 -25.5v-91h301zM434 669h109v-78h-109v78z" />
    <glyph glyph-name="fl" unicode="fl" horiz-adv-x="628" 
d="M435 669h107v-669h-107v426h-194v-426h-107v426h-72v59h72v105q0 79 79 79h171v-62h-112q-20 0 -25.5 -5.5t-5.5 -25.5v-91h194v184z" />
    <glyph glyph-name=".notdef" horiz-adv-x="488" 
 />
    <glyph glyph-name=".null" horiz-adv-x="0" 
 />
    <glyph glyph-name="nonmarkingreturn" horiz-adv-x="333" 
 />
    <glyph glyph-name="NULL" horiz-adv-x="0" 
 />
    <glyph glyph-name="NULL" horiz-adv-x="0" 
 />
    <glyph glyph-name="CR" unicode="&#xd;" horiz-adv-x="0" 
 />
    <glyph glyph-name="space" unicode=" " horiz-adv-x="274" 
 />
    <glyph glyph-name="exclam" unicode="!" horiz-adv-x="295" 
d="M84 622h127l-19 -422h-88zM87 0v120h120v-120h-120z" />
    <glyph glyph-name="quotedbl" unicode="&#x22;" horiz-adv-x="372" 
d="M59 622h97v-225h-97v225zM216 622h97v-225h-97v225z" />
    <glyph glyph-name="numbersign" unicode="#" horiz-adv-x="949" 
d="M581 228l55 165h-253l-55 -165h253zM891 393h-160l-55 -165h168v-68h-190l-53 -160h-95l53 160h-253l-53 -160h-94l53 160h-155v68h177l55 165h-185v69h207l53 160h94l-53 -160h253l53 160h95l-53 -160h138v-69z" />
    <glyph glyph-name="dollar" unicode="$" horiz-adv-x="653" 
d="M214 343h284q79 0 79 -79v-185q0 -79 -79 -79h-122v-91h-106v91h-116q-79 0 -79 79v101h110v-90q0 -20 5.5 -25.5t25.5 -5.5h222q20 0 25.5 5.5t5.5 25.5v163q0 19 -5.5 25t-25.5 6h-286q-79 0 -79 79v180q0 79 79 79h118v92h106v-92h119q79 0 79 -79v-101h-109v90
q0 20 -5.5 25.5t-25.5 5.5h-220q-20 0 -25.5 -5.5t-5.5 -25.5v-158q0 -20 5.5 -25.5t25.5 -5.5z" />
    <glyph glyph-name="percent" unicode="%" horiz-adv-x="1101" 
d="M1045 271v-205q0 -66 -63 -66h-240q-63 0 -63 66v205q0 66 63 66h240q63 0 63 -66zM959 79v179q0 17 -4.5 22t-21.5 5h-142q-17 0 -21.5 -5t-4.5 -22v-179q0 -18 4.5 -23t21.5 -5h142q17 0 21.5 5t4.5 23zM735 622h95l-468 -622h-94zM421 555v-204q0 -66 -62 -66h-240
q-63 0 -63 66v204q0 66 63 66h240q62 0 62 -66zM336 363v179q0 18 -4.5 23t-21.5 5h-142q-17 0 -21.5 -5t-4.5 -23v-179q0 -17 4.5 -22t21.5 -5h142q17 0 21.5 5t4.5 22z" />
    <glyph glyph-name="ampersand" unicode="&#x26;" horiz-adv-x="844" 
d="M212 59h344l-229 189l-103 -38q-25 -9 -34 -22t-9 -37v-61q0 -20 5.5 -25.5t25.5 -5.5zM520 446v86q0 20 -6 25.5t-25 5.5h-196q-19 0 -25 -5.5t-6 -25.5v-79q0 -35 28 -63q12 -12 22 -20q40 -32 44 -36l104 38q33 12 46.5 28t13.5 46zM154 0q-79 0 -79 79v84
q0 39 16.5 60t59.5 36l113 41l-10 9q-35 28 -39.5 32.5t-16.5 15t-15.5 15.5t-10.5 14.5t-9 17.5q-7 26 -7 38v101q0 79 79 79h312q79 0 79 -79v-91q0 -52 -20.5 -80.5t-67.5 -45.5l-119 -44l265 -222q15 4 15 30v138h87v-145q0 -57 -40 -75l64 -53h-128l-54 45h-474z" />
    <glyph glyph-name="quotesingle" unicode="'" horiz-adv-x="219" 
d="M59 622h101v-225h-101v225z" />
    <glyph glyph-name="parenleft" unicode="(" horiz-adv-x="344" 
d="M93 147v204q0 366 267 366h35v-59h-27q-166 -9 -166 -295v-228q0 -286 166 -295h27v-59h-35q-267 0 -267 366z" />
    <glyph glyph-name="parenright" unicode=")" horiz-adv-x="344" 
d="M251 351v-204q0 -366 -267 -366h-35v59h27q166 9 166 295v228q0 286 -166 295h-27v59h35q267 0 267 -366z" />
    <glyph glyph-name="asterisk" unicode="*" horiz-adv-x="477" 
d="M196 652h87v-64q0 -35 -9 -69q22 17 60 29l61 21l26 -83l-61 -20q-33 -11 -66 -11q29 -25 45 -49l38 -52l-70 -51l-38 52q-18 27 -32 60q-10 -28 -32 -59l-37 -51l-70 51l37 51q19 27 47 49q-25 1 -65 12l-61 20l27 83l60 -20q28 -9 62 -29q-9 31 -9 66v64z" />
    <glyph glyph-name="plus" unicode="+" horiz-adv-x="656" 
d="M598 350v-78h-217v-157h-105v157h-217v78h217v156h105v-156h217z" />
    <glyph glyph-name="comma" unicode="," horiz-adv-x="229" 
d="M59 -138v263h120v-67l-80 -196h-40z" />
    <glyph glyph-name="hyphen" unicode="-" horiz-adv-x="407" 
d="M59 242v59h288v-59h-288z" />
    <glyph glyph-name="period" unicode="." horiz-adv-x="239" 
d="M59 0v120h120v-120h-120z" />
    <glyph glyph-name="slash" unicode="/" horiz-adv-x="407" 
d="M391 699h103l-414 -835h-102z" />
    <glyph glyph-name="zero" unicode="0" horiz-adv-x="684" 
d="M598 543v-464q0 -79 -79 -79h-355q-79 0 -79 79v464q0 79 79 79h355q79 0 79 -79zM489 90v442q0 20 -5.5 25.5t-25.5 5.5h-231q-19 0 -25 -5.5t-6 -25.5v-442q0 -20 6 -25.5t25 -5.5h231q20 0 25.5 5.5t5.5 25.5z" />
    <glyph glyph-name="one" unicode="1" horiz-adv-x="350" 
d="M265 622v-622h-112v563h-126v59h238z" />
    <glyph glyph-name="two" unicode="2" horiz-adv-x="627" 
d="M168 532v-122h-110v133q0 79 79 79h351q79 0 79 -79v-54q0 -58 -11.5 -89.5t-49.5 -66.5l-300 -274h365v-59h-513v58l338 308q33 31 47 58t14 68v40q0 20 -5.5 25.5t-25.5 5.5h-227q-19 0 -25 -5.5t-6 -25.5z" />
    <glyph glyph-name="three" unicode="3" horiz-adv-x="663" 
d="M184 532v-104h-109v115q0 79 79 79h354q79 0 79 -79v-172q0 -52 -45 -55q45 -5 45 -54v-183q0 -79 -79 -79h-354q-79 0 -79 79v114h109v-103q0 -20 6 -25.5t25 -5.5h231q20 0 25.5 5.5t5.5 25.5v164q0 20 -5.5 25.5t-25.5 5.5h-173v60h173q20 0 25.5 5.5t5.5 25.5v156
q0 20 -5.5 25.5t-25.5 5.5h-231q-19 0 -25 -5.5t-6 -25.5z" />
    <glyph glyph-name="four" unicode="4" horiz-adv-x="662" 
d="M643 160v-59h-113v-101h-104v101h-389v64l291 457h115l-289 -462h272v168h104v-168h113z" />
    <glyph glyph-name="five" unicode="5" horiz-adv-x="642" 
d="M200 379h306q79 0 79 -79v-221q0 -79 -79 -79h-342q-79 0 -79 79v119h110v-108q0 -20 5.5 -25.5t25.5 -5.5h218q20 0 25.5 5.5t5.5 25.5v199q0 19 -5.5 25t-25.5 6h-357v302h488v-59h-375v-184z" />
    <glyph glyph-name="six" unicode="6" horiz-adv-x="659" 
d="M474 90v175q0 19 -6 25t-25 6h-247v-206q0 -20 6 -25.5t25 -5.5h216q19 0 25 5.5t6 25.5zM196 355h308q79 0 79 -79v-197q0 -79 -79 -79h-340q-79 0 -79 79v464q0 79 79 79h336q79 0 79 -79v-115h-109v104q0 20 -6 25.5t-25 5.5h-212q-19 0 -25 -5.5t-6 -25.5v-177z" />
    <glyph glyph-name="seven" unicode="7" horiz-adv-x="525" 
d="M507 622v-57l-272 -565h-116l271 563h-353v59h470z" />
    <glyph glyph-name="eight" unicode="8" horiz-adv-x="668" 
d="M164 622h341q79 0 79 -79v-176q0 -52 -45 -55q45 -5 45 -54v-179q0 -79 -79 -79h-341q-79 0 -79 79v179q0 49 45 54q-45 3 -45 55v176q0 79 79 79zM194 252v-162q0 -20 6 -25.5t25 -5.5h219q20 0 25.5 5.5t5.5 25.5v162q0 20 -5.5 25.5t-25.5 5.5h-219q-19 0 -25 -5.5
t-6 -25.5zM475 374v158q0 20 -5.5 25.5t-25.5 5.5h-219q-19 0 -25 -5.5t-6 -25.5v-158q0 -20 6 -25.5t25 -5.5h219q20 0 25.5 5.5t5.5 25.5z" />
    <glyph glyph-name="nine" unicode="9" horiz-adv-x="664" 
d="M222 318h246v214q0 20 -6 25.5t-25 5.5h-215q-20 0 -25.5 -5.5t-5.5 -25.5v-183q0 -19 5.5 -25t25.5 -6zM159 622h340q79 0 79 -79v-464q0 -79 -79 -79h-334q-79 0 -79 79v107h110v-96q0 -20 6 -25.5t25 -5.5h210q19 0 25 5.5t6 25.5v169h-309q-79 0 -79 79v205
q0 79 79 79z" />
    <glyph glyph-name="colon" unicode=":" horiz-adv-x="239" 
d="M59 75v119h120v-119h-120zM59 291v119h120v-119h-120z" />
    <glyph glyph-name="semicolon" unicode=";" horiz-adv-x="229" 
d="M59 365v120h120v-120h-120zM59 -138v263h120v-67l-80 -196h-40z" />
    <glyph glyph-name="less" unicode="&#x3c;" horiz-adv-x="672" 
d="M616 403l-485 -92l485 -93v-85l-577 133v92l577 130v-85z" />
    <glyph glyph-name="equal" unicode="=" horiz-adv-x="691" 
d="M76 362v80h539v-80h-539zM76 179v80h539v-80h-539z" />
    <glyph glyph-name="greater" unicode="&#x3e;" horiz-adv-x="672" 
d="M541 311l-485 92v85l577 -130v-92l-577 -133v85z" />
    <glyph glyph-name="question" unicode="?" horiz-adv-x="584" 
d="M212 0v120h120v-120h-120zM108 622h343q79 0 79 -77v-199q0 -78 -79 -78h-128l-5 -68h-90l-8 129h173q18 0 23.5 6.5t5.5 25.5v170q0 19 -5.5 26t-23.5 7h-227q-19 0 -24 -7t-5 -26v-98h-108v112q0 77 79 77z" />
    <glyph glyph-name="at" unicode="@" horiz-adv-x="1113" 
d="M408 426h190q42 0 52 -31v31h96v-308h167q18 0 23.5 5.5t5.5 23.5v325q0 19 -5.5 24.5t-23.5 5.5h-701q-19 0 -24.5 -5.5t-5.5 -24.5v-454q0 -18 5.5 -23.5t24.5 -5.5h666v-61h-717q-75 0 -75 75v485q0 75 75 75h801q75 0 75 -75v-354q0 -75 -75 -75h-305v62
q-7 -43 -59 -43h-190q-74 0 -74 75v198q0 75 74 75zM430 338v-172q0 -18 5 -23.5t24 -5.5h159q17 0 24.5 7t7.5 25v166q0 18 -7.5 25t-24.5 7h-159q-19 0 -24 -5.5t-5 -23.5z" />
    <glyph glyph-name="A" unicode="A" horiz-adv-x="694" 
d="M207 182h278l-139 369zM554 0l-46 123h-323l-46 -123h-108l240 622h151l241 -622h-109z" />
    <glyph glyph-name="B" unicode="B" horiz-adv-x="699" 
d="M95 622h440q79 0 79 -79v-177q0 -53 -46 -56q46 -5 46 -53v-178q0 -79 -79 -79h-440v622zM507 88v163q0 19 -5.5 25t-25.5 6h-271v-223h269q20 0 26.5 5.5t6.5 23.5zM507 372v160q0 20 -5.5 25.5t-25.5 5.5h-271v-222h271q20 0 25.5 5.5t5.5 25.5z" />
    <glyph glyph-name="C" unicode="C" horiz-adv-x="653" 
d="M595 410h-110v122q0 20 -5.5 25.5t-25.5 5.5h-227q-19 0 -25 -5.5t-6 -25.5v-442q0 -20 6 -25.5t25 -5.5h227q20 0 25.5 5.5t5.5 25.5v122h110v-133q0 -79 -79 -79h-352q-79 0 -79 79v464q0 79 79 79h352q79 0 79 -79v-133z" />
    <glyph glyph-name="D" unicode="D" horiz-adv-x="701" 
d="M505 90v442q0 20 -5.5 25.5t-25.5 5.5h-269v-504h269q20 0 25.5 5.5t5.5 25.5zM95 622h442q79 0 79 -79v-464q0 -79 -79 -79h-442v622z" />
    <glyph glyph-name="E" unicode="E" horiz-adv-x="594" 
d="M207 59h341v-59h-453v622h439v-59h-327v-215h286v-59h-286v-230z" />
    <glyph glyph-name="F" unicode="F" horiz-adv-x="564" 
d="M535 563h-328v-239h289v-59h-289v-265h-112v622h440v-59z" />
    <glyph glyph-name="G" unicode="G" horiz-adv-x="672" 
d="M596 431h-110v101q0 20 -6 25.5t-25 5.5h-228q-19 0 -25 -5.5t-6 -25.5v-442q0 -20 6 -25.5t25 -5.5h229q20 0 25.5 5.5t5.5 25.5v171h-155v59h264v-241q0 -79 -79 -79h-353q-79 0 -79 79v464q0 79 79 79h353q79 0 79 -79v-112z" />
    <glyph glyph-name="H" unicode="H" horiz-adv-x="749" 
d="M544 622h111v-622h-111v282h-339v-282h-110v622h110v-281h339v281z" />
    <glyph glyph-name="I" unicode="I" horiz-adv-x="320" 
d="M104 622h112v-622h-112v622z" />
    <glyph glyph-name="J" unicode="J" horiz-adv-x="600" 
d="M37 222h111v-132q0 -20 6 -25.5t25 -5.5h194q19 0 25 5.5t6 25.5v532h111v-543q0 -79 -79 -79h-320q-79 0 -79 79v143z" />
    <glyph glyph-name="K" unicode="K" horiz-adv-x="679" 
d="M517 622h129l-293 -304l305 -318h-132l-300 318zM95 622h107v-622h-107v622z" />
    <glyph glyph-name="L" unicode="L" horiz-adv-x="547" 
d="M204 59h316v-59h-425v622h109v-563z" />
    <glyph glyph-name="M" unicode="M" horiz-adv-x="874" 
d="M191 0h-96v622h118l220 -404l228 404h119v-622h-97v497l-205 -362h-89l-198 362v-497z" />
    <glyph glyph-name="N" unicode="N" horiz-adv-x="724" 
d="M529 622h101v-622h-105l-329 503v-503h-101v622h109l325 -499v499z" />
    <glyph glyph-name="O" unicode="O" horiz-adv-x="674" 
d="M589 543v-464q0 -79 -79 -79h-346q-79 0 -79 79v464q0 79 79 79h346q79 0 79 -79zM480 90v442q0 20 -6 25.5t-25 5.5h-223q-20 0 -25.5 -5.5t-5.5 -25.5v-442q0 -20 5.5 -25.5t25.5 -5.5h223q19 0 25 5.5t6 25.5z" />
    <glyph glyph-name="P" unicode="P" horiz-adv-x="673" 
d="M508 293v239q0 20 -6 25.5t-25 5.5h-273v-301h273q19 0 25 6t6 25zM95 622h443q79 0 79 -79v-261q0 -79 -79 -79h-334v-203h-109v622z" />
    <glyph glyph-name="Q" unicode="Q" horiz-adv-x="640" 
d="M177 532v-442q0 -20 5.5 -25.5t25.5 -5.5h225q19 0 25 5.5t6 25.5v442q0 20 -6 25.5t-25 5.5h-225q-20 0 -25.5 -5.5t-5.5 -25.5zM147 0q-79 0 -79 79v464q0 79 79 79h346q79 0 79 -79v-464q0 -79 -79 -79h-37l117 -97h-132l-112 97h-182z" />
    <glyph glyph-name="R" unicode="R" horiz-adv-x="693" 
d="M204 563v-281h274q20 0 25.5 6t5.5 25v219q0 20 -5.5 25.5t-25.5 5.5h-274zM204 223v-223h-109v622h444q79 0 79 -79v-241q0 -79 -79 -79h-57l141 -223h-114l-137 223h-168z" />
    <glyph glyph-name="S" unicode="S" horiz-adv-x="654" 
d="M470 90v163q0 19 -6 25t-25 6h-285q-79 0 -79 79v180q0 79 79 79h343q79 0 79 -79v-103h-110v92q0 20 -6 25.5t-25 5.5h-219q-20 0 -25.5 -5.5t-5.5 -25.5v-158q0 -20 5.5 -25.5t25.5 -5.5h284q79 0 79 -79v-185q0 -79 -79 -79h-344q-79 0 -79 79v103h110v-92
q0 -20 5.5 -25.5t25.5 -5.5h221q19 0 25 5.5t6 25.5z" />
    <glyph glyph-name="T" unicode="T" horiz-adv-x="570" 
d="M561 622v-59h-221v-563h-110v563h-221v59h552z" />
    <glyph glyph-name="U" unicode="U" horiz-adv-x="690" 
d="M195 622v-532q0 -20 5.5 -25.5t25.5 -5.5h239q19 0 25 5.5t6 25.5v532h108v-543q0 -79 -79 -79h-361q-79 0 -79 79v543h110z" />
    <glyph glyph-name="V" unicode="V" horiz-adv-x="695" 
d="M552 622h110l-241 -622h-148l-240 622h111l203 -548z" />
    <glyph glyph-name="W" unicode="W" horiz-adv-x="1064" 
d="M922 622h108l-210 -622h-144l-145 501l-145 -501h-143l-209 622h111l170 -545l158 545h117l156 -545z" />
    <glyph glyph-name="X" unicode="X" horiz-adv-x="676" 
d="M401 320l245 -320h-121l-187 249l-190 -249h-118l245 316l-235 306h121l177 -235l175 235h118z" />
    <glyph glyph-name="Y" unicode="Y" horiz-adv-x="645" 
d="M383 0h-110v203l-265 419h111l208 -341l199 341h110l-253 -419v-203z" />
    <glyph glyph-name="Z" unicode="Z" horiz-adv-x="632" 
d="M576 622v-59l-395 -504h385v-59h-510v59l395 504h-384v59h509z" />
    <glyph glyph-name="bracketleft" unicode="[" horiz-adv-x="328" 
d="M367 661h-163v-822h163v-59h-273v940h273v-59z" />
    <glyph glyph-name="backslash" unicode="\" horiz-adv-x="399" 
d="M-87 699h103l414 -835h-103z" />
    <glyph glyph-name="bracketright" unicode="]" horiz-adv-x="328" 
d="M234 720v-940h-273v59h163v822h-163v59h273z" />
    <glyph glyph-name="asciicircum" unicode="^" horiz-adv-x="648" 
d="M260 668h128l210 -340h-108l-165 274l-167 -274h-107z" />
    <glyph glyph-name="underscore" unicode="_" horiz-adv-x="589" 
d="M1 -59v59h586v-59h-586z" />
    <glyph glyph-name="grave" unicode="`" horiz-adv-x="468" 
d="M294 651l140 -145h-102l-164 145h126z" />
    <glyph glyph-name="a" unicode="a" horiz-adv-x="634" 
d="M214 59h194q18 0 26 7.5t8 26.5v299q0 19 -8 26.5t-26 7.5h-194q-20 0 -25.5 -6t-5.5 -25v-305q0 -20 5.5 -25.5t25.5 -5.5zM442 485h107v-485h-107v31q-13 -31 -55 -31h-232q-79 0 -79 79v327q0 79 79 79h232q42 0 55 -31v31z" />
    <glyph glyph-name="b" unicode="b" horiz-adv-x="634" 
d="M452 90v305q0 19 -6 25t-25 6h-194q-18 0 -26 -7.5t-8 -26.5v-33h-1v-242h1v-24q0 -19 8 -26.5t26 -7.5h194q19 0 25 5.5t6 25.5zM248 485h231q79 0 79 -79v-327q0 -79 -79 -79h-231q-45 0 -56 33v-33h-107v669h107v-217q11 33 56 33z" />
    <glyph glyph-name="c" unicode="c" horiz-adv-x="595" 
d="M538 324h-106v71q0 19 -6 25t-25 6h-187q-20 0 -25.5 -6t-5.5 -25v-305q0 -20 5.5 -25.5t25.5 -5.5h187q19 0 25 5.5t6 25.5v71h106v-82q0 -79 -79 -79h-304q-79 0 -79 79v327q0 79 79 79h304q79 0 79 -79v-82z" />
    <glyph glyph-name="d" unicode="d" horiz-adv-x="634" 
d="M214 59h194q18 0 26 7.5t8 26.5v299q0 19 -8 26.5t-26 7.5h-194q-20 0 -25.5 -6t-5.5 -25v-305q0 -20 5.5 -25.5t25.5 -5.5zM442 669h107v-669h-107v31q-13 -31 -55 -31h-232q-79 0 -79 79v327q0 79 79 79h232q42 0 55 -31v215z" />
    <glyph glyph-name="e" unicode="e" horiz-adv-x="626" 
d="M183 278h271v117q0 19 -6 25t-25 6h-209q-20 0 -25.5 -6t-5.5 -25v-117zM155 485h325q79 0 79 -79v-187h-376v-129q0 -20 5.5 -25.5t25.5 -5.5h207q19 0 25 5.5t6 25.5v51h105v-62q0 -79 -79 -79h-323q-79 0 -79 79v327q0 79 79 79z" />
    <glyph glyph-name="f" unicode="f" horiz-adv-x="381" 
d="M371 607h-108q-19 0 -25 -5.5t-6 -25.5v-91h139v-59h-139v-426h-107v426h-72v59h72v105q0 79 79 79h167v-62z" />
    <glyph glyph-name="g" unicode="g" horiz-adv-x="626" 
d="M214 59h194q18 0 26 7.5t8 26.5v299q0 19 -8 26.5t-26 7.5h-194q-20 0 -25.5 -6t-5.5 -25v-305q0 -20 5.5 -25.5t25.5 -5.5zM549 17h1v-79q0 -79 -79 -79h-376v59h317q20 0 25.5 6t5.5 25v57h-1v25q-13 -31 -55 -31h-232q-79 0 -79 79v327q0 79 79 79h232q42 0 55 -31v31
h107v-468z" />
    <glyph glyph-name="h" unicode="h" horiz-adv-x="635" 
d="M248 485h232q79 0 79 -79v-406h-106v395q0 19 -5.5 25t-25.5 6h-195q-18 0 -26 -7.5t-8 -26.5v-31h-1v-361h-107v669h107v-217q11 33 56 33z" />
    <glyph glyph-name="i" unicode="i" horiz-adv-x="295" 
d="M201 0h-107v485h107v-485zM92 578v92h112v-92h-112z" />
    <glyph glyph-name="j" unicode="j" horiz-adv-x="287" 
d="M94 -51v536h108v-547q0 -79 -79 -79h-161v59h101q19 0 25 6t6 25zM92 578v92h112v-92h-112z" />
    <glyph glyph-name="k" unicode="k" horiz-adv-x="614" 
d="M85 0v669h107v-669h-107zM593 485l-249 -240l249 -245h-131l-244 245l245 240h130z" />
    <glyph glyph-name="l" unicode="l" horiz-adv-x="296" 
d="M201 0h-106v669h106v-669z" />
    <glyph glyph-name="m" unicode="m" horiz-adv-x="971" 
d="M607 485h209q79 0 79 -79v-406h-106v395q0 19 -5.5 25t-25.5 6h-173q-35 0 -35 -36v-390h-107v395q0 19 -5.5 25t-25.5 6h-185q-19 0 -27 -7.5t-8 -26.5v-392h-107v485h107v-33q11 33 55 33h224q58 0 73 -41q12 41 63 41z" />
    <glyph glyph-name="n" unicode="n" horiz-adv-x="634" 
d="M248 485h231q79 0 79 -79v-406h-106v395q0 19 -6 25t-25 6h-194q-18 0 -26 -7.5t-8 -26.5v-32h-1v-360h-107v485h107v-33q11 33 56 33z" />
    <glyph glyph-name="o" unicode="o" horiz-adv-x="628" 
d="M446 90v305q0 19 -6 25t-25 6h-202q-19 0 -25 -6t-6 -25v-305q0 -20 6 -25.5t25 -5.5h202q19 0 25 5.5t6 25.5zM155 485h318q79 0 79 -79v-327q0 -79 -79 -79h-318q-79 0 -79 79v327q0 79 79 79z" />
    <glyph glyph-name="p" unicode="p" horiz-adv-x="643" 
d="M460 90v305q0 19 -6 25t-25 6h-202q-19 0 -27 -7.5t-8 -26.5v-299q0 -19 8 -26.5t27 -7.5h202q19 0 25 5.5t6 25.5zM247 485h241q79 0 79 -79v-327q0 -79 -79 -79h-241q-44 0 -55 33v-174h-107v626h106v-36q12 36 56 36z" />
    <glyph glyph-name="q" unicode="q" horiz-adv-x="637" 
d="M244 59h203q18 0 26 7.5t8 26.5v299q0 19 -8 26.5t-26 7.5h-203q-20 0 -25.5 -6t-5.5 -25v-305q0 -20 5.5 -25.5t25.5 -5.5zM482 485h106v-626h-107v172q-13 -31 -55 -31h-241q-79 0 -79 79v327q0 79 79 79h241q45 0 56 -33v33z" />
    <glyph glyph-name="r" unicode="r" horiz-adv-x="382" 
d="M277 485h95v-62h-113q-67 0 -67 -75v-348h-107v485h107v-62q17 62 85 62z" />
    <glyph glyph-name="s" unicode="s" horiz-adv-x="584" 
d="M412 89v92q0 19 -6 25t-25 6h-228q-79 0 -79 79v115q0 79 79 79h283q79 0 79 -79v-56h-104v46q0 20 -5.5 25.5t-25.5 5.5h-169q-19 0 -25 -5.5t-6 -25.5v-94q0 -20 6 -25.5t25 -5.5h228q79 0 79 -79v-113q0 -79 -79 -79h-284q-79 0 -79 79v56h105v-46q0 -19 5.5 -25
t25.5 -6h169q19 0 25 6t6 25z" />
    <glyph glyph-name="t" unicode="t" horiz-adv-x="375" 
d="M337 426h-117v-332q0 -20 6 -25.5t25 -5.5h85v-63h-144q-79 0 -79 79v347h-78v59h78v90h107v-90h117v-59z" />
    <glyph glyph-name="u" unicode="u" horiz-adv-x="634" 
d="M442 485h107v-485h-107v31q-13 -31 -55 -31h-232q-79 0 -79 79v406h107v-395q0 -20 5.5 -25.5t25.5 -5.5h194q18 0 26 7.5t8 26.5v392z" />
    <glyph glyph-name="v" unicode="v" horiz-adv-x="601" 
d="M26 485h106l167 -415l170 415h105l-200 -485h-148z" />
    <glyph glyph-name="w" unicode="w" horiz-adv-x="893" 
d="M765 485h102l-166 -485h-140l-115 402l-112 -402h-140l-168 485h102l138 -415l122 415h119l119 -415z" />
    <glyph glyph-name="x" unicode="x" horiz-adv-x="607" 
d="M366 249l213 -249h-123l-157 183l-165 -183h-104l217 239l-209 246h125l152 -182l157 182h105z" />
    <glyph glyph-name="y" unicode="y" horiz-adv-x="588" 
d="M219 -141h-102v59h66q56 0 75 39l20 43h-38l-209 485h110l168 -413l165 413h108l-231 -532q-21 -49 -48.5 -71.5t-83.5 -22.5z" />
    <glyph glyph-name="z" unicode="z" horiz-adv-x="516" 
d="M462 59v-59h-407v59l291 367h-278v59h392v-59l-292 -367h294z" />
    <glyph glyph-name="braceleft" unicode="{" horiz-adv-x="409" 
d="M287 608v-239q0 -113 -80 -122q39 -4 59.5 -36t20.5 -85v-235q0 -28 9 -40.5t33 -12.5h116v-59h-149q-63 0 -90.5 26.5t-27.5 86.5v219q0 57 -21 82.5t-68 25.5h-17v59h17q47 0 68 25.5t21 82.5v220q0 60 27.5 87t90.5 27h149v-59h-116q-24 0 -33 -12.5t-9 -40.5z" />
    <glyph glyph-name="bar" unicode="|" horiz-adv-x="293" 
d="M95 739h103v-857h-103v857z" />
    <glyph glyph-name="braceright" unicode="}" horiz-adv-x="411" 
d="M124 369v239q0 28 -9 40.5t-33 12.5h-116v59h149q63 0 90.5 -27t27.5 -87v-220q0 -57 21.5 -82.5t68.5 -25.5h16v-59h-16q-47 0 -68.5 -26t-21.5 -82v-219q0 -60 -27.5 -86.5t-90.5 -26.5h-149v59h116q24 0 33 12.5t9 40.5v235q0 53 20.5 85t60.5 36q-81 9 -81 122z" />
    <glyph glyph-name="asciitilde" unicode="~" horiz-adv-x="783" 
d="M312 254q-41 16 -75.5 16t-46.5 -9t-12 -32v-60h-103v86q0 77 77 77h111q71 0 143 -51q26 -19 65 -35t74.5 -16t47.5 10t12 33v59h103v-86q0 -78 -78 -78h-108q-64 0 -140 51q-29 19 -70 35z" />
    <glyph glyph-name="exclamdown" unicode="&#xa1;" horiz-adv-x="281" 
d="M97 284h88l19 -421h-127zM80 485h120v-121h-120v121z" />
    <glyph glyph-name="cent" unicode="&#xa2;" horiz-adv-x="593" 
d="M537 324h-106v71q0 19 -5.5 25t-25.5 6h-187q-19 0 -25 -6t-6 -25v-305q0 -20 6 -25.5t25 -5.5h187q20 0 25.5 5.5t5.5 25.5v71h106v-82q0 -79 -79 -79h-102v-77h-105v77h-97q-79 0 -79 79v327q0 79 79 79h97v76h105v-76h102q79 0 79 -79v-82z" />
    <glyph glyph-name="sterling" unicode="&#xa3;" horiz-adv-x="696" 
d="M641 73v-73h-568v66q78 3 78 108v98h-87v59h87v212q0 79 79 79h319q79 0 79 -79v-109h-109v98q0 20 -5.5 25.5t-25.5 5.5h-196q-20 0 -25.5 -5.5t-5.5 -25.5v-201h282v-59h-282v-91q0 -49 -6 -73t-25 -35h411z" />
    <glyph glyph-name="currency" unicode="&#xa4;" horiz-adv-x="728" 
d="M255 169h225q31 0 42 9t11 39v158q0 31 -11 41.5t-42 10.5h-225q-32 0 -42.5 -10.5t-10.5 -41.5v-158q0 -31 10.5 -39.5t42.5 -8.5zM624 387v-177q0 -28 -7 -46l46 -46l-63 -63l-58 57q-18 -2 -30 -2h-291q-19 0 -34 3l-59 -58l-63 63l51 50q-6 18 -6 42v177q0 24 6 42
l-51 50l63 64l60 -59q20 2 33 2h291q11 0 29 -2l59 59l63 -64l-46 -46q7 -18 7 -46z" />
    <glyph glyph-name="yen" unicode="&#xa5;" horiz-adv-x="715" 
d="M622 328v-59h-164l-40 -66v-3h204v-59h-204v-141h-110v141h-206v59h206v3l-42 66h-164v59h127l-186 294h112l207 -341l199 341h111l-178 -294h128z" />
    <glyph glyph-name="brokenbar" unicode="&#xa6;" horiz-adv-x="275" 
d="M87 249h102v-367h-102v367zM189 372h-102v367h102v-367z" />
    <glyph glyph-name="section" unicode="&#xa7;" horiz-adv-x="665" 
d="M539 150v-111q0 -79 -79 -79h-277q-79 0 -79 79v54h109v-43q0 -20 5.5 -25.5t25.5 -5.5h157q19 0 24.5 6t5.5 25v91q0 19 -5.5 25t-24.5 6h-216q-79 0 -79 79v87q0 73 51 85q-20 20 -20 48v114q0 79 79 79h278q79 0 79 -79v-54h-108v43q0 20 -5.5 25.5t-25.5 5.5h-157
q-19 0 -25 -5.5t-6 -25.5v-92q0 -20 6 -25.5t25 -5.5h216q79 0 79 -79v-89q0 -72 -52 -83q19 -21 19 -50zM432 392h-187q-19 0 -25 -6t-6 -25v-99q0 -20 6 -25.5t25 -5.5h187q20 0 25.5 5.5t5.5 25.5v99q0 19 -5.5 25t-25.5 6z" />
    <glyph glyph-name="dieresis" unicode="&#xa8;" horiz-adv-x="614" 
d="M371 629h139v-90h-139v90zM103 629h139v-90h-139v90z" />
    <glyph glyph-name="copyright" unicode="&#xa9;" horiz-adv-x="1050" 
d="M966 341v-67q0 -141 -56 -207.5t-185 -66.5h-400q-129 0 -185 66.5t-56 207.5v67q0 142 56.5 211.5t184.5 69.5h400q128 0 184.5 -69.5t56.5 -211.5zM336 60h378q85 0 120.5 54t35.5 156v75q0 219 -156 219h-378q-156 0 -156 -219v-75q0 -102 35.5 -156t120.5 -54z
M630 240v29h90v-40q0 -79 -79 -79h-231q-79 0 -79 79v175q0 79 79 79h231q79 0 79 -79v-40h-90v29q0 19 -6 25t-25 6h-146q-19 0 -25 -6t-6 -25v-153q0 -20 6 -25.5t25 -5.5h146q19 0 25 5.5t6 25.5z" />
    <glyph glyph-name="ordfeminine" unicode="&#xaa;" horiz-adv-x="433" 
d="M154 323h113q26 0 26 23v210q0 24 -26 24h-113q-14 0 -18.5 -4t-4.5 -18v-213q0 -14 4.5 -18t18.5 -4zM293 622h75v-342h-75v25q-9 -25 -40 -25h-140q-56 0 -56 56v230q0 56 56 56h140q31 0 40 -25v25z" />
    <glyph glyph-name="guillemotleft" unicode="&#xab;" horiz-adv-x="560" 
d="M228 103l-127 154l127 154h114l-128 -154l128 -154h-114zM360 103l-127 154l127 154h115l-128 -154l128 -154h-115z" />
    <glyph glyph-name="logicalnot" unicode="&#xac;" horiz-adv-x="752" 
d="M689 397v-238h-75v148h-553v90h628z" />
    <glyph glyph-name="uni00AD" unicode="&#xad;" horiz-adv-x="338" 
d="M55 258v59h228v-59h-228z" />
    <glyph glyph-name="registered" unicode="&#xae;" horiz-adv-x="620" 
d="M562 529v-37q0 -79 -32 -116.5t-105 -37.5h-230q-73 0 -105 37.5t-32 116.5v37q0 79 32 118t105 39h230q73 0 105 -39t32 -118zM202 380h217q81 0 81 109v43q0 115 -81 115h-217q-82 0 -82 -115v-43q0 -109 82 -109zM215 611h149q34 0 34 -32v-58q0 -32 -30 -32h-9
l48 -72h-57l-46 70h-36v-70h-53v194zM345 534v32q0 11 -11 11h-66v-53h66q11 0 11 10z" />
    <glyph glyph-name="macron" unicode="&#xaf;" horiz-adv-x="614" 
d="M120 550v58h374v-58h-374z" />
    <glyph glyph-name="degree" unicode="&#xb0;" horiz-adv-x="565" 
d="M506 545v-137q0 -77 -78 -77h-291q-77 0 -77 77v137q0 77 77 77h291q78 0 78 -77zM406 419v116q0 19 -6 25t-25 6h-183q-20 0 -25.5 -6t-5.5 -25v-116q0 -19 5.5 -25t25.5 -6h183q19 0 25 6t6 25z" />
    <glyph glyph-name="plusminus" unicode="&#xb1;" horiz-adv-x="690" 
d="M74 120v69h539v-69h-539zM394 394h219v-73h-219v-92h-101v92h-219v73h219v112h101v-112z" />
    <glyph glyph-name="twosuperior" unicode="&#xb2;" horiz-adv-x="382" 
d="M132 563v-53h-69v69q0 43 43 43h187q43 0 43 -43v-40q0 -65 -42 -100l-141 -114h180v-45h-268v44l168 143q32 27 32 74v22q0 11 -3 14t-14 3h-99q-11 0 -14 -3t-3 -14z" />
    <glyph glyph-name="threesuperior" unicode="&#xb3;" horiz-adv-x="408" 
d="M135 563v-48h-70v64q0 43 43 43h194q44 0 44 -43v-95q0 -28 -25 -30q25 -3 25 -30v-101q0 -43 -44 -43h-194q-43 0 -43 43v64h70v-47q0 -11 3 -14.5t14 -3.5h105q11 0 14 3.5t3 14.5v75q0 11 -3 14t-14 3h-97v43h97q11 0 14 3t3 14v71q0 11 -3 14t-14 3h-105
q-10 0 -13.5 -3t-3.5 -14z" />
    <glyph glyph-name="acute" unicode="&#xb4;" horiz-adv-x="614" 
d="M169 506l140 145h126l-164 -145h-102z" />
    <glyph glyph-name="uni00B5" unicode="&#xb5;" horiz-adv-x="644" 
d="M452 485h107v-485h-107v33q-11 -33 -56 -33h-204v-141h-107v626h107v-395q0 -20 6 -25.5t25 -5.5h194q19 0 27 7.5t8 26.5v392z" />
    <glyph glyph-name="paragraph" unicode="&#xb6;" horiz-adv-x="743" 
d="M427 622v-763h-99v365h-175q-79 0 -79 79v240q0 79 79 79h274zM551 622h99v-763h-99v763z" />
    <glyph glyph-name="periodcentered" unicode="&#xb7;" horiz-adv-x="273" 
d="M78 254v121h119v-121h-119z" />
    <glyph glyph-name="cedilla" unicode="&#xb8;" horiz-adv-x="614" 
d="M329 -128v79h101v-86q0 -87 -87 -87h-163v58h115q19 0 26.5 8t7.5 28z" />
    <glyph glyph-name="onesuperior" unicode="&#xb9;" horiz-adv-x="250" 
d="M183 622v-342h-75v300h-81v42h156z" />
    <glyph glyph-name="ordmasculine" unicode="&#xba;" horiz-adv-x="435" 
d="M367 569v-236q0 -53 -53 -53h-195q-54 0 -54 53v236q0 53 54 53h195q53 0 53 -53zM294 343v217q0 13 -4 16.5t-17 3.5h-114q-13 0 -17 -3.5t-4 -16.5v-217q0 -13 4 -17t17 -4h114q13 0 17 4t4 17z" />
    <glyph glyph-name="guillemotright" unicode="&#xbb;" horiz-adv-x="553" 
d="M457 257l-127 -154h-114l128 154l-128 154h114zM325 257l-127 -154h-115l128 154l-128 154h115z" />
    <glyph glyph-name="questiondown" unicode="&#xbf;" horiz-adv-x="621" 
d="M401 484v-120h-120v120h120zM477 51h108v-112q0 -77 -79 -77h-343q-79 0 -79 77v199q0 78 79 78h128l5 68h89l9 -129h-174q-18 0 -23 -6.5t-5 -25.5v-170q0 -19 5 -26t23 -7h228q19 0 24 7t5 26v98z" />
    <glyph glyph-name="Agrave" unicode="&#xc0;" horiz-adv-x="693" 
d="M383 670h-101l-164 144h126zM207 182h278l-139 369zM554 0l-46 123h-323l-46 -123h-109l241 622h150l242 -622h-109z" />
    <glyph glyph-name="Aacute" unicode="&#xc1;" horiz-adv-x="693" 
d="M571 815l-164 -145h-102l140 145h126zM207 182h278l-139 369zM554 0l-46 123h-323l-46 -123h-108l240 622h151l241 -622h-109z" />
    <glyph glyph-name="Acircumflex" unicode="&#xc2;" horiz-adv-x="693" 
d="M346 768l-109 -99h-118l169 146h116l169 -146h-117zM207 182h278l-139 369zM554 0l-46 123h-323l-46 -123h-108l240 622h151l241 -622h-109z" />
    <glyph glyph-name="Atilde" unicode="&#xc3;" horiz-adv-x="693" 
d="M230 725v-56h-90v60q0 78 73 78h24q33 0 120 -39.5t102.5 -39.5t19.5 5t4 19v55h89v-60q0 -38 -16.5 -58t-55.5 -20h-27q-34 0 -119.5 39.5t-105.5 39.5q-18 0 -18 -23zM207 182h278l-139 369zM554 0l-46 123h-323l-46 -123h-108l240 622h151l241 -622h-109z" />
    <glyph glyph-name="Adieresis" unicode="&#xc4;" horiz-adv-x="693" 
d="M551 760v-91h-138v91h138zM283 760v-91h-138v91h138zM207 182h278l-139 369zM554 0l-46 123h-323l-46 -123h-109l241 622h150l242 -622h-109z" />
    <glyph glyph-name="Aring" unicode="&#xc5;" horiz-adv-x="693" 
d="M258 766v-20q0 -18 5 -23t24 -5h119q19 0 24 5t5 23v20q0 18 -5 23t-24 5h-119q-19 0 -24 -5t-5 -23zM440 669h-187q-68 0 -68 68v38q0 68 68 68h187q68 0 68 -68v-38q0 -68 -68 -68zM207 182h278l-139 369zM554 0l-46 123h-323l-46 -123h-108l240 622h151l241 -622h-109
z" />
    <glyph glyph-name="AE" unicode="&#xc6;" horiz-adv-x="1026" 
d="M528 201v344l-242 -344h242zM639 59h331v-59h-442v142h-283l-100 -142h-118l443 622h487v-59h-318v-215h286v-59h-286v-230z" />
    <glyph glyph-name="Ccedilla" unicode="&#xc7;" horiz-adv-x="651" 
d="M281 -128v79h101v-86q0 -87 -87 -87h-163v58h115q19 0 26.5 8t7.5 28zM594 410h-110v122q0 20 -6 25.5t-25 5.5h-227q-20 0 -25.5 -5.5t-5.5 -25.5v-442q0 -20 5.5 -25.5t25.5 -5.5h227q19 0 25 5.5t6 25.5v122h110v-133q0 -79 -79 -79h-352q-79 0 -79 79v464q0 79 79 79
h352q79 0 79 -79v-133z" />
    <glyph glyph-name="Egrave" unicode="&#xc8;" horiz-adv-x="593" 
d="M370 669h-102l-164 145h126zM206 59h341v-59h-453v622h439v-59h-327v-215h286v-59h-286v-230z" />
    <glyph glyph-name="Eacute" unicode="&#xc9;" horiz-adv-x="593" 
d="M542 814l-164 -145h-102l140 145h126zM206 59h341v-59h-453v622h439v-59h-327v-215h286v-59h-286v-230z" />
    <glyph glyph-name="Ecircumflex" unicode="&#xca;" horiz-adv-x="593" 
d="M320 768l-109 -99h-118l169 146h116l169 -146h-117zM206 289v-230h341v-59h-453v622h439v-59h-327v-215h286v-59h-286z" />
    <glyph glyph-name="Edieresis" unicode="&#xcb;" horiz-adv-x="603" 
d="M517 760v-91h-138v91h138zM249 760v-91h-138v91h138zM207 59h340v-59h-453v622h439v-59h-326v-215h285v-59h-285v-230z" />
    <glyph glyph-name="Igrave" unicode="&#xcc;" horiz-adv-x="315" 
d="M103 622h112v-622h-112v622zM59 814l140 -145h-102l-164 145h126z" />
    <glyph glyph-name="Iacute" unicode="&#xcd;" horiz-adv-x="315" 
d="M103 622h112v-622h-112v622zM114 669l140 145h126l-164 -145h-102z" />
    <glyph glyph-name="Icircumflex" unicode="&#xce;" horiz-adv-x="315" 
d="M103 622h112v-622h-112v622zM-63 670l169 146h116l169 -146h-117l-110 99l-109 -99h-118z" />
    <glyph glyph-name="Idieresis" unicode="&#xcf;" horiz-adv-x="315" 
d="M103 622h111v-622h-111v622zM-45 760h139v-91h-139v91zM223 760h139v-91h-139v91z" />
    <glyph glyph-name="Eth" unicode="&#xd0;" horiz-adv-x="717" 
d="M522 90v442q0 20 -6 25.5t-25 5.5h-267v-219h187v-61h-187v-224h267q19 0 25 5.5t6 25.5zM113 622h441q79 0 79 -79v-464q0 -79 -79 -79h-441v283h-55v61h55v278z" />
    <glyph glyph-name="Ntilde" unicode="&#xd1;" horiz-adv-x="723" 
d="M528 622h101v-622h-105l-329 503v-503h-101v622h109l325 -499v499zM255 748q-18 0 -18 -23v-56h-90v60q0 78 73 78h24q33 0 120 -39.5t102.5 -39.5t19.5 5t4 19v55h89v-60q0 -38 -16.5 -58t-55.5 -20h-27q-34 0 -119.5 39.5t-105.5 39.5z" />
    <glyph glyph-name="Ograve" unicode="&#xd2;" horiz-adv-x="674" 
d="M589 543v-464q0 -79 -79 -79h-346q-79 0 -79 79v464q0 79 79 79h346q79 0 79 -79zM480 90v442q0 20 -6 25.5t-25 5.5h-223q-20 0 -25.5 -5.5t-5.5 -25.5v-442q0 -20 5.5 -25.5t25.5 -5.5h223q19 0 25 5.5t6 25.5zM252 814l140 -145h-102l-164 145h126z" />
    <glyph glyph-name="Oacute" unicode="&#xd3;" horiz-adv-x="674" 
d="M296 669l140 145h126l-164 -145h-102zM589 543v-464q0 -79 -79 -79h-346q-79 0 -79 79v464q0 79 79 79h346q79 0 79 -79zM480 90v442q0 20 -6 25.5t-25 5.5h-223q-20 0 -25.5 -5.5t-5.5 -25.5v-442q0 -20 5.5 -25.5t25.5 -5.5h223q19 0 25 5.5t6 25.5z" />
    <glyph glyph-name="Ocircumflex" unicode="&#xd4;" horiz-adv-x="674" 
d="M110 669l169 146h116l169 -146h-117l-110 99l-109 -99h-118zM589 543v-464q0 -79 -79 -79h-346q-79 0 -79 79v464q0 79 79 79h346q79 0 79 -79zM480 90v442q0 20 -6 25.5t-25 5.5h-223q-20 0 -25.5 -5.5t-5.5 -25.5v-442q0 -20 5.5 -25.5t25.5 -5.5h223q19 0 25 5.5
t6 25.5z" />
    <glyph glyph-name="Otilde" unicode="&#xd5;" horiz-adv-x="674" 
d="M589 543v-464q0 -79 -79 -79h-346q-79 0 -79 79v464q0 79 79 79h346q79 0 79 -79zM480 90v442q0 20 -6 25.5t-25 5.5h-223q-20 0 -25.5 -5.5t-5.5 -25.5v-442q0 -20 5.5 -25.5t25.5 -5.5h223q19 0 25 5.5t6 25.5zM226 748q-18 0 -18 -23v-56h-90v60q0 78 73 78h24
q33 0 120 -39.5t102.5 -39.5t19.5 5t4 19v55h89v-60q0 -38 -16.5 -58t-55.5 -20h-27q-34 0 -119.5 39.5t-105.5 39.5z" />
    <glyph glyph-name="Odieresis" unicode="&#xd6;" horiz-adv-x="670" 
d="M589 543v-464q0 -79 -79 -79h-346q-79 0 -79 79v464q0 79 79 79h346q79 0 79 -79zM480 90v442q0 20 -6 25.5t-25 5.5h-224q-19 0 -25 -5.5t-6 -25.5v-442q0 -20 6 -25.5t25 -5.5h224q19 0 25 5.5t6 25.5zM403 760h139v-91h-139v91zM135 760h139v-91h-139v91z" />
    <glyph glyph-name="multiply" unicode="&#xd7;" horiz-adv-x="660" 
d="M583 439l-177 -123l172 -121l-53 -64l-192 134l-193 -134l-52 65l172 120l-177 123l53 65l196 -137l197 137z" />
    <glyph glyph-name="Oslash" unicode="&#xd8;" horiz-adv-x="706" 
d="M505 87v385l-292 -414q4 -2 17 -2h244q20 0 25.5 6t5.5 25zM199 535v-389l296 417q-7 3 -21 3h-244q-20 0 -25.5 -6t-5.5 -25zM612 543v-464q0 -79 -79 -79h-361l-17 -24h-76l32 46q-17 20 -17 57v464q0 79 79 79h363l17 24h75l-33 -47q17 -20 17 -56z" />
    <glyph glyph-name="Ugrave" unicode="&#xd9;" horiz-adv-x="690" 
d="M195 622v-532q0 -20 5.5 -25.5t25.5 -5.5h239q19 0 25 5.5t6 25.5v532h108v-543q0 -79 -79 -79h-361q-79 0 -79 79v543h110zM268 814l140 -145h-102l-164 145h126z" />
    <glyph glyph-name="Uacute" unicode="&#xda;" horiz-adv-x="690" 
d="M299 669l140 145h126l-164 -145h-102zM195 622v-532q0 -20 5.5 -25.5t25.5 -5.5h239q19 0 25 5.5t6 25.5v532h108v-543q0 -79 -79 -79h-361q-79 0 -79 79v543h110z" />
    <glyph glyph-name="Ucircumflex" unicode="&#xdb;" horiz-adv-x="690" 
d="M116 669l169 146h116l169 -146h-117l-110 99l-109 -99h-118zM195 622v-532q0 -20 5.5 -25.5t25.5 -5.5h239q19 0 25 5.5t6 25.5v532h108v-543q0 -79 -79 -79h-361q-79 0 -79 79v543h110z" />
    <glyph glyph-name="Udieresis" unicode="&#xdc;" horiz-adv-x="690" 
d="M496 622h109v-543q0 -79 -79 -79h-362q-79 0 -79 79v543h110v-532q0 -20 5.5 -25.5t25.5 -5.5h239q19 0 25 5.5t6 25.5v532zM137 760h139v-91h-139v91zM405 760h139v-91h-139v91z" />
    <glyph glyph-name="Yacute" unicode="&#xdd;" horiz-adv-x="644" 
d="M558 814l-164 -145h-102l140 145h126zM383 0h-110v203l-265 419h111l208 -341l199 341h110l-253 -419v-203z" />
    <glyph glyph-name="Thorn" unicode="&#xde;" horiz-adv-x="673" 
d="M499 192v238q0 20 -5.5 25.5t-25.5 5.5h-263v-300h263q20 0 25.5 5.5t5.5 25.5zM205 520h323q79 0 79 -79v-260q0 -79 -79 -79h-323v-102h-110v622h110v-102z" />
    <glyph glyph-name="germandbls" unicode="&#xdf;" horiz-adv-x="830" 
d="M323 152h105v-63q0 -19 6 -25t25 -6h180q19 0 25 6t6 25v112q0 19 -6 25t-25 6h-238q-79 0 -79 79v75q0 79 75 79h197q23 0 29.5 5t6.5 22v37q0 20 -6 26t-25 6h-364q-19 0 -25.5 -6.5t-6.5 -25.5v-529h-108v543q0 79 79 79h485q79 0 79 -79v-68q0 -68 -70 -68h-212
q-20 0 -25.5 -5.5t-5.5 -25.5v-55q0 -19 5.5 -25t25.5 -6h240q79 0 79 -79v-132q0 -79 -79 -79h-294q-79 0 -79 79v73z" />
    <glyph glyph-name="agrave" unicode="&#xe0;" horiz-adv-x="633" 
d="M376 532h-102l-164 145h126zM213 59h194q18 0 26 7.5t8 26.5v299q0 19 -8 26.5t-26 7.5h-194q-19 0 -25 -6t-6 -25v-305q0 -20 6 -25.5t25 -5.5zM441 485h107v-485h-107v31q-13 -31 -55 -31h-232q-79 0 -79 79v327q0 79 79 79h232q42 0 55 -31v31z" />
    <glyph glyph-name="aacute" unicode="&#xe1;" horiz-adv-x="633" 
d="M533 677l-164 -145h-102l140 145h126zM213 59h194q18 0 26 7.5t8 26.5v299q0 19 -8 26.5t-26 7.5h-194q-19 0 -25 -6t-6 -25v-305q0 -20 6 -25.5t25 -5.5zM441 485h107v-485h-107v31q-13 -31 -55 -31h-232q-79 0 -79 79v327q0 79 79 79h232q42 0 55 -31v31z" />
    <glyph glyph-name="acircumflex" unicode="&#xe2;" horiz-adv-x="633" 
d="M314 631l-109 -99h-118l169 146h116l169 -146h-117zM213 59h194q18 0 26 7.5t8 26.5v299q0 19 -8 26.5t-26 7.5h-194q-19 0 -25 -6t-6 -25v-305q0 -20 6 -25.5t25 -5.5zM441 485h107v-485h-107v31q-13 -31 -55 -31h-232q-79 0 -79 79v327q0 79 79 79h232q42 0 55 -31v31z
" />
    <glyph glyph-name="atilde" unicode="&#xe3;" horiz-adv-x="633" 
d="M188 588v-56h-90v60q0 78 73 78h24q33 0 120 -39.5t102.5 -39.5t19.5 5t4 19v55h89v-60q0 -38 -16.5 -58t-55.5 -20h-27q-34 0 -119.5 39.5t-105.5 39.5q-18 0 -18 -23zM213 59h194q18 0 26 7.5t8 26.5v299q0 19 -8 26.5t-26 7.5h-194q-19 0 -25 -6t-6 -25v-305
q0 -20 6 -25.5t25 -5.5zM441 485h107v-485h-107v31q-13 -31 -55 -31h-232q-79 0 -79 79v327q0 79 79 79h232q42 0 55 -31v31z" />
    <glyph glyph-name="adieresis" unicode="&#xe4;" horiz-adv-x="633" 
d="M521 622v-90h-139v90h139zM253 622v-90h-139v90h139zM213 59h194q18 0 26 7.5t8 26.5v299q0 19 -8 26.5t-26 7.5h-194q-19 0 -25 -6t-6 -25v-305q0 -20 6 -25.5t25 -5.5zM441 485h107v-485h-107v31q-13 -31 -55 -31h-232q-79 0 -79 79v327q0 79 79 79h232q42 0 55 -31v31
z" />
    <glyph glyph-name="aring" unicode="&#xe5;" horiz-adv-x="633" 
d="M224 629v-20q0 -17 5 -22.5t24 -5.5h119q19 0 24 5t5 23v20q0 18 -5 23t-24 5h-119q-19 0 -24 -5.5t-5 -22.5zM406 532h-187q-68 0 -68 68v38q0 68 68 68h187q68 0 68 -68v-38q0 -68 -68 -68zM213 59h194q18 0 26 7.5t8 26.5v299q0 19 -8 26.5t-26 7.5h-194q-19 0 -25 -6
t-6 -25v-305q0 -20 6 -25.5t25 -5.5zM441 485h107v-485h-107v31q-13 -31 -55 -31h-232q-79 0 -79 79v327q0 79 79 79h232q42 0 55 -31v31z" />
    <glyph glyph-name="ae" unicode="&#xe6;" horiz-adv-x="974" 
d="M214 59h177q18 0 25.5 6.5t7.5 23.5v127l-241 -54v-72q0 -20 5.5 -25.5t25.5 -5.5zM760 426h-199q-19 0 -25 -6t-6 -25v-117h261v117q0 19 -5.5 25t-25.5 6zM887 219h-357v-129q0 -20 6 -25.5t25 -5.5h196q19 0 25 5.5t6 25.5v50h105v-61q0 -79 -79 -79h-270
q-57 0 -68 38q-11 -38 -74 -38h-247q-79 0 -79 79v121l348 79v117q0 17 -7.5 23.5t-25.5 6.5h-177q-20 0 -25.5 -6t-5.5 -25v-86h-107v97q0 79 79 79h247q63 0 74 -38q11 38 68 38h273q79 0 79 -79v-186h-9v-1z" />
    <glyph glyph-name="ccedilla" unicode="&#xe7;" horiz-adv-x="593" 
d="M253 -128v79h101v-86q0 -87 -87 -87h-163v58h115q19 0 26.5 8t7.5 28zM537 324h-106v71q0 19 -5.5 25t-25.5 6h-187q-19 0 -25 -6t-6 -25v-305q0 -20 6 -25.5t25 -5.5h187q20 0 25.5 5.5t5.5 25.5v71h106v-82q0 -79 -79 -79h-304q-79 0 -79 79v327q0 79 79 79h304
q79 0 79 -79v-82z" />
    <glyph glyph-name="egrave" unicode="&#xe8;" horiz-adv-x="623" 
d="M380 532h-102l-164 145h126zM182 278h271v117q0 19 -5.5 25t-25.5 6h-209q-19 0 -25 -6t-6 -25v-117zM154 485h325q79 0 79 -79v-187h-376v-129q0 -20 6 -25.5t25 -5.5h207q20 0 25.5 5.5t5.5 25.5v51h105v-62q0 -79 -79 -79h-323q-79 0 -79 79v327q0 79 79 79z" />
    <glyph glyph-name="eacute" unicode="&#xe9;" horiz-adv-x="623" 
d="M542 677l-164 -145h-102l140 145h126zM182 278h271v117q0 19 -5.5 25t-25.5 6h-209q-19 0 -25 -6t-6 -25v-117zM154 485h325q79 0 79 -79v-187h-376v-129q0 -20 6 -25.5t25 -5.5h207q20 0 25.5 5.5t5.5 25.5v51h105v-62q0 -79 -79 -79h-323q-79 0 -79 79v327q0 79 79 79z
" />
    <glyph glyph-name="ecircumflex" unicode="&#xea;" horiz-adv-x="623" 
d="M319 631l-109 -99h-118l169 146h116l169 -146h-117zM182 278h271v117q0 19 -5.5 25t-25.5 6h-209q-19 0 -25 -6t-6 -25v-117zM154 485h325q79 0 79 -79v-187h-376v-129q0 -20 6 -25.5t25 -5.5h207q20 0 25.5 5.5t5.5 25.5v51h105v-62q0 -79 -79 -79h-323q-79 0 -79 79
v327q0 79 79 79z" />
    <glyph glyph-name="edieresis" unicode="&#xeb;" horiz-adv-x="623" 
d="M251 623v-91h-139v91h139zM519 623v-91h-139v91h139zM154 485h325q79 0 79 -79v-187h-376v-129q0 -20 6 -25.5t25 -5.5h207q20 0 25.5 5.5t5.5 25.5v51h104v-62q0 -79 -79 -79h-322q-79 0 -79 79v327q0 79 79 79zM182 278h271v117q0 19 -5.5 25t-25.5 6h-209
q-19 0 -25 -6t-6 -25v-117z" />
    <glyph glyph-name="igrave" unicode="&#xec;" horiz-adv-x="295" 
d="M201 0h-107v485h107v-485zM52 677l140 -145h-102l-164 145h126z" />
    <glyph glyph-name="iacute" unicode="&#xed;" horiz-adv-x="295" 
d="M201 0h-107v485h107v-485zM102 532l140 145h126l-164 -145h-102z" />
    <glyph glyph-name="icircumflex" unicode="&#xee;" horiz-adv-x="295" 
d="M201 0h-107v485h107v-485zM-78 532l169 146h116l169 -146h-117l-110 99l-109 -99h-118z" />
    <glyph glyph-name="idieresis" unicode="&#xef;" horiz-adv-x="295" 
d="M201 0h-107v485h107v-485zM216 623h139v-90h-139v90zM-52 623h139v-90h-139v90z" />
    <glyph glyph-name="eth" unicode="&#xf0;" horiz-adv-x="425" 
d="M485 90v229h-253q-20 0 -25.5 -5.5t-5.5 -25.5v-198q0 -20 5.5 -25.5t25.5 -5.5h222q20 0 25.5 5.5t5.5 25.5zM592 315v-236q0 -79 -79 -79h-340q-79 0 -79 79v220q0 79 79 79h303q-15 52 -58 101l-169 -45v56l126 34q-54 48 -137 98h144q48 -33 90 -72l117 31v-56
l-75 -20q78 -92 78 -190z" />
    <glyph glyph-name="ntilde" unicode="&#xf1;" horiz-adv-x="634" 
d="M197 587v-56h-90v60q0 78 73 78h24q33 0 120 -39.5t102.5 -39.5t19.5 5t4 19v55h89v-60q0 -38 -16.5 -58t-55.5 -20h-27q-34 0 -119.5 39.5t-105.5 39.5q-18 0 -18 -23zM248 485h231q79 0 79 -79v-406h-106v395q0 19 -6 25t-25 6h-194q-18 0 -26 -7.5t-8 -26.5v-32h-1
v-360h-107v485h107v-33q11 33 56 33z" />
    <glyph glyph-name="ograve" unicode="&#xf2;" horiz-adv-x="628" 
d="M371 532h-102l-164 145h126zM446 90v305q0 19 -6 25t-25 6h-202q-19 0 -25 -6t-6 -25v-305q0 -20 6 -25.5t25 -5.5h202q19 0 25 5.5t6 25.5zM155 485h318q79 0 79 -79v-327q0 -79 -79 -79h-318q-79 0 -79 79v327q0 79 79 79z" />
    <glyph glyph-name="oacute" unicode="&#xf3;" horiz-adv-x="628" 
d="M542 677l-164 -145h-102l140 145h126zM446 90v305q0 19 -6 25t-25 6h-202q-19 0 -25 -6t-6 -25v-305q0 -20 6 -25.5t25 -5.5h202q19 0 25 5.5t6 25.5zM155 485h318q79 0 79 -79v-327q0 -79 -79 -79h-318q-79 0 -79 79v327q0 79 79 79z" />
    <glyph glyph-name="ocircumflex" unicode="&#xf4;" horiz-adv-x="628" 
d="M315 631l-109 -99h-118l169 146h116l169 -146h-117zM446 90v305q0 19 -6 25t-25 6h-202q-19 0 -25 -6t-6 -25v-305q0 -20 6 -25.5t25 -5.5h202q19 0 25 5.5t6 25.5zM155 485h318q79 0 79 -79v-327q0 -79 -79 -79h-318q-79 0 -79 79v327q0 79 79 79z" />
    <glyph glyph-name="otilde" unicode="&#xf5;" horiz-adv-x="628" 
d="M192 588v-56h-90v60q0 78 73 78h24q33 0 120 -39.5t102.5 -39.5t19.5 5t4 19v55h89v-60q0 -38 -16.5 -58t-55.5 -20h-27q-34 0 -119.5 39.5t-105.5 39.5q-18 0 -18 -23zM446 90v305q0 19 -6 25t-25 6h-202q-19 0 -25 -6t-6 -25v-305q0 -20 6 -25.5t25 -5.5h202
q19 0 25 5.5t6 25.5zM155 485h318q79 0 79 -79v-327q0 -79 -79 -79h-318q-79 0 -79 79v327q0 79 79 79z" />
    <glyph glyph-name="odieresis" unicode="&#xf6;" horiz-adv-x="628" 
d="M155 485h318q79 0 79 -79v-327q0 -79 -79 -79h-318q-79 0 -79 79v327q0 79 79 79zM446 395q0 19 -6 25t-25 6h-202q-19 0 -25 -6t-6 -25v-305q0 -20 6 -25.5t25 -5.5h202q19 0 25 5.5t6 25.5v305zM114 623h139v-91h-139v91zM382 623h139v-91h-139v91z" />
    <glyph glyph-name="divide" unicode="&#xf7;" horiz-adv-x="655" 
d="M56 272v78h539v-78h-539zM271 506h110v-84h-110v84zM271 200h110v-85h-110v85z" />
    <glyph glyph-name="oslash" unicode="&#xf8;" horiz-adv-x="645" 
d="M459 87v273l-251 -305h219q20 0 26 6t6 26zM187 399v-285l259 314q-5 2 -19 2h-208q-20 0 -26 -5.5t-6 -25.5zM561 406v-327q0 -79 -79 -79h-320l-20 -24h-69l34 41q-23 19 -23 62v327q0 79 79 79h329l20 24h70l-38 -46q17 -20 17 -57z" />
    <glyph glyph-name="ugrave" unicode="&#xf9;" horiz-adv-x="634" 
d="M383 532h-102l-164 145h126zM442 485h107v-485h-107v31q-13 -31 -55 -31h-232q-79 0 -79 79v406h107v-395q0 -20 5.5 -25.5t25.5 -5.5h194q18 0 26 7.5t8 26.5v392z" />
    <glyph glyph-name="uacute" unicode="&#xfa;" horiz-adv-x="634" 
d="M531 677l-164 -145h-102l140 145h126zM442 485h107v-485h-107v31q-13 -31 -55 -31h-232q-79 0 -79 79v406h107v-395q0 -20 5.5 -25.5t25.5 -5.5h194q18 0 26 7.5t8 26.5v392z" />
    <glyph glyph-name="ucircumflex" unicode="&#xfb;" horiz-adv-x="634" 
d="M311 631l-109 -99h-118l169 146h116l169 -146h-117zM442 485h107v-485h-107v31q-13 -31 -55 -31h-232q-79 0 -79 79v406h107v-395q0 -20 5.5 -25.5t25.5 -5.5h194q18 0 26 7.5t8 26.5v392z" />
    <glyph glyph-name="udieresis" unicode="&#xfc;" horiz-adv-x="638" 
d="M516 623v-91h-139v91h139zM248 623v-91h-139v91h139zM442 485h107v-485h-107v31q-13 -31 -55 -31h-232q-79 0 -79 79v406h107v-395q0 -20 5.5 -25.5t25.5 -5.5h194q18 0 26 7.5t8 26.5v392z" />
    <glyph glyph-name="yacute" unicode="&#xfd;" horiz-adv-x="587" 
d="M219 -141h-102v59h66q56 0 75 39l20 43h-38l-209 485h110l168 -413l165 413h108l-231 -532q-21 -49 -48.5 -71.5t-83.5 -22.5zM270 532l140 145h126l-164 -145h-102z" />
    <glyph glyph-name="thorn" unicode="&#xfe;" horiz-adv-x="634" 
d="M451 100v304q0 20 -5.5 25.5t-25.5 5.5h-193q-19 0 -27 -7.5t-8 -26.5v-298q0 -19 8 -26.5t27 -7.5h193q20 0 25.5 5.5t5.5 25.5zM247 494h232q79 0 79 -79v-326q0 -79 -79 -79h-232q-44 0 -55 33v-184h-107v810h106v-211q12 36 56 36z" />
    <glyph glyph-name="ydieresis" unicode="&#xff;" horiz-adv-x="594" 
d="M219 -141h-102v59h66q56 0 75 39l20 43h-38l-209 485h109l168 -413l166 413h107l-230 -532q-21 -49 -48.5 -71.5t-83.5 -22.5zM375 623h139v-91h-139v91zM107 623h139v-91h-139v91z" />
    <glyph glyph-name="Amacron" unicode="&#x100;" horiz-adv-x="693" 
d="M535 728v-58h-374v58h374zM207 182h278l-139 369zM554 0l-46 123h-323l-46 -123h-108l240 622h151l241 -622h-109z" />
    <glyph glyph-name="amacron" unicode="&#x101;" horiz-adv-x="633" 
d="M492 591v-58h-374v58h374zM213 59h194q18 0 26 7.5t8 26.5v299q0 19 -8 26.5t-26 7.5h-194q-19 0 -25 -6t-6 -25v-305q0 -20 6 -25.5t25 -5.5zM441 485h107v-485h-107v31q-13 -31 -55 -31h-232q-79 0 -79 79v327q0 79 79 79h232q42 0 55 -31v31z" />
    <glyph glyph-name="Abreve" unicode="&#x102;" horiz-adv-x="693" 
d="M476 669h-259q-79 0 -79 79v60h97v-51q0 -19 5.5 -25t25.5 -6h161q19 0 25 6t6 25v51h97v-60q0 -79 -79 -79zM207 182h278l-139 369zM554 0l-46 123h-323l-46 -123h-108l240 622h151l241 -622h-109z" />
    <glyph glyph-name="abreve" unicode="&#x103;" horiz-adv-x="633" 
d="M443 532h-259q-79 0 -79 79v60h97v-51q0 -20 6 -25.5t25 -5.5h161q20 0 25.5 5.5t5.5 25.5v51h97v-60q0 -79 -79 -79zM213 59h194q18 0 26 7.5t8 26.5v299q0 19 -8 26.5t-26 7.5h-194q-19 0 -25 -6t-6 -25v-305q0 -20 6 -25.5t25 -5.5zM441 485h107v-485h-107v31
q-13 -31 -55 -31h-232q-79 0 -79 79v327q0 79 79 79h232q42 0 55 -31v31z" />
    <glyph glyph-name="Aogonek" unicode="&#x104;" horiz-adv-x="693" 
d="M207 182h278l-139 369zM515 -178h164v-54h-202q-79 0 -79 79v39q0 79 79 79h77v35l-46 123h-323l-46 -123h-108l240 622h151l241 -622h-5v-89h-143q-20 0 -26 -5.5t-6 -24.5v-28q0 -19 6 -25t26 -6z" />
    <glyph glyph-name="aogonek" unicode="&#x105;" horiz-adv-x="633" 
d="M213 59h194q18 0 26 7.5t8 26.5v299q0 19 -8 26.5t-26 7.5h-194q-19 0 -25 -6t-6 -25v-305q0 -20 6 -25.5t25 -5.5zM402 -178h164v-54h-202q-79 0 -79 79v39q0 79 79 79h77v66q-13 -31 -55 -31h-232q-79 0 -79 79v327q0 79 79 79h232q42 0 55 -31v31h107v-485h-3v-89
h-143q-20 0 -26 -5.5t-6 -24.5v-28q0 -19 6 -25t26 -6z" />
    <glyph glyph-name="Cacute" unicode="&#x106;" horiz-adv-x="651" 
d="M551 815l-164 -145h-102l140 145h126zM594 410h-110v122q0 20 -6 25.5t-25 5.5h-227q-20 0 -25.5 -5.5t-5.5 -25.5v-442q0 -20 5.5 -25.5t25.5 -5.5h227q19 0 25 5.5t6 25.5v122h110v-133q0 -79 -79 -79h-352q-79 0 -79 79v464q0 79 79 79h352q79 0 79 -79v-133z" />
    <glyph glyph-name="cacute" unicode="&#x107;" horiz-adv-x="593" 
d="M532 677l-164 -145h-102l140 145h126zM537 324h-106v71q0 19 -5.5 25t-25.5 6h-187q-19 0 -25 -6t-6 -25v-305q0 -20 6 -25.5t25 -5.5h187q20 0 25.5 5.5t5.5 25.5v71h106v-82q0 -79 -79 -79h-304q-79 0 -79 79v327q0 79 79 79h304q79 0 79 -79v-82z" />
    <glyph glyph-name="Ccaron" unicode="&#x10c;" horiz-adv-x="651" 
d="M400 669h-116l-169 145h118l109 -98l110 98h117zM594 410h-110v122q0 20 -6 25.5t-25 5.5h-227q-20 0 -25.5 -5.5t-5.5 -25.5v-442q0 -20 5.5 -25.5t25.5 -5.5h227q19 0 25 5.5t6 25.5v122h110v-133q0 -79 -79 -79h-352q-79 0 -79 79v464q0 79 79 79h352q79 0 79 -79
v-133z" />
    <glyph glyph-name="ccaron" unicode="&#x10d;" horiz-adv-x="593" 
d="M360 532h-116l-169 145h118l109 -98l110 98h117zM537 324h-106v71q0 19 -5.5 25t-25.5 6h-187q-19 0 -25 -6t-6 -25v-305q0 -20 6 -25.5t25 -5.5h187q20 0 25.5 5.5t5.5 25.5v71h106v-82q0 -79 -79 -79h-304q-79 0 -79 79v327q0 79 79 79h304q79 0 79 -79v-82z" />
    <glyph glyph-name="Dcaron" unicode="&#x10e;" horiz-adv-x="702" 
d="M401 669h-116l-169 145h118l109 -98l110 98h117zM506 90v442q0 20 -6 25.5t-25 5.5h-269v-504h269q19 0 25 5.5t6 25.5zM96 622h442q79 0 79 -79v-464q0 -79 -79 -79h-442v622z" />
    <glyph glyph-name="dcaron" unicode="&#x10f;" horiz-adv-x="641" 
d="M441 669h107v-669h-107v31q-13 -31 -55 -31h-232q-79 0 -79 79v327q0 79 79 79h232q42 0 55 -31v215zM638 669h105v-48l-70 -126h-35v174zM213 59h194q18 0 26 7.5t8 26.5v299q0 19 -8 26.5t-26 7.5h-194q-19 0 -25 -6t-6 -25v-305q0 -20 6 -25.5t25 -5.5z" />
    <glyph glyph-name="Dcroat" unicode="&#x110;" horiz-adv-x="755" 
d="M559 90v442q0 20 -5.5 25.5t-25.5 5.5h-268v-219h188v-61h-188v-224h268q20 0 25.5 5.5t5.5 25.5zM150 622h440q79 0 79 -79v-464q0 -79 -79 -79h-440v283h-56v61h56v278z" />
    <glyph glyph-name="dcroat" unicode="&#x111;" horiz-adv-x="634" 
d="M214 59h194q18 0 26 7.5t8 26.5v299q0 19 -8 26.5t-26 7.5h-194q-20 0 -25.5 -6t-5.5 -25v-305q0 -20 5.5 -25.5t25.5 -5.5zM617 599v-59h-68v-540h-107v31q-13 -31 -55 -31h-232q-79 0 -79 79v327q0 79 79 79h232q42 0 55 -31v86h-240v59h240v70h107v-70h68z" />
    <glyph glyph-name="Emacron" unicode="&#x112;" horiz-adv-x="593" 
d="M506 727v-58h-374v58h374zM206 59h341v-59h-453v622h439v-59h-327v-215h286v-59h-286v-230z" />
    <glyph glyph-name="emacron" unicode="&#x113;" horiz-adv-x="623" 
d="M501 591v-58h-374v58h374zM182 278h271v117q0 19 -5.5 25t-25.5 6h-209q-19 0 -25 -6t-6 -25v-117zM154 485h325q79 0 79 -79v-187h-376v-129q0 -20 6 -25.5t25 -5.5h207q20 0 25.5 5.5t5.5 25.5v51h105v-62q0 -79 -79 -79h-323q-79 0 -79 79v327q0 79 79 79z" />
    <glyph glyph-name="Edotaccent" unicode="&#x116;" horiz-adv-x="593" 
d="M395 767v-98h-125v98h125zM206 59h341v-59h-453v622h439v-59h-327v-215h286v-59h-286v-230z" />
    <glyph glyph-name="edotaccent" unicode="&#x117;" horiz-adv-x="623" 
d="M386 630v-98h-125v98h125zM182 278h271v117q0 19 -5.5 25t-25.5 6h-209q-19 0 -25 -6t-6 -25v-117zM154 485h325q79 0 79 -79v-187h-376v-129q0 -20 6 -25.5t25 -5.5h207q20 0 25.5 5.5t5.5 25.5v51h105v-62q0 -79 -79 -79h-323q-79 0 -79 79v327q0 79 79 79z" />
    <glyph glyph-name="Eogonek" unicode="&#x118;" horiz-adv-x="593" 
d="M404 -178h164v-54h-202q-79 0 -79 79v39q0 79 79 79h77v35h-349v622h439v-59h-327v-215h286v-59h-286v-230h341v-148h-143q-20 0 -26 -5.5t-6 -24.5v-28q0 -19 6 -25t26 -6z" />
    <glyph glyph-name="eogonek" unicode="&#x119;" horiz-adv-x="623" 
d="M182 278h271v117q0 19 -5.5 25t-25.5 6h-209q-19 0 -25 -6t-6 -25v-117zM154 485h325q79 0 79 -79v-187h-376v-129q0 -20 6 -25.5t25 -5.5h207q20 0 25.5 5.5t5.5 25.5v51h105v-62q0 -79 -79 -79h-104v-89h-143q-20 0 -26 -5.5t-6 -24.5v-28q0 -19 6 -25t26 -6h164v-54
h-202q-79 0 -79 79v39q0 79 79 79h77v35h-115q-79 0 -79 79v327q0 79 79 79z" />
    <glyph glyph-name="Ecaron" unicode="&#x11a;" horiz-adv-x="593" 
d="M389 669h-116l-169 145h118l109 -98l110 98h117zM206 289v-230h341v-59h-453v622h439v-59h-327v-215h286v-59h-286z" />
    <glyph glyph-name="ecaron" unicode="&#x11b;" horiz-adv-x="623" 
d="M372 532h-116l-169 145h118l109 -98l110 98h117zM182 278h271v117q0 19 -5.5 25t-25.5 6h-209q-19 0 -25 -6t-6 -25v-117zM154 485h325q79 0 79 -79v-187h-376v-129q0 -20 6 -25.5t25 -5.5h207q20 0 25.5 5.5t5.5 25.5v51h105v-62q0 -79 -79 -79h-323q-79 0 -79 79v327
q0 79 79 79z" />
    <glyph glyph-name="Gbreve" unicode="&#x11e;" horiz-adv-x="671" 
d="M464 669h-259q-79 0 -79 79v60h97v-51q0 -19 5.5 -25t25.5 -6h161q19 0 25 6t6 25v51h97v-60q0 -79 -79 -79zM595 431h-110v101q0 20 -5.5 25.5t-25.5 5.5h-228q-20 0 -25.5 -5.5t-5.5 -25.5v-442q0 -20 5.5 -25.5t25.5 -5.5h229q19 0 25 5.5t6 25.5v171h-155v59h264
v-241q0 -79 -79 -79h-353q-79 0 -79 79v464q0 79 79 79h353q79 0 79 -79v-112z" />
    <glyph glyph-name="gbreve" unicode="&#x11f;" horiz-adv-x="625" 
d="M451 532h-259q-79 0 -79 79v60h97v-51q0 -20 6 -25.5t25 -5.5h161q20 0 25.5 5.5t5.5 25.5v51h97v-60q0 -79 -79 -79zM213 59h194q18 0 26 7.5t8 26.5v299q0 19 -8 26.5t-26 7.5h-194q-19 0 -25 -6t-6 -25v-305q0 -20 6 -25.5t25 -5.5zM548 17h1v-79q0 -79 -79 -79h-376
v59h317q19 0 25 6t6 25v57h-1v25q-13 -31 -55 -31h-232q-79 0 -79 79v327q0 79 79 79h232q42 0 55 -31v31h107v-468z" />
    <glyph glyph-name="uni0122" unicode="&#x122;" horiz-adv-x="671" 
d="M277 -229v180h114v-50l-77 -130h-37zM595 431h-110v101q0 20 -5.5 25.5t-25.5 5.5h-228q-20 0 -25.5 -5.5t-5.5 -25.5v-442q0 -20 5.5 -25.5t25.5 -5.5h229q19 0 25 5.5t6 25.5v171h-155v59h264v-241q0 -79 -79 -79h-353q-79 0 -79 79v464q0 79 79 79h353q79 0 79 -79
v-112z" />
    <glyph glyph-name="uni0123" unicode="&#x123;" horiz-adv-x="625" 
d="M400 710v-179h-115v50l78 129h37zM214 59h194q18 0 26 7.5t8 26.5v299q0 19 -8 26.5t-26 7.5h-194q-20 0 -25.5 -6t-5.5 -25v-305q0 -20 5.5 -25.5t25.5 -5.5zM549 17h1v-79q0 -79 -79 -79h-376v59h317q20 0 25.5 6t5.5 25v57h-1v25q-13 -31 -55 -31h-232q-79 0 -79 79
v327q0 79 79 79h232q42 0 55 -31v31h107v-468z" />
    <glyph glyph-name="Imacron" unicode="&#x12a;" horiz-adv-x="315" 
d="M103 622h112v-622h-112v622zM-23 669v58h374v-58h-374z" />
    <glyph glyph-name="imacron" unicode="&#x12b;" horiz-adv-x="295" 
d="M201 0h-107v485h107v-485zM-34 533v58h374v-58h-374z" />
    <glyph glyph-name="Iogonek" unicode="&#x12e;" horiz-adv-x="315" 
d="M67 -178h164v-54h-202q-79 0 -79 79v39q0 79 79 79h77v35h-3v622h112v-622h-5v-89h-143q-20 0 -26 -5.5t-6 -24.5v-28q0 -19 6 -25t26 -6z" />
    <glyph glyph-name="iogonek" unicode="&#x12f;" horiz-adv-x="295" 
d="M204 670v-92h-112v92h112zM55 -178h164v-54h-202q-79 0 -79 79v39q0 79 79 79h77v520h107v-485h-3v-89h-143q-20 0 -26 -5.5t-6 -24.5v-28q0 -19 6 -25t26 -6z" />
    <glyph glyph-name="Idotaccent" unicode="&#x130;" horiz-adv-x="296" 
d="M94 503h110v-503h-110v503zM86 648h125v-98h-125v98z" />
    <glyph glyph-name="dotlessi" unicode="&#x131;" horiz-adv-x="295" 
d="M94 485h107v-485h-107v485z" />
    <glyph glyph-name="uni0136" unicode="&#x136;" horiz-adv-x="678" 
d="M94 622h107v-622h-107v622zM516 622h129l-293 -304l305 -318h-132l-300 318zM296 -229v180h114v-50l-77 -130h-37z" />
    <glyph glyph-name="uni0137" unicode="&#x137;" horiz-adv-x="612" 
d="M85 0v669h107v-669h-107zM250 -229v180h114v-50l-77 -130h-37zM593 485l-249 -240l249 -245h-131l-244 245l245 240h130z" />
    <glyph glyph-name="Lacute" unicode="&#x139;" horiz-adv-x="545" 
d="M375 814l-164 -145h-102l140 145h126zM203 59h316v-59h-425v622h109v-563z" />
    <glyph glyph-name="lacute" unicode="&#x13a;" horiz-adv-x="295" 
d="M103 716l140 145h126l-164 -145h-102zM200 0h-106v669h106v-669z" />
    <glyph glyph-name="uni013B" unicode="&#x13b;" horiz-adv-x="545" 
d="M247 -229v180h114v-50l-77 -130h-37zM203 59h316v-59h-425v622h109v-563z" />
    <glyph glyph-name="uni013C" unicode="&#x13c;" horiz-adv-x="295" 
d="M200 0h-106v669h106v-669zM89 -229v180h114v-50l-77 -130h-37z" />
    <glyph glyph-name="Lcaron" unicode="&#x13d;" horiz-adv-x="545" 
d="M377 815l-169 -145h-116l-169 145h118l109 -98l110 98h117zM203 59h316v-59h-425v622h109v-563z" />
    <glyph glyph-name="lcaron" unicode="&#x13e;" horiz-adv-x="304" 
d="M94 669h107v-669h-107v669zM291 668h106v-48l-70 -126h-36v174z" />
    <glyph glyph-name="Lslash" unicode="&#x141;" horiz-adv-x="549" 
d="M205 59h316v-59h-425v247l-122 -41v62l122 41v313h109v-277l167 56v-62l-167 -56v-224z" />
    <glyph glyph-name="lslash" unicode="&#x142;" horiz-adv-x="297" 
d="M201 0h-106v293l-117 -39v62l117 39v314h106v-279l123 41v-61l-123 -41v-329z" />
    <glyph glyph-name="Nacute" unicode="&#x143;" horiz-adv-x="723" 
d="M324 667l140 145h126l-164 -145h-102zM528 622h101v-622h-105l-329 503v-503h-101v622h109l325 -499v499z" />
    <glyph glyph-name="nacute" unicode="&#x144;" horiz-adv-x="634" 
d="M576 677l-164 -145h-102l140 145h126zM248 485h231q79 0 79 -79v-406h-106v395q0 19 -6 25t-25 6h-194q-18 0 -26 -7.5t-8 -26.5v-32h-1v-360h-107v485h107v-33q11 33 56 33z" />
    <glyph glyph-name="uni0145" unicode="&#x145;" horiz-adv-x="723" 
d="M528 622h101v-622h-105l-329 503v-503h-101v622h109l325 -499v499zM306 -229v180h114v-50l-77 -130h-37z" />
    <glyph glyph-name="uni0146" unicode="&#x146;" horiz-adv-x="634" 
d="M265 -229v180h114v-50l-77 -130h-37zM248 485h231q79 0 79 -79v-406h-106v395q0 19 -6 25t-25 6h-194q-18 0 -26 -7.5t-8 -26.5v-32h-1v-360h-107v485h107v-33q11 33 56 33z" />
    <glyph glyph-name="Ncaron" unicode="&#x147;" horiz-adv-x="723" 
d="M312 669l-169 145h118l109 -98l110 98h117l-169 -145h-116zM528 622h101v-622h-105l-329 503v-503h-101v622h109l325 -499v499z" />
    <glyph glyph-name="ncaron" unicode="&#x148;" horiz-adv-x="634" 
d="M389 532h-116l-169 145h118l109 -98l110 98h117zM248 485h231q79 0 79 -79v-406h-106v395q0 19 -6 25t-25 6h-194q-18 0 -26 -7.5t-8 -26.5v-32h-1v-360h-107v485h107v-33q11 33 56 33z" />
    <glyph glyph-name="Omacron" unicode="&#x14c;" horiz-adv-x="674" 
d="M152 670v58h374v-58h-374zM589 543v-464q0 -79 -79 -79h-346q-79 0 -79 79v464q0 79 79 79h346q79 0 79 -79zM480 90v442q0 20 -6 25.5t-25 5.5h-223q-20 0 -25.5 -5.5t-5.5 -25.5v-442q0 -20 5.5 -25.5t25.5 -5.5h223q19 0 25 5.5t6 25.5z" />
    <glyph glyph-name="omacron" unicode="&#x14d;" horiz-adv-x="628" 
d="M498 591v-58h-374v58h374zM446 90v305q0 19 -6 25t-25 6h-202q-19 0 -25 -6t-6 -25v-305q0 -20 6 -25.5t25 -5.5h202q19 0 25 5.5t6 25.5zM155 485h318q79 0 79 -79v-327q0 -79 -79 -79h-318q-79 0 -79 79v327q0 79 79 79z" />
    <glyph glyph-name="Ohungarumlaut" unicode="&#x150;" horiz-adv-x="670" 
d="M164 622h346q79 0 79 -79v-464q0 -79 -79 -79h-346q-79 0 -79 79v464q0 79 79 79zM480 532q0 20 -6 25.5t-25 5.5h-224q-19 0 -25 -5.5t-6 -25.5v-442q0 -20 6 -25.5t25 -5.5h224q19 0 25 5.5t6 25.5v442zM345 831h115l-173 -162h-90zM563 831h114l-174 -162h-90z" />
    <glyph glyph-name="ohungarumlaut" unicode="&#x151;" horiz-adv-x="628" 
d="M155 485h318q79 0 79 -79v-327q0 -79 -79 -79h-318q-79 0 -79 79v327q0 79 79 79zM446 395q0 19 -6 25t-25 6h-202q-19 0 -25 -6t-6 -25v-305q0 -20 6 -25.5t25 -5.5h202q19 0 25 5.5t6 25.5v305zM318 694h114l-172 -162h-90zM536 694h114l-174 -162h-90z" />
    <glyph glyph-name="OE" unicode="&#x152;" horiz-adv-x="962" 
d="M483 90v442q0 20 -5.5 25.5t-25.5 5.5h-226q-20 0 -25.5 -5.5t-5.5 -25.5v-442q0 -20 5.5 -25.5t25.5 -5.5h226q20 0 25.5 5.5t5.5 25.5zM597 59h309v-59h-396v15q-21 -15 -59 -15h-287q-79 0 -79 79v464q0 79 79 79h287q39 0 59 -16v16h384v-59h-297v-215h264v-59h-264
v-230z" />
    <glyph glyph-name="oe" unicode="&#x153;" horiz-adv-x="965" 
d="M541 278h253v117q0 19 -6 25t-25 6h-191q-20 0 -25.5 -6t-5.5 -25v-117zM434 89v307q0 30 -33 30h-186q-19 0 -25 -6t-6 -25v-305q0 -20 6 -25.5t25 -5.5h186q18 0 25.5 6.5t7.5 23.5zM553 485h267q79 0 79 -79v-187h-358v-129q0 -20 5.5 -25.5t25.5 -5.5h189
q19 0 25 5.5t6 25.5v51h105v-62q0 -79 -79 -79h-266q-57 0 -68 38q-11 -38 -73 -38h-256q-79 0 -79 79v327q0 79 79 79h256q61 0 74 -38q9 38 68 38z" />
    <glyph glyph-name="Racute" unicode="&#x154;" horiz-adv-x="692" 
d="M560 812l-164 -145h-102l140 145h126zM203 563v-281h274q19 0 25 6t6 25v219q0 20 -6 25.5t-25 5.5h-274zM203 223v-223h-109v622h444q79 0 79 -79v-241q0 -79 -79 -79h-57l141 -223h-114l-137 223h-168z" />
    <glyph glyph-name="racute" unicode="&#x155;" horiz-adv-x="382" 
d="M471 678l-164 -145h-102l140 145h126zM192 485v-62q17 62 85 62h95v-62h-113q-67 0 -67 -75v-348h-107v485h107z" />
    <glyph glyph-name="uni0156" unicode="&#x156;" horiz-adv-x="692" 
d="M287 -229v180h114v-50l-77 -130h-37zM203 563v-281h274q19 0 25 6t6 25v219q0 20 -6 25.5t-25 5.5h-274zM203 223v-223h-109v622h444q79 0 79 -79v-241q0 -79 -79 -79h-57l141 -223h-114l-137 223h-168z" />
    <glyph glyph-name="uni0157" unicode="&#x157;" horiz-adv-x="382" 
d="M80 -229v180h114v-50l-77 -130h-37zM277 485h95v-62h-113q-67 0 -67 -75v-348h-107v485h107v-62q17 62 85 62z" />
    <glyph glyph-name="Rcaron" unicode="&#x158;" horiz-adv-x="692" 
d="M409 668h-116l-169 145h118l109 -98l110 98h117zM203 563v-281h274q19 0 25 6t6 25v219q0 20 -6 25.5t-25 5.5h-274zM203 223v-223h-109v622h444q79 0 79 -79v-241q0 -79 -79 -79h-57l141 -223h-114l-137 223h-168z" />
    <glyph glyph-name="rcaron" unicode="&#x159;" horiz-adv-x="382" 
d="M294 533h-116l-169 145h118l109 -98l110 98h117zM192 485v-62q17 62 85 62h95v-62h-113q-67 0 -67 -75v-348h-107v485h107z" />
    <glyph glyph-name="Sacute" unicode="&#x15a;" horiz-adv-x="654" 
d="M286 667l140 145h126l-164 -145h-102zM470 90v163q0 19 -6 25t-25 6h-285q-79 0 -79 79v180q0 79 79 79h343q79 0 79 -79v-103h-110v92q0 20 -6 25.5t-25 5.5h-219q-20 0 -25.5 -5.5t-5.5 -25.5v-158q0 -20 5.5 -25.5t25.5 -5.5h284q79 0 79 -79v-185q0 -79 -79 -79h-344
q-79 0 -79 79v103h110v-92q0 -20 5.5 -25.5t25.5 -5.5h221q19 0 25 5.5t6 25.5z" />
    <glyph glyph-name="sacute" unicode="&#x15b;" horiz-adv-x="583" 
d="M264 532l140 145h126l-164 -145h-102zM412 89v92q0 19 -6 25t-25 6h-228q-79 0 -79 79v115q0 79 79 79h283q79 0 79 -79v-56h-104v46q0 20 -5.5 25.5t-25.5 5.5h-169q-19 0 -25 -5.5t-6 -25.5v-94q0 -20 6 -25.5t25 -5.5h228q79 0 79 -79v-113q0 -79 -79 -79h-284
q-79 0 -79 79v56h105v-46q0 -19 5.5 -25t25.5 -6h169q19 0 25 6t6 25z" />
    <glyph glyph-name="uni015E" unicode="&#x15e;" horiz-adv-x="654" 
d="M470 90v163q0 19 -6 25t-25 6h-285q-79 0 -79 79v180q0 79 79 79h343q79 0 79 -79v-103h-110v92q0 20 -6 25.5t-25 5.5h-219q-20 0 -25.5 -5.5t-5.5 -25.5v-158q0 -20 5.5 -25.5t25.5 -5.5h284q79 0 79 -79v-185q0 -79 -79 -79h-344q-79 0 -79 79v103h110v-92
q0 -20 5.5 -25.5t25.5 -5.5h221q19 0 25 5.5t6 25.5zM266 -229v180h114v-50l-77 -130h-37z" />
    <glyph glyph-name="uni015F" unicode="&#x15f;" horiz-adv-x="583" 
d="M412 89v92q0 19 -6 25t-25 6h-228q-79 0 -79 79v115q0 79 79 79h283q79 0 79 -79v-56h-104v46q0 20 -5.5 25.5t-25.5 5.5h-169q-19 0 -25 -5.5t-6 -25.5v-94q0 -20 6 -25.5t25 -5.5h228q79 0 79 -79v-113q0 -79 -79 -79h-284q-79 0 -79 79v56h105v-46q0 -19 5.5 -25
t25.5 -6h169q19 0 25 6t6 25zM233 -229v180h114v-50l-77 -130h-37z" />
    <glyph glyph-name="Scaron" unicode="&#x160;" horiz-adv-x="654" 
d="M274 668l-169 145h118l109 -98l110 98h117l-169 -145h-116zM470 90v163q0 19 -6 25t-25 6h-285q-79 0 -79 79v180q0 79 79 79h343q79 0 79 -79v-103h-110v92q0 20 -6 25.5t-25 5.5h-219q-20 0 -25.5 -5.5t-5.5 -25.5v-158q0 -20 5.5 -25.5t25.5 -5.5h284q79 0 79 -79
v-185q0 -79 -79 -79h-344q-79 0 -79 79v103h110v-92q0 -20 5.5 -25.5t25.5 -5.5h221q19 0 25 5.5t6 25.5z" />
    <glyph glyph-name="scaron" unicode="&#x161;" horiz-adv-x="583" 
d="M244 532l-169 145h118l109 -98l110 98h117l-169 -145h-116zM412 89v92q0 19 -6 25t-25 6h-228q-79 0 -79 79v115q0 79 79 79h283q79 0 79 -79v-56h-104v46q0 20 -5.5 25.5t-25.5 5.5h-169q-19 0 -25 -5.5t-6 -25.5v-94q0 -20 6 -25.5t25 -5.5h228q79 0 79 -79v-113
q0 -79 -79 -79h-284q-79 0 -79 79v56h105v-46q0 -19 5.5 -25t25.5 -6h169q19 0 25 6t6 25z" />
    <glyph glyph-name="uni0162" unicode="&#x162;" horiz-adv-x="571" 
d="M226 -229v180h114v-50l-77 -130h-37zM561 622v-59h-221v-563h-110v563h-221v59h552z" />
    <glyph glyph-name="uni0163" unicode="&#x163;" horiz-adv-x="571" 
d="M227 -229v180h114v-50l-77 -130h-37zM9 622h552v-59h-221v-563h-110v563h-221v59z" />
    <glyph glyph-name="Tcaron" unicode="&#x164;" horiz-adv-x="571" 
d="M345 668h-116l-169 145h118l109 -98l110 98h117zM561 622v-59h-221v-563h-110v563h-221v59h552z" />
    <glyph glyph-name="tcaron" unicode="&#x165;" horiz-adv-x="374" 
d="M220 575v-90h118v-59h-118v-332q0 -20 6 -25.5t25 -5.5h86v-63h-144q-79 0 -79 79v347h-78v59h78v90h106zM279 725h105v-48l-70 -124h-35v172z" />
    <glyph glyph-name="Umacron" unicode="&#x16a;" horiz-adv-x="690" 
d="M195 622v-532q0 -20 5.5 -25.5t25.5 -5.5h239q19 0 25 5.5t6 25.5v532h108v-543q0 -79 -79 -79h-361q-79 0 -79 79v543h110zM157 669v58h374v-58h-374z" />
    <glyph glyph-name="umacron" unicode="&#x16b;" horiz-adv-x="634" 
d="M498 592v-58h-374v58h374zM442 485h107v-485h-107v31q-13 -31 -55 -31h-232q-79 0 -79 79v406h107v-395q0 -20 5.5 -25.5t25.5 -5.5h194q18 0 26 7.5t8 26.5v392z" />
    <glyph glyph-name="Uring" unicode="&#x16e;" horiz-adv-x="690" 
d="M511 775v-38q0 -68 -68 -68h-187q-68 0 -68 68v38q0 68 68 68h187q68 0 68 -68zM438 746v20q0 18 -5 23t-24 5h-119q-18 0 -23.5 -5t-5.5 -23v-20q0 -18 5.5 -23t23.5 -5h119q19 0 24 5t5 23zM195 622v-532q0 -20 5.5 -25.5t25.5 -5.5h239q19 0 25 5.5t6 25.5v532h108
v-543q0 -79 -79 -79h-361q-79 0 -79 79v543h110z" />
    <glyph glyph-name="uring" unicode="&#x16f;" horiz-adv-x="634" 
d="M223 628v-20q0 -18 5.5 -23t23.5 -5h119q19 0 24 5t5 23v20q0 18 -5 23t-24 5h-119q-18 0 -23.5 -5t-5.5 -23zM405 531h-187q-68 0 -68 68v38q0 68 68 68h187q68 0 68 -68v-38q0 -68 -68 -68zM442 485h107v-485h-107v31q-13 -31 -55 -31h-232q-79 0 -79 79v406h107v-395
q0 -20 5.5 -25.5t25.5 -5.5h194q18 0 26 7.5t8 26.5v392z" />
    <glyph glyph-name="Uhungarumlaut" unicode="&#x170;" horiz-adv-x="686" 
d="M195 622v-532q0 -20 5.5 -25.5t25.5 -5.5h239q19 0 25 5.5t6 25.5v532h109v-543q0 -79 -79 -79h-362q-79 0 -79 79v543h110zM560 829h115l-175 -162h-90zM342 829h115l-173 -162h-90z" />
    <glyph glyph-name="uhungarumlaut" unicode="&#x171;" horiz-adv-x="634" 
d="M467 533h-90l150 162h114zM423 695l-172 -162h-90l148 162h114zM442 485h107v-485h-107v31q-13 -31 -55 -31h-232q-79 0 -79 79v406h107v-395q0 -20 5.5 -25.5t25.5 -5.5h194q18 0 26 7.5t8 26.5v392z" />
    <glyph glyph-name="Uogonek" unicode="&#x172;" horiz-adv-x="690" 
d="M496 622h108v-543q0 -79 -79 -79h-130v-89h-143q-20 0 -26 -5.5t-6 -24.5v-28q0 -19 6 -25t26 -6h164v-54h-202q-79 0 -79 79v39q0 79 79 79h77v35h-127q-79 0 -79 79v543h110v-532q0 -20 5.5 -25.5t25.5 -5.5h239q19 0 25 5.5t6 25.5v532z" />
    <glyph glyph-name="uogonek" unicode="&#x173;" horiz-adv-x="634" 
d="M403 -178h164v-54h-202q-79 0 -79 79v39q0 79 79 79h77v66q-13 -31 -55 -31h-232q-79 0 -79 79v406h107v-395q0 -20 5.5 -25.5t25.5 -5.5h194q18 0 26 7.5t8 26.5v392h107v-485h-3v-89h-143q-20 0 -26 -5.5t-6 -24.5v-28q0 -19 6 -25t26 -6z" />
    <glyph glyph-name="Ydieresis" unicode="&#x178;" horiz-adv-x="645" 
d="M262 760v-91h-138v91h138zM530 760v-91h-138v91h138zM383 0h-110v202l-265 420h111l208 -341l199 341h110l-253 -420v-202z" />
    <glyph glyph-name="Zacute" unicode="&#x179;" horiz-adv-x="632" 
d="M549 814l-164 -145h-102l140 145h126zM576 622v-59l-395 -504h385v-59h-510v59l395 504h-384v59h509z" />
    <glyph glyph-name="zacute" unicode="&#x17a;" horiz-adv-x="515" 
d="M500 678l-164 -145h-102l140 145h126zM461 59v-59h-407v59l291 367h-278v59h392v-59l-292 -367h294z" />
    <glyph glyph-name="Zdotaccent" unicode="&#x17b;" horiz-adv-x="632" 
d="M395 767v-98h-125v98h125zM576 622v-59l-395 -504h385v-59h-510v59l395 504h-384v59h509z" />
    <glyph glyph-name="zdotaccent" unicode="&#x17c;" horiz-adv-x="515" 
d="M333 630v-98h-125v98h125zM461 59v-59h-407v59l291 367h-278v59h392v-59l-292 -367h294z" />
    <glyph glyph-name="Zcaron" unicode="&#x17d;" horiz-adv-x="632" 
d="M382 669h-116l-169 145h118l109 -98l110 98h117zM576 622v-59l-395 -504h385v-59h-510v59l395 504h-384v59h509z" />
    <glyph glyph-name="zcaron" unicode="&#x17e;" horiz-adv-x="515" 
d="M324 532h-116l-169 145h118l109 -98l110 98h117zM461 59v-59h-407v59l291 367h-278v59h392v-59l-292 -367h294z" />
    <glyph glyph-name="florin" unicode="&#x192;" horiz-adv-x="471" 
d="M442 601h-71q-20 0 -27 -6.5t-10 -27.5l-12 -82h115v-59h-123l-70 -479q-6 -45 -29.5 -66.5t-76.5 -21.5h-111v62h72q21 0 27.5 6.5t9.5 28.5l67 470h-96v59h105l13 91q6 46 30 67t77 21h110v-63z" />
    <glyph glyph-name="uni0218" unicode="&#x218;" horiz-adv-x="654" 
d="M470 90v163q0 19 -6 25t-25 6h-285q-79 0 -79 79v180q0 79 79 79h343q79 0 79 -79v-103h-110v92q0 20 -6 25.5t-25 5.5h-219q-20 0 -25.5 -5.5t-5.5 -25.5v-158q0 -20 5.5 -25.5t25.5 -5.5h284q79 0 79 -79v-185q0 -79 -79 -79h-344q-79 0 -79 79v103h110v-92
q0 -20 5.5 -25.5t25.5 -5.5h221q19 0 25 5.5t6 25.5zM267 -229v180h114v-50l-77 -130h-37z" />
    <glyph glyph-name="uni0219" unicode="&#x219;" horiz-adv-x="583" 
d="M412 89v92q0 19 -6 25t-25 6h-228q-79 0 -79 79v115q0 79 79 79h283q79 0 79 -79v-56h-104v46q0 20 -5.5 25.5t-25.5 5.5h-169q-19 0 -25 -5.5t-6 -25.5v-94q0 -20 6 -25.5t25 -5.5h228q79 0 79 -79v-113q0 -79 -79 -79h-284q-79 0 -79 79v56h105v-46q0 -19 5.5 -25
t25.5 -6h169q19 0 25 6t6 25zM234 -229v180h114v-50l-77 -130h-37z" />
    <glyph glyph-name="uni021A" unicode="&#x21a;" horiz-adv-x="571" 
d="M230 -229v180h114v-50l-77 -130h-37zM9 622h552v-59h-221v-563h-110v563h-221v59z" />
    <glyph glyph-name="uni021B" unicode="&#x21b;" horiz-adv-x="374" 
d="M122 -229v180h114v-50l-77 -130h-37zM337 426h-117v-332q0 -20 6 -25.5t25 -5.5h85v-63h-144q-79 0 -79 79v347h-78v59h78v90h107v-90h117v-59z" />
    <glyph glyph-name="circumflex" unicode="&#x2c6;" horiz-adv-x="614" 
d="M80 506l169 146h116l169 -146h-117l-110 99l-109 -99h-118z" />
    <glyph glyph-name="caron" unicode="&#x2c7;" horiz-adv-x="614" 
d="M249 505l-169 145h118l109 -98l110 98h117l-169 -145h-116z" />
    <glyph glyph-name="uni02C9" unicode="&#x2c9;" horiz-adv-x="468" 
d="M81 550v58h305v-58h-305z" />
    <glyph glyph-name="breve" unicode="&#x2d8;" horiz-adv-x="614" 
d="M418 646h97v-60q0 -79 -79 -79h-259q-79 0 -79 79v60h97v-51q0 -19 5.5 -25t25.5 -6h161q19 0 25 6t6 25v51z" />
    <glyph glyph-name="dotaccent" unicode="&#x2d9;" horiz-adv-x="614" 
d="M245 531v98h125v-98h-125z" />
    <glyph glyph-name="ring" unicode="&#x2da;" horiz-adv-x="614" 
d="M468 610v-38q0 -68 -68 -68h-187q-68 0 -68 68v38q0 68 68 68h187q68 0 68 -68zM395 581v20q0 18 -5 23t-24 5h-119q-19 0 -24 -5.5t-5 -22.5v-20q0 -17 5 -22.5t24 -5.5h119q19 0 24 5t5 23z" />
    <glyph glyph-name="ogonek" unicode="&#x2db;" horiz-adv-x="614" 
d="M283 -178h164v-54h-202q-79 0 -79 79v39q0 79 79 79h77v47h104v-101h-143q-20 0 -26 -5.5t-6 -24.5v-28q0 -19 6 -25t26 -6z" />
    <glyph glyph-name="tilde" unicode="&#x2dc;" horiz-adv-x="614" 
d="M199 598q-18 0 -18 -23v-56h-90v60q0 78 73 78h24q33 0 120 -39.5t102.5 -39.5t19.5 5t4 19v55h89v-60q0 -38 -16.5 -58t-55.5 -20h-27q-34 0 -119.5 39.5t-105.5 39.5z" />
    <glyph glyph-name="hungarumlaut" unicode="&#x2dd;" horiz-adv-x="614" 
d="M464 668h114l-174 -162h-90zM246 668h115l-173 -162h-90z" />
    <glyph glyph-name="pi" unicode="&#x3c0;" horiz-adv-x="845" 
d="M791 485v-59h-119v-426h-106v426h-278v-347q0 -79 -79 -79h-135v63h76q20 0 25.5 5.5t5.5 25.5v332h-109v59h719z" />
    <glyph glyph-name="uni0901" unicode="&#x901;" horiz-adv-x="0" 
d="M-285 685q-78 0 -78 78v89h100v-77q0 -19 6.5 -25t25.5 -6h236q19 0 25 6t6 25v77h100v-89q0 -78 -77 -78h-344zM-161 804v94h94v-94h-94z" />
    <glyph glyph-name="uni0902" unicode="&#x902;" horiz-adv-x="0" 
d="M-242 687v101h113v-101h-113z" />
    <glyph glyph-name="uni0903" unicode="&#x903;" horiz-adv-x="401" 
d="M163 434v106h112v-106h-112zM163 107v106h112v-106h-112z" />
    <glyph glyph-name="uni0905" unicode="&#x905;" horiz-adv-x="1067" 
d="M1087 622v-59h-148v-563h-113v294h-205v-138q0 -78 -78 -78h-372q-79 0 -79 78v97h113v-85q0 -20 5.5 -25.5t25.5 -5.5h241q20 0 26 6t6 25v116q0 20 -7.5 27t-26.5 7h-157v59h157q19 0 26.5 7.5t7.5 26.5v121q0 19 -6 25t-26 6h-241q-20 0 -25.5 -5.5t-5.5 -25.5v-85
h-113v97q0 78 79 78h372q78 0 78 -78v-134q0 -50 -46 -53v-4h251v269h261z" />
    <glyph glyph-name="uni0906" unicode="&#x906;" horiz-adv-x="1420" 
d="M1440 622v-59h-149v-563h-112v563h-240v-563h-113v294h-205v-138q0 -78 -78 -78h-372q-79 0 -79 78v97h113v-85q0 -20 5.5 -25.5t25.5 -5.5h241q20 0 26 6t6 25v116q0 20 -7.5 27t-26.5 7h-157v59h157q19 0 26.5 7.5t7.5 26.5v121q0 19 -6 25t-26 6h-241
q-20 0 -25.5 -5.5t-5.5 -25.5v-85h-113v97q0 78 79 78h372q78 0 78 -78v-134q0 -50 -46 -53v-4h251v269h614z" />
    <glyph glyph-name="uni0907" unicode="&#x907;" horiz-adv-x="752" 
d="M649 426h-405q-20 0 -26 -6t-6 -25v-40q0 -19 6 -25t26 -6h334q78 0 78 -78v-90q0 -78 -78 -78h-359v-78h-114v190h114v-53h293q20 0 26 6t6 25v66q0 19 -6 25t-26 6h-334q-77 0 -77 78v64q0 78 77 78h358v78h-556v59h792v-59h-123v-137z" />
    <glyph glyph-name="uni0908" unicode="&#x908;" horiz-adv-x="753" 
d="M651 426h-405q-20 0 -26 -6t-6 -25v-40q0 -19 6 -25t26 -6h334q78 0 78 -78v-90q0 -78 -78 -78h-359v-78h-114v190h114v-53h293q20 0 26 6t6 25v66q0 19 -6 25t-26 6h-334q-77 0 -77 78v64q0 78 77 78h358v78h-556v59h509v122q0 78 78 78h177v-59h-111q-19 0 -25.5 -6
t-6.5 -25v-110h171v-59h-123v-137z" />
    <glyph glyph-name="uni0909" unicode="&#x909;" horiz-adv-x="722" 
d="M742 622v-59h-159q10 -7 10 -29v-138q0 -51 -45 -53v-3q45 -3 45 -52v-210q0 -78 -78 -78h-364q-78 0 -78 78v128h112v-116q0 -19 6.5 -25t25.5 -6h232q19 0 25.5 6t6.5 25v189q0 19 -6 25t-26 6h-133v59h133q19 0 25.5 6.5t6.5 25.5v131q0 19 -6 25t-26 6h-469v59h762z
" />
    <glyph glyph-name="uni090A" unicode="&#x90a;" horiz-adv-x="1057" 
d="M1077 622v-59h-492q10 -7 10 -29v-138q0 -50 -45 -53v-2q6 0 12 -2h350q78 0 78 -78v-183q0 -78 -78 -78h-271v59h205q19 0 25.5 6t6.5 25v159q0 19 -6.5 25t-25.5 6h-251v-202q0 -78 -78 -78h-364q-78 0 -78 78v128h112v-116q0 -19 6.5 -25t25.5 -6h232q19 0 25.5 6
t6.5 25v189q0 19 -6 25t-26 6h-133v59h133q19 0 25.5 6.5t6.5 25.5v131q0 19 -6 25t-26 6h-470v59h1096z" />
    <glyph glyph-name="uni090B" unicode="&#x90b;" horiz-adv-x="1332" 
d="M875 394v-101q0 -32 27 -32h205q25 0 25 32v101q0 19 -6 25.5t-25 6.5h-196q-19 0 -24.5 -6.5t-5.5 -25.5zM632 563v-302h147q-14 13 -14 58v88q0 78 78 78h318q79 0 79 -78v-88q0 -38 -8.5 -55t-28.5 -22v-5q19 -6 27.5 -18.5t8.5 -40.5v-100q0 -78 -79 -78h-321
q-35 0 -52.5 21t-17.5 57v59h110v-48q0 -18 5.5 -24t24.5 -6h193q18 0 23 6.5t5 25.5v81q0 18 -5.5 23.5t-23.5 5.5h-469v-201h-111v201h-76l-235 -201h-142l276 234l-132 134q-34 34 -67 44.5t-75 10.5h-22v62h64q67 0 107 -12.5t82 -55.5l152 -156h68v302h-541v59h1372
v-59h-720z" />
    <glyph glyph-name="uni090C" unicode="&#x90c;" horiz-adv-x="1136" 
d="M1008 34h-254q-19 0 -26.5 -7.5t-7.5 -25.5v-87q0 -18 7.5 -25.5t26.5 -7.5h283v-59h-352q-40 0 -57.5 17.5t-17.5 57.5v121q0 40 17.5 57.5t57.5 17.5h210v333h-249q-19 0 -25 -6t-6 -25v-204h-112v204q0 19 -6.5 25t-26.5 6h-216q-19 0 -25 -6t-6 -25v-305q0 -19 6 -25
t25 -6h220v-59h-286q-78 0 -78 78v329q0 78 78 78h310q53 0 59 -39h4q8 39 50 39h284v78h-915v59h1176v-59h-148v-529z" />
    <glyph glyph-name="uni090D" unicode="&#x90d;" horiz-adv-x="789" 
d="M578 685h-345q-78 0 -78 78v89h106v-77q0 -19 6 -25t25 -6h227q19 0 25 6t6 25v77h106v-89q0 -78 -78 -78zM809 622v-59h-127v-201q0 -78 -79 -78h-202v59h137q19 0 25.5 6t6.5 25v189h-329v-473q0 -19 6.5 -25t25.5 -6h260q19 0 25 6t6 25v106h113v-118q0 -78 -79 -78
h-391q-78 0 -78 78v485h-149v59h829z" />
    <glyph glyph-name="uni090E" unicode="&#x90e;" horiz-adv-x="789" 
d="M809 622v-59h-127v-201q0 -78 -79 -78h-202v59h137q19 0 25.5 6t6.5 25v189h-329v-473q0 -19 6.5 -25t25.5 -6h260q19 0 25 6t6 25v106h113v-118q0 -78 -79 -78h-391q-78 0 -78 78v485h-149v59h590v30q0 20 -6 26t-25 6h-275q-78 0 -78 78v56h112v-44q0 -19 6.5 -25
t25.5 -6h275q78 0 78 -78v-43h126z" />
    <glyph glyph-name="uni090F" unicode="&#x90f;" horiz-adv-x="789" 
d="M809 622v-59h-127v-201q0 -78 -79 -78h-202v59h137q19 0 25.5 6t6.5 25v189h-329v-473q0 -19 6.5 -25t25.5 -6h260q19 0 25 6t6 25v106h113v-118q0 -78 -79 -78h-391q-78 0 -78 78v485h-149v59h829z" />
    <glyph glyph-name="uni0910" unicode="&#x910;" horiz-adv-x="789" 
d="M809 622v-59h-127v-201q0 -78 -79 -78h-202v59h137q19 0 25.5 6t6.5 25v189h-329v-473q0 -19 6.5 -25t25.5 -6h260q19 0 25 6t6 25v106h113v-118q0 -78 -79 -78h-391q-78 0 -78 78v485h-149v59h589q-60 50 -100 99l-85 101h126l170 -200h129z" />
    <glyph glyph-name="uni0911" unicode="&#x911;" horiz-adv-x="1411" 
d="M1228 685h-345q-78 0 -78 78v89h106v-77q0 -19 6 -25t25 -6h227q19 0 25 6t6 25v77h106v-89q0 -78 -78 -78zM1431 622v-59h-149v-563h-112v563h-231v-563h-113v294h-205v-138q0 -78 -78 -78h-372q-79 0 -79 78v97h113v-85q0 -20 5.5 -25.5t25.5 -5.5h241q20 0 26 6t6 25
v116q0 20 -7.5 27t-26.5 7h-157v59h157q19 0 26.5 7.5t7.5 26.5v121q0 19 -6 25t-26 6h-241q-20 0 -25.5 -5.5t-5.5 -25.5v-85h-113v97q0 78 79 78h372q78 0 78 -78v-134q0 -50 -46 -53v-4h251v269h605z" />
    <glyph glyph-name="uni0912" unicode="&#x912;" horiz-adv-x="1411" 
d="M1431 622v-59h-149v-563h-112v563h-231v-563h-113v294h-205v-138q0 -78 -78 -78h-372q-79 0 -79 78v97h113v-85q0 -20 5.5 -25.5t25.5 -5.5h241q20 0 26 6t6 25v116q0 20 -7.5 27t-26.5 7h-157v59h157q19 0 26.5 7.5t7.5 26.5v121q0 19 -6 25t-26 6h-241
q-20 0 -25.5 -5.5t-5.5 -25.5v-85h-113v97q0 78 79 78h372q78 0 78 -78v-134q0 -50 -46 -53v-4h251v269h343v30q0 20 -6 26t-25 6h-275q-78 0 -78 78v56h112v-44q0 -19 6.5 -25t25.5 -6h275q78 0 78 -78v-43h149z" />
    <glyph glyph-name="uni0913" unicode="&#x913;" horiz-adv-x="1412" 
d="M1432 622v-59h-149v-563h-112v563h-232v-563h-113v294h-205v-138q0 -78 -78 -78h-372q-79 0 -79 78v97h113v-85q0 -20 5.5 -25.5t25.5 -5.5h241q20 0 26 6t6 25v116q0 20 -7.5 27t-26.5 7h-157v59h157q19 0 26.5 7.5t7.5 26.5v121q0 19 -6 25t-26 6h-241
q-20 0 -25.5 -5.5t-5.5 -25.5v-85h-113v97q0 78 79 78h372q78 0 78 -78v-134q0 -50 -46 -53v-4h251v269h347q-60 50 -100 99l-85 101h126l170 -200h148z" />
    <glyph glyph-name="uni0914" unicode="&#x914;" horiz-adv-x="1463" 
d="M1483 622v-59h-149v-563h-112v563h-231v-563h-113v294h-205v-138q0 -78 -78 -78h-372q-79 0 -79 78v97h113v-85q0 -20 5.5 -25.5t25.5 -5.5h241q20 0 26 6t6 25v116q0 20 -7.5 27t-26.5 7h-157v59h157q19 0 26.5 7.5t7.5 26.5v121q0 19 -6 25t-26 6h-241
q-20 0 -25.5 -5.5t-5.5 -25.5v-85h-113v97q0 78 79 78h372q78 0 78 -78v-134q0 -50 -46 -53v-4h251v269h336q-31 23 -80 68l-139 132h121l43 -49q72 -80 114 -151h5q-14 25 -61 147l-22 53h95l43 -200h150z" />
    <glyph glyph-name="uni0915" unicode="&#x915;" horiz-adv-x="1083" 
d="M1103 563h-505v-87q10 9 32 9h282q79 0 79 -78v-251q0 -78 -79 -78h-264v59h199q19 0 25 6t6 25v227q0 19 -6 25t-25 6h-215q-20 0 -27 -7t-7 -27v-392h-112v87q-10 -9 -32 -9h-283q-78 0 -78 78v251q0 78 78 78h265v-59h-199q-19 0 -25.5 -6t-6.5 -25v-227
q0 -19 6.5 -25t25.5 -6h215q20 0 27 7.5t7 26.5v392h-506v59h1123v-59z" />
    <glyph glyph-name="uni0916" unicode="&#x916;" horiz-adv-x="1375" 
d="M1394 622v-59h-148v-563h-111v134q-10 -14 -36 -14h-314q-77 0 -77 78v179q0 78 77 78h305v-59h-247q-19 0 -25.5 -6t-6.5 -25v-156q0 -18 6.5 -24.5t25.5 -6.5h253q21 0 30 8.5t9 29.5v347h-569v-247q0 -77 -78 -77h-265v-149q0 -19 6.5 -25t25.5 -6h391v-59h-459
q-77 0 -77 78v392h113v-172h201q20 0 25.5 6t5.5 25v234h-475v59h1414z" />
    <glyph glyph-name="uni0917" unicode="&#x917;" horiz-adv-x="1106" 
d="M221 137h290q19 0 25 6t6 25v199h-321q-19 0 -25.5 -6t-6.5 -25v-168q0 -19 6.5 -25t25.5 -6zM1126 622v-59h-149v-563h-112v563h-211v-407q0 -78 -78 -78h-415q-78 0 -78 78v192q0 78 78 78h381v137h-562v59h1146z" />
    <glyph glyph-name="uni0918" unicode="&#x918;" horiz-adv-x="894" 
d="M653 171v392h-399q-20 0 -25.5 -5.5t-5.5 -25.5v-123q0 -19 5.5 -25t25.5 -6h197v-59h-197q-20 0 -25.5 -5.5t-5.5 -25.5v-120q0 -19 6 -25t25 -6h365q19 0 26.5 7.5t7.5 26.5zM914 622v-59h-149v-563h-112v87q-11 -9 -32 -9h-432q-79 0 -79 78v137q0 50 46 53v4
q-46 3 -46 52v132q0 22 10 29h-140v59h934z" />
    <glyph glyph-name="uni0919" unicode="&#x919;" horiz-adv-x="854" 
d="M695 309v83h89v-83h-89zM-20 622h894v-59h-267v-137h-362q-20 0 -26 -6t-6 -25v-61q0 -19 6 -25t26 -6h308q78 0 78 -78v-138q0 -78 -78 -78h-372q-77 0 -77 78v82h112v-70q0 -19 6 -25t26 -6h239q20 0 26 6t6 25v114q0 19 -6 25t-26 6h-309q-77 0 -77 78v85q0 78 77 78
h318v78h-516v59z" />
    <glyph glyph-name="uni091A" unicode="&#x91a;" horiz-adv-x="844" 
d="M864 622v-59h-149v-563h-112v87q-11 -9 -32 -9h-377q-78 0 -78 78v241q0 22 10 29h-94v59h384v-59h-158q-18 0 -24 -6.5t-6 -24.5v-227q0 -19 6.5 -25t25.5 -6h309q19 0 26.5 7.5t7.5 26.5v392h-623v59h884z" />
    <glyph glyph-name="uni091B" unicode="&#x91b;" horiz-adv-x="1058" 
d="M645 485v78h-389q-20 0 -25.5 -5.5t-5.5 -25.5v-162q0 -20 5.5 -25.5t25.5 -5.5h155v-59h-155q-20 0 -25.5 -6t-5.5 -25v-159q0 -19 6 -25t25 -6h559q19 0 25.5 6t6.5 25v305q0 19 -6.5 25t-25.5 6h-221q-19 0 -25.5 -6t-6.5 -25v-132q0 -19 6.5 -25t25.5 -6h113v-59
h-171q-79 0 -79 78v156q0 78 79 78h109zM1078 563h-323v-78h115q78 0 78 -78v-329q0 -78 -78 -78h-679q-79 0 -79 78v176q0 49 46 52v4q-46 3 -46 52v172q0 22 10 29h-142v59h1098v-59z" />
    <glyph glyph-name="uni091C" unicode="&#x91c;" horiz-adv-x="1075" 
d="M1095 622v-59h-149v-563h-112v426h-211v-270q0 -78 -78 -78h-357q-78 0 -78 78v329h110v-317q0 -19 6.5 -25t25.5 -6h229q19 0 25.5 6t6.5 25v317h321v78h-854v59h1115z" />
    <glyph glyph-name="uni091D" unicode="&#x91d;" horiz-adv-x="1101" 
d="M860 331v232h-207v-137h-407q-20 0 -25.5 -6t-5.5 -25v-33q0 -20 5.5 -25.5t25.5 -5.5h614zM1121 622v-59h-149v-563h-112v272h-208q1 -6 1 -19v-97q0 -78 -77 -78h-365v-78h-114v190h114v-53h298q20 0 26.5 6t6.5 25v72q0 19 -6.5 25.5t-26.5 6.5h-329q-78 0 -78 78v57
q0 78 78 78h362v78h-562v59h1141z" />
    <glyph glyph-name="uni091E" unicode="&#x91e;" horiz-adv-x="1041" 
d="M1061 622v-59h-149v-563h-113v259h-204v-103q0 -78 -77 -78h-381q-78 0 -78 78v113h113v-101q0 -19 6 -25t25 -6h249q19 0 25.5 6t6.5 25v227q0 19 -6.5 25t-25.5 6h-218v59h284q77 0 77 -78v-89h204v245h-819v59h1081z" />
    <glyph glyph-name="uni091F" unicode="&#x91f;" horiz-adv-x="757" 
d="M620 426h-366q-19 0 -25 -6t-6 -25v-305q0 -19 6 -25t25 -6h252q19 0 25 6t6 25v154h113v-166q0 -78 -79 -78h-382q-79 0 -79 78v329q0 78 79 78h319v78h-528v59h797v-59h-157v-137z" />
    <glyph glyph-name="uni0920" unicode="&#x920;" horiz-adv-x="780" 
d="M560 90v305q0 19 -6.5 25t-25.5 6h-276q-19 0 -25 -6t-6 -25v-305q0 -19 6 -25t25 -6h276q19 0 25.5 6t6.5 25zM800 563h-354v-78h146q78 0 78 -78v-329q0 -78 -78 -78h-403q-79 0 -79 78v329q0 78 79 78h144v78h-353v59h820v-59z" />
    <glyph glyph-name="uni0921" unicode="&#x921;" horiz-adv-x="737" 
d="M613 426h-363q-20 0 -26 -6t-6 -25v-53q0 -19 6 -25t26 -6h308q79 0 79 -78v-155q0 -78 -79 -78h-371q-78 0 -78 78v95h112v-83q0 -19 6.5 -25t25.5 -6h239q20 0 26 6t6 25v130q0 20 -6 26t-26 6h-308q-78 0 -78 78v77q0 78 78 78h317v78h-521v59h777v-59h-144v-137z" />
    <glyph glyph-name="uni0922" unicode="&#x922;" horiz-adv-x="782" 
d="M622 426h-368q-19 0 -25 -6t-6 -25v-305q0 -19 6 -25t25 -6h281q19 0 25 6t6 25v110q0 19 -6 25t-25 6h-154v59h214q78 0 78 -78v-134q0 -78 -78 -78h-406q-79 0 -79 78v329q0 78 79 78h320v78h-529v59h822v-59h-180v-137z" />
    <glyph glyph-name="uni0923" unicode="&#x923;" horiz-adv-x="1093" 
d="M515 168v395h-297v-395q0 -19 6.5 -25t25.5 -6h233q19 0 25.5 6t6.5 25zM1113 622v-59h-148v-563h-112v563h-231v-407q0 -78 -77 -78h-356q-79 0 -79 78v407h-130v59h1133z" />
    <glyph glyph-name="uni0924" unicode="&#x924;" horiz-adv-x="802" 
d="M822 622v-59h-149v-563h-112v426h-307q-19 0 -25 -6t-6 -25v-305q0 -19 6 -25t25 -6h133v-59h-199q-78 0 -78 78v329q0 78 78 78h373v78h-581v59h842z" />
    <glyph glyph-name="uni0925" unicode="&#x925;" horiz-adv-x="1051" 
d="M1071 622v-59h-149v-563h-112v87q-10 -9 -32 -9h-590q-78 0 -78 78v209h356q19 0 25.5 6t6.5 25v136q0 19 -6.5 25t-25.5 6h-212q-19 0 -25.5 -6t-6.5 -25v-89h-111v101q0 78 79 78h341q78 0 78 -78v-160q0 -78 -78 -78h-308v-138q0 -19 6 -25t25 -6h522q20 0 27 7.5
t7 26.5v451h261z" />
    <glyph glyph-name="uni0926" unicode="&#x926;" horiz-adv-x="756" 
d="M619 426h-382q-19 0 -25.5 -6t-6.5 -25v-227q0 -19 6.5 -25t25.5 -6h245q20 0 27 7.5t7 26.5v95h113v-266h-113v87q-10 -9 -32 -9h-313q-78 0 -78 78v251q0 78 78 78h336v78h-527v59h796v-59h-157v-137z" />
    <glyph glyph-name="uni0927" unicode="&#x927;" horiz-adv-x="1035" 
d="M1055 622v-59h-148v-563h-112v87q-10 -9 -32 -9h-578q-78 0 -78 78v117q0 48 45 51v4q-45 3 -45 53v163q0 78 78 78h343q78 0 78 -78v-118h-99v106q0 19 -6 25t-25 6h-225q-19 0 -25.5 -6t-6.5 -25v-142q0 -19 6 -25t26 -6h150v-59h-150q-19 0 -25.5 -6t-6.5 -26v-100
q0 -19 6.5 -25t25.5 -6h510q19 0 26.5 7.5t7.5 26.5v451h260z" />
    <glyph glyph-name="uni0928" unicode="&#x928;" horiz-adv-x="1054" 
d="M492 168v258h-268q-19 0 -25 -6t-6 -25v-227q0 -19 6 -25t25 -6h237q19 0 25 6t6 25zM1074 622v-59h-149v-563h-112v426h-211v-270q0 -78 -78 -78h-363q-78 0 -78 78v251q0 78 78 78h652v78h-833v59h1094z" />
    <glyph glyph-name="uni0928093C" unicode="&#x929;" horiz-adv-x="1054" 
d="M323 -87v100h113v-100h-113zM492 168v258h-268q-19 0 -25 -6t-6 -25v-227q0 -19 6 -25t25 -6h237q19 0 25 6t6 25zM1074 622v-59h-149v-563h-112v426h-211v-270q0 -78 -78 -78h-363q-78 0 -78 78v251q0 78 78 78h652v78h-833v59h1094z" />
    <glyph glyph-name="uni092A" unicode="&#x92a;" horiz-adv-x="768" 
d="M528 171v392h-307v-395q0 -19 6 -25t25 -6h242q20 0 27 7.5t7 26.5zM789 622v-59h-150v-563h-111v87q-10 -9 -32 -9h-307q-79 0 -79 78v407h-130v59h809z" />
    <glyph glyph-name="uni092B" unicode="&#x92b;" horiz-adv-x="1131" 
d="M528 171v392h-307v-395q0 -19 6 -25t25 -6h242q20 0 27 7.5t7 26.5zM1152 563h-513v-87q11 9 32 9h289q79 0 79 -78v-251q0 -78 -79 -78h-272v59h207q19 0 25 6t6 25v227q0 19 -6 25t-25 6h-222q-19 0 -26.5 -7t-7.5 -27v-392h-111v87q-10 -9 -32 -9h-307q-79 0 -79 78
v407h-130v59h1172v-59z" />
    <glyph glyph-name="uni092C" unicode="&#x92c;" horiz-adv-x="829" 
d="M234 137h320q8 0 11 1l-366 248q4 -60 4 -104v-114q0 -19 6 -25t25 -6zM849 622v-59h-148v-563h-113v87q-10 -9 -32 -9h-385q-78 0 -78 78v251q0 78 78 78h375v-59h-316l366 -249q-8 47 -8 136v250h-608v59h869z" />
    <glyph glyph-name="uni092D" unicode="&#x92d;" horiz-adv-x="1083" 
d="M517 167v144h-269q-20 0 -26 -6.5t-6 -25.5v-112q0 -18 6.5 -24.5t25.5 -6.5h237q19 0 25.5 6.5t6.5 24.5zM1103 622v-59h-149v-563h-112v311h-213v-155q0 -78 -78 -78h-364q-78 0 -78 78v136q0 78 78 78h330v162q0 19 -6.5 25t-25.5 6h-231q-19 0 -25 -6t-6 -25v-87
h-113v99q0 78 79 78h362q78 0 78 -78v-174h213v252h261z" />
    <glyph glyph-name="uni092E" unicode="&#x92e;" horiz-adv-x="1084" 
d="M844 485v78h-214v-78h214zM517 168v258h-268q-19 0 -25 -6t-6 -25v-227q0 -19 6 -25t25 -6h237q19 0 25 6t6 25zM1104 622v-59h-148v-563h-112v426h-214v-270q0 -78 -78 -78h-364q-78 0 -78 78v251q0 78 78 78h329v78h-537v59h1124z" />
    <glyph glyph-name="uni092F" unicode="&#x92f;" horiz-adv-x="964" 
d="M724 175v388h-216q10 -8 10 -29v-147q0 -78 -78 -78h-253v-141q0 -19 6 -25t25 -6h465q23 0 32 8.5t9 29.5zM984 622v-59h-149v-563h-111v93q-10 -15 -37 -15h-535q-78 0 -78 78v212h300q20 0 26 6t6 26v132q0 19 -6 25t-26 6h-394v59h1004z" />
    <glyph glyph-name="uni0930" unicode="&#x930;" horiz-adv-x="757" 
d="M777 622v-59h-157q10 -7 10 -29v-171q0 -78 -78 -78h-329v-195q0 -19 6 -25t25 -6h224q19 0 25.5 6t6.5 25v121h112v-133q0 -78 -78 -78h-356q-78 0 -78 78v354h113v-88h263q19 0 25 6t6 25v157q0 20 -5.5 25.5t-25.5 5.5h-506v59h797z" />
    <glyph glyph-name="uni0930093C" unicode="&#x931;" horiz-adv-x="757" 
d="M173 -165v100h113v-100h-113zM777 622v-59h-157q10 -7 10 -29v-171q0 -78 -78 -78h-329v-195q0 -19 6 -25t25 -6h224q19 0 25.5 6t6.5 25v121h112v-133q0 -78 -78 -78h-356q-78 0 -78 78v354h113v-88h263q19 0 25 6t6 25v157q0 20 -5.5 25.5t-25.5 5.5h-506v59h797z" />
    <glyph glyph-name="uni0932" unicode="&#x932;" horiz-adv-x="1137" 
d="M1157 622v-59h-149v-563h-113v426h-249q-19 0 -25 -6t-6 -25v-204h-112v204q0 19 -6.5 25t-26.5 6h-216q-19 0 -25 -6t-6 -25v-305q0 -19 6 -25t25 -6h220v-59h-286q-78 0 -78 78v329q0 78 78 78h310q53 0 59 -39h4q8 39 50 39h284v78h-915v59h1177z" />
    <glyph glyph-name="uni0933" unicode="&#x933;" horiz-adv-x="1055" 
d="M814 426h-204q-19 0 -25.5 -6t-6.5 -25v-227q0 -19 6.5 -25t25.5 -6h204q19 0 25.5 6t6.5 25v227q0 19 -6.5 25t-25.5 6zM477 168v227q0 19 -6.5 25t-25.5 6h-204q-19 0 -25.5 -6t-6.5 -25v-227q0 -19 6.5 -25t25.5 -6h204q19 0 25.5 6t6.5 25zM1075 563h-289v-78h90
q79 0 79 -78v-251q0 -78 -79 -78h-297q-24 0 -35 9t-14 30h-4q-7 -39 -60 -39h-287q-78 0 -78 78v251q0 78 78 78h287q53 0 60 -39h4q4 39 49 39h95v78h-694v59h1095v-59z" />
    <glyph glyph-name="uni0933093C" unicode="&#x934;" horiz-adv-x="1055" 
d="M309 -87v100h113v-100h-113zM814 426h-204q-19 0 -25.5 -6t-6.5 -25v-227q0 -19 6.5 -25t25.5 -6h204q19 0 25.5 6t6.5 25v227q0 19 -6.5 25t-25.5 6zM477 168v227q0 19 -6.5 25t-25.5 6h-204q-19 0 -25.5 -6t-6.5 -25v-227q0 -19 6.5 -25t25.5 -6h204q19 0 25.5 6
t6.5 25zM1075 563h-289v-78h90q79 0 79 -78v-251q0 -78 -79 -78h-297q-24 0 -35 9t-14 30h-4q-7 -39 -60 -39h-287q-78 0 -78 78v251q0 78 78 78h287q53 0 60 -39h4q4 39 49 39h95v78h-694v59h1095v-59z" />
    <glyph glyph-name="uni0935" unicode="&#x935;" horiz-adv-x="769" 
d="M789 622v-59h-149v-563h-111v87q-11 -9 -32 -9h-317q-79 0 -79 78v251q0 78 79 78h299v-59h-234q-19 0 -25 -6t-6 -25v-227q0 -19 6 -25t25 -6h250q19 0 26.5 7.5t7.5 26.5v392h-549v59h809z" />
    <glyph glyph-name="uni0936" unicode="&#x936;" horiz-adv-x="1110" 
d="M207 622h363q78 0 78 -78v-201q0 -78 -78 -78h-330v-175q0 -19 6.5 -25t25.5 -6h231q19 0 25 6t6 25v106h113v-118q0 -78 -79 -78h-362q-78 0 -78 78v295h112v-49h264q19 0 25.5 6t6.5 25v177q0 19 -6.5 25t-25.5 6h-232q-19 0 -25.5 -6t-6.5 -25v-84h-112v96q0 78 79 78
zM1130 622v-59h-148v-563h-113v622h261z" />
    <glyph glyph-name="uni0937" unicode="&#x937;" horiz-adv-x="829" 
d="M593 349v214h-378l384 -362q-6 65 -6 148zM253 137h305q22 0 28 9l-372 350q7 -56 7 -127v-201q0 -19 6.5 -25t25.5 -6zM849 622v-59h-148v-563h-109v87q-10 -9 -32 -9h-371q-79 0 -79 78v407h-130v59h869z" />
    <glyph glyph-name="uni0938" unicode="&#x938;" horiz-adv-x="1096" 
d="M855 339v224h-232q10 -7 10 -29v-176q0 -13 -1 -19h223zM1117 622v-59h-150v-563h-112v280h-632v-190q0 -19 6 -25t25 -6h234q19 0 25.5 6t6.5 25v124h112v-136q0 -78 -78 -78h-365q-79 0 -79 78v398h113v-137h266q19 0 25.5 6t6.5 25v162q0 19 -6 25t-26 6h-509v59h1137
z" />
    <glyph glyph-name="uni0939" unicode="&#x939;" horiz-adv-x="765" 
d="M636 426h-375q-19 0 -25 -6t-6 -25v-40q0 -19 6 -25t25 -6h313q81 0 81 -81v-101h-108v92q0 18 -6.5 24.5t-25.5 6.5h-254q-19 0 -25 -5.5t-6 -25.5v-144q0 -19 6 -25t25 -6h392v-59h-457q-79 0 -79 78v159q0 49 46 52v4q-46 2 -46 52v62q0 78 79 78h329v78h-545v59h805
v-59h-149v-137z" />
    <glyph glyph-name="uni093C" unicode="&#x93c;" horiz-adv-x="0" 
d="M-283 -165v100h113v-100h-113z" />
    <glyph glyph-name="uni093D" unicode="&#x93d;" horiz-adv-x="708" 
d="M251 369h282q78 0 78 -78v-213q0 -78 -78 -78h-346q-77 0 -77 79v104h111v-92q0 -19 6.5 -25.5t26.5 -6.5h213q19 0 25 5.5t6 25.5v188q0 20 -6 26t-25 6h-283q-77 0 -77 78v156q0 78 77 78h423v-59h-356q-20 0 -26.5 -6t-6.5 -25v-132q0 -19 6.5 -25t26.5 -6z" />
    <glyph glyph-name="uni093E" unicode="&#x93e;" 
d="M390 622v-59h-149v-563h-112v563h-149v59h410z" />
    <glyph glyph-name="uni093F" unicode="&#x93f;" 
d="M207 822h677q77 0 77 -79v-75h-112v63q0 20 -6 26t-25 6h-545q-19 0 -25.5 -6.5t-6.5 -25.5v-109h149v-59h-149v-563h-112v563h-149v59h149v121q0 79 78 79z" />
    <glyph glyph-name="uni0940" unicode="&#x940;" 
d="M390 622v-59h-149v-563h-112v563h-149v59h149v109q0 19 -6.5 25.5t-25.5 6.5h-199q-20 0 -26 -6.5t-6 -25.5v-63h-112v75q0 79 78 79h331q78 0 78 -79v-121h149z" />
    <glyph glyph-name="uni0941" unicode="&#x941;" horiz-adv-x="0" 
d="M-267 0h191q40 0 57.5 -17.5t17.5 -57.5v-120q0 -40 -17.5 -57.5t-57.5 -17.5h-281q-54 0 -77 11t-49 53l-70 116h120l54 -93q10 -16 18 -22t24 -6h191q19 0 26.5 7.5t7.5 25.5v86q0 18 -7.5 25.5t-26.5 7.5h-121v59z" />
    <glyph glyph-name="uni0942" unicode="&#x942;" horiz-adv-x="0" 
d="M-172 -59h-165q-19 0 -26.5 -7.5t-7.5 -25.5v-86q0 -18 7.5 -25.5t26.5 -7.5h128v-59h-197q-40 0 -57.5 17.5t-17.5 57.5v120q0 40 17.5 57.5t57.5 17.5h254q55 0 78 -10.5t48 -53.5l122 -206h-120l-106 183q-10 16 -18 22t-24 6z" />
    <glyph glyph-name="uni0943" unicode="&#x943;" horiz-adv-x="0" 
d="M-293 -211h283v-59h-352q-40 0 -57.5 17.5t-17.5 57.5v120q0 40 17.5 57.5t57.5 17.5h307v-59h-238q-19 0 -26.5 -7.5t-7.5 -25.5v-86q0 -18 7.5 -25.5t26.5 -7.5z" />
    <glyph glyph-name="uni0944" unicode="&#x944;" horiz-adv-x="0" 
d="M-293 -424h274v-59h-343q-40 0 -57.5 17.5t-17.5 57.5v102q0 42 28 64q-28 23 -28 65v102q0 40 17.5 57.5t57.5 17.5h314v-59h-245q-19 0 -26.5 -7.5t-7.5 -25.5v-87q0 -18 7.5 -25.5t26.5 -7.5h271v-59h-271q-19 0 -26.5 -7.5t-7.5 -25.5v-87q0 -18 7.5 -25.5t26.5 -7.5
z" />
    <glyph glyph-name="uni0945" unicode="&#x945;" horiz-adv-x="0" 
d="M31 852h106v-89q0 -78 -78 -78h-345q-78 0 -78 78v89h106v-77q0 -19 6 -25t25 -6h227q19 0 25 6t6 25v77z" />
    <glyph glyph-name="uni0946" unicode="&#x946;" horiz-adv-x="0" 
d="M-408 743h275q78 0 78 -78v-78h-113v65q0 20 -6 26t-25 6h-275q-78 0 -78 78v56h112v-44q0 -19 6.5 -25t25.5 -6z" />
    <glyph glyph-name="uni0947" unicode="&#x947;" horiz-adv-x="0" 
d="M-120 612h-106q-60 46 -113 109l-85 101h126z" />
    <glyph glyph-name="uni0948" unicode="&#x948;" horiz-adv-x="0" 
d="M-189 622h5q-14 25 -61 147l-22 53h95l45 -210h-107q-30 18 -94 78l-139 132h121l43 -49q72 -80 114 -151z" />
    <glyph glyph-name="uni0949" unicode="&#x949;" 
d="M-20 563v59h410v-59h-149v-563h-112v563h-149zM329 852h106v-89q0 -78 -78 -78h-345q-78 0 -78 78v89h106v-77q0 -19 6 -25t25 -6h227q19 0 25 6t6 25v77z" />
    <glyph glyph-name="uni094A" unicode="&#x94a;" 
d="M390 622v-59h-149v-563h-112v563h-149v59h148v30q0 20 -6 26t-25 6h-275q-78 0 -78 78v56h112v-44q0 -19 6.5 -25t25.5 -6h275q78 0 78 -78v-43h149z" />
    <glyph glyph-name="uni094B" unicode="&#x94b;" 
d="M390 622v-59h-149v-563h-112v563h-149v59h151q-60 50 -100 99l-85 101h126l170 -200h148z" />
    <glyph glyph-name="uni094C" unicode="&#x94c;" 
d="M390 622v-59h-149v-563h-112v563h-149v59h142q-31 23 -80 68l-139 132h121l43 -49q72 -80 114 -151h5q-14 25 -61 147l-22 53h95l43 -200h149z" />
    <glyph glyph-name="uni094D" unicode="&#x94d;" horiz-adv-x="0" 
d="M-243 -61h114l112 -146h-118z" />
    <glyph glyph-name="uni0950" unicode="&#x950;" horiz-adv-x="1104" 
d="M949 740v-94h-94v94h94zM595 402h472q78 0 78 -78v-246q0 -78 -78 -78h-311q-78 0 -78 78v128h112v-116q0 -19 6.5 -25t25.5 -6h179q19 0 25.5 6t6.5 25v222q0 19 -6 25t-26 6h-451v-4q45 -3 45 -51v-210q0 -78 -78 -78h-364q-78 0 -78 78v128h112v-116q0 -19 6.5 -25
t25.5 -6h232q19 0 25.5 6t6.5 25v189q0 19 -6 25t-26 6h-133v59h133q19 0 25.5 6.5t6.5 25.5v131q0 19 -6 25t-26 6h-232q-20 0 -26 -6t-6 -25v-85h-112v97q0 78 78 78h364q78 0 78 -78v-142zM1052 694h100v-89q0 -78 -77 -78h-344q-78 0 -78 78v89h100v-76q0 -20 6.5 -26
t25.5 -6h235q20 0 26 6t6 26v76z" />
    <glyph glyph-name="uni0951" unicode="&#x951;" horiz-adv-x="0" 
d="M-238 711v260h111v-260h-111z" />
    <glyph glyph-name="uni0952" unicode="&#x952;" horiz-adv-x="0" 
d="M-55 -190h-447v59h447v-59z" />
    <glyph glyph-name="uni0953" unicode="&#x953;" horiz-adv-x="0" 
d="M-374 927l79 69l167 -200l-79 -69z" />
    <glyph glyph-name="uni0954" unicode="&#x954;" horiz-adv-x="0" 
d="M-50 996l79 -69l-167 -200l-79 69z" />
    <glyph glyph-name="uni0915093C" unicode="&#x958;" horiz-adv-x="1083" 
d="M164 -87v100h113v-100h-113zM1103 563h-505v-87q10 9 32 9h282q79 0 79 -78v-251q0 -78 -79 -78h-264v59h199q19 0 25 6t6 25v227q0 19 -6 25t-25 6h-215q-20 0 -27 -7t-7 -27v-392h-112v87q-10 -9 -32 -9h-283q-78 0 -78 78v251q0 78 78 78h265v-59h-199q-19 0 -25.5 -6
t-6.5 -25v-227q0 -19 6.5 -25t25.5 -6h215q20 0 27 7.5t7 26.5v392h-506v59h1123v-59z" />
    <glyph glyph-name="uni0916093C" unicode="&#x959;" horiz-adv-x="1375" 
d="M495 -165v100h113v-100h-113zM1394 622v-59h-148v-563h-111v134q-10 -14 -36 -14h-314q-77 0 -77 78v179q0 78 77 78h305v-59h-247q-19 0 -25.5 -6t-6.5 -25v-156q0 -18 6.5 -24.5t25.5 -6.5h253q21 0 30 8.5t9 29.5v347h-569v-247q0 -77 -78 -77h-265v-149
q0 -19 6.5 -25t25.5 -6h391v-59h-459q-77 0 -77 78v392h113v-172h201q20 0 25.5 6t5.5 25v234h-475v59h1414z" />
    <glyph glyph-name="uni0917093C" unicode="&#x95a;" horiz-adv-x="1106" 
d="M312 -87v100h113v-100h-113zM221 137h290q19 0 25 6t6 25v199h-321q-19 0 -25.5 -6t-6.5 -25v-168q0 -19 6.5 -25t25.5 -6zM1126 622v-59h-149v-563h-112v563h-211v-407q0 -78 -78 -78h-415q-78 0 -78 78v192q0 78 78 78h381v137h-562v59h1146z" />
    <glyph glyph-name="uni091C093C" unicode="&#x95b;" horiz-adv-x="1075" 
d="M301 -87v100h113v-100h-113zM1095 622v-59h-149v-563h-112v426h-211v-270q0 -78 -78 -78h-357q-78 0 -78 78v329h110v-317q0 -19 6.5 -25t25.5 -6h229q19 0 25.5 6t6.5 25v317h321v78h-854v59h1115z" />
    <glyph glyph-name="uni0921093C" unicode="&#x95c;" horiz-adv-x="737" 
d="M353 -165v100h113v-100h-113zM613 426h-363q-20 0 -26 -6t-6 -25v-53q0 -19 6 -25t26 -6h308q79 0 79 -78v-155q0 -78 -79 -78h-371q-78 0 -78 78v95h112v-83q0 -19 6.5 -25t25.5 -6h239q20 0 26 6t6 25v130q0 20 -6 26t-26 6h-308q-78 0 -78 78v77q0 78 78 78h317v78
h-521v59h777v-59h-144v-137z" />
    <glyph glyph-name="uni0922093C" unicode="&#x95d;" horiz-adv-x="782" 
d="M371 -165v100h113v-100h-113zM622 426h-368q-19 0 -25 -6t-6 -25v-305q0 -19 6 -25t25 -6h281q19 0 25 6t6 25v110q0 19 -6 25t-25 6h-154v59h214q78 0 78 -78v-134q0 -78 -78 -78h-406q-79 0 -79 78v329q0 78 79 78h320v78h-529v59h822v-59h-180v-137z" />
    <glyph glyph-name="uni092B093C" unicode="&#x95e;" horiz-adv-x="1131" 
d="M119 -87v100h113v-100h-113zM528 171v392h-307v-395q0 -19 6 -25t25 -6h242q20 0 27 7.5t7 26.5zM1152 563h-513v-87q11 9 32 9h289q79 0 79 -78v-251q0 -78 -79 -78h-272v59h207q19 0 25 6t6 25v227q0 19 -6 25t-25 6h-222q-19 0 -26.5 -7t-7.5 -27v-392h-111v87
q-10 -9 -32 -9h-307q-79 0 -79 78v407h-130v59h1172v-59z" />
    <glyph glyph-name="uni092F093C" unicode="&#x95f;" horiz-adv-x="964" 
d="M255 -87v100h113v-100h-113zM724 175v388h-216q10 -8 10 -29v-147q0 -78 -78 -78h-253v-141q0 -19 6 -25t25 -6h465q23 0 32 8.5t9 29.5zM984 622v-59h-149v-563h-111v93q-10 -15 -37 -15h-535q-78 0 -78 78v212h300q20 0 26 6t6 26v132q0 19 -6 25t-26 6h-394v59h1004z
" />
    <glyph glyph-name="uni0960" unicode="&#x960;" horiz-adv-x="1332" 
d="M875 394v-101q0 -32 27 -32h205q25 0 25 32v101q0 19 -6 25.5t-25 6.5h-196q-19 0 -24.5 -6.5t-5.5 -25.5zM632 563v-302h147q-14 13 -14 58v88q0 78 78 78h318q79 0 79 -78v-129q0 -77 -79 -77h-256q-18 0 -24 -5.5t-6 -23.5v-81q0 -19 5 -25.5t24 -6.5h192q19 0 24.5 6
t5.5 24v48h111v-59q0 -36 -18 -57t-53 -21h-321q-79 0 -79 78v76q0 33 14 47h-148v-201h-111v201h-76l-235 -201h-142l276 234l-132 134q-34 34 -67 44.5t-75 10.5h-22v62h64q67 0 107 -12.5t82 -55.5l152 -156h68v302h-541v59h1372v-59h-720z" />
    <glyph glyph-name="uni0961" unicode="&#x961;" horiz-adv-x="1136" 
d="M1008 112h-236q-19 0 -26.5 -7.5t-7.5 -25.5v-87q0 -18 7.5 -25.5t26.5 -7.5h261v-59h-261q-19 0 -26.5 -7.5t-7.5 -25.5v-87q0 -18 7.5 -25.5t26.5 -7.5h265v-59h-335q-40 0 -57.5 17.5t-17.5 57.5v102q0 42 28 64q-28 23 -28 65v102q0 40 17.5 57.5t57.5 17.5h193v255
h-249q-19 0 -25 -6t-6 -25v-170h-112v170q0 19 -6.5 25t-26.5 6h-216q-19 0 -25 -6t-6 -25v-305q0 -19 6 -25t25 -6h220v-59h-286q-78 0 -78 78v329q0 78 78 78h310q53 0 59 -39h4q8 39 50 39h284v78h-915v59h1176v-59h-148v-451z" />
    <glyph glyph-name="uni0964" unicode="&#x964;" horiz-adv-x="427" 
d="M189 0v622h111v-622h-111z" />
    <glyph glyph-name="uni0965" unicode="&#x965;" horiz-adv-x="795" 
d="M189 0v622h111v-622h-111zM558 0v622h111v-622h-111z" />
    <glyph glyph-name="uni0966" unicode="&#x966;" horiz-adv-x="742" 
d="M521 91v440q0 19 -5.5 25.5t-24.5 6.5h-239q-19 0 -24.5 -6.5t-5.5 -25.5v-440q0 -19 5.5 -25.5t24.5 -6.5h239q19 0 24.5 6.5t5.5 25.5zM189 622h364q77 0 77 -78v-466q0 -78 -77 -78h-364q-77 0 -77 78v466q0 78 77 78z" />
    <glyph glyph-name="uni0967" unicode="&#x967;" horiz-adv-x="508" 
d="M379 622v-622h-112v563h-176v59h288z" />
    <glyph glyph-name="uni0968" unicode="&#x968;" horiz-adv-x="764" 
d="M647 59v-59h-527v58l326 288q45 40 65 72t20 75v38q0 19 -5.5 25.5t-23.5 6.5h-234q-19 0 -24.5 -6.5t-5.5 -25.5v-128h-112v141q0 78 77 78h364q76 0 76 -79v-49q0 -68 -22.5 -106.5t-72.5 -83.5l-274 -245h373z" />
    <glyph glyph-name="uni0969" unicode="&#x969;" horiz-adv-x="733" 
d="M485 62q19 0 24.5 7t5.5 26v151q0 35 -36 35h-122v60h123q35 0 35 36v150q0 19 -5.5 26t-24.5 7h-247q-19 0 -24 -7t-5 -26v-90h-112v107q0 78 77 78h375q77 0 77 -79v-159q0 -62 -56 -70v-4q56 -5 56 -68v-162q0 -80 -77 -80h-375q-77 0 -77 78v109h113v-92q0 -19 5 -26
t23 -7h247z" />
    <glyph glyph-name="uni096A" unicode="&#x96a;" horiz-adv-x="725" 
d="M659 179v-59h-113v-120h-105v120h-369v64l220 438h111l-217 -443h255v147h105v-147h113z" />
    <glyph glyph-name="uni096B" unicode="&#x96b;" horiz-adv-x="732" 
d="M222 391h332q77 0 77 -78v-233q0 -80 -77 -80h-367q-77 0 -77 78v131h113v-118q0 -19 5 -25.5t24 -6.5h238q19 0 24 6.5t5 25.5v209q0 19 -5 25.5t-24 6.5h-380v290h510v-59h-398v-172z" />
    <glyph glyph-name="uni096C" unicode="&#x96c;" horiz-adv-x="752" 
d="M533 91v175q0 19 -5.5 26t-24.5 7h-279v-208q0 -19 5 -25.5t24 -6.5h250q19 0 24.5 6.5t5.5 25.5zM224 357h344q77 0 77 -77v-202q0 -78 -77 -78h-379q-77 0 -77 78v466q0 78 77 78h378q77 0 77 -78v-113h-112v100q0 19 -5 25.5t-24 6.5h-250q-19 0 -24 -6.5t-5 -25.5
v-174z" />
    <glyph glyph-name="uni096D" unicode="&#x96d;" horiz-adv-x="591" 
d="M519 622v-53l-231 -569h-111l229 563h-338v59h451z" />
    <glyph glyph-name="uni096E" unicode="&#x96e;" horiz-adv-x="709" 
d="M506 374v157q0 19 -6 25.5t-25 6.5h-243q-19 0 -24.5 -6.5t-5.5 -25.5v-157q0 -18 7.5 -25.5t26.5 -7.5h238q18 0 25 7.5t7 25.5zM506 91v158q0 18 -7 25.5t-25 7.5h-241q-18 0 -24.5 -7.5t-6.5 -25.5v-158q0 -19 5.5 -25.5t24.5 -6.5h243q18 0 24.5 6.5t6.5 25.5z
M615 543v-156q0 -75 -59 -75v-4q31 0 45 -16.5t14 -52.5v-159q0 -80 -78 -80h-367q-77 0 -77 80v159q0 36 14 52.5t45 16.5v4q-59 0 -59 75v156q0 79 77 79h367q78 0 78 -79z" />
    <glyph glyph-name="uni096F" unicode="&#x96f;" horiz-adv-x="752" 
d="M248 314h280v217q0 19 -5.5 25.5t-24.5 6.5h-250q-19 0 -24 -6.5t-5 -25.5v-185q0 -19 5 -25.5t24 -6.5zM184 622h379q77 0 77 -78v-466q0 -78 -77 -78h-378q-77 0 -77 78v105h112v-92q0 -19 5 -25.5t24 -6.5h249q19 0 24.5 6.5t5.5 25.5v164h-344q-77 0 -77 78v211
q0 78 77 78z" />
    <glyph glyph-name="uni0970" unicode="&#x970;" horiz-adv-x="662" 
d="M469 218v126q0 19 -6 25t-25 6h-214q-19 0 -25.5 -6t-6.5 -25v-126q0 -19 6.5 -25t25.5 -6h214q19 0 25 6t6 25zM172 432h317q78 0 78 -78v-146q0 -78 -78 -78h-317q-78 0 -78 78v146q0 78 78 78z" />
    <glyph glyph-name="uni0972" unicode="&#x972;" horiz-adv-x="1067" 
d="M1087 622v-59h-148v-563h-113v294h-205v-138q0 -78 -78 -78h-372q-79 0 -79 78v97h113v-85q0 -20 5.5 -25.5t25.5 -5.5h241q20 0 26 6t6 25v116q0 20 -7.5 27t-26.5 7h-157v59h157q19 0 26.5 7.5t7.5 26.5v121q0 19 -6 25t-26 6h-241q-20 0 -25.5 -5.5t-5.5 -25.5v-85
h-113v97q0 78 79 78h372q78 0 78 -78v-134q0 -50 -46 -53v-4h251v269h261zM1027 852h106v-89q0 -78 -78 -78h-345q-78 0 -78 78v89h106v-77q0 -19 6 -25t25 -6h227q19 0 25 6t6 25v77z" />
    <glyph glyph-name="uni097D" unicode="&#x97d;" horiz-adv-x="711" 
d="M215 682h289q78 0 78 -77v-275q0 -77 -78 -77h-113v-253h-110v312h164q18 0 23.5 6.5t5.5 25.5v246q0 20 -5.5 27t-23.5 7h-166q-19 0 -25 -7t-6 -27v-117h-111v132q0 77 78 77z" />
    <glyph glyph-name="uni200B" unicode="&#x200b;" horiz-adv-x="0" 
 />
    <glyph glyph-name="uni200C" unicode="&#x200c;" horiz-adv-x="0" 
d="M-24 794h51v-1140h-51v1140z" />
    <glyph glyph-name="uni200D" unicode="&#x200d;" horiz-adv-x="0" 
d="M18 -346h-51v950l-74 -73l-42 39l104 95l-104 96l41 38l101 -99l100 99l40 -38l-104 -96l104 -95l-41 -39l-74 74v-951z" />
    <glyph glyph-name="endash" unicode="&#x2013;" horiz-adv-x="615" 
d="M61 262v59h473v-59h-473z" />
    <glyph glyph-name="emdash" unicode="&#x2014;" horiz-adv-x="916" 
d="M61 262v59h793v-59h-793z" />
    <glyph glyph-name="quoteleft" unicode="&#x2018;" horiz-adv-x="229" 
d="M171 622v-258h-120v62l81 196h39z" />
    <glyph glyph-name="quoteright" unicode="&#x2019;" horiz-adv-x="229" 
d="M59 364v258h120v-62l-80 -196h-40z" />
    <glyph glyph-name="quotesinglbase" unicode="&#x201a;" horiz-adv-x="229" 
d="M59 -133v258h120v-62l-80 -196h-40z" />
    <glyph glyph-name="quotedblleft" unicode="&#x201c;" horiz-adv-x="398" 
d="M171 622v-258h-120v62l81 196h39zM341 622v-258h-120v62l81 196h39z" />
    <glyph glyph-name="quotedblright" unicode="&#x201d;" horiz-adv-x="398" 
d="M230 364v258h120v-62l-80 -196h-40zM59 364v258h120v-62l-80 -196h-40z" />
    <glyph glyph-name="quotedblbase" unicode="&#x201e;" horiz-adv-x="398" 
d="M230 -133v258h120v-62l-80 -196h-40zM59 -133v258h120v-62l-80 -196h-40z" />
    <glyph glyph-name="dagger" unicode="&#x2020;" horiz-adv-x="602" 
d="M522 462v-59h-165v-520h-110v520h-167v59h167v160h110v-160h165z" />
    <glyph glyph-name="daggerdbl" unicode="&#x2021;" horiz-adv-x="608" 
d="M525 394h-166v-317h166v-59h-166v-171h-109v171h-168v59h168v317h-168v59h168v169h109v-169h166v-59z" />
    <glyph glyph-name="bullet" unicode="&#x2022;" horiz-adv-x="447" 
d="M224 450q60 0 102.5 -38.5t42.5 -92.5t-42.5 -92.5t-102.5 -38.5t-102.5 38.5t-42.5 92.5t42.5 92.5t102.5 38.5z" />
    <glyph glyph-name="ellipsis" unicode="&#x2026;" horiz-adv-x="751" 
d="M59 0v116h128v-116h-128zM314 0v116h128v-116h-128zM567 0v116h127v-116h-127z" />
    <glyph glyph-name="perthousand" unicode="&#x2030;" horiz-adv-x="1563" 
d="M1045 271v-205q0 -66 -63 -66h-240q-62 0 -62 66v205q0 66 62 66h240q63 0 63 -66zM960 79v179q0 17 -4.5 22t-21.5 5h-142q-17 0 -21.5 -5t-4.5 -22v-179q0 -18 4.5 -23t21.5 -5h142q17 0 21.5 5t4.5 23zM735 622h95l-467 -622h-94zM422 555v-204q0 -66 -63 -66h-240
q-63 0 -63 66v204q0 66 63 66h240q63 0 63 -66zM337 363v179q0 18 -4.5 23t-21.5 5h-142q-17 0 -21.5 -5t-4.5 -23v-179q0 -17 4.5 -22t21.5 -5h142q17 0 21.5 5t4.5 22zM1505 271v-205q0 -66 -62 -66h-241q-62 0 -62 66v205q0 66 62 66h241q62 0 62 -66zM1420 79v179
q0 17 -4.5 22t-21.5 5h-142q-17 0 -21.5 -5t-4.5 -22v-179q0 -18 4.5 -23t21.5 -5h142q17 0 21.5 5t4.5 23z" />
    <glyph glyph-name="guilsinglleft" unicode="&#x2039;" horiz-adv-x="331" 
d="M180 103l-126 154l126 154h116l-128 -154l128 -154h-116z" />
    <glyph glyph-name="guilsinglright" unicode="&#x203a;" horiz-adv-x="328" 
d="M280 257l-127 -154h-115l128 154l-128 154h115z" />
    <glyph glyph-name="fraction" unicode="&#x2044;" horiz-adv-x="546" 
d="M434 622h100l-414 -622h-99z" />
    <glyph glyph-name="Euro" unicode="&#x20ac;" horiz-adv-x="699" 
d="M643 410h-111v122q0 20 -6 25.5t-25 5.5h-227q-20 0 -25.5 -5.5t-5.5 -25.5v-127h171v-59h-171v-69h171v-59h-171v-128q0 -20 5.5 -25.5t25.5 -5.5h227q19 0 25 5.5t6 25.5v122h111v-133q0 -79 -79 -79h-353q-79 0 -79 79v139h-95v59h95v69h-95v59h95v138q0 79 79 79h353
q79 0 79 -79v-133z" />
    <glyph glyph-name="trademark" unicode="&#x2122;" horiz-adv-x="959" 
d="M21 561v61h358v-61h-134v-268h-90v268h-134zM902 622v-329h-83v234l-110 -183h-73l-107 184v-235h-83v329h105l121 -207l124 207h106z" />
    <glyph glyph-name="uni2126" unicode="&#x2126;" horiz-adv-x="754" 
d="M700 59v-59h-267v59h65q20 0 25.5 5.5t5.5 25.5v442q0 20 -5.5 25.5t-25.5 5.5h-240q-20 0 -25.5 -5.5t-5.5 -25.5v-442q0 -20 5.5 -25.5t25.5 -5.5h64v-59h-268v59h87q-24 13 -24 54v430q0 79 79 79h363q79 0 79 -79v-430q0 -41 -24 -54h86z" />
    <glyph glyph-name="product" unicode="&#x220f;" horiz-adv-x="756" 
d="M160 622h501v-622h-106v563h-288v-484q0 -79 -79 -79h-153v63h94q19 0 25 5.5t6 25.5v528z" />
    <glyph glyph-name="minus" unicode="&#x2212;" horiz-adv-x="680" 
d="M56 272v78h539v-78h-539z" />
    <glyph glyph-name="uni2215" unicode="&#x2215;" horiz-adv-x="419" 
d="M391 699h103l-414 -835h-102z" />
    <glyph glyph-name="uni2219" unicode="&#x2219;" horiz-adv-x="189" 
d="M36 370h120v-120h-120v120z" />
    <glyph glyph-name="infinity" unicode="&#x221e;" horiz-adv-x="955" 
d="M340 201h-205q-77 0 -77 76v138q0 76 77 76h213q42 0 62.5 -11.5t46.5 -45.5l31 -40l21 31q28 42 47.5 54t65.5 12h196q79 0 79 -76v-138q0 -76 -79 -76h-185q-49 0 -71 10.5t-51 47.5l-23 27l-8 -11q-31 -47 -57 -60.5t-83 -13.5zM623 260h153q22 0 27.5 6.5t5.5 27.5
v104q0 20 -6 27.5t-27 7.5h-163q-21 0 -43 -30l-43 -61l50 -59q18 -23 46 -23zM347 432h-167q-22 0 -28 -7.5t-6 -27.5v-103q0 -21 6 -27.5t28 -6.5h176q34 0 57 32l34 48l-45 58q-14 19 -25 26.5t-30 7.5z" />
    <glyph glyph-name="integral" unicode="&#x222b;" horiz-adv-x="393" 
d="M251 626v-669q0 -79 -79 -79h-148v63h86q19 0 24 5.5t7 25.5v669q0 79 79 79h148v-63h-86q-20 0 -25.5 -5.5t-5.5 -25.5z" />
    <glyph glyph-name="approxequal" unicode="&#x2248;" horiz-adv-x="784" 
d="M179 293h85q71 0 142 -51q27 -19 66 -35t74 -16t47 10t12 33v56h-83q-43 0 -91 25.5t-99 51t-90.5 25.5t-51 -9t-11.5 -33v-57zM709 453v-86q0 -61 -51 -74h51v-86q0 -78 -79 -78h-108q-43 0 -91 25.5t-99 51t-90.5 25.5t-51 -9t-11.5 -32v-60h-104v86q0 65 55 75h-55v86
q0 76 78 76h111q70 0 142.5 -50.5t146.5 -50.5q29 0 40.5 9.5t11.5 33.5v58h104z" />
    <glyph glyph-name="notequal" unicode="&#x2260;" horiz-adv-x="689" 
d="M613 361h-191l-77 -95h268v-76h-330l-64 -78h-77l64 78h-131v76h193l78 95h-271v76h333l59 72h76l-59 -72h129v-76z" />
    <glyph glyph-name="lessequal" unicode="&#x2264;" horiz-adv-x="725" 
d="M658 176v-70h-601v70h601zM658 416l-512 -70l512 -70v-81l-601 105v93l601 104v-81z" />
    <glyph glyph-name="greaterequal" unicode="&#x2265;" horiz-adv-x="725" 
d="M67 106v70h601v-70h-601zM579 346l-512 70v81l600 -104v-93l-600 -105v81z" />
    <glyph glyph-name="lozenge" unicode="&#x25ca;" horiz-adv-x="732" 
d="M679 313l-269 -313h-99l-258 313l258 309h99zM560 313l-199 235l-188 -235l188 -238z" />
    <glyph glyph-name="uni25CC" unicode="&#x25cc;" horiz-adv-x="422" 
d="M137 151v-73q-29 0 -47.5 20t-18.5 53h66zM71 189v73h66v-73h-66zM71 301v73h66v-73h-66zM137 412h-66q0 34 18 53.5t48 19.5v-73zM279 78v73h66q0 -30 -18 -51.5t-48 -21.5zM279 189v73h66v-73h-66zM279 301v73h66v-73h-66zM279 412v73q66 0 66 -73h-66zM175 412v73h66
v-73h-66zM175 78v73h66v-73h-66z" />
    <glyph glyph-name="commaaccent" unicode="&#xf6c3;" horiz-adv-x="614" 
d="M250 -229v180h114v-50l-77 -130h-37z" />
    <glyph glyph-name="uni0915094D" horiz-adv-x="742" 
d="M630 485h273v-59h-271q-20 0 -27 -7t-7 -27v-392h-112v87q-10 -9 -32 -9h-283q-78 0 -78 78v251q0 78 78 78h265v-59h-199q-19 0 -25.5 -6t-6.5 -25v-227q0 -19 6.5 -25t25.5 -6h215q20 0 27 7.5t7 26.5v392h-506v59h869v-59h-251v-87q10 9 32 9z" />
    <glyph glyph-name="uni0916094D" horiz-adv-x="1028" 
d="M223 239v-149q0 -19 6.5 -25t25.5 -6h391v-59h-459q-77 0 -77 78v392h113v-172h201q20 0 25.5 6t5.5 25v234h-475v59h1114v-59h-528v-247q0 -77 -78 -77h-265zM843 178h341v-58h-399q-77 0 -77 78v179q0 78 77 78h305v-59h-247q-19 0 -25.5 -6t-6.5 -25v-156
q0 -18 6.5 -24.5t25.5 -6.5z" />
    <glyph glyph-name="uni0917094D" horiz-adv-x="738" 
d="M221 137h290q19 0 25 6t6 25v199h-321q-19 0 -25.5 -6t-6.5 -25v-168q0 -19 6.5 -25t25.5 -6zM758 622v-59h-104v-407q0 -78 -78 -78h-415q-78 0 -78 78v192q0 78 78 78h381v137h-562v59h778z" />
    <glyph glyph-name="uni0918094D" horiz-adv-x="512" 
d="M254 137h425v-59h-490q-79 0 -79 78v137q0 50 46 53v4q-46 3 -46 52v132q0 22 10 29h-140v59h639v-59h-365q-20 0 -25.5 -5.5t-5.5 -25.5v-123q0 -19 5.5 -25t25.5 -6h197v-59h-197q-20 0 -25.5 -5.5t-5.5 -25.5v-120q0 -19 6 -25t25 -6z" />
    <glyph glyph-name="uni0919094D" horiz-adv-x="854" 
d="M312 -61h114l112 -146h-118zM695 309v83h89v-83h-89zM-20 622h894v-59h-267v-137h-362q-20 0 -26 -6t-6 -25v-61q0 -19 6 -25t26 -6h308q78 0 78 -78v-138q0 -78 -78 -78h-372q-77 0 -77 78v82h112v-70q0 -19 6 -25t26 -6h239q20 0 26 6t6 25v114q0 19 -6 25t-26 6h-309
q-77 0 -77 78v85q0 78 77 78h318v78h-516v59z" />
    <glyph glyph-name="uni091A094D" horiz-adv-x="470" 
d="M576 622v-59h-596v59h596zM260 137h360v-59h-426q-78 0 -78 78v241q0 22 10 29h-94v59h384v-59h-158q-18 0 -24 -6.5t-6 -24.5v-227q0 -19 6.5 -25t25.5 -6z" />
    <glyph glyph-name="uni091B094D" horiz-adv-x="1057" 
d="M1077 563h-821q-20 0 -25.5 -5.5t-5.5 -25.5v-162q0 -20 5.5 -25.5t25.5 -5.5h155v-59h-155q-20 0 -25.5 -6t-5.5 -25v-159q0 -19 6 -25t25 -6h559q19 0 25.5 6t6.5 25v305q0 19 -6.5 25t-25.5 6h-221q-19 0 -25.5 -6t-6.5 -25v-132q0 -19 6.5 -25t25.5 -6h113v-59h-171
q-79 0 -79 78v156q0 78 79 78h334q78 0 78 -78v-329q0 -78 -78 -78h-679q-79 0 -79 78v176q0 49 46 52v4q-46 3 -46 52v172q0 22 10 29h-142v59h1097v-59z" />
    <glyph glyph-name="uni091C094D" horiz-adv-x="713" 
d="M871 622v-59h-891v59h891zM887 485v-59h-264v-270q0 -78 -78 -78h-357q-78 0 -78 78v329h110v-317q0 -19 6.5 -25t25.5 -6h229q19 0 25.5 6t6.5 25v317h374z" />
    <glyph glyph-name="uni091D094D" horiz-adv-x="719" 
d="M884 331v-59h-230q1 -6 1 -19v-97q0 -78 -78 -78h-366v-78h-114v190h114v-53h300q20 0 26 6t6 25v72q0 20 -6.5 26t-25.5 6h-331q-78 0 -78 78v57q0 78 78 78h362v78h-562v59h884v-59h-211v-137h-407q-20 0 -25.5 -6t-5.5 -25v-33q0 -20 5.5 -25.5t25.5 -5.5h638z" />
    <glyph glyph-name="uni091E094D" horiz-adv-x="672" 
d="M813 622v-59h-833v59h833zM829 318v-59h-234v-103q0 -78 -77 -78h-381q-78 0 -78 78v113h113v-101q0 -19 6 -25t25 -6h249q19 0 25.5 6t6.5 25v227q0 19 -6.5 25t-25.5 6h-218v59h284q77 0 77 -78v-89h234z" />
    <glyph glyph-name="uni091F094D" horiz-adv-x="757" 
d="M321 -61h114l112 -146h-118zM620 426h-366q-19 0 -25 -6t-6 -25v-305q0 -19 6 -25t25 -6h252q19 0 25 6t6 25v154h113v-166q0 -78 -79 -78h-382q-79 0 -79 78v329q0 78 79 78h319v78h-528v59h797v-59h-157v-137z" />
    <glyph glyph-name="uni0920094D" horiz-adv-x="780" 
d="M324 -61h114l112 -146h-118zM560 90v305q0 19 -6.5 25t-25.5 6h-276q-19 0 -25 -6t-6 -25v-305q0 -19 6 -25t25 -6h276q19 0 25.5 6t6.5 25zM800 563h-354v-78h146q78 0 78 -78v-329q0 -78 -78 -78h-403q-79 0 -79 78v329q0 78 79 78h144v78h-353v59h820v-59z" />
    <glyph glyph-name="uni0921094D" horiz-adv-x="735" 
d="M312 -61h114l112 -146h-118zM613 426h-363q-20 0 -26 -6t-6 -25v-53q0 -19 6 -25t26 -6h308q79 0 79 -78v-155q0 -78 -79 -78h-371q-78 0 -78 78v95h112v-83q0 -19 6.5 -25t25.5 -6h239q20 0 26 6t6 25v130q0 20 -6 26t-26 6h-308q-78 0 -78 78v77q0 78 78 78h317v78
h-521v59h777v-59h-144v-137z" />
    <glyph glyph-name="uni0922094D" horiz-adv-x="782" 
d="M327 -61h114l112 -146h-118zM622 426h-368q-19 0 -25 -6t-6 -25v-305q0 -19 6 -25t25 -6h281q19 0 25 6t6 25v110q0 19 -6 25t-25 6h-154v59h214q78 0 78 -78v-134q0 -78 -78 -78h-406q-79 0 -79 78v329q0 78 79 78h320v78h-529v59h822v-59h-180v-137z" />
    <glyph glyph-name="uni0923094D" horiz-adv-x="722" 
d="M515 168v395h-297v-395q0 -19 6.5 -25t25.5 -6h233q19 0 25.5 6t6.5 25zM742 622v-59h-120v-407q0 -78 -77 -78h-356q-79 0 -79 78v407h-130v59h762z" />
    <glyph glyph-name="uni0924094D" horiz-adv-x="431" 
d="M-20 563v59h558v-59h-558zM607 485v-59h-353q-19 0 -25 -6t-6 -25v-305q0 -19 6 -25t25 -6h133v-59h-199q-78 0 -78 78v329q0 78 78 78h419z" />
    <glyph glyph-name="uni0925094D" horiz-adv-x="676" 
d="M254 137h622v-59h-688q-78 0 -78 78v209h356q19 0 25.5 6t6.5 25v136q0 19 -6.5 25t-25.5 6h-212q-19 0 -25.5 -6t-6.5 -25v-89h-111v101q0 78 79 78h341q78 0 78 -78v-160q0 -78 -78 -78h-308v-138q0 -19 6 -25t25 -6z" />
    <glyph glyph-name="uni0926094D" horiz-adv-x="756" 
d="M484 -61h114l112 -146h-118zM-20 622h796v-59h-157v-137h-382q-19 0 -25.5 -6t-6.5 -25v-227q0 -19 6.5 -25t25.5 -6h245q20 0 27 7.5t7 26.5v95h113v-266h-113v87q-10 -9 -32 -9h-313q-78 0 -78 78v251q0 78 78 78h336v78h-527v59z" />
    <glyph glyph-name="uni0927094D" horiz-adv-x="667" 
d="M251 137h599v-59h-665q-78 0 -78 78v117q0 48 45 51v4q-45 3 -45 53v163q0 78 78 78h343q78 0 78 -78v-118h-99v106q0 19 -6 25t-25 6h-225q-19 0 -25.5 -6t-6.5 -25v-142q0 -19 6 -25t26 -6h150v-59h-150q-19 0 -25.5 -6t-6.5 -26v-100q0 -19 6.5 -25t25.5 -6z" />
    <glyph glyph-name="uni0928094D" horiz-adv-x="680" 
d="M812 622v-59h-832v59h832zM492 168v258h-268q-19 0 -25 -6t-6 -25v-227q0 -19 6 -25t25 -6h237q19 0 25 6t6 25zM875 485v-59h-273v-270q0 -78 -78 -78h-363q-78 0 -78 78v251q0 78 78 78h714z" />
    <glyph glyph-name="uni092A094D" horiz-adv-x="389" 
d="M252 137h290v-59h-353q-79 0 -79 78v407h-130v59h516v-59h-275v-395q0 -19 6 -25t25 -6z" />
    <glyph glyph-name="uni092B094D" horiz-adv-x="781" 
d="M252 137h242q20 0 27 7.5t7 26.5v392h-307v-395q0 -19 6 -25t25 -6zM671 478h251v-59h-249q-19 0 -26.5 -7.5t-7.5 -26.5v-385h-111v87q-10 -9 -32 -9h-307q-79 0 -79 78v407h-130v59h928v-59h-269v-94q11 9 32 9z" />
    <glyph glyph-name="uni092C094D" horiz-adv-x="471" 
d="M549 622v-59h-569v59h569zM203 286v-118q0 -19 6 -25t25 -6h358l-393 252q4 -59 4 -103zM624 137v-59h-453q-78 0 -78 78v251q0 78 78 78h375v-59h-316l388 -251l-1 -38h7z" />
    <glyph glyph-name="uni092D094D" horiz-adv-x="719" 
d="M517 167v144h-269q-20 0 -26 -6.5t-6 -25.5v-112q0 -18 6.5 -24.5t25.5 -6.5h237q19 0 25.5 6.5t6.5 24.5zM889 370v-59h-260v-155q0 -78 -78 -78h-364q-78 0 -78 78v136q0 78 78 78h330v162q0 19 -6.5 25t-25.5 6h-231q-19 0 -25 -6t-6 -25v-87h-113v99q0 78 79 78h362
q78 0 78 -78v-174h260z" />
    <glyph glyph-name="uni092E094D" horiz-adv-x="717" 
d="M517 168v258h-268q-19 0 -25 -6t-6 -25v-227q0 -19 6 -25t25 -6h237q19 0 25 6t6 25zM898 485v-59h-268v-270q0 -78 -78 -78h-364q-78 0 -78 78v251q0 78 78 78h329v78h-537v59h906v-59h-256v-78h268z" />
    <glyph glyph-name="uni092F094D" horiz-adv-x="602" 
d="M218 137h545v-59h-611q-78 0 -78 78v212h309q19 0 25 6t6 26v132q0 20 -6 25.5t-25 5.5h-403v59h729v-59h-192q10 -8 10 -29v-147q0 -78 -78 -78h-262v-141q0 -19 6 -25t25 -6z" />
    <glyph glyph-name="uni0930094D" horiz-adv-x="757" 
d="M294 -61h114l112 -146h-118zM777 622v-59h-157q10 -7 10 -29v-171q0 -78 -78 -78h-329v-195q0 -19 6 -25t25 -6h224q19 0 25.5 6t6.5 25v121h112v-133q0 -78 -78 -78h-356q-78 0 -78 78v354h113v-88h263q19 0 25 6t6 25v157q0 20 -5.5 25.5t-25.5 5.5h-506v59h797z" />
    <glyph glyph-name="uni0932094D" horiz-adv-x="778" 
d="M885 622v-59h-905v59h905zM611 485h321v-59h-286q-19 0 -25 -6t-6 -25v-204h-112v204q0 19 -6.5 25t-26.5 6h-216q-19 0 -25 -6t-6 -25v-305q0 -19 6 -25t25 -6h220v-59h-286q-78 0 -78 78v329q0 78 78 78h310q53 0 59 -39h4q8 39 50 39z" />
    <glyph glyph-name="uni0933094D" horiz-adv-x="1055" 
d="M846 168v227q0 19 -6.5 25t-25.5 6h-204q-19 0 -25.5 -6t-6.5 -25v-227q0 -19 6.5 -25t25.5 -6h204q19 0 25.5 6t6.5 25zM477 168v227q0 19 -6.5 25t-25.5 6h-204q-19 0 -25.5 -6t-6.5 -25v-227q0 -19 6.5 -25t25.5 -6h204q19 0 25.5 6t6.5 25zM579 485h297q79 0 79 -78
v-251q0 -78 -79 -78h-297q-24 0 -35 9t-14 30h-4q-7 -39 -60 -39h-287q-78 0 -78 78v251q0 78 78 78h287q53 0 60 -39h4q4 39 49 39zM-20 622h1095v-59h-1095v59z" />
    <glyph glyph-name="uni0935094D" horiz-adv-x="402" 
d="M-20 563v59h504v-59h-504zM479 485v-59h-234q-19 0 -25 -6t-6 -25v-227q0 -19 6 -25t25 -6h312v-59h-377q-79 0 -79 78v251q0 78 79 78h299z" />
    <glyph glyph-name="uni0936094D" horiz-adv-x="746" 
d="M570 265h-330v-175q0 -19 6.5 -25t25.5 -6h231q19 0 25 6t6 25v106h113v-118q0 -78 -79 -78h-362q-78 0 -78 78v295h112v-49h264q19 0 25.5 6t6.5 25v177q0 19 -6.5 25t-25.5 6h-232q-19 0 -25.5 -6t-6.5 -25v-84h-112v96q0 78 79 78h363q78 0 78 -78v-201q0 -78 -78 -78
z" />
    <glyph glyph-name="uni0937094D" horiz-adv-x="462" 
d="M221 366v-198q0 -19 6.5 -25t25.5 -6h340l-378 356q6 -55 6 -127zM595 137h6v-59h-412q-79 0 -79 78v407h-130v59h588v-59h-353l380 -359v-67z" />
    <glyph glyph-name="uni0938094D" horiz-adv-x="734" 
d="M223 280v-190q0 -19 6 -25t25 -6h234q19 0 25.5 6t6.5 25v124h112v-136q0 -78 -78 -78h-365q-79 0 -79 78v398h113v-137h266q19 0 25.5 6t6.5 25v162q0 19 -6 25t-26 6h-509v59h860v-59h-217q10 -7 10 -29v-176q0 -13 -1 -19h281v-59h-690z" />
    <glyph glyph-name="uni0939094D" horiz-adv-x="755" 
d="M895 265h-634q-19 0 -25 -5.5t-6 -25.5v-144q0 -19 6 -25t25 -6h390v-59h-455q-79 0 -79 78v159q0 49 46 52v4q-46 2 -46 52v62q0 78 79 78h326v78h-542v59h906v-59h-252v-137h-373q-19 0 -25 -6t-6 -25v-40q0 -19 6 -25t25 -6h634v-59z" />
    <glyph glyph-name="uni0915093C094D" horiz-adv-x="744" 
d="M119 -87v100h113v-100h-113zM630 485h276v-59h-274q-20 0 -27 -7t-7 -27v-392h-112v87q-10 -9 -32 -9h-283q-78 0 -78 78v251q0 78 78 78h265v-59h-199q-19 0 -25.5 -6t-6.5 -25v-227q0 -19 6.5 -25t25.5 -6h215q20 0 27 7.5t7 26.5v392h-506v59h871v-59h-253v-87
q10 9 32 9z" />
    <glyph glyph-name="uni0916093C094D" horiz-adv-x="1026" 
d="M452 -165v100h113v-100h-113zM223 239v-149q0 -19 6.5 -25t25.5 -6h391v-59h-459q-77 0 -77 78v392h113v-172h201q20 0 25.5 6t5.5 25v234h-475v59h1112v-59h-526v-247q0 -77 -78 -77h-265zM843 178h339v-58h-397q-77 0 -77 78v179q0 78 77 78h305v-59h-247
q-19 0 -25.5 -6t-6.5 -25v-156q0 -18 6.5 -24.5t25.5 -6.5z" />
    <glyph glyph-name="uni0917093C094D" horiz-adv-x="738" 
d="M309 -87v100h113v-100h-113zM221 137h290q19 0 25 6t6 25v199h-321q-19 0 -25.5 -6t-6.5 -25v-168q0 -19 6.5 -25t25.5 -6zM758 622v-59h-104v-407q0 -78 -78 -78h-415q-78 0 -78 78v191q0 79 78 79h381v137h-562v59h778z" />
    <glyph glyph-name="uni091C093C094D" horiz-adv-x="711" 
d="M869 622v-59h-889v59h889zM308 -87v100h113v-100h-113zM887 485v-59h-264v-270q0 -78 -78 -78h-357q-78 0 -78 78v329h110v-317q0 -19 6.5 -25t25.5 -6h229q19 0 25.5 6t6.5 25v317h374z" />
    <glyph glyph-name="uni0928093C094D" horiz-adv-x="714" 
d="M812 622v-59h-832v59h832zM292 -87v100h113v-100h-113zM492 168v258h-268q-19 0 -25 -6t-6 -25v-227q0 -19 6 -25t25 -6h237q19 0 25 6t6 25zM875 485v-59h-273v-270q0 -78 -78 -78h-363q-78 0 -78 78v251q0 78 78 78h714z" />
    <glyph glyph-name="uni092B093C094D" horiz-adv-x="781" 
d="M129 -87v100h113v-100h-113zM252 137h242q20 0 27 7.5t7 26.5v392h-307v-395q0 -19 6 -25t25 -6zM671 478h252v-59h-250q-19 0 -26.5 -7.5t-7.5 -26.5v-385h-111v87q-10 -9 -32 -9h-307q-79 0 -79 78v407h-130v59h927v-59h-268v-94q11 9 32 9z" />
    <glyph glyph-name="uni092F093C094D" horiz-adv-x="605" 
d="M128 -87v100h113v-100h-113zM218 137h555v-59h-621q-78 0 -78 78v212h309q19 0 25 6t6 26v132q0 20 -6 25.5t-25 5.5h-403v59h732v-59h-195q10 -8 10 -29v-147q0 -78 -78 -78h-262v-141q0 -19 6 -25t25 -6z" />
    <glyph glyph-name="uni09080902" horiz-adv-x="753" 
d="M650 426h-404q-20 0 -26 -6t-6 -25v-40q0 -19 6 -25t26 -6h333q79 0 79 -78v-90q0 -78 -79 -78h-358v-78h-115v190h115v-53h293q20 0 25.5 5.5t5.5 25.5v66q0 20 -5.5 25.5t-25.5 5.5h-334q-78 0 -78 78v64q0 78 78 78h358v78h-556v59h478v155q0 40 17.5 57.5t57.5 17.5
h229v-59h-157q-19 0 -26.5 -7.5t-7.5 -25.5v-138h200v-59h-123v-137zM742 660h-92v93h92v-93z" />
    <glyph glyph-name="uni09300941" horiz-adv-x="1060" 
d="M1080 622v-59h-460q10 -7 10 -29v-70h261q76 0 76 -78v-308h-111v295q0 19 -5.5 25.5t-24.5 6.5h-196v-40q0 -79 -78 -79h-329v-196q0 -19 6 -25t25 -6h224q20 0 26.5 6t6.5 25v121h111v-133q0 -78 -77 -78h-356q-79 0 -79 78v354h113v-87h263q20 0 26 6.5t6 25.5v155
q0 19 -6 25t-26 6h-506v59h1100z" />
    <glyph glyph-name="uni09300942" horiz-adv-x="1060" 
d="M1080 622v-59h-460q10 -7 10 -29v-70h261q76 0 76 -78v-230q0 -78 -78 -78h-144v59h80q19 0 25 6t6 25v205q0 19 -5.5 25.5t-24.5 6.5h-196v-40q0 -79 -78 -79h-329v-196q0 -19 6 -25t25 -6h224q20 0 26.5 6t6.5 25v121h111v-133q0 -78 -77 -78h-356q-79 0 -79 78v354
h113v-87h263q20 0 26 6.5t6 25.5v155q0 19 -6 25t-26 6h-506v59h1100z" />
    <glyph glyph-name="uni09390941" horiz-adv-x="765" 
d="M636 426h-375q-19 0 -25 -6t-6 -25v-40q0 -19 6 -25t25 -6h313q81 0 81 -81v-100h-108v91q0 18 -6.5 24.5t-25.5 6.5h-254q-19 0 -25 -5.5t-6 -25.5v-134q0 -19 6 -25t25 -6h330q40 0 57.5 -17.5t17.5 -57.5v-131q0 -40 -17.5 -57.5t-57.5 -17.5h-279q-55 0 -78 11
t-48 53l-59 96h120l43 -73q10 -16 18 -22t24 -6h190q19 0 26.5 7.5t7.5 25.5v97q0 18 -7.5 25.5t-26.5 7.5h-326q-79 0 -79 78v149q0 49 46 52v4q-46 2 -46 52v62q0 78 79 78h329v78h-545v59h805v-59h-149v-137z" />
    <glyph glyph-name="uni09390942" horiz-adv-x="765" 
d="M520 10h-165q-19 0 -26.5 -7.5t-7.5 -25.5v-86q0 -18 7.5 -25.5t26.5 -7.5h128v-59h-197q-40 0 -57.5 17.5t-17.5 57.5v120q0 11 1 16h-16q-79 0 -79 78v149q0 49 46 52v4q-46 2 -46 52v62q0 78 79 78h329v78h-545v59h805v-59h-149v-137h-375q-19 0 -25 -6t-6 -25v-40
q0 -19 6 -25t25 -6h313q81 0 81 -81v-101h-108v92q0 18 -6.5 24.5t-25.5 6.5h-254q-19 0 -25 -5.5t-6 -25.5v-134q0 -19 6 -25t25 -6h280q55 0 78 -10.5t48 -53.5l122 -206h-121l-106 183q-10 16 -18 22t-24 6z" />
    <glyph glyph-name="uni09260943" horiz-adv-x="757" 
d="M619 426h-382q-19 0 -25.5 -6t-6.5 -25v-227q0 -19 6.5 -25t25.5 -6h245q20 0 27 7.5t7 26.5v95h113v-325h-205q-19 0 -26.5 -7.5t-7.5 -25.5v-86q0 -18 7.5 -25.5t26.5 -7.5h244v-59h-314q-40 0 -57.5 17.5t-17.5 57.5v120q0 40 17.5 57.5t57.5 17.5h162v87
q-10 -9 -32 -9h-313q-78 0 -78 78v251q0 78 78 78h336v78h-527v59h797v-59h-158v-137z" />
    <glyph glyph-name="uni09390943" horiz-adv-x="765" 
d="M636 426h-375q-19 0 -25 -6t-6 -25v-37q0 -20 6 -25.5t25 -5.5h321q78 0 78 -62q0 -22 -21.5 -58t-21.5 -45q0 -12 19 -12h34v-56h-91q-70 0 -70 54q0 22 21 56t21 44q0 20 -27 20h-263q-19 0 -25 -6t-6 -25v-172q0 -20 6 -27.5t25 -7.5h392v-59h-457q-79 0 -79 82v187
q0 49 46 52v4q-46 2 -46 52v59q0 78 79 78h329v78h-545v59h805v-59h-149v-137z" />
    <glyph glyph-name="uni094D0930" horiz-adv-x="0" 
d="M-14 -168h-110l-61 129l-63 -129h-110l106 183h134z" />
    <glyph glyph-name="uni0930094D.1" horiz-adv-x="630" 
d="M616 400v40h113v-53q0 -78 -79 -78h-559q-79 0 -79 78v53h111v-40q0 -20 6.5 -26t25.5 -6h430q19 0 25 6t6 26zM-20 622h749v-59h-749v59z" />
    <glyph glyph-name="uni0930094D.2" horiz-adv-x="0" 
d="M14 822v-59h-111q-19 0 -25.5 -6t-6.5 -25v-133h-112v145q0 78 78 78h177z" />
    <glyph glyph-name="uni0930094D0902" horiz-adv-x="0" 
d="M14 822v-59h-111q-19 0 -25.5 -6t-6.5 -25v-133h-112v145q0 78 78 78h177zM-78 655v72h71v-72h-71z" />
    <glyph glyph-name="uni0930094D.aMatraI" horiz-adv-x="0" 
d="M0 760v-89h-31v124q0 27 14.5 42t41.5 15h84v-59h-75q-19 0 -26.5 -7.5t-7.5 -25.5z" />
    <glyph glyph-name="uni0902.aMatraI" horiz-adv-x="0" 
d="M84 685v101h114v-101h-114z" />
    <glyph glyph-name="uni0930094D0902.aMatraI" horiz-adv-x="0" 
d="M42 671v79h80v-79h-80zM0 760v-89h-31v124q0 27 14.5 42t41.5 15h97v-59h-88q-19 0 -26.5 -7.5t-7.5 -25.5z" />
    <glyph glyph-name="uni09400930094D" 
d="M390 622v-59h-149v-563h-112v563h-149v59h149v109q0 19 -6.5 25.5t-25.5 6.5h-199q-20 0 -26 -6.5t-6 -25.5v-63h-112v75q0 79 78 79h288q62 0 62 -55h5q0 55 62 55h116v-59h-92q-19 0 -25.5 -6t-6.5 -25v-110h149z" />
    <glyph glyph-name="uni09400902" 
d="M237 743v-121h153v-59h-149v-563h-112v563h-149v59h149v109q0 19 -6.5 25.5t-25.5 6.5h-199q-20 0 -26 -6.5t-6 -25.5v-63h-112v75q0 79 78 79h327q78 0 78 -79zM302 783h100v-97h-100v97z" />
    <glyph glyph-name="uni09400930094D0902" 
d="M390 622v-59h-149v-563h-112v563h-149v59h149v109q0 19 -6.5 25.5t-25.5 6.5h-199q-20 0 -26 -6.5t-6 -25.5v-63h-112v75q0 79 78 79h288q62 0 62 -55h5q0 55 62 55h122v-59h-98q-19 0 -25.5 -6t-6.5 -25v-110h149zM354 655h-71v72h71v-72z" />
    <glyph glyph-name="uni0940.aLong" 
d="M390 622v-59h-149v-563h-112v563h-149v59h149v109q0 19 -6.5 25.5t-25.5 6.5h-339q-20 0 -26 -6.5t-6 -25.5v-63h-112v75q0 79 78 79h471q78 0 78 -79v-121h149z" />
    <glyph glyph-name="uni09400930094D.aLong" 
d="M390 622v-59h-149v-563h-112v563h-149v59h149v109q0 19 -6.5 25.5t-25.5 6.5h-521q-20 0 -26 -6.5t-6 -25.5v-63h-112v75q0 79 78 79h610q62 0 62 -55h5q0 55 62 55h116v-59h-92q-19 0 -25.5 -6t-6.5 -25v-110h149z" />
    <glyph glyph-name="uni09400902.aLong" 
d="M237 743v-121h153v-59h-149v-563h-112v563h-149v59h149v109q0 19 -6.5 25.5t-25.5 6.5h-521q-20 0 -26 -6.5t-6 -25.5v-63h-112v75q0 79 78 79h649q78 0 78 -79zM316 783h101v-97h-101v97z" />
    <glyph glyph-name="uni09400930094D0902.aLong" 
d="M390 622v-59h-149v-563h-112v563h-149v59h149v109q0 19 -6.5 25.5t-25.5 6.5h-521q-20 0 -26 -6.5t-6 -25.5v-63h-112v75q0 79 78 79h610q62 0 62 -55h5q0 55 62 55h122v-59h-98q-19 0 -25.5 -6t-6.5 -25v-110h149zM354 655h-71v72h71v-72z" />
    <glyph glyph-name="uni09470930094D" horiz-adv-x="0" 
d="M-129 612h-101q-40 32 -98 109l-77 101h115l49 -68q33 -43 52 -92q-10 40 -10 71v11q0 80 81 80h79v-61h-49q-22 0 -31.5 -8.5t-9.5 -38.5v-104z" />
    <glyph glyph-name="uni09470902" horiz-adv-x="0" 
d="M-119 687v98h101v-98h-101zM-122 612h-104q-60 46 -113 109l-85 101h125z" />
    <glyph glyph-name="uni09470901" horiz-adv-x="0" 
d="M-64 685q-78 0 -78 78v89h90v-77q0 -19 6 -25t25 -6h231q19 0 25 6t6 25v77h90v-89q0 -78 -77 -78h-318zM-126 612h-100q-60 46 -113 109l-85 101h121zM48 802v93h92v-93h-92z" />
    <glyph glyph-name="uni09470930094D0902" horiz-adv-x="0" 
d="M-39 763h-49q-22 0 -31 -8.5t-9 -38.5v-104h-102q-40 32 -98 109l-77 101h115l50 -68q31 -41 51 -92q-10 40 -10 71v11q0 80 81 80h79v-61zM-88 655v77h76v-77h-76z" />
    <glyph glyph-name="uni09480930094D" horiz-adv-x="0" 
d="M-129 722v-110h-105q-41 18 -103 73l-153 137h125l48 -53q63 -68 118 -147h5q-49 77 -76 133l-32 67h88l16 -52l28 -102q-8 42 -8 75v11q0 32 19 50t55 18h65v-53h-49q-22 0 -31.5 -9t-9.5 -38z" />
    <glyph glyph-name="uni09480902" horiz-adv-x="0" 
d="M-189 622h5q-14 25 -61 147l-22 53h93l45 -210h-105q-30 18 -94 78l-139 132h121l43 -49q72 -80 114 -151zM-89 687v98h100v-98h-100z" />
    <glyph glyph-name="uni09480901" horiz-adv-x="0" 
d="M-26 685q-78 0 -78 78v89h87v-77q0 -19 6 -25t25 -6h228q19 0 25.5 6t6.5 25v77h86v-89q0 -78 -76 -78h-310zM-192 622h5q-32 63 -65 147l-22 53h93l49 -210h-102q-32 18 -96 78l-140 132h119l42 -49q84 -93 117 -151zM82 802v92h92v-92h-92z" />
    <glyph glyph-name="uni09480930094D0902" horiz-adv-x="0" 
d="M-129 722v-110h-105q-41 18 -103 73l-153 137h125l48 -53q63 -68 118 -147h5q-49 77 -76 133l-32 67h88l16 -52l28 -102q-8 42 -8 75v11q0 32 19 50t55 18h65v-53h-49q-22 0 -31.5 -9t-9.5 -38zM-90 657v72h71v-72h-71z" />
    <glyph glyph-name="uni094B0930094D" horiz-adv-x="374" 
d="M390 622v-59h-149v-563h-112v563h-149v59h148q-38 35 -86 99l-77 101h115l49 -68q33 -43 52 -92q-10 40 -10 71v11q0 80 81 80h79v-61h-49q-22 0 -31.5 -8.5t-9.5 -38.5v-94h149z" />
    <glyph glyph-name="uni094B0902" horiz-adv-x="374" 
d="M352 785v-98h-101v98h101zM390 622v-59h-149v-563h-112v563h-149v59h151q-60 50 -100 99l-85 101h125l169 -200h150z" />
    <glyph glyph-name="uni094B0930094D0902" horiz-adv-x="374" 
d="M390 622v-59h-149v-563h-112v563h-149v59h149q-38 35 -86 99l-77 101h115l50 -68q31 -41 51 -92q-10 40 -10 71v11q0 80 81 80h79v-61h-49q-22 0 -31 -8.5t-9 -38.5v-94h147zM283 655v77h76v-77h-76z" />
    <glyph glyph-name="uni094C0930094D" horiz-adv-x="374" 
d="M390 622v-59h-149v-563h-112v563h-149v59h137q-49 31 -84 63l-153 137h125l48 -53q63 -68 118 -147h5q-49 77 -76 133l-32 67h88l16 -52l28 -102q-8 42 -8 75v11q0 32 19 50t55 18h65v-53h-49q-22 0 -31.5 -9t-9.5 -38v-100h149z" />
    <glyph glyph-name="uni094C0902" horiz-adv-x="374" 
d="M381 785v-98h-100v98h100zM390 622v-59h-149v-563h-112v563h-149v59h142q-31 23 -80 68l-139 132h121l43 -49q72 -80 114 -151h5q-14 25 -61 147l-22 53h93l43 -200h151z" />
    <glyph glyph-name="uni094C0930094D0902" horiz-adv-x="374" 
d="M390 622v-59h-149v-563h-112v563h-149v59h137q-49 31 -84 63l-153 137h125l48 -53q63 -68 118 -147h5q-49 77 -76 133l-32 67h88l16 -52l28 -102q-8 42 -8 75v11q0 32 19 50t55 18h65v-53h-49q-22 0 -31.5 -9t-9.5 -38v-100h149zM280 657v72h71v-72h-71z" />
    <glyph glyph-name="uni0915094D0937" horiz-adv-x="1081" 
d="M517 394v137q0 19 -6 25t-26 6h-200q-20 0 -26 -6t-6 -25v-137q0 -19 6.5 -25.5t26.5 -6.5h199q19 0 25.5 6t6.5 26zM1101 622v-59h-148v-563h-113v304h-607q-19 0 -25 -6t-6 -25v-105q0 -20 6 -25.5t25 -5.5h240q22 0 31 8.5t9 29.5v48h112v-223h-112v92
q-10 -14 -36 -14h-309q-79 0 -79 78v126q0 76 67 80q-12 8 -12 32v150q0 77 78 77h326q78 0 78 -77v-150q0 -24 -12 -32h226v260h261z" />
    <glyph glyph-name="uni0915094D0937094D" horiz-adv-x="727" 
d="M253 531v-137q0 -19 6.5 -25.5t26.5 -6.5h199q19 0 25.5 6t6.5 26v137q0 19 -6 25t-26 6h-200q-20 0 -26 -6t-6 -25zM890 304h-657q-19 0 -25 -6t-6 -25v-105q0 -20 6 -25.5t25 -5.5h240q22 0 31 8.5t9 29.5v48h112v-223h-112v92q-10 -14 -36 -14h-309q-79 0 -79 78v126
q0 76 67 80q-12 8 -12 32v150q0 77 78 77h326q78 0 78 -77v-150q0 -24 -12 -32h276v-58z" />
    <glyph glyph-name="uni0915094D0937094D092E" horiz-adv-x="1807" 
d="M1566 485v78h-214v-78h214zM1240 168v258h-268q-19 0 -25.5 -6t-6.5 -25v-227q0 -19 6.5 -25t25.5 -6h236q19 0 25.5 6t6.5 25zM517 394v137q0 19 -6 25t-26 6h-200q-20 0 -26 -6t-6 -25v-137q0 -19 6.5 -25.5t26.5 -6.5h199q19 0 25.5 6t6.5 26zM1827 622v-59h-149v-563
h-112v426h-214v-270q0 -78 -78 -78h-364q-78 0 -78 78v148h-599q-19 0 -25 -6t-6 -25v-105q0 -20 6 -25.5t25 -5.5h240q22 0 31 8.5t9 29.5v48h112v-223h-112v92q-10 -14 -36 -14h-309q-79 0 -79 78v126q0 76 67 80q-12 8 -12 32v150q0 77 78 77h326q78 0 78 -77v-150
q0 -24 -12 -32h218v45q0 78 78 78h330v78h-480v59h1067z" />
    <glyph glyph-name="uni0915094D0937094D092E094D" horiz-adv-x="1439" 
d="M1241 168v258h-268q-19 0 -25 -6t-6 -25v-227q0 -19 6 -25t25 -6h237q19 0 25 6t6 25zM517 394v137q0 19 -6 25t-26 6h-200q-20 0 -26 -6t-6 -25v-137q0 -19 6.5 -25.5t26.5 -6.5h199q19 0 25.5 6t6.5 26zM1605 485v-59h-251v-270q0 -78 -79 -78h-363q-79 0 -79 78v148
h-600q-19 0 -25 -6t-6 -25v-105q0 -20 6 -25.5t25 -5.5h240q22 0 31 8.5t9 29.5v48h112v-223h-112v92q-10 -14 -36 -14h-309q-79 0 -79 78v126q0 76 67 80q-12 8 -12 32v150q0 77 78 77h326q78 0 78 -77v-150q0 -24 -12 -32h219v45q0 78 79 78h329v78h-488v59h839v-59h-238
v-78h251z" />
    <glyph glyph-name="uni0915094D0937094D092E094D092F" horiz-adv-x="2454" 
d="M2214 175v388h-216q10 -8 10 -29v-147q0 -78 -78 -78h-253v-141q0 -19 6 -25t25 -6h465q23 0 32 8.5t9 29.5zM1240 168v258h-268q-19 0 -25.5 -6t-6.5 -25v-227q0 -19 6.5 -25t25.5 -6h236q19 0 25.5 6t6.5 25zM517 394v137q0 19 -6 25t-26 6h-200q-20 0 -26 -6t-6 -25
v-137q0 -19 6.5 -25.5t26.5 -6.5h199q19 0 25.5 6t6.5 26zM2474 622v-59h-149v-563h-111v93q-10 -15 -37 -15h-535q-78 0 -78 78v212h300q20 0 26 6t6 26v132q0 19 -6 25t-26 6h-512v-78h213v-59h-213v-270q0 -78 -78 -78h-364q-78 0 -78 78v148h-599q-19 0 -25 -6t-6 -25
v-105q0 -20 6 -25.5t25 -5.5h240q22 0 31 8.5t9 29.5v48h112v-223h-112v92q-10 -14 -36 -14h-309q-79 0 -79 78v126q0 76 67 80q-12 8 -12 32v150q0 77 78 77h326q78 0 78 -77v-150q0 -24 -12 -32h218v45q0 78 78 78h330v78h-476v59h1710z" />
    <glyph glyph-name="uni0915094D0937094D092F" horiz-adv-x="1712" 
d="M1472 175v388h-216q10 -8 10 -29v-151q0 -79 -78 -79h-253v-136q0 -19 6 -25t25 -6h466q22 0 31 8.5t9 29.5zM517 395v136q0 19 -6 25t-26 6h-200q-20 0 -26 -6t-6 -25v-136q0 -19 6.5 -25.5t26.5 -6.5h199q19 0 25.5 6.5t6.5 25.5zM1732 622v-59h-149v-563h-111v93
q-10 -15 -37 -15h-535q-78 0 -78 78v149h-589q-19 0 -25 -5.5t-6 -25.5v-106q0 -20 6 -25.5t25 -5.5h240q22 0 31 8.5t9 29.5v48h112v-223h-112v92q-10 -14 -36 -14h-309q-79 0 -79 78v127q0 76 67 80q-12 7 -12 32v149q0 77 78 77h326q78 0 78 -77v-149q0 -25 -12 -32h508
q19 0 25.5 6.5t6.5 25.5v137q0 19 -6 25t-26 6h-373v59h983z" />
    <glyph glyph-name="uni0915094D0937094D0935" horiz-adv-x="1508" 
d="M517 394v137q0 19 -6 25t-26 6h-200q-20 0 -26 -6t-6 -25v-137q0 -19 6.5 -25.5t26.5 -6.5h199q19 0 25.5 6t6.5 26zM1528 622v-59h-148v-563h-112v87q-10 -9 -32 -9h-317q-78 0 -78 78v148h-608q-19 0 -25 -6t-6 -25v-105q0 -20 6 -25.5t25 -5.5h240q22 0 31 8.5t9 29.5
v48h112v-223h-112v92q-10 -14 -36 -14h-309q-79 0 -79 78v126q0 76 67 80q-12 8 -12 32v150q0 77 78 77h326q78 0 78 -77v-150q0 -24 -12 -32h227v45q0 78 78 78h299v-59h-233q-19 0 -25.5 -6t-6.5 -25v-227q0 -19 6.5 -25t25.5 -6h249q20 0 27 7.5t7 26.5v392h-516v59h776z
" />
    <glyph glyph-name="uni091C094D091E" horiz-adv-x="1075" 
d="M1095 622v-59h-149v-563h-113v426h-579q-20 0 -25.5 -6t-5.5 -25v-41q0 -20 6 -26.5t25 -6.5h291q79 0 79 -77v-88q0 -78 -79 -78h-335v-78h-115v196h115v-59h270q20 0 25.5 5.5t5.5 25.5v63q0 19 -5.5 25t-25.5 6h-292q-78 0 -78 79v66q0 78 78 78h645v78h-853v59h1115z
" />
    <glyph glyph-name="uni091C094D091E094D" horiz-adv-x="711" 
d="M855 622v-59h-875v59h875zM878 426h-624q-20 0 -25.5 -6t-5.5 -25v-41q0 -20 6 -26.5t25 -6.5h291q79 0 79 -77v-88q0 -78 -79 -78h-335v-78h-115v196h115v-59h270q20 0 25.5 5.5t5.5 25.5v63q0 19 -5.5 25t-25.5 6h-292q-78 0 -78 79v66q0 78 78 78h690v-59z" />
    <glyph glyph-name="uni091C094D091E094D092F" horiz-adv-x="1697" 
d="M254 321h291q79 0 79 -77v-88q0 -78 -79 -78h-335v-78h-115v196h115v-59h270q20 0 25.5 5.5t5.5 25.5v63q0 19 -5.5 25t-25.5 6h-292q-78 0 -78 79v66q0 78 78 78h643v-59h-577q-20 0 -25.5 -6t-5.5 -25v-41q0 -20 6 -26.5t25 -6.5zM1479 175v388h-216q10 -8 10 -29v-147
q0 -78 -78 -78h-253v-141q0 -19 6 -25t25 -6h465q23 0 32 8.5t9 29.5zM1739 622v-59h-149v-563h-111v93q-10 -15 -37 -15h-535q-78 0 -78 78v212h300q19 0 25.5 6t6.5 26v132q0 19 -6 25t-26 6h-1149v59h1759z" />
    <glyph glyph-name="uni0915094D0928" horiz-adv-x="1786" 
d="M1545 485v78h-947v-87q10 9 32 9h915zM1224 168v258h-268q-19 0 -25 -6t-6 -25v-227q0 -19 6 -25t25 -6h237q19 0 25 6t6 25zM1806 622v-59h-149v-563h-112v426h-211v-270q0 -78 -78 -78h-363q-78 0 -78 78v251q0 13 1 19h-184q-20 0 -27 -7t-7 -27v-392h-112v87
q-10 -9 -32 -9h-283q-78 0 -78 78v251q0 78 78 78h265v-59h-199q-19 0 -25.5 -6t-6.5 -25v-227q0 -19 6.5 -25t25.5 -6h215q20 0 27 7.5t7 26.5v392h-506v59h1826z" />
    <glyph glyph-name="uni0916094D0928" horiz-adv-x="2125" 
d="M1563 168v258h-267q-19 0 -25.5 -6t-6.5 -25v-227q0 -19 6.5 -25t25.5 -6h236q19 0 25 6t6 25zM2145 622v-59h-149v-563h-112v426h-211v-270q0 -78 -78 -78h-363q-61 0 -74 47q-15 -5 -34 -5h-339q-77 0 -77 78v179q0 78 77 78h305v-59h-247q-19 0 -25.5 -6t-6.5 -25
v-156q0 -18 6.5 -24.5t25.5 -6.5h277q19 0 26.5 8t7.5 26v195q0 78 78 78h652v78h-1318v-247q0 -77 -78 -77h-265v-149q0 -19 6.5 -25t25.5 -6h391v-59h-459q-77 0 -77 78v392h113v-172h201q20 0 25.5 6t5.5 25v234h-475v59h2165z" />
    <glyph glyph-name="uni0917094D0928" horiz-adv-x="1793" 
d="M1231 168v258h-268q-19 0 -25 -6t-6 -25v-227q0 -19 6 -25t25 -6h237q19 0 25 6t6 25zM221 137h290q19 0 25 6t6 25v199h-321q-19 0 -25.5 -6t-6.5 -25v-168q0 -19 6.5 -25t25.5 -6zM1813 622v-59h-149v-563h-112v426h-211v-270q0 -78 -78 -78h-363q-78 0 -78 78v251
q0 78 78 78h652v78h-898v-407q0 -78 -78 -78h-415q-78 0 -78 78v192q0 78 78 78h381v137h-562v59h1833z" />
    <glyph glyph-name="uni0918094D0928" horiz-adv-x="1622" 
d="M1381 485v78h-1127q-20 0 -25.5 -5.5t-5.5 -25.5v-123q0 -19 5.5 -25t25.5 -6h197v-59h-197q-20 0 -25.5 -5.5t-5.5 -25.5v-120q0 -19 6 -25t25 -6h362q19 0 26.5 7.5t7.5 25.5h1v237q0 78 78 78h652zM1060 168v258h-268q-19 0 -25 -6t-6 -25v-227q0 -19 6 -25t25 -6h237
q19 0 25 6t6 25zM1642 622v-59h-149v-563h-112v426h-211v-270q0 -78 -78 -78h-363q-37 0 -56 16q-15 -16 -53 -16h-431q-79 0 -79 78v137q0 50 46 53v4q-46 3 -46 52v132q0 22 10 29h-140v59h1662z" />
    <glyph glyph-name="uni091A094D0928" horiz-adv-x="1573" 
d="M1012 168v258h-268q-19 0 -25 -6t-6 -25v-227q0 -19 6 -25t25 -6h237q19 0 25 6t6 25zM1593 622v-59h-148v-563h-113v426h-210v-270q0 -78 -78 -78h-363q-37 0 -56 16q-16 -16 -53 -16h-378q-78 0 -78 78v241q0 22 10 29h-94v59h384v-59h-158q-18 0 -24 -6.5t-6 -24.5
v-227q0 -19 6.5 -25t25.5 -6h308q19 0 26.5 7.5t7.5 25.5v237q0 78 79 78h651v78h-1352v59h1613z" />
    <glyph glyph-name="uni091B094D0928" horiz-adv-x="1059" 
d="M668 485v78h-412q-20 0 -25.5 -5.5t-5.5 -25.5v-155q0 -19 5.5 -25t25.5 -6h155v-59h-155q-20 0 -25.5 -5.5t-5.5 -25.5v-142q0 -20 6 -26t25 -6h559q19 0 25.5 6t6.5 26v281q0 19 -6.5 25t-25.5 6h-221q-19 0 -25.5 -6t-6.5 -25v-108q0 -19 6 -25.5t26 -6.5h113v-59
h-171q-79 0 -79 79v132q0 78 79 78h132zM1079 563h-307v-78h98q78 0 78 -78v-305q0 -79 -78 -79h-105v-268h-108v128h-273q-20 0 -26.5 -6t-6.5 -25v-43h-111v56q0 77 78 77h339v81h-466q-79 0 -79 79v159q0 49 46 52v4q-46 3 -46 52v165q0 22 10 29h-142v59h1099v-59z" />
    <glyph glyph-name="uni091C094D0928" horiz-adv-x="1776" 
d="M1214 168v258h-268q-19 0 -25 -6t-6 -25v-227q0 -19 6 -25t25 -6h237q19 0 25 6t6 25zM1796 622v-59h-149v-563h-112v426h-211v-270q0 -78 -78 -78h-363q-78 0 -78 78v251q0 13 1 19h-183v-270q0 -78 -78 -78h-357q-78 0 -78 78v329h110v-317q0 -19 6.5 -25t25.5 -6h229
q19 0 25.5 6t6.5 25v317h1022v78h-1555v59h1816z" />
    <glyph glyph-name="uni091D094D0928" horiz-adv-x="1820" 
d="M1580 485v78h-927v-137h-407q-20 0 -25.5 -6t-5.5 -25v-33q0 -20 5.5 -25.5t25.5 -5.5h604v76q0 78 78 78h652zM1259 168v258h-268q-19 0 -25 -6t-6 -25v-227q0 -19 6 -25t25 -6h237q19 0 25 6t6 25zM1841 622v-59h-149v-563h-112v426h-211v-270q0 -78 -78 -78h-363
q-78 0 -78 78v116h-196q1 -6 1 -19v-97q0 -78 -78 -78h-366v-78h-114v190h114v-53h300q20 0 26 6t6 25v72q0 20 -6.5 26t-25.5 6h-331q-78 0 -78 78v57q0 78 78 78h362v78h-562v59h1861z" />
    <glyph glyph-name="uni091F094D0928" horiz-adv-x="764" 
d="M627 426h-373q-19 0 -25 -6t-6 -25v-291q0 -20 5.5 -25.5t25.5 -5.5h259q19 0 25 5.5t6 25.5v150h113v-162q0 -77 -76 -78v-259h-105v119h-225q-20 0 -26 -6t-6 -25v-42h-109v55q0 77 79 77h287v81h-287q-79 0 -79 78v315q0 78 79 78h326v78h-535v59h804v-59h-157v-137z
" />
    <glyph glyph-name="uni0920094D0928" horiz-adv-x="785" 
d="M565 104v291q0 19 -6.5 25t-25.5 6h-280q-19 0 -25.5 -6t-6.5 -25v-291q0 -19 6 -25t26 -6h280q20 0 26 6t6 25zM805 563h-356v-78h149q77 0 77 -78v-315q0 -78 -77 -78h-17v-259h-105v119h-224q-20 0 -26.5 -6t-6.5 -25v-42h-109v55q0 77 79 77h287v81h-287
q-79 0 -79 78v315q0 78 79 78h147v78h-356v59h825v-59z" />
    <glyph glyph-name="uni0921094D0928" horiz-adv-x="743" 
d="M617 426h-367q-20 0 -26 -6t-6 -25v-53q0 -19 6 -25t26 -6h315q79 0 79 -78v-141q0 -70 -63 -77v-260h-105v119h-225q-20 0 -26 -6t-6 -25v-42h-109v55q0 77 78 77h288v81h-289q-78 0 -78 78v81h112v-69q0 -19 6 -25t26 -6h247q20 0 25.5 5.5t5.5 25.5v116q0 20 -6 26
t-25 6h-316q-78 0 -78 78v77q0 78 78 78h321v78h-525v59h784v-59h-147v-137z" />
    <glyph glyph-name="uni0924094D0928" horiz-adv-x="1497" 
d="M935 168v258h-268q-19 0 -25 -6t-6 -25v-227q0 -19 6 -25t25 -6h237q19 0 25 6t6 25zM1517 622v-59h-149v-563h-112v426h-211v-270q0 -78 -78 -78h-363q-78 0 -78 78v251q0 13 1 19h-273q-19 0 -25 -6t-6 -25v-305q0 -19 6 -25t25 -6h133v-59h-199q-78 0 -78 78v329
q0 78 78 78h1068v78h-1276v59h1537z" />
    <glyph glyph-name="uni0925094D0928" horiz-adv-x="1746" 
d="M1184 168v258h-268q-19 0 -25 -6t-6 -25v-227q0 -19 6 -25t25 -6h237q19 0 25 6t6 25zM1766 622v-59h-149v-563h-112v426h-211v-270q0 -78 -78 -78h-363q-37 0 -56 16q-15 -16 -53 -16h-556q-78 0 -78 78v209h356q19 0 25.5 6t6.5 25v136q0 19 -6.5 25t-25.5 6h-212
q-19 0 -25.5 -6t-6.5 -25v-89h-111v101q0 78 79 78h341q78 0 78 -78v-160q0 -78 -78 -78h-308v-138q0 -19 6 -25t25 -6h486q19 0 26.5 7.5t7.5 25.5h1v237q0 78 78 78h652v78h-802v59h1063z" />
    <glyph glyph-name="uni0926094D0928" horiz-adv-x="755" 
d="M775 622v-59h-147v-137h-391q-19 0 -25.5 -6t-6.5 -25v-214q0 -19 6.5 -25.5t25.5 -6.5h250q19 0 26.5 7.5t7.5 26.5v64h107v-388h-107v96h-224q-19 0 -25.5 -6t-6.5 -25v-44h-109v56q0 78 79 78h286v85q-11 -9 -32 -9h-318q-78 0 -78 79v238q0 78 78 78h345v78h-536v59
h795z" />
    <glyph glyph-name="uni0927094D0928" horiz-adv-x="1750" 
d="M1188 168v258h-268q-19 0 -25 -6t-6 -25v-227q0 -19 6 -25t25 -6h237q19 0 25 6t6 25zM1770 622v-59h-149v-563h-113v426h-210v-270q0 -78 -78 -78h-363q-37 0 -56 16q-16 -16 -53 -16h-563q-78 0 -78 78v117q0 48 45 51v4q-45 3 -45 53v163q0 78 78 78h343q78 0 78 -78
v-118h-99v106q0 19 -6 25t-25 6h-225q-19 0 -25.5 -6t-6.5 -25v-142q0 -19 6 -25t26 -6h150v-59h-150q-19 0 -25.5 -6t-6.5 -26v-100q0 -19 6.5 -25t25.5 -6h493q19 0 26.5 7.5t7.5 25.5v237q0 78 79 78h651v78h-807v59h1069z" />
    <glyph glyph-name="uni0928094D0928" horiz-adv-x="1758" 
d="M1196 168v258h-268q-19 0 -25 -6t-6 -25v-227q0 -19 6 -25t25 -6h237q19 0 25 6t6 25zM492 168v258h-268q-19 0 -25 -6t-6 -25v-227q0 -19 6 -25t25 -6h237q19 0 25 6t6 25zM1778 622v-59h-149v-563h-112v426h-211v-270q0 -78 -78 -78h-363q-78 0 -78 78v251q0 13 1 19
h-186v-270q0 -78 -78 -78h-363q-78 0 -78 78v251q0 78 78 78h1356v78h-1537v59h1798z" />
    <glyph glyph-name="uni092A094D0928" horiz-adv-x="1498" 
d="M1257 485v78h-1036v-395q0 -19 6 -25t25 -6h241q19 0 26.5 7.5t7.5 25.5v237q0 78 78 78h652zM936 168v258h-268q-19 0 -25 -6t-6 -25v-227q0 -19 6 -25t25 -6h237q19 0 25 6t6 25zM1518 622v-59h-149v-563h-112v426h-211v-270q0 -78 -78 -78h-363q-36 0 -55 16
q-16 -16 -53 -16h-308q-79 0 -79 78v407h-130v59h1538z" />
    <glyph glyph-name="uni092B094D0928" horiz-adv-x="1813" 
d="M1572 485v78h-933v-87q11 9 32 9h901zM1251 168v258h-268q-19 0 -25 -6t-6 -25v-227q0 -19 6 -25t25 -6h237q19 0 25 6t6 25zM252 137h242q20 0 27 7.5t7 26.5v392h-307v-395q0 -19 6 -25t25 -6zM1833 622v-59h-149v-563h-112v426h-211v-270q0 -78 -78 -78h-363
q-78 0 -78 78v251q0 13 1 19h-170q-19 0 -26.5 -7t-7.5 -27v-392h-111v87q-10 -9 -32 -9h-307q-79 0 -79 78v407h-130v59h1853z" />
    <glyph glyph-name="uni092C094D0928" horiz-adv-x="1569" 
d="M1007 168v258h-268q-19 0 -25 -6t-6 -25v-227q0 -19 6 -25t25 -6h237q19 0 25 6t6 25zM234 137h330q18 0 25 6l-390 245q4 -60 4 -104v-116q0 -19 6 -25t25 -6zM1589 622v-59h-149v-563h-112v426h-211v-270q0 -78 -78 -78h-363q-36 0 -55 16q-16 -16 -53 -16h-397
q-78 0 -78 78v251q0 78 78 78h375v-59h-316l368 -232v213q0 78 78 78h652v78h-1348v59h1609z" />
    <glyph glyph-name="uni092D094D0928" horiz-adv-x="1800" 
d="M1238 168v258h-268q-19 0 -25 -6t-6 -25v-227q0 -19 6 -25t25 -6h237q19 0 25 6t6 25zM517 167v144h-269q-20 0 -26 -6.5t-6 -25.5v-112q0 -18 6.5 -24.5t25.5 -6.5h237q19 0 25.5 6.5t6.5 24.5zM1820 622v-59h-149v-563h-112v426h-211v-270q0 -78 -78 -78h-363
q-78 0 -78 78v155h-200v-155q0 -78 -78 -78h-364q-78 0 -78 78v136q0 78 78 78h330v162q0 19 -6.5 25t-25.5 6h-231q-19 0 -25 -6t-6 -25v-87h-113v99q0 78 79 78h362q78 0 78 -78v-174h200v37q0 78 78 78h652v78h-833v59h1094z" />
    <glyph glyph-name="uni092E094D0928" horiz-adv-x="1796" 
d="M1555 485v78h-925v-78h925zM1234 168v258h-268q-19 0 -25 -6t-6 -25v-227q0 -19 6 -25t25 -6h237q19 0 25 6t6 25zM517 168v258h-268q-19 0 -25 -6t-6 -25v-227q0 -19 6 -25t25 -6h237q19 0 25 6t6 25zM1816 622v-59h-149v-563h-112v426h-211v-270q0 -78 -78 -78h-363
q-78 0 -78 78v251q0 13 1 19h-196v-270q0 -78 -78 -78h-364q-78 0 -78 78v251q0 78 78 78h329v78h-537v59h1836z" />
    <glyph glyph-name="uni092F094D0928" horiz-adv-x="1681" 
d="M1440 485v78h-923q10 -8 10 -29v-147q0 -78 -78 -78h-262v-141q0 -19 6 -25t25 -6h457q19 0 26.5 7.5t7.5 25.5v237q0 78 79 78h652zM1119 168v258h-268q-19 0 -25 -6t-6 -25v-227q0 -19 6 -25t25 -6h237q19 0 25 6t6 25zM1701 622v-59h-149v-563h-112v426h-211v-270
q0 -78 -78 -78h-363q-37 0 -56 16q-16 -16 -53 -16h-527q-78 0 -78 78v212h309q19 0 25 6t6 26v132q0 20 -6 25.5t-25 5.5h-403v59h1721z" />
    <glyph glyph-name="uni0935094D0928" horiz-adv-x="1500" 
d="M938 168v258h-268q-19 0 -25 -6t-6 -25v-227q0 -19 6 -25t25 -6h237q19 0 25 6t6 25zM1520 622v-59h-149v-563h-112v426h-211v-270q0 -78 -78 -78h-363q-36 0 -55 16q-16 -16 -53 -16h-319q-79 0 -79 78v251q0 78 79 78h299v-59h-234q-19 0 -25 -6t-6 -25v-227
q0 -19 6 -25t25 -6h250q19 0 26.5 7.5t7.5 25.5v237q0 78 78 78h652v78h-1279v59h1540z" />
    <glyph glyph-name="uni0936094D0928" horiz-adv-x="1810" 
d="M207 622h363q78 0 78 -78v-201q0 -78 -78 -78h-330v-175q0 -19 6.5 -25t25.5 -6h231q19 0 25 6t6 25v106h113v-118q0 -78 -79 -78h-362q-78 0 -78 78v295h112v-49h264q19 0 25.5 6t6.5 25v177q0 19 -6.5 25t-25.5 6h-232q-19 0 -25.5 -6t-6.5 -25v-84h-112v96q0 78 79 78
zM1249 168v258h-268q-19 0 -25.5 -6t-6.5 -25v-227q0 -19 6.5 -25t25.5 -6h236q19 0 25.5 6t6.5 25zM1830 622v-59h-148v-563h-113v426h-211v-270q0 -78 -77 -78h-364q-78 0 -78 78v251q0 78 78 78h652v78h-798v59h1059z" />
    <glyph glyph-name="uni0938094D0928" horiz-adv-x="1815" 
d="M1575 485v78h-952q10 -7 10 -29v-176q0 -13 -1 -19h213v68q0 78 78 78h652zM1254 168v258h-268q-19 0 -25 -6t-6 -25v-227q0 -19 6 -25t25 -6h237q19 0 25 6t6 25zM1836 622v-59h-149v-563h-112v426h-211v-270q0 -78 -78 -78h-363q-78 0 -78 78v124h-622v-190
q0 -19 6 -25t25 -6h234q19 0 25.5 6t6.5 25v124h112v-136q0 -78 -78 -78h-365q-79 0 -79 78v398h113v-137h266q19 0 25.5 6t6.5 25v162q0 19 -6 25t-26 6h-509v59h1856z" />
    <glyph glyph-name="uni0939094D0928" horiz-adv-x="779" 
d="M642 426h-381q-19 0 -25 -6t-6 -25v-30q0 -19 6 -25t25 -6h327q82 0 82 -81v-198h-99v85h-107q-20 0 -26.5 -6.5t-6.5 -25.5v-40h-99v53q0 78 78 78h161v45q0 18 -6.5 24.5t-25.5 6.5h-278q-19 0 -25 -5.5t-6 -25.5v-223q0 -19 6 -25t25 -6h396v-59h-461q-79 0 -79 78
v238q0 49 46 52v4q-46 2 -46 52v52q0 78 79 78h334v78h-550v59h819v-59h-157v-137z" />
    <glyph glyph-name="uni0915094D0930" horiz-adv-x="1084" 
d="M1104 563h-506v-87q10 9 32 9h283q78 0 78 -78v-248q0 -78 -78 -78h-265v59h199q20 0 26 6t6 25v224q0 19 -6.5 25t-25.5 6h-215q-20 0 -27 -7t-7 -27v-392h-112v90l-109 -158h-120l110 149h-196q-78 0 -78 78v248q0 78 78 78h265v-59h-199q-19 0 -25 -6t-6 -25v-224
q0 -19 6 -25t25 -6h215q20 0 27 7t7 27v389h-506v59h1124v-59z" />
    <glyph glyph-name="uni0916094D0930" horiz-adv-x="1375" 
d="M1394 622v-59h-148v-563h-111v137l-141 -191h-120l131 175h-227q-70 0 -70 78v179q0 78 77 78h300v-59h-242q-19 0 -25.5 -6.5t-6.5 -25.5v-154q0 -19 6 -25t26 -6h253q21 0 30 8.5t9 29.5v345h-569v-245q0 -78 -78 -78h-265v-150q0 -19 6.5 -25t25.5 -6h378v-59h-446
q-77 0 -77 78v392h113v-171h201q19 0 25 6t6 25v233h-475v59h1414z" />
    <glyph glyph-name="uni0917094D0930" horiz-adv-x="1102" 
d="M219 145h290q19 0 25 6t6 26v198h-321q-19 0 -25.5 -6t-6.5 -25v-167q0 -19 6.5 -25.5t25.5 -6.5zM1122 622v-59h-148v-590h-108v42l5 104l-177 -185h-134l304 295v334h-214v-398q0 -79 -77 -79h-412q-78 0 -78 79v191q0 78 78 78h379v129h-560v59h1142z" />
    <glyph glyph-name="uni0918094D0930" horiz-adv-x="895" 
d="M654 183v380h-399q-19 0 -25 -5.5t-6 -25.5v-123q0 -19 6 -25t25 -6h197v-59h-197q-19 0 -25 -5.5t-6 -25.5v-108q0 -19 6 -25t25 -6h365q20 0 27 7.5t7 26.5zM915 622v-59h-149v-563h-112v102l-162 -161h-130l155 149h-328q-78 0 -78 79v124q0 49 45 52v4q-45 3 -45 53
v132q0 22 10 29h-141v59h935z" />
    <glyph glyph-name="uni0919094D0930" horiz-adv-x="854" 
d="M696 309v83h88v-83h-88zM-20 622h894v-59h-266v-137h-363q-20 0 -26 -6t-6 -25v-59q0 -20 6.5 -26t25.5 -6h308q79 0 79 -78v-145q0 -78 -79 -78h-88l89 -165h-111l-66 138l-68 -138h-110l90 165h-107q-78 0 -78 78v81h112v-69q0 -19 6 -25t26 -6h240q20 0 25.5 6t5.5 25
v121q0 20 -5.5 25.5t-25.5 5.5h-309q-78 0 -78 79v83q0 78 78 78h317v78h-516v59z" />
    <glyph glyph-name="uni091A094D0930" horiz-adv-x="844" 
d="M864 622v-59h-149v-563h-112v100l-161 -159h-134l156 149h-270q-78 0 -78 79v228q0 22 10 29h-94v59h384v-59h-158q-18 0 -24 -6.5t-6 -24.5v-215q0 -19 6.5 -25t25.5 -6h309q19 0 26.5 7.5t7.5 26.5v380h-623v59h884z" />
    <glyph glyph-name="uni091B094D0930" horiz-adv-x="1058" 
d="M651 485v78h-395q-20 0 -25.5 -5.5t-5.5 -25.5v-162q0 -20 5.5 -25.5t25.5 -5.5h155v-59h-155q-20 0 -25.5 -6t-5.5 -25v-156q0 -19 5.5 -25t25.5 -6h559q20 0 26 6t6 25v302q0 19 -6.5 25t-25.5 6h-221q-19 0 -25.5 -6t-6.5 -25v-130q0 -19 6 -25.5t26 -6.5h113v-59
h-171q-79 0 -79 79v154q0 78 79 78h115zM1078 563h-323v-78h115q78 0 78 -78v-326q0 -78 -78 -78h-237l90 -165h-111l-67 138l-71 -138h-110l93 165h-266q-79 0 -79 78v173q0 49 46 52v4q-46 3 -46 52v172q0 22 10 29h-142v59h1098v-59z" />
    <glyph glyph-name="uni091C094D0930" horiz-adv-x="1073" 
d="M1093 622v-59h-148v-590h-109v26l5 104l-174 -169h-138l305 273v219h-212v-261q0 -79 -78 -79h-356q-78 0 -78 79v320h110v-308q0 -20 6 -26t25 -6h230q19 0 25 6t6 26v308h322v78h-854v59h1113z" />
    <glyph glyph-name="uni091D094D0930" horiz-adv-x="1109" 
d="M871 331v232h-217v-137h-408q-20 0 -25.5 -6t-5.5 -25v-33q0 -20 5.5 -25.5t25.5 -5.5h625zM1129 622v-59h-148v-590h-108v26l4 76l-143 -141h-137l274 245v93h-218q1 -6 1 -19v-97q0 -78 -78 -78h-365v-78h-114v190h114v-53h299q20 0 26 6t6 25v72q0 20 -6 26t-26 6
h-329q-79 0 -79 78v57q0 78 79 78h361v78h-562v59h1149z" />
    <glyph glyph-name="uni091E094D0930" horiz-adv-x="1040" 
d="M1060 622v-59h-148v-590h-109v26l6 104l-175 -169h-138l306 273v57h-207v-99q0 -79 -77 -79h-381q-78 0 -78 79v112h113v-100q0 -20 6 -26t25 -6h249q20 0 26 6.5t6 25.5v218q0 19 -6.5 25t-25.5 6h-217v59h283q77 0 77 -78v-84h207v240h-822v59h1080z" />
    <glyph glyph-name="uni091F094D0930" horiz-adv-x="757" 
d="M620 426h-366q-19 0 -25 -6t-6 -25v-302q0 -19 5.5 -25t25.5 -6h252q20 0 25.5 6t5.5 25v154h113v-166q0 -78 -79 -78h-100l89 -165h-111l-66 138l-68 -138h-110l90 165h-106q-79 0 -79 78v326q0 78 79 78h319v78h-528v59h797v-59h-157v-137z" />
    <glyph glyph-name="uni0920094D0930" horiz-adv-x="780" 
d="M560 93v302q0 19 -6.5 25t-25.5 6h-276q-19 0 -25 -6t-6 -25v-302q0 -19 5.5 -25t25.5 -6h276q20 0 26 6t6 25zM800 563h-354v-78h146q78 0 78 -78v-326q0 -78 -78 -78h-113l89 -165h-111l-66 138l-67 -138h-111l90 165h-114q-79 0 -79 78v326q0 78 79 78h144v78h-353v59
h820v-59z" />
    <glyph glyph-name="uni0921094D0930" horiz-adv-x="737" 
d="M613 426h-363q-20 0 -26 -6t-6 -25v-53q0 -19 6 -25t26 -6h308q79 0 79 -78v-152q0 -78 -79 -78h-96l88 -165h-111l-65 138l-67 -138h-111l90 165h-99q-78 0 -78 78v93h112v-81q0 -19 6 -25t26 -6h240q19 0 25 6t6 25v127q0 20 -6 26t-25 6h-309q-78 0 -78 78v77
q0 78 78 78h317v78h-521v59h779v-59h-146v-137z" />
    <glyph glyph-name="uni0922094D0930" horiz-adv-x="783" 
d="M622 426h-368q-19 0 -25 -6t-6 -25v-302q0 -19 5.5 -25t25.5 -6h281q19 0 25 6t6 25v108q0 19 -6 25t-25 6h-154v59h214q78 0 78 -78v-132q0 -78 -78 -78h-107l89 -165h-111l-66 138l-68 -138h-110l90 165h-123q-79 0 -79 78v326q0 78 79 78h320v78h-529v59h823v-59h-181
v-137z" />
    <glyph glyph-name="uni0923094D0930" horiz-adv-x="1093" 
d="M515 177v386h-297v-386q0 -19 6 -25.5t26 -6.5h233q19 0 25.5 6.5t6.5 25.5zM1113 622v-59h-148v-590h-108v26l4 104l-173 -169h-138l305 273v356h-233v-398q0 -79 -77 -79h-356q-79 0 -79 79v398h-130v59h1133z" />
    <glyph glyph-name="uni0924094D0930" horiz-adv-x="762" 
d="M782 622v-59h-149v-563h-111v212h-69l-243 -212h-143l279 243l-136 128q-54 52 -141 52h-21v62h65q64 0 104 -12t83 -53l151 -144h71v287h-542v59h802z" />
    <glyph glyph-name="uni0925094D0930" horiz-adv-x="1059" 
d="M1079 622v-59h-148v-563h-112v103l-166 -162h-143l161 149h-483q-78 0 -78 79v198h365q20 0 26 6t6 25v134q0 19 -6.5 25t-25.5 6h-221q-19 0 -25.5 -6t-6.5 -25v-89h-111v101q0 78 79 78h350q78 0 78 -78v-159q0 -77 -78 -77h-317v-128q0 -19 6 -25t25 -6h531
q19 0 26.5 7.5t7.5 26.5v439h260z" />
    <glyph glyph-name="uni0926094D0930" horiz-adv-x="757" 
d="M619 426h-382q-19 0 -25 -6t-6 -25v-215q0 -19 6 -25t25 -6h246q19 0 26.5 7.5t7.5 26.5v83h112v-266h-112v102l-111 -161h-125l110 149h-220q-78 0 -78 79v238q0 78 78 78h337v78h-528v59h797v-59h-158v-137z" />
    <glyph glyph-name="uni0927094D0930" horiz-adv-x="1035" 
d="M1055 622v-59h-148v-563h-112v101l-169 -160h-147l165 149h-459q-78 0 -78 79v115q0 49 45 52v4q-45 3 -45 52v152q0 78 78 78h343q78 0 78 -78v-115h-99v103q0 19 -6 25t-25 6h-225q-19 0 -25.5 -6t-6.5 -25v-130q0 -20 6.5 -26t25.5 -6h150v-59h-150q-19 0 -25.5 -6.5
t-6.5 -25.5v-99q0 -19 6.5 -25t25.5 -6h510q19 0 26.5 7.5t7.5 26.5v439h260z" />
    <glyph glyph-name="uni0928094D0930" horiz-adv-x="1053" 
d="M492 177v249h-268q-19 0 -25 -6t-6 -25v-218q0 -20 6 -26t25 -6h237q19 0 25 6t6 26zM1073 622v-59h-149v-590h-108v26l5 104l-175 -169h-137l305 273v219h-212v-261q0 -79 -78 -79h-363q-78 0 -78 79v242q0 78 78 78h653v78h-834v59h1093z" />
    <glyph glyph-name="uni092A094D0930" horiz-adv-x="769" 
d="M529 205v358h-307v-360q0 -20 6 -26t25 -6h242q19 0 26.5 7.5t7.5 26.5zM790 622v-59h-150v-563h-111v124l-145 -183h-125l143 171h-212q-79 0 -79 79v372h-131v59h810z" />
    <glyph glyph-name="uni092B094D0930" horiz-adv-x="1132" 
d="M529 205v358h-307v-360q0 -20 6 -26t25 -6h242q19 0 26.5 7.5t7.5 26.5zM1152 563h-512v-87q10 9 32 9h289q79 0 79 -78v-251q0 -78 -79 -78h-272v59h207q19 0 25 6t6 25v227q0 19 -6 25t-25 6h-222q-20 0 -27 -7t-7 -27v-392h-111v124l-145 -183h-125l143 171h-212
q-79 0 -79 79v372h-131v59h1172v-59z" />
    <glyph glyph-name="uni092C094D0930" horiz-adv-x="829" 
d="M234 145h325l-360 244q4 -60 4 -104v-109q0 -19 6 -25t25 -6zM849 622v-59h-148v-563h-113v96l-127 -157h-116l130 147h-304q-78 0 -78 78v243q0 78 78 78h375v-59h-314l364 -247q-8 49 -8 141v243h-608v59h869z" />
    <glyph glyph-name="uni092D094D0930" horiz-adv-x="1081" 
d="M516 176v142h-269q-19 0 -25 -6t-6 -26v-110q0 -19 6 -25.5t25 -6.5h238q19 0 25 6.5t6 25.5zM1101 622v-59h-149v-590h-108v26l5 104l-175 -169h-137l305 273v111h-215v-153q0 -79 -78 -79h-362q-79 0 -79 79v134q0 78 79 78h329v155q0 19 -6 25t-25 6h-231
q-19 0 -25.5 -6t-6.5 -25v-81h-112v93q0 78 78 78h361q78 0 78 -78v-167h215v245h259z" />
    <glyph glyph-name="uni092E094D0930" horiz-adv-x="1084" 
d="M845 485v78h-216v-78h216zM517 177v249h-268q-19 0 -25.5 -6t-6.5 -25v-218q0 -19 6.5 -25.5t25.5 -6.5h236q19 0 25.5 6.5t6.5 25.5zM1104 622v-59h-148v-590h-108v26l4 104l-174 -169h-138l305 273v219h-216v-261q0 -79 -78 -79h-363q-79 0 -79 79v242q0 78 79 78h329
v78h-537v59h1124z" />
    <glyph glyph-name="uni092F094D0930" horiz-adv-x="990" 
d="M732 188v375h-215q10 -8 10 -29v-147q0 -78 -78 -78h-262v-129q0 -19 6 -25t25 -6h474q22 0 31 8.5t9 30.5zM1010 622v-59h-166v-563h-112v104l-162 -163h-138l157 149h-437q-78 0 -78 79v199h309q19 0 25 6t6 26v132q0 20 -6 25.5t-25 5.5h-403v59h1030z" />
    <glyph glyph-name="uni0935094D0930" horiz-adv-x="769" 
d="M789 622v-59h-148v-563h-112v103l-127 -162h-123l123 149h-222q-78 0 -78 79v238q0 78 78 78h299v-59h-233q-19 0 -25.5 -6t-6.5 -25v-215q0 -19 6.5 -25t25.5 -6h249q19 0 26.5 7.5t7.5 26.5v380h-549v59h809z" />
    <glyph glyph-name="uni0936094D0930" horiz-adv-x="1060" 
d="M823 0v117q0 67 1.5 92t2 37t1.5 23q-10 -11 -19.5 -21.5t-22 -24t-30.5 -32.5t-36 -39l-140 -149h-133l286 294h-200l-217 -200h-136l219 200h-203q-78 0 -78 78v169q0 77 78 77h326q78 0 78 -77v-157q0 -23 -11 -31h234v207h-78v59h335v-59h-148v-563h-109zM492 531
q0 19 -6 25t-26 6h-202q-20 0 -26 -6t-6 -25v-144q0 -19 6 -25t26 -6h198l36 35v140z" />
    <glyph glyph-name="uni0938094D0930" horiz-adv-x="1108" 
d="M867 340v223h-243q10 -7 10 -29v-174q0 -14 -1 -20h234zM1129 622v-59h-149v-563h-113v116q0 81 6 132l2 17l-139 -149h-129l157 165h-541v-191q0 -19 6 -25t25 -6h325v-59h-390q-79 0 -79 78v398h113v-136h267q20 0 26 6t6 26v160q0 19 -6 25t-26 6h-510v59h1149z" />
    <glyph glyph-name="uni0939094D0930" horiz-adv-x="781" 
d="M654 426h-393q-19 0 -25 -6t-6 -25v-38q0 -20 6 -26t25 -6h329q82 0 82 -80v-110h-109v100q0 19 -5 24l-95 -136h-97l106 143h-211q-19 0 -25 -6t-6 -25v-145q0 -19 6 -25t25 -6h405v-59h-470q-79 0 -79 78v160q0 50 46 53v4q-46 2 -46 51v61q0 78 79 78h346v78h-562v59
h821v-59h-147v-137z" />
    <glyph glyph-name="uni0915093C094D0930" horiz-adv-x="1084" 
d="M337 -235v100h113v-100h-113zM1104 563h-506v-87q10 9 32 9h283q78 0 78 -78v-248q0 -78 -78 -78h-265v59h199q20 0 26 6t6 25v224q0 19 -6.5 25t-25.5 6h-215q-20 0 -27 -7t-7 -27v-392h-112v90l-109 -158h-120l110 149h-196q-78 0 -78 78v248q0 78 78 78h265v-59h-199
q-19 0 -25 -6t-6 -25v-224q0 -19 6 -25t25 -6h215q20 0 27 7t7 27v389h-506v59h1124v-59z" />
    <glyph glyph-name="uni0916093C094D0930" horiz-adv-x="1339" 
d="M927 -235v100h113v-100h-113zM1394 622v-59h-148v-563h-111v137l-141 -191h-120l131 175h-227q-70 0 -70 78v179q0 78 77 78h300v-59h-242q-19 0 -25.5 -6.5t-6.5 -25.5v-154q0 -19 6 -25t26 -6h253q21 0 30 8.5t9 29.5v345h-569v-245q0 -78 -78 -78h-265v-150
q0 -19 6.5 -25t25.5 -6h378v-59h-446q-77 0 -77 78v392h113v-171h201q19 0 25 6t6 25v233h-475v59h1414z" />
    <glyph glyph-name="uni0917093C094D0930" horiz-adv-x="1047" 
d="M667 -248v100h113v-100h-113zM219 145h290q19 0 25 6t6 26v198h-321q-19 0 -25.5 -6t-6.5 -25v-167q0 -19 6.5 -25.5t25.5 -6.5zM1122 622v-59h-148v-590h-108v42l5 104l-177 -185h-134l304 295v334h-214v-398q0 -79 -77 -79h-412q-78 0 -78 79v191q0 78 78 78h379v129
h-560v59h1142z" />
    <glyph glyph-name="uni091C093C094D0930" horiz-adv-x="1062" 
d="M281 -135v100h113v-100h-113zM1093 622v-59h-148v-590h-109v26l5 104l-174 -169h-138l305 273v219h-212v-261q0 -79 -78 -79h-356q-78 0 -78 79v320h110v-308q0 -20 6 -26t25 -6h230q19 0 25 6t6 26v308h322v78h-854v59h1113z" />
    <glyph glyph-name="uni0921093C094D0930" horiz-adv-x="739" 
d="M317 -308v99h113v-99h-113zM613 426h-363q-20 0 -26 -6t-6 -25v-53q0 -19 6 -25t26 -6h308q79 0 79 -78v-152q0 -78 -79 -78h-106l93 -164h-111l-60 129l-63 -129h-110l96 164h-110q-78 0 -78 78v93h112v-81q0 -19 6 -25t26 -6h240q19 0 25 6t6 25v127q0 20 -6 26t-25 6
h-309q-78 0 -78 78v77q0 78 78 78h317v78h-521v59h779v-59h-146v-137z" />
    <glyph glyph-name="uni0922093C094D0930" horiz-adv-x="783" 
d="M341 -308v99h113v-99h-113zM622 426h-368q-19 0 -25 -6t-6 -25v-302q0 -19 5.5 -25t25.5 -6h281q19 0 25 6t6 25v108q0 19 -6 25t-25 6h-154v59h214q78 0 78 -78v-132q0 -78 -78 -78h-117l94 -164h-111l-61 129l-63 -129h-110l96 164h-134q-79 0 -79 78v326q0 78 79 78
h320v78h-529v59h823v-59h-181v-137z" />
    <glyph glyph-name="uni0928093C094D0930" horiz-adv-x="1053" 
d="M673 -239v100h113v-100h-113zM492 177v249h-268q-19 0 -25 -6t-6 -25v-218q0 -20 6 -26t25 -6h237q19 0 25 6t6 26zM1073 622v-59h-149v-590h-108v26l5 104l-175 -169h-137l305 273v219h-212v-261q0 -79 -78 -79h-363q-78 0 -78 79v242q0 78 78 78h653v78h-834v59h1093z
" />
    <glyph glyph-name="uni092B093C094D0930" horiz-adv-x="1132" 
d="M347 -235v100h113v-100h-113zM529 205v358h-307v-360q0 -20 6 -26t25 -6h242q19 0 26.5 7.5t7.5 26.5zM1152 563h-512v-87q10 9 32 9h289q79 0 79 -78v-251q0 -78 -79 -78h-272v59h207q19 0 25 6t6 25v227q0 19 -6 25t-25 6h-222q-20 0 -27 -7t-7 -27v-392h-111v124
l-145 -183h-125l143 171h-212q-79 0 -79 79v372h-131v59h1172v-59z" />
    <glyph glyph-name="uni092F093C094D0930" horiz-adv-x="990" 
d="M557 -235v100h113v-100h-113zM732 188v375h-215q10 -8 10 -29v-147q0 -78 -78 -78h-262v-129q0 -19 6 -25t25 -6h474q22 0 31 8.5t9 30.5zM1010 622v-59h-166v-563h-112v104l-162 -163h-138l157 149h-437q-78 0 -78 79v199h309q19 0 25 6t6 26v132q0 20 -6 25.5t-25 5.5
h-403v59h1030z" />
    <glyph glyph-name="uni0915094D0930094D" horiz-adv-x="741" 
d="M630 485h284v-59h-282q-20 0 -27 -7t-7 -27v-392h-112v90l-109 -158h-124l110 149h-192q-78 0 -78 78v248q0 78 78 78h265v-59h-199q-19 0 -25 -6t-6 -25v-224q0 -19 6 -25t25 -6h215q20 0 27 7t7 27v389h-506v59h781v-59h-163v-87q10 9 32 9z" />
    <glyph glyph-name="uni0916094D0930094D" horiz-adv-x="1008" 
d="M223 240v-150q0 -19 6.5 -25t25.5 -6h378v-59h-446q-77 0 -77 78v392h113v-171h201q19 0 25 6t6 25v233h-475v59h1048v-59h-462v-245q0 -78 -78 -78h-265zM843 180h315v-33h-26l-138 -201h-119l123 175h-220q-70 0 -70 78v179q0 78 77 78h300v-59h-242q-19 0 -25.5 -6.5
t-6.5 -25.5v-154q0 -19 6 -25t26 -6z" />
    <glyph glyph-name="uni0917094D0930094D" horiz-adv-x="738" 
d="M219 145h290q19 0 25 6t6 26v198h-321q-19 0 -25.5 -6t-6.5 -25v-167q0 -19 6.5 -25.5t25.5 -6.5zM650 563v-398q0 -79 -77 -79h-412q-78 0 -78 79v191q0 78 78 78h379v129h-560v59h777v-59h-107zM890 254l50 -66l-246 -254h-134z" />
    <glyph glyph-name="uni0918094D0930094D" horiz-adv-x="526" 
d="M111 402v132q0 22 10 29h-141v59h566v-59h-291q-19 0 -25 -5.5t-6 -25.5v-123q0 -19 6 -25t25 -6h197v-59h-197q-19 0 -25 -5.5t-6 -25.5v-108q0 -19 6 -25t25 -6h430v-44h-28l-165 -164h-134l154 149h-323q-78 0 -78 79v124q0 49 45 52v4q-45 3 -45 53z" />
    <glyph glyph-name="uni091A094D0930094D" horiz-adv-x="480" 
d="M-20 563v59h520v-59h-520zM32 426v59h384v-59h-158q-18 0 -24 -6.5t-6 -24.5v-215q0 -19 6.5 -25t25.5 -6h390v-40h-38l-170 -168h-134l156 149h-270q-78 0 -78 79v228q0 22 10 29h-94z" />
    <glyph glyph-name="uni091C094D0930094D" horiz-adv-x="709" 
d="M728 622v-59h-748v59h748zM622 426v-261q0 -79 -78 -79h-356q-78 0 -78 79v320h110v-308q0 -20 6 -26t25 -6h230q19 0 25 6t6 26v308h395v-59h-285zM877 242l36 -74l-246 -234h-138z" />
    <glyph glyph-name="uni091D094D0930094D" horiz-adv-x="744" 
d="M654 253v-97q0 -78 -78 -78h-365v-78h-114v190h114v-53h299q20 0 26 6t6 25v72q0 20 -6 26t-26 6h-329q-79 0 -79 78v57q0 78 79 78h361v78h-562v59h784v-59h-110v-137h-408q-20 0 -25.5 -6t-5.5 -25v-33q0 -20 5.5 -25.5t25.5 -5.5h674v-59h-267q1 -6 1 -19zM907 209
l38 -72l-211 -203h-137z" />
    <glyph glyph-name="uni091F094D0930094D" horiz-adv-x="757" 
d="M323 -201h115l111 -146h-118zM620 426h-366q-19 0 -25 -6t-6 -25v-302q0 -19 5.5 -25t25.5 -6h252q20 0 25.5 6t5.5 25v154h113v-166q0 -78 -79 -78h-100l89 -165h-111l-66 138l-68 -138h-110l90 165h-106q-79 0 -79 78v326q0 78 79 78h319v78h-528v59h797v-59h-157v-137
z" />
    <glyph glyph-name="uni0920094D0930094D" horiz-adv-x="780" 
d="M334 -201h114l111 -146h-117zM560 93v302q0 19 -6.5 25t-25.5 6h-276q-19 0 -25 -6t-6 -25v-302q0 -19 5.5 -25t25.5 -6h276q20 0 26 6t6 25zM800 563h-354v-78h146q78 0 78 -78v-326q0 -78 -78 -78h-113l89 -165h-111l-66 138l-67 -138h-111l90 165h-114q-79 0 -79 78
v326q0 78 79 78h144v78h-353v59h820v-59z" />
    <glyph glyph-name="uni0921094D0930094D" horiz-adv-x="737" 
d="M312 -200h115l111 -146h-118zM613 426h-363q-20 0 -26 -6t-6 -25v-53q0 -19 6 -25t26 -6h308q79 0 79 -78v-152q0 -78 -79 -78h-106l93 -164h-111l-60 129l-63 -129h-110l96 164h-110q-78 0 -78 78v93h112v-81q0 -19 6 -25t26 -6h240q19 0 25 6t6 25v127q0 20 -6 26
t-25 6h-309q-78 0 -78 78v77q0 78 78 78h317v78h-521v59h779v-59h-146v-137z" />
    <glyph glyph-name="uni0922094D0930094D" horiz-adv-x="783" 
d="M337 -201h115l111 -146h-118zM622 426h-368q-19 0 -25 -6t-6 -25v-302q0 -19 5.5 -25t25.5 -6h281q19 0 25 6t6 25v108q0 19 -6 25t-25 6h-154v59h214q78 0 78 -78v-132q0 -78 -78 -78h-117l94 -164h-111l-61 129l-63 -129h-110l96 164h-134q-79 0 -79 78v326q0 78 79 78
h320v78h-529v59h823v-59h-181v-137z" />
    <glyph glyph-name="uni0923094D0930094D" horiz-adv-x="728" 
d="M250 145h233q19 0 25.5 6.5t6.5 25.5v386h-297v-386q0 -19 6 -25.5t26 -6.5zM622 563v-398q0 -79 -77 -79h-356q-79 0 -79 79v398h-130v59h768v-59h-126zM913 258l37 -76l-262 -248h-138z" />
    <glyph glyph-name="uni0924094D0930094D" horiz-adv-x="401" 
d="M550 622v-59h-570v59h570zM558 276v-64h-105l-243 -212h-143l279 243l-136 128q-54 52 -141 52h-21v62h65q64 0 104 -12t83 -53l151 -144h107z" />
    <glyph glyph-name="uni0925094D0930094D" horiz-adv-x="682" 
d="M254 149h594v-41h-32l-172 -167h-141l161 149h-476q-78 0 -78 79v198h356q20 0 26 6t6 25v134q0 19 -6.5 25t-25.5 6h-212q-19 0 -25.5 -6t-6.5 -25v-89h-111v101q0 78 79 78h341q78 0 78 -78v-159q0 -77 -78 -77h-308v-128q0 -19 6 -25t25 -6z" />
    <glyph glyph-name="uni0926094D0930094D" horiz-adv-x="757" 
d="M518 -117h114l112 -146h-118zM-20 622h797v-59h-158v-137h-382q-19 0 -25 -6t-6 -25v-215q0 -19 6 -25t25 -6h246q19 0 26.5 7.5t7.5 26.5v83h112v-266h-112v102l-111 -161h-125l110 149h-220q-78 0 -78 79v238q0 78 78 78h337v78h-528v59z" />
    <glyph glyph-name="uni0927094D0930094D" horiz-adv-x="674" 
d="M251 149h583v-44h-35l-173 -164h-143l166 149h-464q-78 0 -78 79v115q0 49 45 52v4q-45 3 -45 52v152q0 78 78 78h343q78 0 78 -78v-115h-99v103q0 19 -6 25t-25 6h-225q-19 0 -25.5 -6t-6.5 -25v-130q0 -20 6.5 -26t25.5 -6h150v-59h-150q-19 0 -25.5 -6.5t-6.5 -25.5
v-99q0 -19 6.5 -25t25.5 -6z" />
    <glyph glyph-name="uni0928094D0930094D" horiz-adv-x="689" 
d="M709 622v-59h-729v59h729zM224 145h237q19 0 25 6t6 26v249h-268q-19 0 -25 -6t-6 -25v-218q0 -20 6 -26t25 -6zM602 426v-261q0 -79 -78 -79h-363q-78 0 -78 79v242q0 78 78 78h710v-59h-269zM857 242l32 -77l-243 -231h-137z" />
    <glyph glyph-name="uni092A094D0930094D" horiz-adv-x="403" 
d="M253 171h320v-41h-39l-150 -189h-125l143 171h-212q-79 0 -79 79v372h-131v59h443v-59h-201v-360q0 -20 6 -26t25 -6z" />
    <glyph glyph-name="uni092B094D0930094D" horiz-adv-x="783" 
d="M253 171h242q19 0 26.5 7.5t7.5 26.5v358h-307v-360q0 -20 6 -26t25 -6zM672 478h262v-59h-260q-20 0 -27 -7.5t-7 -26.5v-385h-111v124l-145 -183h-125l143 171h-212q-79 0 -79 79v372h-131v59h823v-59h-163v-94q10 9 32 9z" />
    <glyph glyph-name="uni092C094D0930094D" horiz-adv-x="471" 
d="M491 622v-59h-511v59h511zM203 283v-107q0 -19 6 -25t25 -6h346l-381 241q4 -59 4 -103zM612 145h16v-38h-31l-136 -168h-127l131 147h-294q-78 0 -78 78v243q0 78 78 78h375v-59h-314l380 -240v-41z" />
    <glyph glyph-name="uni092D094D0930094D" horiz-adv-x="717" 
d="M537 -66l342 300l12 -98l-217 -202h-137zM516 176v142h-269q-19 0 -25 -6t-6 -26v-110q0 -19 6 -25.5t25 -6.5h238q19 0 25 6.5t6 25.5zM627 377h270v-59h-270v-153q0 -79 -78 -79h-362q-79 0 -79 79v134q0 78 79 78h329v155q0 19 -6 25t-25 6h-231q-19 0 -25.5 -6
t-6.5 -25v-81h-112v93q0 78 78 78h361q78 0 78 -78v-167z" />
    <glyph glyph-name="uni092E094D0930094D" horiz-adv-x="718" 
d="M249 145h236q19 0 25.5 6.5t6.5 25.5v249h-268q-19 0 -25.5 -6t-6.5 -25v-218q0 -19 6.5 -25.5t25.5 -6.5zM629 426v-261q0 -79 -78 -79h-363q-79 0 -79 79v242q0 78 79 78h329v78h-537v59h758v-59h-109v-78h280v-59h-280zM902 253l9 -100l-233 -219h-138z" />
    <glyph glyph-name="uni092F094D0930094D" horiz-adv-x="605" 
d="M218 149h559v-40h-40l-167 -168h-138l157 149h-437q-78 0 -78 79v199h309q19 0 25 6t6 26v132q0 20 -6 25.5t-25 5.5h-403v59h645v-59h-108q10 -8 10 -29v-147q0 -78 -78 -78h-262v-129q0 -19 6 -25t25 -6z" />
    <glyph glyph-name="uni0935094D0930094D" horiz-adv-x="401" 
d="M-20 563v59h441v-59h-441zM479 485v-59h-233q-19 0 -25.5 -6t-6.5 -25v-215q0 -19 6.5 -25t25.5 -6h324v-40h-36l-132 -168h-123l123 149h-222q-78 0 -78 79v238q0 78 78 78h299z" />
    <glyph glyph-name="uni0938094D0930094D" horiz-adv-x="746" 
d="M940 340v-59h-51l-153 -165h-129l155 165h-539v-191q0 -19 6 -25t25 -6h325v-59h-390q-79 0 -79 78v398h113v-136h267q20 0 26 6t6 26v160q0 19 -6 25t-26 6h-510v59h786v-59h-142q10 -7 10 -29v-174q0 -14 -1 -20h307z" />
    <glyph glyph-name="uni0915093C094D0930094D" horiz-adv-x="741" 
d="M337 -235v100h113v-100h-113zM630 485h284v-59h-282q-20 0 -27 -7t-7 -27v-392h-112v90l-109 -158h-124l110 149h-192q-78 0 -78 78v248q0 78 78 78h265v-59h-199q-19 0 -25 -6t-6 -25v-224q0 -19 6 -25t25 -6h215q20 0 27 7t7 27v389h-506v59h781v-59h-163v-87
q10 9 32 9z" />
    <glyph glyph-name="uni0916093C094D0930094D" horiz-adv-x="1008" 
d="M223 240v-150q0 -19 6.5 -25t25.5 -6h378v-59h-446q-77 0 -77 78v392h113v-171h201q19 0 25 6t6 25v233h-475v59h1048v-59h-462v-245q0 -78 -78 -78h-265zM953 -235v100h113v-100h-113zM843 180h315v-33h-26l-138 -201h-119l123 175h-220q-70 0 -70 78v179q0 78 77 78
h300v-59h-242q-19 0 -25.5 -6.5t-6.5 -25.5v-154q0 -19 6 -25t26 -6z" />
    <glyph glyph-name="uni0917093C094D0930094D" horiz-adv-x="738" 
d="M219 145h290q19 0 25 6t6 26v198h-321q-19 0 -25.5 -6t-6.5 -25v-167q0 -19 6.5 -25.5t25.5 -6.5zM650 563v-398q0 -79 -77 -79h-412q-78 0 -78 79v191q0 78 78 78h379v129h-560v59h777v-59h-107zM940 188l-246 -254h-134l330 320zM658 -248v100h113v-100h-113z" />
    <glyph glyph-name="uni091C093C094D0930094D" horiz-adv-x="709" 
d="M728 622v-59h-748v59h748zM291 -98v100h113v-100h-113zM622 426v-261q0 -79 -78 -79h-356q-78 0 -78 79v320h110v-308q0 -20 6 -26t25 -6h230q19 0 25 6t6 26v308h395v-59h-285zM877 242l36 -74l-246 -234h-138z" />
    <glyph glyph-name="uni0928093C094D0930094D" horiz-adv-x="689" 
d="M709 622v-59h-729v59h729zM224 145h237q19 0 25 6t6 26v249h-268q-19 0 -25 -6t-6 -25v-218q0 -20 6 -26t25 -6zM602 426v-261q0 -79 -78 -79h-363q-78 0 -78 79v242q0 78 78 78h710v-59h-269zM889 165l-243 -231h-137l348 308zM600 -256v100h113v-100h-113z" />
    <glyph glyph-name="uni092B093C094D0930094D" horiz-adv-x="783" 
d="M347 -235v100h113v-100h-113zM253 171h242q19 0 26.5 7.5t7.5 26.5v358h-307v-360q0 -20 6 -26t25 -6zM672 478h262v-59h-260q-20 0 -27 -7.5t-7 -26.5v-385h-111v124l-145 -183h-125l143 171h-212q-79 0 -79 79v372h-131v59h823v-59h-163v-94q10 9 32 9z" />
    <glyph glyph-name="uni092F093C094D0930094D" horiz-adv-x="605" 
d="M522 -244v100h113v-100h-113zM218 149h559v-40h-40l-167 -168h-138l157 149h-437q-78 0 -78 79v199h309q19 0 25 6t6 26v132q0 20 -6 25.5t-25 5.5h-403v59h645v-59h-108q10 -8 10 -29v-147q0 -78 -78 -78h-262v-129q0 -19 6 -25t25 -6z" />
    <glyph glyph-name="uni0915094D0915" horiz-adv-x="1815" 
d="M1218 171v392h-620v-87q10 9 32 9h538v-59h-199q-19 0 -25.5 -6t-6.5 -25v-227q0 -19 6.5 -25t25.5 -6h215q20 0 27 7.5t7 26.5zM1835 563h-505v-87q10 9 32 9h282q79 0 79 -78v-251q0 -78 -79 -78h-264v59h199q19 0 25 6t6 25v227q0 19 -6 25t-25 6h-215q-20 0 -27 -7
t-7 -27v-392h-112v87q-10 -9 -32 -9h-283q-78 0 -78 78v251q0 13 1 19h-194q-20 0 -27 -7t-7 -27v-392h-112v87q-10 -9 -32 -9h-283q-78 0 -78 78v251q0 78 78 78h265v-59h-199q-19 0 -25.5 -6t-6.5 -25v-227q0 -19 6.5 -25t25.5 -6h215q20 0 27 7.5t7 26.5v392h-506v59
h1855v-59z" />
    <glyph glyph-name="uni0915094D0916" horiz-adv-x="2119" 
d="M1200 329v234h-602v-87q10 9 32 9h337v-187h201q20 0 26 6t6 25zM2139 622v-59h-148v-563h-112v133q-9 -13 -35 -13h-314q-77 0 -77 78v179q0 78 77 78h304v-59h-247q-19 0 -25 -6t-6 -25v-156q0 -18 6 -24.5t25 -6.5h253q22 0 30.5 8.5t8.5 29.5v347h-568v-247
q0 -77 -79 -77h-265v-149q0 -19 6.5 -25t26.5 -6h391v-59h-459q-77 0 -77 78v348h-223q-20 0 -27 -7t-7 -27v-392h-112v87q-10 -9 -32 -9h-283q-78 0 -78 78v251q0 78 78 78h265v-59h-199q-19 0 -25.5 -6t-6.5 -25v-227q0 -19 6.5 -25t25.5 -6h215q20 0 27 7.5t7 26.5v392
h-506v59h2159z" />
    <glyph glyph-name="uni0915094D091A" horiz-adv-x="1578" 
d="M1338 171v392h-740v-87q10 9 32 9h520v-59h-157q-18 0 -24 -6.5t-6 -24.5v-227q0 -19 6 -25t25 -6h310q20 0 27 7.5t7 26.5zM1598 622v-59h-149v-563h-111v87q-10 -9 -32 -9h-377q-79 0 -79 78v241q0 22 10 29h-228q-20 0 -27 -7t-7 -27v-392h-112v87q-10 -9 -32 -9h-283
q-78 0 -78 78v251q0 78 78 78h265v-59h-199q-19 0 -25.5 -6t-6.5 -25v-227q0 -19 6.5 -25t25.5 -6h215q20 0 27 7.5t7 26.5v392h-506v59h1618z" />
    <glyph glyph-name="uni0915094D091C" horiz-adv-x="1815" 
d="M1574 485v78h-976v-87q10 9 32 9h330v-317q0 -19 6.5 -25t25.5 -6h229q19 0 25.5 6t6.5 25v317h321zM1835 622v-59h-149v-563h-112v426h-211v-270q0 -78 -78 -78h-357q-78 0 -78 78v270h-218q-20 0 -27 -7t-7 -27v-392h-112v87q-10 -9 -32 -9h-283q-78 0 -78 78v251
q0 78 78 78h265v-59h-199q-19 0 -25.5 -6t-6.5 -25v-227q0 -19 6.5 -25t25.5 -6h215q20 0 27 7.5t7 26.5v392h-506v59h1855z" />
    <glyph glyph-name="uni0915094D091F" horiz-adv-x="1472" 
d="M1223 485v78h-625v-87q10 9 32 9h593zM1335 426h-366q-19 0 -25 -6t-6 -25v-305q0 -19 6 -25t25 -6h252q19 0 25 6t6 25v154h113v-166q0 -78 -79 -78h-382q-79 0 -79 78v329q0 13 1 19h-194q-20 0 -27 -7t-7 -27v-392h-112v87q-10 -9 -32 -9h-283q-78 0 -78 78v251
q0 78 78 78h265v-59h-199q-19 0 -25.5 -6t-6.5 -25v-227q0 -19 6.5 -25t25.5 -6h215q20 0 27 7.5t7 26.5v392h-506v59h1512v-59h-157v-137z" />
    <glyph glyph-name="uni0915094D0923" horiz-adv-x="1811" 
d="M1233 168v395h-297v-395q0 -19 6.5 -25t25.5 -6h233q19 0 25.5 6t6.5 25zM630 485h198v78h-230v-87q10 9 32 9zM1831 622v-59h-148v-563h-112v563h-231v-407q0 -78 -77 -78h-356q-79 0 -79 78v270h-196q-20 0 -27 -7t-7 -27v-392h-112v87q-10 -9 -32 -9h-283
q-78 0 -78 78v251q0 78 78 78h265v-59h-199q-19 0 -25.5 -6t-6.5 -25v-227q0 -19 6.5 -25t25.5 -6h215q20 0 27 7.5t7 26.5v392h-506v59h1851z" />
    <glyph glyph-name="uni0915094D0924" horiz-adv-x="1098" 
d="M1118 563h-511v-87q11 9 32 9h287q79 0 79 -78v-329q0 -78 -79 -78h-259v59h194q19 0 25 6t6 25v305q0 19 -6 25t-25 6h-220q-19 0 -26.5 -7t-7.5 -27v-392h-111v426h-256q-18 0 -24 -6.5t-6 -24.5v-305q0 -19 6 -25t25 -6h194v-59h-259q-79 0 -79 78v319q0 22 10 29h-75
v59h464v78h-516v59h1138v-59z" />
    <glyph glyph-name="uni0915094D0925" horiz-adv-x="1772" 
d="M1792 622v-59h-149v-563h-111v87q-10 -9 -32 -9h-590q-79 0 -79 78v209h356q20 0 26.5 6t6.5 25v136q0 19 -6.5 25t-26.5 6h-212q-19 0 -25 -6t-6 -25v-106h-312q-20 0 -27 -7t-7 -27v-392h-112v87q-10 -9 -32 -9h-283q-78 0 -78 78v251q0 78 78 78h265v-59h-199
q-19 0 -25.5 -6t-6.5 -25v-227q0 -19 6.5 -25t25.5 -6h215q20 0 27 7.5t7 26.5v392h-506v59h687v-59h-69v-87q10 9 32 9h203v59q0 78 78 78h341q79 0 79 -78v-160q0 -78 -79 -78h-308v-138q0 -19 6 -25t25 -6h523q20 0 27 7.5t7 26.5v451h260z" />
    <glyph glyph-name="uni0915094D0926" horiz-adv-x="1485" 
d="M1236 485v78h-638v-87q10 9 32 9h606zM1348 426h-382q-19 0 -25.5 -6t-6.5 -25v-227q0 -19 6.5 -25t25.5 -6h245q19 0 26.5 7.5t7.5 26.5v95h113v-266h-113v87q-11 -9 -32 -9h-313q-78 0 -78 78v251q0 13 1 19h-191q-20 0 -27 -7t-7 -27v-392h-112v87q-10 -9 -32 -9h-283
q-78 0 -78 78v251q0 78 78 78h265v-59h-199q-19 0 -25.5 -6t-6.5 -25v-227q0 -19 6.5 -25t25.5 -6h215q20 0 27 7.5t7 26.5v392h-506v59h1525v-59h-157v-137z" />
    <glyph glyph-name="uni0915094D092A" horiz-adv-x="1496" 
d="M1256 171v392h-307v-395q0 -19 6 -25t25 -6h242q20 0 27 7.5t7 26.5zM630 485h208v78h-240v-87q10 9 32 9zM1517 622v-59h-150v-563h-111v87q-10 -9 -32 -9h-307q-79 0 -79 78v270h-206q-20 0 -27 -7t-7 -27v-392h-112v87q-10 -9 -32 -9h-283q-78 0 -78 78v251
q0 78 78 78h265v-59h-199q-19 0 -25.5 -6t-6.5 -25v-227q0 -19 6.5 -25t25.5 -6h215q20 0 27 7.5t7 26.5v392h-506v59h1537z" />
    <glyph glyph-name="uni0915094D092B" horiz-adv-x="1860" 
d="M1256 171v392h-307v-395q0 -19 6 -25t25 -6h242q20 0 27 7.5t7 26.5zM630 485h208v78h-240v-87q10 9 32 9zM1880 563h-513v-87q11 9 32 9h289q79 0 79 -78v-251q0 -78 -79 -78h-272v59h207q19 0 25 6t6 25v227q0 19 -6 25t-25 6h-222q-19 0 -26.5 -7t-7.5 -27v-392h-111
v87q-10 -9 -32 -9h-307q-79 0 -79 78v270h-206q-20 0 -27 -7t-7 -27v-392h-112v87q-10 -9 -32 -9h-283q-78 0 -78 78v251q0 78 78 78h265v-59h-199q-19 0 -25.5 -6t-6.5 -25v-227q0 -19 6.5 -25t25.5 -6h215q20 0 27 7.5t7 26.5v392h-506v59h1900v-59z" />
    <glyph glyph-name="uni0915094D092E" horiz-adv-x="1798" 
d="M1558 485v78h-214v-78h214zM1231 168v258h-268q-19 0 -25 -6t-6 -25v-227q0 -19 6 -25t25 -6h237q19 0 25 6t6 25zM1231 485v78h-633v-87q10 9 32 9h601zM1818 622v-59h-148v-563h-112v426h-214v-270q0 -78 -78 -78h-364q-78 0 -78 78v251q0 13 1 19h-193q-20 0 -27 -7
t-7 -27v-392h-112v87q-10 -9 -32 -9h-283q-78 0 -78 78v251q0 78 78 78h265v-59h-199q-19 0 -25.5 -6t-6.5 -25v-227q0 -19 6.5 -25t25.5 -6h215q20 0 27 7.5t7 26.5v392h-506v59h1838z" />
    <glyph glyph-name="uni0915094D092F" horiz-adv-x="1715" 
d="M1476 175v388h-216q10 -8 10 -29v-147q0 -78 -78 -78h-253v-141q0 -19 6 -25t25 -6h465q23 0 32 8.5t9 29.5zM1736 622v-59h-149v-563h-111v93q-10 -15 -37 -15h-535q-78 0 -78 78v212h300q20 0 26 6t6 26v132q0 19 -6 25t-26 6h-528v-87q10 9 32 9h196v-59h-194
q-20 0 -27 -7t-7 -27v-392h-112v87q-10 -9 -32 -9h-283q-78 0 -78 78v251q0 78 78 78h265v-59h-199q-19 0 -25.5 -6t-6.5 -25v-227q0 -19 6.5 -25t25.5 -6h215q20 0 27 7.5t7 26.5v392h-506v59h1756z" />
    <glyph glyph-name="uni0915094D0932" horiz-adv-x="1848" 
d="M1607 485v78h-1009v-87q10 9 32 9h580q53 0 59 -39h4q8 39 50 39h284zM1869 622v-59h-149v-563h-113v426h-249q-19 0 -25 -6t-6 -25v-204h-112v204q0 19 -6.5 25t-26.5 6h-216q-19 0 -25 -6t-6 -25v-305q0 -19 6 -25t25 -6h220v-59h-286q-78 0 -78 78v329q0 13 1 19h-191
q-20 0 -27 -7t-7 -27v-392h-112v87q-10 -9 -32 -9h-283q-78 0 -78 78v251q0 78 78 78h265v-59h-199q-19 0 -25.5 -6t-6.5 -25v-227q0 -19 6.5 -25t25.5 -6h215q20 0 27 7.5t7 26.5v392h-506v59h1889z" />
    <glyph glyph-name="uni0915094D0935" horiz-adv-x="1486" 
d="M1246 171v392h-648v-87q10 9 32 9h566v-59h-234q-19 0 -25 -6t-6 -25v-227q0 -19 6 -25t25 -6h250q20 0 27 7.5t7 26.5zM1506 622v-59h-149v-563h-111v87q-10 -9 -32 -9h-317q-79 0 -79 78v251q0 13 1 19h-187q-20 0 -27 -7t-7 -27v-392h-112v87q-10 -9 -32 -9h-283
q-78 0 -78 78v251q0 78 78 78h265v-59h-199q-19 0 -25.5 -6t-6.5 -25v-227q0 -19 6.5 -25t25.5 -6h215q20 0 27 7.5t7 26.5v392h-506v59h1526z" />
    <glyph glyph-name="uni0915094D0936" horiz-adv-x="1832" 
d="M899 622h364q77 0 77 -78v-201q0 -78 -77 -78h-330v-175q0 -19 6 -25t25 -6h231q19 0 25.5 6t6.5 25v106h112v-118q0 -78 -78 -78h-363q-78 0 -78 78v293h113v-47h263q20 0 26 6t6 25v177q0 19 -6.5 25t-25.5 6h-231q-20 0 -26.5 -6t-6.5 -25v-106h-300q-20 0 -27 -7
t-7 -27v-392h-112v87q-10 -9 -32 -9h-283q-78 0 -78 78v251q0 78 78 78h265v-59h-199q-19 0 -25.5 -6t-6.5 -25v-227q0 -19 6.5 -25t25.5 -6h215q20 0 27 7.5t7 26.5v392h-506v59h679v-59h-61v-87q10 9 32 9h191v59q0 78 78 78zM1823 622v-59h-149v-563h-113v622h262z" />
    <glyph glyph-name="uni0915094D0938" horiz-adv-x="1805" 
d="M1564 339v224h-232q10 -7 10 -29v-176q0 -13 -1 -19h223zM932 339h266q19 0 25.5 6t6.5 25v162q0 19 -6 25t-26 6h-600v-87q10 9 32 9h302v-146zM1826 622v-59h-150v-563h-112v280h-632v-190q0 -19 6 -25t25 -6h234q19 0 25.5 6t6.5 25v124h112v-136q0 -78 -78 -78h-365
q-79 0 -79 78v348h-187q-20 0 -27 -7t-7 -27v-392h-112v87q-10 -9 -32 -9h-283q-78 0 -78 78v251q0 78 78 78h265v-59h-199q-19 0 -25.5 -6t-6.5 -25v-227q0 -19 6.5 -25t25.5 -6h215q20 0 27 7.5t7 26.5v392h-506v59h1846z" />
    <glyph glyph-name="uni0916094D0916" horiz-adv-x="2401" 
d="M2420 622v-59h-148v-563h-111v134q-10 -14 -36 -14h-314q-77 0 -77 78v179q0 78 77 78h305v-59h-247q-19 0 -25.5 -6t-6.5 -25v-156q0 -18 6.5 -24.5t25.5 -6.5h253q21 0 30 8.5t9 29.5v347h-569v-247q0 -77 -78 -77h-265v-149q0 -19 6.5 -25t25.5 -6h391v-59h-459
q-77 0 -77 78v45q-12 -3 -30 -3h-321q-77 0 -77 78v196q0 77 77 77h305v-59h-247q-20 0 -26 -6t-6 -25v-171q0 -19 6.5 -25t25.5 -6h259q19 0 26.5 7.5t7.5 25.5v258h113v-172h201q20 0 25.5 6t5.5 25v234h-915v-247q0 -77 -78 -77h-265v-149q0 -19 6.5 -25t25.5 -6h391v-59
h-459q-77 0 -77 78v392h113v-172h201q20 0 25.5 6t5.5 25v234h-475v59h2440z" />
    <glyph glyph-name="uni0916094D0924" horiz-adv-x="1809" 
d="M1829 622v-59h-148v-563h-113v426h-307q-19 0 -25 -6t-6 -25v-305q0 -19 6 -25t25 -6h133v-59h-198q-79 0 -79 78v45q-12 -3 -30 -3h-302q-77 0 -77 78v196q0 77 77 77h287v-59h-229q-20 0 -26 -6t-6 -25v-171q0 -19 6.5 -25t25.5 -6h240q19 0 26.5 7.5t7.5 25.5v195
q0 78 79 78h372v78h-1002v-247q0 -77 -78 -77h-265v-149q0 -19 6.5 -25t25.5 -6h391v-59h-459q-77 0 -77 78v392h113v-172h201q20 0 25.5 6t5.5 25v234h-475v59h1849z" />
    <glyph glyph-name="uni0916094D092E" horiz-adv-x="2109" 
d="M1868 485v78h-213v-78h213zM1542 168v258h-268q-19 0 -25 -6t-6 -25v-227q0 -19 6 -25t25 -6h237q19 0 25 6t6 25zM2129 622v-59h-148v-563h-113v426h-213v-270q0 -78 -79 -78h-363q-61 0 -74 47q-15 -5 -34 -5h-320q-77 0 -77 78v196q0 77 77 77h305v-59h-247
q-20 0 -26 -6t-6 -25v-171q0 -19 6.5 -25t25.5 -6h258q19 0 26.5 7.5t7.5 25.5v195q0 78 78 78h329v78h-976v-247q0 -77 -78 -77h-265v-149q0 -19 6.5 -25t25.5 -6h391v-59h-459q-77 0 -77 78v392h113v-172h201q20 0 25.5 6t5.5 25v234h-475v59h2149z" />
    <glyph glyph-name="uni0916094D092F" horiz-adv-x="2025" 
d="M1784 175v388h-215q10 -8 10 -29v-147q0 -78 -78 -78h-254v-141q0 -19 6.5 -25t25.5 -6h465q22 0 31 8.5t9 29.5zM2045 622v-59h-149v-563h-112v91q-10 -13 -36 -13h-535q-61 0 -74 47q-15 -5 -34 -5h-320q-77 0 -77 78v196q0 77 77 77h305v-59h-247q-20 0 -26 -6t-6 -25
v-171q0 -19 6.5 -25t25.5 -6h258q19 0 26.5 7.5t7.5 25.5v156h300q19 0 25.5 6t6.5 26v132q0 19 -6 25t-26 6h-869v-247q0 -77 -78 -77h-265v-149q0 -19 6.5 -25t25.5 -6h391v-59h-459q-77 0 -77 78v392h113v-172h201q20 0 25.5 6t5.5 25v234h-475v59h2065z" />
    <glyph glyph-name="uni0916094D0935" horiz-adv-x="1801" 
d="M1821 622v-59h-148v-563h-112v87q-11 -9 -32 -9h-317q-61 0 -74 46q-12 -4 -33 -4h-320q-77 0 -77 78v196q0 77 77 77h305v-59h-247q-20 0 -26 -6t-6 -25v-171q0 -19 6.5 -25t25.5 -6h258q29 0 33 21v207q0 78 78 78h299v-59h-233q-19 0 -25.5 -6t-6.5 -25v-227
q0 -19 6.5 -25t25.5 -6h249q19 0 26.5 7.5t7.5 26.5v392h-995v-247q0 -77 -78 -77h-265v-149q0 -19 6.5 -25t25.5 -6h391v-59h-459q-77 0 -77 78v392h113v-172h201q20 0 25.5 6t5.5 25v234h-475v59h1841z" />
    <glyph glyph-name="uni0916094D0936" horiz-adv-x="2116" 
d="M223 239v-149q0 -19 6.5 -25t25.5 -6h391v-59h-459q-77 0 -77 78v392h113v-172h201q20 0 25.5 6t5.5 25v234h-475v59h932v-59h-346v-247q0 -77 -78 -77h-265zM1213 622h363q78 0 78 -78v-201q0 -78 -78 -78h-330v-175q0 -19 6.5 -25t25.5 -6h231q19 0 25 6t6 25v106h113
v-118q0 -78 -78 -78h-363q-78 0 -78 78v45q-12 -3 -29 -3h-320q-77 0 -77 78v196q0 77 77 77h305v-59h-247q-20 0 -26 -6t-6 -25v-171q0 -19 6.5 -25t25.5 -6h258q29 0 33 21v173h112v-49h264q19 0 25.5 6t6.5 25v177q0 19 -6.5 25t-25.5 6h-231q-20 0 -26.5 -6t-6.5 -25
v-84h-111v96q0 78 78 78zM2136 622v-59h-148v-563h-113v622h261z" />
    <glyph glyph-name="uni0917094D0917" horiz-adv-x="1846" 
d="M961 137h290q19 0 25 6t6 25v199h-321q-19 0 -25.5 -6t-6.5 -25v-168q0 -19 6.5 -25t25.5 -6zM221 137h290q19 0 25 6t6 25v199h-321q-19 0 -25.5 -6t-6.5 -25v-168q0 -19 6.5 -25t25.5 -6zM1866 622v-59h-149v-563h-112v563h-211v-407q0 -78 -78 -78h-415q-78 0 -78 78
v192q0 78 78 78h381v137h-628v-407q0 -78 -78 -78h-415q-78 0 -78 78v192q0 78 78 78h381v137h-562v59h1886z" />
    <glyph glyph-name="uni0917094D0918" horiz-adv-x="1632" 
d="M1392 171v392h-399q-19 0 -25 -5.5t-6 -25.5v-123q0 -19 6 -25t25 -6h197v-59h-197q-19 0 -25 -5.5t-6 -25.5v-120q0 -19 6 -25t25 -6h365q20 0 27 7.5t7 26.5zM221 137h290q19 0 25 6t6 25v199h-321q-19 0 -25.5 -6t-6.5 -25v-168q0 -19 6.5 -25t25.5 -6zM1653 622v-59
h-149v-563h-112v87q-10 -9 -32 -9h-432q-79 0 -79 78v137q0 50 46 53v4q-46 3 -46 52v132q0 22 10 29h-205v-407q0 -78 -78 -78h-415q-78 0 -78 78v192q0 78 78 78h381v137h-562v59h1673z" />
    <glyph glyph-name="uni0917094D091C" horiz-adv-x="1816" 
d="M221 137h290q19 0 25 6t6 25v199h-321q-19 0 -25.5 -6t-6.5 -25v-168q0 -19 6.5 -25t25.5 -6zM1836 622v-59h-149v-563h-112v426h-211v-270q0 -78 -78 -78h-357q-78 0 -78 78v329h110v-317q0 -19 6.5 -25t25.5 -6h229q19 0 25.5 6t6.5 25v317h321v78h-921v-407
q0 -78 -78 -78h-415q-78 0 -78 78v192q0 78 78 78h381v137h-562v59h1856z" />
    <glyph glyph-name="uni0917094D0923" horiz-adv-x="1833" 
d="M1255 168v395h-297v-395q0 -19 6.5 -25t25.5 -6h233q19 0 25.5 6t6.5 25zM221 137h290q19 0 25 6t6 25v199h-321q-19 0 -25.5 -6t-6.5 -25v-168q0 -19 6.5 -25t25.5 -6zM1853 622v-59h-148v-563h-112v563h-231v-407q0 -78 -77 -78h-356q-79 0 -79 78v407h-196v-407
q0 -78 -78 -78h-415q-78 0 -78 78v192q0 78 78 78h381v137h-562v59h1873z" />
    <glyph glyph-name="uni0917094D0926" horiz-adv-x="1495" 
d="M221 137h290q19 0 25 6t6 25v199h-321q-19 0 -25.5 -6t-6.5 -25v-168q0 -19 6.5 -25t25.5 -6zM1358 426h-382q-19 0 -25.5 -6t-6.5 -25v-227q0 -19 6.5 -25t25.5 -6h245q19 0 26.5 7.5t7.5 26.5v95h113v-266h-113v87q-11 -9 -32 -9h-313q-78 0 -78 78v251q0 78 78 78h336
v78h-592v-407q0 -78 -78 -78h-415q-78 0 -78 78v192q0 78 78 78h381v137h-562v59h1535v-59h-157v-137z" />
    <glyph glyph-name="uni0917094D0927" horiz-adv-x="1796" 
d="M221 137h290q19 0 25 6t6 25v199h-321q-19 0 -25.5 -6t-6.5 -25v-168q0 -19 6.5 -25t25.5 -6zM-20 563v59h778v-59h-104v-407q0 -78 -78 -78h-415q-78 0 -78 78v192q0 78 78 78h381v137h-562zM1816 622v-59h-148v-563h-112v87q-10 -9 -32 -9h-578q-78 0 -78 78v117
q0 48 45 51v4q-45 3 -45 53v163q0 78 78 78h343q78 0 78 -78v-118h-99v106q0 19 -6 25t-25 6h-225q-19 0 -25.5 -6t-6.5 -25v-142q0 -19 6 -25t26 -6h150v-59h-150q-20 0 -26 -6t-6 -26v-100q0 -19 6.5 -25t25.5 -6h510q20 0 27 7.5t7 26.5v451h260z" />
    <glyph glyph-name="uni0917094D092C" horiz-adv-x="1569" 
d="M974 137h320q8 0 11 1l-366 248q4 -60 4 -104v-114q0 -19 6 -25t25 -6zM221 137h290q19 0 25 6t6 25v199h-321q-19 0 -25.5 -6t-6.5 -25v-168q0 -19 6.5 -25t25.5 -6zM1589 622v-59h-148v-563h-113v87q-10 -9 -32 -9h-385q-78 0 -78 78v251q0 78 78 78h375v-59h-316
l366 -249q-8 47 -8 136v250h-674v-407q0 -78 -78 -78h-415q-78 0 -78 78v192q0 78 78 78h381v137h-562v59h1609z" />
    <glyph glyph-name="uni0917094D092D" horiz-adv-x="1845" 
d="M221 137h290q19 0 25 6t6 25v199h-321q-19 0 -25.5 -6t-6.5 -25v-168q0 -19 6.5 -25t25.5 -6zM-20 563v59h778v-59h-104v-407q0 -78 -78 -78h-415q-78 0 -78 78v192q0 78 78 78h381v137h-562zM1280 167v144h-269q-19 0 -25.5 -6.5t-6.5 -25.5v-112q0 -18 6.5 -24.5
t25.5 -6.5h237q19 0 25.5 6.5t6.5 24.5zM1866 622v-59h-149v-563h-112v311h-213v-155q0 -78 -78 -78h-364q-78 0 -78 78v136q0 78 78 78h330v162q0 19 -6.5 25t-25.5 6h-231q-19 0 -25 -6t-6 -25v-87h-113v99q0 78 79 78h362q78 0 78 -78v-174h213v252h261z" />
    <glyph glyph-name="uni0917094D092E" horiz-adv-x="1823" 
d="M1583 485v78h-214v-78h214zM1256 168v258h-268q-19 0 -25 -6t-6 -25v-227q0 -19 6 -25t25 -6h237q19 0 25 6t6 25zM221 137h290q19 0 25 6t6 25v199h-321q-19 0 -25.5 -6t-6.5 -25v-168q0 -19 6.5 -25t25.5 -6zM1843 622v-59h-148v-563h-112v426h-214v-270q0 -78 -78 -78
h-364q-78 0 -78 78v251q0 78 78 78h329v78h-602v-407q0 -78 -78 -78h-415q-78 0 -78 78v192q0 78 78 78h381v137h-562v59h1863z" />
    <glyph glyph-name="uni0917094D092F" horiz-adv-x="1704" 
d="M1464 175v388h-216q10 -8 10 -29v-147q0 -78 -78 -78h-253v-141q0 -19 6 -25t25 -6h465q23 0 32 8.5t9 29.5zM221 137h290q19 0 25 6t6 25v199h-321q-19 0 -25.5 -6t-6.5 -25v-168q0 -19 6.5 -25t25.5 -6zM1724 622v-59h-149v-563h-111v93q-10 -15 -37 -15h-535
q-78 0 -78 78v212h300q20 0 26 6t6 26v132q0 19 -6 25t-26 6h-460v-407q0 -78 -78 -78h-415q-78 0 -78 78v192q0 78 78 78h381v137h-562v59h1744z" />
    <glyph glyph-name="uni0917094D0932" horiz-adv-x="1878" 
d="M221 137h290q19 0 25 6t6 25v199h-321q-19 0 -25.5 -6t-6.5 -25v-168q0 -19 6.5 -25t25.5 -6zM1898 622v-59h-149v-563h-113v426h-249q-19 0 -25 -6t-6 -25v-204h-112v204q0 19 -6.5 25t-26.5 6h-216q-19 0 -25 -6t-6 -25v-305q0 -19 6 -25t25 -6h220v-59h-286
q-78 0 -78 78v329q0 78 78 78h310q53 0 59 -39h4q8 39 50 39h284v78h-982v-407q0 -78 -78 -78h-415q-78 0 -78 78v192q0 78 78 78h381v137h-562v59h1918z" />
    <glyph glyph-name="uni0917094D0935" horiz-adv-x="1508" 
d="M221 137h290q19 0 25 6t6 25v199h-321q-19 0 -25.5 -6t-6.5 -25v-168q0 -19 6.5 -25t25.5 -6zM1528 622v-59h-149v-563h-111v87q-10 -9 -32 -9h-317q-79 0 -79 78v251q0 78 79 78h299v-59h-234q-19 0 -25 -6t-6 -25v-227q0 -19 6 -25t25 -6h250q20 0 27 7.5t7 26.5v392
h-614v-407q0 -78 -78 -78h-415q-78 0 -78 78v192q0 78 78 78h381v137h-562v59h1548z" />
    <glyph glyph-name="uni0917094D0938" horiz-adv-x="1836" 
d="M1595 339v224h-232q10 -7 10 -29v-176q0 -13 -1 -19h223zM221 137h290q19 0 25 6t6 25v199h-321q-19 0 -25.5 -6t-6.5 -25v-168q0 -19 6.5 -25t25.5 -6zM1857 622v-59h-150v-563h-112v280h-632v-190q0 -19 6 -25t25 -6h234q19 0 25.5 6t6.5 25v124h112v-136
q0 -78 -78 -78h-365q-79 0 -79 78v398h113v-137h266q19 0 25.5 6t6.5 25v162q0 19 -6 25t-26 6h-575v-407q0 -78 -78 -78h-415q-78 0 -78 78v192q0 78 78 78h381v137h-562v59h1877z" />
    <glyph glyph-name="uni0918094D092E" horiz-adv-x="1624" 
d="M1384 485v78h-214v-78h214zM1057 168v258h-268q-19 0 -25 -6t-6 -25v-227q0 -19 6 -25t25 -6h237q19 0 25 6t6 25zM650 170v237q0 78 78 78h329v78h-803q-20 0 -25.5 -5.5t-5.5 -25.5v-123q0 -19 5.5 -25t25.5 -6h197v-59h-197q-20 0 -25.5 -5.5t-5.5 -25.5v-120
q0 -19 6 -25t25 -6h362q19 0 26.5 7.5t7.5 25.5zM1644 622v-59h-148v-563h-112v426h-214v-270q0 -78 -78 -78h-364q-36 0 -55 16q-16 -16 -53 -16h-431q-79 0 -79 78v137q0 50 46 53v4q-46 3 -46 52v132q0 22 10 29h-140v59h1664z" />
    <glyph glyph-name="uni0918094D092F" horiz-adv-x="1540" 
d="M1300 175v388h-216q10 -8 10 -29v-147q0 -78 -78 -78h-253v-141q0 -19 6 -25t25 -6h465q23 0 32 8.5t9 29.5zM254 137h362q19 0 26.5 7.5t7.5 25.5v198h300q20 0 26 6t6 26v132q0 19 -6 25t-26 6h-696q-20 0 -25.5 -5.5t-5.5 -25.5v-123q0 -19 5.5 -25t25.5 -6h197v-59
h-197q-20 0 -25.5 -5.5t-5.5 -25.5v-120q0 -19 6 -25t25 -6zM1560 622v-59h-149v-563h-111v93q-10 -15 -37 -15h-535q-36 0 -55 16q-16 -16 -53 -16h-431q-79 0 -79 78v137q0 50 46 53v4q-46 3 -46 52v132q0 22 10 29h-140v59h1580z" />
    <glyph glyph-name="uni091A094D091A" horiz-adv-x="1324" 
d="M1344 622v-59h-151v-563h-112v87q-11 -9 -32 -9h-377q-36 0 -55 16q-16 -16 -53 -16h-370q-78 0 -78 78v241q0 22 10 29h-94v59h383v-59h-157q-18 0 -24 -6.5t-6 -24.5v-227q0 -19 6.5 -25t25.5 -6h300q19 0 26.5 7.5t7.5 25.5v227q0 22 10 29h-91v59h381v-59h-158
q-18 0 -23.5 -6.5t-5.5 -24.5v-227q0 -19 6 -25t25 -6h309q19 0 26.5 7.5t7.5 26.5v392h-1101v59h1364z" />
    <glyph glyph-name="uni091A094D091B" horiz-adv-x="1549" 
d="M1136 485v78h-389q-19 0 -25 -5.5t-6 -25.5v-162q0 -20 6 -25.5t25 -5.5h155v-59h-155q-19 0 -25 -6t-6 -25v-159q0 -19 6 -25t25 -6h559q19 0 25.5 6t6.5 25v305q0 19 -6.5 25t-25.5 6h-221q-19 0 -25.5 -6t-6.5 -25v-132q0 -19 6.5 -25t25.5 -6h113v-59h-171
q-79 0 -79 78v156q0 78 79 78h109zM1569 563h-323v-78h115q78 0 78 -78v-329q0 -78 -78 -78h-679q-79 0 -79 78v3q-12 -3 -30 -3h-379q-78 0 -78 78v241q0 22 10 29h-94v59h384v-59h-158q-18 0 -24 -6.5t-6 -24.5v-227q0 -19 6.5 -25t25.5 -6h309q19 0 26.5 7.5t7.5 25.5v84
q0 49 46 52v4q-46 3 -46 52v172q0 22 10 29h-633v59h1589v-59z" />
    <glyph glyph-name="uni091A094D092E" horiz-adv-x="1565" 
d="M1324 485v78h-214v-78h214zM997 168v258h-268q-19 0 -25 -6t-6 -25v-227q0 -19 6 -25t25 -6h237q19 0 25 6t6 25zM1584 622v-59h-148v-563h-112v426h-214v-270q0 -78 -78 -78h-364q-36 0 -55 15q-15 -15 -52 -15h-367q-78 0 -78 78v241q0 22 10 29h-94v59h384v-59h-158
q-18 0 -24 -6.5t-6 -24.5v-227q0 -19 6.5 -25t25.5 -6h297q29 0 33 21v249q0 78 78 78h329v78h-1017v59h1604z" />
    <glyph glyph-name="uni091A094D092F" horiz-adv-x="1480" 
d="M1240 175v388h-216q10 -8 10 -29v-147q0 -78 -78 -78h-253v-141q0 -19 6 -25t25 -6h465q23 0 32 8.5t9 29.5zM1500 622v-59h-149v-563h-111v93q-10 -15 -37 -15h-535q-36 0 -55 16q-16 -16 -53 -16h-366q-78 0 -78 78v241q0 22 10 29h-94v59h384v-59h-158q-18 0 -24 -6.5
t-6 -24.5v-227q0 -19 6.5 -25t25.5 -6h296q19 0 26.5 7.5t7.5 25.5v198h300q20 0 26 6t6 26v132q0 19 -6 25t-26 6h-910v59h1520z" />
    <glyph glyph-name="uni091B094D092F" horiz-adv-x="2019" 
d="M1778 175v388h-1522q-20 0 -25.5 -5.5t-5.5 -25.5v-162q0 -20 5.5 -25.5t25.5 -5.5h155v-59h-155q-20 0 -25.5 -6t-5.5 -25v-159q0 -19 6 -25t25 -6h559q19 0 25.5 6t6.5 25v305q0 19 -6.5 25t-25.5 6h-221q-19 0 -25.5 -6t-6.5 -25v-132q0 -19 6.5 -25t25.5 -6h113v-59
h-171q-79 0 -79 78v156q0 78 79 78h958q79 0 79 -78v-75q0 -79 -79 -79h-251v-85q0 -19 6 -25t25 -6h465q21 0 30 8.5t9 29.5zM2039 622v-59h-149v-563h-112v91q-10 -13 -36 -13h-532q-78 0 -78 78v156h297q19 0 25.5 6.5t6.5 25.5v51q0 19 -6.5 25t-25.5 6h-482q1 -6 1 -19
v-329q0 -78 -78 -78h-679q-79 0 -79 78v176q0 49 46 52v4q-46 3 -46 52v172q0 22 10 29h-142v59h2059z" />
    <glyph glyph-name="uni091B094D0935" horiz-adv-x="1060" 
d="M677 485v78h-421q-20 0 -25.5 -5.5t-5.5 -25.5v-162q0 -20 5.5 -25.5t25.5 -5.5h155v-59h-155q-20 0 -25.5 -6t-5.5 -25v-131q0 -20 5.5 -25.5t25.5 -5.5h560q20 0 26.5 6t6.5 25v277q0 19 -6.5 25t-26.5 6h-221q-19 0 -25.5 -6t-6.5 -25v-108q0 -19 6.5 -25t25.5 -6h114
v-59h-172q-78 0 -78 79v131q0 78 78 78h140zM427 -128h218q19 0 26.5 7t7.5 27v122h-252q-19 0 -25.5 -6t-6.5 -26v-93q0 -19 6 -25t26 -6zM1080 563h-299v-78h90q79 0 79 -78v-301q0 -78 -79 -78h-92v-256h-100v50q-11 -9 -32 -9h-282q-78 0 -78 77v109q0 22 10 29h-106
q-79 0 -79 78v148q0 49 46 52v4q-46 3 -46 52v172q0 22 10 29h-142v59h1100v-59z" />
    <glyph glyph-name="uni091C094D0915" horiz-adv-x="1805" 
d="M1825 563h-505v-87q10 9 32 9h282q79 0 79 -78v-251q0 -78 -79 -78h-264v59h199q19 0 25 6t6 25v227q0 19 -6 25t-25 6h-215q-20 0 -27 -7t-7 -27v-392h-112v87q-10 -9 -32 -9h-283q-78 0 -78 78v251q0 13 1 19h-193v-270q0 -78 -78 -78h-357q-78 0 -78 78v329h110v-317
q0 -19 6.5 -25t25.5 -6h229q19 0 25.5 6t6.5 25v317h645v-59h-199q-19 0 -25.5 -6t-6.5 -25v-227q0 -19 6.5 -25t25.5 -6h215q20 0 27 7.5t7 26.5v392h-1228v59h1845v-59z" />
    <glyph glyph-name="uni091C094D091C" horiz-adv-x="1796" 
d="M1816 622v-59h-149v-563h-112v426h-211v-270q0 -78 -78 -78h-357q-78 0 -78 78v270h-208v-270q0 -78 -78 -78h-357q-78 0 -78 78v329h110v-317q0 -19 6.5 -25t25.5 -6h229q19 0 25.5 6t6.5 25v317h428v-317q0 -19 6.5 -25t25.5 -6h229q19 0 25.5 6t6.5 25v317h321v78
h-1575v59h1836z" />
    <glyph glyph-name="uni091C094D091D" horiz-adv-x="1818" 
d="M1577 331v232h-207v-137h-407q-20 0 -26 -6t-6 -25v-33q0 -19 6 -25t26 -6h614zM1838 622v-59h-149v-563h-112v272h-208q1 -6 1 -19v-97q0 -78 -77 -78h-365v-78h-114v190h114v-53h298q20 0 26.5 6t6.5 25v72q0 19 -6.5 25.5t-26.5 6.5h-329q-78 0 -78 78v57q0 13 1 19
h-197v-270q0 -78 -78 -78h-357q-78 0 -78 78v329h110v-317q0 -19 6.5 -25t25.5 -6h229q19 0 25.5 6t6.5 25v317h746v78h-1279v59h1858z" />
    <glyph glyph-name="uni091C094D091F" horiz-adv-x="1464" 
d="M1327 426h-366q-19 0 -25 -6t-6 -25v-305q0 -19 6 -25t25 -6h252q19 0 25 6t6 25v154h113v-166q0 -78 -79 -78h-382q-79 0 -79 78v329q0 13 1 19h-195v-270q0 -78 -78 -78h-357q-78 0 -78 78v329h110v-317q0 -19 6.5 -25t25.5 -6h229q19 0 25.5 6t6.5 25v317h702v78
h-1235v59h1504v-59h-157v-137z" />
    <glyph glyph-name="uni091C094D0921" horiz-adv-x="1443" 
d="M1320 426h-363q-20 0 -26 -6t-6 -25v-53q0 -19 6 -25t26 -6h308q79 0 79 -78v-155q0 -78 -79 -78h-371q-78 0 -78 78v95h112v-83q0 -19 6.5 -25t25.5 -6h239q20 0 26 6t6 25v130q0 20 -6.5 26t-25.5 6h-308q-78 0 -78 78v77q0 13 1 19h-191v-270q0 -78 -78 -78h-357
q-78 0 -78 78v329h110v-317q0 -19 6.5 -25t25.5 -6h229q19 0 25.5 6t6.5 25v317h695v78h-1228v59h1484v-59h-144v-137z" />
    <glyph glyph-name="uni091C094D0924" horiz-adv-x="1505" 
d="M1526 622v-59h-149v-563h-112v426h-307q-19 0 -25 -6t-6 -25v-305q0 -19 6 -25t25 -6h133v-59h-199q-78 0 -78 78v329q0 13 1 19h-192v-270q0 -78 -78 -78h-357q-78 0 -78 78v329h110v-317q0 -19 6.5 -25t25.5 -6h229q19 0 25.5 6t6.5 25v317h752v78h-1285v59h1546z" />
    <glyph glyph-name="uni091C094D0926" horiz-adv-x="1474" 
d="M1337 426h-382q-19 0 -25.5 -6t-6.5 -25v-227q0 -19 6.5 -25t25.5 -6h245q20 0 27 7.5t7 26.5v95h113v-266h-113v87q-11 -9 -32 -9h-313q-78 0 -78 78v251q0 13 1 19h-189v-270q0 -78 -78 -78h-357q-78 0 -78 78v329h110v-317q0 -19 6.5 -25t25.5 -6h229q19 0 25.5 6
t6.5 25v317h712v78h-1245v59h1514v-59h-157v-137z" />
    <glyph glyph-name="uni091C094D092C" horiz-adv-x="1553" 
d="M958 137h320q8 0 11 1l-366 248q4 -60 4 -104v-114q0 -19 6 -25t25 -6zM1573 622v-59h-148v-563h-113v87q-10 -9 -32 -9h-385q-78 0 -78 78v251q0 13 1 19h-195v-270q0 -78 -78 -78h-357q-78 0 -78 78v329h110v-317q0 -19 6.5 -25t25.5 -6h229q19 0 25.5 6t6.5 25v317
h757v-59h-316l366 -249q-8 47 -8 136v250h-1332v59h1593z" />
    <glyph glyph-name="uni091C094D092E" horiz-adv-x="1787" 
d="M1547 485v78h-214v-78h214zM1220 168v258h-268q-19 0 -25 -6t-6 -25v-227q0 -19 6 -25t25 -6h237q19 0 25 6t6 25zM1807 622v-59h-148v-563h-112v426h-214v-270q0 -78 -78 -78h-364q-78 0 -78 78v251q0 13 1 19h-191v-270q0 -78 -78 -78h-357q-78 0 -78 78v329h110v-317
q0 -19 6.5 -25t25.5 -6h229q19 0 25.5 6t6.5 25v317h707v78h-1240v59h1827z" />
    <glyph glyph-name="uni091C094D092F" horiz-adv-x="1730" 
d="M840 426h-217v-270q0 -78 -78 -78h-357q-78 0 -78 78v329h110v-317q0 -19 6.5 -25t25.5 -6h229q19 0 25.5 6t6.5 25v317h327v-59zM1489 175v388h-215q10 -8 10 -29v-147q0 -78 -78 -78h-254v-141q0 -19 6.5 -25t25.5 -6h465q22 0 31 8.5t9 29.5zM1750 622v-59h-149v-563
h-112v91q-10 -13 -36 -13h-535q-78 0 -78 78v212h300q20 0 26 6t6 26v132q0 19 -6 25t-26 6h-1160v59h1770z" />
    <glyph glyph-name="uni091C094D0935" horiz-adv-x="1504" 
d="M1524 622v-59h-149v-563h-111v87q-10 -9 -32 -9h-317q-79 0 -79 78v251q0 13 1 19h-214v-270q0 -78 -78 -78h-357q-78 0 -78 78v329h110v-317q0 -19 6.5 -25t25.5 -6h229q19 0 25.5 6t6.5 25v317h701v-59h-234q-19 0 -25 -6t-6 -25v-227q0 -19 6 -25t25 -6h250
q20 0 27 7.5t7 26.5v392h-1284v59h1544z" />
    <glyph glyph-name="uni091D094D092E" horiz-adv-x="1841" 
d="M1601 485v78h-214v-78h214zM1274 168v258h-268q-19 0 -25 -6t-6 -25v-227q0 -19 6 -25t25 -6h237q19 0 25 6t6 25zM867 331v76q0 78 78 78h329v78h-621v-137h-407q-20 0 -25.5 -6t-5.5 -25v-33q0 -20 5.5 -25.5t25.5 -5.5h621zM1861 622v-59h-148v-563h-112v426h-214
v-270q0 -78 -78 -78h-364q-78 0 -78 78v116h-213q1 -6 1 -19v-97q0 -78 -78 -78h-366v-78h-114v190h114v-53h300q20 0 26 6t6 25v72q0 20 -6.5 26t-25.5 6h-331q-78 0 -78 78v57q0 78 78 78h362v78h-562v59h1881z" />
    <glyph glyph-name="uni091D094D092F" horiz-adv-x="1752" 
d="M1512 175v388h-216q10 -8 10 -29v-147q0 -78 -78 -78h-253v-141q0 -19 6 -25t25 -6h465q23 0 32 8.5t9 29.5zM862 331v37h300q20 0 26 6t6 26v132q0 19 -6 25t-26 6h-509v-137h-407q-20 0 -25.5 -6t-5.5 -25v-33q0 -20 5.5 -25.5t25.5 -5.5h616zM1772 622v-59h-149v-563
h-111v93q-10 -15 -37 -15h-535q-78 0 -78 78v116h-208q1 -6 1 -19v-97q0 -78 -78 -78h-366v-78h-114v190h114v-53h300q20 0 26 6t6 25v72q0 20 -6.5 26t-25.5 6h-331q-78 0 -78 78v57q0 78 78 78h362v78h-562v59h1792z" />
    <glyph glyph-name="uni091E094D091B" horiz-adv-x="1756" 
d="M1343 485v78h-389q-20 0 -25.5 -5.5t-5.5 -25.5v-162q0 -20 5.5 -25.5t25.5 -5.5h155v-59h-155q-20 0 -25.5 -6t-5.5 -25v-159q0 -19 6 -25t25 -6h559q19 0 25.5 6t6.5 25v305q0 19 -6.5 25t-25.5 6h-221q-19 0 -25.5 -6t-6.5 -25v-132q0 -19 6.5 -25t25.5 -6h113v-59
h-171q-79 0 -79 78v156q0 78 79 78h109zM1776 563h-323v-78h115q78 0 78 -78v-329q0 -78 -78 -78h-679q-79 0 -79 78v169h-215v-91q0 -78 -77 -78h-381q-78 0 -78 78v113h113v-101q0 -19 6 -25t25 -6h249q19 0 25.5 6t6.5 25v227q0 19 -6.5 25t-25.5 6h-218v59h284
q77 0 77 -78v-101h261v4q-46 3 -46 52v172q0 22 10 29h-840v59h1796v-59z" />
    <glyph glyph-name="uni091E094D091C" horiz-adv-x="1769" 
d="M1789 622v-59h-149v-563h-112v426h-211v-270q0 -78 -78 -78h-357q-78 0 -78 78v103h-209v-103q0 -78 -77 -78h-381q-78 0 -78 78v113h113v-101q0 -19 6 -25t25 -6h249q19 0 25.5 6t6.5 25v227q0 19 -6.5 25t-25.5 6h-218v59h284q77 0 77 -78v-89h209v167h110v-317
q0 -19 6.5 -25t25.5 -6h229q19 0 25.5 6t6.5 25v317h321v78h-1548v59h1809z" />
    <glyph glyph-name="uni091E094D0936" horiz-adv-x="1787" 
d="M595 622v-59h-615v59h615zM884 622h363q78 0 78 -78v-201q0 -78 -78 -78h-330v-175q0 -19 6.5 -25t25.5 -6h231q19 0 25 6t6 25v106h113v-118q0 -78 -79 -78h-362q-78 0 -78 78v187h-210v-109q0 -78 -77 -78h-381q-78 0 -78 78v113h113v-101q0 -19 6 -25t25 -6h249
q19 0 25.5 6t6.5 25v227q0 19 -6.5 25t-25.5 6h-218v59h284q77 0 77 -78v-83h210v49h112v-49h264q19 0 25.5 6t6.5 25v177q0 19 -6.5 25t-25.5 6h-232q-19 0 -25.5 -6t-6.5 -25v-84h-112v96q0 78 79 78zM1807 622v-59h-148v-563h-113v622h261z" />
    <glyph glyph-name="uni091F094D091F" horiz-adv-x="774" 
d="M639 426h-384q-19 0 -25 -6t-6 -25v-124q0 -19 6 -25t25 -6h258q19 0 25 6t6 25v58h113v-71q0 -62 -50 -74v-138h-352q-19 0 -25 -6t-6 -25v-124q0 -19 6 -25t25 -6h258q19 0 25 6t6 25v59h113v-71q0 -78 -79 -78h-388q-79 0 -79 78v148q0 78 79 78h306v76h-306
q-79 0 -79 77v149q0 78 79 78h337v78h-547v59h814v-59h-155v-137z" />
    <glyph glyph-name="uni091F094D0920" horiz-adv-x="782" 
d="M545 -93v108q0 19 -6 25t-25 6h-261q-19 0 -25 -6t-6 -25v-108q0 -20 6 -26t25 -6h261q19 0 25 6t6 26zM639 426h-384q-19 0 -25 -6t-6 -25v-124q0 -19 6 -25t25 -6h258q19 0 25 6t6 25v58h113v-71q0 -77 -79 -77h-140v-77h140q79 0 79 -78v-131q0 -78 -79 -78h-388
q-80 0 -80 78v131q0 78 80 78h140v77h-140q-79 0 -79 77v149q0 78 79 78h337v78h-547v59h822v-59h-163v-137z" />
    <glyph glyph-name="uni091F094D092F" horiz-adv-x="1703" 
d="M1462 175v388h-842v-78h559q78 0 78 -78v-75q0 -79 -78 -79h-252v-85q0 -19 6 -25t25 -6h465q22 0 30.5 8.5t8.5 29.5zM1723 622v-59h-148v-563h-113v90q-9 -12 -35 -12h-533q-78 0 -78 78v156h297q19 0 25.5 6.5t6.5 25.5v51q0 19 -6.5 25t-25.5 6h-859q-19 0 -25 -6
t-6 -25v-305q0 -19 6 -25t25 -6h252q19 0 25 6t6 25v154h112v-166q0 -78 -78 -78h-382q-79 0 -79 78v329q0 78 79 78h319v78h-528v59h1743z" />
    <glyph glyph-name="uni091F094D0935" horiz-adv-x="772" 
d="M520 179h-268q-19 0 -25 -6t-6 -25v-87q0 -19 6 -25t25 -6h234q20 0 27 7t7 27v115zM632 426h-377q-19 0 -25.5 -6t-6.5 -25v-126q0 -19 6 -25t26 -6h261q20 0 25.5 6t5.5 25v57h113v-69q0 -56 -40 -72v-255h-100v50q-11 -9 -32 -9h-298q-79 0 -79 78v105q0 49 46 52v4
q-46 3 -46 52v145q0 78 80 78h329v78h-540v59h812v-59h-160v-137z" />
    <glyph glyph-name="uni0920094D092F" horiz-adv-x="1728" 
d="M1487 175v388h-1041v-78h758q78 0 78 -78v-75q0 -79 -78 -79h-252v-85q0 -19 6 -25t25 -6h465q22 0 30.5 8.5t8.5 29.5zM560 90v305q0 19 -6.5 25t-25.5 6h-276q-19 0 -25 -6t-6 -25v-305q0 -19 6 -25t25 -6h276q19 0 25.5 6t6.5 25zM1748 622v-59h-148v-563h-113v90
q-9 -12 -35 -12h-533q-78 0 -78 78v156h297q19 0 25.5 6.5t6.5 25.5v51q0 19 -6.5 25t-25.5 6h-469q1 -6 1 -19v-329q0 -78 -78 -78h-403q-79 0 -79 78v329q0 78 79 78h144v78h-353v59h1768z" />
    <glyph glyph-name="uni0921094D0921" horiz-adv-x="740" 
d="M617 426h-367q-20 0 -26 -6t-6 -25v-9q0 -20 6 -26t26 -6h313q77 0 77 -78v-64q0 -78 -77 -78h-310q-19 0 -25 -6t-6 -25v-9q0 -20 6 -26t25 -6h313q78 0 78 -78v-67q0 -77 -78 -77h-374q-79 0 -79 77v37h112v-24q0 -19 6 -25t26 -6h243q20 0 26 6t6 25v42q0 19 -6 25
t-26 6h-312q-79 0 -79 79v21q0 50 46 53v4q-46 2 -46 51v45h113v-31q0 -20 6 -26t25 -6h243q20 0 26 6.5t6 25.5v39q0 19 -6 25t-26 6h-312q-78 0 -78 78v34q0 78 78 78h320v78h-524v59h780v-59h-143v-137z" />
    <glyph glyph-name="uni0921094D0922" horiz-adv-x="740" 
d="M617 426h-367q-20 0 -26 -6t-6 -25v-12q0 -19 6 -25.5t26 -6.5h313q78 0 78 -78v-69q0 -78 -78 -78h-310q-19 0 -25 -6t-6 -25v-163q0 -20 6 -25.5t25 -5.5h245q20 0 25.5 5.5t5.5 25.5v36q0 19 -6 25t-25 6h-49v61h108q79 0 79 -78v-63q0 -77 -79 -77h-369q-79 0 -79 77
v179q0 49 46 51v4q-46 3 -46 52v43h113v-31q0 -20 6 -26t25 -6h244q19 0 25.5 6.5t6.5 25.5v43q0 20 -6.5 26t-25.5 6h-313q-78 0 -78 78v37q0 78 78 78h320v78h-524v59h780v-59h-143v-137z" />
    <glyph glyph-name="uni0921094D092F" horiz-adv-x="1698" 
d="M1457 175v388h-844v-78h560q79 0 79 -78v-75q0 -79 -79 -79h-251v-85q0 -19 6 -25t25 -6h465q21 0 30 8.5t9 29.5zM1718 622v-59h-148v-563h-113v91q-10 -13 -36 -13h-532q-78 0 -78 78v156h297q19 0 25.5 6.5t6.5 25.5v51q0 19 -6.5 25t-25.5 6h-858q-20 0 -26 -6
t-6 -25v-53q0 -19 6 -25t26 -6h308q79 0 79 -78v-155q0 -78 -79 -78h-371q-78 0 -78 78v95h112v-83q0 -19 6.5 -25t25.5 -6h240q19 0 25 5.5t6 25.5v130q0 20 -6 26t-25 6h-309q-78 0 -78 78v77q0 78 78 78h317v78h-521v59h1738z" />
    <glyph glyph-name="uni0921094D0935" horiz-adv-x="748" 
d="M250 -61h229q19 0 26.5 7.5t7.5 26.5v120h-263q-19 0 -25.5 -6t-6.5 -25v-92q0 -19 6 -25t26 -6zM622 426h-371q-19 0 -25 -6t-6 -25v-27q0 -20 6 -26.5t25 -6.5h318q78 0 78 -77v-87q0 -53 -34 -69v-260h-100v47q-11 -9 -32 -9h-293q-78 0 -78 77v112q0 48 46 50v4
q-46 3 -46 54v46h112v-40q0 -19 6.5 -25t25.5 -6h250q19 0 25 6t6 26v61q0 19 -5.5 25t-25.5 6h-319q-78 0 -78 79v52q0 78 78 78h324v78h-529v59h788v-59h-146v-137z" />
    <glyph glyph-name="uni0922094D092F" horiz-adv-x="1742" 
d="M1501 175v388h-879v-78h595q78 0 78 -78v-75q0 -79 -78 -79h-252v-85q0 -19 6.5 -25t25.5 -6h464q22 0 31 8.5t9 29.5zM1762 622v-59h-149v-563h-112v91q-10 -13 -36 -13h-532q-79 0 -79 78v156h297q19 0 26 6.5t7 25.5v51q0 19 -6.5 25t-26.5 6h-897q-19 0 -25 -6
t-6 -25v-305q0 -19 6 -25t25 -6h281q19 0 25 6t6 25v110q0 19 -6 25t-25 6h-154v59h214q78 0 78 -78v-134q0 -78 -78 -78h-406q-79 0 -79 78v329q0 78 79 78h320v78h-529v59h1782z" />
    <glyph glyph-name="uni0923094D091F" horiz-adv-x="1480" 
d="M515 168v395h-297v-395q0 -19 6.5 -25t25.5 -6h233q19 0 25.5 6t6.5 25zM1343 426h-366q-19 0 -25 -6t-6 -25v-305q0 -19 6 -25t25 -6h252q19 0 25 6t6 25v154h113v-166q0 -78 -79 -78h-382q-79 0 -79 78v329q0 78 79 78h319v78h-609v-407q0 -78 -77 -78h-356
q-79 0 -79 78v407h-130v59h1520v-59h-157v-137z" />
    <glyph glyph-name="uni0923094D0920" horiz-adv-x="1503" 
d="M1283 90v305q0 19 -6.5 25t-25.5 6h-276q-19 0 -25 -6t-6 -25v-305q0 -19 6 -25t25 -6h276q19 0 25.5 6t6.5 25zM515 168v395h-297v-395q0 -19 6.5 -25t25.5 -6h233q19 0 25.5 6t6.5 25zM1523 563h-354v-78h146q78 0 78 -78v-329q0 -78 -78 -78h-403q-79 0 -79 78v329
q0 78 79 78h144v78h-434v-407q0 -78 -77 -78h-356q-79 0 -79 78v407h-130v59h1543v-59z" />
    </font>
</defs>
</svg>
