<?xml version="1.0" standalone="no"?>
<!DOCTYPE svg PUBLIC "-//W3C//DTD SVG 1.1//EN" "http://www.w3.org/Graphics/SVG/1.1/DTD/svg11.dtd" >
<svg xmlns="http://www.w3.org/2000/svg" xmlns:xlink="http://www.w3.org/1999/xlink" version="1.1">
<metadata>
Created by FontForge 20201107 at Fri May  5 14:18:59 2017
 By www-data
Copyright (c) 2014 Indian Type Foundry (info@indiantypefoundry.com)
</metadata>
<defs>
<font id="Sarpanch-ExtraBold" horiz-adv-x="372" >
  <font-face 
    font-family="Sarpanch ExtraBold"
    font-weight="800"
    font-stretch="normal"
    units-per-em="1000"
    panose-1="0 0 9 0 0 0 0 0 0 0"
    ascent="800"
    descent="-200"
    x-height="485"
    cap-height="622"
    bbox="-640 -484 3253 996"
    underline-thickness="50"
    underline-position="-100"
    unicode-range="U+000D-FB02"
  />
<missing-glyph horiz-adv-x="488" 
 />
    <glyph glyph-name="fi" unicode="fi" horiz-adv-x="689" 
d="M622 485v-485h-184v426h-150v-426h-184v426h-72v59h72v105q0 79 79 79h205v-60h-69q-19 0 -25 -5.5t-6 -25.5v-93h334zM435 669h190v-106h-190v106z" />
    <glyph glyph-name="fl" unicode="fl" horiz-adv-x="693" 
d="M438 669h184v-669h-184v426h-150v-426h-184v426h-72v59h72v105q0 79 79 79h209v-60h-73q-19 0 -25 -5.5t-6 -25.5v-93h150v184z" />
    <glyph glyph-name=".notdef" horiz-adv-x="488" 
 />
    <glyph glyph-name=".null" horiz-adv-x="0" 
 />
    <glyph glyph-name="nonmarkingreturn" horiz-adv-x="333" 
 />
    <glyph glyph-name="NULL" horiz-adv-x="0" 
 />
    <glyph glyph-name="NULL" horiz-adv-x="0" 
 />
    <glyph glyph-name="CR" unicode="&#xd;" horiz-adv-x="0" 
 />
    <glyph glyph-name="space" unicode=" " horiz-adv-x="274" 
 />
    <glyph glyph-name="exclam" unicode="!" horiz-adv-x="352" 
d="M69 622h214l-32 -413h-149zM77 0v137h198v-137h-198z" />
    <glyph glyph-name="quotedbl" unicode="&#x22;" horiz-adv-x="504" 
d="M54 622h165v-250h-165v250zM285 622h165v-250h-165v250z" />
    <glyph glyph-name="numbersign" unicode="#" horiz-adv-x="951" 
d="M549 237l48 147h-189l-48 -147h189zM903 384h-147l-49 -147h138v-90h-168l-48 -147h-158l48 147h-189l-48 -147h-158l48 147h-125v90h155l49 147h-145v91h175l48 147h157l-48 -147h189l48 147h159l-48 -147h117v-91z" />
    <glyph glyph-name="dollar" unicode="$" horiz-adv-x="677" 
d="M275 343h265q79 0 79 -79v-185q0 -79 -79 -79h-110v-90h-188v90h-105q-79 0 -79 79v110h189v-99q0 -20 5.5 -25.5t25.5 -5.5h122q20 0 25.5 5.5t5.5 25.5v163q0 19 -5.5 25t-25.5 6h-266q-79 0 -79 79v180q0 79 79 79h108v92h188v-92h107q79 0 79 -79v-110h-189v99
q0 20 -5.5 25.5t-25.5 5.5h-121q-19 0 -25 -5.5t-6 -25.5v-158q0 -20 6 -25.5t25 -5.5z" />
    <glyph glyph-name="percent" unicode="%" horiz-adv-x="1195" 
d="M1154 302v-245q0 -56 -54 -56h-307q-54 0 -54 56v245q0 56 54 56h307q54 0 54 -56zM1012 71v216q0 14 -4 18t-18 4h-87q-14 0 -18 -4t-4 -18v-216q0 -14 4 -18t18 -4h87q14 0 18 4t4 18zM759 622h144l-470 -622h-142zM456 566v-245q0 -56 -54 -56h-307q-54 0 -54 56v245
q0 56 54 56h307q54 0 54 -56zM315 335v216q0 14 -4 18t-18 4h-88q-14 0 -17.5 -4t-3.5 -18v-216q0 -14 4 -18t17 -4h88q14 0 18 4t4 18z" />
    <glyph glyph-name="ampersand" unicode="&#x26;" horiz-adv-x="872" 
d="M272 59h241l-201 169l-34 -12q-20 -8 -28.5 -18t-8.5 -29v-79q0 -20 5.5 -25.5t25.5 -5.5zM309 532v-80q0 -28 13.5 -47.5t52.5 -52.5l35 13q37 13 52 26.5t15 35.5v105q0 20 -5.5 25.5t-25.5 5.5h-106q-20 0 -25.5 -5.5t-5.5 -25.5zM137 0q-79 0 -79 79v86q0 44 23 67.5
t86 44.5l61 22q-44 37 -60 53q-43 39 -43 94v97q0 79 79 79h378q79 0 79 -79v-97q0 -53 -30.5 -82t-97.5 -54l-75 -27l217 -182v136h149v-145q0 -60 -41 -81l66 -56h-213l-53 45h-446z" />
    <glyph glyph-name="quotesingle" unicode="'" horiz-adv-x="274" 
d="M54 622h167v-250h-167v250z" />
    <glyph glyph-name="parenleft" unicode="(" horiz-adv-x="373" 
d="M68 113v273q0 165 84.5 248.5t236.5 83.5h41v-59h-19q-150 -3 -150 -241v-338q0 -237 150 -241h19v-59h-41q-152 0 -236.5 84t-84.5 249z" />
    <glyph glyph-name="parenright" unicode=")" horiz-adv-x="373" 
d="M305 386v-273q0 -165 -84.5 -249t-237.5 -84h-40v59h19q150 4 150 241v338q0 238 -150 241h-19v59h40q153 0 237.5 -83.5t84.5 -248.5z" />
    <glyph glyph-name="asterisk" unicode="*" horiz-adv-x="561" 
d="M215 662h137v-61q0 -44 -17 -88q37 27 76 40l57 19l44 -131l-59 -19q-32 -11 -55 -11t-33 1q39 -28 61 -60l36 -49l-111 -82l-36 50q-24 35 -37 82q-15 -45 -38 -78l-36 -49l-111 81l36 49q23 32 66 60q-51 2 -86 13l-58 19l43 131l58 -19q38 -13 78 -44q-15 42 -15 85
v61z" />
    <glyph glyph-name="plus" unicode="+" horiz-adv-x="717" 
d="M663 367v-114h-216v-147h-177v147h-216v114h216v147h177v-147h216z" />
    <glyph glyph-name="comma" unicode="," horiz-adv-x="304" 
d="M57 -140v290h197v-84l-132 -206h-65z" />
    <glyph glyph-name="hyphen" unicode="-" horiz-adv-x="432" 
d="M57 242v59h318v-59h-318z" />
    <glyph glyph-name="period" unicode="." horiz-adv-x="311" 
d="M57 0v137h197v-137h-197z" />
    <glyph glyph-name="slash" unicode="/" horiz-adv-x="486" 
d="M397 699h161l-424 -835h-161z" />
    <glyph glyph-name="zero" unicode="0" horiz-adv-x="709" 
d="M641 543v-464q0 -79 -79 -79h-415q-79 0 -79 79v464q0 79 79 79h415q79 0 79 -79zM448 90v442q0 20 -6 25.5t-25 5.5h-124q-19 0 -25 -5.5t-6 -25.5v-442q0 -20 6 -25.5t25 -5.5h124q19 0 25 5.5t6 25.5z" />
    <glyph glyph-name="one" unicode="1" horiz-adv-x="411" 
d="M344 622v-622h-200v563h-127v59h327z" />
    <glyph glyph-name="two" unicode="2" horiz-adv-x="661" 
d="M244 532v-123h-195v134q0 79 79 79h410q79 0 79 -79v-88q0 -66 -13 -98.5t-51 -67.5l-255 -230h322v-59h-572v59l324 294q30 28 41.5 49t11.5 54v76q0 20 -5.5 25.5t-25.5 5.5h-119q-19 0 -25 -5.5t-6 -25.5z" />
    <glyph glyph-name="three" unicode="3" horiz-adv-x="688" 
d="M248 532v-109h-193v120q0 79 79 79h414q79 0 79 -79v-156q0 -66 -60 -69q60 -4 60 -69v-170q0 -79 -79 -79h-414q-79 0 -79 79v119h193v-108q0 -20 6 -25.5t25 -5.5h124q19 0 25 5.5t6 25.5v164q0 20 -6 25.5t-25 5.5h-124v60h124q19 0 25 5.5t6 25.5v156q0 20 -6 25.5
t-25 5.5h-124q-19 0 -25 -5.5t-6 -25.5z" />
    <glyph glyph-name="four" unicode="4" horiz-adv-x="702" 
d="M688 160v-59h-98v-101h-182v101h-381v85l273 436h198l-280 -462h190v168h182v-168h98z" />
    <glyph glyph-name="five" unicode="5" horiz-adv-x="672" 
d="M273 379h273q79 0 79 -79v-221q0 -79 -79 -79h-402q-79 0 -79 79v131h193v-120q0 -20 6 -25.5t25 -5.5h112q19 0 25 5.5t6 25.5v199q0 19 -6 25t-25 6h-328v302h540v-59h-340v-184z" />
    <glyph glyph-name="six" unicode="6" horiz-adv-x="687" 
d="M433 90v180q0 20 -5.5 25.5t-25.5 5.5h-140v-211q0 -20 6 -25.5t25 -5.5h109q20 0 25.5 5.5t5.5 25.5zM262 360h285q79 0 79 -79v-202q0 -79 -79 -79h-400q-79 0 -79 79v464q0 79 79 79h390q79 0 79 -79v-113h-193v102q0 20 -5.5 25.5t-25.5 5.5h-99q-19 0 -25 -5.5
t-6 -25.5v-172z" />
    <glyph glyph-name="seven" unicode="7" horiz-adv-x="568" 
d="M554 622v-77l-265 -545h-205l281 563h-341v59h530z" />
    <glyph glyph-name="eight" unicode="8" horiz-adv-x="688" 
d="M144 622h401q79 0 79 -79v-160q0 -66 -61 -69q61 -5 61 -69v-166q0 -79 -79 -79h-401q-79 0 -79 79v166q0 65 60 69q-60 3 -60 69v160q0 79 79 79zM258 252v-162q0 -20 6 -25.5t25 -5.5h111q20 0 25.5 5.5t5.5 25.5v162q0 20 -5.5 25.5t-25.5 5.5h-111q-19 0 -25 -5.5
t-6 -25.5zM431 373v159q0 20 -5.5 25.5t-25.5 5.5h-111q-19 0 -25 -5.5t-6 -25.5v-159q0 -19 6 -25t25 -6h111q20 0 25.5 6t5.5 25z" />
    <glyph glyph-name="nine" unicode="9" horiz-adv-x="689" 
d="M287 318h140v214q0 20 -5.5 25.5t-25.5 5.5h-109q-19 0 -25 -5.5t-6 -25.5v-183q0 -19 6 -25t25 -6zM142 622h400q79 0 79 -79v-464q0 -79 -79 -79h-391q-79 0 -79 79v109h193v-98q0 -20 5.5 -25.5t25.5 -5.5h100q20 0 25.5 5.5t5.5 25.5v169h-285q-79 0 -79 79v205
q0 79 79 79z" />
    <glyph glyph-name="colon" unicode=":" horiz-adv-x="311" 
d="M57 362h197v-239h-197v239z" />
    <glyph glyph-name="semicolon" unicode=";" horiz-adv-x="304" 
d="M57 348v137h197v-137h-197zM57 -140v290h197v-84l-132 -206h-65z" />
    <glyph glyph-name="less" unicode="&#x3c;" horiz-adv-x="712" 
d="M671 390l-485 -78l485 -81v-123l-637 145v121l637 138v-122z" />
    <glyph glyph-name="equal" unicode="=" horiz-adv-x="731" 
d="M61 355v115h609v-115h-609zM61 150v115h609v-115h-609z" />
    <glyph glyph-name="greater" unicode="&#x3e;" horiz-adv-x="712" 
d="M525 312l-484 78v122l637 -138v-121l-637 -145v123z" />
    <glyph glyph-name="question" unicode="?" horiz-adv-x="619" 
d="M195 0v137h197v-137h-197zM103 622h403q79 0 79 -78v-188q0 -78 -79 -78h-124l-9 -69h-155l-15 134h165q19 0 24.5 6.5t5.5 25.5v157q0 19 -5.5 25t-24.5 6h-127q-19 0 -25 -6t-6 -25v-105h-186v117q0 78 79 78z" />
    <glyph glyph-name="at" unicode="@" horiz-adv-x="1156" 
d="M410 426h187q37 0 47 -25v25h152v-308h119q17 0 21.5 5t4.5 21v333q0 17 -4.5 21.5t-21.5 4.5h-667q-16 0 -21 -4.5t-5 -21.5v-462q0 -17 5 -21.5t21 -4.5h607v-60h-718q-66 0 -66 66v502q0 66 66 66h889q66 0 66 -66v-372q0 -66 -66 -66h-378v50q-7 -31 -51 -31h-187
q-66 0 -66 66v216q0 66 66 66zM495 341v-178q0 -17 4.5 -21.5t21.5 -4.5h93q29 0 30 24v182q-1 24 -30 24h-93q-17 0 -21.5 -4.5t-4.5 -21.5z" />
    <glyph glyph-name="A" unicode="A" horiz-adv-x="738" 
d="M260 182h215l-107 326zM534 0l-40 123h-253l-41 -123h-186l236 622h237l237 -622h-190z" />
    <glyph glyph-name="B" unicode="B" horiz-adv-x="721" 
d="M75 622h499q79 0 79 -79v-162q0 -66 -61 -69q61 -5 61 -68v-165q0 -79 -79 -79h-499v622zM468 84v167q0 19 -6 25t-25 6h-169v-223h166q34 0 34 25zM468 372v160q0 20 -6 25.5t-25 5.5h-169v-222h169q19 0 25 5.5t6 25.5z" />
    <glyph glyph-name="C" unicode="C" horiz-adv-x="688" 
d="M638 398h-193v134q0 20 -5.5 25.5t-25.5 5.5h-122q-20 0 -25.5 -5.5t-5.5 -25.5v-442q0 -20 5.5 -25.5t25.5 -5.5h122q20 0 25.5 5.5t5.5 25.5v132h193v-143q0 -79 -79 -79h-412q-79 0 -79 79v464q0 79 79 79h412q79 0 79 -79v-145z" />
    <glyph glyph-name="D" unicode="D" horiz-adv-x="723" 
d="M462 90v442q0 20 -6 25.5t-25 5.5h-163v-504h163q19 0 25 5.5t6 25.5zM75 622h501q79 0 79 -79v-464q0 -79 -79 -79h-501v622z" />
    <glyph glyph-name="E" unicode="E" horiz-adv-x="621" 
d="M275 59h312v-59h-512v622h499v-59h-299v-215h258v-59h-258v-230z" />
    <glyph glyph-name="F" unicode="F" horiz-adv-x="601" 
d="M574 563h-299v-239h260v-59h-260v-265h-200v622h499v-59z" />
    <glyph glyph-name="G" unicode="G" horiz-adv-x="700" 
d="M639 418h-193v114q0 20 -6 25.5t-25 5.5h-123q-20 0 -25.5 -5.5t-5.5 -25.5v-442q0 -20 5.5 -25.5t25.5 -5.5h123q19 0 25 5.5t6 25.5v171h-102v59h295v-241q0 -79 -79 -79h-413q-79 0 -79 79v464q0 79 79 79h413q79 0 79 -79v-125z" />
    <glyph glyph-name="H" unicode="H" horiz-adv-x="769" 
d="M501 622h193v-622h-193v282h-233v-282h-193v622h193v-281h233v281z" />
    <glyph glyph-name="I" unicode="I" horiz-adv-x="363" 
d="M81 622h200v-622h-200v622z" />
    <glyph glyph-name="J" unicode="J" horiz-adv-x="632" 
d="M27 238h194v-148q0 -20 5.5 -25.5t25.5 -5.5h88q20 0 25.5 5.5t5.5 25.5v532h194v-543q0 -79 -79 -79h-380q-79 0 -79 79v159z" />
    <glyph glyph-name="K" unicode="K" horiz-adv-x="725" 
d="M493 622h208l-225 -304l231 -318h-209l-224 318zM75 622h188v-622h-188v622z" />
    <glyph glyph-name="L" unicode="L" horiz-adv-x="576" 
d="M268 59h291v-59h-484v622h193v-563z" />
    <glyph glyph-name="M" unicode="M" horiz-adv-x="919" 
d="M248 0h-173v622h206l177 -380l181 380h206v-622h-174v450l-151 -315h-123l-149 313v-448z" />
    <glyph glyph-name="N" unicode="N" horiz-adv-x="744" 
d="M491 622h179v-622h-166l-251 442v-442h-178v622h168l248 -443v443z" />
    <glyph glyph-name="O" unicode="O" horiz-adv-x="708" 
d="M640 543v-464q0 -79 -79 -79h-414q-79 0 -79 79v464q0 79 79 79h414q79 0 79 -79zM448 90v442q0 20 -6 25.5t-25 5.5h-125q-20 0 -25.5 -5.5t-5.5 -25.5v-442q0 -20 5.5 -25.5t25.5 -5.5h125q19 0 25 5.5t6 25.5z" />
    <glyph glyph-name="P" unicode="P" horiz-adv-x="698" 
d="M464 293v239q0 20 -6 25.5t-25 5.5h-165v-301h165q19 0 25 6t6 25zM75 622h503q79 0 79 -79v-261q0 -79 -79 -79h-310v-203h-193v622z" />
    <glyph glyph-name="Q" unicode="Q" horiz-adv-x="695" 
d="M250 532v-442q0 -20 6 -25.5t25 -5.5h132q19 0 25 5.5t6 25.5v442q0 20 -6 25.5t-25 5.5h-132q-19 0 -25 -5.5t-6 -25.5zM139 0q-79 0 -79 79v464q0 79 79 79h415q79 0 79 -79v-464q0 -79 -79 -79h-35l125 -97h-217l-114 97h-174z" />
    <glyph glyph-name="R" unicode="R" horiz-adv-x="716" 
d="M268 563v-281h165q19 0 25 6t6 25v219q0 20 -6 25.5t-25 5.5h-165zM268 223v-223h-193v622h503q79 0 79 -79v-241q0 -79 -79 -79h-45l141 -223h-201l-133 223h-72z" />
    <glyph glyph-name="S" unicode="S" horiz-adv-x="678" 
d="M427 90v163q0 19 -5.5 25t-25.5 6h-261q-79 0 -79 79v180q0 79 79 79h403q79 0 79 -79v-116h-193v105q0 20 -6 25.5t-25 5.5h-113q-20 0 -25.5 -5.5t-5.5 -25.5v-158q0 -20 5.5 -25.5t25.5 -5.5h261q79 0 79 -79v-185q0 -79 -79 -79h-403q-79 0 -79 79v116h193v-105
q0 -20 6 -25.5t25 -5.5h113q20 0 25.5 5.5t5.5 25.5z" />
    <glyph glyph-name="T" unicode="T" horiz-adv-x="590" 
d="M584 622v-59h-193v-563h-193v563h-191v59h577z" />
    <glyph glyph-name="U" unicode="U" horiz-adv-x="715" 
d="M261 622v-532q0 -20 5.5 -25.5t25.5 -5.5h131q19 0 25 5.5t6 25.5v532h193v-543q0 -79 -79 -79h-421q-79 0 -79 79v543h193z" />
    <glyph glyph-name="V" unicode="V" horiz-adv-x="721" 
d="M510 622h195l-231 -622h-228l-230 622h195l149 -495z" />
    <glyph glyph-name="W" unicode="W" horiz-adv-x="1119" 
d="M916 622h186l-199 -622h-225l-119 426l-119 -426h-224l-199 622h195l116 -487l136 487h189l136 -487z" />
    <glyph glyph-name="X" unicode="X" horiz-adv-x="711" 
d="M455 323l243 -323h-206l-141 209l-142 -209h-196l234 310l-226 312h206l124 -194l124 194h197z" />
    <glyph glyph-name="Y" unicode="Y" horiz-adv-x="699" 
d="M452 0h-193v205l-254 417h190l159 -313l151 313h188l-241 -416v-206z" />
    <glyph glyph-name="Z" unicode="Z" horiz-adv-x="647" 
d="M606 622v-59l-346 -504h336v-59h-555v59l346 504h-330v59h549z" />
    <glyph glyph-name="bracketleft" unicode="[" horiz-adv-x="369" 
d="M405 660h-140v-821h140v-59h-334v939h334v-59z" />
    <glyph glyph-name="backslash" unicode="\" horiz-adv-x="483" 
d="M-71 699h160l424 -835h-161z" />
    <glyph glyph-name="bracketright" unicode="]" horiz-adv-x="369" 
d="M298 719v-939h-334v59h140v821h-140v59h334z" />
    <glyph glyph-name="asciicircum" unicode="^" horiz-adv-x="654" 
d="M217 668h220l194 -340h-171l-133 239l-134 -239h-170z" />
    <glyph glyph-name="underscore" unicode="_" horiz-adv-x="646" 
d="M6 -59v59h634v-59h-634z" />
    <glyph glyph-name="grave" unicode="`" horiz-adv-x="605" 
d="M346 657l138 -151h-151l-172 151h185z" />
    <glyph glyph-name="a" unicode="a" horiz-adv-x="662" 
d="M276 59h98q36 0 36 31v305q0 31 -36 31h-98q-20 0 -25.5 -6t-5.5 -25v-305q0 -20 5.5 -25.5t25.5 -5.5zM410 485h184v-485h-184v29q-14 -29 -57 -29h-213q-79 0 -79 79v327q0 79 79 79h213q43 0 57 -29v29z" />
    <glyph glyph-name="b" unicode="b" horiz-adv-x="662" 
d="M417 90v305q0 19 -5.5 25t-25.5 6h-98q-36 0 -36 -31v-305q0 -31 36 -31h98q20 0 25.5 5.5t5.5 25.5zM309 485h213q79 0 79 -79v-327q0 -79 -79 -79h-213q-43 0 -57 29v-29h-184v669h184v-213q14 29 57 29z" />
    <glyph glyph-name="c" unicode="c" horiz-adv-x="627" 
d="M583 312h-179v83q0 19 -6 25t-25 6h-97q-20 0 -25.5 -6t-5.5 -25v-305q0 -20 5.5 -25.5t25.5 -5.5h97q19 0 25 5.5t6 25.5v81h179v-92q0 -79 -79 -79h-364q-79 0 -79 79v327q0 79 79 79h364q79 0 79 -79v-94z" />
    <glyph glyph-name="d" unicode="d" horiz-adv-x="662" 
d="M276 59h98q36 0 36 31v305q0 31 -36 31h-98q-20 0 -25.5 -6t-5.5 -25v-305q0 -20 5.5 -25.5t25.5 -5.5zM410 669h184v-669h-184v29q-14 -29 -57 -29h-213q-79 0 -79 79v327q0 79 79 79h213q43 0 57 -29v213z" />
    <glyph glyph-name="e" unicode="e" horiz-adv-x="658" 
d="M245 278h181v117q0 19 -6 25t-25 6h-119q-20 0 -25.5 -6t-5.5 -25v-117zM140 485h385q79 0 79 -79v-187h-359v-129q0 -20 5.5 -25.5t25.5 -5.5h118q20 0 25.5 5.5t5.5 25.5v64h178v-75q0 -79 -79 -79h-384q-79 0 -79 79v327q0 79 79 79z" />
    <glyph glyph-name="f" unicode="f" horiz-adv-x="413" 
d="M406 609h-91q-19 0 -25 -5.5t-6 -25.5v-93h122v-59h-122v-426h-184v426h-72v59h72v105q0 79 79 79h227v-60z" />
    <glyph glyph-name="g" unicode="g" horiz-adv-x="658" 
d="M276 59h98q36 0 36 31v305q0 31 -36 31h-98q-20 0 -25.5 -6t-5.5 -25v-305q0 -20 5.5 -25.5t25.5 -5.5zM594 30h1v-92q0 -79 -79 -79h-428v59h292q20 0 25.5 6t5.5 25v73h-1v7q-14 -29 -57 -29h-213q-79 0 -79 79v327q0 79 79 79h213q43 0 57 -29v29h184v-455z" />
    <glyph glyph-name="h" unicode="h" horiz-adv-x="662" 
d="M309 485h213q79 0 79 -79v-406h-183v395q0 19 -6 25t-25 6h-99q-36 0 -36 -31v-395h-184v669h184v-213q14 29 57 29z" />
    <glyph glyph-name="i" unicode="i" horiz-adv-x="327" 
d="M255 0h-184v485h184v-485zM68 558v111h191v-111h-191z" />
    <glyph glyph-name="j" unicode="j" horiz-adv-x="323" 
d="M71 -51v536h185v-547q0 -79 -79 -79h-208v59h71q20 0 25.5 6t5.5 25zM68 558v111h191v-111h-191z" />
    <glyph glyph-name="k" unicode="k" horiz-adv-x="654" 
d="M68 0v669h184v-669h-184zM636 485l-187 -240l187 -245h-194l-179 245l180 240h193z" />
    <glyph glyph-name="l" unicode="l" horiz-adv-x="333" 
d="M258 0h-183v669h183v-669z" />
    <glyph glyph-name="m" unicode="m" horiz-adv-x="999" 
d="M658 485h201q79 0 79 -79v-406h-184v395q0 19 -6 25t-25 6h-88q-38 0 -38 -38v-388h-183v395q0 19 -6 25t-25 6h-95q-36 0 -36 -31v-395h-184v485h184v-28q12 28 56 28h210q60 0 74 -45q12 45 66 45z" />
    <glyph glyph-name="n" unicode="n" horiz-adv-x="662" 
d="M309 485h213q79 0 79 -79v-406h-184v395q0 19 -5.5 25t-25.5 6h-98q-36 0 -36 -31v-395h-184v485h184v-29q14 29 57 29z" />
    <glyph glyph-name="o" unicode="o" horiz-adv-x="658" 
d="M414 90v305q0 19 -6 25t-25 6h-108q-19 0 -25 -6t-6 -25v-305q0 -20 6 -25.5t25 -5.5h108q19 0 25 5.5t6 25.5zM140 485h378q79 0 79 -79v-327q0 -79 -79 -79h-378q-79 0 -79 79v327q0 79 79 79z" />
    <glyph glyph-name="p" unicode="p" horiz-adv-x="666" 
d="M421 90v304q0 20 -5.5 25.5t-25.5 5.5h-102q-36 0 -36 -31v-304q0 -31 36 -31h102q20 0 25.5 5.5t5.5 25.5zM308 484h218q79 0 79 -79v-326q0 -79 -79 -79h-218q-44 0 -56 28v-169h-184v625h180v-39q10 39 60 39z" />
    <glyph glyph-name="q" unicode="q" horiz-adv-x="663" 
d="M289 59h101q37 0 37 31v304q0 17 -8.5 24t-28.5 7h-101q-19 0 -25 -5.5t-6 -25.5v-304q0 -20 6 -25.5t25 -5.5zM430 484h181v-625h-184v171q-12 -30 -57 -30h-217q-79 0 -79 79v326q0 79 79 79h217q49 0 60 -38v38z" />
    <glyph glyph-name="r" unicode="r" horiz-adv-x="432" 
d="M361 487h64v-69h-100q-73 0 -73 -76v-342h-184v485h184v-58q23 60 109 60z" />
    <glyph glyph-name="s" unicode="s" horiz-adv-x="612" 
d="M378 90v91q0 19 -6 25t-25 6h-217q-79 0 -79 79v115q0 79 79 79h345q79 0 79 -79v-72h-178v61q0 19 -6 25t-25 6h-79q-20 0 -25.5 -6t-5.5 -25v-93q0 -20 5.5 -25.5t25.5 -5.5h216q79 0 79 -79v-113q0 -79 -79 -79h-348q-79 0 -79 79v72h179v-61q0 -20 6 -25.5t25 -5.5
h82q19 0 25 5.5t6 25.5z" />
    <glyph glyph-name="t" unicode="t" horiz-adv-x="407" 
d="M380 426h-100v-334q0 -20 6 -25.5t25 -5.5h68v-61h-204q-79 0 -79 79v347h-78v59h78v111h184v-111h100v-59z" />
    <glyph glyph-name="u" unicode="u" horiz-adv-x="662" 
d="M410 485h184v-485h-184v29q-14 -29 -57 -29h-213q-79 0 -79 79v406h184v-395q0 -20 5.5 -25.5t25.5 -5.5h98q36 0 36 31v395z" />
    <glyph glyph-name="v" unicode="v" horiz-adv-x="633" 
d="M12 485h181l122 -371l124 371h181l-190 -485h-228z" />
    <glyph glyph-name="w" unicode="w" horiz-adv-x="926" 
d="M740 485h173l-155 -485h-209l-86 360l-86 -360h-208l-156 485h173l97 -371l97 371h166l97 -371z" />
    <glyph glyph-name="x" unicode="x" horiz-adv-x="624" 
d="M401 268l220 -268h-216l-125 155l-138 -155h-126l203 227l-209 258h214l115 -147l128 147h129z" />
    <glyph glyph-name="y" unicode="y" horiz-adv-x="629" 
d="M237 -141h-127v59h67q36 0 54.5 11t29.5 37l15 34h-70l-192 485h192l116 -366l118 366h185l-200 -501q-13 -34 -25.5 -54t-33.5 -38q-37 -33 -129 -33z" />
    <glyph glyph-name="z" unicode="z" horiz-adv-x="543" 
d="M509 59v-59h-474v59l268 367h-252v59h449v-59l-272 -367h281z" />
    <glyph glyph-name="braceleft" unicode="{" horiz-adv-x="430" 
d="M340 568v-193q0 -55 -24 -89.5t-69 -36.5q45 -3 69 -37.5t24 -88.5v-193q0 -47 11.5 -69.5t45.5 -22.5h56v-59h-88q-114 0 -166 40t-52 145v167q0 48 -21.5 69t-71.5 21h-12v59h12q50 0 71.5 22t21.5 70v162q0 105 52 145t166 40h88v-59h-56q-34 0 -45.5 -22t-11.5 -70z
" />
    <glyph glyph-name="bar" unicode="|" horiz-adv-x="325" 
d="M78 778h170v-936h-170v936z" />
    <glyph glyph-name="braceright" unicode="}" horiz-adv-x="442" 
d="M103 375v193q0 48 -11.5 70t-45.5 22h-57v59h88q115 0 166.5 -40t51.5 -145v-162q0 -48 21.5 -70t71.5 -22h12v-59h-12q-50 0 -71.5 -21t-21.5 -69v-167q0 -105 -51.5 -145t-166.5 -40h-88v59h57q34 0 45.5 22.5t11.5 69.5v193q0 54 23.5 88.5t69.5 37.5
q-46 2 -69.5 36.5t-23.5 89.5z" />
    <glyph glyph-name="asciitilde" unicode="~" horiz-adv-x="803" 
d="M358 235.5q-42 24.5 -73 24.5t-39.5 -7.5t-8.5 -28.5v-61h-182v94q0 78 78 78h146q39 0 75.5 -15.5t59.5 -33.5q63 -49 112 -49q23 0 31.5 7.5t8.5 28.5v62h182v-94q0 -79 -78 -79h-145q-41 0 -83 24.5z" />
    <glyph glyph-name="exclamdown" unicode="&#xa1;" horiz-adv-x="361" 
d="M106 275h149l32 -413h-214zM81 484h198v-137h-198v137z" />
    <glyph glyph-name="cent" unicode="&#xa2;" horiz-adv-x="618" 
d="M578 312h-179v83q0 19 -5.5 25t-25.5 6h-97q-19 0 -25 -6t-6 -25v-305q0 -20 6 -25.5t25 -5.5h97q20 0 25.5 5.5t5.5 25.5v81h179v-92q0 -79 -79 -79h-88v-79h-187v79h-89q-79 0 -79 79v327q0 79 79 79h89v77h187v-77h88q79 0 79 -79v-94z" />
    <glyph glyph-name="sterling" unicode="&#xa3;" horiz-adv-x="706" 
d="M670 101v-101h-623v80q40 7 54.5 39.5t14.5 88.5v62h-73v59h73v214q0 79 79 79h388q79 0 79 -79v-122h-193v111q0 20 -5.5 25.5t-25.5 5.5h-98q-20 0 -25.5 -5.5t-5.5 -25.5v-203h236v-59h-236v-54q0 -50 -8 -78t-33 -37h402z" />
    <glyph glyph-name="currency" unicode="&#xa4;" horiz-adv-x="790" 
d="M346 167h100q57 0 77 14.5t20 66.5v84q0 54 -21.5 75.5t-75.5 21.5h-100q-54 0 -76 -21.5t-22 -75.5v-84q0 -52 20 -66.5t78 -14.5zM683 345v-93q0 -39 -10 -66l58 -57l-97 -99l-82 80q-28 -2 -46 -2h-221q-17 0 -47 2l-82 -80l-97 99l59 58q-10 26 -10 65v93q0 37 10 63
l-59 58l97 99l82 -80q21 3 47 3h221q17 0 47 -2l81 79l97 -99l-58 -57q10 -27 10 -64z" />
    <glyph glyph-name="yen" unicode="&#xa5;" horiz-adv-x="733" 
d="M664 328v-59h-158l-37 -63v-6h195v-59h-195v-141h-193v141h-198v59h198v5l-39 64h-159v59h123l-179 294h190l159 -313l151 313h189l-171 -294h124z" />
    <glyph glyph-name="brokenbar" unicode="&#xa6;" horiz-adv-x="318" 
d="M74 252h170v-410h-170v410zM244 369h-170v409h170v-409z" />
    <glyph glyph-name="section" unicode="&#xa7;" horiz-adv-x="868" 
d="M711 123v-104q0 -79 -79 -79h-360q-79 0 -79 79v65h189v-54q0 -20 6 -25.5t25 -5.5h79q20 0 25.5 5.5t5.5 25.5v89q0 19 -5.5 25t-25.5 6h-213q-79 0 -79 79v93q0 35 17.5 56.5t40.5 25.5q-44 12 -44 60v112q0 79 79 79h361q79 0 79 -79v-65h-188v54q0 19 -5.5 25
t-25.5 6h-80q-20 0 -25.5 -6t-5.5 -25v-90q0 -19 5.5 -25t25.5 -6h213q79 0 79 -79v-99q0 -35 -17 -53.5t-41 -22.5q16 -6 29.5 -23t13.5 -44zM507 385h-87q-20 0 -25.5 -5.5t-5.5 -25.5v-114q0 -20 5.5 -25.5t25.5 -5.5h87q19 0 25 5.5t6 25.5v114q0 20 -6 25.5t-25 5.5z
" />
    <glyph glyph-name="dieresis" unicode="&#xa8;" horiz-adv-x="667" 
d="M384 646h197v-120h-197v120zM86 646h197v-120h-197v120z" />
    <glyph glyph-name="copyright" unicode="&#xa9;" horiz-adv-x="1073" 
d="M1012 339v-59q0 -142 -69.5 -211t-242.5 -69h-328q-173 0 -242.5 69t-69.5 211v59q0 142 69.5 212.5t242.5 70.5h328q173 0 242.5 -70.5t69.5 -212.5zM404 59h265q103 0 145.5 50t42.5 159v83q0 110 -43 161t-145 51h-265q-102 0 -145.5 -51.5t-43.5 -160.5v-83
q0 -109 43 -159t146 -50zM602 240v38h134v-49q0 -79 -79 -79h-239q-79 0 -79 79v169q0 79 79 79h239q79 0 79 -79v-48h-134v37q0 19 -6 25t-25 6h-68q-19 0 -25 -6t-6 -25v-147q0 -20 6 -25.5t25 -5.5h68q19 0 25 5.5t6 25.5z" />
    <glyph glyph-name="ordfeminine" unicode="&#xaa;" horiz-adv-x="457" 
d="M196 322h58q27 0 27 22v214q0 22 -27 22h-58q-14 0 -18 -3.5t-4 -17.5v-215q0 -14 4 -18t18 -4zM281 622h130v-342h-130v21q-9 -21 -40 -21h-141q-56 0 -56 55v231q0 56 56 56h141q31 0 40 -21v21z" />
    <glyph glyph-name="guillemotleft" unicode="&#xab;" horiz-adv-x="694" 
d="M581 398l-136 -150l136 -151h-333l-138 151l138 150h333z" />
    <glyph glyph-name="logicalnot" unicode="&#xac;" horiz-adv-x="779" 
d="M704 401v-277h-108v141h-530v136h638z" />
    <glyph glyph-name="uni00AD" unicode="&#xad;" horiz-adv-x="403" 
d="M55 249v59h293v-59h-293z" />
    <glyph glyph-name="registered" unicode="&#xae;" horiz-adv-x="651" 
d="M602 538v-33q0 -82 -40 -122t-140 -40h-192q-100 0 -140.5 40t-40.5 122v33q0 82 40.5 122.5t140.5 40.5h192q100 0 140 -40.5t40 -122.5zM249 381h154q57 0 81.5 28t24.5 89v47q0 62 -24.5 90.5t-81.5 28.5h-154q-57 0 -81.5 -28.5t-24.5 -90.5v-47q0 -61 24.5 -89
t81.5 -28zM228 617h167q28 0 28 -27v-65q0 -27 -27 -27h-9l44 -68h-75l-39 66h-18v-66h-71v187zM351 532v51q0 10 -9 10h-43v-70h43q9 0 9 9z" />
    <glyph glyph-name="macron" unicode="&#xaf;" horiz-adv-x="667" 
d="M96 550v58h474v-58h-474z" />
    <glyph glyph-name="degree" unicode="&#xb0;" horiz-adv-x="633" 
d="M575 544v-156q0 -78 -78 -78h-360q-78 0 -78 78v156q0 78 78 78h360q78 0 78 -78zM401 399v134q0 19 -5.5 25t-25.5 6h-104q-20 0 -25.5 -6t-5.5 -25v-134q0 -19 5.5 -25t25.5 -6h104q20 0 25.5 6t5.5 25z" />
    <glyph glyph-name="plusminus" unicode="&#xb1;" horiz-adv-x="726" 
d="M51 129v87h609v-87h-609zM438 431h222v-101h-222v-74h-164v74h-223v101h223v83h164v-83z" />
    <glyph glyph-name="twosuperior" unicode="&#xb2;" horiz-adv-x="391" 
d="M152 563v-56h-116v72q0 43 43 43h235q43 0 43 -43v-47q0 -69 -38 -103l-131 -106h168v-43h-314v43l171 145q28 24 28 64v31q0 11 -3 14t-14 3h-55q-11 0 -14 -3t-3 -14z" />
    <glyph glyph-name="threesuperior" unicode="&#xb3;" horiz-adv-x="403" 
d="M161 563v-51h-116v67q0 43 43 43h239q44 0 44 -43v-86q0 -36 -33 -38q33 -3 33 -38v-94q0 -43 -44 -43h-239q-43 0 -43 43v66h116v-50q0 -11 3.5 -14t13.5 -3h59q11 0 14 3t3 14v76q0 11 -3 14t-14 3h-69v42h69q11 0 14 3t3 14v72q0 11 -3 14t-14 3h-59q-10 0 -13.5 -3
t-3.5 -14z" />
    <glyph glyph-name="acute" unicode="&#xb4;" horiz-adv-x="667" 
d="M167 506l138 151h185l-172 -151h-151z" />
    <glyph glyph-name="uni00B5" unicode="&#xb5;" horiz-adv-x="670" 
d="M418 485h184v-485h-184v30q-12 -30 -57 -30h-109v-141h-184v626h184v-395q0 -20 6 -25.5t25 -5.5h98q20 0 28.5 7t8.5 24v395z" />
    <glyph glyph-name="paragraph" unicode="&#xb6;" horiz-adv-x="777" 
d="M450 622v-763h-164v353h-154q-79 0 -79 79v252q0 79 79 79h318zM546 622h164v-763h-164v763z" />
    <glyph glyph-name="periodcentered" unicode="&#xb7;" horiz-adv-x="326" 
d="M69 244v137h197v-137h-197z" />
    <glyph glyph-name="cedilla" unicode="&#xb8;" horiz-adv-x="667" 
d="M301 -148v101h173v-110q0 -82 -82 -82h-217v58h94q19 0 25.5 6.5t6.5 26.5z" />
    <glyph glyph-name="onesuperior" unicode="&#xb9;" horiz-adv-x="283" 
d="M226 622v-342h-130v300h-79v42h209z" />
    <glyph glyph-name="ordmasculine" unicode="&#xba;" horiz-adv-x="453" 
d="M395 575v-248q0 -47 -47 -47h-253q-47 0 -47 47v248q0 47 47 47h253q47 0 47 -47zM271 341v221q0 11 -3 14.5t-15 3.5h-63q-12 0 -15.5 -3.5t-3.5 -14.5v-221q0 -12 3.5 -15.5t15.5 -3.5h63q12 0 15 3.5t3 15.5z" />
    <glyph glyph-name="guillemotright" unicode="&#xbb;" horiz-adv-x="682" 
d="M436 398l138 -150l-138 -151h-333l136 151l-136 150h333z" />
    <glyph glyph-name="questiondown" unicode="&#xbf;" horiz-adv-x="644" 
d="M451 484v-137h-198v137h198zM435 57h187v-117q0 -78 -79 -78h-403q-79 0 -79 78v188q0 78 79 78h124l8 69h156l15 -134h-166q-18 0 -24 -6.5t-6 -25.5v-157q0 -19 5.5 -25t24.5 -6h128q19 0 24.5 6t5.5 25v105z" />
    <glyph glyph-name="Agrave" unicode="&#xc0;" horiz-adv-x="735" 
d="M437 669h-150l-172 151h184zM259 182h215l-107 326zM533 0l-40 123h-253l-41 -123h-186l236 622h237l237 -622h-190z" />
    <glyph glyph-name="Aacute" unicode="&#xc1;" horiz-adv-x="735" 
d="M623 820l-172 -151h-151l138 151h185zM259 182h215l-107 326zM533 0l-40 123h-253l-41 -123h-186l236 622h237l237 -622h-190z" />
    <glyph glyph-name="Acircumflex" unicode="&#xc2;" horiz-adv-x="735" 
d="M367 758l-89 -90h-178l180 156h174l180 -156h-177zM259 182h215l-107 326zM533 0l-40 123h-253l-41 -123h-186l236 622h237l237 -622h-190z" />
    <glyph glyph-name="Atilde" unicode="&#xc3;" horiz-adv-x="735" 
d="M259 725v-56h-148v64q0 78 76 78h61q43 0 113.5 -38t84.5 -38q20 0 20 21v55h147v-63q0 -79 -76 -79h-62q-33 0 -74 19.5t-74.5 38.5t-48.5 19q-19 0 -19 -21zM259 182h215l-107 326zM533 0l-40 123h-253l-41 -123h-186l236 622h237l237 -622h-190z" />
    <glyph glyph-name="Adieresis" unicode="&#xc4;" horiz-adv-x="735" 
d="M615 789v-120h-196v120h196zM318 789v-120h-197v120h197zM259 182h215l-107 326zM533 0l-40 123h-253l-41 -123h-186l236 622h237l237 -622h-190z" />
    <glyph glyph-name="Aring" unicode="&#xc5;" horiz-adv-x="735" 
d="M299 767v-13q0 -19 5.5 -24.5t24.5 -5.5h78q19 0 24.5 5.5t5.5 24.5v13q0 19 -5.5 24.5t-24.5 5.5h-78q-19 0 -24.5 -5.5t-5.5 -24.5zM480 669h-224q-74 0 -74 75v34q0 74 74 74h224q74 0 74 -74v-34q0 -75 -74 -75zM259 182h215l-107 326zM533 0l-40 123h-253l-41 -123
h-186l236 622h237l237 -622h-190z" />
    <glyph glyph-name="AE" unicode="&#xc6;" horiz-adv-x="1072" 
d="M529 190v328l-200 -328h200zM723 59h308v-59h-502v131h-235l-80 -131h-201l393 622h612v-59h-295v-215h258v-59h-258v-230z" />
    <glyph glyph-name="Ccedilla" unicode="&#xc7;" horiz-adv-x="678" 
d="M257 -148v101h173v-110q0 -82 -82 -82h-217v58h94q19 0 25.5 6.5t6.5 26.5zM634 398h-193v134q0 20 -5.5 25.5t-25.5 5.5h-122q-20 0 -25.5 -5.5t-5.5 -25.5v-442q0 -20 5.5 -25.5t25.5 -5.5h122q20 0 25.5 5.5t5.5 25.5v132h193v-143q0 -79 -79 -79h-412q-79 0 -79 79
v464q0 79 79 79h412q79 0 79 -79v-145z" />
    <glyph glyph-name="Egrave" unicode="&#xc8;" horiz-adv-x="616" 
d="M407 668h-151l-172 151h185zM272 59h312v-59h-512v622h499v-59h-299v-215h258v-59h-258v-230z" />
    <glyph glyph-name="Eacute" unicode="&#xc9;" horiz-adv-x="616" 
d="M575 819l-172 -151h-151l138 151h185zM272 59h312v-59h-512v622h499v-59h-299v-215h258v-59h-258v-230z" />
    <glyph glyph-name="Ecircumflex" unicode="&#xca;" horiz-adv-x="616" 
d="M327 759l-89 -90h-178l180 156h174l180 -156h-177zM272 289v-230h312v-59h-512v622h499v-59h-299v-215h258v-59h-258z" />
    <glyph glyph-name="Edieresis" unicode="&#xcb;" horiz-adv-x="662" 
d="M570 789v-120h-196v120h196zM273 789v-120h-197v120h197zM272 59h313v-59h-513v622h499v-59h-299v-215h258v-59h-258v-230z" />
    <glyph glyph-name="Igrave" unicode="&#xcc;" horiz-adv-x="341" 
d="M75 622h200v-622h-200v622zM109 820l138 -151h-151l-172 151h185z" />
    <glyph glyph-name="Iacute" unicode="&#xcd;" horiz-adv-x="341" 
d="M75 622h200v-622h-200v622zM106 668l138 151h185l-172 -151h-151z" />
    <glyph glyph-name="Icircumflex" unicode="&#xce;" horiz-adv-x="341" 
d="M75 622h200v-622h-200v622zM-89 669l180 156h174l180 -156h-177l-90 90l-89 -90h-178z" />
    <glyph glyph-name="Idieresis" unicode="&#xcf;" horiz-adv-x="341" 
d="M76 622h199v-622h-199v622zM-70 788h197v-120h-197v120zM228 788h196v-120h-196v120z" />
    <glyph glyph-name="Eth" unicode="&#xd0;" horiz-adv-x="732" 
d="M475 90v442q0 20 -5.5 25.5t-25.5 5.5h-162v-217h120v-62h-120v-225h162q20 0 25.5 5.5t5.5 25.5zM88 622h501q79 0 79 -79v-464q0 -79 -79 -79h-501v284h-68v62h68v276z" />
    <glyph glyph-name="Ntilde" unicode="&#xd1;" horiz-adv-x="740" 
d="M488 622h179v-622h-166l-251 442v-442h-178v622h168l248 -443v443zM288 746q-19 0 -19 -21v-56h-148v64q0 78 76 78h61q43 0 113.5 -38t84.5 -38q20 0 20 21v55h147v-63q0 -79 -76 -79h-62q-33 0 -74 19.5t-74.5 38.5t-48.5 19z" />
    <glyph glyph-name="Ograve" unicode="&#xd2;" horiz-adv-x="705" 
d="M638 543v-464q0 -79 -79 -79h-414q-79 0 -79 79v464q0 79 79 79h414q79 0 79 -79zM446 90v442q0 20 -6 25.5t-25 5.5h-125q-20 0 -25.5 -5.5t-5.5 -25.5v-442q0 -20 5.5 -25.5t25.5 -5.5h125q19 0 25 5.5t6 25.5zM295 821l138 -151h-151l-172 151h185z" />
    <glyph glyph-name="Oacute" unicode="&#xd3;" horiz-adv-x="705" 
d="M285 669l138 151h185l-172 -151h-151zM638 543v-464q0 -79 -79 -79h-414q-79 0 -79 79v464q0 79 79 79h414q79 0 79 -79zM446 90v442q0 20 -6 25.5t-25 5.5h-125q-20 0 -25.5 -5.5t-5.5 -25.5v-442q0 -20 5.5 -25.5t25.5 -5.5h125q19 0 25 5.5t6 25.5z" />
    <glyph glyph-name="Ocircumflex" unicode="&#xd4;" horiz-adv-x="705" 
d="M86 669l180 156h174l180 -156h-177l-90 90l-89 -90h-178zM638 543v-464q0 -79 -79 -79h-414q-79 0 -79 79v464q0 79 79 79h414q79 0 79 -79zM446 90v442q0 20 -6 25.5t-25 5.5h-125q-20 0 -25.5 -5.5t-5.5 -25.5v-442q0 -20 5.5 -25.5t25.5 -5.5h125q19 0 25 5.5t6 25.5z
" />
    <glyph glyph-name="Otilde" unicode="&#xd5;" horiz-adv-x="705" 
d="M638 543v-464q0 -79 -79 -79h-414q-79 0 -79 79v464q0 79 79 79h414q79 0 79 -79zM446 90v442q0 20 -6 25.5t-25 5.5h-125q-20 0 -25.5 -5.5t-5.5 -25.5v-442q0 -20 5.5 -25.5t25.5 -5.5h125q19 0 25 5.5t6 25.5zM265 746q-19 0 -19 -21v-56h-148v64q0 78 76 78h61
q43 0 113.5 -38t84.5 -38q20 0 20 21v55h147v-63q0 -79 -76 -79h-62q-33 0 -74 19.5t-74.5 38.5t-48.5 19z" />
    <glyph glyph-name="Odieresis" unicode="&#xd6;" horiz-adv-x="690" 
d="M639 543v-464q0 -79 -79 -79h-415q-79 0 -79 79v464q0 79 79 79h415q79 0 79 -79zM446 90v442q0 20 -6 25.5t-25 5.5h-125q-20 0 -25.5 -5.5t-5.5 -25.5v-442q0 -20 5.5 -25.5t25.5 -5.5h125q19 0 25 5.5t6 25.5zM404 789h196v-119h-196v119zM106 789h197v-119h-197v119z
" />
    <glyph glyph-name="multiply" unicode="&#xd7;" horiz-adv-x="672" 
d="M619 436l-171 -124l169 -123l-80 -84l-188 136l-188 -136l-79 85l168 122l-170 123l80 86l189 -137l189 137z" />
    <glyph glyph-name="Oslash" unicode="&#xd8;" horiz-adv-x="719" 
d="M462 89v294l-207 -264v-30q0 -19 5.5 -25t25.5 -6h145q19 0 25 6t6 25zM255 533v-303l207 264v39q0 19 -6 25t-25 6h-145q-20 0 -25.5 -6t-5.5 -25zM648 543v-464q0 -79 -79 -79h-407l-26 -33h-87l41 52q-20 20 -20 60v464q0 79 79 79h413l26 33h87l-44 -56
q17 -20 17 -56z" />
    <glyph glyph-name="Ugrave" unicode="&#xd9;" horiz-adv-x="717" 
d="M262 622v-532q0 -20 6 -25.5t25 -5.5h131q20 0 25.5 5.5t5.5 25.5v532h193v-543q0 -79 -79 -79h-421q-79 0 -79 79v543h193zM305 821l138 -151h-151l-172 151h185z" />
    <glyph glyph-name="Uacute" unicode="&#xda;" horiz-adv-x="717" 
d="M286 669l138 151h185l-172 -151h-151zM262 622v-532q0 -20 6 -25.5t25 -5.5h131q20 0 25.5 5.5t5.5 25.5v532h193v-543q0 -79 -79 -79h-421q-79 0 -79 79v543h193z" />
    <glyph glyph-name="Ucircumflex" unicode="&#xdb;" horiz-adv-x="717" 
d="M90 669l180 156h174l180 -156h-177l-90 90l-89 -90h-178zM262 622v-532q0 -20 6 -25.5t25 -5.5h131q20 0 25.5 5.5t5.5 25.5v532h193v-543q0 -79 -79 -79h-421q-79 0 -79 79v543h193z" />
    <glyph glyph-name="Udieresis" unicode="&#xdc;" horiz-adv-x="717" 
d="M455 622h193v-543q0 -79 -79 -79h-422q-79 0 -79 79v543h193v-532q0 -20 5.5 -25.5t25.5 -5.5h132q20 0 25.5 5.5t5.5 25.5v532zM109 789h196v-120h-196v120zM406 789h197v-120h-197v120z" />
    <glyph glyph-name="Yacute" unicode="&#xdd;" horiz-adv-x="695" 
d="M599 820l-172 -151h-151l138 151h185zM450 0h-193v205l-254 417h190l159 -313l151 313h188l-241 -416v-206z" />
    <glyph glyph-name="Thorn" unicode="&#xde;" horiz-adv-x="698" 
d="M456 192v238q0 20 -6 25.5t-25 5.5h-155v-300h155q19 0 25 5.5t6 25.5zM270 520h300q79 0 79 -79v-260q0 -79 -79 -79h-300v-102h-193v622h193v-102z" />
    <glyph glyph-name="germandbls" unicode="&#xdf;" horiz-adv-x="902" 
d="M350 160h183v-70q0 -20 5.5 -25.5t25.5 -5.5h91q19 0 25 5.5t6 25.5v111q0 19 -6 25t-25 6h-223q-79 0 -79 79v69q0 79 78 79h149q21 0 27 5t6 24v43q0 19 -5.5 25t-25.5 6h-286q-20 0 -25.5 -6t-5.5 -25v-531h-188v543q0 79 79 79h575q79 0 79 -79v-69q0 -74 -76 -74
h-170q-20 0 -25.5 -6t-5.5 -25v-47q0 -20 5.5 -25.5t25.5 -5.5h226q79 0 79 -79v-133q0 -79 -79 -79h-361q-79 0 -79 79v81z" />
    <glyph glyph-name="agrave" unicode="&#xe0;" horiz-adv-x="657" 
d="M436 532h-151l-172 151h185zM271 59h98q36 0 36 31v305q0 31 -36 31h-98q-19 0 -25 -6t-6 -25v-305q0 -20 6 -25.5t25 -5.5zM405 485h184v-485h-184v29q-14 -29 -57 -29h-213q-79 0 -79 79v327q0 79 79 79h213q43 0 57 -29v29z" />
    <glyph glyph-name="aacute" unicode="&#xe1;" horiz-adv-x="657" 
d="M580 683l-172 -151h-151l138 151h185zM271 59h98q36 0 36 31v305q0 31 -36 31h-98q-19 0 -25 -6t-6 -25v-305q0 -20 6 -25.5t25 -5.5zM405 485h184v-485h-184v29q-14 -29 -57 -29h-213q-79 0 -79 79v327q0 79 79 79h213q43 0 57 -29v29z" />
    <glyph glyph-name="acircumflex" unicode="&#xe2;" horiz-adv-x="657" 
d="M328 622l-89 -90h-178l180 156h174l180 -156h-177zM271 59h98q36 0 36 31v305q0 31 -36 31h-98q-19 0 -25 -6t-6 -25v-305q0 -20 6 -25.5t25 -5.5zM405 485h184v-485h-184v29q-14 -29 -57 -29h-213q-79 0 -79 79v327q0 79 79 79h213q43 0 57 -29v29z" />
    <glyph glyph-name="atilde" unicode="&#xe3;" horiz-adv-x="657" 
d="M224 588v-56h-148v64q0 78 76 78h61q43 0 113.5 -38t84.5 -38q20 0 20 21v55h147v-63q0 -79 -76 -79h-62q-50 0 -148 58q-34 19 -49 19q-19 0 -19 -21zM271 59h98q36 0 36 31v305q0 31 -36 31h-98q-19 0 -25 -6t-6 -25v-305q0 -20 6 -25.5t25 -5.5zM405 485h184v-485
h-184v29q-14 -29 -57 -29h-213q-79 0 -79 79v327q0 79 79 79h213q43 0 57 -29v29z" />
    <glyph glyph-name="adieresis" unicode="&#xe4;" horiz-adv-x="657" 
d="M586 651v-120h-197v120h197zM288 651v-120h-197v120h197zM271 59h98q36 0 36 31v305q0 31 -36 31h-98q-19 0 -25 -6t-6 -25v-305q0 -20 6 -25.5t25 -5.5zM405 485h184v-485h-184v29q-14 -29 -57 -29h-213q-79 0 -79 79v327q0 79 79 79h213q43 0 57 -29v29z" />
    <glyph glyph-name="aring" unicode="&#xe5;" horiz-adv-x="657" 
d="M258 630v-13q0 -19 5.5 -24.5t24.5 -5.5h78q19 0 24.5 5.5t5.5 24.5v13q0 19 -5.5 24.5t-24.5 5.5h-78q-19 0 -24.5 -5.5t-5.5 -24.5zM439 532h-224q-74 0 -74 75v34q0 74 74 74h224q74 0 74 -74v-34q0 -75 -74 -75zM271 59h98q36 0 36 31v305q0 31 -36 31h-98
q-19 0 -25 -6t-6 -25v-305q0 -20 6 -25.5t25 -5.5zM405 485h184v-485h-184v29q-14 -29 -57 -29h-213q-79 0 -79 79v327q0 79 79 79h213q43 0 57 -29v29z" />
    <glyph glyph-name="ae" unicode="&#xe6;" horiz-adv-x="1011" 
d="M731 426h-119q-20 0 -25.5 -6t-5.5 -25v-117h181v117q0 19 -6 25t-25 6zM275 59h95q19 0 25.5 6t6.5 25v125l-158 -37v-88q0 -20 6 -25.5t25 -5.5zM937 219h-356v-129q0 -20 5.5 -25.5t25.5 -5.5h117q19 0 25 5.5t6 25.5v63h179v-74q0 -79 -79 -79h-273q-52 0 -70.5 8.5
t-24.5 28.5q-6 -19 -29.5 -28t-77.5 -9h-246q-79 0 -79 79v122l342 79v117q0 18 -6.5 24t-25.5 6h-95q-19 0 -25 -5.5t-6 -25.5v-93h-184v103q0 79 79 79h246q54 0 77.5 -9t29.5 -28q6 20 24.5 28.5t70.5 8.5h275q79 0 79 -79v-183h-4v-4z" />
    <glyph glyph-name="ccedilla" unicode="&#xe7;" horiz-adv-x="618" 
d="M234 -148v101h173v-110q0 -82 -82 -82h-217v58h94q19 0 25.5 6.5t6.5 26.5zM578 312h-179v83q0 19 -5.5 25t-25.5 6h-97q-19 0 -25 -6t-6 -25v-305q0 -20 6 -25.5t25 -5.5h97q20 0 25.5 5.5t5.5 25.5v81h179v-92q0 -79 -79 -79h-364q-79 0 -79 79v327q0 79 79 79h364
q79 0 79 -79v-94z" />
    <glyph glyph-name="egrave" unicode="&#xe8;" horiz-adv-x="647" 
d="M410 532h-151l-172 151h185zM240 278h181v117q0 19 -5.5 25t-25.5 6h-119q-19 0 -25 -6t-6 -25v-117zM135 485h385q79 0 79 -79v-187h-359v-129q0 -20 6 -25.5t25 -5.5h118q19 0 25 5.5t6 25.5v64h178v-75q0 -79 -79 -79h-384q-79 0 -79 79v327q0 79 79 79z" />
    <glyph glyph-name="eacute" unicode="&#xe9;" horiz-adv-x="647" 
d="M581 683l-172 -151h-151l138 151h185zM240 278h181v117q0 19 -5.5 25t-25.5 6h-119q-19 0 -25 -6t-6 -25v-117zM135 485h385q79 0 79 -79v-187h-359v-129q0 -20 6 -25.5t25 -5.5h118q19 0 25 5.5t6 25.5v64h178v-75q0 -79 -79 -79h-384q-79 0 -79 79v327q0 79 79 79z" />
    <glyph glyph-name="ecircumflex" unicode="&#xea;" horiz-adv-x="647" 
d="M330 622l-89 -90h-178l180 156h174l180 -156h-177zM240 278h181v117q0 19 -5.5 25t-25.5 6h-119q-19 0 -25 -6t-6 -25v-117zM135 485h385q79 0 79 -79v-187h-359v-129q0 -20 6 -25.5t25 -5.5h118q19 0 25 5.5t6 25.5v64h178v-75q0 -79 -79 -79h-384q-79 0 -79 79v327
q0 79 79 79z" />
    <glyph glyph-name="edieresis" unicode="&#xeb;" horiz-adv-x="647" 
d="M280 652v-120h-196v120h196zM578 652v-120h-197v120h197zM135 485h385q79 0 79 -79v-187h-359v-129q0 -20 6 -25.5t25 -5.5h118q19 0 25 5.5t6 25.5v64h178v-75q0 -79 -79 -79h-384q-79 0 -79 79v327q0 79 79 79zM240 278h181v117q0 19 -5.5 25t-25.5 6h-119
q-19 0 -25 -6t-6 -25v-117z" />
    <glyph glyph-name="igrave" unicode="&#xec;" horiz-adv-x="328" 
d="M256 0h-184v485h184v-485zM95 683l138 -151h-151l-172 151h185z" />
    <glyph glyph-name="iacute" unicode="&#xed;" horiz-adv-x="328" 
d="M256 0h-184v485h184v-485zM94 532l138 151h185l-172 -151h-151z" />
    <glyph glyph-name="icircumflex" unicode="&#xee;" horiz-adv-x="328" 
d="M256 0h-184v484h184v-484zM-101 532l180 156h174l180 -156h-177l-90 90l-89 -90h-178z" />
    <glyph glyph-name="idieresis" unicode="&#xef;" horiz-adv-x="328" 
d="M256 0h-184v484h184v-484zM215 653h197v-120h-197v120zM-83 653h197v-120h-197v120z" />
    <glyph glyph-name="eth" unicode="&#xf0;" horiz-adv-x="582" 
d="M438 90v226h-159q-19 0 -25 -6t-6 -25v-195q0 -20 6 -25.5t25 -5.5h128q19 0 25 5.5t6 25.5zM622 305v-226q0 -79 -79 -79h-400q-79 0 -79 79v217q0 79 79 79h284q-16 49 -60 98l-161 -37v62l108 25q-56 46 -159 99h252q39 -23 82 -59l115 26v-62l-65 -15q83 -96 83 -207
z" />
    <glyph glyph-name="ntilde" unicode="&#xf1;" horiz-adv-x="662" 
d="M230 587v-56h-148v64q0 78 76 78h61q43 0 113.5 -38t84.5 -38q20 0 20 21v55h147v-63q0 -79 -76 -79h-62q-33 0 -74 19.5t-74.5 38.5t-48.5 19q-19 0 -19 -21zM310 485h213q79 0 79 -79v-406h-184v395q0 19 -6 25t-25 6h-98q-36 0 -36 -31v-395h-184v485h184v-29
q14 29 57 29z" />
    <glyph glyph-name="ograve" unicode="&#xf2;" horiz-adv-x="657" 
d="M408 531h-151l-172 151h185zM413 90v305q0 19 -5.5 25t-25.5 6h-108q-20 0 -25.5 -6t-5.5 -25v-305q0 -20 5.5 -25.5t25.5 -5.5h108q20 0 25.5 5.5t5.5 25.5zM139 485h378q79 0 79 -79v-327q0 -79 -79 -79h-378q-79 0 -79 79v327q0 79 79 79z" />
    <glyph glyph-name="oacute" unicode="&#xf3;" horiz-adv-x="657" 
d="M587 682l-172 -151h-151l138 151h185zM413 90v305q0 19 -5.5 25t-25.5 6h-108q-20 0 -25.5 -6t-5.5 -25v-305q0 -20 5.5 -25.5t25.5 -5.5h108q20 0 25.5 5.5t5.5 25.5zM139 485h378q79 0 79 -79v-327q0 -79 -79 -79h-378q-79 0 -79 79v327q0 79 79 79z" />
    <glyph glyph-name="ocircumflex" unicode="&#xf4;" horiz-adv-x="657" 
d="M330 623l-89 -90h-178l180 156h174l180 -156h-177zM413 90v305q0 19 -5.5 25t-25.5 6h-108q-20 0 -25.5 -6t-5.5 -25v-305q0 -20 5.5 -25.5t25.5 -5.5h108q20 0 25.5 5.5t5.5 25.5zM139 485h378q79 0 79 -79v-327q0 -79 -79 -79h-378q-79 0 -79 79v327q0 79 79 79z" />
    <glyph glyph-name="otilde" unicode="&#xf5;" horiz-adv-x="657" 
d="M226 588v-56h-148v64q0 78 76 78h61q43 0 113.5 -38t84.5 -38q20 0 20 21v55h147v-63q0 -79 -76 -79h-62q-50 0 -148 58q-34 19 -49 19q-19 0 -19 -21zM413 90v305q0 19 -5.5 25t-25.5 6h-108q-20 0 -25.5 -6t-5.5 -25v-305q0 -20 5.5 -25.5t25.5 -5.5h108q20 0 25.5 5.5
t5.5 25.5zM139 485h378q79 0 79 -79v-327q0 -79 -79 -79h-378q-79 0 -79 79v327q0 79 79 79z" />
    <glyph glyph-name="odieresis" unicode="&#xf6;" horiz-adv-x="657" 
d="M139 485h379q79 0 79 -79v-327q0 -79 -79 -79h-379q-79 0 -79 79v327q0 79 79 79zM413 395q0 19 -5.5 25t-25.5 6h-107q-19 0 -25 -6t-6 -25v-305q0 -20 6 -25.5t25 -5.5h107q20 0 25.5 5.5t5.5 25.5v305zM85 652h196v-120h-196v120zM382 652h197v-120h-197v120z" />
    <glyph glyph-name="divide" unicode="&#xf7;" horiz-adv-x="711" 
d="M42 253v114h609v-114h-609zM251 514h191v-94h-191v94zM251 200h191v-94h-191v94z" />
    <glyph glyph-name="oslash" unicode="&#xf8;" horiz-adv-x="664" 
d="M424 89v203l-184 -203q0 -20 6 -26t26 -6h121q20 0 25.5 6t5.5 26zM240 397v-209l184 202v7q0 19 -6 25t-25 6h-121q-20 0 -26 -5.5t-6 -25.5zM600 406v-327q0 -79 -79 -79h-362l-30 -33h-90l46 51q-21 20 -21 61v327q0 79 79 79h368l29 32h89l-48 -53q19 -19 19 -58z
" />
    <glyph glyph-name="ugrave" unicode="&#xf9;" horiz-adv-x="662" 
d="M421 532h-151l-172 151h185zM409 485h184v-485h-184v29q-14 -29 -57 -29h-213q-79 0 -79 79v406h184v-395q0 -20 6 -25.5t25 -5.5h98q36 0 36 31v395z" />
    <glyph glyph-name="uacute" unicode="&#xfa;" horiz-adv-x="662" 
d="M574 684l-172 -151h-151l138 151h185zM409 485h184v-485h-184v29q-14 -29 -57 -29h-213q-79 0 -79 79v406h184v-395q0 -20 6 -25.5t25 -5.5h98q36 0 36 31v395z" />
    <glyph glyph-name="ucircumflex" unicode="&#xfb;" horiz-adv-x="662" 
d="M327 622l-89 -90h-178l180 156h174l180 -156h-177zM409 485h184v-485h-184v29q-14 -29 -57 -29h-213q-79 0 -79 79v406h184v-395q0 -20 6 -25.5t25 -5.5h98q36 0 36 31v395z" />
    <glyph glyph-name="udieresis" unicode="&#xfc;" horiz-adv-x="677" 
d="M574 652v-120h-196v120h196zM277 652v-120h-197v120h197zM410 485h184v-485h-184v30q-12 -30 -57 -30h-214q-79 0 -79 79v406h184v-395q0 -20 6 -25.5t25 -5.5h98q37 0 37 31v395z" />
    <glyph glyph-name="yacute" unicode="&#xfd;" horiz-adv-x="626" 
d="M236 -141h-127v59h67q36 0 54.5 11t29.5 37l15 34h-70l-192 485h192l116 -366l118 366h185l-200 -501q-13 -34 -25.5 -54t-32.5 -38q-38 -33 -130 -33zM251 533l138 151h185l-172 -151h-151z" />
    <glyph glyph-name="thorn" unicode="&#xfe;" horiz-adv-x="662" 
d="M417 100v304q0 20 -5.5 25.5t-25.5 5.5h-98q-36 0 -36 -31v-304q0 -31 36 -31h98q20 0 25.5 5.5t5.5 25.5zM308 494h214q79 0 79 -79v-326q0 -79 -79 -79h-214q-44 0 -56 28v-179h-184v810h180v-215q11 40 60 40z" />
    <glyph glyph-name="ydieresis" unicode="&#xff;" horiz-adv-x="658" 
d="M236 -141h-127v59h66q36 0 55 11t30 37l15 34h-70l-192 485h191l116 -366l119 366h184l-199 -501q-13 -34 -25.5 -54t-32.5 -38q-38 -33 -130 -33zM376 651h197v-120h-197v120zM79 651h196v-120h-196v120z" />
    <glyph glyph-name="Amacron" unicode="&#x100;" horiz-adv-x="735" 
d="M609 727v-58h-474v58h474zM259 182h215l-107 326zM533 0l-40 123h-253l-41 -123h-186l236 622h237l237 -622h-190z" />
    <glyph glyph-name="amacron" unicode="&#x101;" horiz-adv-x="657" 
d="M560 596v-58h-474v58h474zM271 59h98q36 0 36 31v305q0 31 -36 31h-98q-19 0 -25 -6t-6 -25v-305q0 -20 6 -25.5t25 -5.5zM405 485h184v-485h-184v29q-14 -29 -57 -29h-213q-79 0 -79 79v327q0 79 79 79h213q43 0 57 -29v29z" />
    <glyph glyph-name="Abreve" unicode="&#x102;" horiz-adv-x="735" 
d="M536 669h-338q-79 0 -79 79v64h163v-54q0 -20 6 -25.5t25 -5.5h109q20 0 25.5 5.5t5.5 25.5v54h162v-64q0 -79 -79 -79zM259 182h215l-107 326zM533 0l-40 123h-253l-41 -123h-186l236 622h237l237 -622h-190z" />
    <glyph glyph-name="abreve" unicode="&#x103;" horiz-adv-x="657" 
d="M497 532h-338q-79 0 -79 79v64h163v-54q0 -19 5.5 -25t25.5 -6h109q19 0 25 6t6 25v54h162v-64q0 -79 -79 -79zM271 59h98q36 0 36 31v305q0 31 -36 31h-98q-19 0 -25 -6t-6 -25v-305q0 -20 6 -25.5t25 -5.5zM405 485h184v-485h-184v29q-14 -29 -57 -29h-213
q-79 0 -79 79v327q0 79 79 79h213q43 0 57 -29v29z" />
    <glyph glyph-name="Aogonek" unicode="&#x104;" horiz-adv-x="735" 
d="M259 182h215l-107 326zM579 -195h160v-57h-244q-79 0 -79 79v61q0 79 79 79h38v33l-40 123h-253l-41 -123h-186l236 622h237l237 -622h-7v-90h-137q-20 0 -25.5 -5.5t-5.5 -24.5v-44q0 -20 6 -25.5t25 -5.5z" />
    <glyph glyph-name="aogonek" unicode="&#x105;" horiz-adv-x="657" 
d="M271 59h98q36 0 36 31v305q0 31 -36 31h-98q-19 0 -25 -6t-6 -25v-305q0 -20 6 -25.5t25 -5.5zM451 -195h160v-57h-244q-79 0 -79 79v61q0 79 79 79h38v62q-14 -29 -57 -29h-213q-79 0 -79 79v327q0 79 79 79h213q43 0 57 -29v29h184v-485h-1v-90h-137q-20 0 -25.5 -5.5
t-5.5 -24.5v-44q0 -20 6 -25.5t25 -5.5z" />
    <glyph glyph-name="Cacute" unicode="&#x106;" horiz-adv-x="678" 
d="M593 820l-172 -151h-151l138 151h185zM634 398h-193v134q0 20 -5.5 25.5t-25.5 5.5h-122q-20 0 -25.5 -5.5t-5.5 -25.5v-442q0 -20 5.5 -25.5t25.5 -5.5h122q20 0 25.5 5.5t5.5 25.5v132h193v-143q0 -79 -79 -79h-412q-79 0 -79 79v464q0 79 79 79h412q79 0 79 -79v-145z
" />
    <glyph glyph-name="cacute" unicode="&#x107;" horiz-adv-x="618" 
d="M571 683l-172 -151h-151l138 151h185zM578 312h-179v83q0 19 -5.5 25t-25.5 6h-97q-19 0 -25 -6t-6 -25v-305q0 -20 6 -25.5t25 -5.5h97q20 0 25.5 5.5t5.5 25.5v81h179v-92q0 -79 -79 -79h-364q-79 0 -79 79v327q0 79 79 79h364q79 0 79 -79v-94z" />
    <glyph glyph-name="Ccaron" unicode="&#x10c;" horiz-adv-x="678" 
d="M435 669h-174l-180 155h178l89 -90l90 90h177zM634 398h-193v134q0 20 -5.5 25.5t-25.5 5.5h-122q-20 0 -25.5 -5.5t-5.5 -25.5v-442q0 -20 5.5 -25.5t25.5 -5.5h122q20 0 25.5 5.5t5.5 25.5v132h193v-143q0 -79 -79 -79h-412q-79 0 -79 79v464q0 79 79 79h412
q79 0 79 -79v-145z" />
    <glyph glyph-name="ccaron" unicode="&#x10d;" horiz-adv-x="618" 
d="M398 532h-174l-180 155h178l89 -90l90 90h177zM135 485h364q79 0 79 -79v-94h-179v83q0 19 -5.5 25t-25.5 6h-97q-19 0 -25 -6t-6 -25v-305q0 -20 6 -25.5t25 -5.5h97q20 0 25.5 5.5t5.5 25.5v81h179v-92q0 -79 -79 -79h-364q-79 0 -79 79v327q0 79 79 79z" />
    <glyph glyph-name="Dcaron" unicode="&#x10e;" horiz-adv-x="727" 
d="M443 669h-174l-180 155h178l89 -90l90 90h177zM468 90v442q0 20 -6 25.5t-25 5.5h-163v-504h163q19 0 25 5.5t6 25.5zM81 622h501q79 0 79 -79v-464q0 -79 -79 -79h-501v622z" />
    <glyph glyph-name="dcaron" unicode="&#x10f;" horiz-adv-x="694" 
d="M405 669h184v-669h-184v28q-13 -28 -57 -28h-213q-79 0 -79 79v327q0 79 79 79h213q44 0 57 -28v212zM659 669h139v-63l-91 -129h-48v192zM271 59h98q36 0 36 31v305q0 31 -36 31h-98q-19 0 -25 -6t-6 -25v-305q0 -20 6 -25.5t25 -5.5z" />
    <glyph glyph-name="Dcroat" unicode="&#x110;" horiz-adv-x="756" 
d="M490 90v442q0 20 -6 25.5t-25 5.5h-162v-217h120v-62h-120v-225h162q19 0 25 5.5t6 25.5zM104 622h500q79 0 79 -79v-464q0 -79 -79 -79h-500v284h-68v62h68v276z" />
    <glyph glyph-name="dcroat" unicode="&#x111;" horiz-adv-x="662" 
d="M275 59h98q37 0 37 31v305q0 31 -37 31h-98q-19 0 -25 -6t-6 -25v-305q0 -20 6 -25.5t25 -5.5zM663 599v-59h-69v-540h-184v30q-12 -30 -57 -30h-214q-79 0 -79 79v327q0 79 79 79h214q45 0 57 -30v85h-150v59h150v70h184v-70h69z" />
    <glyph glyph-name="Emacron" unicode="&#x112;" horiz-adv-x="616" 
d="M559 727v-58h-474v58h474zM272 59h312v-59h-512v622h499v-59h-299v-215h258v-59h-258v-230z" />
    <glyph glyph-name="emacron" unicode="&#x113;" horiz-adv-x="647" 
d="M565 596v-58h-474v58h474zM240 278h181v117q0 19 -5.5 25t-25.5 6h-119q-19 0 -25 -6t-6 -25v-117zM135 485h385q79 0 79 -79v-187h-359v-129q0 -20 6 -25.5t25 -5.5h118q19 0 25 5.5t6 25.5v64h178v-75q0 -79 -79 -79h-384q-79 0 -79 79v327q0 79 79 79z" />
    <glyph glyph-name="Edotaccent" unicode="&#x116;" horiz-adv-x="616" 
d="M433 792v-123h-191v123h191zM272 59h312v-59h-512v622h499v-59h-299v-215h258v-59h-258v-230z" />
    <glyph glyph-name="edotaccent" unicode="&#x117;" horiz-adv-x="647" 
d="M427 655v-123h-191v123h191zM240 278h181v117q0 19 -5.5 25t-25.5 6h-119q-19 0 -25 -6t-6 -25v-117zM135 485h385q79 0 79 -79v-187h-359v-129q0 -20 6 -25.5t25 -5.5h118q19 0 25 5.5t6 25.5v64h178v-75q0 -79 -79 -79h-384q-79 0 -79 79v327q0 79 79 79z" />
    <glyph glyph-name="Eogonek" unicode="&#x118;" horiz-adv-x="616" 
d="M448 -195h160v-57h-244q-79 0 -79 79v61q0 79 79 79h38v33h-330v622h499v-59h-299v-215h258v-59h-258v-230h312v-45h1v-104h-137q-20 0 -25.5 -5.5t-5.5 -24.5v-44q0 -20 5.5 -25.5t25.5 -5.5z" />
    <glyph glyph-name="eogonek" unicode="&#x119;" horiz-adv-x="647" 
d="M240 278h181v117q0 19 -5.5 25t-25.5 6h-119q-19 0 -25 -6t-6 -25v-117zM135 485h385q79 0 79 -79v-187h-359v-129q0 -20 6 -25.5t25 -5.5h118q19 0 25 5.5t6 25.5v64h178v-75q0 -79 -79 -79h-95v-90h-137q-20 0 -25.5 -5.5t-5.5 -24.5v-44q0 -20 6 -25.5t25 -5.5h160
v-57h-244q-79 0 -79 79v61q0 79 79 79h38v33h-106q-79 0 -79 79v327q0 79 79 79z" />
    <glyph glyph-name="Ecaron" unicode="&#x11a;" horiz-adv-x="616" 
d="M421 669h-174l-180 155h178l89 -90l90 90h177zM272 289v-230h312v-59h-512v622h499v-59h-299v-215h258v-59h-258z" />
    <glyph glyph-name="ecaron" unicode="&#x11b;" horiz-adv-x="647" 
d="M414 532h-174l-180 155h178l89 -90l90 90h177zM240 278h181v117q0 19 -5.5 25t-25.5 6h-119q-19 0 -25 -6t-6 -25v-117zM135 485h385q79 0 79 -79v-187h-359v-129q0 -20 6 -25.5t25 -5.5h118q19 0 25 5.5t6 25.5v64h178v-75q0 -79 -79 -79h-384q-79 0 -79 79v327
q0 79 79 79z" />
    <glyph glyph-name="Gbreve" unicode="&#x11e;" horiz-adv-x="691" 
d="M516 669h-338q-79 0 -79 79v64h163v-54q0 -20 6 -25.5t25 -5.5h109q20 0 25.5 5.5t5.5 25.5v54h162v-64q0 -79 -79 -79zM635 418h-193v114q0 20 -6 25.5t-25 5.5h-123q-20 0 -25.5 -5.5t-5.5 -25.5v-442q0 -20 5.5 -25.5t25.5 -5.5h123q19 0 25 5.5t6 25.5v171h-102v59
h295v-241q0 -79 -79 -79h-413q-79 0 -79 79v464q0 79 79 79h413q79 0 79 -79v-125z" />
    <glyph glyph-name="gbreve" unicode="&#x11f;" horiz-adv-x="654" 
d="M499 532h-338q-79 0 -79 79v64h163v-54q0 -19 5.5 -25t25.5 -6h109q19 0 25 6t6 25v54h162v-64q0 -79 -79 -79zM271 59h98q36 0 36 31v305q0 31 -36 31h-98q-19 0 -25 -6t-6 -25v-305q0 -20 6 -25.5t25 -5.5zM589 30h1v-92q0 -79 -79 -79h-428v59h292q19 0 25 6t6 25v73
h-1v7q-14 -29 -57 -29h-213q-79 0 -79 79v327q0 79 79 79h213q43 0 57 -29v29h184v-455z" />
    <glyph glyph-name="uni0122" unicode="&#x122;" horiz-adv-x="691" 
d="M258 -264v217h184v-69l-126 -148h-58zM635 418h-193v114q0 20 -6 25.5t-25 5.5h-123q-20 0 -25.5 -5.5t-5.5 -25.5v-442q0 -20 5.5 -25.5t25.5 -5.5h123q19 0 25 5.5t6 25.5v171h-102v59h295v-241q0 -79 -79 -79h-413q-79 0 -79 79v464q0 79 79 79h413q79 0 79 -79v-125z
" />
    <glyph glyph-name="uni0123" unicode="&#x123;" horiz-adv-x="654" 
d="M445 749v-217h-184v69l126 148h58zM276 59h98q36 0 36 31v305q0 31 -36 31h-98q-20 0 -25.5 -6t-5.5 -25v-305q0 -20 5.5 -25.5t25.5 -5.5zM594 30h1v-92q0 -79 -79 -79h-428v59h292q20 0 25.5 6t5.5 25v73h-1v7q-14 -29 -57 -29h-213q-79 0 -79 79v327q0 79 79 79h213
q43 0 57 -29v29h184v-455z" />
    <glyph glyph-name="Imacron" unicode="&#x12a;" horiz-adv-x="341" 
d="M75 622h200v-622h-200v622zM-59 669v58h474v-58h-474z" />
    <glyph glyph-name="imacron" unicode="&#x12b;" horiz-adv-x="328" 
d="M256 0h-184v485h184v-485zM-71 538v58h474v-58h-474z" />
    <glyph glyph-name="Iogonek" unicode="&#x12e;" horiz-adv-x="341" 
d="M137 -195h160v-57h-244q-79 0 -79 79v61q0 79 79 79h38v33h-16v622h200v-622h-1v-90h-137q-20 0 -25.5 -5.5t-5.5 -24.5v-44q0 -20 6 -25.5t25 -5.5z" />
    <glyph glyph-name="iogonek" unicode="&#x12f;" horiz-adv-x="328" 
d="M260 669v-111h-191v111h191zM118 -195h160v-57h-244q-79 0 -79 79v61q0 79 79 79h38v518h184v-485h-1v-90h-137q-20 0 -25.5 -5.5t-5.5 -24.5v-44q0 -20 5.5 -25.5t25.5 -5.5z" />
    <glyph glyph-name="Idotaccent" unicode="&#x130;" horiz-adv-x="333" 
d="M72 572h199v-572h-199v572zM74 742h191v-123h-191v123z" />
    <glyph glyph-name="dotlessi" unicode="&#x131;" horiz-adv-x="328" 
d="M71 485h184v-485h-184v485z" />
    <glyph glyph-name="uni0136" unicode="&#x136;" horiz-adv-x="718" 
d="M72 622h188v-622h-188v622zM490 622h208l-225 -304l231 -318h-209l-224 318zM272 -264v217h184v-69l-126 -148h-58z" />
    <glyph glyph-name="uni0137" unicode="&#x137;" horiz-adv-x="646" 
d="M253 669v-669h-184v669h184zM239 -264v217h184v-69l-126 -148h-58zM637 485l-187 -240l187 -245h-194l-179 245l180 240h193z" />
    <glyph glyph-name="Lacute" unicode="&#x139;" horiz-adv-x="568" 
d="M423 819l-172 -151h-151l138 151h185zM265 59h291v-59h-484v622h193v-563z" />
    <glyph glyph-name="lacute" unicode="&#x13a;" horiz-adv-x="328" 
d="M95 716l138 151h185l-172 -151h-151zM255 0h-183v669h183v-669z" />
    <glyph glyph-name="uni013B" unicode="&#x13b;" horiz-adv-x="568" 
d="M217 -264v217h184v-69l-126 -148h-58zM265 59h291v-59h-484v622h193v-563z" />
    <glyph glyph-name="uni013C" unicode="&#x13c;" horiz-adv-x="328" 
d="M255 0h-183v669h183v-669zM70 -264v217h184v-69l-126 -148h-58z" />
    <glyph glyph-name="Lcaron" unicode="&#x13d;" horiz-adv-x="568" 
d="M254 670h-174l-180 155h178l89 -90l90 90h177zM265 59h291v-59h-484v622h193v-563z" />
    <glyph glyph-name="lcaron" unicode="&#x13e;" horiz-adv-x="373" 
d="M72 669h184v-669h-184v669zM326 669h140v-63l-92 -130h-48v193z" />
    <glyph glyph-name="Lslash" unicode="&#x141;" horiz-adv-x="585" 
d="M274 59h291v-59h-484v235l-124 -41v68l124 41v319h193v-255l156 52v-68l-156 -52v-240z" />
    <glyph glyph-name="lslash" unicode="&#x142;" horiz-adv-x="337" 
d="M260 0h-183v281l-130 -43v67l130 43v321h183v-260l137 46v-68l-137 -45v-342z" />
    <glyph glyph-name="Nacute" unicode="&#x143;" horiz-adv-x="740" 
d="M296 668l138 151h185l-172 -151h-151zM488 622h179v-622h-166l-251 442v-442h-178v622h168l248 -443v443z" />
    <glyph glyph-name="nacute" unicode="&#x144;" horiz-adv-x="662" 
d="M600 683l-172 -151h-151l138 151h185zM310 485h213q79 0 79 -79v-406h-184v395q0 19 -6 25t-25 6h-98q-36 0 -36 -31v-395h-184v485h184v-29q14 29 57 29z" />
    <glyph glyph-name="uni0145" unicode="&#x145;" horiz-adv-x="740" 
d="M488 622h179v-622h-166l-251 442v-442h-178v622h168l248 -443v443zM282 -264v217h184v-69l-126 -148h-58z" />
    <glyph glyph-name="uni0146" unicode="&#x146;" horiz-adv-x="662" 
d="M247 -264v217h184v-69l-126 -148h-58zM310 485h213q79 0 79 -79v-406h-184v395q0 19 -6 25t-25 6h-98q-36 0 -36 -31v-395h-184v485h184v-29q14 29 57 29z" />
    <glyph glyph-name="Ncaron" unicode="&#x147;" horiz-adv-x="740" 
d="M284 669l-180 155h178l89 -90l90 90h177l-180 -155h-174zM488 622h179v-622h-166l-251 442v-442h-178v622h168l248 -443v443z" />
    <glyph glyph-name="ncaron" unicode="&#x148;" horiz-adv-x="662" 
d="M421 532h-174l-180 155h178l89 -90l90 90h177zM310 485h213q79 0 79 -79v-406h-184v395q0 19 -6 25t-25 6h-98q-36 0 -36 -31v-395h-184v485h184v-29q14 29 57 29z" />
    <glyph glyph-name="Omacron" unicode="&#x14c;" horiz-adv-x="705" 
d="M114 669v58h474v-58h-474zM638 543v-464q0 -79 -79 -79h-414q-79 0 -79 79v464q0 79 79 79h414q79 0 79 -79zM446 90v442q0 20 -6 25.5t-25 5.5h-125q-20 0 -25.5 -5.5t-5.5 -25.5v-442q0 -20 5.5 -25.5t25.5 -5.5h125q19 0 25 5.5t6 25.5z" />
    <glyph glyph-name="omacron" unicode="&#x14d;" horiz-adv-x="657" 
d="M564 596v-58h-474v58h474zM413 90v305q0 19 -5.5 25t-25.5 6h-108q-20 0 -25.5 -6t-5.5 -25v-305q0 -20 5.5 -25.5t25.5 -5.5h108q20 0 25.5 5.5t5.5 25.5zM139 485h378q79 0 79 -79v-327q0 -79 -79 -79h-378q-79 0 -79 79v327q0 79 79 79z" />
    <glyph glyph-name="Ohungarumlaut" unicode="&#x150;" horiz-adv-x="690" 
d="M145 622h415q79 0 79 -79v-464q0 -79 -79 -79h-415q-79 0 -79 79v464q0 79 79 79zM446 532q0 20 -6 25.5t-25 5.5h-125q-20 0 -25.5 -5.5t-5.5 -25.5v-442q0 -20 5.5 -25.5t25.5 -5.5h125q19 0 25 5.5t6 25.5v442zM319 828h169l-176 -158h-134zM565 828h169l-182 -158
h-134z" />
    <glyph glyph-name="ohungarumlaut" unicode="&#x151;" horiz-adv-x="657" 
d="M139 485h379q79 0 79 -79v-327q0 -79 -79 -79h-379q-79 0 -79 79v327q0 79 79 79zM413 395q0 19 -5.5 25t-25.5 6h-107q-19 0 -25 -6t-6 -25v-305q0 -20 6 -25.5t25 -5.5h107q20 0 25.5 5.5t5.5 25.5v305zM291 690h169l-176 -158h-134zM538 690h168l-182 -158h-134z" />
    <glyph glyph-name="OE" unicode="&#x152;" horiz-adv-x="989" 
d="M455 90v442q0 20 -5.5 25.5t-25.5 5.5h-132q-20 0 -25.5 -5.5t-5.5 -25.5v-442q0 -20 5.5 -25.5t25.5 -5.5h132q20 0 25.5 5.5t5.5 25.5zM650 59h299v-59h-442v12q-25 -12 -65 -12h-295q-79 0 -79 79v464q0 79 79 79h295q37 0 65 -13v13h429v-59h-286v-215h249v-59h-249
v-230z" />
    <glyph glyph-name="oe" unicode="&#x153;" horiz-adv-x="995" 
d="M592 278h174v117q0 19 -6 25t-25 6h-112q-19 0 -25 -6t-6 -25v-117zM409 90v305q0 18 -7 24.5t-25 6.5h-101q-20 0 -25.5 -6t-5.5 -25v-305q0 -20 5.5 -25.5t25.5 -5.5h101q18 0 25 6.5t7 24.5zM591 485h274q79 0 79 -79v-187h-352v-129q0 -20 6 -25.5t25 -5.5h111
q20 0 25.5 5.5t5.5 25.5v64h178v-75q0 -79 -79 -79h-275q-52 0 -70.5 8.5t-24.5 28.5q-6 -19 -29 -28t-77 -9h-248q-79 0 -79 79v327q0 79 79 79h249q54 0 77 -9t29 -28q6 20 24.5 28.5t71.5 8.5z" />
    <glyph glyph-name="Racute" unicode="&#x154;" horiz-adv-x="711" 
d="M595 819l-172 -151h-151l138 151h185zM265 563v-281h165q20 0 25.5 6t5.5 25v219q0 20 -5.5 25.5t-25.5 5.5h-165zM265 223v-223h-193v622h503q79 0 79 -79v-241q0 -79 -79 -79h-45l141 -223h-201l-133 223h-72z" />
    <glyph glyph-name="racute" unicode="&#x155;" horiz-adv-x="434" 
d="M511 683l-172 -151h-151l138 151h185zM253 485v-58q23 60 109 60h64v-69h-100q-73 0 -73 -76v-342h-184v485h184z" />
    <glyph glyph-name="uni0156" unicode="&#x156;" horiz-adv-x="711" 
d="M266 -264v217h184v-69l-126 -148h-58zM265 563v-281h165q20 0 25.5 6t5.5 25v219q0 20 -5.5 25.5t-25.5 5.5h-165zM265 223v-223h-193v622h503q79 0 79 -79v-241q0 -79 -79 -79h-45l141 -223h-201l-133 223h-72z" />
    <glyph glyph-name="uni0157" unicode="&#x157;" horiz-adv-x="434" 
d="M67 -264v217h184v-69l-126 -148h-58zM362 487h64v-69h-100q-73 0 -73 -76v-342h-184v485h184v-58q23 60 109 60z" />
    <glyph glyph-name="Rcaron" unicode="&#x158;" horiz-adv-x="711" 
d="M442 669h-174l-180 155h178l89 -90l90 90h177zM265 563v-281h165q20 0 25.5 6t5.5 25v219q0 20 -5.5 25.5t-25.5 5.5h-165zM265 223v-223h-193v622h503q79 0 79 -79v-241q0 -79 -79 -79h-45l141 -223h-201l-133 223h-72z" />
    <glyph glyph-name="rcaron" unicode="&#x159;" horiz-adv-x="434" 
d="M336 533h-174l-180 155h178l89 -90l90 90h177zM253 485v-58q23 60 109 60h64v-69h-100q-73 0 -73 -76v-342h-184v485h184z" />
    <glyph glyph-name="Sacute" unicode="&#x15a;" horiz-adv-x="676" 
d="M275 668l138 151h185l-172 -151h-151zM427 90v163q0 19 -5.5 25t-25.5 6h-261q-79 0 -79 79v180q0 79 79 79h403q79 0 79 -79v-116h-193v105q0 20 -6 25.5t-25 5.5h-113q-20 0 -25.5 -5.5t-5.5 -25.5v-158q0 -20 5.5 -25.5t25.5 -5.5h261q79 0 79 -79v-185q0 -79 -79 -79
h-403q-79 0 -79 79v116h193v-105q0 -20 6 -25.5t25 -5.5h113q20 0 25.5 5.5t5.5 25.5z" />
    <glyph glyph-name="sacute" unicode="&#x15b;" horiz-adv-x="608" 
d="M245 532l138 151h185l-172 -151h-151zM377 90v91q0 19 -5.5 25t-25.5 6h-217q-79 0 -79 79v115q0 79 79 79h345q79 0 79 -79v-72h-178v61q0 19 -5.5 25t-25.5 6h-79q-19 0 -25 -6t-6 -25v-93q0 -20 6 -25.5t25 -5.5h216q79 0 79 -79v-113q0 -79 -79 -79h-348
q-79 0 -79 79v72h179v-61q0 -20 5.5 -25.5t25.5 -5.5h82q20 0 25.5 5.5t5.5 25.5z" />
    <glyph glyph-name="uni015E" unicode="&#x15e;" horiz-adv-x="676" 
d="M427 90v163q0 19 -5.5 25t-25.5 6h-261q-79 0 -79 79v180q0 79 79 79h403q79 0 79 -79v-116h-193v105q0 20 -6 25.5t-25 5.5h-113q-20 0 -25.5 -5.5t-5.5 -25.5v-158q0 -20 5.5 -25.5t25.5 -5.5h261q79 0 79 -79v-185q0 -79 -79 -79h-403q-79 0 -79 79v116h193v-105
q0 -20 6 -25.5t25 -5.5h113q20 0 25.5 5.5t5.5 25.5zM244 -264v217h184v-69l-126 -148h-58z" />
    <glyph glyph-name="uni015F" unicode="&#x15f;" horiz-adv-x="608" 
d="M377 90v91q0 19 -5.5 25t-25.5 6h-217q-79 0 -79 79v115q0 79 79 79h345q79 0 79 -79v-72h-178v61q0 19 -5.5 25t-25.5 6h-79q-19 0 -25 -6t-6 -25v-93q0 -20 6 -25.5t25 -5.5h216q79 0 79 -79v-113q0 -79 -79 -79h-348q-79 0 -79 79v72h179v-61q0 -20 5.5 -25.5
t25.5 -5.5h82q20 0 25.5 5.5t5.5 25.5zM212 -264v217h184v-69l-126 -148h-58z" />
    <glyph glyph-name="Scaron" unicode="&#x160;" horiz-adv-x="676" 
d="M253 669l-180 155h178l89 -90l90 90h177l-180 -155h-174zM427 90v163q0 19 -5.5 25t-25.5 6h-261q-79 0 -79 79v180q0 79 79 79h403q79 0 79 -79v-116h-193v105q0 20 -6 25.5t-25 5.5h-113q-20 0 -25.5 -5.5t-5.5 -25.5v-158q0 -20 5.5 -25.5t25.5 -5.5h261q79 0 79 -79
v-185q0 -79 -79 -79h-403q-79 0 -79 79v116h193v-105q0 -20 6 -25.5t25 -5.5h113q20 0 25.5 5.5t5.5 25.5z" />
    <glyph glyph-name="scaron" unicode="&#x161;" horiz-adv-x="608" 
d="M221 532l-180 155h178l89 -90l90 90h177l-180 -155h-174zM377 90v91q0 19 -5.5 25t-25.5 6h-217q-79 0 -79 79v115q0 79 79 79h345q79 0 79 -79v-72h-178v61q0 19 -5.5 25t-25.5 6h-79q-19 0 -25 -6t-6 -25v-93q0 -20 6 -25.5t25 -5.5h216q79 0 79 -79v-113
q0 -79 -79 -79h-348q-79 0 -79 79v72h179v-61q0 -20 5.5 -25.5t25.5 -5.5h82q20 0 25.5 5.5t5.5 25.5z" />
    <glyph glyph-name="uni0162" unicode="&#x162;" horiz-adv-x="593" 
d="M201 -264v217h184v-69l-126 -148h-58zM585 622v-59h-193v-563h-193v563h-191v59h577z" />
    <glyph glyph-name="uni0163" unicode="&#x163;" horiz-adv-x="593" 
d="M201 -264v217h184v-69l-126 -148h-58zM585 622v-59h-193v-563h-193v563h-191v59h577z" />
    <glyph glyph-name="Tcaron" unicode="&#x164;" horiz-adv-x="593" 
d="M382 669h-174l-180 155h178l89 -90l90 90h177zM585 622v-59h-193v-563h-193v563h-191v59h577z" />
    <glyph glyph-name="tcaron" unicode="&#x165;" horiz-adv-x="405" 
d="M281 596v-111h100v-59h-100v-334q0 -20 5.5 -25.5t25.5 -5.5h68v-61h-204q-79 0 -79 79v347h-78v59h78v111h184zM340 733h139v-64l-92 -118h-47v182z" />
    <glyph glyph-name="Umacron" unicode="&#x16a;" horiz-adv-x="717" 
d="M262 622v-532q0 -20 6 -25.5t25 -5.5h131q20 0 25.5 5.5t5.5 25.5v532h193v-543q0 -79 -79 -79h-421q-79 0 -79 79v543h193zM121 669v58h474v-58h-474z" />
    <glyph glyph-name="umacron" unicode="&#x16b;" horiz-adv-x="662" 
d="M564 597v-58h-474v58h474zM409 485h184v-485h-184v29q-14 -29 -57 -29h-213q-79 0 -79 79v406h184v-395q0 -20 6 -25.5t25 -5.5h98q36 0 36 31v395z" />
    <glyph glyph-name="Uring" unicode="&#x16e;" horiz-adv-x="717" 
d="M547 778v-34q0 -75 -74 -75h-224q-74 0 -74 75v34q0 74 74 74h224q74 0 74 -74zM430 754v13q0 19 -5.5 24.5t-24.5 5.5h-78q-19 0 -24.5 -5.5t-5.5 -24.5v-13q0 -19 5.5 -24.5t24.5 -5.5h78q19 0 24.5 5.5t5.5 24.5zM262 622v-532q0 -20 6 -25.5t25 -5.5h131
q20 0 25.5 5.5t5.5 25.5v532h193v-543q0 -79 -79 -79h-421q-79 0 -79 79v543h193z" />
    <glyph glyph-name="uring" unicode="&#x16f;" horiz-adv-x="662" 
d="M260 628v-13q0 -19 5.5 -24.5t24.5 -5.5h78q19 0 24.5 5.5t5.5 24.5v13q0 19 -5.5 24.5t-24.5 5.5h-78q-19 0 -24.5 -5.5t-5.5 -24.5zM441 530h-224q-74 0 -74 75v34q0 74 74 74h224q74 0 74 -74v-34q0 -75 -74 -75zM409 485h184v-485h-184v29q-14 -29 -57 -29h-213
q-79 0 -79 79v406h184v-395q0 -20 6 -25.5t25 -5.5h98q36 0 36 31v395z" />
    <glyph glyph-name="Uhungarumlaut" unicode="&#x170;" horiz-adv-x="697" 
d="M261 622v-532q0 -20 5.5 -25.5t25.5 -5.5h132q20 0 25.5 5.5t5.5 25.5v532h193v-543q0 -79 -79 -79h-422q-79 0 -79 79v543h193zM563 826h169l-182 -158h-134zM317 826h169l-176 -158h-134z" />
    <glyph glyph-name="uhungarumlaut" unicode="&#x171;" horiz-adv-x="662" 
d="M515 533h-134l148 158h168zM451 691l-176 -158h-134l141 158h169zM410 485h184v-485h-184v30q-12 -30 -57 -30h-214q-79 0 -79 79v406h184v-395q0 -20 6 -25.5t25 -5.5h98q37 0 37 31v395z" />
    <glyph glyph-name="Uogonek" unicode="&#x172;" horiz-adv-x="717" 
d="M455 622h193v-543q0 -79 -79 -79h-120v-90h-137q-20 0 -25.5 -5.5t-5.5 -24.5v-44q0 -20 5.5 -25.5t25.5 -5.5h160v-57h-244q-79 0 -79 79v61q0 79 79 79h38v33h-118q-79 0 -79 79v543h193v-532q0 -20 6 -25.5t25 -5.5h131q20 0 25.5 5.5t5.5 25.5v532z" />
    <glyph glyph-name="uogonek" unicode="&#x173;" horiz-adv-x="662" 
d="M456 -195h160v-57h-244q-79 0 -79 79v61q0 79 79 79h38v33h-1v29q-14 -29 -57 -29h-213q-79 0 -79 79v406h184v-395q0 -20 6 -25.5t25 -5.5h98q36 0 36 31v395h184v-575h-137q-20 0 -25.5 -5.5t-5.5 -24.5v-44q0 -20 5.5 -25.5t25.5 -5.5z" />
    <glyph glyph-name="Ydieresis" unicode="&#x178;" horiz-adv-x="699" 
d="M305 789v-120h-197v120h197zM602 789v-120h-196v120h196zM452 0h-193v205l-254 417h190l159 -313l151 313h188l-241 -415v-207z" />
    <glyph glyph-name="Zacute" unicode="&#x179;" horiz-adv-x="645" 
d="M583 820l-172 -151h-151l138 151h185zM605 622v-59l-346 -504h336v-59h-555v59l346 504h-330v59h549z" />
    <glyph glyph-name="zacute" unicode="&#x17a;" horiz-adv-x="536" 
d="M537 683l-172 -151h-151l138 151h185zM505 59v-59h-474v59l268 367h-252v59h449v-59l-272 -367h281z" />
    <glyph glyph-name="Zdotaccent" unicode="&#x17b;" horiz-adv-x="645" 
d="M438 792v-123h-191v123h191zM605 622v-59l-346 -504h336v-59h-555v59l346 504h-330v59h549z" />
    <glyph glyph-name="zdotaccent" unicode="&#x17c;" horiz-adv-x="536" 
d="M377 655v-123h-191v123h191zM505 59v-59h-474v59l268 367h-252v59h449v-59l-272 -367h281z" />
    <glyph glyph-name="Zcaron" unicode="&#x17d;" horiz-adv-x="645" 
d="M427 669h-174l-180 155h178l89 -90l90 90h177zM56 563v59h549v-59l-346 -504h336v-59h-555v59l346 504h-330z" />
    <glyph glyph-name="zcaron" unicode="&#x17e;" horiz-adv-x="536" 
d="M367 532h-174l-180 155h178l89 -90l90 90h177zM505 59v-59h-474v59l268 367h-252v59h449v-59l-272 -367h281z" />
    <glyph glyph-name="florin" unicode="&#x192;" horiz-adv-x="557" 
d="M524 594h-54q-24 0 -35 -9t-15 -33l-12 -67h101v-59h-112l-85 -461q-11 -54 -46 -80t-119 -26h-129v60h54q24 0 35 9t16 34l85 464h-93v59h103l12 63q10 54 45.5 80.5t119.5 26.5h129v-61z" />
    <glyph glyph-name="uni0218" unicode="&#x218;" horiz-adv-x="676" 
d="M427 90v163q0 19 -5.5 25t-25.5 6h-261q-79 0 -79 79v180q0 79 79 79h403q79 0 79 -79v-116h-193v105q0 20 -6 25.5t-25 5.5h-113q-20 0 -25.5 -5.5t-5.5 -25.5v-158q0 -20 5.5 -25.5t25.5 -5.5h261q79 0 79 -79v-185q0 -79 -79 -79h-403q-79 0 -79 79v116h193v-105
q0 -20 6 -25.5t25 -5.5h113q20 0 25.5 5.5t5.5 25.5zM242 -264v217h184v-69l-126 -148h-58z" />
    <glyph glyph-name="uni0219" unicode="&#x219;" horiz-adv-x="608" 
d="M377 90v91q0 19 -5.5 25t-25.5 6h-217q-79 0 -79 79v115q0 79 79 79h345q79 0 79 -79v-72h-178v61q0 19 -5.5 25t-25.5 6h-79q-19 0 -25 -6t-6 -25v-93q0 -20 6 -25.5t25 -5.5h216q79 0 79 -79v-113q0 -79 -79 -79h-348q-79 0 -79 79v72h179v-61q0 -20 5.5 -25.5
t25.5 -5.5h82q20 0 25.5 5.5t5.5 25.5zM203 -264v217h184v-69l-126 -148h-58z" />
    <glyph glyph-name="uni021A" unicode="&#x21a;" horiz-adv-x="593" 
d="M204 -264v217h184v-69l-126 -148h-58zM585 622v-59h-193v-563h-193v563h-191v59h577z" />
    <glyph glyph-name="uni021B" unicode="&#x21b;" horiz-adv-x="405" 
d="M110 -264v217h184v-69l-126 -148h-58zM381 426h-100v-334q0 -20 5.5 -25.5t25.5 -5.5h68v-61h-204q-79 0 -79 79v347h-78v59h78v111h184v-111h100v-59z" />
    <glyph glyph-name="circumflex" unicode="&#x2c6;" horiz-adv-x="667" 
d="M66 506l180 156h174l180 -156h-177l-90 90l-89 -90h-178z" />
    <glyph glyph-name="caron" unicode="&#x2c7;" horiz-adv-x="667" 
d="M246 500l-180 155h178l89 -90l90 90h177l-180 -155h-174z" />
    <glyph glyph-name="uni02C9" unicode="&#x2c9;" horiz-adv-x="605" 
d="M79 550v58h446v-58h-446z" />
    <glyph glyph-name="breve" unicode="&#x2d8;" horiz-adv-x="667" 
d="M419 655h162v-64q0 -79 -79 -79h-338q-79 0 -79 79v64h163v-54q0 -19 6 -25t25 -6h109q20 0 25.5 6t5.5 25v54z" />
    <glyph glyph-name="dotaccent" unicode="&#x2d9;" horiz-adv-x="667" 
d="M241 522v123h191v-123h-191z" />
    <glyph glyph-name="ring" unicode="&#x2da;" horiz-adv-x="667" 
d="M519 607v-34q0 -75 -74 -75h-224q-74 0 -74 75v34q0 74 74 74h224q74 0 74 -74zM402 583v13q0 19 -5.5 24.5t-24.5 5.5h-78q-19 0 -24.5 -5.5t-5.5 -24.5v-13q0 -19 5.5 -24.5t24.5 -5.5h78q19 0 24.5 5.5t5.5 24.5z" />
    <glyph glyph-name="ogonek" unicode="&#x2db;" horiz-adv-x="667" 
d="M334 -195h160v-57h-244q-79 0 -79 79v61q0 79 79 79h38v47h183v-104h-137q-20 0 -25.5 -5.5t-5.5 -24.5v-44q0 -20 5.5 -25.5t25.5 -5.5z" />
    <glyph glyph-name="tilde" unicode="&#x2dc;" horiz-adv-x="667" 
d="M249 594q-19 0 -19 -21v-56h-148v64q0 78 76 78h61q43 0 113.5 -38t84.5 -38q20 0 20 21v55h147v-63q0 -79 -76 -79h-62q-33 0 -74 19.5t-74.5 38.5t-48.5 19z" />
    <glyph glyph-name="hungarumlaut" unicode="&#x2dd;" horiz-adv-x="667" 
d="M456 664h168l-182 -158h-134zM210 664h168l-176 -158h-133z" />
    <glyph glyph-name="pi" unicode="&#x3c0;" horiz-adv-x="832" 
d="M797 485v-59h-105v-426h-183v426h-183v-347q0 -79 -79 -79h-197v61h61q19 0 25 5.5t6 25.5v334h-101v59h756z" />
    <glyph glyph-name="uni0901" unicode="&#x901;" horiz-adv-x="0" 
d="M-372 685q-40 0 -56.5 19.5t-16.5 58.5v89h164v-76q0 -18 7 -25t26 -7h184q19 0 25.5 7t6.5 25v76h165v-89q0 -39 -16.5 -58.5t-56.5 -19.5h-432zM-210 810v99h108v-99h-108z" />
    <glyph glyph-name="uni0902" unicode="&#x902;" horiz-adv-x="0" 
d="M-284 687v129h195v-129h-195z" />
    <glyph glyph-name="uni0903" unicode="&#x903;" horiz-adv-x="402" 
d="M138 412v156h188v-156h-188zM138 65v156h188v-156h-188z" />
    <glyph glyph-name="uni0905" unicode="&#x905;" horiz-adv-x="1079" 
d="M1099 622v-59h-106v-563h-200v299h-148v-145q0 -40 -18 -58t-58 -18h-436q-40 0 -58.5 18t-18.5 58v98h200v-83q0 -19 7 -26t26 -7h123q20 0 26.5 7t6.5 26v116q0 19 -7.5 26.5t-26.5 7.5h-129v59h129q19 0 26.5 7t7.5 27v118q0 20 -6.5 26.5t-26.5 6.5h-123
q-19 0 -26 -6.5t-7 -26.5v-83h-200v99q0 40 18.5 58t58.5 18h436q40 0 58 -18t18 -58v-119q0 -64 -62 -65v-4h210v264h306z" />
    <glyph glyph-name="uni0906" unicode="&#x906;" horiz-adv-x="1444" 
d="M1464 622v-59h-106v-563h-200v563h-165v-563h-200v299h-148v-145q0 -40 -18 -58t-58 -18h-436q-40 0 -58.5 18t-18.5 58v98h200v-83q0 -19 7 -26t26 -7h123q20 0 26.5 7t6.5 26v116q0 19 -7.5 26.5t-26.5 7.5h-129v59h129q19 0 26.5 7t7.5 27v118q0 20 -6.5 26.5
t-26.5 6.5h-123q-19 0 -26 -6.5t-7 -26.5v-83h-200v99q0 40 18.5 58t58.5 18h436q40 0 58 -18t18 -58v-119q0 -64 -62 -65v-4h210v264h671z" />
    <glyph glyph-name="uni0907" unicode="&#x907;" horiz-adv-x="735" 
d="M655 426h-356q-19 0 -26 -7t-7 -26v-36q0 -19 7 -26t26 -7h296q40 0 58.5 -18t18.5 -58v-94q0 -40 -18.5 -58t-58.5 -18h-316v-78h-209v190h209v-53h160q19 0 26 6.5t7 26.5v62q0 20 -7 26.5t-26 6.5h-297q-40 0 -58 18t-18 58v68q0 40 18 58t58 18h312v78h-474v59h775
v-59h-100v-137z" />
    <glyph glyph-name="uni0908" unicode="&#x908;" horiz-adv-x="736" 
d="M656 426h-356q-20 0 -26.5 -7t-6.5 -26v-36q0 -19 6.5 -26t26.5 -7h296q40 0 58.5 -18t18.5 -58v-94q0 -40 -18.5 -58t-58.5 -18h-316v-78h-209v190h209v-53h160q20 0 26.5 6.5t6.5 26.5v62q0 20 -6.5 26.5t-26.5 6.5h-297q-40 0 -58 18t-18 58v68q0 40 18 58t58 18h312
v78h-474v59h455v141q0 40 18 58t58 18h232v-59h-75q-19 0 -26 -6.5t-7 -25.5v-126h120v-59h-100v-137z" />
    <glyph glyph-name="uni0909" unicode="&#x909;" horiz-adv-x="717" 
d="M737 622v-59h-121q15 -9 15 -36v-121q0 -64 -63 -65v-4q63 -1 63 -65v-196q0 -40 -18.5 -58t-58.5 -18h-432q-40 0 -58.5 18t-18.5 58v130h200v-115q0 -18 7 -25t26 -7h120q19 0 26 7t7 25v186q0 19 -6.5 26t-26.5 7h-132v59h132q20 0 26.5 6.5t6.5 26.5v128
q0 20 -6.5 26.5t-26.5 6.5h-418v59h757z" />
    <glyph glyph-name="uni090A" unicode="&#x90a;" horiz-adv-x="1063" 
d="M1083 622v-59h-460q14 -8 14 -36v-118q0 -65 -62 -65v-4q9 0 13 -1h353q40 0 58.5 -18t18.5 -58v-187q0 -40 -18.5 -58t-58.5 -18h-257v59h101q19 0 26 7t7 25v157q0 18 -7 25t-26 7h-148v-204q0 -40 -18 -58t-58 -18h-433q-40 0 -58 18t-18 58v130h200v-115q0 -18 7 -25
t26 -7h119q19 0 26 7t7 25v186q0 19 -6.5 26t-26.5 7h-132v59h132q20 0 26.5 6.5t6.5 26.5v128q0 20 -6.5 26.5t-26.5 6.5h-424v59h1103z" />
    <glyph glyph-name="uni090B" unicode="&#x90b;" horiz-adv-x="1389" 
d="M985 393v-104q0 -19 7 -26t24 -7h89q17 0 23.5 7t6.5 26v104q0 19 -6.5 26t-25.5 7h-85q-19 0 -26 -7t-7 -26zM699 563v-307h110q-19 11 -19 55v98q0 39 18 57.5t58 18.5h382q40 0 58 -18.5t18 -57.5v-108q0 -35 -11 -50.5t-35 -17.5v-4q24 -2 35 -15t11 -46v-92
q0 -39 -18 -57.5t-59 -18.5h-384q-73 0 -73 76v58h197v-47q0 -17 7.5 -22.5t26.5 -5.5h83q20 1 25.5 7.5t5.5 25.5v72q0 19 -7 25.5t-25 6.5h-404v-196h-199v196h-44l-193 -196h-225l231 235l-97 135q-25 33 -51.5 44t-69.5 11h-28v60h156q68 0 102 -13.5t66 -56.5l118 -159
h35v307h-520v59h1429v-59h-710z" />
    <glyph glyph-name="uni090C" unicode="&#x90c;" horiz-adv-x="1115" 
d="M1031 34h-172q-19 0 -26.5 -7.5t-7.5 -25.5v-87q0 -18 7.5 -25.5t26.5 -7.5h201v-59h-350q-40 0 -57.5 17.5t-17.5 57.5v121q0 40 17.5 57.5t57.5 17.5h120v333h-146q-19 0 -26 -7t-7 -25v-211h-199v211q0 18 -7.5 25t-26.5 7h-113q-19 0 -25.5 -7t-6.5 -25v-303
q0 -18 6.5 -25t25.5 -7h161v-59h-317q-40 0 -58.5 18t-18.5 58v333q0 40 18.5 58t58.5 18h332q35 0 50.5 -14t17.5 -46h4q2 31 17 45.5t47 14.5h213v78h-850v59h1155v-59h-104v-529z" />
    <glyph glyph-name="uni090D" unicode="&#x90d;" horiz-adv-x="772" 
d="M613 685h-434q-40 0 -58.5 18t-18.5 58v91h192v-76q0 -18 7 -25t26 -7h138q19 0 25.5 7t6.5 25v76h192v-91q0 -40 -18 -58t-58 -18zM792 622v-59h-93v-203q0 -40 -18 -58t-58 -18h-234v59h77q19 0 26 7t7 25v188h-213v-472q0 -18 7 -25t26 -7h142q19 0 26 7t7 25v105h200
v-120q0 -40 -18 -58t-58 -18h-456q-40 0 -58 18t-18 58v487h-106v59h812z" />
    <glyph glyph-name="uni090E" unicode="&#x90e;" horiz-adv-x="772" 
d="M792 622v-59h-93v-203q0 -40 -18 -58t-58 -18h-234v59h77q19 0 26 7t7 25v188h-213v-472q0 -18 7 -25t26 -7h142q19 0 26 7t7 25v105h200v-120q0 -40 -18 -58t-58 -18h-456q-40 0 -58 18t-18 58v487h-106v59h520v29q0 19 -7 26t-26 7h-276q-40 0 -58 18t-18 58v78h200
v-63q0 -18 7 -25t26 -7h276q40 0 58 -18t18 -58v-45h92z" />
    <glyph glyph-name="uni090F" unicode="&#x90f;" horiz-adv-x="772" 
d="M792 622v-59h-93v-203q0 -40 -18 -58t-58 -18h-234v59h77q19 0 26 7t7 25v188h-213v-472q0 -18 7 -25t26 -7h142q19 0 26 7t7 25v105h200v-120q0 -40 -18 -58t-58 -18h-456q-40 0 -58 18t-18 58v487h-106v59h812z" />
    <glyph glyph-name="uni0910" unicode="&#x910;" horiz-adv-x="772" 
d="M792 622v-59h-93v-203q0 -40 -18 -58t-58 -18h-234v59h77q19 0 26 7t7 25v188h-213v-472q0 -18 7 -25t26 -7h142q19 0 26 7t7 25v105h200v-120q0 -40 -18 -58t-58 -18h-456q-40 0 -58 18t-18 58v487h-106v59h529q-46 31 -113 107l-96 110h215l183 -217h94z" />
    <glyph glyph-name="uni0911" unicode="&#x911;" horiz-adv-x="1440" 
d="M1294 685h-434q-40 0 -58.5 18t-18.5 58v91h192v-76q0 -18 7 -25t26 -7h138q19 0 25.5 7t6.5 25v76h192v-91q0 -40 -18 -58t-58 -18zM1460 622v-59h-106v-563h-200v563h-161v-563h-200v299h-148v-145q0 -40 -18 -58t-58 -18h-436q-40 0 -58.5 18t-18.5 58v98h200v-83
q0 -19 7 -26t26 -7h123q20 0 26.5 7t6.5 26v116q0 19 -7.5 26.5t-26.5 7.5h-129v59h129q19 0 26.5 7t7.5 27v118q0 20 -6.5 26.5t-26.5 6.5h-123q-19 0 -26 -6.5t-7 -26.5v-83h-200v99q0 40 18.5 58t58.5 18h436q40 0 58 -18t18 -58v-119q0 -64 -62 -65v-4h210v264h667z" />
    <glyph glyph-name="uni0912" unicode="&#x912;" horiz-adv-x="1440" 
d="M1460 622v-59h-106v-563h-200v563h-161v-563h-200v299h-148v-145q0 -40 -18 -58t-58 -18h-436q-40 0 -58.5 18t-18.5 58v98h200v-83q0 -19 7 -26t26 -7h123q20 0 26.5 7t6.5 26v116q0 19 -7.5 26.5t-26.5 7.5h-129v59h129q19 0 26.5 7t7.5 27v118q0 20 -6.5 26.5
t-26.5 6.5h-123q-19 0 -26 -6.5t-7 -26.5v-83h-200v99q0 40 18.5 58t58.5 18h436q40 0 58 -18t18 -58v-119q0 -64 -62 -65v-4h210v264h361v29q0 19 -7 26t-26 7h-276q-40 0 -58 18t-18 58v78h200v-63q0 -18 7 -25t26 -7h276q40 0 58 -18t18 -58v-45h106z" />
    <glyph glyph-name="uni0913" unicode="&#x913;" horiz-adv-x="1441" 
d="M1461 622v-59h-106v-563h-200v563h-162v-563h-200v299h-148v-145q0 -40 -18 -58t-58 -18h-436q-40 0 -58.5 18t-18.5 58v98h200v-83q0 -19 7 -26t26 -7h123q20 0 26.5 7t6.5 26v116q0 19 -7.5 26.5t-26.5 7.5h-129v59h129q19 0 26.5 7t7.5 27v118q0 20 -6.5 26.5
t-26.5 6.5h-123q-19 0 -26 -6.5t-7 -26.5v-83h-200v99q0 40 18.5 58t58.5 18h436q40 0 58 -18t18 -58v-119q0 -64 -62 -65v-4h210v264h372q-46 31 -113 107l-96 110h215l183 -217h107z" />
    <glyph glyph-name="uni0914" unicode="&#x914;" horiz-adv-x="1462" 
d="M1482 622v-59h-106v-563h-200v563h-161v-563h-200v299h-148v-145q0 -40 -18 -58t-58 -18h-436q-40 0 -58.5 18t-18.5 58v98h200v-83q0 -19 7 -26t26 -7h123q20 0 26.5 7t6.5 26v116q0 19 -7.5 26.5t-26.5 7.5h-129v59h129q19 0 26.5 7t7.5 27v118q0 20 -6.5 26.5
t-26.5 6.5h-123q-19 0 -26 -6.5t-7 -26.5v-83h-200v99q0 40 18.5 58t58.5 18h436q40 0 58 -18t18 -58v-119q0 -64 -62 -65v-4h210v264h358q-35 25 -103 88l-137 129h182l44 -53q69 -80 116 -164h7q-16 31 -62 163l-19 54h135l40 -217h106z" />
    <glyph glyph-name="uni0915" unicode="&#x915;" horiz-adv-x="1088" 
d="M1108 563h-464v-87q10 9 32 9h271q40 0 58 -18t18 -58v-255q0 -40 -18 -58t-58 -18h-253v59h96q19 0 26 7t7 25v225q0 18 -7 25t-26 7h-112q-20 0 -27 -7t-7 -27v-392h-200v87q-10 -9 -32 -9h-270q-40 0 -58.5 18t-18.5 58v255q0 40 18.5 58t58.5 18h252v-59h-96
q-19 0 -26 -7t-7 -25v-225q0 -18 7 -25t26 -7h112q20 0 27 7.5t7 26.5v392h-464v59h1128v-59z" />
    <glyph glyph-name="uni0916" unicode="&#x916;" horiz-adv-x="1354" 
d="M1374 622v-59h-106v-563h-197v131q-10 -11 -34 -11h-261q-40 0 -58 18t-18 58v183q0 40 18 58t58 18h250v-59h-114q-19 0 -26 -7t-7 -25v-153q0 -18 7 -25t26 -7h123q20 0 28 7.5t8 27.5v349h-467v-264q0 -40 -18.5 -58t-58.5 -18h-254v-132q0 -18 7 -25t26 -7h378v-59
h-536q-40 0 -58 18t-18 58v371h201v-165h101q19 0 25.5 6.5t6.5 25.5v249h-426v59h1394z" />
    <glyph glyph-name="uni0917" unicode="&#x917;" horiz-adv-x="1086" 
d="M271 137h153q19 0 25.5 7t6.5 25v198h-185q-19 0 -26 -7t-7 -25v-166q0 -18 7 -25t26 -7zM1106 622v-59h-106v-563h-200v563h-144v-409q0 -40 -18 -58t-58 -18h-448q-40 0 -58.5 18t-18.5 58v196q0 40 18.5 58t58.5 18h324v137h-476v59h1126z" />
    <glyph glyph-name="uni0918" unicode="&#x918;" horiz-adv-x="875" 
d="M589 171v392h-282q-19 0 -26 -6.5t-7 -26.5v-119q0 -19 7 -26t26 -7h138v-59h-138q-19 0 -26 -6.5t-7 -26.5v-117q0 -18 7 -25t26 -7h248q19 0 26.5 7.5t7.5 26.5zM895 622v-59h-106v-563h-200v87q-11 -9 -32 -9h-406q-40 0 -58.5 18t-18.5 58v126q0 65 63 65v5
q-33 1 -48 16t-15 49v112q0 27 15 36h-109v59h915z" />
    <glyph glyph-name="uni0919" unicode="&#x919;" horiz-adv-x="852" 
d="M688 296v110h132v-110h-132zM-20 622h892v-59h-249v-137h-323q-20 0 -26.5 -7t-6.5 -26v-57q0 -20 6.5 -26.5t26.5 -6.5h271q40 0 58 -18t18 -58v-147q0 -40 -18 -58t-58 -18h-425q-40 0 -58 18t-18 58v84h200v-69q0 -19 7 -25.5t26 -6.5h111q20 0 26.5 6.5t6.5 26.5v115
q0 19 -6.5 26t-26.5 7h-271q-40 0 -58 18t-18 58v89q0 40 18 58t58 18h281v78h-444v59z" />
    <glyph glyph-name="uni091A" unicode="&#x91a;" horiz-adv-x="846" 
d="M866 622v-59h-106v-563h-200v87q-10 -9 -32 -9h-351q-40 0 -58.5 18t-18.5 58v236q0 27 15 36h-99v59h414v-59h-101q-16 -1 -22.5 -8t-6.5 -24v-225q0 -18 7 -25t26 -7h193q20 0 27 7.5t7 26.5v392h-580v59h886z" />
    <glyph glyph-name="uni091B" unicode="&#x91b;" horiz-adv-x="1048" 
d="M620 485v78h-308q-20 0 -26.5 -6.5t-6.5 -26.5v-158q0 -20 6.5 -26.5t26.5 -6.5h96v-59h-96q-20 0 -26.5 -7t-6.5 -26v-156q0 -18 7 -25t26 -7h455q19 0 26 7t7 25v303q0 18 -7 25t-26 7h-103q-19 0 -26 -7t-7 -25v-130q0 -18 7 -25t26 -7h56v-59h-189q-40 0 -58.5 18
t-18.5 58v160q0 40 18.5 58t58.5 18h89zM1068 563h-261v-78h92q40 0 58 -18t18 -58v-333q0 -40 -18 -58t-58 -18h-743q-40 0 -58.5 18t-18.5 58v165q0 64 63 64v5q-63 1 -63 65v152q0 27 14 36h-113v59h1088v-59z" />
    <glyph glyph-name="uni091C" unicode="&#x91c;" horiz-adv-x="1075" 
d="M1095 622v-59h-106v-563h-200v426h-140v-272q0 -40 -18 -58t-58 -18h-424q-40 0 -58.5 18t-18.5 58v331h194v-316q0 -18 7 -25t26 -7h124q19 0 26 7t7 25v316h333v78h-809v59h1115z" />
    <glyph glyph-name="uni091D" unicode="&#x91d;" horiz-adv-x="1103" 
d="M817 331v232h-159v-137h-353q-19 0 -26 -7t-7 -26v-29q0 -20 7 -26.5t26 -6.5h512zM1123 622v-59h-106v-563h-200v272h-160q1 -5 1 -17v-101q0 -40 -18 -58t-58 -18h-309v-78h-206v190h206v-53h152q20 0 27 7t7 26v69q0 19 -7 26t-27 7h-277q-40 0 -58 18t-18 58v61
q0 40 18 58t58 18h311v78h-479v59h1143z" />
    <glyph glyph-name="uni091E" unicode="&#x91e;" horiz-adv-x="1054" 
d="M1074 622v-59h-106v-563h-200v259h-145v-105q0 -40 -18 -58t-58 -18h-434q-40 0 -58.5 18t-18.5 58v115h201v-100q0 -18 6.5 -25t25.5 -7h121q19 0 26 7t7 25v225q0 18 -7 25t-26 7h-179v59h336q40 0 58 -18t18 -58v-91h145v245h-788v59h1094z" />
    <glyph glyph-name="uni091F" unicode="&#x91f;" horiz-adv-x="732" 
d="M634 426h-327q-19 0 -26 -7t-7 -25v-303q0 -18 7 -25t26 -7h124q19 0 26 7t7 25v153h200v-168q0 -40 -18.5 -58t-58.5 -18h-436q-40 0 -58.5 18t-18.5 58v333q0 40 18.5 58t58.5 18h283v78h-454v59h772v-59h-118v-137z" />
    <glyph glyph-name="uni0920" unicode="&#x920;" horiz-adv-x="758" 
d="M491 91v303q0 18 -7.5 25t-26.5 7h-156q-19 0 -26 -7t-7 -25v-303q0 -18 7 -25t26 -7h156q19 0 26.5 7t7.5 25zM778 563h-299v-78h129q40 0 58 -18t18 -58v-333q0 -40 -18 -58t-58 -18h-457q-40 0 -58.5 18t-18.5 58v333q0 40 18.5 58t58.5 18h128v78h-299v59h798v-59z
" />
    <glyph glyph-name="uni0921" unicode="&#x921;" horiz-adv-x="715" 
d="M626 426h-324q-20 0 -26.5 -7t-6.5 -26v-49q0 -20 6.5 -26.5t26.5 -6.5h271q40 0 58.5 -18t18.5 -58v-159q0 -40 -18.5 -58t-58.5 -18h-425q-40 0 -58 18t-18 58v94h200v-79q0 -18 7 -25t26 -7h111q20 0 26.5 6.5t6.5 26.5v127q0 19 -6.5 26t-26.5 7h-271q-40 0 -58 18
t-18 58v81q0 40 18 58t58 18h281v78h-446v59h755v-59h-109v-137z" />
    <glyph glyph-name="uni0922" unicode="&#x922;" horiz-adv-x="756" 
d="M636 426h-329q-19 0 -26 -7t-7 -25v-303q0 -18 7 -25t26 -7h164q19 0 26 7t7 25v108q0 18 -7 25t-26 7h-101v59h241q40 0 58 -18t18 -58v-138q0 -40 -18 -58t-58 -18h-460q-40 0 -58.5 18t-18.5 58v333q0 40 18.5 58t58.5 18h285v78h-456v59h796v-59h-140v-137z" />
    <glyph glyph-name="uni0923" unicode="&#x923;" horiz-adv-x="1087" 
d="M455 169v394h-194v-394q0 -18 7 -25t26 -7h128q19 0 26 7t7 25zM1107 622v-59h-106v-563h-200v563h-159v-409q0 -40 -18 -58t-58 -18h-415q-40 0 -58.5 18t-18.5 58v409h-94v59h1127z" />
    <glyph glyph-name="uni0924" unicode="&#x924;" horiz-adv-x="782" 
d="M802 622v-59h-106v-563h-198v426h-193q-19 0 -25.5 -7t-6.5 -25v-303q0 -18 6.5 -25t25.5 -7h74v-59h-230q-40 0 -58.5 18t-18.5 58v333q0 40 18.5 58t58.5 18h349v78h-518v59h822z" />
    <glyph glyph-name="uni0925" unicode="&#x925;" horiz-adv-x="1053" 
d="M1073 622v-59h-106v-563h-200v87q-10 -9 -32 -9h-586q-40 0 -58.5 18t-18.5 58v197h335q19 0 26 6.5t7 25.5v148q0 18 -7 25t-26 7h-99q-19 0 -26 -7t-7 -25v-98h-196v113q0 40 18 58t58 18h405q40 0 58.5 -18t18.5 -58v-178q0 -40 -18.5 -58t-58.5 -18h-287v-123
q0 -18 6.5 -25t25.5 -7h428q19 0 26.5 7.5t7.5 26.5v451h306z" />
    <glyph glyph-name="uni0926" unicode="&#x926;" horiz-adv-x="731" 
d="M642 426h-344q-19 0 -26 -7t-7 -25v-225q0 -18 7 -25t26 -7h119q19 0 26.5 7.5t7.5 26.5v95h201v-266h-201v87q-11 -9 -32 -9h-277q-40 0 -58.5 18t-18.5 58v255q0 40 18.5 58t58.5 18h300v78h-462v59h771v-59h-109v-137z" />
    <glyph glyph-name="uni0927" unicode="&#x927;" horiz-adv-x="1000" 
d="M1020 622v-59h-106v-563h-200v87q-10 -9 -32 -9h-533q-40 0 -58 18t-18 58v106q0 64 62 65v4q-62 1 -62 65v152q0 40 18 58t58 18h377q40 0 58 -18t18 -58v-120h-166v105q0 18 -6.5 25t-25.5 7h-98q-19 0 -26 -7t-7 -25v-140q0 -19 6.5 -26t26.5 -7h122v-59h-122
q-20 0 -26.5 -6.5t-6.5 -26.5v-97q0 -18 7 -25t26 -7h374q20 0 27 7.5t7 26.5v451h306z" />
    <glyph glyph-name="uni0928" unicode="&#x928;" horiz-adv-x="1060" 
d="M441 169v257h-160q-19 0 -26 -7t-7 -25v-225q0 -18 7 -25t26 -7h127q19 0 26 7t7 25zM1080 622v-59h-106v-563h-200v426h-140v-272q0 -40 -18 -58t-58 -18h-426q-40 0 -58.5 18t-18.5 58v255q0 40 18.5 58t58.5 18h642v78h-794v59h1100z" />
    <glyph glyph-name="uni0928093C" unicode="&#x929;" horiz-adv-x="1060" 
d="M261 -116v129h195v-129h-195zM441 169v257h-160q-19 0 -26 -7t-7 -25v-225q0 -18 7 -25t26 -7h127q19 0 26 7t7 25zM1080 622v-59h-106v-563h-200v426h-140v-272q0 -40 -18 -58t-58 -18h-426q-40 0 -58.5 18t-18.5 58v255q0 40 18.5 58t58.5 18h642v78h-794v59h1100z" />
    <glyph glyph-name="uni092A" unicode="&#x92a;" horiz-adv-x="750" 
d="M464 171v392h-196v-394q0 -18 7 -25t26 -7h129q20 0 27 7.5t7 26.5zM770 622v-59h-107v-563h-199v87q-11 -9 -32 -9h-281q-40 0 -58.5 18t-18.5 58v409h-94v59h790z" />
    <glyph glyph-name="uni092B" unicode="&#x92b;" horiz-adv-x="1107" 
d="M464 171v392h-196v-394q0 -18 7 -25t26 -7h129q20 0 27 7.5t7 26.5zM1128 563h-465v-87q11 9 32 9h271q40 0 58 -18t18 -58v-255q0 -40 -18 -58t-58 -18h-258v59h101q19 0 26 7t7 25v225q0 18 -7 25t-26 7h-112q-19 0 -26.5 -7t-7.5 -27v-392h-199v87q-11 -9 -32 -9h-281
q-40 0 -58.5 18t-18.5 58v409h-94v59h1148v-59z" />
    <glyph glyph-name="uni092C" unicode="&#x92c;" horiz-adv-x="819" 
d="M297 137h202q15 0 22 4l-263 237q6 -54 6 -110v-99q0 -18 7 -25t26 -7zM839 622v-59h-106v-563h-200v87q-11 -9 -32 -9h-359q-40 0 -58.5 18t-18.5 58v255q0 40 18.5 58t58.5 18h344v-59h-207l263 -239q-9 42 -9 132v244h-553v59h859z" />
    <glyph glyph-name="uni092D" unicode="&#x92d;" horiz-adv-x="1089" 
d="M452 169v144h-161q-19 0 -26 -7t-7 -26v-111q0 -18 7 -25t26 -7h128q19 0 26 7t7 25zM1109 622v-59h-106v-563h-200v313h-151v-159q0 -40 -18 -58t-58 -18h-428q-40 0 -58 18t-18 58v141q0 40 18 58.5t58 18.5h304v159q0 18 -7 25t-26 7h-108q-19 0 -26 -7t-7 -25v-88
h-200v103q0 40 18.5 58t58.5 18h421q40 0 58 -18t18 -58v-174h151v250h306z" />
    <glyph glyph-name="uni092E" unicode="&#x92e;" horiz-adv-x="1089" 
d="M805 485v78h-152v-78h152zM452 169v257h-160q-19 0 -26 -7t-7 -25v-225q0 -18 7 -25t26 -7h128q19 0 25.5 7t6.5 25zM1109 622v-59h-106v-563h-198v426h-152v-272q0 -40 -18.5 -58t-58.5 -18h-427q-40 0 -58.5 18t-18.5 58v255q0 40 18.5 58t58.5 18h303v78h-472v59h1129
z" />
    <glyph glyph-name="uni092F" unicode="&#x92f;" horiz-adv-x="967" 
d="M681 173v390h-165q15 -9 15 -36v-142q0 -40 -18.5 -58t-58.5 -18h-202v-140q0 -18 6.5 -25t25.5 -7h360q21 0 29 8t8 28zM987 622v-59h-106v-563h-200v89q-10 -11 -34 -11h-519q-40 0 -58.5 18t-18.5 58v214h247q19 0 26 7t7 26v129q0 20 -6.5 26.5t-26.5 6.5h-318v59
h1007z" />
    <glyph glyph-name="uni0930" unicode="&#x930;" horiz-adv-x="729" 
d="M749 622v-59h-111q15 -9 15 -36v-166q0 -40 -18.5 -58t-58.5 -18h-303v-194q0 -18 6.5 -25t25.5 -7h107q19 0 26 7t7 25v120h200v-135q0 -40 -18.5 -58t-58.5 -18h-419q-40 0 -58.5 18t-18.5 58v356h201v-88h147q19 0 25.5 7t6.5 25v154q0 20 -6.5 26.5t-25.5 6.5h-440
v59h769z" />
    <glyph glyph-name="uni0930093C" unicode="&#x931;" horiz-adv-x="729" 
d="M101 -194v129h195v-129h-195zM749 622v-59h-111q15 -9 15 -36v-166q0 -40 -18.5 -58t-58.5 -18h-303v-194q0 -18 6.5 -25t25.5 -7h107q19 0 26 7t7 25v120h200v-135q0 -40 -18.5 -58t-58.5 -18h-419q-40 0 -58.5 18t-18.5 58v356h201v-88h147q19 0 25.5 7t6.5 25v154
q0 20 -6.5 26.5t-25.5 6.5h-440v59h769z" />
    <glyph glyph-name="uni0932" unicode="&#x932;" horiz-adv-x="1117" 
d="M1137 622v-59h-106v-563h-201v426h-146q-19 0 -26 -7t-7 -25v-211h-199v211q0 18 -7.5 25t-26.5 7h-113q-19 0 -25.5 -7t-6.5 -25v-303q0 -18 6.5 -25t25.5 -7h161v-59h-317q-40 0 -58.5 18t-18.5 58v333q0 40 18.5 58t58.5 18h332q35 0 50.5 -14t17.5 -46h4
q2 31 17 45.5t47 14.5h213v78h-850v59h1157z" />
    <glyph glyph-name="uni0933" unicode="&#x933;" horiz-adv-x="1045" 
d="M790 169v225q0 18 -7 25t-26 7h-118q-19 0 -26 -7t-7 -25v-225q0 -18 7 -25t26 -7h118q19 0 26 7t7 25zM439 169v225q0 18 -7 25t-26 7h-118q-19 0 -26 -7t-7 -25v-225q0 -18 7 -25t26 -7h118q19 0 26 7t7 25zM1065 563h-225v-78h63q40 0 58.5 -18t18.5 -58v-255
q0 -40 -18.5 -58t-58.5 -18h-315q-33 0 -47.5 14t-15.5 46h-5q-2 -32 -17.5 -46t-50.5 -14h-310q-40 0 -58 18t-18 58v255q0 40 18 58t58 18h310q35 0 50.5 -14t17.5 -46h5q1 32 15.5 46t47.5 14h52v78h-660v59h1085v-59z" />
    <glyph glyph-name="uni0933093C" unicode="&#x934;" horiz-adv-x="1045" 
d="M240 -116v129h195v-129h-195zM790 169v225q0 18 -7 25t-26 7h-118q-19 0 -26 -7t-7 -25v-225q0 -18 7 -25t26 -7h118q19 0 26 7t7 25zM439 169v225q0 18 -7 25t-26 7h-118q-19 0 -26 -7t-7 -25v-225q0 -18 7 -25t26 -7h118q19 0 26 7t7 25zM1065 563h-225v-78h63
q40 0 58.5 -18t18.5 -58v-255q0 -40 -18.5 -58t-58.5 -18h-315q-33 0 -47.5 14t-15.5 46h-5q-2 -32 -17.5 -46t-50.5 -14h-310q-40 0 -58 18t-18 58v255q0 40 18 58t58 18h310q35 0 50.5 -14t17.5 -46h5q1 32 15.5 46t47.5 14h52v78h-660v59h1085v-59z" />
    <glyph glyph-name="uni0935" unicode="&#x935;" horiz-adv-x="754" 
d="M774 622v-59h-106v-563h-200v87q-10 -9 -32 -9h-291q-40 0 -58 18t-18 58v255q0 40 18 58t58 18h273v-59h-116q-19 0 -26 -7t-7 -25v-225q0 -18 7 -25t26 -7h132q20 0 27 7.5t7 26.5v392h-488v59h794z" />
    <glyph glyph-name="uni0936" unicode="&#x936;" horiz-adv-x="1100" 
d="M161 622h425q40 0 58 -18t18 -58v-205q0 -40 -18 -58t-58 -18h-304v-174q0 -18 7 -25t26 -7h109q19 0 26 7t7 25v108h200v-123q0 -40 -18.5 -58t-58.5 -18h-422q-40 0 -58 18t-18 58v297h200v-49h147q19 0 26 7t7 25v175q0 18 -7 25t-26 7h-111q-19 0 -26 -7t-7 -25v-84
h-200v99q0 40 18 58t58 18zM1120 622v-59h-106v-563h-200v622h306z" />
    <glyph glyph-name="uni0937" unicode="&#x937;" horiz-adv-x="811" 
d="M529 376v187h-263l271 -350q-8 79 -8 163zM307 137h187q25 0 30 12l-261 338q11 -71 11 -143v-175q0 -18 7 -25t26 -7zM831 622v-59h-106v-563h-197v87q-10 -9 -32 -9h-345q-40 0 -58.5 18t-18.5 58v409h-94v59h851z" />
    <glyph glyph-name="uni0938" unicode="&#x938;" horiz-adv-x="1096" 
d="M810 339v224h-167q14 -8 14 -36v-171q0 -12 -1 -17h154zM1116 622v-59h-106v-563h-200v280h-536v-189q0 -18 7 -25t26 -7h116q19 0 26 7t7 25v123h200v-138q0 -40 -18 -58t-58 -18h-429q-40 0 -58.5 18t-18.5 58v400h200v-137h150q19 0 26 7t7 25v159q0 20 -6.5 26.5
t-26.5 6.5h-444v59h1136z" />
    <glyph glyph-name="uni0939" unicode="&#x939;" horiz-adv-x="748" 
d="M656 426h-346q-19 0 -26 -7t-7 -25v-37q0 -19 6.5 -26t26.5 -7h277q88 0 88 -83v-99h-188v90q0 18 -7 25.5t-26 7.5h-144q-20 0 -26.5 -6.5t-6.5 -26.5v-141q0 -18 7 -25t26 -7h363v-59h-519q-40 0 -58.5 18t-18.5 58v145q0 34 15 49t48 16v5q-63 0 -63 64v54
q0 40 18.5 58t58.5 18h303v78h-477v59h788v-59h-112v-137z" />
    <glyph glyph-name="uni093C" unicode="&#x93c;" horiz-adv-x="0" 
d="M-347 -194v129h195v-129h-195z" />
    <glyph glyph-name="uni093D" unicode="&#x93d;" horiz-adv-x="708" 
d="M305 377h260q40 0 58 -18.5t18 -58.5v-224q0 -40 -18 -58t-58 -18h-414q-40 0 -58 18.5t-18 58.5v97h199v-82q0 -19 7.5 -26t26.5 -7h100q20 0 26.5 6.5t6.5 26.5v192q0 20 -7 27t-26 7h-260q-40 0 -58 18t-18 58v152q0 40 18 58t58 18h491v-59h-334q-20 0 -27 -7t-7 -26
v-121q0 -19 7 -25.5t27 -6.5z" />
    <glyph glyph-name="uni093E" unicode="&#x93e;" 
d="M392 622v-59h-106v-563h-200v563h-106v59h412z" />
    <glyph glyph-name="uni093F" unicode="&#x93f;" 
d="M162 839h768q40 0 58 -18t18 -58v-93h-200v78q0 19 -7 25.5t-26 6.5h-454q-19 0 -26 -6.5t-7 -25.5v-126h106v-59h-106v-563h-200v563h-106v59h106v141q0 40 18 58t58 18z" />
    <glyph glyph-name="uni0940" unicode="&#x940;" 
d="M392 622v-59h-106v-563h-200v563h-106v59h106v126q0 19 -7 25.5t-26 6.5h-109q-19 0 -26 -6.5t-7 -25.5v-78h-200v93q0 40 18 58t58 18h423q40 0 58 -18t18 -58v-141h106z" />
    <glyph glyph-name="uni0941" unicode="&#x941;" horiz-adv-x="0" 
d="M-297 0h251q40 0 57.5 -17.5t17.5 -57.5v-120q0 -40 -17.5 -57.5t-57.5 -17.5h-341q-54 0 -77 11t-49 53l-70 116h187l54 -93q10 -16 18 -22t24 -6h104q19 0 26.5 7.5t7.5 25.5v86q0 18 -7.5 25.5t-26.5 7.5h-101v59z" />
    <glyph glyph-name="uni0942" unicode="&#x942;" horiz-adv-x="0" 
d="M-154 -59h-78q-19 0 -26.5 -7.5t-7.5 -25.5v-86q0 -18 7.5 -25.5t26.5 -7.5h93v-59h-242q-40 0 -57.5 17.5t-17.5 57.5v120q0 40 17.5 57.5t57.5 17.5h314q55 0 78 -11t48 -53l122 -206h-187l-106 183q-10 16 -18 22t-24 6z" />
    <glyph glyph-name="uni0943" unicode="&#x943;" horiz-adv-x="0" 
d="M-188 -211h178v-59h-327q-40 0 -57.5 17.5t-17.5 57.5v120q0 40 17.5 57.5t57.5 17.5h282v-59h-133q-19 0 -26.5 -7.5t-7.5 -25.5v-86q0 -18 7.5 -25.5t26.5 -7.5z" />
    <glyph glyph-name="uni0944" unicode="&#x944;" horiz-adv-x="0" 
d="M-188 -425h197v-59h-346q-40 0 -57.5 17.5t-17.5 57.5v108q0 38 23 59q-23 23 -23 60v107q0 40 17.5 57.5t57.5 17.5h317v-59h-168q-19 0 -26.5 -7.5t-7.5 -25.5v-86q0 -18 7.5 -25.5t26.5 -7.5h179v-61h-179q-19 0 -26.5 -7.5t-7.5 -25.5v-87q0 -18 7.5 -25.5t26.5 -7.5
z" />
    <glyph glyph-name="uni0945" unicode="&#x945;" horiz-adv-x="0" 
d="M-55 852h192v-91q0 -40 -18 -58t-58 -18h-434q-40 0 -58.5 18t-18.5 58v91h192v-76q0 -18 7 -25t26 -7h138q19 0 25.5 7t6.5 25v76z" />
    <glyph glyph-name="uni0946" unicode="&#x946;" horiz-adv-x="0" 
d="M-407 743h276q40 0 58 -18t18 -58v-80h-200v64q0 19 -7 26t-26 7h-276q-40 0 -58 18t-18 58v78h200v-63q0 -18 7 -25t26 -7z" />
    <glyph glyph-name="uni0947" unicode="&#x947;" horiz-adv-x="0" 
d="M-77 610h-180q-54 30 -132 119l-96 110h215z" />
    <glyph glyph-name="uni0948" unicode="&#x948;" horiz-adv-x="0" 
d="M-188 622h7q-16 31 -62 163l-19 54h135l42 -228h-189q-36 21 -119 99l-137 129h182l44 -53q69 -80 116 -164z" />
    <glyph glyph-name="uni0949" unicode="&#x949;" 
d="M-20 563v59h412v-59h-106v-563h-200v563h-106zM282 852h192v-91q0 -40 -18 -58t-58 -18h-434q-40 0 -58.5 18t-18.5 58v91h192v-76q0 -18 7 -25t26 -7h138q19 0 25.5 7t6.5 25v76z" />
    <glyph glyph-name="uni094A" unicode="&#x94a;" 
d="M392 622v-59h-106v-563h-200v563h-106v59h106v29q0 19 -7 26t-26 7h-276q-40 0 -58 18t-18 58v78h200v-63q0 -18 7 -25t26 -7h276q40 0 58 -18t18 -58v-45h106z" />
    <glyph glyph-name="uni094B" unicode="&#x94b;" 
d="M392 622v-59h-106v-563h-200v563h-106v59h117q-46 31 -113 107l-96 110h215l183 -217h106z" />
    <glyph glyph-name="uni094C" unicode="&#x94c;" 
d="M392 622v-59h-106v-563h-200v563h-106v59h103q-35 25 -103 88l-137 129h182l44 -53q69 -80 116 -164h7q-16 31 -62 163l-19 54h135l40 -217h106z" />
    <glyph glyph-name="uni094D" unicode="&#x94d;" horiz-adv-x="0" 
d="M-287 -60h201l132 -179h-202z" />
    <glyph glyph-name="uni0950" unicode="&#x950;" horiz-adv-x="1287" 
d="M1043 756v-98h-108v98h108zM637 403h559q40 0 58 -18.5t18 -58.5v-250q0 -40 -18 -58t-58 -18h-410q-40 0 -58 18t-18 58v129h200v-114q0 -18 7 -25t26 -7h96q19 0 26 7t7 25v220q0 19 -7 26t-26 7h-464v-5q33 -1 47.5 -16t14.5 -48v-199q0 -40 -18 -58t-58 -18h-433
q-40 0 -58 18t-18 58v130h200v-115q0 -18 7 -25t26 -7h119q19 0 26 7t7 25v186q0 19 -6.5 26t-26.5 7h-132v59h132q20 0 26.5 6.5t6.5 26.5v128q0 20 -6.5 26.5t-26.5 6.5h-119q-19 0 -26 -6.5t-7 -26.5v-83h-200v99q0 40 18 58t58 18h433q40 0 58 -18t18 -58v-143z
M1114 699h164v-89q0 -39 -16.5 -58.5t-55.5 -19.5h-432q-40 0 -57 19.5t-17 58.5v89h165v-75q0 -19 7 -26t26 -7h183q19 0 26 7t7 26v75z" />
    <glyph glyph-name="uni0951" unicode="&#x951;" horiz-adv-x="0" 
d="M-270 711v260h193v-260h-193z" />
    <glyph glyph-name="uni0952" unicode="&#x952;" horiz-adv-x="0" 
d="M-55 -190h-447v59h447v-59z" />
    <glyph glyph-name="uni0953" unicode="&#x953;" horiz-adv-x="0" 
d="M-382 895l122 101l167 -200l-122 -101z" />
    <glyph glyph-name="uni0954" unicode="&#x954;" horiz-adv-x="0" 
d="M-85 996l122 -101l-167 -200l-122 101z" />
    <glyph glyph-name="uni0915093C" unicode="&#x958;" horiz-adv-x="1088" 
d="M102 -116v129h195v-129h-195zM1108 563h-464v-87q10 9 32 9h271q40 0 58 -18t18 -58v-255q0 -40 -18 -58t-58 -18h-253v59h96q19 0 26 7t7 25v225q0 18 -7 25t-26 7h-112q-20 0 -27 -7t-7 -27v-392h-200v87q-10 -9 -32 -9h-270q-40 0 -58.5 18t-18.5 58v255q0 40 18.5 58
t58.5 18h252v-59h-96q-19 0 -26 -7t-7 -25v-225q0 -18 7 -25t26 -7h112q20 0 27 7.5t7 26.5v392h-464v59h1128v-59z" />
    <glyph glyph-name="uni0916093C" unicode="&#x959;" horiz-adv-x="1354" 
d="M423 -194v129h195v-129h-195zM1374 622v-59h-106v-563h-197v131q-10 -11 -34 -11h-261q-40 0 -58 18t-18 58v183q0 40 18 58t58 18h250v-59h-114q-19 0 -26 -7t-7 -25v-153q0 -18 7 -25t26 -7h123q20 0 28 7.5t8 27.5v349h-467v-264q0 -40 -18.5 -58t-58.5 -18h-254v-132
q0 -18 7 -25t26 -7h378v-59h-536q-40 0 -58 18t-18 58v371h201v-165h101q19 0 25.5 6.5t6.5 25.5v249h-426v59h1394z" />
    <glyph glyph-name="uni0917093C" unicode="&#x95a;" horiz-adv-x="1086" 
d="M251 -116v129h195v-129h-195zM271 137h153q19 0 25.5 7t6.5 25v198h-185q-19 0 -26 -7t-7 -25v-166q0 -18 7 -25t26 -7zM1106 622v-59h-106v-563h-200v563h-144v-409q0 -40 -18 -58t-58 -18h-448q-40 0 -58.5 18t-18.5 58v196q0 40 18.5 58t58.5 18h324v137h-476v59h1126
z" />
    <glyph glyph-name="uni091C093C" unicode="&#x95b;" horiz-adv-x="1075" 
d="M260 -116v129h195v-129h-195zM1095 622v-59h-106v-563h-200v426h-140v-272q0 -40 -18 -58t-58 -18h-424q-40 0 -58.5 18t-18.5 58v331h194v-316q0 -18 7 -25t26 -7h124q19 0 26 7t7 25v316h333v78h-809v59h1115z" />
    <glyph glyph-name="uni0921093C" unicode="&#x95c;" horiz-adv-x="715" 
d="M277 -194v129h195v-129h-195zM626 426h-324q-20 0 -26.5 -7t-6.5 -26v-49q0 -20 6.5 -26.5t26.5 -6.5h271q40 0 58.5 -18t18.5 -58v-159q0 -40 -18.5 -58t-58.5 -18h-425q-40 0 -58 18t-18 58v94h200v-79q0 -18 7 -25t26 -7h111q20 0 26.5 6.5t6.5 26.5v127q0 19 -6.5 26
t-26.5 7h-271q-40 0 -58 18t-18 58v81q0 40 18 58t58 18h281v78h-446v59h755v-59h-109v-137z" />
    <glyph glyph-name="uni0922093C" unicode="&#x95d;" horiz-adv-x="756" 
d="M296 -194v129h195v-129h-195zM636 426h-329q-19 0 -26 -7t-7 -25v-303q0 -18 7 -25t26 -7h164q19 0 26 7t7 25v108q0 18 -7 25t-26 7h-101v59h241q40 0 58 -18t18 -58v-138q0 -40 -18 -58t-58 -18h-460q-40 0 -58.5 18t-18.5 58v333q0 40 18.5 58t58.5 18h285v78h-456v59
h796v-59h-140v-137z" />
    <glyph glyph-name="uni092B093C" unicode="&#x95e;" horiz-adv-x="1107" 
d="M79 -116v129h195v-129h-195zM464 171v392h-196v-394q0 -18 7 -25t26 -7h129q20 0 27 7.5t7 26.5zM1128 563h-465v-87q11 9 32 9h271q40 0 58 -18t18 -58v-255q0 -40 -18 -58t-58 -18h-258v59h101q19 0 26 7t7 25v225q0 18 -7 25t-26 7h-112q-19 0 -26.5 -7t-7.5 -27v-392
h-199v87q-11 -9 -32 -9h-281q-40 0 -58.5 18t-18.5 58v409h-94v59h1148v-59z" />
    <glyph glyph-name="uni092F093C" unicode="&#x95f;" horiz-adv-x="967" 
d="M207 -116v129h195v-129h-195zM681 173v390h-165q15 -9 15 -36v-142q0 -40 -18.5 -58t-58.5 -18h-202v-140q0 -18 6.5 -25t25.5 -7h360q21 0 29 8t8 28zM987 622v-59h-106v-563h-200v89q-10 -11 -34 -11h-519q-40 0 -58.5 18t-18.5 58v214h247q19 0 26 7t7 26v129
q0 20 -6.5 26.5t-26.5 6.5h-318v59h1007z" />
    <glyph glyph-name="uni0960" unicode="&#x960;" horiz-adv-x="1389" 
d="M985 393v-104q0 -19 7 -26t24 -7h89q17 0 23.5 7t6.5 26v104q0 19 -6.5 26t-25.5 7h-85q-19 0 -26 -7t-7 -26zM699 563v-307h110q-19 11 -19 55v98q0 39 18 57.5t58 18.5h382q40 0 58 -18.5t18 -57.5v-137q0 -39 -18 -57.5t-58 -18.5h-236q-19 0 -25.5 -6.5t-6.5 -25.5
v-72q0 -19 5.5 -25.5t24.5 -7.5h84q19 0 26.5 5.5t7.5 22.5v47h196v-58q0 -76 -73 -76h-384q-77 0 -77 76v66q0 42 21 54h-112v-196h-199v196h-44l-193 -196h-225l231 235l-97 135q-25 33 -51.5 44t-69.5 11h-28v60h156q68 0 102 -13.5t66 -56.5l118 -159h35v307h-520v59
h1429v-59h-710z" />
    <glyph glyph-name="uni0961" unicode="&#x961;" horiz-adv-x="1115" 
d="M1031 67h-164q-19 0 -26.5 -7.5t-7.5 -25.5v-87q0 -18 7.5 -25.5t26.5 -7.5h174v-60h-174q-19 0 -26.5 -7.5t-7.5 -25.5v-87q0 -18 7.5 -25.5t26.5 -7.5h193v-59h-343q-40 0 -57.5 17.5t-17.5 57.5v108q0 38 23 59q-23 23 -23 60v107q0 40 17.5 57.5t57.5 17.5h113v300
h-146q-19 0 -26 -7t-7 -25v-197h-199v197q0 18 -7.5 25t-26.5 7h-113q-19 0 -25.5 -7t-6.5 -25v-303q0 -18 6.5 -25t25.5 -7h161v-59h-317q-40 0 -58.5 18t-18.5 58v333q0 40 18.5 58t58.5 18h332q35 0 50.5 -14t17.5 -46h4q2 31 17 45.5t47 14.5h213v78h-850v59h1155v-59
h-104v-496z" />
    <glyph glyph-name="uni0964" unicode="&#x964;" horiz-adv-x="419" 
d="M149 0v622h194v-622h-194z" />
    <glyph glyph-name="uni0965" unicode="&#x965;" horiz-adv-x="785" 
d="M149 0v622h194v-622h-194zM515 0v622h193v-622h-193z" />
    <glyph glyph-name="uni0966" unicode="&#x966;" horiz-adv-x="742" 
d="M307 59h129q19 0 25 7t6 26v438q0 19 -6 26t-25 7h-129q-19 0 -25.5 -7t-6.5 -26v-438q0 -19 6.5 -26t25.5 -7zM155 622h433q40 0 56 -19.5t16 -58.5v-466q0 -39 -16 -58.5t-56 -19.5h-433q-41 0 -57 19.5t-16 58.5v466q0 39 16 58.5t57 19.5z" />
    <glyph glyph-name="uni0967" unicode="&#x967;" horiz-adv-x="469" 
d="M377 622v-622h-200v563h-147v59h347z" />
    <glyph glyph-name="uni0968" unicode="&#x968;" horiz-adv-x="735" 
d="M660 59v-59h-584v59l272 244q52 46 82 86t30 84v57q0 19 -6.5 26t-25.5 7h-114q-19 0 -25.5 -7t-6.5 -26v-127h-200v141q0 38 16.5 58t56.5 20h432q72 0 72 -81v-68q0 -67 -19 -105.5t-66 -83.5l-240 -225h326z" />
    <glyph glyph-name="uni0969" unicode="&#x969;" horiz-adv-x="733" 
d="M424 60q19 0 26 7.5t7 25.5v155q0 34 -35 34h-120v59h120q19 0 27 8t8 26v154q0 18 -7 25.5t-26 7.5h-125q-19 0 -25.5 -7t-6.5 -26v-92h-200v107q0 38 16.5 58t56.5 20h443q73 0 73 -81v-147q0 -72 -73 -77v-4q73 -3 73 -77v-154q0 -82 -73 -82h-443q-40 0 -56.5 20
t-16.5 58v109h200v-94q0 -19 6.5 -26t25.5 -7h125z" />
    <glyph glyph-name="uni096A" unicode="&#x96a;" horiz-adv-x="725" 
d="M691 163v-59h-81v-104h-185v104h-383v80l221 438h198l-229 -459h193v163h185v-163h81z" />
    <glyph glyph-name="uni096B" unicode="&#x96b;" horiz-adv-x="732" 
d="M280 391h308q40 0 56 -19.5t16 -58.5v-231q0 -82 -72 -82h-434q-40 0 -56.5 20t-16.5 58v131h200v-117q0 -19 6.5 -26t25.5 -7h116q19 0 25.5 7t6.5 26v207q0 19 -6.5 26.5t-25.5 7.5h-149v-1h-200v290h570v-59h-370v-172z" />
    <glyph glyph-name="uni096C" unicode="&#x96c;" horiz-adv-x="752" 
d="M476 92v183q0 18 -7 25.5t-26 7.5h-162v-216q0 -19 6.5 -26t25.5 -7h130q19 0 26 7.5t7 25.5zM281 366h322q40 0 56 -19.5t16 -57.5v-211q0 -39 -16 -58.5t-56 -19.5h-449q-40 0 -56 19.5t-16 58.5v466q0 38 16 58t56 20h447q40 0 56 -19.5t16 -58.5v-102h-199v88
q0 19 -6.5 26t-25.5 7h-129q-19 0 -25.5 -7t-6.5 -26v-164z" />
    <glyph glyph-name="uni096D" unicode="&#x96d;" horiz-adv-x="591" 
d="M549 622v-67l-225 -555h-198l229 563h-315v59h509z" />
    <glyph glyph-name="uni096E" unicode="&#x96e;" horiz-adv-x="709" 
d="M453 372v158q0 18 -7 25.5t-26 7.5h-132q-19 0 -25.5 -7t-6.5 -26v-158q0 -18 7.5 -25.5t26.5 -7.5h130q18 0 25.5 7.5t7.5 25.5zM453 92v155q0 18 -7 25.5t-26 7.5h-132q-18 0 -25 -7.5t-7 -25.5v-155q0 -19 6.5 -26t25.5 -7h132q19 0 26 7t7 26zM645 541v-148
q0 -78 -80 -80v-3q80 -2 80 -78v-150q0 -82 -73 -82h-436q-73 0 -73 82v150q0 76 80 78v3q-80 2 -80 80v148q0 81 73 81h436q73 0 73 -81z" />
    <glyph glyph-name="uni096F" unicode="&#x96f;" horiz-adv-x="752" 
d="M308 308h163v222q0 18 -7 25.5t-26 7.5h-130q-19 0 -25.5 -7t-6.5 -26v-190q0 -18 6.5 -25t25.5 -7zM149 622h449q40 0 56 -19.5t16 -58.5v-466q0 -38 -16 -58t-56 -20h-447q-40 0 -56 19.5t-16 58.5v96h199v-82q0 -19 6.5 -26t25.5 -7h128q19 0 26 7.5t7 25.5v157h-322
q-40 0 -56 19.5t-16 58.5v217q0 39 16 58.5t56 19.5z" />
    <glyph glyph-name="uni0970" unicode="&#x970;" horiz-adv-x="662" 
d="M414 219v124q0 18 -7 25t-26 7h-106q-19 0 -26 -7t-7 -25v-124q0 -18 7 -25t26 -7h106q19 0 26 7t7 25zM148 432h361q40 0 58 -18t18 -58v-150q0 -40 -18 -58t-58 -18h-361q-40 0 -58.5 18t-18.5 58v150q0 40 18.5 58t58.5 18z" />
    <glyph glyph-name="uni0972" unicode="&#x972;" horiz-adv-x="1079" 
d="M1099 622v-59h-106v-563h-200v299h-148v-145q0 -40 -18 -58t-58 -18h-436q-40 0 -58.5 18t-18.5 58v98h200v-83q0 -19 7 -26t26 -7h123q20 0 26.5 7t6.5 26v116q0 19 -7.5 26.5t-26.5 7.5h-129v59h129q19 0 26.5 7t7.5 27v118q0 20 -6.5 26.5t-26.5 6.5h-123
q-19 0 -26 -6.5t-7 -26.5v-83h-200v99q0 40 18.5 58t58.5 18h436q40 0 58 -18t18 -58v-119q0 -64 -62 -65v-4h210v264h306zM996 852h192v-91q0 -40 -18 -58t-58 -18h-434q-40 0 -58.5 18t-18.5 58v91h192v-76q0 -18 7 -25t26 -7h138q19 0 25.5 7t6.5 25v76z" />
    <glyph glyph-name="uni097D" unicode="&#x97d;" horiz-adv-x="724" 
d="M183 684h379q40 0 58 -18.5t18 -57.5v-258q0 -39 -18 -57.5t-58 -18.5h-112v-274h-193v333h163q18 0 24.5 7t6.5 27v225q0 19 -6.5 26.5t-24.5 7.5h-83q-19 0 -25.5 -7.5t-6.5 -26.5v-110h-198v126q0 39 18 57.5t58 18.5z" />
    <glyph glyph-name="uni200B" unicode="&#x200b;" horiz-adv-x="0" 
 />
    <glyph glyph-name="uni200C" unicode="&#x200c;" horiz-adv-x="0" 
d="M-24 794h51v-1140h-51v1140z" />
    <glyph glyph-name="uni200D" unicode="&#x200d;" horiz-adv-x="0" 
d="M18 -346h-51v950l-74 -73l-42 39l104 95l-104 96l41 38l101 -99l100 99l40 -38l-104 -96l104 -95l-41 -39l-74 74v-951z" />
    <glyph glyph-name="endash" unicode="&#x2013;" horiz-adv-x="754" 
d="M63 262v59h533v-59h-533z" />
    <glyph glyph-name="emdash" unicode="&#x2014;" horiz-adv-x="997" 
d="M63 262v59h864v-59h-864z" />
    <glyph glyph-name="quoteleft" unicode="&#x2018;" horiz-adv-x="304" 
d="M251 622v-276h-197v70l132 206h65z" />
    <glyph glyph-name="quoteright" unicode="&#x2019;" horiz-adv-x="304" 
d="M57 346v276h198v-71l-132 -205h-66z" />
    <glyph glyph-name="quotesinglbase" unicode="&#x201a;" horiz-adv-x="302" 
d="M57 -126v276h198v-70l-132 -206h-66z" />
    <glyph glyph-name="quotedblleft" unicode="&#x201c;" horiz-adv-x="546" 
d="M251 622v-276h-197v70l132 206h65zM502 622v-276h-198v70l133 206h65z" />
    <glyph glyph-name="quotedblright" unicode="&#x201d;" horiz-adv-x="546" 
d="M308 346v276h197v-71l-132 -205h-65zM57 346v276h198v-71l-132 -205h-66z" />
    <glyph glyph-name="quotedblbase" unicode="&#x201e;" horiz-adv-x="546" 
d="M308 -126v276h197v-70l-132 -206h-65zM57 -126v276h198v-70l-132 -206h-66z" />
    <glyph glyph-name="dagger" unicode="&#x2020;" horiz-adv-x="624" 
d="M582 470v-59h-171v-542h-193v542h-176v59h176v152h193v-152h171z" />
    <glyph glyph-name="daggerdbl" unicode="&#x2021;" horiz-adv-x="651" 
d="M595 384h-172v-286h172v-59h-172v-185h-193v185h-176v59h176v286h-176v59h176v179h193v-179h172v-59z" />
    <glyph glyph-name="bullet" unicode="&#x2022;" horiz-adv-x="511" 
d="M127.5 411.5q53.5 40.5 128 40.5t128.5 -40.5t54 -97t-54 -97.5t-128.5 -41t-128 41t-53.5 97.5t53.5 97z" />
    <glyph glyph-name="ellipsis" unicode="&#x2026;" horiz-adv-x="930" 
d="M57 0v135h201v-135h-201zM374 0v135h201v-135h-201zM684 0v135h201v-135h-201z" />
    <glyph glyph-name="perthousand" unicode="&#x2030;" horiz-adv-x="1695" 
d="M1157 302v-245q0 -56 -55 -56h-307q-54 0 -54 56v245q0 56 54 56h307q55 0 55 -56zM1015 71v216q0 14 -4 18t-18 4h-88q-14 0 -17.5 -4t-3.5 -18v-216q0 -14 4 -18t17 -4h88q14 0 18 4t4 18zM762 622h143l-470 -622h-141zM459 566v-245q0 -56 -54 -56h-307q-55 0 -55 56
v245q0 56 55 56h307q54 0 54 -56zM317 335v216q0 14 -4 18t-18 4h-87q-14 0 -18 -4t-4 -18v-216q0 -14 4 -18t18 -4h87q14 0 18 4t4 18zM1647 302v-245q0 -56 -54 -56h-308q-54 0 -54 56v245q0 56 54 56h308q54 0 54 -56zM1505 71v216q0 14 -4 18t-18 4h-88q-14 0 -17.5 -4
t-3.5 -18v-216q0 -14 4 -18t17 -4h88q14 0 18 4t4 18z" />
    <glyph glyph-name="guilsinglleft" unicode="&#x2039;" horiz-adv-x="384" 
d="M172 97l-137 151l137 150h193l-136 -150l136 -151h-193z" />
    <glyph glyph-name="guilsinglright" unicode="&#x203a;" horiz-adv-x="382" 
d="M358 248l-138 -151h-192l136 151l-136 150h192z" />
    <glyph glyph-name="fraction" unicode="&#x2044;" horiz-adv-x="545" 
d="M436 622h145l-424 -622h-144z" />
    <glyph glyph-name="Euro" unicode="&#x20ac;" horiz-adv-x="716" 
d="M671 398h-193v134q0 20 -6 25.5t-25 5.5h-122q-19 0 -25 -5.5t-6 -25.5v-127h117v-59h-117v-69h117v-59h-117v-128q0 -20 6 -25.5t25 -5.5h122q19 0 25 5.5t6 25.5v132h193v-143q0 -79 -79 -79h-412q-79 0 -79 79v139h-76v59h76v69h-76v59h76v138q0 79 79 79h412
q79 0 79 -79v-145z" />
    <glyph glyph-name="trademark" unicode="&#x2122;" horiz-adv-x="972" 
d="M25 557v65h349v-65h-107v-280h-135v280h-107zM924 622v-345h-125v216l-79 -155h-90l-77 156v-217h-125v345h143l104 -205l106 205h143z" />
    <glyph glyph-name="uni2126" unicode="&#x2126;" horiz-adv-x="752" 
d="M720 59v-59h-309v59h32q19 0 25 5.5t6 25.5v442q0 20 -6 25.5t-25 5.5h-132q-19 0 -25 -5.5t-6 -25.5v-442q0 -20 6 -25.5t25 -5.5h30v-59h-311v59h86q-30 15 -30 63v421q0 79 79 79h422q79 0 79 -79v-421q0 -48 -30 -63h84z" />
    <glyph glyph-name="product" unicode="&#x220f;" horiz-adv-x="758" 
d="M684 622v-59h-1v-563h-183v563h-199v-484q0 -79 -79 -79h-205v61h69q20 0 25.5 5.5t5.5 25.5v530h567z" />
    <glyph glyph-name="minus" unicode="&#x2212;" horiz-adv-x="830" 
d="M42 253v114h609v-114h-609z" />
    <glyph glyph-name="uni2215" unicode="&#x2215;" horiz-adv-x="491" 
d="M397 699h161l-424 -835h-161z" />
    <glyph glyph-name="uni2219" unicode="&#x2219;" horiz-adv-x="285" 
d="M48 376h197v-136h-197v136z" />
    <glyph glyph-name="infinity" unicode="&#x221e;" horiz-adv-x="970" 
d="M306 177h-177q-79 0 -79 77v173q0 78 79 78h188q48 0 71.5 -13.5t55.5 -50.5l36 -41l24 31q37 46 61.5 60t79.5 14h196q79 0 79 -78v-173q0 -77 -79 -77h-179q-60 0 -90 12.5t-66 53.5l-24 26l-16 -20q-35 -46 -65 -59t-95 -13zM651 247h94q24 0 31 6.5t7 26.5v122
q0 19 -7 26t-31 7h-101q-32 0 -59 -35l-50 -63l55 -58q30 -32 61 -32zM309 434h-84q-24 0 -31 -6.5t-7 -25.5v-122q0 -20 7 -26.5t31 -6.5h89q42 0 73 37l39 50l-57 65q-19 23 -32.5 29t-27.5 6z" />
    <glyph glyph-name="integral" unicode="&#x222b;" horiz-adv-x="491" 
d="M338 599v-653q0 -79 -79 -79h-222v61h78q19 0 24.5 5.5t6.5 25.5v653q0 79 79 79h223v-61h-79q-19 0 -25 -6t-6 -25z" />
    <glyph glyph-name="approxequal" unicode="&#x2248;" horiz-adv-x="809" 
d="M569 411h183v-154q0 -78 -79 -78h-145q-61 0 -125.5 48.5t-122.5 48.5q-23 0 -31.5 -7t-8.5 -28v-62h-182v154q0 78 78 78h146q39 0 75.5 -15.5t59.5 -33.5q63 -49 112 -49q23 0 31.5 7.5t8.5 28.5v62z" />
    <glyph glyph-name="notequal" unicode="&#x2260;" horiz-adv-x="725" 
d="M667 355h-221l-69 -87h290v-114h-381l-50 -63h-98l50 63h-130v114h221l69 87h-290v113h380l49 61h98l-49 -61h131v-113z" />
    <glyph glyph-name="lessequal" unicode="&#x2264;" horiz-adv-x="734" 
d="M680 197v-95h-636v95h636zM680 411l-502 -45l502 -47v-106l-636 92v123l636 88v-105z" />
    <glyph glyph-name="greaterequal" unicode="&#x2265;" horiz-adv-x="734" 
d="M54 102v95h636v-95h-636zM556 366l-502 45v105l636 -88v-123l-636 -92v106z" />
    <glyph glyph-name="lozenge" unicode="&#x25ca;" horiz-adv-x="786" 
d="M741 313l-261 -313h-183l-252 313l252 309h183zM549 313l-161 202l-150 -202l150 -206z" />
    <glyph glyph-name="uni25CC" unicode="&#x25cc;" horiz-adv-x="422" 
d="M137 151v-73q-29 0 -47.5 20t-18.5 53h66zM71 189v73h66v-73h-66zM71 301v73h66v-73h-66zM137 412h-66q0 34 18 53.5t48 19.5v-73zM279 78v73h66q0 -30 -18 -51.5t-48 -21.5zM279 189v73h66v-73h-66zM279 301v73h66v-73h-66zM279 412v73q66 0 66 -73h-66zM175 412v73h66
v-73h-66zM175 78v73h66v-73h-66z" />
    <glyph glyph-name="commaaccent" unicode="&#xf6c3;" horiz-adv-x="667" 
d="M241 -264v217h184v-69l-126 -148h-58z" />
    <glyph glyph-name="uni0915094D" horiz-adv-x="732" 
d="M676 485h226v-59h-224q-20 0 -27 -7t-7 -27v-392h-200v87q-10 -9 -32 -9h-270q-40 0 -58.5 18t-18.5 58v255q0 40 18.5 58t58.5 18h252v-59h-96q-19 0 -26 -7t-7 -25v-225q0 -18 7 -25t26 -7h112q20 0 27 7.5t7 26.5v392h-464v59h809v-59h-145v-87q10 9 32 9z" />
    <glyph glyph-name="uni0916094D" horiz-adv-x="1011" 
d="M273 223v-132q0 -18 7 -25t26 -7h378v-59h-536q-40 0 -58 18t-18 58v371h201v-165h101q19 0 25.5 6.5t6.5 25.5v249h-426v59h1071v-59h-447v-264q0 -40 -18.5 -58t-58.5 -18h-254zM912 179h237v-59h-373q-40 0 -58 18t-18 58v183q0 40 18 58t58 18h250v-59h-114
q-19 0 -26 -7t-7 -25v-153q0 -18 7 -25t26 -7z" />
    <glyph glyph-name="uni0917094D" horiz-adv-x="718" 
d="M271 137h153q19 0 25.5 7t6.5 25v198h-185q-19 0 -26 -7t-7 -25v-166q0 -18 7 -25t26 -7zM738 622v-59h-82v-409q0 -40 -18 -58t-58 -18h-448q-40 0 -58.5 18t-18.5 58v196q0 40 18.5 58t58.5 18h324v137h-476v59h758z" />
    <glyph glyph-name="uni0918094D" horiz-adv-x="489" 
d="M307 137h330v-59h-486q-40 0 -58.5 18t-18.5 58v126q0 65 63 65v5q-33 1 -48 16t-15 49v112q0 27 15 36h-109v59h566v-59h-239q-19 0 -26 -6.5t-7 -26.5v-119q0 -19 7 -26t26 -7h138v-59h-138q-19 0 -26 -6.5t-7 -26.5v-117q0 -18 7 -25t26 -7z" />
    <glyph glyph-name="uni0919094D" horiz-adv-x="852" 
d="M253 -60h201l132 -179h-202zM688 296v110h132v-110h-132zM-20 622h892v-59h-249v-137h-323q-20 0 -26.5 -7t-6.5 -26v-57q0 -20 6.5 -26.5t26.5 -6.5h271q40 0 58 -18t18 -58v-147q0 -40 -18 -58t-58 -18h-425q-40 0 -58 18t-18 58v84h200v-69q0 -19 7 -25.5t26 -6.5h111
q20 0 26.5 6.5t6.5 26.5v115q0 19 -6.5 26t-26.5 7h-271q-40 0 -58 18t-18 58v89q0 40 18 58t58 18h281v78h-444v59z" />
    <glyph glyph-name="uni091A094D" horiz-adv-x="465" 
d="M521 622v-59h-541v59h541zM333 137h274v-59h-430q-40 0 -58.5 18t-18.5 58v236q0 27 15 36h-99v59h414v-59h-101q-16 -1 -22.5 -8t-6.5 -24v-225q0 -18 7 -25t26 -7z" />
    <glyph glyph-name="uni091B094D" horiz-adv-x="1044" 
d="M1064 563h-752q-20 0 -26.5 -6.5t-6.5 -26.5v-158q0 -20 6.5 -26.5t26.5 -6.5h96v-59h-96q-20 0 -26.5 -7t-6.5 -26v-156q0 -18 7 -25t26 -7h455q19 0 26 7t7 25v303q0 18 -7 25t-26 7h-103q-19 0 -26 -7t-7 -25v-130q0 -18 7 -25t26 -7h56v-59h-189q-40 0 -58.5 18
t-18.5 58v160q0 40 18.5 58t58.5 18h368q40 0 58 -18t18 -58v-333q0 -40 -18 -58t-58 -18h-743q-40 0 -58.5 18t-18.5 58v165q0 64 63 64v5q-63 1 -63 65v152q0 27 14 36h-113v59h1084v-59z" />
    <glyph glyph-name="uni091C094D" horiz-adv-x="719" 
d="M797 622v-59h-817v59h817zM871 485v-59h-222v-272q0 -40 -18 -58t-58 -18h-424q-40 0 -58.5 18t-18.5 58v331h194v-316q0 -18 7 -25t26 -7h124q19 0 26 7t7 25v316h415z" />
    <glyph glyph-name="uni091D094D" horiz-adv-x="724" 
d="M891 331v-59h-227q1 -5 1 -17v-101q0 -40 -18 -58t-58 -18h-316v-78h-206v190h206v-53h159q20 0 27 7t7 26v69q0 19 -7 26t-27 7h-284q-40 0 -58 18t-18 58v61q0 40 18 58t58 18h311v78h-479v59h817v-59h-139v-137h-353q-19 0 -26 -7t-7 -26v-29q0 -20 7 -26.5t26 -6.5
h586z" />
    <glyph glyph-name="uni091E094D" horiz-adv-x="687" 
d="M758 622v-59h-778v59h778zM829 318v-59h-206v-105q0 -40 -18 -58t-58 -18h-434q-40 0 -58.5 18t-18.5 58v115h201v-100q0 -18 6.5 -25t25.5 -7h121q19 0 26 7t7 25v225q0 18 -7 25t-26 7h-179v59h336q40 0 58 -18t18 -58v-91h206z" />
    <glyph glyph-name="uni091F094D" horiz-adv-x="732" 
d="M261 -60h201l132 -179h-202zM634 426h-327q-19 0 -26 -7t-7 -25v-303q0 -18 7 -25t26 -7h124q19 0 26 7t7 25v153h200v-168q0 -40 -18.5 -58t-58.5 -18h-436q-40 0 -58.5 18t-18.5 58v333q0 40 18.5 58t58.5 18h283v78h-454v59h772v-59h-118v-137z" />
    <glyph glyph-name="uni0920094D" horiz-adv-x="758" 
d="M269 -60h201l132 -179h-202zM491 91v303q0 18 -7.5 25t-26.5 7h-156q-19 0 -26 -7t-7 -25v-303q0 -18 7 -25t26 -7h156q19 0 26.5 7t7.5 25zM778 563h-299v-78h129q40 0 58 -18t18 -58v-333q0 -40 -18 -58t-58 -18h-457q-40 0 -58.5 18t-18.5 58v333q0 40 18.5 58
t58.5 18h128v78h-299v59h798v-59z" />
    <glyph glyph-name="uni0921094D" horiz-adv-x="714" 
d="M256 -60h201l132 -179h-202zM626 426h-324q-20 0 -26.5 -7t-6.5 -26v-49q0 -20 6.5 -26.5t26.5 -6.5h271q40 0 58.5 -18t18.5 -58v-159q0 -40 -18.5 -58t-58.5 -18h-425q-40 0 -58 18t-18 58v94h200v-79q0 -18 7 -25t26 -7h111q20 0 26.5 6.5t6.5 26.5v127q0 19 -6.5 26
t-26.5 7h-271q-40 0 -58 18t-18 58v81q0 40 18 58t58 18h281v78h-446v59h755v-59h-109v-137z" />
    <glyph glyph-name="uni0922094D" horiz-adv-x="756" 
d="M272 -60h201l132 -179h-202zM636 426h-329q-19 0 -26 -7t-7 -25v-303q0 -18 7 -25t26 -7h164q19 0 26 7t7 25v108q0 18 -7 25t-26 7h-101v59h241q40 0 58 -18t18 -58v-138q0 -40 -18 -58t-58 -18h-460q-40 0 -58.5 18t-18.5 58v333q0 40 18.5 58t58.5 18h285v78h-456v59
h796v-59h-140v-137z" />
    <glyph glyph-name="uni0923094D" horiz-adv-x="710" 
d="M455 169v394h-194v-394q0 -18 7 -25t26 -7h128q19 0 26 7t7 25zM730 622v-59h-88v-409q0 -40 -18 -58t-58 -18h-415q-40 0 -58.5 18t-18.5 58v409h-94v59h750z" />
    <glyph glyph-name="uni0924094D" horiz-adv-x="420" 
d="M-20 563v59h497v-59h-497zM597 485v-59h-292q-19 0 -25.5 -7t-6.5 -25v-303q0 -18 6.5 -25t25.5 -7h74v-59h-230q-40 0 -58.5 18t-18.5 58v333q0 40 18.5 58t58.5 18h448z" />
    <glyph glyph-name="uni0925094D" horiz-adv-x="693" 
d="M305 137h562v-59h-718q-40 0 -58.5 18t-18.5 58v197h335q19 0 26 6.5t7 25.5v148q0 18 -7 25t-26 7h-99q-19 0 -26 -7t-7 -25v-98h-196v113q0 40 18 58t58 18h405q40 0 58.5 -18t18.5 -58v-178q0 -40 -18.5 -58t-58.5 -18h-287v-123q0 -18 6.5 -25t25.5 -7z" />
    <glyph glyph-name="uni0926094D" horiz-adv-x="731" 
d="M451 0v87q-11 -9 -32 -9h-277q-40 0 -58.5 18t-18.5 58v255q0 40 18.5 58t58.5 18h300v78h-462v59h771v-59h-109v-137h-344q-19 0 -26 -7t-7 -25v-225q0 -18 7 -25t26 -7h119q19 0 26.5 7.5t7.5 26.5v95h201v-266h-201zM639 -60l132 -179h-202l-131 179h201z" />
    <glyph glyph-name="uni0927094D" horiz-adv-x="658" 
d="M306 137h499v-59h-656q-40 0 -58 18t-18 58v106q0 64 62 65v4q-62 1 -62 65v152q0 40 18 58t58 18h377q40 0 58 -18t18 -58v-120h-166v105q0 18 -6.5 25t-25.5 7h-98q-19 0 -26 -7t-7 -25v-140q0 -19 6.5 -26t26.5 -7h122v-59h-122q-20 0 -26.5 -6.5t-6.5 -26.5v-97
q0 -18 7 -25t26 -7z" />
    <glyph glyph-name="uni0928094D" horiz-adv-x="700" 
d="M767 622v-59h-787v59h787zM441 169v257h-160q-19 0 -26 -7t-7 -25v-225q0 -18 7 -25t26 -7h127q19 0 26 7t7 25zM853 485v-59h-219v-272q0 -40 -18 -58t-58 -18h-426q-40 0 -58.5 18t-18.5 58v255q0 40 18.5 58t58.5 18h721z" />
    <glyph glyph-name="uni092A094D" horiz-adv-x="379" 
d="M301 137h206v-59h-356q-40 0 -58.5 18t-18.5 58v409h-94v59h456v-59h-168v-394q0 -18 7 -25t26 -7z" />
    <glyph glyph-name="uni092B094D" horiz-adv-x="756" 
d="M301 137h129q20 0 27 7.5t7 26.5v392h-196v-394q0 -18 7 -25t26 -7zM695 453h195v-59h-193q-19 0 -26.5 -7t-7.5 -27v-360h-199v87q-11 -9 -32 -9h-281q-40 0 -58.5 18t-18.5 58v409h-94v59h841v-59h-158v-119q11 9 32 9z" />
    <glyph glyph-name="uni092C094D" horiz-adv-x="455" 
d="M499 622v-59h-519v59h519zM264 269v-100q0 -18 7 -25t26 -7h238l-277 242q6 -53 6 -110zM584 137v-59h-442q-40 0 -58.5 18t-18.5 58v255q0 40 18.5 58t58.5 18h344v-59h-207l277 -246l-6 -43h34z" />
    <glyph glyph-name="uni092D094D" horiz-adv-x="731" 
d="M452 169v144h-161q-19 0 -26 -7t-7 -26v-111q0 -18 7 -25t26 -7h128q19 0 26 7t7 25zM855 372v-59h-203v-159q0 -40 -18 -58t-58 -18h-428q-40 0 -58 18t-18 58v141q0 40 18 58.5t58 18.5h304v159q0 18 -7 25t-26 7h-108q-19 0 -26 -7t-7 -25v-88h-200v103q0 40 18.5 58
t58.5 18h421q40 0 58 -18t18 -58v-174h203z" />
    <glyph glyph-name="uni092E094D" horiz-adv-x="721" 
d="M452 169v257h-160q-19 0 -26 -7t-7 -25v-225q0 -18 7 -25t26 -7h128q19 0 25.5 7t6.5 25zM859 485v-59h-206v-272q0 -40 -18.5 -58t-58.5 -18h-427q-40 0 -58.5 18t-18.5 58v255q0 40 18.5 58t58.5 18h303v78h-472v59h824v-59h-151v-78h206z" />
    <glyph glyph-name="uni092F094D" horiz-adv-x="592" 
d="M284 137h461v-59h-617q-40 0 -58.5 18t-18.5 58v214h250q19 0 26 7t7 26v129q0 20 -7 26.5t-26 6.5h-321v59h668v-59h-128q15 -9 15 -36v-142q0 -40 -18.5 -58t-58.5 -18h-206v-140q0 -18 6.5 -25t25.5 -7z" />
    <glyph glyph-name="uni0930094D" horiz-adv-x="729" 
d="M237 -60h201l132 -179h-202zM749 622v-59h-111q15 -9 15 -36v-166q0 -40 -18.5 -58t-58.5 -18h-303v-194q0 -18 6.5 -25t25.5 -7h107q19 0 26 7t7 25v120h200v-135q0 -40 -18.5 -58t-58.5 -18h-419q-40 0 -58.5 18t-18.5 58v356h201v-88h147q19 0 25.5 7t6.5 25v154
q0 20 -6.5 26.5t-25.5 6.5h-440v59h769z" />
    <glyph glyph-name="uni0932094D" horiz-adv-x="753" 
d="M810 622v-59h-830v59h830zM617 485h269v-59h-202q-19 0 -26 -7t-7 -25v-211h-199v211q0 18 -7.5 25t-26.5 7h-113q-19 0 -25.5 -7t-6.5 -25v-303q0 -18 6.5 -25t25.5 -7h161v-59h-317q-40 0 -58.5 18t-18.5 58v333q0 40 18.5 58t58.5 18h332q35 0 50.5 -14t17.5 -46h4
q2 31 17 45.5t47 14.5z" />
    <glyph glyph-name="uni0933094D" horiz-adv-x="1045" 
d="M790 169v225q0 18 -7 25t-26 7h-118q-19 0 -26 -7t-7 -25v-225q0 -18 7 -25t26 -7h118q19 0 26 7t7 25zM439 169v225q0 18 -7 25t-26 7h-118q-19 0 -26 -7t-7 -25v-225q0 -18 7 -25t26 -7h118q19 0 26 7t7 25zM588 485h315q40 0 58.5 -18t18.5 -58v-255q0 -40 -18.5 -58
t-58.5 -18h-315q-33 0 -47.5 14t-15.5 46h-5q-2 -32 -17.5 -46t-50.5 -14h-310q-40 0 -58 18t-18 58v255q0 40 18 58t58 18h310q35 0 50.5 -14t17.5 -46h5q1 32 15.5 46t47.5 14zM-20 622h1085v-59h-1085v59z" />
    <glyph glyph-name="uni0935094D" horiz-adv-x="396" 
d="M-20 563v59h462v-59h-462zM418 485v-59h-116q-19 0 -26 -7t-7 -25v-225q0 -18 7 -25t26 -7h250v-59h-407q-40 0 -58 18t-18 58v255q0 40 18 58t58 18h273z" />
    <glyph glyph-name="uni0936094D" horiz-adv-x="735" 
d="M586 265h-304v-174q0 -18 7 -25t26 -7h109q19 0 26 7t7 25v108h200v-123q0 -40 -18.5 -58t-58.5 -18h-422q-40 0 -58 18t-18 58v297h200v-49h147q19 0 26 7t7 25v175q0 18 -7 25t-26 7h-111q-19 0 -26 -7t-7 -25v-84h-200v99q0 40 18 58t58 18h425q40 0 58 -18t18 -58
v-205q0 -40 -18 -58t-58 -18z" />
    <glyph glyph-name="uni0937094D" horiz-adv-x="445" 
d="M274 334v-165q0 -18 7 -25t26 -7h219l-260 337q8 -67 8 -140zM560 137v-59h-409q-40 0 -58.5 18t-18.5 58v409h-94v59h522v-59h-236l267 -355l-3 -71h30z" />
    <glyph glyph-name="uni0938094D" horiz-adv-x="740" 
d="M274 280v-189q0 -18 7 -25t26 -7h116q19 0 26 7t7 25v123h200v-138q0 -40 -18 -58t-58 -18h-429q-40 0 -58.5 18t-18.5 58v400h200v-137h150q19 0 26 7t7 25v159q0 20 -6.5 26.5t-26.5 6.5h-444v59h817v-59h-154q14 -8 14 -36v-171q0 -12 -1 -17h221v-59h-603z" />
    <glyph glyph-name="uni0939094D" horiz-adv-x="704" 
d="M811 265h-501q-20 0 -26.5 -6.5t-6.5 -26.5v-141q0 -18 7 -25t26 -7h351v-59h-507q-40 0 -58.5 18t-18.5 58v145q0 34 15 49t48 16v5q-63 0 -63 64v54q0 40 18.5 58t58.5 18h290v78h-464v59h790v-59h-126v-137h-334q-19 0 -26 -7t-7 -25v-37q0 -19 6.5 -26t26.5 -7h501
v-59z" />
    <glyph glyph-name="uni0915093C094D" horiz-adv-x="741" 
d="M84 -116v129h195v-129h-195zM676 485h243v-59h-241q-20 0 -27 -7t-7 -27v-392h-200v87q-10 -9 -32 -9h-270q-40 0 -58.5 18t-18.5 58v255q0 40 18.5 58t58.5 18h252v-59h-96q-19 0 -26 -7t-7 -25v-225q0 -18 7 -25t26 -7h112q20 0 27 7.5t7 26.5v392h-464v59h817v-59
h-153v-87q10 9 32 9z" />
    <glyph glyph-name="uni0916093C094D" horiz-adv-x="999" 
d="M405 -194v129h195v-129h-195zM273 223v-132q0 -18 7 -25t26 -7h378v-59h-536q-40 0 -58 18t-18 58v371h201v-165h101q19 0 25.5 6.5t6.5 25.5v249h-426v59h1058v-59h-434v-264q0 -40 -18.5 -58t-58.5 -18h-254zM912 179h225v-59h-361q-40 0 -58 18t-18 58v183q0 40 18 58
t58 18h250v-59h-114q-19 0 -26 -7t-7 -25v-153q0 -18 7 -25t26 -7z" />
    <glyph glyph-name="uni0917093C094D" horiz-adv-x="721" 
d="M250 -116v129h195v-129h-195zM271 137h153q19 0 25.5 7t6.5 25v197h-185q-19 0 -26 -6.5t-7 -25.5v-165q0 -18 7 -25t26 -7zM741 622v-59h-85v-409q0 -40 -18 -58t-58 -18h-448q-40 0 -58.5 18t-18.5 58v195q0 40 18.5 58t58.5 18h324v138h-476v59h761z" />
    <glyph glyph-name="uni091C093C094D" horiz-adv-x="711" 
d="M789 622v-59h-809v59h809zM263 -116v129h195v-129h-195zM871 485v-59h-222v-272q0 -40 -18 -58t-58 -18h-424q-40 0 -58.5 18t-18.5 58v331h194v-316q0 -18 7 -25t26 -7h124q19 0 26 7t7 25v316h415z" />
    <glyph glyph-name="uni0928093C094D" horiz-adv-x="714" 
d="M767 622v-59h-787v59h787zM249 -116v129h195v-129h-195zM441 169v257h-160q-19 0 -26 -7t-7 -25v-225q0 -18 7 -25t26 -7h127q19 0 26 7t7 25zM853 485v-59h-219v-272q0 -40 -18 -58t-58 -18h-426q-40 0 -58.5 18t-18.5 58v255q0 40 18.5 58t58.5 18h721z" />
    <glyph glyph-name="uni092B093C094D" horiz-adv-x="755" 
d="M84 -116v129h195v-129h-195zM301 137h129q20 0 27 7.5t7 26.5v392h-196v-394q0 -18 7 -25t26 -7zM695 453h200v-59h-198q-19 0 -26.5 -7t-7.5 -27v-360h-199v87q-11 -9 -32 -9h-281q-40 0 -58.5 18t-18.5 58v409h-94v59h840v-59h-157v-119q11 9 32 9z" />
    <glyph glyph-name="uni092F093C094D" horiz-adv-x="605" 
d="M153 -116v129h196v-129h-196zM284 137h507v-59h-663q-40 0 -58.5 18t-18.5 58v214h250q19 0 26 7t7 26v129q0 20 -7 26.5t-26 6.5h-321v59h682v-59h-142q15 -9 15 -36v-142q0 -40 -18.5 -58t-58.5 -18h-206v-140q0 -18 6.5 -25t25.5 -7z" />
    <glyph glyph-name="uni09080902" horiz-adv-x="736" 
d="M623 760v-138h133v-59h-101v-137h-355q-20 0 -26.5 -7t-6.5 -26v-36q0 -19 6.5 -26t26.5 -7h296q40 0 58 -18t18 -58v-94q0 -40 -18 -58t-58 -18h-316v-78h-209v190h209v-53h159q19 0 26 6.5t7 26.5v62q0 20 -7 26.5t-26 6.5h-296q-40 0 -58 18t-18 58v68q0 40 18 58
t58 18h312v78h-474v59h441v155q0 40 17.5 57.5t57.5 17.5h254v-59h-94q-19 0 -26.5 -7.5t-7.5 -25.5zM681 755h95v-94h-95v94z" />
    <glyph glyph-name="uni09300941" horiz-adv-x="1068" 
d="M1088 622v-59h-448q14 -8 14 -36v-63h276q40 0 56 -19.5t16 -58.5v-308h-196v294q0 18 -7 25.5t-26 7.5h-119v-37q0 -40 -18 -58.5t-58 -18.5h-304v-200q0 -18 7 -25t26 -7h106q19 0 26.5 7t7.5 25v120h199v-135q0 -40 -18 -58t-58 -18h-419q-40 0 -58.5 18t-18.5 58v356
h200v-82h147q19 0 26 7t7 26v147q0 20 -7 26.5t-26 6.5h-441v59h1108z" />
    <glyph glyph-name="uni09300942" horiz-adv-x="1068" 
d="M1088 622v-59h-448q14 -8 14 -36v-63h276q40 0 56 -19.5t16 -58.5v-232q0 -40 -18 -58t-58 -18h-196v59h43q19 0 26 7t7 25v203q0 18 -7 25.5t-26 7.5h-119v-37q0 -40 -18 -58.5t-58 -18.5h-304v-200q0 -18 7 -25t26 -7h106q19 0 26.5 7t7.5 25v120h199v-135
q0 -40 -18 -58t-58 -18h-419q-40 0 -58.5 18t-18.5 58v356h200v-82h147q19 0 26 7t7 26v147q0 20 -7 26.5t-26 6.5h-441v59h1108z" />
    <glyph glyph-name="uni09390941" horiz-adv-x="748" 
d="M656 426h-346q-19 0 -26 -7t-7 -25v-37q0 -19 6.5 -26t26.5 -7h277q88 0 88 -83v-96h-188v87q0 18 -7 25.5t-26 7.5h-144q-20 0 -26.5 -6.5t-6.5 -26.5v-131q0 -18 7 -25t26 -7h301q40 0 57.5 -17.5t17.5 -57.5v-134q0 -40 -17.5 -57.5t-57.5 -17.5h-334q-55 0 -78 10.5
t-48 53.5l-60 99h187l44 -76q10 -16 18 -22t24 -6h98q19 0 26.5 7.5t7.5 25.5v100q0 18 -7.5 25.5t-26.5 7.5h-308q-40 0 -58.5 18t-18.5 58v135q0 34 15 49t48 16v5q-63 0 -63 64v54q0 40 18.5 58t58.5 18h303v78h-477v59h788v-59h-112v-137z" />
    <glyph glyph-name="uni09390942" horiz-adv-x="748" 
d="M474 10h-84q-19 0 -26.5 -7.5t-7.5 -25.5v-86q0 -18 7.5 -25.5t26.5 -7.5h99v-59h-242q-40 0 -57.5 17.5t-17.5 57.5v120q0 11 1 16h-19q-40 0 -58.5 18t-18.5 58v135q0 34 15 49t48 16v5q-63 0 -63 64v54q0 40 18.5 58t58.5 18h303v78h-477v59h788v-59h-112v-137h-346
q-19 0 -26 -7t-7 -25v-37q0 -19 6.5 -26t26.5 -7h277q88 0 88 -83v-99h-188v90q0 18 -7 25.5t-26 7.5h-144q-20 0 -26.5 -6.5t-6.5 -26.5v-131q0 -18 7 -25t26 -7h251q55 0 78 -11t48 -53l122 -206h-187l-106 183q-10 16 -18 22t-24 6z" />
    <glyph glyph-name="uni09260943" horiz-adv-x="733" 
d="M642 426h-344q-19 0 -26 -7t-7 -25v-225q0 -18 7 -25t26 -7h119q19 0 26.5 7.5t7.5 26.5v95h201v-325h-166q-19 0 -26.5 -7.5t-7.5 -25.5v-86q0 -18 7.5 -25.5t26.5 -7.5h182v-59h-331q-40 0 -57.5 17.5t-17.5 57.5v120q0 40 17.5 57.5t57.5 17.5h114v87q-11 -9 -32 -9
h-277q-40 0 -58.5 18t-18.5 58v255q0 40 18.5 58t58.5 18h300v78h-462v59h773v-59h-111v-137z" />
    <glyph glyph-name="uni09390943" horiz-adv-x="747" 
d="M656 426h-346q-19 0 -26 -7t-7 -25v-34q0 -20 6.5 -26.5t26.5 -6.5h285q74 0 74 -57q0 -19 -22.5 -64t-22.5 -58t25 -13h31v-58h-169q-70 0 -70 54q0 19 22 63.5t22 56.5q0 17 -29 17h-146q-20 0 -26.5 -7t-6.5 -26v-182q0 -19 7 -27.5t26 -8.5h363v-59h-519
q-77 0 -77 78v188q0 34 15 49t48 16v5q-63 0 -63 64v51q0 40 18.5 58t58.5 18h303v78h-477v59h787v-59h-111v-137z" />
    <glyph glyph-name="uni094D0930" horiz-adv-x="0" 
d="M73 -178h-189l-70 151l-71 -151h-189l108 184h303z" />
    <glyph glyph-name="uni0930094D.1" horiz-adv-x="678" 
d="M580 401v51h200v-67q0 -40 -18 -58t-58 -18h-622q-40 0 -58.5 18t-18.5 58v67h194v-51q0 -19 7 -26t26 -7h315q19 0 26 7t7 26zM-20 622h800v-59h-800v59z" />
    <glyph glyph-name="uni0930094D.2" horiz-adv-x="0" 
d="M22 839v-59h-75q-19 0 -26 -6.5t-7 -25.5v-151h-200v166q0 40 18 58t58 18h232z" />
    <glyph glyph-name="uni0930094D0902" horiz-adv-x="0" 
d="M22 839v-59h-75q-19 0 -26 -6.5t-7 -25.5v-151h-200v166q0 40 18 58t58 18h232zM-39 658v86h86v-86h-86z" />
    <glyph glyph-name="uni0930094D.aMatraI" horiz-adv-x="0" 
d="M0 760v-89h-31v124q0 27 14.5 42t41.5 15h84v-59h-75q-19 0 -26.5 -7.5t-7.5 -25.5z" />
    <glyph glyph-name="uni0902.aMatraI" horiz-adv-x="0" 
d="M67 677v129h196v-129h-196z" />
    <glyph glyph-name="uni0930094D0902.aMatraI" horiz-adv-x="0" 
d="M42 671v79h80v-79h-80zM0 760v-89h-31v124q0 27 14.5 42t41.5 15h97v-59h-88q-19 0 -26.5 -7.5t-7.5 -25.5z" />
    <glyph glyph-name="uni09400930094D" 
d="M392 622v-59h-106v-563h-200v563h-106v59h106v126q0 19 -7 25.5t-26 6.5h-109q-19 0 -26 -6.5t-7 -25.5v-78h-200v93q0 40 18 58t58 18h313q47 0 65.5 -18t18.5 -63h5q0 45 18 63t65 18h116v-59h-69q-19 0 -26 -6.5t-7 -25.5v-126h106z" />
    <glyph glyph-name="uni09400902" 
d="M267 763v-141h125v-59h-106v-563h-200v563h-106v59h106v126q0 19 -7 25.5t-26 6.5h-109q-19 0 -26 -6.5t-7 -25.5v-78h-200v93q0 40 18 58t58 18h404q40 0 58 -18t18 -58zM315 795h134v-114h-134v114z" />
    <glyph glyph-name="uni09400930094D0902" 
d="M322 658v86h86v-86h-86zM272 839h144v-59h-97q-19 0 -26 -6.5t-7 -25.5v-126h106v-59h-106v-563h-200v563h-106v59h106v126q0 19 -7 25.5t-26 6.5h-109q-19 0 -26 -6.5t-7 -25.5v-78h-200v93q0 40 18 58t58 18h313q47 0 65.5 -18t18.5 -63h5q0 45 18 63t65 18z" />
    <glyph glyph-name="uni0940.aLong" 
d="M392 622v-59h-106v-563h-200v563h-106v59h106v126q0 19 -7 25.5t-26 6.5h-249q-19 0 -26 -6.5t-7 -25.5v-78h-200v93q0 40 18 58t58 18h563q40 0 58 -18t18 -58v-141h106z" />
    <glyph glyph-name="uni09400930094D.aLong" 
d="M392 622v-59h-106v-563h-200v563h-106v59h106v126q0 19 -7 25.5t-26 6.5h-326q-19 0 -26 -6.5t-7 -25.5v-78h-200v93q0 40 18.5 58t58.5 18h529q47 0 65.5 -18t18.5 -63h5q0 45 18 63t65 18h116v-59h-69q-19 0 -26 -6.5t-7 -25.5v-126h106z" />
    <glyph glyph-name="uni09400902.aLong" 
d="M267 763v-141h125v-59h-106v-563h-200v563h-106v59h106v126q0 19 -7 25.5t-26 6.5h-326q-19 0 -26 -6.5t-7 -25.5v-78h-200v93q0 40 18.5 58t58.5 18h620q40 0 58 -18t18 -58zM321 795h135v-114h-135v114z" />
    <glyph glyph-name="uni09400930094D0902.aLong" 
d="M322 658v86h86v-86h-86zM272 839h144v-59h-97q-19 0 -26 -6.5t-7 -25.5v-126h106v-59h-106v-563h-200v563h-106v59h106v126q0 19 -7 25.5t-26 6.5h-326q-19 0 -26 -6.5t-7 -25.5v-78h-200v93q0 40 18.5 58t58.5 18h529q47 0 65.5 -18t18.5 -63h5q0 45 18 63t65 18z" />
    <glyph glyph-name="uni09470930094D" horiz-adv-x="0" 
d="M-86 610h-177q-49 28 -125 119l-93 110h180l66 -84q18 -23 54 -88q-10 40 -10 78v20q0 86 85 86h106v-64h-48q-21 0 -29.5 -8t-8.5 -32v-137z" />
    <glyph glyph-name="uni09470902" horiz-adv-x="0" 
d="M-99 686v117h138v-117h-138zM-86 610h-171q-54 30 -132 119l-96 110h209z" />
    <glyph glyph-name="uni09470901" horiz-adv-x="0" 
d="M-70 685q-40 0 -57 19.5t-17 58.5v89h114v-76q0 -18 7 -25t26 -7h158q19 0 26 7t7 25v76h113v-89q0 -39 -16 -58.5t-56 -19.5h-305zM-102 610h-155q-54 30 -132 119l-96 110h190zM34 803v93h96v-93h-96z" />
    <glyph glyph-name="uni09470930094D0902" horiz-adv-x="0" 
d="M1 787h-49q-20 0 -28.5 -8t-8.5 -32v-137h-177q-48 28 -126 119l-93 110h181l66 -84q20 -27 54 -88q-11 44 -11 78v20q0 86 86 86h106v-64zM-48 654v100h101v-100h-101z" />
    <glyph glyph-name="uni09480930094D" horiz-adv-x="0" 
d="M-86 740v-129h-188q-30 7 -73 30.5t-75 52.5l-158 145h194l60 -67q53 -58 112 -150h7q-44 86 -69 142l-34 75h117l20 -70l28 -121q-5 48 -5 97v14q0 80 83 80h70v-60h-52q-21 0 -29 -7.5t-8 -31.5z" />
    <glyph glyph-name="uni09480902" horiz-adv-x="0" 
d="M-188 622h7q-16 31 -62 163l-19 54h126l42 -228h-180q-36 21 -119 99l-137 129h182l44 -53q69 -80 116 -164zM-64 686v117h132v-117h-132z" />
    <glyph glyph-name="uni09480901" horiz-adv-x="0" 
d="M-37 685q-40 0 -56.5 19.5t-16.5 58.5v89h101v-76q0 -18 6.5 -25t25.5 -7h146q19 0 26 7t7 25v76h100v-89q0 -39 -16 -58.5t-56 -19.5h-267zM-194 622q0 1 -34 64t-47 99l-19 54h123l61 -228h-164q-49 21 -132 99l-137 129h169l45 -53q80 -89 100 -119t28 -45h7zM48 803
v86h96v-86h-96z" />
    <glyph glyph-name="uni09480930094D0902" horiz-adv-x="0" 
d="M-86 740v-129h-188q-30 7 -73 30.5t-75 52.5l-158 145h194l60 -67q53 -58 112 -150h7q-44 86 -69 142l-34 75h117l20 -70l28 -121q-5 48 -5 97v14q0 80 83 80h70v-60h-52q-21 0 -29 -7.5t-8 -31.5zM-55 665v73h79v-73h-79z" />
    <glyph glyph-name="uni094B0930094D" horiz-adv-x="374" 
d="M392 622v-59h-106v-563h-200v563h-106v59h110q-43 31 -106 107l-93 110h180l66 -84q18 -23 54 -88q-10 40 -10 78v20q0 86 85 86h106v-64h-48q-21 0 -29.5 -8t-8.5 -32v-125h106z" />
    <glyph glyph-name="uni094B0902" horiz-adv-x="374" 
d="M392 622v-59h-106v-563h-200v563h-106v59h116q-46 31 -113 107l-96 110h209l180 -217h116zM273 803h138v-117h-138v117z" />
    <glyph glyph-name="uni094B0930094D0902" horiz-adv-x="374" 
d="M293 747v-125h99v-59h-106v-563h-200v563h-106v59h117q-42 31 -107 107l-93 110h181l66 -84q20 -27 54 -88q-11 44 -11 78v20q0 86 86 86h106v-64h-49q-20 0 -28.5 -8t-8.5 -32zM330 754h101v-100h-101v100z" />
    <glyph glyph-name="uni094C0930094D" horiz-adv-x="374" 
d="M392 622v-59h-106v-563h-200v563h-106v59h85q-63 24 -115 72l-158 145h194l60 -67q53 -58 112 -150h7q-44 86 -69 142l-34 75h117l20 -70l28 -121q-5 48 -5 97v14q0 80 83 80h70v-60h-52q-21 0 -29 -7.5t-8 -31.5v-118h106z" />
    <glyph glyph-name="uni094C0902" horiz-adv-x="374" 
d="M392 622v-59h-106v-563h-200v563h-106v59h102q-35 25 -103 88l-137 129h182l44 -53q69 -80 116 -164h7q-16 31 -62 163l-19 54h126l40 -217h116zM308 803h132v-117h-132v117z" />
    <glyph glyph-name="uni094C0930094D0902" horiz-adv-x="374" 
d="M286 740v-118h106v-59h-106v-563h-200v563h-106v59h85q-63 24 -115 72l-158 145h194l60 -67q53 -58 112 -150h7q-44 86 -69 142l-34 75h117l20 -70l28 -121q-5 48 -5 97v14q0 80 83 80h70v-60h-52q-21 0 -29 -7.5t-8 -31.5zM317 738h79v-73h-79v73z" />
    <glyph glyph-name="uni0915094D0937" horiz-adv-x="1100" 
d="M467 393v137q0 20 -6.5 26.5t-26.5 6.5h-96q-20 0 -26.5 -6.5t-6.5 -26.5v-137q0 -19 7 -26t27 -7h95q20 0 26.5 7t6.5 26zM1120 622v-59h-106v-563h-199v301h-533q-20 0 -26.5 -6.5t-6.5 -26.5v-98q0 -20 6.5 -26.5t26.5 -6.5h145q20 0 28 8t8 28v53h200v-226h-200v88
q-10 -10 -33 -10h-304q-40 0 -58.5 18t-18.5 58v129q0 77 75 77h7q-18 10 -18 44v142q0 40 18.5 58t58.5 18h392q40 0 58 -18t18 -58v-142q0 -33 -17 -44h174v262h305z" />
    <glyph glyph-name="uni0915094D0937094D" horiz-adv-x="741" 
d="M305 530v-137q0 -19 7 -26t27 -7h95q20 0 26.5 7t6.5 26v137q0 20 -6.5 26.5t-26.5 6.5h-96q-20 0 -26.5 -6.5t-6.5 -26.5zM933 301h-651q-20 0 -26.5 -6.5t-6.5 -26.5v-98q0 -20 6.5 -26.5t26.5 -6.5h145q20 0 28 8t8 28v53h200v-226h-200v88q-10 -10 -33 -10h-304
q-40 0 -58.5 18t-18.5 58v129q0 77 75 77h7q-18 10 -18 44v142q0 40 18.5 58t58.5 18h392q40 0 58 -18t18 -58v-142q0 -33 -17 -44h292v-59z" />
    <glyph glyph-name="uni0915094D0937094D092E" horiz-adv-x="1820" 
d="M1535 485v78h-152v-78h152zM1183 169v257h-161q-19 0 -26 -7t-7 -25v-225q0 -18 7 -25t26 -7h128q19 0 26 7t7 25zM467 393v137q0 20 -6.5 26.5t-26.5 6.5h-96q-20 0 -26.5 -6.5t-6.5 -26.5v-137q0 -19 7 -26t27 -7h95q20 0 26.5 7t6.5 26zM1840 622v-59h-107v-563h-198
v426h-152v-272q0 -40 -18.5 -58t-58.5 -18h-427q-40 0 -58 18t-18 58v147h-521q-20 0 -26.5 -6.5t-6.5 -26.5v-98q0 -20 6.5 -26.5t26.5 -6.5h145q20 0 28 8t8 28v53h200v-226h-200v88q-10 -10 -33 -10h-304q-40 0 -58.5 18t-18.5 58v129q0 77 75 77h7q-18 10 -18 44v142
q0 40 18.5 58t58.5 18h392q40 0 58 -18t18 -58v-142q0 -33 -17 -44h162v49q0 40 18 58t58 18h304v78h-411v59h1068z" />
    <glyph glyph-name="uni0915094D0937094D092E094D" horiz-adv-x="1457" 
d="M1189 169v257h-161q-19 0 -25.5 -7t-6.5 -25v-225q0 -18 6.5 -25t25.5 -7h128q19 0 26 7t7 25zM467 393v137q0 20 -6.5 26.5t-26.5 6.5h-96q-20 0 -26.5 -6.5t-6.5 -26.5v-137q0 -19 7 -26t27 -7h95q20 0 26.5 7t6.5 26zM1589 485v-59h-200v-272q0 -40 -18 -58t-58 -18
h-428q-40 0 -58 18t-18 58v147h-527q-20 0 -26.5 -6.5t-6.5 -26.5v-98q0 -20 6.5 -26.5t26.5 -6.5h145q20 0 28 8t8 28v53h200v-226h-200v88q-10 -10 -33 -10h-304q-40 0 -58.5 18t-18.5 58v129q0 77 75 77h7q-18 10 -18 44v142q0 40 18.5 58t58.5 18h392q40 0 58 -18
t18 -58v-142q0 -33 -17 -44h168v49q0 40 18 58t58 18h304v78h-452v59h796v-59h-144v-78h200z" />
    <glyph glyph-name="uni0915094D0937094D092E094D092F" horiz-adv-x="2441" 
d="M2155 173v390h-165q15 -9 15 -36v-142q0 -40 -18.5 -58t-58.5 -18h-202v-140q0 -18 6.5 -25t25.5 -7h360q21 0 29 8t8 28zM1183 169v257h-161q-19 0 -26 -7t-7 -25v-225q0 -18 7 -25t26 -7h128q19 0 26 7t7 25zM467 393v137q0 20 -6.5 26.5t-26.5 6.5h-96
q-20 0 -26.5 -6.5t-6.5 -26.5v-137q0 -19 7 -26t27 -7h95q20 0 26.5 7t6.5 26zM2461 622v-59h-106v-563h-200v89q-10 -11 -34 -11h-519q-40 0 -58.5 18t-18.5 58v214h247q19 0 26 7t7 26v129q0 20 -6.5 26.5t-26.5 6.5h-389v-78h143v-59h-143v-272q0 -40 -18.5 -58
t-58.5 -18h-427q-40 0 -58 18t-18 58v147h-521q-20 0 -26.5 -6.5t-6.5 -26.5v-98q0 -20 6.5 -26.5t26.5 -6.5h145q20 0 28 8t8 28v53h200v-226h-200v88q-10 -10 -33 -10h-304q-40 0 -58.5 18t-18.5 58v129q0 77 75 77h7q-18 10 -18 44v142q0 40 18.5 58t58.5 18h392
q40 0 58 -18t18 -58v-142q0 -33 -17 -44h162v49q0 40 18 58t58 18h304v78h-410v59h1688z" />
    <glyph glyph-name="uni0915094D0937094D092F" horiz-adv-x="1708" 
d="M1422 173v390h-165q15 -9 15 -36v-145q0 -40 -18 -58.5t-58 -18.5h-203v-136q0 -18 7 -25t26 -7h360q20 0 28 8t8 28zM467 397v133q0 20 -6.5 26.5t-26.5 6.5h-96q-20 0 -26.5 -6.5t-6.5 -26.5v-133q0 -19 7 -26t27 -7h95q20 0 26.5 7t6.5 26zM1728 622v-59h-106v-563
h-200v89q-10 -11 -34 -11h-519q-40 0 -58 18t-18 58v152h-511q-20 0 -26.5 -7t-6.5 -26v-103q0 -20 6.5 -26.5t26.5 -6.5h145q20 0 28 8t8 28v53h200v-226h-200v88q-10 -10 -33 -10h-304q-40 0 -58.5 18t-18.5 58v133q0 39 17.5 58t57.5 19h8q-19 9 -19 44v138q0 40 18.5 58
t58.5 18h392q40 0 58 -18t18 -58v-138q0 -35 -19 -44h400q19 0 26 7t7 26v133q0 20 -7 26.5t-26 6.5h-277v59h966z" />
    <glyph glyph-name="uni0915094D0937094D0935" horiz-adv-x="1491" 
d="M467 393v137q0 20 -6.5 26.5t-26.5 6.5h-96q-20 0 -26.5 -6.5t-6.5 -26.5v-137q0 -19 7 -26t27 -7h95q20 0 26.5 7t6.5 26zM1511 622v-59h-106v-563h-199v87q-11 -9 -32 -9h-291q-40 0 -58.5 18t-18.5 58v147h-524q-20 0 -26.5 -6.5t-6.5 -26.5v-98q0 -20 6.5 -26.5
t26.5 -6.5h145q20 0 28 8t8 28v53h200v-226h-200v88q-10 -10 -33 -10h-304q-40 0 -58.5 18t-18.5 58v129q0 77 75 77h7q-18 10 -18 44v142q0 40 18.5 58t58.5 18h392q40 0 58 -18t18 -58v-142q0 -33 -17 -44h165v49q0 40 18.5 58t58.5 18h273v-59h-117q-19 0 -26 -7t-7 -25
v-225q0 -18 7 -25t26 -7h133q20 0 27 7.5t7 26.5v392h-437v59h742z" />
    <glyph glyph-name="uni091C094D091E" horiz-adv-x="1073" 
d="M1093 622v-59h-106v-563h-200v426h-478q-19 0 -25.5 -6.5t-6.5 -26.5v-37q0 -20 6.5 -26.5t25.5 -6.5h267q40 0 58 -18t18 -58v-93q0 -40 -18 -58t-58 -18h-301v-78h-209v193h209v-56h144q19 0 26 6.5t7 26.5v61q0 19 -7 26t-26 7h-266q-40 0 -58.5 18t-18.5 58v69
q0 40 18.5 58t58.5 18h634v78h-807v59h1113z" />
    <glyph glyph-name="uni091C094D091E094D" horiz-adv-x="716" 
d="M789 622v-59h-809v59h809zM896 426h-587q-19 0 -25.5 -6.5t-6.5 -26.5v-37q0 -20 6.5 -26.5t25.5 -6.5h267q40 0 58 -18t18 -58v-93q0 -40 -18 -58t-58 -18h-301v-78h-209v193h209v-56h144q19 0 26 6.5t7 26.5v61q0 19 -7 26t-26 7h-266q-40 0 -58.5 18t-18.5 58v69
q0 40 18.5 58t58.5 18h743v-59z" />
    <glyph glyph-name="uni091C094D091E094D092F" horiz-adv-x="1697" 
d="M309 323h267q40 0 58 -18t18 -58v-93q0 -40 -18 -58t-58 -18h-301v-78h-209v193h209v-56h144q19 0 26 6.5t7 26.5v61q0 19 -7 26t-26 7h-266q-40 0 -58.5 18t-18.5 58v69q0 40 18.5 58t58.5 18h639v-59h-483q-19 0 -25.5 -6.5t-6.5 -26.5v-37q0 -20 6.5 -26.5t25.5 -6.5z
M1420 173v390h-165q15 -9 15 -36v-142q0 -40 -18.5 -58t-58.5 -18h-202v-140q0 -18 6.5 -25t25.5 -7h360q21 0 29 8t8 28zM1726 622v-59h-106v-563h-200v89q-10 -11 -34 -11h-519q-40 0 -58.5 18t-18.5 58v214h247q19 0 26 7t7 26v129q0 20 -7 26.5t-26 6.5h-1057v59h1746z
" />
    <glyph glyph-name="uni0915094D0928" horiz-adv-x="1804" 
d="M1518 485v78h-874v-87q10 9 32 9h842zM1185 169v257h-160q-19 0 -26 -7t-7 -25v-225q0 -18 7 -25t26 -7h127q19 0 26 7t7 25zM1824 622v-59h-106v-563h-200v426h-140v-272q0 -40 -18 -58t-58 -18h-426q-40 0 -58.5 18t-18.5 58v255q0 12 1 17h-122q-20 0 -27 -7t-7 -27
v-392h-200v87q-10 -9 -32 -9h-270q-40 0 -58.5 18t-18.5 58v255q0 40 18.5 58t58.5 18h252v-59h-96q-19 0 -26 -7t-7 -25v-225q0 -18 7 -25t26 -7h112q20 0 27 7.5t7 26.5v392h-464v59h1844z" />
    <glyph glyph-name="uni0916094D0928" horiz-adv-x="2084" 
d="M1465 169v257h-160q-19 0 -26 -7t-7 -25v-225q0 -18 7 -25t26 -7h127q19 0 26 7t7 25zM2104 622v-59h-106v-563h-200v426h-140v-272q0 -40 -18 -58t-58 -18h-427q-61 0 -73 46q-12 -4 -33 -4h-273q-40 0 -58 18t-18 58v183q0 40 18 58t58 18h250v-59h-114q-19 0 -26 -7
t-7 -25v-153q0 -18 7 -25t26 -7h133q19 0 26.5 7.5t7.5 25.5v197q0 40 18 58t58 18h643v78h-1194v-264q0 -40 -18.5 -58t-58.5 -18h-254v-132q0 -18 7 -25t26 -7h378v-59h-536q-40 0 -58 18t-18 58v371h201v-165h101q19 0 25.5 6.5t6.5 25.5v249h-426v59h2124z" />
    <glyph glyph-name="uni0917094D0928" horiz-adv-x="1784" 
d="M1165 169v257h-160q-19 0 -26 -7t-7 -25v-225q0 -18 7 -25t26 -7h127q19 0 26 7t7 25zM271 137h153q19 0 25.5 7t6.5 25v198h-185q-19 0 -26 -7t-7 -25v-166q0 -18 7 -25t26 -7zM1804 622v-59h-106v-563h-200v426h-140v-272q0 -40 -18 -58t-58 -18h-426q-40 0 -58.5 18
t-18.5 58v255q0 40 18.5 58t58.5 18h642v78h-842v-409q0 -40 -18 -58t-58 -18h-448q-40 0 -58.5 18t-18.5 58v196q0 40 18.5 58t58.5 18h324v137h-476v59h1824z" />
    <glyph glyph-name="uni0918094D0928" horiz-adv-x="1581" 
d="M1295 485v78h-988q-19 0 -26 -6.5t-7 -26.5v-119q0 -19 7 -26t26 -7h138v-59h-138q-19 0 -26 -6.5t-7 -26.5v-117q0 -18 7 -25t26 -7h234q19 0 26.5 7.5t7.5 25.5h1v239q0 40 18.5 58t58.5 18h642zM962 169v257h-160q-19 0 -26 -7t-7 -25v-225q0 -18 7 -25t26 -7h127
q19 0 26 7t7 25zM1601 622v-59h-106v-563h-200v426h-140v-272q0 -40 -18 -58t-58 -18h-426q-37 0 -56 16q-15 -16 -52 -16h-394q-40 0 -58.5 18t-18.5 58v126q0 65 63 65v5q-33 1 -48 16t-15 49v112q0 27 15 36h-109v59h1621z" />
    <glyph glyph-name="uni091A094D0928" horiz-adv-x="1560" 
d="M941 169v257h-159q-19 0 -26 -7t-7 -25v-225q0 -18 7 -25t26 -7h127q19 0 25.5 7t6.5 25zM1580 622v-59h-106v-563h-200v426h-139v-272q0 -40 -18.5 -58t-58.5 -18h-426q-36 0 -55 15q-17 -15 -52 -15h-348q-40 0 -58.5 18t-18.5 58v236q0 27 15 36h-99v59h414v-59h-101
q-16 -1 -22.5 -8t-6.5 -24v-225q0 -18 7 -25t26 -7h188q19 0 26.5 7.5t7.5 25.5v239q0 40 18.5 58t58.5 18h642v78h-1294v59h1600z" />
    <glyph glyph-name="uni091B094D0928" horiz-adv-x="1050" 
d="M629 485v78h-317q-20 0 -26.5 -6.5t-6.5 -26.5v-155q0 -19 6.5 -26t26.5 -7h96v-59h-96q-20 0 -26.5 -6.5t-6.5 -26.5v-149q0 -19 7 -25.5t26 -6.5h455q19 0 26 6.5t7 25.5v293q0 18 -7 25t-26 7h-103q-19 0 -26 -7t-7 -25v-120q0 -19 7 -25.5t26 -6.5h56v-59h-189
q-40 0 -58.5 18t-18.5 58v150q0 40 18.5 58t58.5 18h98zM1070 563h-256v-78h85q40 0 58 -18t18 -58v-323q0 -40 -18 -58t-58 -18h-114v-269h-186v136h-176q-19 0 -26.5 -7t-7.5 -26v-59h-199v75q0 40 18 58t58 18h333v74h-443q-40 0 -58.5 18t-18.5 58v158q0 64 63 64v5
q-63 1 -63 65v149q0 27 14 36h-113v59h1090v-59z" />
    <glyph glyph-name="uni091C094D0928" horiz-adv-x="1789" 
d="M1169 169v257h-160q-19 0 -26 -7t-7 -25v-225q0 -18 7 -25t26 -7h127q19 0 26 7t7 25zM1808 622v-59h-106v-563h-200v426h-140v-272q0 -40 -18 -58t-58 -18h-426q-40 0 -58.5 18t-18.5 58v255q0 12 1 17h-135v-272q0 -40 -18 -58t-58 -18h-424q-40 0 -58.5 18t-18.5 58
v331h194v-316q0 -18 7 -25t26 -7h124q19 0 26 7t7 25v316h1046v78h-1522v59h1828z" />
    <glyph glyph-name="uni091D094D0928" horiz-adv-x="1810" 
d="M1524 485v78h-866v-137h-353q-19 0 -26 -7t-7 -26v-29q0 -20 7 -26.5t26 -6.5h500v78q0 40 18.5 58t58.5 18h642zM1191 169v257h-160q-19 0 -26 -7t-7 -25v-225q0 -18 7 -25t26 -7h127q19 0 26 7t7 25zM1830 622v-59h-106v-563h-200v426h-140v-272q0 -40 -18 -58t-58 -18
h-426q-40 0 -58.5 18t-18.5 58v118h-141q1 -5 1 -17v-101q0 -40 -18 -58t-58 -18h-316v-78h-206v190h206v-53h159q20 0 27 7t7 26v69q0 19 -7 26t-27 7h-284q-40 0 -58 18t-18 58v61q0 40 18 58t58 18h311v78h-479v59h1850z" />
    <glyph glyph-name="uni091F094D0928" horiz-adv-x="764" 
d="M666 426h-359q-19 0 -26 -7t-7 -25v-297q0 -19 7 -25.5t26 -6.5h156q19 0 25.5 6.5t6.5 25.5v157h201v-172q0 -40 -18.5 -58t-58.5 -18h-7v-265h-174v126h-141q-19 0 -26 -6.5t-7 -25.5v-54h-187v69q0 40 18.5 58t58.5 18h284v80h-287q-40 0 -58.5 18t-18.5 58v327
q0 40 18.5 58t58.5 18h315v78h-486v59h804v-59h-118v-137z" />
    <glyph glyph-name="uni0920094D0928" horiz-adv-x="783" 
d="M513 97v297q0 18 -7 25t-26 7h-176q-19 0 -26 -7t-7 -25v-297q0 -19 7 -25.5t26 -6.5h176q19 0 26 6.5t7 25.5zM803 563h-311v-78h141q40 0 58 -18t18 -58v-327q0 -40 -18 -58t-58 -18h-21v-265h-174v126h-140q-19 0 -26 -6.5t-7 -25.5v-54h-187v69q0 40 18 58t58 18h284
v80h-287q-40 0 -58.5 18t-18.5 58v327q0 40 18.5 58t58.5 18h140v78h-311v59h823v-59z" />
    <glyph glyph-name="uni0921094D0928" horiz-adv-x="751" 
d="M646 426h-342q-20 0 -26.5 -7t-6.5 -26v-49q0 -20 6.5 -26.5t26.5 -6.5h303q40 0 58 -18t18 -58v-153q0 -75 -72 -76v-265h-174v126h-140q-19 0 -26 -6.5t-7 -25.5v-54h-188v69q0 40 18.5 58t58.5 18h284v80h-287q-40 0 -58 18t-18 58v88h200v-73q0 -19 7 -25.5t26 -6.5
h143q20 0 26.5 6.5t6.5 26.5v121q0 19 -6.5 26t-26.5 7h-303q-40 0 -58 18t-18 58v81q0 40 18 58t58 18h300v78h-467v59h792v-59h-126v-137z" />
    <glyph glyph-name="uni0924094D0928" horiz-adv-x="1501" 
d="M882 169v257h-160q-19 0 -26 -7t-7 -25v-225q0 -18 7 -25t26 -7h127q19 0 26 7t7 25zM1521 622v-59h-106v-563h-200v426h-140v-272q0 -40 -18 -58t-58 -18h-426q-40 0 -58.5 18t-18.5 58v255q0 12 1 17h-192q-19 0 -25.5 -7t-6.5 -25v-303q0 -18 6.5 -25t25.5 -7h74v-59
h-230q-40 0 -58.5 18t-18.5 58v333q0 40 18.5 58t58.5 18h1066v78h-1235v59h1541z" />
    <glyph glyph-name="uni0925094D0928" horiz-adv-x="1764" 
d="M1145 169v257h-160q-19 0 -26 -7t-7 -25v-225q0 -18 7 -25t26 -7h127q19 0 26 7t7 25zM1784 622v-59h-106v-563h-200v426h-140v-272q0 -40 -18 -58t-58 -18h-427q-35 0 -55 15q-16 -15 -52 -15h-579q-40 0 -58.5 18t-18.5 58v197h335q19 0 26 6.5t7 25.5v148q0 18 -7 25
t-26 7h-99q-19 0 -26 -7t-7 -25v-98h-196v113q0 40 18 58t58 18h405q40 0 58.5 -18t18.5 -58v-178q0 -40 -18.5 -58t-58.5 -18h-287v-123q0 -18 6.5 -25t25.5 -7h419q19 0 26.5 7.5t7.5 25.5h1v239q0 40 18 58t58 18h643v78h-781v59h1087z" />
    <glyph glyph-name="uni0926094D0928" horiz-adv-x="725" 
d="M745 622v-59h-100v-137h-347q-19 0 -26 -7t-7 -25v-185q0 -19 7 -25.5t26 -6.5h142q20 0 27 7.5t7 26.5v82h171v-433h-171v116h-138q-19 0 -26 -6.5t-7 -25.5v-61h-187v76q0 40 18 58t58 18h282v92q-10 -9 -32 -9h-300q-40 0 -58.5 18t-18.5 58v215q0 40 18.5 58t58.5 18
h303v78h-465v59h765z" />
    <glyph glyph-name="uni0927094D0928" horiz-adv-x="1715" 
d="M1096 169v257h-160q-19 0 -26 -7t-7 -25v-225q0 -18 7 -25t26 -7h127q19 0 26 7t7 25zM1735 622v-59h-106v-563h-201v426h-139v-272q0 -40 -18.5 -58t-58.5 -18h-426q-36 0 -55 15q-17 -15 -52 -15h-530q-40 0 -58 18t-18 58v106q0 64 62 65v4q-62 1 -62 65v152
q0 40 18 58t58 18h377q40 0 58 -18t18 -58v-120h-166v105q0 18 -6.5 25t-25.5 7h-98q-19 0 -26 -7t-7 -25v-140q0 -19 6.5 -26t26.5 -7h122v-59h-122q-20 0 -26.5 -6.5t-6.5 -26.5v-97q0 -18 7 -25t26 -7h369q19 0 26.5 7.5t7.5 25.5v239q0 40 18.5 58t58.5 18h642v78h-751
v59h1058z" />
    <glyph glyph-name="uni0928094D0928" horiz-adv-x="1775" 
d="M1155 169v257h-160q-19 0 -26 -7t-7 -25v-225q0 -18 7 -25t26 -7h127q19 0 26 7t7 25zM441 169v257h-160q-19 0 -26 -7t-7 -25v-225q0 -18 7 -25t26 -7h127q19 0 26 7t7 25zM1794 622v-59h-106v-563h-200v426h-140v-272q0 -40 -18 -58t-58 -18h-426q-40 0 -58.5 18
t-18.5 58v255q0 12 1 17h-136v-272q0 -40 -18 -58t-58 -18h-426q-40 0 -58.5 18t-18.5 58v255q0 40 18.5 58t58.5 18h1356v78h-1508v59h1814z" />
    <glyph glyph-name="uni092A094D0928" horiz-adv-x="1466" 
d="M1179 485v78h-911v-394q0 -18 7 -25t26 -7h126q29 0 33 21v251q0 40 18.5 58t58.5 18h642zM846 169v257h-160q-19 0 -26 -7t-7 -25v-225q0 -18 7 -25t26 -7h127q19 0 26 7t7 25zM1485 622v-59h-106v-563h-200v426h-140v-272q0 -40 -18 -58t-58 -18h-426q-36 0 -54 15
q-17 -15 -52 -15h-280q-40 0 -58.5 18t-18.5 58v409h-94v59h1505z" />
    <glyph glyph-name="uni092B094D0928" horiz-adv-x="1812" 
d="M1525 485v78h-862v-87q11 9 32 9h830zM1192 169v257h-160q-19 0 -26 -7t-7 -25v-225q0 -18 7 -25t26 -7h127q19 0 26 7t7 25zM301 137h129q20 0 27 7.5t7 26.5v392h-196v-394q0 -18 7 -25t26 -7zM1831 622v-59h-106v-563h-200v426h-140v-272q0 -40 -18 -58t-58 -18h-426
q-40 0 -58.5 18t-18.5 58v255q0 12 1 17h-110q-19 0 -26.5 -7t-7.5 -27v-392h-199v87q-11 -9 -32 -9h-281q-40 0 -58.5 18t-18.5 58v409h-94v59h1851z" />
    <glyph glyph-name="uni092C094D0928" horiz-adv-x="1542" 
d="M923 169v257h-160q-19 0 -26 -7t-7 -25v-225q0 -18 7 -25t26 -7h127q19 0 26 7t7 25zM297 137h206q17 0 26 6l-271 236q6 -54 6 -111v-99q0 -18 7 -25t26 -7zM1562 622v-59h-106v-563h-200v426h-140v-272q0 -40 -18 -58t-58 -18h-426q-36 0 -55 15q-17 -15 -52 -15h-365
q-40 0 -58.5 18t-18.5 58v255q0 40 18.5 58t58.5 18h344v-59h-207l258 -228v211q0 40 18.5 58t58.5 18h642v78h-1276v59h1582z" />
    <glyph glyph-name="uni092D094D0928" horiz-adv-x="1794" 
d="M1174 169v257h-160q-19 0 -26 -7t-7 -25v-225q0 -18 7 -25t26 -7h127q19 0 26 7t7 25zM452 169v144h-161q-19 0 -26 -7t-7 -26v-111q0 -18 7 -25t26 -7h128q19 0 26 7t7 25zM1813 622v-59h-106v-563h-200v426h-140v-272q0 -40 -18 -58t-58 -18h-426q-40 0 -58.5 18
t-18.5 58v159h-136v-159q0 -40 -18 -58t-58 -18h-428q-40 0 -58 18t-18 58v141q0 40 18 58.5t58 18.5h304v159q0 18 -7 25t-26 7h-108q-19 0 -26 -7t-7 -25v-88h-200v103q0 40 18.5 58t58.5 18h421q40 0 58 -18t18 -58v-174h136v37q0 40 18.5 58t58.5 18h642v78h-794v59
h1100z" />
    <glyph glyph-name="uni092E094D0928" horiz-adv-x="1798" 
d="M1511 485v78h-858v-78h858zM1178 169v257h-160q-19 0 -26 -7t-7 -25v-225q0 -18 7 -25t26 -7h127q19 0 26 7t7 25zM452 169v257h-160q-19 0 -26 -7t-7 -25v-225q0 -18 7 -25t26 -7h128q19 0 25.5 7t6.5 25zM1817 622v-59h-106v-563h-200v426h-140v-272q0 -40 -18 -58
t-58 -18h-426q-40 0 -58.5 18t-18.5 58v255q0 12 1 17h-140v-272q0 -40 -18.5 -58t-58.5 -18h-427q-40 0 -58.5 18t-18.5 58v255q0 40 18.5 58t58.5 18h303v78h-472v59h1837z" />
    <glyph glyph-name="uni092F094D0928" horiz-adv-x="1657" 
d="M1371 485v78h-851q15 -9 15 -36v-142q0 -40 -18.5 -58t-58.5 -18h-206v-140q0 -18 6.5 -25t25.5 -7h334q19 0 26.5 7.5t7.5 25.5v239q0 40 18 58t58 18h643zM1038 169v257h-160q-19 0 -26 -7t-7 -25v-225q0 -18 7 -25t26 -7h127q19 0 26 7t7 25zM1677 622v-59h-106v-563
h-200v426h-140v-272q0 -40 -18 -58t-58 -18h-427q-36 0 -54 15q-16 -15 -52 -15h-494q-40 0 -58.5 18t-18.5 58v214h250q19 0 26 7t7 26v129q0 20 -7 26.5t-26 6.5h-321v59h1697z" />
    <glyph glyph-name="uni0935094D0928" horiz-adv-x="1473" 
d="M854 169v257h-160q-19 0 -26 -7t-7 -25v-225q0 -18 7 -25t26 -7h127q19 0 26 7t7 25zM1493 622v-59h-106v-563h-200v426h-140v-272q0 -40 -18 -58t-58 -18h-426q-35 0 -55 15q-16 -15 -52 -15h-293q-40 0 -58 18t-18 58v255q0 40 18 58t58 18h273v-59h-116q-19 0 -26 -7
t-7 -25v-225q0 -18 7 -25t26 -7h132q19 0 26.5 7.5t7.5 25.5v239q0 40 18.5 58t58.5 18h642v78h-1207v59h1513z" />
    <glyph glyph-name="uni0936094D0928" horiz-adv-x="1800" 
d="M161 622h425q40 0 58 -18t18 -58v-205q0 -40 -18 -58t-58 -18h-304v-174q0 -18 7 -25t26 -7h109q19 0 26 7t7 25v108h200v-123q0 -40 -18.5 -58t-58.5 -18h-422q-40 0 -58 18t-18 58v297h200v-49h147q19 0 26 7t7 25v175q0 18 -7 25t-26 7h-111q-19 0 -26 -7t-7 -25v-84
h-200v99q0 40 18 58t58 18zM1181 169v257h-160q-19 0 -26 -7t-7 -25v-225q0 -18 7 -25t26 -7h127q19 0 26 7t7 25zM1820 622v-59h-106v-563h-200v426h-140v-272q0 -40 -18 -58t-58 -18h-427q-40 0 -58.5 18t-18.5 58v255q0 40 18.5 58t58.5 18h643v78h-780v59h1086z" />
    <glyph glyph-name="uni0938094D0928" horiz-adv-x="1815" 
d="M1529 485v78h-886q14 -8 14 -36v-171q0 -12 -1 -17h154v70q0 40 18.5 58t58.5 18h642zM1196 169v257h-160q-19 0 -26 -7t-7 -25v-225q0 -18 7 -25t26 -7h127q19 0 26 7t7 25zM1835 622v-59h-106v-563h-200v426h-140v-272q0 -40 -18 -58t-58 -18h-426q-40 0 -58.5 18
t-18.5 58v126h-536v-189q0 -18 7 -25t26 -7h116q19 0 26 7t7 25v123h200v-138q0 -40 -18 -58t-58 -18h-429q-40 0 -58.5 18t-18.5 58v400h200v-137h150q19 0 26 7t7 25v159q0 20 -6.5 26.5t-26.5 6.5h-444v59h1855z" />
    <glyph glyph-name="uni0939094D0928" horiz-adv-x="814" 
d="M682 426h-372q-19 0 -26 -7t-7 -25v-27q0 -19 6.5 -26t26.5 -7h344q88 0 88 -83v-208h-142v107h-74q-19 0 -26.5 -7t-7.5 -26v-47h-142v63q0 40 18 58t58 18h174v33q0 18 -7 25.5t-26 7.5h-257q-20 0 -26.5 -6.5t-6.5 -26.5v-220q0 -18 7 -25t26 -7h378v-59h-534
q-40 0 -58.5 18t-18.5 58v224q0 34 15 49t48 16v5q-63 0 -63 64v44q0 40 18.5 58t58.5 18h328v78h-502v59h854v-59h-152v-137z" />
    <glyph glyph-name="uni0915094D0930" horiz-adv-x="1090" 
d="M1110 563h-464v-87q10 9 32 9h271q40 0 58 -18t18 -58v-242q0 -40 -18 -58t-58 -18h-253v59h96q19 0 26 6.5t7 25.5v212q0 18 -7 25t-26 7h-112q-20 0 -27 -7t-7 -27v-392h-200v101l-122 -182h-201l127 172h-107q-40 0 -58 18t-18 58v242q0 40 18 58t58 18h253v-59h-96
q-19 0 -26 -7t-7 -25v-212q0 -19 7 -25.5t26 -6.5h112q20 0 27 7t7 27v379h-466v59h1130v-59z" />
    <glyph glyph-name="uni0916094D0930" horiz-adv-x="1354" 
d="M1374 622v-59h-106v-563h-197v140l-167 -215h-200l161 202h-100q-65 0 -65 76v183q0 40 18 58t58 18h248v-59h-112q-19 0 -26 -7t-7 -26v-152q0 -19 7 -25.5t26 -6.5h123q20 0 28 7.5t8 27.5v342h-467v-258q0 -40 -18.5 -58t-58.5 -18h-254v-138q0 -18 7 -25t26 -7h315
v-59h-473q-40 0 -58 18t-18 58v371h201v-159h101q19 0 25.5 7t6.5 25v243h-426v59h1394z" />
    <glyph glyph-name="uni0917094D0930" horiz-adv-x="1070" 
d="M263 176h152q19 0 26 6.5t7 25.5v196h-185q-19 0 -26 -6.5t-7 -25.5v-164q0 -19 7 -25.5t26 -6.5zM1090 622v-59h-106v-644h-181v25l7 111l-171 -152h-234l390 306v354h-155v-370q0 -40 -18 -58t-58 -18h-432q-40 0 -58.5 18t-18.5 58v194q0 40 18.5 58t58.5 18h316v100
h-468v59h1110z" />
    <glyph glyph-name="uni0918094D0930" horiz-adv-x="879" 
d="M593 188v375h-281q-20 0 -26.5 -6.5t-6.5 -26.5v-119q0 -19 6.5 -26t26.5 -7h138v-59h-138q-20 0 -26.5 -6.5t-6.5 -26.5v-100q0 -19 7 -25.5t26 -6.5h247q19 0 26.5 7t7.5 27zM899 622v-59h-106v-563h-200v107l-173 -184h-213l171 172h-223q-40 0 -58 18t-18 58v109
q0 64 62 65v5q-32 0 -47 15.5t-15 49.5v112q0 28 14 36h-113v59h919z" />
    <glyph glyph-name="uni0919094D0930" horiz-adv-x="854" 
d="M690 296v110h132v-110h-132zM-20 622h894v-59h-249v-137h-323q-20 0 -27 -7t-7 -26v-51q0 -19 7 -26t27 -7h271q40 0 58 -18t18 -58v-144q0 -40 -18 -58t-58 -18h-38l92 -162h-190l-73 156l-72 -156h-190l93 162h-47q-40 0 -58 18t-18 58v79h199v-64q0 -19 7 -25.5
t27 -6.5h111q20 0 26.5 7t6.5 26v112q0 19 -6.5 26t-26.5 7h-271q-40 0 -58 18.5t-18 58.5v82q0 40 18 58t58 18h280v78h-445v59z" />
    <glyph glyph-name="uni091A094D0930" horiz-adv-x="846" 
d="M866 622v-59h-106v-563h-200v105l-167 -182h-210l161 172h-167q-40 0 -58.5 18t-18.5 58v219q0 27 15 36h-99v59h414v-59h-101q-16 -1 -22.5 -8t-6.5 -24v-208q0 -19 7 -25.5t26 -6.5h193q20 0 27 7t7 27v375h-580v59h886z" />
    <glyph glyph-name="uni091B094D0930" horiz-adv-x="1048" 
d="M622 485v78h-310q-20 0 -26.5 -6.5t-6.5 -26.5v-158q0 -20 6.5 -26.5t26.5 -6.5h96v-59h-96q-20 0 -26.5 -7t-6.5 -26v-143q0 -19 7 -25.5t26 -6.5h455q19 0 26 6.5t7 25.5v290q0 18 -7 25t-26 7h-103q-19 0 -26 -7t-7 -25v-123q0 -19 7 -26t26 -7h56v-59h-189
q-77 0 -77 77v153q0 40 18.5 58t58.5 18h91zM1068 563h-261v-78h92q40 0 58 -18t18 -58v-320q0 -40 -18 -58t-58 -18h-189l99 -162h-190l-80 155l-85 -155h-189l104 162h-213q-40 0 -58.5 18t-18.5 58v152q0 64 63 64v5q-63 1 -63 65v152q0 27 14 36h-113v59h1088v-59z" />
    <glyph glyph-name="uni091C094D0930" horiz-adv-x="1067" 
d="M1087 622v-59h-106v-644h-182v19l7 110l-170 -145h-235l390 296v227h-146v-233q0 -40 -18 -58t-58 -18h-420q-40 0 -58.5 18t-18.5 58v292h192v-277q0 -19 7 -25.5t26 -6.5h124q19 0 26 6.5t7 25.5v277h337v78h-811v59h1107z" />
    <glyph glyph-name="uni091D094D0930" horiz-adv-x="1143" 
d="M868 331v232h-208v-137h-353q-19 0 -26 -7t-7 -26v-29q0 -20 7 -26.5t26 -6.5h561zM1163 622v-59h-106v-644h-181v19l6 98l-156 -133h-235l377 285v84h-209q1 -5 1 -17v-101q0 -40 -18 -58t-58 -18h-309v-78h-206v190h206v-53h152q19 0 26 6.5t7 26.5v69q0 19 -7 26
t-26 7h-277q-40 0 -58 18t-18 58v61q0 40 18 58t58 18h310v78h-480v59h1183z" />
    <glyph glyph-name="uni091E094D0930" horiz-adv-x="1053" 
d="M1073 622v-59h-106v-644h-182v19l7 110l-170 -145h-235l391 296v82h-155v-88q0 -40 -18 -58t-58 -18h-434q-40 0 -58.5 18t-18.5 58v115h201v-100q0 -19 6.5 -25.5t25.5 -6.5h121q19 0 26 6.5t7 25.5v186q0 18 -7 25t-26 7h-172v59h329q40 0 58 -18t18 -58v-69h155v223
h-798v59h1093z" />
    <glyph glyph-name="uni091F094D0930" horiz-adv-x="732" 
d="M634 426h-327q-19 0 -26 -7t-7 -25v-290q0 -19 7 -25.5t26 -6.5h124q19 0 26 6.5t7 25.5v153h200v-168q0 -40 -18.5 -58t-58.5 -18h-46l92 -162h-190l-73 156l-72 -156h-190l93 162h-50q-40 0 -58.5 18t-18.5 58v320q0 40 18.5 58t58.5 18h283v78h-454v59h772v-59h-118
v-137z" />
    <glyph glyph-name="uni0920094D0930" horiz-adv-x="758" 
d="M491 104v290q0 18 -7.5 25t-26.5 7h-156q-19 0 -26 -7t-7 -25v-290q0 -19 7 -25.5t26 -6.5h156q20 0 27 6.5t7 25.5zM778 563h-299v-78h129q40 0 58 -18t18 -58v-320q0 -40 -18 -58t-58 -18h-58l92 -162h-190l-73 156l-72 -156h-189l92 162h-59q-40 0 -58.5 18t-18.5 58
v320q0 40 18.5 58t58.5 18h128v78h-299v59h798v-59z" />
    <glyph glyph-name="uni0921094D0930" horiz-adv-x="721" 
d="M627 426h-323q-20 0 -26.5 -7t-6.5 -26v-49q0 -20 6.5 -26.5t26.5 -6.5h271q40 0 58 -18t18 -58v-146q0 -40 -18 -58t-58 -18h-43l87 -162h-189l-68 156l-72 -156h-189l92 162h-43q-40 0 -58 18t-18 58v85h200v-70q0 -19 7 -25.5t26 -6.5h111q20 0 26.5 7t6.5 26v114
q0 19 -6.5 26t-26.5 7h-271q-40 0 -58 18t-18 58v81q0 40 18 58t58 18h281v78h-448v59h762v-59h-115v-137z" />
    <glyph glyph-name="uni0922094D0930" horiz-adv-x="759" 
d="M636 426h-329q-19 0 -26 -7t-7 -25v-290q0 -19 7 -25.5t26 -6.5h164q19 0 26 6.5t7 25.5v101q0 19 -7 25.5t-26 6.5h-101v59h241q40 0 58 -18t18 -58v-131q0 -40 -18 -58t-58 -18h-57l92 -162h-189l-73 156l-73 -156h-189l92 162h-63q-40 0 -58.5 18t-18.5 58v320
q0 40 18.5 58t58.5 18h285v78h-456v59h799v-59h-143v-137z" />
    <glyph glyph-name="uni0923094D0930" horiz-adv-x="1087" 
d="M455 208v355h-194v-355q0 -19 7 -25.5t26 -6.5h128q19 0 26 6.5t7 25.5zM1107 622v-59h-106v-644h-182v19l7 110l-169 -145h-236l391 296v364h-170v-370q0 -40 -18 -58t-58 -18h-415q-40 0 -58.5 18t-18.5 58v370h-94v59h1127z" />
    <glyph glyph-name="uni0924094D0930" horiz-adv-x="790" 
d="M810 622v-59h-106v-563h-199v218h-39l-203 -218h-230l248 257l-120 126q-25 26 -50 34t-63 8h-25v60h159q61 0 94.5 -10.5t65.5 -44.5l119 -133h44v266h-525v59h830z" />
    <glyph glyph-name="uni0925094D0930" horiz-adv-x="1056" 
d="M1076 622v-59h-106v-563h-200v106l-194 -183h-238l194 172h-383q-40 0 -58.5 18t-18.5 58v188h339q19 0 26 6.5t7 25.5v140q0 18 -7 25t-26 7h-103q-19 0 -26 -7t-7 -25v-97h-196v112q0 40 18 58t58 18h409q40 0 58.5 -18t18.5 -58v-170q0 -40 -18.5 -58t-58.5 -18h-291
v-114q0 -19 6.5 -25.5t25.5 -6.5h431q20 0 27 7t7 27v434h306z" />
    <glyph glyph-name="uni0926094D0930" horiz-adv-x="733" 
d="M643 426h-343q-19 0 -26 -7t-7 -25v-208q0 -19 7 -25.5t26 -6.5h119q19 0 26.5 7t7.5 27v78h200v-266h-200v106l-120 -183h-203l125 172h-112q-40 0 -58 18t-18 58v238q0 40 18 58t58 18h301v78h-464v59h773v-59h-110v-137z" />
    <glyph glyph-name="uni0927094D0930" horiz-adv-x="1000" 
d="M1020 622v-59h-106v-563h-200v105l-193 -182h-240l194 172h-326q-40 0 -58 18t-18 58v103q0 33 14.5 48t47.5 16v5q-33 1 -47.5 16t-14.5 49v138q0 40 18 58t58 18h377q40 0 58 -18t18 -58v-107h-166v92q0 18 -6.5 25t-25.5 7h-98q-19 0 -26 -7t-7 -25v-126
q0 -19 6.5 -26t26.5 -7h122v-59h-122q-20 0 -26.5 -6.5t-6.5 -26.5v-94q0 -19 7 -25.5t26 -6.5h374q20 0 27 7t7 27v434h306z" />
    <glyph glyph-name="uni0928094D0930" horiz-adv-x="1056" 
d="M441 208v218h-160q-19 0 -26 -7t-7 -25v-186q0 -19 7 -25.5t26 -6.5h127q19 0 26 6.5t7 25.5zM1076 622v-59h-106v-644h-182v19l7 110l-170 -145h-235l390 296v227h-146v-233q0 -40 -18 -58t-58 -18h-426q-40 0 -58.5 18t-18.5 58v216q0 40 18.5 58t58.5 18h648v78h-800
v59h1096z" />
    <glyph glyph-name="uni092A094D0930" horiz-adv-x="754" 
d="M468 214v349h-196v-350q0 -19 7 -26t26 -7h129q20 0 27 7t7 27zM774 622v-59h-106v-563h-200v131l-143 -208h-204l146 198h-112q-40 0 -58 18.5t-18 58.5v365h-99v59h794z" />
    <glyph glyph-name="uni092B094D0930" horiz-adv-x="1112" 
d="M468 214v349h-196v-350q0 -19 7 -26t26 -7h129q20 0 27 7t7 27zM1132 563h-464v-87q10 9 32 9h270q40 0 58.5 -18t18.5 -58v-255q0 -40 -18.5 -58t-58.5 -18h-258v59h102q19 0 26 7t7 25v225q0 18 -7 25t-26 7h-112q-20 0 -27 -7t-7 -27v-392h-200v131l-143 -208h-204
l146 198h-112q-40 0 -58 18.5t-18 58.5v365h-99v59h1152v-59z" />
    <glyph glyph-name="uni092C094D0930" horiz-adv-x="819" 
d="M297 152h203q12 0 20 3l-262 237q6 -54 6 -110v-98q0 -18 7 -25t26 -7zM839 622v-59h-106v-563h-200v105l-152 -183h-205l155 171h-189q-40 0 -58.5 18t-18.5 58v240q0 40 18.5 58t58.5 18h344v-59h-197l253 -227q-9 49 -9 149v215h-553v59h859z" />
    <glyph glyph-name="uni092D094D0930" horiz-adv-x="1075" 
d="M449 208v138h-161q-19 0 -26 -6.5t-7 -25.5v-106q0 -19 7 -26t26 -7h128q19 0 26 7t7 26zM1095 622v-59h-106v-644h-181v19l6 110l-169 -145h-236l391 296v147h-157v-153q0 -40 -18.5 -58t-58.5 -18h-421q-40 0 -58 18t-18 58v136q0 40 18 58t58 18h304v126q0 18 -7 25
t-26 7h-108q-19 0 -26 -7t-7 -25v-60h-200v75q0 40 18.5 58t58.5 18h414q40 0 58.5 -18t18.5 -58v-141h157v217h295z" />
    <glyph glyph-name="uni092E094D0930" horiz-adv-x="1088" 
d="M813 485v78h-164v-78h164zM449 208v218h-160q-19 0 -26 -7t-7 -25v-186q0 -19 7 -25.5t26 -6.5h127q19 0 26 6.5t7 25.5zM1108 622v-59h-106v-644h-181v19l6 110l-169 -145h-236l391 296v227h-164v-233q0 -40 -18 -58t-58 -18h-427q-40 0 -58.5 18t-18.5 58v216
q0 40 18.5 58t58.5 18h303v78h-469v59h1128z" />
    <glyph glyph-name="uni092F094D0930" horiz-adv-x="978" 
d="M685 190v373h-165q15 -9 15 -36v-142q0 -40 -18.5 -58t-58.5 -18h-206v-123q0 -19 6.5 -25.5t25.5 -6.5h364q21 0 29 7.5t8 28.5zM998 622v-59h-114v-563h-199v107l-190 -184h-236l192 172h-323q-40 0 -58.5 18t-18.5 58v197h250q19 0 26 7t7 26v129q0 20 -7 26.5
t-26 6.5h-321v59h1018z" />
    <glyph glyph-name="uni0935094D0930" horiz-adv-x="756" 
d="M776 622v-59h-106v-563h-200v106l-131 -183h-203l132 172h-121q-40 0 -58 18t-18 58v238q0 40 18 58t58 18h273v-59h-116q-19 0 -26 -7t-7 -25v-208q0 -19 7 -25.5t26 -6.5h132q20 0 27 7t7 27v375h-490v59h796z" />
    <glyph glyph-name="uni0936094D0930" horiz-adv-x="1109" 
d="M832 0v71q0 73 2 104q4 43 4 45q-12 -18 -112 -115l-104 -104h-221l303 281h-145l-234 -196h-222l235 196h-175q-40 0 -58 18t-18 58v188q0 40 18 58t58 18h393q40 0 58 -18t18 -58v-161q0 -35 -18 -44h218v222h-97v59h394v-59h-106v-563h-191zM444 530q0 20 -7 26.5
t-26 6.5h-103q-20 0 -26.5 -6.5t-6.5 -26.5v-156q0 -20 6.5 -26.5t26.5 -6.5h88l48 42v147z" />
    <glyph glyph-name="uni0938094D0930" horiz-adv-x="1154" 
d="M868 345v218h-221q15 -9 15 -36v-164q0 -12 -1 -18h207zM1174 622v-59h-106v-563h-200v107q0 102 6 155l2 17l-157 -165h-221l166 172h-390v-195q0 -18 7 -25t26 -7h211v-59h-367q-40 0 -58.5 18t-18.5 58v400h200v-131h155q19 0 26 7t7 26v152q0 20 -7 26.5t-26 6.5
h-449v59h1194z" />
    <glyph glyph-name="uni0939094D0930" horiz-adv-x="824" 
d="M739 426h-429q-19 0 -26 -7t-7 -25v-31q0 -19 6.5 -26t26.5 -7h353q89 0 89 -82v-113h-189v103q0 22 -10 29l-102 -135h-88l108 139h-161q-20 0 -26.5 -6.5t-6.5 -26.5v-147q0 -18 7 -25t26 -7h421v-59h-577q-40 0 -58.5 18t-18.5 58v152q0 64 63 65v4q-63 1 -63 65v47
q0 40 18.5 58t58.5 18h385v78h-559v59h864v-59h-105v-137z" />
    <glyph glyph-name="uni0915093C094D0930" horiz-adv-x="1090" 
d="M273 -264v129h195v-129h-195zM1110 563h-464v-87q10 9 32 9h271q40 0 58 -18t18 -58v-242q0 -40 -18 -58t-58 -18h-253v59h96q19 0 26 6.5t7 25.5v212q0 18 -7 25t-26 7h-112q-20 0 -27 -7t-7 -27v-392h-200v101l-122 -182h-201l127 172h-107q-40 0 -58 18t-18 58v242
q0 40 18 58t58 18h253v-59h-96q-19 0 -26 -7t-7 -25v-212q0 -19 7 -25.5t26 -6.5h112q20 0 27 7t7 27v379h-466v59h1130v-59z" />
    <glyph glyph-name="uni0916093C094D0930" horiz-adv-x="1339" 
d="M863 -264v129h195v-129h-195zM1374 622v-59h-106v-563h-197v140l-167 -215h-200l161 202h-100q-65 0 -65 76v183q0 40 18 58t58 18h248v-59h-112q-19 0 -26 -7t-7 -26v-152q0 -19 7 -25.5t26 -6.5h123q20 0 28 7.5t8 27.5v342h-467v-258q0 -40 -18.5 -58t-58.5 -18h-254
v-138q0 -18 7 -25t26 -7h315v-59h-473q-40 0 -58 18t-18 58v371h201v-159h101q19 0 25.5 7t6.5 25v243h-426v59h1394z" />
    <glyph glyph-name="uni0917093C094D0930" horiz-adv-x="1047" 
d="M603 -292v129h195v-129h-195zM263 176h152q19 0 26 6.5t7 25.5v196h-185q-19 0 -26 -6.5t-7 -25.5v-164q0 -19 7 -25.5t26 -6.5zM1090 622v-59h-106v-644h-181v25l7 111l-171 -152h-234l390 306v354h-155v-370q0 -40 -18 -58t-58 -18h-432q-40 0 -58.5 18t-18.5 58v194
q0 40 18.5 58t58.5 18h316v100h-468v59h1110z" />
    <glyph glyph-name="uni091C093C094D0930" horiz-adv-x="1062" 
d="M148 -85v129h195v-129h-195zM1087 622v-59h-106v-644h-182v19l7 110l-170 -145h-235l390 296v227h-146v-233q0 -40 -18 -58t-58 -18h-420q-40 0 -58.5 18t-18.5 58v292h192v-277q0 -19 7 -25.5t26 -6.5h124q19 0 26 6.5t7 25.5v277h337v78h-811v59h1107z" />
    <glyph glyph-name="uni0921093C094D0930" horiz-adv-x="722" 
d="M263 -317v128h195v-128h-195zM627 426h-323q-20 0 -26.5 -7t-6.5 -26v-49q0 -20 6.5 -26.5t26.5 -6.5h271q40 0 58 -18t18 -58v-146q0 -40 -18 -58t-58 -18h-47l89 -161h-189l-66 151l-70 -151h-189l95 161h-48q-40 0 -58 18t-18 58v85h200v-70q0 -19 7 -25.5t26 -6.5
h111q20 0 26.5 7t6.5 26v114q0 19 -6.5 26t-26.5 7h-271q-40 0 -58 18t-18 58v81q0 40 18 58t58 18h281v78h-448v59h762v-59h-115v-137z" />
    <glyph glyph-name="uni0922093C094D0930" horiz-adv-x="759" 
d="M284 -317v128h195v-128h-195zM636 426h-329q-19 0 -26 -7t-7 -25v-290q0 -19 7 -25.5t26 -6.5h164q19 0 26 6.5t7 25.5v101q0 19 -7 25.5t-26 6.5h-101v59h241q40 0 58 -18t18 -58v-131q0 -40 -18 -58t-58 -18h-61l94 -161h-189l-71 151l-71 -151h-189l95 161h-68
q-40 0 -58.5 18t-18.5 58v320q0 40 18.5 58t58.5 18h285v78h-456v59h799v-59h-143v-137z" />
    <glyph glyph-name="uni0928093C094D0930" horiz-adv-x="1056" 
d="M609 -288v129h195v-129h-195zM441 208v218h-160q-19 0 -26 -7t-7 -25v-186q0 -19 7 -25.5t26 -6.5h127q19 0 26 6.5t7 25.5zM1076 622v-59h-106v-644h-182v19l7 110l-170 -145h-235l390 296v227h-146v-233q0 -40 -18 -58t-58 -18h-426q-40 0 -58.5 18t-18.5 58v216
q0 40 18.5 58t58.5 18h648v78h-800v59h1096z" />
    <glyph glyph-name="uni092B093C094D0930" horiz-adv-x="1112" 
d="M283 -264v129h195v-129h-195zM468 214v349h-196v-350q0 -19 7 -26t26 -7h129q20 0 27 7t7 27zM1132 563h-464v-87q10 9 32 9h270q40 0 58.5 -18t18.5 -58v-255q0 -40 -18.5 -58t-58.5 -18h-258v59h102q19 0 26 7t7 25v225q0 18 -7 25t-26 7h-112q-20 0 -27 -7t-7 -27
v-392h-200v131l-143 -208h-204l146 198h-112q-40 0 -58 18.5t-18 58.5v365h-99v59h1152v-59z" />
    <glyph glyph-name="uni092F093C094D0930" horiz-adv-x="978" 
d="M493 -264v129h195v-129h-195zM685 190v373h-165q15 -9 15 -36v-142q0 -40 -18.5 -58t-58.5 -18h-206v-123q0 -19 6.5 -25.5t25.5 -6.5h364q21 0 29 7.5t8 28.5zM998 622v-59h-114v-563h-199v107l-190 -184h-236l192 172h-323q-40 0 -58.5 18t-18.5 58v197h250q19 0 26 7
t7 26v129q0 20 -7 26.5t-26 6.5h-321v59h1018z" />
    <glyph glyph-name="uni0915094D0930094D" horiz-adv-x="741" 
d="M678 485h260v-59h-258q-20 0 -27 -7t-7 -27v-392h-200v101l-122 -182h-202l127 172h-106q-40 0 -58 18t-18 58v242q0 40 18 58t58 18h253v-59h-96q-19 0 -26 -7t-7 -25v-212q0 -19 7 -25.5t26 -6.5h112q20 0 27 7t7 27v379h-466v59h781v-59h-115v-87q10 9 32 9z" />
    <glyph glyph-name="uni0916094D0930094D" horiz-adv-x="994" 
d="M273 229v-138q0 -18 7 -25t26 -7h315v-59h-473q-40 0 -58 18t-18 58v371h201v-159h101q19 0 25.5 7t6.5 25v243h-426v59h1034v-59h-410v-258q0 -40 -18.5 -58t-58.5 -18h-254zM912 186h204v-37h-42l-170 -224h-200l158 202h-97q-65 0 -65 76v183q0 40 18 58t58 18h248
v-59h-112q-19 0 -26 -7t-7 -26v-152q0 -19 7 -25.5t26 -6.5z" />
    <glyph glyph-name="uni0917094D0930094D" horiz-adv-x="713" 
d="M263 176h152q19 0 26 6.5t7 25.5v196h-185q-19 0 -26 -6.5t-7 -25.5v-164q0 -19 7 -25.5t26 -6.5zM640 563v-370q0 -40 -18 -58t-58 -18h-432q-40 0 -58.5 18t-18.5 58v194q0 40 18.5 58t58.5 18h316v100h-468v59h752v-59h-92zM870 263l64 -106l-295 -254h-234z" />
    <glyph glyph-name="uni0918094D0930094D" horiz-adv-x="512" 
d="M79 415v112q0 28 14 36h-113v59h552v-59h-220q-20 0 -26.5 -6.5t-6.5 -26.5v-119q0 -19 6.5 -26t26.5 -7h138v-59h-138q-20 0 -26.5 -6.5t-6.5 -26.5v-100q0 -19 7 -25.5t26 -6.5h332v-43h-47l-177 -188h-215l171 172h-221q-40 0 -58 18t-18 58v109q0 64 62 65v5
q-32 0 -47 15.5t-15 49.5z" />
    <glyph glyph-name="uni091A094D0930094D" horiz-adv-x="482" 
d="M-20 563v59h522v-59h-522zM16 426v59h414v-59h-101q-16 -1 -22.5 -8t-6.5 -24v-208q0 -19 7 -25.5t26 -6.5h274v-42h-41l-173 -189h-210l161 172h-167q-40 0 -58.5 18t-18.5 58v219q0 27 15 36h-99z" />
    <glyph glyph-name="uni091C094D0930094D" horiz-adv-x="712" 
d="M732 622v-59h-752v59h752zM569 117h-420q-40 0 -58.5 18t-18.5 58v292h192v-277q0 -19 7 -25.5t26 -6.5h124q19 0 26 6.5t7 25.5v277h511v-59h-320v-233q0 -40 -18 -58t-58 -18zM952 314l15 -137l-331 -274h-235z" />
    <glyph glyph-name="uni091D094D0930094D" horiz-adv-x="787" 
d="M660 255v-101q0 -40 -18 -58t-58 -18h-309v-78h-206v190h206v-53h152q19 0 26 6.5t7 26.5v69q0 19 -7 26t-26 7h-277q-40 0 -58 18t-18 58v61q0 40 18 58t58 18h310v78h-480v59h827v-59h-147v-137h-353q-19 0 -26 -7t-7 -26v-29q0 -20 7 -26.5t26 -6.5h643v-59h-291
q1 -5 1 -17zM945 243l16 -142l-235 -198h-235z" />
    <glyph glyph-name="uni091F094D0930094D" horiz-adv-x="732" 
d="M269 -200h201l132 -179h-202zM634 426h-327q-19 0 -26 -7t-7 -25v-290q0 -19 7 -25.5t26 -6.5h124q19 0 26 6.5t7 25.5v153h200v-168q0 -40 -18.5 -58t-58.5 -18h-46l92 -162h-190l-73 156l-72 -156h-190l93 162h-50q-40 0 -58.5 18t-18.5 58v320q0 40 18.5 58t58.5 18
h283v78h-454v59h772v-59h-118v-137z" />
    <glyph glyph-name="uni0920094D0930094D" horiz-adv-x="758" 
d="M280 -200h201l132 -179h-202zM491 104v290q0 18 -7.5 25t-26.5 7h-156q-19 0 -26 -7t-7 -25v-290q0 -19 7 -25.5t26 -6.5h156q20 0 27 6.5t7 25.5zM778 563h-299v-78h129q40 0 58 -18t18 -58v-320q0 -40 -18 -58t-58 -18h-58l92 -162h-190l-73 156l-72 -156h-189l92 162
h-59q-40 0 -58.5 18t-18.5 58v320q0 40 18.5 58t58.5 18h128v78h-299v59h798v-59z" />
    <glyph glyph-name="uni0921094D0930094D" horiz-adv-x="721" 
d="M258 -199h201l132 -179h-203zM627 426h-323q-20 0 -26.5 -7t-6.5 -26v-49q0 -20 6.5 -26.5t26.5 -6.5h271q40 0 58 -18t18 -58v-146q0 -40 -18 -58t-58 -18h-47l89 -161h-189l-66 151l-70 -151h-189l95 161h-48q-40 0 -58 18t-18 58v85h200v-70q0 -19 7 -25.5t26 -6.5
h111q20 0 26.5 7t6.5 26v114q0 19 -6.5 26t-26.5 7h-271q-40 0 -58 18t-18 58v81q0 40 18 58t58 18h281v78h-448v59h762v-59h-115v-137z" />
    <glyph glyph-name="uni0922094D0930094D" horiz-adv-x="759" 
d="M282 -200h201l132 -179h-202zM636 426h-329q-19 0 -26 -7t-7 -25v-290q0 -19 7 -25.5t26 -6.5h164q19 0 26 6.5t7 25.5v101q0 19 -7 25.5t-26 6.5h-101v59h241q40 0 58 -18t18 -58v-131q0 -40 -18 -58t-58 -18h-61l94 -161h-189l-71 151l-71 -151h-189l95 161h-68
q-40 0 -58.5 18t-18.5 58v320q0 40 18.5 58t58.5 18h285v78h-456v59h799v-59h-143v-137z" />
    <glyph glyph-name="uni0923094D0930094D" horiz-adv-x="732" 
d="M294 176h128q19 0 26 6.5t7 25.5v355h-194v-355q0 -19 7 -25.5t26 -6.5zM642 563v-370q0 -40 -18 -58t-58 -18h-415q-40 0 -58.5 18t-18.5 58v370h-94v59h772v-59h-110zM979 320l16 -137l-338 -280h-236z" />
    <glyph glyph-name="uni0924094D0930094D" horiz-adv-x="440" 
d="M515 622v-59h-535v59h535zM560 297v-79h-94l-203 -218h-230l248 257l-120 126q-25 26 -50 34t-63 8h-25v60h159q61 0 94.5 -10.5t65.5 -44.5l119 -133h99z" />
    <glyph glyph-name="uni0925094D0930094D" horiz-adv-x="688" 
d="M305 154h512v-44h-47l-198 -187h-237l194 172h-380q-40 0 -58.5 18t-18.5 58v188h335q19 0 26 6.5t7 25.5v140q0 18 -7 25t-26 7h-99q-19 0 -26 -7t-7 -25v-98h-196v113q0 40 18 58t58 18h405q40 0 58.5 -18t18.5 -58v-170q0 -40 -18.5 -58t-58.5 -18h-287v-114
q0 -19 6.5 -25.5t25.5 -6.5z" />
    <glyph glyph-name="uni0926094D0930094D" horiz-adv-x="733" 
d="M653 0h-200v106l-120 -183h-203l125 172h-112q-40 0 -58 18t-18 58v238q0 40 18 58t58 18h301v78h-464v59h773v-59h-110v-137h-343q-19 0 -26 -7t-7 -25v-208q0 -19 7 -25.5t26 -6.5h119q19 0 26.5 7t7.5 27v78h200v-266zM665 -136l132 -179h-202l-131 179h201z" />
    <glyph glyph-name="uni0927094D0930094D" horiz-adv-x="648" 
d="M306 154h462v-45h-50l-197 -186h-238l194 172h-328q-40 0 -58 18t-18 58v103q0 33 14.5 48t47.5 16v5q-33 1 -47.5 16t-14.5 49v138q0 40 18 58t58 18h377q40 0 58 -18t18 -58v-107h-166v92q0 18 -6.5 25t-25.5 7h-98q-19 0 -26 -7t-7 -25v-126q0 -19 6.5 -26t26.5 -7
h122v-59h-122q-20 0 -26.5 -6.5t-6.5 -26.5v-94q0 -19 7 -25.5t26 -6.5z" />
    <glyph glyph-name="uni0928094D0930094D" horiz-adv-x="702" 
d="M722 622v-59h-742v59h742zM281 176h127q19 0 26 6.5t7 25.5v218h-160q-19 0 -26 -7t-7 -25v-186q0 -19 7 -25.5t26 -6.5zM558 117h-426q-40 0 -58.5 18t-18.5 58v216q0 40 18.5 58t58.5 18h815v-59h-313v-233q0 -40 -18 -58t-58 -18zM941 314l14 -136l-330 -275h-235z
" />
    <glyph glyph-name="uni092A094D0930094D" horiz-adv-x="389" 
d="M305 180h214v-40h-45l-149 -217h-204l146 198h-112q-40 0 -58 18.5t-18 58.5v365h-99v59h429v-59h-137v-350q0 -19 7 -26t26 -7z" />
    <glyph glyph-name="uni092B094D0930094D" horiz-adv-x="766" 
d="M305 180h129q20 0 27 7t7 27v349h-196v-350q0 -19 7 -26t26 -7zM700 453h209v-59h-207q-20 0 -27 -7t-7 -27v-360h-200v131l-143 -208h-204l146 198h-112q-40 0 -58 18.5t-18 58.5v365h-99v59h806v-59h-118v-119q10 9 32 9z" />
    <glyph glyph-name="uni092C094D0930094D" horiz-adv-x="458" 
d="M478 622v-59h-498v59h498zM264 281v-97q0 -18 7 -25t26 -7h229l-268 239q6 -53 6 -110zM588 152v-39h-48l-159 -191h-209l154 171h-184q-40 0 -58.5 18t-18.5 58v240q0 40 18.5 58t58.5 18h344v-59h-197l276 -245l-1 -29h24z" />
    <glyph glyph-name="uni092D094D0930094D" horiz-adv-x="721" 
d="M409 -97l549 407l5 -146l-318 -261h-236zM449 208v138h-161q-19 0 -26 -6.5t-7 -25.5v-106q0 -19 7 -26t26 -7h128q19 0 26 7t7 26zM643 405h323v-59h-323v-153q0 -40 -18.5 -58t-58.5 -18h-421q-40 0 -58 18t-18 58v136q0 40 18 58t58 18h304v126q0 18 -7 25t-26 7h-108
q-19 0 -26 -7t-7 -25v-60h-200v75q0 40 18.5 58t58.5 18h414q40 0 58.5 -18t18.5 -58v-141z" />
    <glyph glyph-name="uni092E094D0930094D" horiz-adv-x="727" 
d="M289 176h127q19 0 26 6.5t7 25.5v218h-160q-19 0 -26 -7t-7 -25v-186q0 -19 7 -25.5t26 -6.5zM649 426v-233q0 -40 -18 -58t-58 -18h-427q-40 0 -58.5 18t-18.5 58v216q0 40 18.5 58t58.5 18h303v78h-469v59h767v-59h-98v-78h333v-59h-333zM979 318l4 -148l-325 -267
h-236z" />
    <glyph glyph-name="uni092F094D0930094D" horiz-adv-x="605" 
d="M284 154h468v-40h-60l-197 -191h-236l192 172h-323q-40 0 -58.5 18t-18.5 58v197h250q19 0 26 7t7 26v129q0 20 -7 26.5t-26 6.5h-321v59h645v-59h-105q15 -9 15 -36v-142q0 -40 -18.5 -58t-58.5 -18h-206v-123q0 -19 6.5 -25.5t25.5 -6.5z" />
    <glyph glyph-name="uni0935094D0930094D" horiz-adv-x="390" 
d="M-20 563v59h430v-59h-430zM420 485v-59h-116q-19 0 -26 -7t-7 -25v-208q0 -19 7 -25.5t26 -6.5h230v-38h-57l-138 -193h-203l132 172h-121q-40 0 -58 18t-18 58v238q0 40 18 58t58 18h273z" />
    <glyph glyph-name="uni0938094D0930094D" horiz-adv-x="799" 
d="M1002 345v-59h-119l-164 -172h-221l165 172h-389v-195q0 -18 7 -25t26 -7h211v-59h-367q-40 0 -58.5 18t-18.5 58v400h200v-131h155q19 0 26 7t7 26v152q0 20 -7 26.5t-26 6.5h-449v59h839v-59h-172q15 -9 15 -36v-164q0 -12 -1 -18h341z" />
    <glyph glyph-name="uni0915093C094D0930094D" horiz-adv-x="741" 
d="M273 -264v129h195v-129h-195zM678 485h260v-59h-258q-20 0 -27 -7t-7 -27v-392h-200v101l-122 -182h-202l127 172h-106q-40 0 -58 18t-18 58v242q0 40 18 58t58 18h253v-59h-96q-19 0 -26 -7t-7 -25v-212q0 -19 7 -25.5t26 -6.5h112q20 0 27 7t7 27v379h-466v59h781v-59
h-115v-87q10 9 32 9z" />
    <glyph glyph-name="uni0916093C094D0930094D" horiz-adv-x="994" 
d="M273 229v-138q0 -18 7 -25t26 -7h315v-59h-473q-40 0 -58 18t-18 58v371h201v-159h101q19 0 25.5 7t6.5 25v243h-426v59h1034v-59h-410v-258q0 -40 -18.5 -58t-58.5 -18h-254zM874 -264v129h195v-129h-195zM912 186h204v-37h-42l-170 -224h-200l158 202h-97q-65 0 -65 76
v183q0 40 18 58t58 18h248v-59h-112q-19 0 -26 -7t-7 -26v-152q0 -19 7 -25.5t26 -6.5z" />
    <glyph glyph-name="uni0917093C094D0930094D" horiz-adv-x="713" 
d="M263 176h152q19 0 26 6.5t7 25.5v196h-185q-19 0 -26 -6.5t-7 -25.5v-164q0 -19 7 -25.5t26 -6.5zM640 563v-370q0 -40 -18 -58t-58 -18h-432q-40 0 -58.5 18t-18.5 58v194q0 40 18.5 58t58.5 18h316v100h-468v59h752v-59h-92zM934 157l-295 -254h-234l465 360zM599 -292
v129h195v-129h-195z" />
    <glyph glyph-name="uni091C093C094D0930094D" horiz-adv-x="712" 
d="M732 622v-59h-752v59h752zM569 117h-420q-40 0 -58.5 18t-18.5 58v292h192v-277q0 -19 7 -25.5t26 -6.5h124q19 0 26 6.5t7 25.5v277h511v-59h-320v-233q0 -40 -18 -58t-58 -18zM152 -70v129h195v-129h-195zM952 314l15 -137l-331 -274h-235z" />
    <glyph glyph-name="uni0928093C094D0930094D" horiz-adv-x="702" 
d="M722 622v-59h-742v59h742zM281 176h127q19 0 26 6.5t7 25.5v218h-160q-19 0 -26 -7t-7 -25v-186q0 -19 7 -25.5t26 -6.5zM558 117h-426q-40 0 -58.5 18t-18.5 58v216q0 40 18.5 58t58.5 18h815v-59h-313v-233q0 -40 -18 -58t-58 -18zM955 178l-330 -275h-235l551 411z
M578 -295v129h195v-129h-195z" />
    <glyph glyph-name="uni092B093C094D0930094D" horiz-adv-x="766" 
d="M283 -264v129h195v-129h-195zM305 180h129q20 0 27 7t7 27v349h-196v-350q0 -19 7 -26t26 -7zM700 453h209v-59h-207q-20 0 -27 -7t-7 -27v-360h-200v131l-143 -208h-204l146 198h-112q-40 0 -58 18.5t-18 58.5v365h-99v59h806v-59h-118v-119q10 9 32 9z" />
    <glyph glyph-name="uni092F093C094D0930094D" horiz-adv-x="605" 
d="M478 -268v129h195v-129h-195zM284 154h468v-40h-60l-197 -191h-236l192 172h-323q-40 0 -58.5 18t-18.5 58v197h250q19 0 26 7t7 26v129q0 20 -7 26.5t-26 6.5h-321v59h645v-59h-105q15 -9 15 -36v-142q0 -40 -18.5 -58t-58.5 -18h-206v-123q0 -19 6.5 -25.5t25.5 -6.5z
" />
    <glyph glyph-name="uni0915094D0915" horiz-adv-x="1828" 
d="M1184 171v392h-540v-87q10 9 32 9h458v-59h-96q-19 0 -26 -7t-7 -25v-225q0 -18 7 -25t26 -7h112q20 0 27 7.5t7 26.5zM1848 563h-464v-87q10 9 32 9h271q40 0 58 -18t18 -58v-255q0 -40 -18 -58t-58 -18h-253v59h96q19 0 26 7t7 25v225q0 18 -7 25t-26 7h-112
q-20 0 -27 -7t-7 -27v-392h-200v87q-10 -9 -32 -9h-270q-40 0 -58.5 18t-18.5 58v255q0 12 1 17h-128q-20 0 -27 -7t-7 -27v-392h-200v87q-10 -9 -32 -9h-270q-40 0 -58.5 18t-18.5 58v255q0 40 18.5 58t58.5 18h252v-59h-96q-19 0 -26 -7t-7 -25v-225q0 -18 7 -25t26 -7
h112q20 0 27 7.5t7 26.5v392h-464v59h1868v-59z" />
    <glyph glyph-name="uni0915094D0916" horiz-adv-x="2098" 
d="M1150 314v249h-506v-87q10 9 32 9h340v-203h101q19 0 26 6.5t7 25.5zM2118 622v-59h-106v-563h-198v130q-10 -10 -33 -10h-261q-40 0 -58 18t-18 58v183q0 40 18 58t58 18h249v-59h-113q-19 0 -26 -7t-7 -25v-153q0 -18 7 -25t26 -7h122q20 0 28 7.5t8 27.5v349h-467
v-264q0 -40 -18 -58t-58 -18h-255v-132q0 -18 7.5 -25t26.5 -7h377v-59h-535q-40 0 -58 18t-18 58v350h-138q-20 0 -27 -7t-7 -27v-392h-200v87q-10 -9 -32 -9h-270q-40 0 -58.5 18t-18.5 58v255q0 40 18.5 58t58.5 18h252v-59h-96q-19 0 -26 -7t-7 -25v-225q0 -18 7 -25
t26 -7h112q20 0 27 7.5t7 26.5v392h-464v59h2138z" />
    <glyph glyph-name="uni0915094D091A" horiz-adv-x="1560" 
d="M1274 171v392h-630v-87q10 9 32 9h468v-59h-101q-16 -1 -22.5 -8t-6.5 -24v-225q0 -18 7 -25t26 -7h193q20 0 27 7.5t7 26.5zM1580 622v-59h-107v-563h-199v87q-10 -9 -32 -9h-351q-40 0 -58.5 18t-18.5 58v236q0 27 15 36h-151q-20 0 -27 -7t-7 -27v-392h-200v87
q-10 -9 -32 -9h-270q-40 0 -58.5 18t-18.5 58v255q0 40 18.5 58t58.5 18h252v-59h-96q-19 0 -26 -7t-7 -25v-225q0 -18 7 -25t26 -7h112q20 0 27 7.5t7 26.5v392h-464v59h1600z" />
    <glyph glyph-name="uni0915094D091C" horiz-adv-x="1817" 
d="M1531 485v78h-887v-87q10 9 32 9h332v-316q0 -18 7 -25t26 -7h124q19 0 26 7t7 25v316h333zM1837 622v-59h-106v-563h-200v426h-140v-272q0 -40 -18 -58t-58 -18h-424q-40 0 -58.5 18t-18.5 58v272h-136q-20 0 -27 -7t-7 -27v-392h-200v87q-10 -9 -32 -9h-270
q-40 0 -58.5 18t-18.5 58v255q0 40 18.5 58t58.5 18h252v-59h-96q-19 0 -26 -7t-7 -25v-225q0 -18 7 -25t26 -7h112q20 0 27 7.5t7 26.5v392h-464v59h1857z" />
    <glyph glyph-name="uni0915094D091F" horiz-adv-x="1462" 
d="M1163 485v78h-519v-87q10 9 32 9h487zM1363 426h-327q-19 0 -26 -7t-7 -25v-303q0 -18 7 -25t26 -7h124q19 0 26 7t7 25v153h200v-168q0 -40 -18.5 -58t-58.5 -18h-436q-40 0 -58.5 18t-18.5 58v333q0 12 1 17h-126q-20 0 -27 -7t-7 -27v-392h-200v87q-10 -9 -32 -9h-270
q-40 0 -58.5 18t-18.5 58v255q0 40 18.5 58t58.5 18h252v-59h-96q-19 0 -26 -7t-7 -25v-225q0 -18 7 -25t26 -7h112q20 0 27 7.5t7 26.5v392h-464v59h1501v-59h-118v-137z" />
    <glyph glyph-name="uni0915094D0923" horiz-adv-x="1817" 
d="M1186 169v394h-194v-394q0 -18 7 -25t26 -7h128q19 0 26 7t7 25zM676 485h129v78h-161v-87q10 9 32 9zM1838 622v-59h-106v-563h-200v563h-159v-409q0 -40 -18 -58t-58 -18h-415q-40 0 -58.5 18t-18.5 58v272h-127q-20 0 -27 -7t-7 -27v-392h-200v87q-10 -9 -32 -9h-270
q-40 0 -58.5 18t-18.5 58v255q0 40 18.5 58t58.5 18h252v-59h-96q-19 0 -26 -7t-7 -25v-225q0 -18 7 -25t26 -7h112q20 0 27 7.5t7 26.5v392h-464v59h1858z" />
    <glyph glyph-name="uni0915094D0924" horiz-adv-x="1156" 
d="M1176 563h-488v-87q10 9 32 9h293q40 0 58 -18t18 -58v-333q0 -40 -18 -58t-58 -18h-256v59h99q19 0 26 7t7 25v303q0 18 -7 25t-26 7h-134q-20 0 -27 -7t-7 -27v-392h-198v426h-174q-17 -1 -23 -7.5t-6 -24.5v-303q0 -18 7 -25t26 -7h99v-59h-256q-40 0 -58 18t-18 58
v314q0 28 14 36h-85v59h474v78h-510v59h1196v-59z" />
    <glyph glyph-name="uni0915094D0925" horiz-adv-x="1786" 
d="M1806 622v-59h-106v-563h-199v87q-11 -9 -32 -9h-586q-40 0 -58.5 18t-18.5 58v197h335q19 0 26 6.5t7 25.5v148q0 18 -7 25t-26 7h-99q-19 0 -26 -7t-7 -25v-105h-331q-20 0 -27 -7t-7 -27v-392h-200v87q-10 -9 -32 -9h-270q-40 0 -58.5 18t-18.5 58v255q0 40 18.5 58
t58.5 18h252v-59h-96q-19 0 -26 -7t-7 -25v-225q0 -18 7 -25t26 -7h112q20 0 27 7.5t7 26.5v392h-464v59h732v-59h-68v-87q10 9 32 9h137v61q0 40 18 58t58 18h405q40 0 58.5 -18t18.5 -58v-178q0 -40 -18.5 -58t-58.5 -18h-288v-123q0 -18 7 -25t26 -7h428q19 0 26.5 7.5
t7.5 26.5v451h305z" />
    <glyph glyph-name="uni0915094D0926" horiz-adv-x="1462" 
d="M1173 485v78h-529v-87q10 9 32 9h497zM1373 426h-344q-19 0 -26 -7t-7 -25v-225q0 -18 7 -25t26 -7h119q20 0 27 7.5t7 26.5v95h201v-266h-201v87q-10 -9 -32 -9h-277q-40 0 -58.5 18t-18.5 58v255q0 12 1 17h-119q-20 0 -27 -7t-7 -27v-392h-200v87q-10 -9 -32 -9h-270
q-40 0 -58.5 18t-18.5 58v255q0 40 18.5 58t58.5 18h252v-59h-96q-19 0 -26 -7t-7 -25v-225q0 -18 7 -25t26 -7h112q20 0 27 7.5t7 26.5v392h-464v59h1502v-59h-109v-137z" />
    <glyph glyph-name="uni0915094D092A" horiz-adv-x="1490" 
d="M1205 171v392h-196v-394q0 -18 7 -25t26 -7h129q19 0 26.5 7.5t7.5 26.5zM676 485h139v78h-171v-87q10 9 32 9zM1511 622v-59h-107v-563h-199v87q-11 -9 -32 -9h-281q-40 0 -58.5 18t-18.5 58v272h-137q-20 0 -27 -7t-7 -27v-392h-200v87q-10 -9 -32 -9h-270
q-40 0 -58.5 18t-18.5 58v255q0 40 18.5 58t58.5 18h252v-59h-96q-19 0 -26 -7t-7 -25v-225q0 -18 7 -25t26 -7h112q20 0 27 7.5t7 26.5v392h-464v59h1531z" />
    <glyph glyph-name="uni0915094D092B" horiz-adv-x="1848" 
d="M1205 171v392h-196v-394q0 -18 7 -25t26 -7h129q19 0 26.5 7.5t7.5 26.5zM676 485h139v78h-171v-87q10 9 32 9zM1869 563h-465v-87q10 9 32 9h271q40 0 58 -18t18 -58v-255q0 -40 -18 -58t-58 -18h-258v59h101q19 0 26 7t7 25v225q0 18 -7 25t-26 7h-112q-20 0 -27 -7
t-7 -27v-392h-199v87q-11 -9 -32 -9h-281q-40 0 -58.5 18t-18.5 58v272h-137q-20 0 -27 -7t-7 -27v-392h-200v87q-10 -9 -32 -9h-270q-40 0 -58.5 18t-18.5 58v255q0 40 18.5 58t58.5 18h252v-59h-96q-19 0 -26 -7t-7 -25v-225q0 -18 7 -25t26 -7h112q20 0 27 7.5t7 26.5
v392h-464v59h1889v-59z" />
    <glyph glyph-name="uni0915094D092E" horiz-adv-x="1820" 
d="M1536 485v78h-152v-78h152zM1183 169v257h-160q-19 0 -26 -7t-7 -25v-225q0 -18 7 -25t26 -7h128q19 0 25.5 7t6.5 25zM1183 485v78h-539v-87q10 9 32 9h507zM1840 622v-59h-106v-563h-198v426h-152v-272q0 -40 -18.5 -58t-58.5 -18h-427q-40 0 -58.5 18t-18.5 58v255
q0 12 1 17h-126q-20 0 -27 -7t-7 -27v-392h-200v87q-10 -9 -32 -9h-270q-40 0 -58.5 18t-18.5 58v255q0 40 18.5 58t58.5 18h252v-59h-96q-19 0 -26 -7t-7 -25v-225q0 -18 7 -25t26 -7h112q20 0 27 7.5t7 26.5v392h-464v59h1860z" />
    <glyph glyph-name="uni0915094D092F" horiz-adv-x="1713" 
d="M1428 173v390h-165q15 -9 15 -36v-142q0 -40 -18.5 -58t-58.5 -18h-202v-140q0 -18 6.5 -25t25.5 -7h360q21 0 29 8t8 28zM1734 622v-59h-106v-563h-200v89q-10 -11 -34 -11h-519q-40 0 -58.5 18t-18.5 58v214h247q19 0 26 7t7 26v129q0 20 -7 26.5t-26 6.5h-401v-87
q10 9 32 9h122v-59h-120q-20 0 -27 -7t-7 -27v-392h-200v87q-10 -9 -32 -9h-270q-40 0 -58.5 18t-18.5 58v255q0 40 18.5 58t58.5 18h252v-59h-96q-19 0 -26 -7t-7 -25v-225q0 -18 7 -25t26 -7h112q20 0 27 7.5t7 26.5v392h-464v59h1754z" />
    <glyph glyph-name="uni0915094D0932" horiz-adv-x="1846" 
d="M1559 485v78h-915v-87q10 9 32 9h534q35 0 50.5 -14t17.5 -46h4q2 31 17 45.5t47 14.5h213zM1866 622v-59h-106v-563h-201v426h-146q-19 0 -26 -7t-7 -25v-211h-199v211q0 18 -7.5 25t-26.5 7h-113q-19 0 -25.5 -7t-6.5 -25v-303q0 -18 6.5 -25t25.5 -7h161v-59h-317
q-40 0 -58.5 18t-18.5 58v333q0 12 1 17h-124q-20 0 -27 -7t-7 -27v-392h-200v87q-10 -9 -32 -9h-270q-40 0 -58.5 18t-18.5 58v255q0 40 18.5 58t58.5 18h252v-59h-96q-19 0 -26 -7t-7 -25v-225q0 -18 7 -25t26 -7h112q20 0 27 7.5t7 26.5v392h-464v59h1886z" />
    <glyph glyph-name="uni0915094D0935" horiz-adv-x="1486" 
d="M1200 171v392h-556v-87q10 9 32 9h474v-59h-116q-19 0 -26 -7t-7 -25v-225q0 -18 7 -25t26 -7h132q20 0 27 7.5t7 26.5zM1506 622v-59h-106v-563h-200v87q-10 -9 -32 -9h-291q-40 0 -58 18t-18 58v255q0 12 1 17h-124q-20 0 -27 -7t-7 -27v-392h-200v87q-10 -9 -32 -9
h-270q-40 0 -58.5 18t-18.5 58v255q0 40 18.5 58t58.5 18h252v-59h-96q-19 0 -26 -7t-7 -25v-225q0 -18 7 -25t26 -7h112q20 0 27 7.5t7 26.5v392h-464v59h1526z" />
    <glyph glyph-name="uni0915094D0936" horiz-adv-x="1832" 
d="M881 622h425q40 0 58 -18t18 -58v-206q0 -40 -18 -58t-58 -18h-304v-173q0 -18 7 -25t26 -7h109q19 0 26 7t7 25v108h200v-123q0 -40 -18.5 -58t-58.5 -18h-422q-40 0 -58 18t-18 58v289h200v-42h147q19 0 26 6.5t7 25.5v176q0 18 -7 25t-26 7h-111q-19 0 -26.5 -7
t-7.5 -25v-105h-326q-20 0 -27 -7t-7 -27v-392h-200v87q-10 -9 -32 -9h-270q-40 0 -58.5 18t-18.5 58v255q0 40 18.5 58t58.5 18h252v-59h-96q-19 0 -26 -7t-7 -25v-225q0 -18 7 -25t26 -7h112q20 0 27 7.5t7 26.5v392h-464v59h729v-59h-65v-87q10 9 32 9h129v61q0 40 18 58
t58 18zM1840 622v-59h-106v-563h-201v622h307z" />
    <glyph glyph-name="uni0915094D0938" horiz-adv-x="1823" 
d="M1537 339v224h-167q14 -8 14 -36v-171q0 -12 -1 -17h154zM1184 371v159q0 20 -7 26.5t-26 6.5h-507v-87q10 9 32 9h325v-146h150q19 0 26 7t7 25zM1843 622v-59h-106v-563h-200v280h-536v-189q0 -18 7 -25t26 -7h116q19 0 26 7t7 25v123h200v-138q0 -40 -18 -58t-58 -18
h-429q-40 0 -58.5 18t-18.5 58v350h-123q-20 0 -27 -7t-7 -27v-392h-200v87q-10 -9 -32 -9h-270q-40 0 -58.5 18t-18.5 58v255q0 40 18.5 58t58.5 18h252v-59h-96q-19 0 -26 -7t-7 -25v-225q0 -18 7 -25t26 -7h112q20 0 27 7.5t7 26.5v392h-464v59h1863z" />
    <glyph glyph-name="uni0916094D0916" horiz-adv-x="2359" 
d="M2379 622v-59h-106v-563h-197v131q-10 -11 -34 -11h-261q-40 0 -58 18t-18 58v183q0 40 18 58t58 18h250v-59h-114q-19 0 -26 -7t-7 -25v-153q0 -18 7 -25t26 -7h123q20 0 28 7.5t8 27.5v349h-467v-264q0 -40 -18.5 -58t-58.5 -18h-254v-132q0 -18 7 -25t26 -7h378v-59
h-536q-40 0 -58 18t-18 58v47q-12 -3 -29 -3h-272q-40 0 -58 18t-18 58v190q0 40 18 58t58 18h250v-59h-114q-19 0 -26 -7t-7 -25v-160q0 -18 7 -25t26 -7h132q29 0 33 21v247h201v-165h101q19 0 25.5 6.5t6.5 25.5v249h-807v-264q0 -40 -18.5 -58t-58.5 -18h-254v-132
q0 -18 7 -25t26 -7h378v-59h-536q-40 0 -58 18t-18 58v371h201v-165h101q19 0 25.5 6.5t6.5 25.5v249h-426v59h2399z" />
    <glyph glyph-name="uni0916094D0924" horiz-adv-x="1773" 
d="M1793 622v-59h-106v-563h-199v426h-192q-19 0 -26 -7t-7 -25v-303q0 -18 7 -25t26 -7h74v-59h-231q-40 0 -58 18t-18 58v47q-12 -3 -30 -3h-257q-40 0 -58 18t-18 58v190q0 40 18 58t58 18h242v-59h-106q-19 0 -26 -7t-7 -25v-160q0 -18 7 -25t26 -7h117q19 0 26.5 7.5
t7.5 25.5v197q0 40 18 58t58 18h349v78h-884v-264q0 -40 -18.5 -58t-58.5 -18h-254v-132q0 -18 7 -25t26 -7h378v-59h-536q-40 0 -58 18t-18 58v371h201v-165h101q19 0 25.5 6.5t6.5 25.5v249h-426v59h1813z" />
    <glyph glyph-name="uni0916094D092E" horiz-adv-x="2087" 
d="M1803 485v78h-153v-78h153zM1450 169v257h-160q-19 0 -26 -7t-7 -25v-225q0 -18 7 -25t26 -7h127q19 0 26 7t7 25zM2107 622v-59h-106v-563h-198v426h-153v-272q0 -40 -18 -58t-58 -18h-427q-63 0 -74 46q-12 -4 -33 -4h-264q-40 0 -58 18t-18 58v190q0 40 18 58t58 18
h250v-59h-114q-19 0 -26 -7t-7 -25v-160q0 -18 7 -25t26 -7h124q19 0 26.5 7.5t7.5 25.5v197q0 40 18.5 58t58.5 18h303v78h-846v-264q0 -40 -18.5 -58t-58.5 -18h-254v-132q0 -18 7 -25t26 -7h378v-59h-536q-40 0 -58 18t-18 58v371h201v-165h101q19 0 25.5 6.5t6.5 25.5
v249h-426v59h2127z" />
    <glyph glyph-name="uni0916094D092F" horiz-adv-x="1986" 
d="M1700 173v390h-164q14 -9 14 -36v-142q0 -40 -18 -58t-58 -18h-203v-140q0 -18 7 -25t26 -7h360q20 0 28 8t8 28zM2006 622v-59h-106v-563h-200v89q-10 -11 -34 -11h-519q-61 0 -73 46q-12 -4 -33 -4h-265q-40 0 -58 18t-18 58v190q0 40 18 58t58 18h250v-59h-114
q-19 0 -26 -7t-7 -25v-160q0 -18 7 -25t26 -7h125q19 0 26.5 7.5t7.5 25.5v156h246q19 0 26 7t7 26v129q0 20 -7 26.5t-26 6.5h-713v-264q0 -40 -18.5 -58t-58.5 -18h-254v-132q0 -18 7 -25t26 -7h378v-59h-536q-40 0 -58 18t-18 58v371h201v-165h101q19 0 25.5 6.5
t6.5 25.5v249h-426v59h2026z" />
    <glyph glyph-name="uni0916094D0935" horiz-adv-x="1755" 
d="M1775 622v-59h-106v-563h-200v87q-11 -9 -32 -9h-291q-62 0 -73 46q-12 -4 -33 -4h-264q-40 0 -58 18t-18 58v190q0 40 18 58t58 18h250v-59h-114q-19 0 -26 -7t-7 -25v-160q0 -18 7 -25t26 -7h124q19 0 26.5 7.5t7.5 25.5v197q0 40 18 58t58 18h273v-59h-116
q-19 0 -26 -7t-7 -25v-225q0 -18 7 -25t26 -7h132q19 0 26.5 7.5t7.5 26.5v392h-865v-264q0 -40 -18.5 -58t-58.5 -18h-254v-132q0 -18 7 -25t26 -7h378v-59h-536q-40 0 -58 18t-18 58v371h201v-165h101q19 0 25.5 6.5t6.5 25.5v249h-426v59h1795z" />
    <glyph glyph-name="uni0916094D0936" horiz-adv-x="2088" 
d="M273 223v-132q0 -18 7 -25t26 -7h378v-59h-536q-40 0 -58 18t-18 58v371h201v-165h101q19 0 25.5 6.5t6.5 25.5v249h-426v59h971v-59h-347v-264q0 -40 -18.5 -58t-58.5 -18h-254zM1150 622h424q40 0 58.5 -18t18.5 -58v-205q0 -40 -18.5 -58t-58.5 -18h-304v-174
q0 -18 7 -25t26 -7h109q19 0 26 7t7 25v108h200v-123q0 -40 -18 -58t-58 -18h-422q-40 0 -58.5 18t-18.5 58v47q-12 -3 -29 -3h-265q-40 0 -58 18t-18 58v190q0 40 18 58t58 18h250v-59h-114q-19 0 -26 -7t-7 -25v-160q0 -18 7 -25t26 -7h125q29 0 33 21v173h200v-49h148
q19 0 26 7t7 25v175q0 18 -7 25t-26 7h-111q-19 0 -26.5 -7t-7.5 -25v-84h-199v99q0 40 18 58t58 18zM2108 622v-59h-106v-563h-200v622h306z" />
    <glyph glyph-name="uni0917094D0917" horiz-adv-x="1815" 
d="M1000 137h153q19 0 25.5 7t6.5 25v198h-185q-19 0 -26 -7t-7 -25v-166q0 -18 7 -25t26 -7zM271 137h153q19 0 25.5 7t6.5 25v198h-185q-19 0 -26 -7t-7 -25v-166q0 -18 7 -25t26 -7zM1835 622v-59h-106v-563h-200v563h-144v-409q0 -40 -18 -58t-58 -18h-448
q-40 0 -58.5 18t-18.5 58v196q0 40 18.5 58t58.5 18h324v137h-529v-409q0 -40 -18 -58t-58 -18h-448q-40 0 -58.5 18t-18.5 58v196q0 40 18.5 58t58.5 18h324v137h-476v59h1855z" />
    <glyph glyph-name="uni0917094D0918" horiz-adv-x="1597" 
d="M1311 171v392h-282q-19 0 -26 -6.5t-7 -26.5v-119q0 -19 7 -26t26 -7h138v-59h-138q-19 0 -26 -6.5t-7 -26.5v-117q0 -18 7 -25t26 -7h248q19 0 26.5 7.5t7.5 26.5zM271 137h153q19 0 25.5 7t6.5 25v198h-185q-19 0 -26 -7t-7 -25v-166q0 -18 7 -25t26 -7zM1617 622v-59
h-106v-563h-200v87q-11 -9 -32 -9h-406q-40 0 -58.5 18t-18.5 58v126q0 65 63 65v5q-33 1 -48 16t-15 49v112q0 27 15 36h-155v-409q0 -40 -18 -58t-58 -18h-448q-40 0 -58.5 18t-18.5 58v196q0 40 18.5 58t58.5 18h324v137h-476v59h1637z" />
    <glyph glyph-name="uni0917094D091C" horiz-adv-x="1804" 
d="M271 137h153q19 0 25.5 7t6.5 25v198h-185q-19 0 -26 -7t-7 -25v-166q0 -18 7 -25t26 -7zM1824 622v-59h-106v-563h-200v426h-140v-272q0 -40 -18 -58t-58 -18h-424q-40 0 -58.5 18t-18.5 58v331h194v-316q0 -18 7 -25t26 -7h124q19 0 26 7t7 25v316h333v78h-862v-409
q0 -40 -18 -58t-58 -18h-448q-40 0 -58.5 18t-18.5 58v196q0 40 18.5 58t58.5 18h324v137h-476v59h1844z" />
    <glyph glyph-name="uni0917094D0923" horiz-adv-x="1815" 
d="M1183 169v394h-194v-394q0 -18 7 -25t26 -7h128q19 0 26 7t7 25zM271 137h153q19 0 25.5 7t6.5 25v198h-185q-19 0 -26 -7t-7 -25v-166q0 -18 7 -25t26 -7zM1835 622v-59h-106v-563h-200v563h-159v-409q0 -40 -18 -58t-58 -18h-415q-40 0 -58.5 18t-18.5 58v409h-146
v-409q0 -40 -18 -58t-58 -18h-448q-40 0 -58.5 18t-18.5 58v196q0 40 18.5 58t58.5 18h324v137h-476v59h1855z" />
    <glyph glyph-name="uni0917094D0926" horiz-adv-x="1455" 
d="M271 137h153q19 0 25.5 7t6.5 25v198h-185q-19 0 -26 -7t-7 -25v-166q0 -18 7 -25t26 -7zM1366 426h-344q-19 0 -26 -7t-7 -25v-225q0 -18 7 -25t26 -7h119q19 0 26.5 7.5t7.5 26.5v95h201v-266h-201v87q-11 -9 -32 -9h-277q-40 0 -58.5 18t-18.5 58v255q0 40 18.5 58
t58.5 18h300v78h-510v-409q0 -40 -18 -58t-58 -18h-448q-40 0 -58.5 18t-18.5 58v196q0 40 18.5 58t58.5 18h324v137h-476v59h1495v-59h-109v-137z" />
    <glyph glyph-name="uni0917094D0927" horiz-adv-x="1737" 
d="M271 137h153q19 0 25.5 7t6.5 25v198h-185q-19 0 -26 -7t-7 -25v-166q0 -18 7 -25t26 -7zM-20 563v59h758v-59h-82v-409q0 -40 -18 -58t-58 -18h-448q-40 0 -58.5 18t-18.5 58v196q0 40 18.5 58t58.5 18h324v137h-476zM1757 622v-59h-106v-563h-200v87q-11 -9 -32 -9
h-533q-40 0 -58 18t-18 58v106q0 64 62 65v4q-62 1 -62 65v152q0 40 18 58t58 18h377q40 0 58 -18t18 -58v-120h-166v105q0 18 -6.5 25t-25.5 7h-98q-19 0 -26 -7t-7 -25v-140q0 -19 7 -26t26 -7h122v-59h-122q-19 0 -26 -6.5t-7 -26.5v-97q0 -18 7 -25t26 -7h374
q19 0 26.5 7.5t7.5 26.5v451h306z" />
    <glyph glyph-name="uni0917094D092C" horiz-adv-x="1543" 
d="M1021 137h202q15 0 22 4l-263 237q6 -54 6 -110v-99q0 -18 7 -25t26 -7zM271 137h153q19 0 25.5 7t6.5 25v198h-185q-19 0 -26 -7t-7 -25v-166q0 -18 7 -25t26 -7zM1563 622v-59h-106v-563h-200v87q-11 -9 -32 -9h-359q-40 0 -58.5 18t-18.5 58v255q0 40 18.5 58t58.5 18
h344v-59h-207l263 -239q-9 42 -9 132v244h-601v-409q0 -40 -18 -58t-58 -18h-448q-40 0 -58.5 18t-18.5 58v196q0 40 18.5 58t58.5 18h324v137h-476v59h1583z" />
    <glyph glyph-name="uni0917094D092D" horiz-adv-x="1828" 
d="M271 137h153q19 0 25.5 7t6.5 25v198h-185q-19 0 -26 -7t-7 -25v-166q0 -18 7 -25t26 -7zM-20 563v59h758v-59h-82v-409q0 -40 -18 -58t-58 -18h-448q-40 0 -58.5 18t-18.5 58v196q0 40 18.5 58t58.5 18h324v137h-476zM1191 169v144h-161q-19 0 -26 -7t-7 -26v-111
q0 -18 7 -25t26 -7h128q19 0 26 7t7 25zM1848 622v-59h-106v-563h-200v313h-151v-159q0 -40 -18 -58t-58 -18h-428q-40 0 -58 18t-18 58v141q0 40 18 58.5t58 18.5h304v159q0 18 -7 25t-26 7h-108q-19 0 -26 -7t-7 -25v-88h-200v103q0 40 18.5 58t58.5 18h421q40 0 58 -18
t18 -58v-174h151v250h306z" />
    <glyph glyph-name="uni0917094D092E" horiz-adv-x="1813" 
d="M1529 485v78h-152v-78h152zM1176 169v257h-160q-19 0 -26 -7t-7 -25v-225q0 -18 7 -25t26 -7h128q19 0 25.5 7t6.5 25zM271 137h153q19 0 25.5 7t6.5 25v198h-185q-19 0 -26 -7t-7 -25v-166q0 -18 7 -25t26 -7zM1833 622v-59h-106v-563h-198v426h-152v-272
q0 -40 -18.5 -58t-58.5 -18h-427q-40 0 -58.5 18t-18.5 58v255q0 40 18.5 58t58.5 18h303v78h-520v-409q0 -40 -18 -58t-58 -18h-448q-40 0 -58.5 18t-18.5 58v196q0 40 18.5 58t58.5 18h324v137h-476v59h1853z" />
    <glyph glyph-name="uni0917094D092F" horiz-adv-x="1696" 
d="M1410 173v390h-165q15 -9 15 -36v-142q0 -40 -18.5 -58t-58.5 -18h-202v-140q0 -18 6.5 -25t25.5 -7h360q21 0 29 8t8 28zM271 137h153q19 0 25.5 7t6.5 25v198h-185q-19 0 -26 -7t-7 -25v-166q0 -18 7 -25t26 -7zM1716 622v-59h-106v-563h-200v89q-10 -11 -34 -11h-519
q-40 0 -58.5 18t-18.5 58v214h247q19 0 26 7t7 26v129q0 20 -7 26.5t-26 6.5h-371v-409q0 -40 -18 -58t-58 -18h-448q-40 0 -58.5 18t-18.5 58v196q0 40 18.5 58t58.5 18h324v137h-476v59h1736z" />
    <glyph glyph-name="uni0917094D0932" horiz-adv-x="1847" 
d="M271 137h153q19 0 25.5 7t6.5 25v198h-185q-19 0 -26 -7t-7 -25v-166q0 -18 7 -25t26 -7zM1868 622v-59h-106v-563h-201v426h-146q-19 0 -26 -7t-7 -25v-211h-199v211q0 18 -7.5 25t-26.5 7h-113q-19 0 -25.5 -7t-6.5 -25v-303q0 -18 6.5 -25t25.5 -7h161v-59h-317
q-40 0 -58.5 18t-18.5 58v333q0 40 18.5 58t58.5 18h332q35 0 50.5 -14t17.5 -46h4q2 31 17 45.5t47 14.5h213v78h-905v-409q0 -40 -18 -58t-58 -18h-448q-40 0 -58.5 18t-18.5 58v196q0 40 18.5 58t58.5 18h324v137h-476v59h1888z" />
    <glyph glyph-name="uni0917094D0935" horiz-adv-x="1477" 
d="M271 137h153q19 0 25.5 7t6.5 25v198h-185q-19 0 -26 -7t-7 -25v-166q0 -18 7 -25t26 -7zM1497 622v-59h-106v-563h-200v87q-11 -9 -32 -9h-291q-40 0 -58 18t-18 58v255q0 40 18 58t58 18h273v-59h-116q-19 0 -26 -7t-7 -25v-225q0 -18 7 -25t26 -7h132q19 0 26.5 7.5
t7.5 26.5v392h-535v-409q0 -40 -18 -58t-58 -18h-448q-40 0 -58.5 18t-18.5 58v196q0 40 18.5 58t58.5 18h324v137h-476v59h1517z" />
    <glyph glyph-name="uni0917094D0938" horiz-adv-x="1824" 
d="M1538 339v224h-167q14 -8 14 -36v-171q0 -12 -1 -17h154zM271 137h153q19 0 25.5 7t6.5 25v198h-185q-19 0 -26 -7t-7 -25v-166q0 -18 7 -25t26 -7zM1844 622v-59h-106v-563h-200v280h-536v-189q0 -18 7 -25t26 -7h116q19 0 26 7t7 25v123h200v-138q0 -40 -18 -58
t-58 -18h-429q-40 0 -58.5 18t-18.5 58v400h200v-137h150q19 0 26 7t7 25v159q0 20 -6.5 26.5t-26.5 6.5h-496v-409q0 -40 -18 -58t-58 -18h-448q-40 0 -58.5 18t-18.5 58v196q0 40 18.5 58t58.5 18h324v137h-476v59h1864z" />
    <glyph glyph-name="uni0918094D092E" horiz-adv-x="1593" 
d="M1309 485v78h-152v-78h152zM956 169v257h-160q-19 0 -26 -7t-7 -25v-225q0 -18 7 -25t26 -7h128q19 0 25.5 7t6.5 25zM576 170v239q0 40 18.5 58t58.5 18h303v78h-649q-19 0 -26 -6.5t-7 -26.5v-119q0 -19 7 -26t26 -7h138v-59h-138q-19 0 -26 -6.5t-7 -26.5v-117
q0 -18 7 -25t26 -7h235q19 0 26.5 7.5t7.5 25.5zM1613 622v-59h-106v-563h-198v426h-152v-272q0 -40 -18.5 -58t-58.5 -18h-427q-35 0 -55 15q-16 -15 -52 -15h-395q-40 0 -58.5 18t-18.5 58v126q0 65 63 65v5q-33 1 -48 16t-15 49v112q0 27 15 36h-109v59h1633z" />
    <glyph glyph-name="uni0918094D092F" horiz-adv-x="1491" 
d="M1206 173v390h-165q15 -9 15 -36v-142q0 -40 -18.5 -58t-58.5 -18h-202v-140q0 -18 6.5 -25t25.5 -7h360q21 0 29 8t8 28zM307 137h235q19 0 26.5 7.5t7.5 25.5v198h247q19 0 26 7t7 26v129q0 20 -7 26.5t-26 6.5h-516q-19 0 -26 -6.5t-7 -26.5v-119q0 -19 7 -26t26 -7
h138v-59h-138q-19 0 -26 -6.5t-7 -26.5v-117q0 -18 7 -25t26 -7zM1512 622v-59h-106v-563h-200v89q-10 -11 -34 -11h-519q-35 0 -55 15q-16 -15 -52 -15h-395q-40 0 -58.5 18t-18.5 58v126q0 65 63 65v5q-33 1 -48 16t-15 49v112q0 27 15 36h-109v59h1532z" />
    <glyph glyph-name="uni091A094D091A" horiz-adv-x="1322" 
d="M1342 622v-59h-119v-563h-200v87q-11 -9 -32 -9h-351q-36 0 -54 15q-16 -15 -52 -15h-357q-40 0 -58.5 18t-18.5 58v236q0 27 15 36h-99v59h408v-59h-95q-16 -1 -22.5 -8t-6.5 -24v-225q0 -18 7 -25t26 -7h197q19 0 26.5 7.5t7.5 25.5v220q0 27 15 36h-86v59h401v-59
h-101q-17 -1 -23 -7.5t-6 -24.5v-225q0 -18 7 -25t26 -7h192q19 0 26.5 7.5t7.5 26.5v392h-1043v59h1362z" />
    <glyph glyph-name="uni091A094D091B" horiz-adv-x="1541" 
d="M1114 485v78h-308q-20 0 -26.5 -6.5t-6.5 -26.5v-158q0 -20 6.5 -26.5t26.5 -6.5h96v-59h-96q-20 0 -26.5 -7t-6.5 -26v-156q0 -18 7 -25t26 -7h455q19 0 26 7t7 25v303q0 18 -7 25t-26 7h-103q-19 0 -26 -7t-7 -25v-130q0 -18 7 -25t26 -7h56v-59h-189q-40 0 -58.5 18
t-18.5 58v160q0 40 18.5 58t58.5 18h89zM1562 563h-261v-78h92q40 0 58 -18t18 -58v-333q0 -40 -18 -58t-58 -18h-743q-40 0 -58.5 18t-18.5 58v5q-12 -3 -30 -3h-366q-40 0 -58.5 18t-18.5 58v236q0 27 15 36h-99v59h414v-59h-101q-16 -1 -22.5 -8t-6.5 -24v-225
q0 -18 7 -25t26 -7h206q19 0 26.5 7.5t7.5 25.5v71q0 64 63 64v5q-63 1 -63 65v152q0 27 14 36h-607v59h1582v-59z" />
    <glyph glyph-name="uni091A094D092E" horiz-adv-x="1567" 
d="M1283 485v78h-152v-78h152zM930 169v257h-160q-19 0 -26 -7t-7 -25v-225q0 -18 7 -25t26 -7h128q19 0 25.5 7t6.5 25zM1587 622v-59h-106v-563h-198v426h-152v-272q0 -40 -18.5 -58t-58.5 -18h-427q-36 0 -54 15q-17 -15 -52 -15h-344q-40 0 -58.5 18t-18.5 58v236
q0 27 15 36h-99v59h414v-59h-101q-16 -1 -22.5 -8t-6.5 -24v-225q0 -18 7 -25t26 -7h184q29 0 33 21v251q0 40 18.5 58t58.5 18h303v78h-950v59h1607z" />
    <glyph glyph-name="uni091A094D092F" horiz-adv-x="1460" 
d="M1174 173v390h-165q15 -9 15 -36v-142q0 -40 -18.5 -58t-58.5 -18h-202v-140q0 -18 6.5 -25t25.5 -7h360q21 0 29 8t8 28zM1480 622v-59h-106v-563h-200v89q-10 -11 -34 -11h-519q-35 0 -55 15q-16 -15 -52 -15h-337q-40 0 -58.5 18t-18.5 58v236q0 27 15 36h-99v59h414
v-59h-101q-16 -1 -22.5 -8t-6.5 -24v-225q0 -18 7 -25t26 -7h177q19 0 26.5 7.5t7.5 25.5v198h247q19 0 26 7t7 26v129q0 20 -7 26.5t-26 6.5h-811v59h1500z" />
    <glyph glyph-name="uni091B094D092F" horiz-adv-x="1996" 
d="M1710 173v390h-1398q-20 0 -26.5 -6.5t-6.5 -26.5v-158q0 -20 6.5 -26.5t26.5 -6.5h96v-59h-96q-20 0 -26.5 -7t-6.5 -26v-156q0 -18 7 -25t26 -7h455q19 0 26 7t7 25v303q0 18 -7 25t-26 7h-103q-19 0 -26 -7t-7 -25v-130q0 -18 7 -25t26 -7h56v-59h-189q-40 0 -58.5 18
t-18.5 58v160q0 40 18.5 58t58.5 18h368q10 0 15 -1v1h570q40 0 58 -18t18 -58v-82q0 -40 -18 -58t-58 -18h-191v-82q0 -18 7 -25t26 -7h348q20 0 28 8t8 28zM2016 622v-59h-106v-563h-200v88q-10 -10 -33 -10h-504q-40 0 -58 18t-18 58v156h230q19 0 26 7t7 25v52
q0 18 -7 25t-26 7h-353q1 -5 1 -17v-333q0 -40 -18 -58t-58 -18h-743q-40 0 -58.5 18t-18.5 58v165q0 64 63 64v5q-63 1 -63 65v152q0 27 14 36h-113v59h2036z" />
    <glyph glyph-name="uni091B094D0935" horiz-adv-x="1056" 
d="M639 485v78h-327q-20 0 -26.5 -6.5t-6.5 -26.5v-158q0 -20 6.5 -26.5t26.5 -6.5h96v-59h-96q-20 0 -26.5 -7t-6.5 -26v-132q0 -19 6.5 -26t26.5 -7h461q19 0 26.5 7t7.5 26v279q0 18 -7.5 25t-26.5 7h-103q-19 0 -26 -7t-7 -25v-120q0 -18 7 -25t26 -7h56v-59h-189
q-40 0 -58 18.5t-18 58.5v149q0 40 18 58t58 18h102zM456 -148h155q19 0 26.5 7t7.5 27v137h-189q-20 0 -26.5 -6.5t-6.5 -26.5v-105q0 -19 7 -26t26 -7zM1076 563h-252v-78h81q40 0 58.5 -18t18.5 -58v-309q0 -77 -77 -77h-88v-275h-172v54q-11 -9 -32 -9h-302
q-40 0 -58 18t-18 58v118q0 27 14 36h-93q-77 0 -77 77v141q0 64 63 64v5q-63 1 -63 65v152q0 27 14 36h-113v59h1096v-59z" />
    <glyph glyph-name="uni091C094D0915" horiz-adv-x="1817" 
d="M1836 563h-464v-87q10 9 32 9h271q40 0 58 -18t18 -58v-255q0 -40 -18 -58t-58 -18h-253v59h96q19 0 26 7t7 25v225q0 18 -7 25t-26 7h-112q-20 0 -27 -7t-7 -27v-392h-200v87q-10 -9 -32 -9h-270q-40 0 -58.5 18t-18.5 58v255q0 12 1 17h-145v-272q0 -40 -18 -58
t-58 -18h-424q-40 0 -58.5 18t-18.5 58v331h194v-316q0 -18 7 -25t26 -7h124q19 0 26 7t7 25v316h666v-59h-96q-19 0 -26 -7t-7 -25v-225q0 -18 7 -25t26 -7h112q20 0 27 7.5t7 26.5v392h-1192v59h1856v-59z" />
    <glyph glyph-name="uni091C094D091C" horiz-adv-x="1797" 
d="M1817 622v-59h-106v-563h-200v426h-140v-272q0 -40 -18 -58t-58 -18h-424q-40 0 -58.5 18t-18.5 58v272h-145v-272q0 -40 -18 -58t-58 -18h-424q-40 0 -58.5 18t-18.5 58v331h194v-316q0 -18 7 -25t26 -7h124q19 0 26 7t7 25v316h532v-316q0 -18 7 -25t26 -7h124
q19 0 26 7t7 25v316h333v78h-1531v59h1837z" />
    <glyph glyph-name="uni091C094D091D" horiz-adv-x="1824" 
d="M1538 331v232h-159v-137h-354q-19 0 -26 -7t-7 -26v-29q0 -20 7 -26.5t26 -6.5h513zM1844 622v-59h-106v-563h-200v272h-160q1 -5 1 -17v-101q0 -40 -18 -58t-58 -18h-310v-78h-206v190h206v-53h153q20 0 26.5 6.5t6.5 26.5v69q0 19 -6.5 26t-26.5 7h-277q-40 0 -58.5 18
t-18.5 58v61q0 12 1 17h-144v-272q0 -40 -18 -58t-58 -18h-424q-40 0 -58.5 18t-18.5 58v331h194v-316q0 -18 7 -25t26 -7h124q19 0 26 7t7 25v316h723v78h-1199v59h1864z" />
    <glyph glyph-name="uni091C094D091F" horiz-adv-x="1452" 
d="M1354 426h-327q-19 0 -26 -7t-7 -25v-303q0 -18 7 -25t26 -7h124q19 0 26 7t7 25v153h200v-168q0 -40 -18.5 -58t-58.5 -18h-436q-40 0 -58.5 18t-18.5 58v333q0 12 1 17h-146v-272q0 -40 -18 -58t-58 -18h-424q-40 0 -58.5 18t-18.5 58v331h194v-316q0 -18 7 -25t26 -7
h124q19 0 26 7t7 25v316h698v78h-1174v59h1492v-59h-118v-137z" />
    <glyph glyph-name="uni091C094D0921" horiz-adv-x="1438" 
d="M1350 426h-324q-20 0 -26.5 -7t-6.5 -26v-49q0 -20 6.5 -26.5t26.5 -6.5h271q40 0 58.5 -18t18.5 -58v-159q0 -40 -18.5 -58t-58.5 -18h-425q-40 0 -58 18t-18 58v94h200v-79q0 -18 7 -25t26 -7h111q20 0 26.5 6.5t6.5 26.5v127q0 19 -6.5 26t-26.5 7h-271q-40 0 -58 18
t-18 58v81q0 12 1 17h-145v-272q0 -40 -18 -58t-58 -18h-424q-40 0 -58.5 18t-18.5 58v331h194v-316q0 -18 7 -25t26 -7h124q19 0 26 7t7 25v316h694v78h-1170v59h1479v-59h-109v-137z" />
    <glyph glyph-name="uni091C094D0924" horiz-adv-x="1503" 
d="M1523 622v-59h-106v-563h-198v426h-193q-19 0 -25.5 -7t-6.5 -25v-303q0 -18 6.5 -25t25.5 -7h74v-59h-230q-40 0 -58.5 18t-18.5 58v333q0 12 1 17h-145v-272q0 -40 -18 -58t-58 -18h-424q-40 0 -58.5 18t-18.5 58v331h194v-316q0 -18 7 -25t26 -7h124q19 0 26 7t7 25
v316h763v78h-1239v59h1543z" />
    <glyph glyph-name="uni091C094D0926" horiz-adv-x="1457" 
d="M1368 426h-344q-19 0 -26 -7t-7 -25v-225q0 -18 7 -25t26 -7h119q19 0 26.5 7.5t7.5 26.5v95h201v-266h-201v87q-11 -9 -32 -9h-277q-40 0 -58.5 18t-18.5 58v255q0 12 1 17h-143v-272q0 -40 -18 -58t-58 -18h-424q-40 0 -58.5 18t-18.5 58v331h194v-316q0 -18 7 -25
t26 -7h124q19 0 26 7t7 25v316h712v78h-1188v59h1497v-59h-109v-137z" />
    <glyph glyph-name="uni091C094D092C" horiz-adv-x="1543" 
d="M1020 137h202q15 0 22 4l-263 237q6 -54 6 -110v-99q0 -18 7 -25t26 -7zM1562 622v-59h-106v-563h-200v87q-10 -9 -32 -9h-359q-40 0 -58.5 18t-18.5 58v255q0 12 1 17h-140v-272q0 -40 -18 -58t-58 -18h-424q-40 0 -58.5 18t-18.5 58v331h194v-316q0 -18 7 -25t26 -7
h124q19 0 26 7t7 25v316h753v-59h-207l263 -239q-9 42 -9 132v244h-1276v59h1582z" />
    <glyph glyph-name="uni091C094D092E" horiz-adv-x="1810" 
d="M1525 485v78h-152v-78h152zM1172 169v257h-160q-19 0 -26 -7t-7 -25v-225q0 -18 7 -25t26 -7h128q19 0 25.5 7t6.5 25zM1829 622v-59h-106v-563h-198v426h-152v-272q0 -40 -18.5 -58t-58.5 -18h-427q-40 0 -58.5 18t-18.5 58v255q0 12 1 17h-144v-272q0 -40 -18 -58
t-58 -18h-424q-40 0 -58.5 18t-18.5 58v331h194v-316q0 -18 7 -25t26 -7h124q19 0 26 7t7 25v316h716v78h-1192v59h1849z" />
    </font>
</defs>
</svg>
